<svg xmlns="http://www.w3.org/2000/svg" height="1152" preserveAspectRatio="none" style="display: block;" version="1.1" viewBox="0 0 1593 2048" width="896">
<defs>
	<linearGradient gradientUnits="userSpaceOnUse" id="Gradient1" x1="772.606" x2="803.264" y1="159.973" y2="960.526">
		<stop class="stop0" offset="0" stop-color="rgb(253,192,81)" stop-opacity="1"></stop>
		<stop class="stop1" offset="1" stop-color="rgb(249,182,155)" stop-opacity="1"></stop>
	</linearGradient>
</defs>

<path d="M 504.122 238.244 C 501.67 197.92 518.185 154.874 557.376 137.465 C 563.983 134.53 576.069 128.693 582.327 134.077 C 583.192 137.954 583.256 136.069 582.008 139.936 C 577.996 143.539 570.073 143.329 565.838 145.812 C 541.607 160.015 521.999 180.205 517.365 209.062 C 516.044 217.282 512.808 225.832 516.343 233.954 C 518.795 236.063 524.938 235.323 529.304 235.611 C 537.771 214.544 553.011 196.896 572.619 185.449 C 619.387 158.579 670.777 154.001 700.077 206.914 C 703.302 202.215 707.282 196.548 710.793 192.146 C 727.9 170.696 768.431 148.15 795.315 145.341 C 820.213 143.576 845.621 149.077 864.909 165.604 C 872.255 171.101 877.431 178.418 883.393 185.008 C 897.105 200.164 899.745 206.993 901.782 227.127 C 937.113 203.099 969.466 197.44 1009.96 212.351 C 1031.43 220.256 1034.61 220.373 1051.23 237.416 C 1070.76 257.451 1074.66 268.313 1081.92 294.642 C 1110.64 263.232 1105.23 203.462 1069.6 179.221 C 1063.99 175.409 1049.07 173.443 1049.1 165.494 C 1050.37 163.929 1055.38 161.223 1057.01 161.492 C 1084.32 166.008 1105.11 196.694 1109.74 220.542 C 1115.89 252.214 1110.81 275.91 1093.77 301.715 C 1124.12 312.926 1141.18 320.137 1160.88 347.742 C 1177.37 370.843 1184.18 397.276 1179.25 425.568 C 1179.87 425.199 1180.49 424.841 1181.12 424.493 C 1218.71 403.84 1264.23 412.241 1287.54 451.478 C 1290.74 456.866 1295.87 469.652 1288.18 472.885 C 1287.01 472.734 1285.63 472.557 1284.06 472.354 C 1280.87 468.063 1277.62 458.395 1274.87 453.635 C 1272.66 449.838 1269.92 446.375 1266.73 443.351 C 1253.96 431.324 1236.94 424.843 1219.4 425.324 C 1205.85 425.776 1187.13 431.762 1177.82 441.672 C 1177.8 444.302 1185.07 445.659 1188.03 447.013 C 1237.05 469.463 1264.9 514.857 1247.41 568.96 C 1239.74 592.689 1228.21 597.262 1207.23 607.843 C 1226.32 648.341 1214.44 682.177 1172.06 699.219 C 1178.33 721.813 1175.24 737.285 1166.84 758.991 C 1156.14 786.632 1131.2 798.403 1108.82 815.195 C 1116.35 837.989 1124.97 849.433 1120.13 876.067 C 1117.79 888.926 1112.93 901.73 1101.61 909.362 C 1087.12 919.127 1077.27 918.117 1061.47 915.355 C 1073.39 944.948 1078.34 968.37 1065.42 998.81 C 1057.78 1016.8 1047.32 1028.37 1028.96 1036 C 1017.81 1040.64 999.071 1042.58 988.039 1037.91 C 985.656 1035.32 986.234 1036.79 986.088 1033.4 C 991.647 1022.36 1011.89 1031.04 1025.71 1023.98 C 1062.4 1005.22 1069.47 947.29 1046.72 915.233 C 1042.87 909.807 1045.88 911.915 1039.2 908.457 C 1028.8 945.992 999.388 994.422 955.155 990.755 C 950.606 990.378 947.044 988.799 942.943 987.042 C 927.072 1010.53 926.907 1011.27 900.238 1019.32 C 901.833 1032.13 900.338 1056.67 899.849 1070.39 C 919.419 1069.03 936.013 1073.07 943.905 1093.74 C 948.454 1105.66 947.092 1112.68 941.893 1124.22 C 962.959 1124.92 974.38 1134.3 971.011 1156.3 C 991.638 1163.09 1011.47 1172.87 1033.06 1179.6 C 1052.63 1185.69 1072.39 1190.62 1091.35 1197.8 C 1108.24 1204.19 1124.32 1212.84 1141.2 1219.53 C 1140.69 1204.73 1141.92 1188.49 1146.49 1174.27 C 1148.17 1169.05 1153.66 1161.41 1153.7 1156.52 C 1153.79 1147.23 1154.79 1135.69 1154.64 1126.63 C 1154.28 1105.1 1156.15 1078.94 1155.66 1058 C 1154.78 1021.22 1154.94 1000.63 1161.68 963.96 C 1162.91 962.524 1164.75 960.352 1166.12 959.105 C 1171.82 953.983 1179.38 951.459 1187.01 952.137 C 1217.65 954.722 1214.98 1006.2 1216.69 1027.18 C 1217.15 1032.76 1217.69 1039.5 1217.15 1045.05 L 1218 1049.09 L 1219.31 1049.14 L 1221.61 1045.77 C 1229.87 1024.36 1244.17 1022.69 1264.17 1025.42 C 1274.26 1033.06 1275.43 1036.77 1280.47 1048.22 C 1301.68 1033.24 1322.9 1026 1336.45 1055.52 C 1355.72 1041.07 1372.52 1044.27 1387.24 1062.29 C 1394.88 1071.64 1396.64 1085.79 1395.34 1097.32 C 1392.7 1120.68 1390.93 1151.51 1381.75 1172.91 C 1421.17 1151.9 1439.75 1149.3 1480.9 1165.08 C 1493.26 1182.27 1499.56 1184.3 1489.27 1205.12 C 1456.59 1212.9 1436.85 1223.59 1410.96 1245.05 C 1400.82 1253.45 1390.23 1258.85 1381.06 1269.48 C 1360.07 1293.81 1341.15 1314.07 1313.32 1331.13 C 1310.27 1356.57 1306.4 1385.38 1306.38 1410.88 C 1306.37 1419.09 1317.89 1451.03 1320.84 1459.9 C 1325.12 1473.02 1329.01 1486.27 1332.5 1499.62 C 1351.99 1572.21 1368.18 1645.64 1381.01 1719.7 C 1384.86 1742.3 1390.11 1767.81 1391.57 1790.62 L 1390.7 1791.76 C 1369.75 1818.81 1343.71 1843.03 1315.26 1861.3 C 1311.13 1863.95 1309.7 1869.41 1309.36 1874.03 C 1309.45 1908.29 1306.58 1941.5 1300.99 1975.32 C 1298.29 1991.5 1292.71 2009.08 1287.33 2024.64 C 1284.73 2032.11 1279.1 2040.57 1277.24 2048 L 1262.23 2048 L 1089.51 2048 L 1076.63 2048 L 448.556 2048 L 435.033 2048 L 295.803 2048 L 281.724 2048 C 286.748 1989.06 276.729 1922.07 285.129 1864.4 C 275.363 1855.22 265.334 1852.24 254.739 1844.03 C 245.177 1836.62 238.231 1827.16 228.933 1818.1 C 222.595 1811.92 207.306 1800.21 202.812 1791.49 C 202.099 1774.78 207.864 1754.49 210.416 1737.71 C 213.35 1718.42 214.881 1698.91 218.317 1679.77 C 224.07 1647.83 230.664 1616.05 238.094 1584.46 C 241.204 1571.66 245.12 1559.09 248.304 1546.32 C 254.029 1523.36 258.846 1500.42 265.487 1477.64 C 269.462 1464.02 274.627 1450.75 278.818 1437.18 C 286.24 1413.15 293.4 1382.7 305.217 1360.65 C 357.119 1263.82 433.963 1224.34 533.405 1188.45 C 544.147 1184.57 554.318 1179.28 565.117 1175.51 C 584.549 1168.71 604.584 1163.79 624.246 1157.71 C 621.004 1137.67 630.408 1126.14 650.488 1124.13 C 641.872 1106.42 643.492 1093.78 658.074 1079.87 C 669.495 1068.97 680.245 1069.62 695.049 1070.21 C 696.585 1043.61 694.995 1021.59 697.234 992.532 C 686.406 998.366 679.556 1002.55 666.931 1003.43 C 624.234 1006.4 603.34 989.549 599.727 948.416 C 567.844 983.244 511.978 970.872 496.9 926.029 C 493.78 916.75 493.656 909.405 493.071 899.745 C 470.695 919.661 437.827 936.888 408.126 921.608 C 384.206 909.303 362.178 870.958 369.922 844.174 C 370.497 842.186 373.722 841.784 375.254 841.565 C 376.489 842.164 378.971 843.09 379.229 844.53 C 381.937 857.576 381.028 874.977 388.58 886.617 C 405.935 913.37 439.316 921.521 466.135 906.212 L 467.19 905.602 C 446.463 891.992 430.467 881.056 430.383 854.145 C 430.304 828.839 439.132 815.454 456.267 797.951 C 447.37 789.15 443.776 784.317 436.457 774.318 C 431.621 778.881 426.025 783.847 420.164 787.267 C 382.417 809.288 326.864 792.794 303.88 756.834 C 300.186 751.055 297.571 736.615 304.731 733.193 C 312.322 736.165 313.213 752.636 319.967 758.966 C 329.111 767.537 335.882 772.47 347.427 777.409 C 366.704 785.655 378.637 789.554 398.63 781.803 C 396.595 780.81 394.602 779.734 392.655 778.577 C 357.182 757.682 355.68 724.515 375.451 691.58 L 374.667 691.293 C 349.8 681.932 336.294 662.039 327.54 637.508 C 319.941 616.212 330.424 584.787 340.559 565.694 C 330.511 569.466 320.32 571.483 309.496 571.644 C 283.934 572.025 264.568 548.891 265.135 524.161 C 265.422 511.692 274.923 491.331 290.019 492.865 C 293.211 493.189 296.049 494.119 298.065 496.676 L 297.742 498.911 C 294.779 502.623 286.412 506.764 281.69 509.817 C 272.285 525.156 280.827 547.362 295.41 556.355 C 312.184 566.699 331.126 554.04 347.905 549.883 C 356.042 540.027 361.953 531.323 370.911 521.269 C 306.831 484.803 342.051 415.634 386.518 378.535 C 397.866 369.067 408.865 366.196 422.857 362.485 C 427.917 306.201 449.867 261.712 504.122 238.244 z" fill="rgb(34,30,26)" transform="translate(0,0)"></path>
<path d="M 976.213 1200.72 C 976.981 1190.15 975.906 1183.46 969.935 1174.56 L 966.861 1169.89 C 988.076 1176.81 1009.19 1187.65 1031.73 1193.06 C 1046.58 1196.63 1062.81 1204.6 1078.39 1207.6 C 1095.73 1214.92 1127.09 1226.12 1141.92 1236.67 C 1142.14 1259.08 1150.41 1289.64 1166.16 1306.4 C 1164.5 1330.45 1159.48 1352.88 1154.37 1376.32 C 1152.2 1386.3 1152.39 1397.89 1150.4 1407.96 C 1139.89 1461.1 1133.32 1514.77 1121.47 1567.64 C 1120.64 1571.37 1119.37 1572.97 1115.65 1572.9 C 1108.18 1563.19 1123.2 1469.32 1115.29 1462.4 C 1102.72 1462.31 1104.24 1478.85 1103.96 1487.63 C 1103.64 1497.81 1103.66 1508.01 1103.32 1518.2 L 1099.62 1627.66 C 1099.13 1642.28 1096.92 1658.61 1097.45 1673.32 C 1099.66 1733.99 1074.94 1790.33 1070.1 1850.45 C 1069.23 1861.3 1064.55 1874.94 1063.53 1885.51 C 1060.15 1920.71 1048.35 2022.84 1076.63 2048 L 448.556 2048 C 444.546 1975.6 449.966 1889.2 448.679 1819.34 C 447.969 1780.81 456.735 1487.03 445.108 1474.72 C 441.168 1473.42 435.914 1475.41 435.828 1479.96 C 435.548 1494.66 441.807 1566.76 434.125 1575.72 C 426.111 1576.81 420.124 1546.43 418.092 1540.3 C 399.606 1484.49 368.694 1432.14 336.083 1383.44 C 330.381 1374.93 325.135 1364.68 318.875 1356.81 C 358.875 1299.47 389.265 1269.62 451.688 1237.14 C 469.975 1227.62 486.951 1217.01 507.268 1209.73 C 521.075 1204.79 534.81 1201.12 548.64 1196.47 C 570.232 1189.2 592.644 1177.29 615.005 1173.29 C 618.366 1172.7 621.737 1172.17 625.115 1171.7 C 617.839 1182.66 614.504 1186.65 618.205 1200.03 C 605.72 1217.49 602.595 1235.93 622.37 1249.62 C 602.594 1265.47 597.958 1291.87 625.602 1302.3 C 617.438 1310.21 611.273 1317.01 611.589 1328.92 C 612.174 1350.95 626.324 1358.69 645.104 1360.22 C 620.476 1389.87 635.626 1420.73 674.289 1419.01 C 668.822 1429.5 664.338 1440.41 668.348 1452.15 C 674.696 1470.74 695.294 1475.35 712.128 1471.66 C 711.507 1474.78 710.511 1479.25 710.499 1482.29 C 710.407 1507 744.348 1521.49 762.876 1505.88 C 763.445 1505.42 764.014 1504.95 764.584 1504.49 C 766.043 1515.17 767.429 1524.37 776.688 1531.54 C 779.554 1533.73 782.574 1535.7 785.726 1537.44 C 782.073 1542.66 774.27 1549.51 767.663 1554.76 C 742.274 1574.97 709.464 1609.85 738.809 1641.41 C 745.233 1648.31 758.814 1647.94 768.304 1645.79 C 775.938 1654.18 783.922 1660.09 795.756 1660.77 C 804.253 1661.22 812.567 1658.2 818.798 1652.4 C 820.893 1650.46 822.387 1648.49 824.063 1646.2 C 835.916 1646.29 844.745 1646.09 853.636 1637.11 C 859.896 1630.78 865.181 1622.65 864.808 1613.43 C 863.554 1582.38 829.854 1559.53 809.798 1539.13 C 827.527 1526.46 828.522 1520.51 825.741 1499.81 C 833.711 1507.24 842.817 1514.11 854.403 1513.85 C 861.09 1513.64 867.418 1510.78 871.998 1505.9 C 884.265 1492.89 875.985 1472.81 878.398 1469.52 C 891.949 1470.5 900.864 1475.24 912.976 1464.81 C 930.725 1449.53 926.909 1434.94 913.529 1418.89 C 936.118 1419.67 958.583 1414.77 961.619 1385.82 C 962.605 1376.42 955.965 1367.36 949.625 1360.73 C 970.058 1357.24 988.438 1348.86 984.115 1322.89 C 982.501 1313.19 976.929 1308.37 969.851 1302.08 C 990.906 1290.47 991.307 1274.28 979.459 1255.35 C 977.967 1252.99 976.434 1250.66 974.861 1248.36 C 988.224 1230.29 991.251 1219.53 976.213 1200.72 z" fill="rgb(140,146,152)" transform="translate(0,0)"></path>
<path d="M 1178.02 1321.26 C 1186.66 1323.55 1209.43 1335.44 1213.18 1325.65 C 1212.13 1314.49 1202.15 1318.36 1193.88 1312.99 C 1149.03 1283.84 1149.68 1226.77 1158.42 1179.85 C 1159.54 1173.79 1164.31 1169.71 1164.74 1161.99 C 1166.33 1129.28 1167.36 1096.54 1167.83 1063.8 C 1167.93 1042.94 1166.41 1021.18 1168.4 1000.46 C 1169.27 991.473 1170.99 971.433 1177.99 965.105 C 1179.99 963.305 1182.31 962.148 1185.05 962.352 C 1188.9 962.639 1192.48 965.346 1194.87 968.219 C 1205.7 981.232 1206.82 1051.25 1208.2 1071.2 C 1208.75 1079.23 1210.19 1087.27 1210.46 1095.3 C 1210.73 1103.48 1208.83 1111.94 1208.42 1120.14 C 1207.32 1142.42 1213.97 1163.51 1239.14 1166.88 C 1250.53 1168.41 1260.49 1163.83 1270.17 1158.37 C 1280.75 1177.81 1299.58 1176.48 1317.45 1168.97 C 1318.66 1173.77 1319.62 1178.91 1322.29 1183.03 C 1331.03 1196.51 1345.57 1197.85 1360.09 1196.25 C 1362 1196.04 1366.13 1197.99 1368.24 1197.14 C 1378.03 1193.59 1386.54 1185.11 1394.95 1179.87 C 1413.28 1168.45 1444.69 1161.21 1465.08 1170.89 C 1475.74 1175.95 1479.59 1182.65 1484.29 1192.76 C 1473.49 1197.2 1462.06 1200.56 1451.53 1205.21 C 1431.67 1213.98 1415.05 1226.66 1398.21 1240.04 C 1392.24 1244.78 1385.04 1248.89 1379.19 1253.91 C 1350.76 1279.22 1340.37 1305.81 1301.78 1319.12 C 1295.35 1343.92 1297.01 1375.97 1293.13 1401.62 C 1289.68 1424.47 1290.22 1447.96 1289.69 1470.98 C 1286.94 1491.86 1286.25 1513.37 1283.89 1534.17 C 1281.69 1553.51 1283.28 1574.41 1281.26 1593.11 C 1277.99 1623.26 1278.38 1651.22 1276.97 1680.98 L 1265.27 1906.56 C 1264.58 1921.27 1262.78 1936.09 1262.07 1950.82 C 1261.69 1958.7 1258.49 1965.46 1262.03 1973.07 C 1263.65 1974.42 1264.68 1975.34 1266.94 1974.96 C 1268.8 1974.64 1271.14 1973.7 1272.2 1972.09 C 1275.19 1967.54 1280.05 1866.73 1279.39 1855.05 C 1284.28 1848.07 1289.96 1844.13 1296.81 1839.08 C 1299.16 1850.42 1295.68 1861.99 1296.39 1873.56 C 1299.76 1928.58 1292.13 1984.32 1269.25 2034.64 C 1267.22 2039.11 1263.91 2043.44 1262.23 2048 L 1089.51 2048 C 1085.63 2040.28 1079.81 2029.8 1077.23 2021.8 C 1071.69 2004.62 1070.82 1985.44 1071.28 1967.5 C 1071.53 1957.51 1070.63 1946.91 1071.15 1936.92 C 1072.62 1909.05 1076.94 1881.77 1082.65 1854.5 C 1088.9 1814.01 1096.48 1775.75 1104.65 1735.69 C 1106.64 1725.93 1110.08 1716.04 1111.83 1706.52 C 1113.67 1696.47 1114.47 1685.75 1116.21 1675.53 L 1138.92 1540.08 C 1145.45 1499.56 1156.55 1459.34 1160.53 1418.25 C 1160.93 1414.19 1162.63 1409.29 1163.04 1405.3 C 1165.8 1378.6 1177.46 1347.27 1178.02 1321.26 z" fill="rgb(241,201,168)" transform="translate(0,0)"></path>
<path d="M 1316.89 1186.7 C 1319.41 1186.72 1319.52 1187.03 1321.64 1188.32 C 1323.66 1191.68 1323.45 1190.35 1323.45 1193.95 C 1321.71 1197.33 1313.5 1201.47 1309.94 1203.69 C 1301.92 1208.65 1294.46 1214.45 1287.67 1221 C 1273.5 1234.88 1266.89 1256.36 1267.51 1275.57 C 1267.65 1279.82 1266.02 1280.47 1263.26 1283.13 C 1250.83 1278.76 1254.04 1259.65 1256.85 1249.48 C 1265.42 1218.43 1290.67 1202.05 1316.89 1186.7 z" fill="rgb(34,30,26)" transform="translate(0,0)"></path>
<path d="M 297.936 1890.59 C 308.984 1890.91 319.829 1891.05 330.895 1891.88 C 348.319 1893.19 366.711 1898.28 383.847 1899.86 C 402.469 1901.57 415.864 1903.03 434.198 1906.83 C 433.641 1933.71 434.5 1957.21 435.485 1983.98 C 436.272 2005.35 433.861 2025.88 435.033 2048 L 295.803 2048 C 297.277 2029.89 297.935 2015.97 297.605 1998 C 297.097 1970.39 292.016 1915.44 297.936 1890.59 z" fill="rgb(241,201,168)" transform="translate(0,0)"></path>
<path d="M 801.583 157.307 C 832.887 155.171 856.064 170.611 875.692 194.107 C 882.675 202.466 888.02 212.922 889.484 223.814 C 890.285 229.776 885.139 244.622 889.054 249.413 C 898.048 251.236 916.473 234.654 924.482 230.46 C 933.706 225.629 953.407 217.759 963.384 217.395 C 983.974 216.646 1021.44 224.765 1036.37 240.317 C 1054.75 259.469 1068.55 275.637 1069.98 302.952 C 1049.52 307.719 1031.77 313.864 1017.43 330.108 C 1012.95 335.171 1006.91 345.859 1014.31 350.59 C 1021.35 349.996 1025.75 337.47 1031.23 332.532 C 1053.4 312.534 1086.96 309.784 1113.09 322.035 C 1135.94 332.944 1153.55 352.435 1162.1 376.266 C 1170.93 401.254 1169.73 419.636 1158.6 442.921 L 1163.98 451.766 C 1172.36 454.924 1180.86 457.128 1188.93 461.129 C 1210.15 471.651 1229.98 492.872 1237.49 515.53 C 1240.89 525.804 1241.21 536.774 1240.11 547.463 C 1235.27 594.429 1199.88 589.168 1194.49 601.512 C 1191.66 608.004 1196.87 617.415 1199.27 623.557 C 1203.76 635.046 1206.54 647.882 1201.22 659.585 C 1195.28 672.633 1181.62 681.31 1168.77 686.294 C 1158.11 661.706 1150.53 648.466 1122.7 640.247 C 1101.12 633.872 1082.64 643.193 1064.14 653.685 C 1047.03 638.526 1059.12 627.052 1053.71 617.702 C 1050.66 616.159 1052.29 616.527 1048.59 616.98 C 1046.01 618.983 1045.49 619.596 1044.72 623.237 C 1040.69 639.338 1043.36 650.656 1057.01 661.002 C 1060.68 663.786 1064.24 666.459 1062.78 671.315 C 1057.6 676.405 1052.4 676.271 1045.43 676.84 C 1044.65 676.431 1043.87 676.016 1043.1 675.596 C 1020.95 663.542 1017.94 643.929 1024.34 621.009 C 1028.72 605.309 1046.98 594.739 1053.85 581.48 C 1054.56 567.054 1053.51 561.644 1048.33 548.156 C 1058.28 542.79 1065.49 539.28 1073.44 530.999 C 1080.18 504.901 1071.3 481.885 1040.74 493.565 C 1018.04 502.24 1031.5 532.186 1028.69 540.129 C 1025.05 541.175 1024 540.212 1020.39 539.582 C 998.585 535.767 984.156 516.794 989.616 494.859 C 995.116 476.963 999.623 464.299 1020.15 461.218 C 1026.32 460.293 1030.49 459.927 1031.99 454.071 C 1031.53 452.591 1031.35 451.823 1030.28 450.644 C 1028.19 448.313 1025.24 446.945 1022.12 446.862 C 1014.51 446.705 1000.68 454.186 995.49 459.684 C 955.156 502.404 980.326 551.195 1036.45 552.573 C 1055.39 583.238 1029.93 586.348 1016.06 608.714 C 1012.09 615.685 1011.27 622.887 1010.26 630.586 C 1005.59 666.281 1021.07 685.513 1056.47 689.04 C 1053.8 703.902 1041.67 754.667 1036.39 768.836 C 1028.49 790.043 1012.5 831.256 1001.72 849.59 C 989.794 869.868 952.847 909.68 931.908 922.371 C 923.967 927.184 899.654 938.367 889.871 942.966 C 865.367 955.553 835.464 962.683 808.212 962.532 C 804.381 962.511 800.031 962.328 796.273 962.523 C 720.34 966.474 642.697 923.247 599.459 861.994 C 594.153 854.473 589.989 844.384 585.406 836.34 C 560.003 790.788 549.291 740.913 537.867 690.191 C 577.713 678.869 566.399 629.379 539.516 611.676 C 563.71 584.524 563.091 547.265 543.358 517.781 C 540.233 513.112 537.046 508.636 531.651 506.564 C 528.146 507.129 529.453 506.559 526.733 509.353 C 526 513.121 526.971 514.758 528.979 517.944 C 533.243 524.713 538.078 531.385 541.155 538.802 C 558.23 579.955 523.002 603.009 525.288 612.144 C 527.422 620.673 551.57 632.441 552.041 656.419 C 552.177 663.347 549.196 670.626 544.22 675.498 C 542.145 677.53 541.147 677.842 538.344 677.799 C 526.973 668.835 540.889 653.107 518.562 644.828 C 443.6 617.033 397.132 698.232 430.112 762.418 C 425.364 767.489 422.168 770.119 416.742 774.551 C 385.652 763.381 363.193 745.084 380.003 708.049 C 382.993 701.463 389.752 694.933 391.368 687.871 C 389.018 682.398 374.389 679.659 368.92 676.454 C 353.138 667.203 336.211 633.221 337.414 615.481 C 338.873 593.978 354.534 562.049 368.377 545.371 C 373.669 538.996 386.095 528.498 392.828 522.431 C 391.317 517.262 378.05 512.324 372.738 509.276 C 319.727 484.712 367.972 395.278 403.454 382.386 C 453.636 364.152 427.588 374.526 442.283 324.827 C 445.642 313.612 450.744 302.996 457.403 293.368 C 477.519 263.979 494.376 254.192 528.218 247.902 C 527.888 260.598 526.928 270.942 532.995 282.831 C 540.198 297.684 559.748 311.313 576.278 302.316 C 591.637 293.957 592.959 270.344 584.851 256.416 C 574.214 238.142 561.141 239.736 543.241 234.961 C 560.315 209.674 573.17 195.583 602.894 185.15 C 634.651 174.003 660.521 175.071 682.936 202.256 C 690.13 210.98 688.538 226.818 697.686 231.246 C 704.627 229.741 712.547 212.718 718.161 205.485 C 738.899 178.767 768.544 162.4 801.583 157.307 z" fill="url(#Gradient1)" transform="translate(0,0)"></path>
<path d="M 670.131 596.958 C 713.172 590.569 753.254 620.247 759.701 663.279 C 766.148 706.311 736.523 746.433 693.5 752.937 C 650.395 759.454 610.181 729.761 603.722 686.648 C 597.263 643.535 627.01 603.36 670.131 596.958 z" fill="rgb(34,30,26)" transform="translate(0,0)"></path>
<path d="M 663.961 609.221 C 756.689 603.474 783.335 710.498 698.414 738.688 C 680.064 743.846 660.505 740.286 644.864 729.396 C 628.499 718.001 619.61 706.778 615.823 687.089 C 610.549 659.666 618.303 631.412 644.12 617.417 C 652.073 613.189 654.893 610.744 663.961 609.221 z" fill="rgb(47,95,175)" transform="translate(0,0)"></path>
<path d="M 677.316 645.254 C 685.606 644.355 693.735 647.998 698.581 654.784 C 703.426 661.569 704.233 670.441 700.691 677.99 C 697.15 685.538 689.811 690.589 681.496 691.2 C 668.944 692.122 657.969 682.814 656.829 670.281 C 655.689 657.747 664.804 646.612 677.316 645.254 z" fill="rgb(34,30,26)" transform="translate(0,0)"></path>
<path d="M 918.463 595.453 C 961.718 597.053 995.473 633.437 993.832 676.69 C 992.191 719.943 955.777 753.664 912.525 751.983 C 869.331 750.304 835.663 713.948 837.302 670.752 C 838.941 627.556 875.265 593.854 918.463 595.453 z" fill="rgb(34,30,26)" transform="translate(0,0)"></path>
<path d="M 906.649 609.324 C 924.298 608.397 934.976 608.265 951.314 617.114 C 1007.13 647.345 983.371 725.093 925.754 738.606 C 924.183 738.899 922.607 739.166 921.026 739.408 C 886.032 744.684 852.397 718.183 849.124 683.633 C 847.022 661.443 852.173 649.457 865.826 632.14 C 875.897 619.455 890.567 611.255 906.649 609.324 z" fill="rgb(47,95,175)" transform="translate(0,0)"></path>
<path d="M 913.159 646.16 C 942.05 645.546 943.828 682.664 923.013 690.212 L 920.016 691.297 C 909.639 691.123 901.226 689.578 897.339 678.815 C 891.442 662.487 898.117 652.061 913.159 646.16 z" fill="rgb(34,30,26)" transform="translate(0,0)"></path>
<path d="M 737.689 452.056 C 734.839 453.584 731.976 455.084 729.098 456.557 C 697.654 472.381 650.342 458.967 661.775 415.208 C 665.962 399.185 694.937 388.813 709.766 395.981 C 737.204 409.243 757.848 442.12 748.766 473.278 C 747.895 476.234 744.476 482.4 743.117 485.533 C 748.429 496.713 743.779 505.03 749.501 515.825 C 786.324 585.298 863.064 538.433 884.973 484.22 C 900.124 446.728 861.476 425.192 847.633 395.077 C 844.171 387.546 841.605 365.467 854.426 372.555 C 858.286 378.992 856.835 386.807 861.217 393.278 C 863.921 397.27 866.766 402.987 869.994 406.604 C 909.198 450.548 913.785 482.301 870.547 529.195 C 864.138 535.294 860.324 538.775 853.004 543.704 C 827.011 560.58 792.928 574.268 765.683 552.195 C 745.029 535.462 736.505 527.008 733.06 499.743 C 687.129 541.555 607.544 507.091 623.041 484.959 C 631.386 485.521 645.634 510.868 672.743 509.742 C 711.809 508.118 735.923 493.296 737.689 452.056 z" fill="rgb(34,30,26)" transform="translate(0,0)"></path>
<path d="M 691.406 407.204 C 716.707 404.399 724.057 421.767 735.519 440.07 C 726.808 445.65 725.235 446.502 715.994 450.171 C 671.223 460.202 657.165 417.377 691.406 407.204 z" fill="rgb(231,183,92)" transform="translate(0,0)"></path>
<path d="M 874.074 533.405 C 909.745 521.632 947.266 532.308 979.276 549.768 C 989.073 555.112 1026.96 573.17 1021.27 589.092 C 1014.66 595.775 991.971 587.274 982.902 585.186 C 948.889 577.356 916.251 568.537 880.992 568.471 C 869.94 568.406 858.185 567.57 847.033 567.632 C 845.407 567.589 843.796 563.297 843.473 561.966 C 844.309 555.144 849.854 550.588 854.956 546.036 L 853.004 543.704 C 860.324 538.775 864.138 535.294 870.547 529.195 C 871.557 529.863 873.909 530.815 874.117 531.969 L 873.838 531.994 C 873.54 532.48 873.874 532.915 874.074 533.405 z" fill="rgb(34,30,26)" transform="translate(0,0)"></path>
<path d="M 870.547 529.195 C 871.557 529.863 873.909 530.815 874.117 531.969 L 873.838 531.994 C 873.54 532.48 873.874 532.915 874.074 533.405 C 867.448 538.255 862.538 539.866 854.956 546.036 L 853.004 543.704 C 860.324 538.775 864.138 535.294 870.547 529.195 z" fill="rgb(214,154,114)" transform="translate(0,0)"></path>
<path d="M 897.742 540.389 C 899.872 540.18 902.012 540.091 904.151 540.123 C 929.896 540.371 950.358 545.721 972.591 558.093 C 984.172 564.537 997.182 569.55 1006.71 579.176 C 997.061 577.172 987.441 575.021 977.856 572.725 C 972.04 571.494 966.039 569.45 959.818 568.204 C 927.345 561.904 894.378 558.485 861.303 557.985 C 872.803 546.453 881.53 542.24 897.742 540.389 z" fill="rgb(231,183,92)" transform="translate(0,0)"></path>
<path d="M 696.857 527.4 C 720.721 529.822 734.701 539.499 748.03 559.173 C 749.67 561.594 749.277 564.046 748.522 566.553 C 741.744 572.542 731.296 567.12 721.874 567.755 C 687.449 570.074 659.173 572.876 625.886 581.545 C 616.402 584.88 592.653 591.047 582.662 587.637 C 576.956 585.688 581.411 577.197 584.312 573.736 C 599.277 555.884 628.31 536.656 651.552 532.314 C 665.581 529.694 682.548 529.247 696.857 527.4 z" fill="rgb(34,30,26)" transform="translate(0,0)"></path>
<path d="M 687.089 539.416 C 707.468 537.413 719.15 543.216 733.199 557.128 C 714.855 558.078 696.655 560.204 678.228 560.153 C 664.695 560.116 652.375 563.013 639.217 565.898 C 625.096 569.046 614.686 571.751 600.091 574.274 C 613.627 560.388 636.449 546.526 655.565 542.583 C 663.579 540.931 678.337 540.074 687.089 539.416 z" fill="rgb(231,183,92)" transform="translate(0,0)"></path>
<path d="M 792.671 641.839 C 826.03 642.552 774.15 751.224 766.798 765.39 C 760.65 777.237 802.874 788.183 812.506 783.071 C 816.031 781.201 833.789 777.923 837.747 782.64 C 837.772 786.933 838.238 785.238 835.756 789.018 C 814.01 797.531 787.108 798.602 766.644 785.81 C 737.538 767.616 772.758 730.991 779.915 709.676 C 783.281 699.653 786.78 689.655 789.325 679.358 C 792.714 667.794 786.653 650.408 792.671 641.839 z" fill="rgb(34,30,26)" transform="translate(0,0)"></path>
<path d="M 863.644 820.887 C 867.365 821.36 867.742 821.572 870.112 823.802 C 870.866 834.076 838.676 849.838 830.048 852.334 C 799.424 861.195 760.798 852.219 732.948 838.004 C 729.285 835.402 726.319 833.613 724.884 829.431 C 725.441 825.525 724.699 826.678 727.236 824.432 C 735.668 823.413 741.45 829.568 748.741 832.091 C 757.537 835.134 768.177 839.212 777.227 841.251 C 795.573 845.386 818.229 844.036 835.747 837.014 C 845.278 833.057 854.893 826.157 863.644 820.887 z" fill="rgb(34,30,26)" transform="translate(0,0)"></path>
<path d="M 882.568 798.518 C 889.83 800.146 890.939 801.399 896.966 805.859 C 900.759 814.07 903.597 817.828 897.809 825.218 C 888.717 820.208 892.438 820.783 886.637 813.352 C 881.046 806.19 875.641 807.473 882.568 798.518 z" fill="rgb(34,30,26)" transform="translate(0,0)"></path>
<path d="M 705.38 800.568 C 721.064 802.89 705.048 815.712 699.076 822.81 C 682.852 820.801 699.716 805.018 705.38 800.568 z" fill="rgb(34,30,26)" transform="translate(0,0)"></path>
<path d="M 313.659 1379.24 C 323.129 1382.6 330.642 1401.48 337.032 1409.17 C 351.635 1426.73 358.601 1448.17 372.134 1466.42 C 374.059 1469.65 376.534 1473.26 378.01 1476.7 C 396.918 1520.77 414.168 1562.9 423.846 1610.15 C 428.13 1631.06 432.963 1647.68 435.781 1669.54 C 439.462 1698.12 437.454 1721.38 435.94 1750.04 C 435.776 1763.04 436.542 1777.6 436.535 1790.9 C 436.525 1810.35 439.887 1827.78 435.871 1847.39 C 411.673 1838.99 392.368 1832.49 367.99 1822.98 C 356.222 1817.36 344.908 1816.09 333.209 1812.07 C 306.948 1803.05 280.654 1796.95 253.983 1788.93 C 241.869 1785.28 233.531 1786.15 218.819 1780.58 C 215.145 1772.9 223.356 1730.36 225.938 1720.7 C 230.594 1703.29 231.811 1686.94 234.511 1669.28 C 237.55 1649.94 241.217 1630.69 245.508 1611.58 C 253.332 1576.07 265.08 1537.99 275.011 1502.88 C 277.226 1495.05 278.023 1484.73 280.197 1476.24 C 288.506 1442.99 299.703 1410.54 313.659 1379.24 z" fill="rgb(140,146,152)" transform="translate(0,0)"></path>
<path d="M 660.168 1220.73 C 670.313 1225.82 678.464 1233.98 687.809 1238.63 C 768.895 1279.02 856.911 1277.18 930.742 1224.05 C 934.831 1237.21 937.381 1243.61 950.832 1249.15 C 926.915 1263.51 925.222 1278.05 944.066 1297.95 C 942.259 1298.84 940.462 1299.76 938.676 1300.69 C 917.214 1312.01 920.55 1333.26 930.232 1351.2 L 929.384 1351.45 C 898.182 1361 892.779 1383.94 904.237 1412.15 C 895.401 1411.29 891.87 1411.59 883.292 1413.68 C 862.571 1422.4 860.613 1437.12 867.311 1456.29 C 842.796 1447.29 820.832 1457.2 820.73 1485.05 C 802.422 1474.04 789.342 1473.65 772.073 1486.53 C 765.421 1461.95 756.775 1448.46 728.806 1454.69 C 728.777 1451.44 729.124 1448.03 729.042 1444.71 C 728.435 1420.34 710.23 1409.07 687.784 1410.03 C 700.196 1394.85 701.344 1381.67 688.592 1366.23 C 680.688 1356.65 672.451 1354.31 660.625 1353.5 C 678.696 1331.85 675.007 1310.43 648.855 1297.84 C 664.458 1283.03 666.031 1263.23 647.777 1249.46 C 649.068 1248.38 650.323 1247.26 651.542 1246.09 C 659.687 1238.24 660.052 1231.12 660.168 1220.73 z" fill="rgb(140,146,152)" transform="translate(0,0)"></path>
<path d="M 885.406 990.94 C 886.994 991.315 886.81 991.942 886.886 993.103 C 887.799 1006.93 885.092 1134.39 886.057 1136.26 C 889.319 1142.57 898.887 1140.57 902.725 1146.64 C 906.651 1166.73 868.368 1184.55 853.803 1189.29 C 805.717 1204.96 762.336 1200.82 717.415 1177.74 C 702.73 1170.56 689.36 1158.37 683.48 1142.85 C 690.787 1140.72 697.994 1138.17 705.2 1135.71 C 707.897 1120.66 706.857 1092.36 707.011 1076.33 C 707.165 1060.38 707.449 1043.12 707.24 1027.27 C 718.664 1029.03 731.476 1033.45 742.394 1034.18 C 792.255 1037.5 843.379 1015.81 885.406 990.94 z" fill="rgb(241,201,168)" transform="translate(0,0)"></path>
<path d="M 463.14 804.779 C 481.971 811.618 494.295 820.679 515.038 822.563 C 535.67 824.436 544.202 825.536 564.15 818.983 C 580.921 865.675 612.958 905.34 655.077 931.558 C 668.055 939.79 685.851 948.096 697.779 956.604 L 698.869 957.391 C 698.293 963.257 698.183 968.802 698.017 974.692 C 680.12 994.644 653.053 996.539 629.845 985.028 C 598.346 964.454 620.488 937.297 616.069 924.884 C 615.283 922.676 614.418 922.616 612.429 921.645 C 608.696 922.058 603.82 927.043 601.473 930.256 C 566.749 977.808 499.871 953.691 505.586 894.454 C 506.101 889.117 507.139 881.868 503.349 876.902 C 492.75 874.48 487.837 893.613 477.544 896.854 C 471.843 896.119 468.571 893.567 463.877 890.601 C 428.497 868.244 442.237 833.542 463.14 804.779 z" fill="rgb(231,183,92)" transform="translate(0,0)"></path>
<path d="M 1302.91 1466.9 C 1302.73 1462.87 1301.82 1455.84 1303.52 1452.82 L 1305.95 1455.39 C 1307.26 1462.83 1312.31 1471.32 1314.27 1478.88 C 1319.87 1500.52 1326.47 1521.97 1331.29 1543.79 L 1352.59 1641.72 C 1357.83 1665.96 1363.7 1689.09 1366.35 1713.92 C 1367.18 1721.73 1372.12 1732.59 1372.65 1740.33 C 1373.55 1753.44 1375.05 1763.51 1377.99 1776.29 C 1361.38 1786.18 1338.48 1787.35 1319.96 1792.5 C 1307.17 1796.06 1296.43 1801.39 1283.08 1804.08 L 1282.11 1804.28 C 1283.07 1777.59 1284.55 1750.92 1286.57 1724.28 C 1287.35 1714.93 1288.32 1705.59 1289.27 1696.25 C 1291.4 1675.31 1289.81 1655.12 1291.81 1634 C 1293.27 1618.53 1295.85 1602.67 1296.75 1587.32 L 1301.55 1497.58 C 1302.05 1488.88 1301.53 1474.3 1302.91 1466.9 z" fill="rgb(140,146,152)" transform="translate(0,0)"></path>
<path d="M 1092.58 818.178 L 1093.48 818.255 C 1099.19 822.548 1104.39 838.789 1106.07 845.638 C 1111.99 869.676 1109 878.645 1097.18 898.844 L 1096.35 899.275 C 1078.72 908.238 1063.36 906.735 1045.27 898.534 C 1040.67 896.446 1036.14 893.744 1031.3 892.333 C 1026.8 895.722 1026.66 910.612 1024.11 917.069 C 1013.45 944.116 989.521 982.099 956.028 978.805 C 952.32 978.44 946.312 974.701 941.938 975.241 C 931.868 976.485 929.394 987.829 923.196 994.815 C 918.259 998.866 908.581 1006.21 901.928 1004.75 C 899.041 1000.49 900.004 959.711 899.982 951.804 C 942.371 932.54 965.695 916.123 994.469 878.085 C 1001.9 868.267 1010.46 857.844 1016.68 847.021 C 1021.53 838.568 1024.21 829.118 1029.37 820.398 L 1030 819.356 C 1052.78 825.085 1070.08 823.698 1092.58 818.178 z" fill="rgb(231,183,92)" transform="translate(0,0)"></path>
<path d="M 920.355 1144.55 C 926.666 1159.63 917.906 1158.86 935.446 1172.01 C 929.415 1185.6 930.548 1189.95 939.055 1201.76 C 925.646 1215.13 891.97 1235.22 873.54 1242.3 C 866.152 1245.14 847.135 1249 838.866 1250.44 C 787.037 1258.99 733.837 1249.74 687.943 1224.18 C 680.572 1220.05 670.362 1212.45 663.08 1207.33 L 655.51 1201.34 C 662.401 1191.95 665.214 1186.28 659.523 1174.78 C 664.303 1166.16 668.187 1170.5 674.412 1154.93 C 683.626 1165.43 694.544 1177.94 706.154 1185.61 C 739.065 1207.36 787.238 1216.62 825.935 1208.68 C 855.939 1202.7 886.764 1193.56 906.471 1168.42 C 912.668 1160.51 915.002 1152.32 920.355 1144.55 z" fill="rgb(140,146,152)" transform="translate(0,0)"></path>
<path d="M 486.271 651.355 C 499.567 651.932 506.754 654.498 519.646 657.82 C 523.689 667.743 525.719 687.165 527.771 698.836 C 510.271 684.169 497.648 678.451 474.84 675.246 C 470.069 674.575 457.959 673.702 457.654 680.087 C 462.919 685.83 483.481 687.748 494.864 691.688 C 469.9 715.836 473.045 747.209 504.185 763.887 C 505.353 769.287 506.207 775.521 510.771 778.992 C 518.088 777.914 520.858 732.318 535.281 736.225 L 536.977 739.213 C 541.409 758.44 551.306 791.886 560.017 809.224 C 533.08 820.359 498.112 809.376 474.057 795.283 C 451.997 782.358 438.056 758.686 432.461 734.092 C 427.938 714.031 431.654 692.993 442.776 675.695 C 454.361 657.596 466.831 655.767 486.271 651.355 z" fill="rgb(214,154,114)" transform="translate(0,0)"></path>
<path d="M 1104.03 651.451 C 1149.82 646.176 1167.5 698.671 1161.57 734.464 C 1152.34 790.072 1094.25 815.306 1043.07 810.576 C 1039.81 810.274 1037.31 809.018 1035.51 806.442 C 1036.54 801.203 1040.84 791.014 1042.87 785.558 C 1046.37 776.417 1049.41 767.107 1051.99 757.664 C 1053.88 749.777 1055.73 743.545 1058.15 735.878 C 1083.92 751.473 1068.89 764.675 1077.5 774.884 C 1083.43 775.698 1086.48 770.815 1088.02 765.806 C 1112.6 749.444 1117.16 734.897 1115.95 706.367 C 1111.03 697.857 1108.33 695.189 1100.65 688.989 C 1110.31 687.135 1128.77 688.002 1133.67 683.277 L 1133.62 680.524 C 1125.91 667.028 1079.8 685.086 1069.16 690.442 C 1070.49 680.481 1071.44 671.348 1074.66 661.804 C 1084.62 655.455 1092.36 652.359 1104.03 651.451 z" fill="rgb(214,154,114)" transform="translate(0,0)"></path>
<path d="M 1352.36 1057.09 C 1406.98 1052.31 1376.58 1151.01 1368.53 1178.25 L 1358.63 1183.25 C 1344.7 1189.29 1327.93 1184.65 1328.41 1167.95 C 1329.35 1134.85 1336.3 1101.74 1339.18 1068.57 C 1343.95 1063.95 1347.13 1061.2 1352.36 1057.09 z" fill="rgb(241,201,168)" transform="translate(0,0)"></path>
<path d="M 1248.49 1033.93 C 1269.41 1033.81 1274.25 1055.38 1272.24 1071.98 C 1269.58 1094.01 1267.07 1117.21 1264.52 1139.31 C 1262.89 1153.48 1254.43 1153.9 1242.44 1155.67 C 1202.77 1159.21 1225.83 1071.05 1230.72 1051.26 C 1232.78 1042.94 1241.34 1037.4 1248.49 1033.93 z" fill="rgb(241,201,168)" transform="translate(0,0)"></path>
<path d="M 1304.56 1046.94 C 1313.6 1047.5 1316.3 1048.89 1324.28 1053.3 C 1325.06 1056.18 1325.85 1059.09 1326.29 1062.05 C 1328.61 1077.94 1322.33 1142.64 1312.3 1155.01 C 1309.12 1158.94 1306.17 1161.56 1301.04 1162.18 C 1276.44 1161.24 1274.54 1154.56 1277.62 1131.26 C 1280.74 1107.7 1282.72 1083.59 1284.33 1059.87 C 1291.53 1052.84 1295.28 1051 1304.56 1046.94 z" fill="rgb(241,201,168)" transform="translate(0,0)"></path>
<path d="M 796.041 1557.51 C 804.715 1564.33 812.662 1610.6 814.525 1622.41 C 817.304 1640.03 812.377 1645.91 795.873 1650.52 C 769.584 1647.51 776.848 1626.12 781.096 1609.01 C 785.568 1591 790.107 1575.09 796.041 1557.51 z" fill="rgb(244,237,222)" transform="translate(0,0)"></path>
<path d="M 782.69 1555.71 L 784.389 1557.11 C 784.718 1561.17 782.55 1563.75 781.249 1567.54 C 773.748 1589.33 768.8 1612.58 763.64 1635.09 C 758.077 1638.59 752.53 1636.39 747.524 1632.84 C 723.74 1607.16 761.534 1568.57 782.69 1555.71 z" fill="rgb(244,237,222)" transform="translate(0,0)"></path>
<path d="M 810.14 1555.6 C 810.431 1555.8 810.722 1556 811.012 1556.21 C 828.812 1572.8 867.421 1602.37 846.29 1628.77 C 841.906 1632.88 835.546 1636.89 829.379 1636.49 C 827.821 1635.51 826.388 1635.11 826.354 1632.91 C 825.935 1606.16 817.751 1581.22 810.14 1555.6 z" fill="rgb(244,237,222)" transform="translate(0,0)"></path>
<path d="M 689.829 1420.01 C 713.493 1420.58 734.633 1448.95 706.867 1462.14 C 668.839 1465.23 670.83 1428.66 689.829 1420.01 z" fill="rgb(244,237,222)" transform="translate(0,0)"></path>
<path d="M 951.483 1307.21 C 961.992 1307.8 967.395 1309.89 971.374 1320.38 C 977.493 1336.52 971.438 1344.03 956.262 1349.29 C 952.17 1349.76 945.591 1350.71 941.982 1348.22 C 932.256 1341.53 931.232 1324.97 936.784 1315.39 C 939.897 1310.01 946.087 1308.45 951.483 1307.21 z" fill="rgb(244,237,222)" transform="translate(0,0)"></path>
<path d="M 806.202 1488.55 C 812.116 1488.44 813.188 1494.75 815.209 1499 C 821.778 1512.81 809.066 1538.38 791.762 1528.43 L 790.39 1527.68 C 786.893 1526.01 785.054 1525.27 781.522 1523.3 C 777.148 1516.37 777.663 1517.28 775.668 1509.29 C 782.801 1485.22 785.284 1490.35 806.202 1488.55 z" fill="rgb(244,237,222)" transform="translate(0,0)"></path>
<path d="M 637.646 1307.96 C 644.714 1307.4 656.406 1311.38 658.502 1317.95 C 663.873 1334.79 658.401 1343.62 644.571 1349.86 C 636.472 1350.25 627.608 1348.64 624.583 1340.38 C 618.508 1323.8 622.756 1314.26 637.646 1307.96 z" fill="rgb(244,237,222)" transform="translate(0,0)"></path>
<path d="M 848.204 1462.07 C 877.45 1461.84 875.762 1498.29 854.186 1503.35 C 844.729 1502.23 836.656 1500.56 832.314 1490.89 C 830.236 1486.34 830.147 1481.14 832.069 1476.52 C 835.321 1468.8 840.871 1465.11 848.204 1462.07 z" fill="rgb(47,95,175)" transform="translate(0,0)"></path>
<path d="M 888.137 1422.01 C 911.441 1421.46 925.416 1448.14 899.437 1460.6 C 889.185 1463.1 888.292 1461.35 878.326 1456.75 L 878.089 1456.03 C 873.987 1443.86 872.545 1431.55 885.374 1423.68 L 888.137 1422.01 z" fill="rgb(244,237,222)" transform="translate(0,0)"></path>
<path d="M 540.088 257.119 C 540.38 247.393 539.448 247.726 550.119 249.649 C 562.502 252.721 567.857 253.172 575.003 265.005 C 579.806 272.96 578.877 286.415 570.006 290.907 C 567.423 292.221 564.42 292.439 561.674 291.514 C 546.669 286.493 540.923 271.484 540.088 257.119 z" fill="rgb(231,183,92)" transform="translate(0,0)"></path>
<path d="M 737.56 1464.15 C 750.419 1463.39 756.488 1468.68 759.56 1481.34 C 762.826 1494.79 755.795 1499.62 744.323 1502.02 C 716.866 1499.66 711.192 1475.04 737.56 1464.15 z" fill="rgb(47,95,175)" transform="translate(0,0)"></path>
<path d="M 633.135 1255.02 C 655.919 1257.02 657.061 1284.73 635.472 1293.44 C 633.291 1293.56 627.345 1294.12 625.505 1293.01 C 608.737 1282.91 617.975 1261.03 633.135 1255.02 z" fill="rgb(47,95,175)" transform="translate(0,0)"></path>
<path d="M 958.259 1256.97 C 967.273 1257.21 973.213 1260.08 975.474 1269.36 C 978.832 1283.14 975.011 1290.82 961.515 1293.61 C 948.705 1291.8 939.303 1283.38 943.259 1269 C 944.852 1263.21 952.997 1259.43 958.259 1256.97 z" fill="rgb(47,95,175)" transform="translate(0,0)"></path>
<path d="M 643.838 1134.6 C 649.336 1132.78 655.384 1134.06 659.672 1137.95 C 663.959 1141.85 665.822 1147.74 664.548 1153.39 C 663.275 1159.04 659.061 1163.56 653.519 1165.24 C 645.1 1167.78 636.202 1163.08 633.552 1154.7 C 630.903 1146.31 635.487 1137.35 643.838 1134.6 z" fill="rgb(244,237,222)" transform="translate(0,0)"></path>
<path d="M 942.178 1133.03 C 944.195 1133.23 945.537 1133.35 947.517 1133.84 C 952.141 1134.97 956.099 1137.95 958.471 1142.08 C 963.872 1151.53 958.215 1160.13 949.332 1164.38 C 929.216 1165.32 923.734 1144.12 939.375 1134.69 L 942.178 1133.03 z" fill="rgb(234,223,200)" transform="translate(0,0)"></path>
<path d="M 1052.59 502.018 C 1063.78 503.179 1065.39 509.519 1063.79 520.479 C 1062.82 527.059 1053.15 532.68 1047.68 535.949 C 1047.14 536.247 1044.08 538.09 1043.6 537.66 C 1037.48 532.225 1037.61 516.758 1040.33 510.609 C 1042.82 504.984 1048.34 503.562 1052.59 502.018 z" fill="rgb(231,183,92)" transform="translate(0,0)"></path>
<path d="M 638.28 1175.55 C 641.864 1174.5 645.738 1175.47 648.394 1178.1 C 651.05 1180.73 652.067 1184.59 651.048 1188.19 C 650.03 1191.78 647.137 1194.54 643.497 1195.38 C 638.094 1196.63 632.675 1193.36 631.263 1188 C 629.852 1182.64 632.961 1177.12 638.28 1175.55 z" fill="rgb(234,223,200)" transform="translate(0,0)"></path>
<path d="M 948.525 1175.93 C 953.497 1174.11 959.019 1176.59 960.957 1181.52 C 962.894 1186.45 960.539 1192.02 955.653 1194.07 C 952.394 1195.44 948.651 1194.93 945.872 1192.75 C 943.092 1190.57 941.71 1187.05 942.261 1183.56 C 942.812 1180.07 945.209 1177.15 948.525 1175.93 z" fill="rgb(241,201,168)" transform="translate(0,0)"></path>
<path d="M 1257.31 638.655 C 1275.7 638.767 1284.31 680.325 1284.96 694.264 C 1285.71 710.362 1275.37 724.234 1264.99 735.29 C 1265.41 773.046 1246.1 808.869 1199.23 801.544 C 1193.26 800.612 1177.01 793.487 1178.89 786.097 C 1187.3 778.939 1196.03 789.335 1205.15 790.91 C 1207.14 791.255 1217.74 789.965 1220.31 789.669 C 1243.71 785.88 1251.65 764.888 1253.37 743.786 C 1246.02 747.433 1240.47 750.043 1231.81 748.943 C 1225.75 748.19 1220.27 744.986 1216.63 740.078 C 1201.96 720.465 1216.89 692.124 1242.43 697.71 C 1251.34 699.657 1257.23 714.186 1261.27 721.549 C 1280.49 699.414 1275.27 678.883 1261.81 654.061 C 1260.45 651.56 1256.32 648.062 1254.22 645.017 C 1254.62 641.227 1254.7 642.201 1257.31 638.655 z" fill="rgb(34,30,26)" transform="translate(0,0)"></path>
<path d="M 1233.51 709.114 C 1247.07 708.156 1247.4 717.765 1252.02 729.689 C 1245.79 734.846 1246.99 734.202 1240.12 737.376 C 1230.22 736.741 1219.39 733.376 1221.16 719.008 C 1221.65 715.05 1229.96 710.894 1233.51 709.114 z" fill="rgb(244,237,222)" transform="translate(0,0)"></path>
<metadata><recraft-signature>{"signed_by": "recraft", "signature_b64": "9bB0xfN9vgQeUI8rYsLEtgXADsjOLhnhYCl44CmL1eYffmwS3qZNVQDeUKDjNS2UxONh4K/BSunuUqOUWQ4wDA==", "signing_algo": "Ed25519", "generation_timestamp": 1782906815, "identifier": "df57ffca-11ce-4c1b-82d8-c65812a03775"}</recraft-signature></metadata></svg>