<svg xmlns="http://www.w3.org/2000/svg" height="1152" preserveAspectRatio="none" style="display: block;" version="1.1" viewBox="0 0 1593 2048" width="896">
<defs>
	<linearGradient gradientUnits="userSpaceOnUse" id="Gradient1" x1="768.527" x2="782.889" y1="279.707" y2="1074.31">
		<stop class="stop0" offset="0" stop-color="rgb(251,184,89)" stop-opacity="1"></stop>
		<stop class="stop1" offset="1" stop-color="rgb(248,181,153)" stop-opacity="1"></stop>
	</linearGradient>
</defs>

<path d="M 684.684 339.3 C 640.127 319.474 663.119 267.772 703.923 270.777 C 719.464 271.922 732.402 284.32 737 298.378 C 740.058 306.802 739.206 316.468 740.336 325.327 C 765.362 328.888 766.869 330.88 772.956 354.855 C 783.867 355.329 793.319 355.594 804.102 357.886 C 808.139 348.493 809.593 346.373 817.01 339.343 C 800.131 304.365 827.082 273.275 859.924 287.047 C 868.855 290.775 875.907 297.944 879.485 306.936 C 884.835 320.357 881.178 334.221 877.207 347.473 C 894.45 361.513 896.614 368.589 893.614 390.201 C 909.049 376.503 922.895 359.622 944.634 360.7 C 954.464 361.132 963.715 365.47 970.332 372.752 C 978.72 382.068 980.636 393.333 979.84 405.438 C 979.712 407.338 979.565 409.236 979.398 411.133 C 1000.57 398.937 1013.27 365.183 1040.92 373.771 C 1087.53 388.246 1077.44 457.849 1025.89 449.952 C 1022.13 456.958 1019.72 460.196 1014.9 466.623 C 1052.35 522.64 1096.09 446.961 1128.82 494.879 C 1134.54 503.324 1136.62 513.713 1134.6 523.71 C 1130.14 546.141 1111.86 554.386 1090.7 551.817 C 1087.07 555.843 1085.51 557.714 1081.18 561.018 C 1131.59 584.005 1153.72 622.328 1108.18 655.066 C 1104.25 657.886 1118.83 672.11 1123.01 672.446 C 1141.96 681.045 1165.78 684.436 1173.62 706.718 C 1177.11 716.636 1176.45 727.538 1171.8 736.966 C 1163.33 754.476 1143.37 762.497 1125.47 755.002 C 1117.02 751.466 1108.99 738.695 1098.7 738.498 C 1088 743.161 1091.79 762.986 1096.81 770.338 C 1108.28 787.153 1125.81 803.026 1119.58 826.159 C 1114.38 845.426 1094.43 851.767 1075.85 852.295 C 1076.83 861.226 1076.67 866.167 1075.39 875.114 C 1088.57 885.685 1097.99 893.815 1099.92 911.822 C 1101.37 925.381 1098.44 935.762 1090.33 946.331 C 1074.94 966.405 1055.39 959.519 1035.47 952.373 C 1030.57 950.617 1026.02 950.114 1021.53 953.453 C 1014.2 965.611 1037.45 986.431 1024.33 1006.71 C 1012.12 1025.6 1002.41 1025.71 981.784 1018.06 C 959.125 1006.79 966.521 1025.56 957.844 1038.73 C 946.853 1055.41 926.829 1053.96 909.601 1049.27 C 909.663 1061.77 907.12 1113.23 918.528 1119.28 C 922.174 1116.86 924.965 1114.05 928.909 1111.93 C 955.884 1097.46 984.37 1122.44 976.942 1151.13 C 975.538 1156.55 973.644 1160.06 971.077 1165.09 C 982.322 1168.4 988.513 1173.84 994.974 1183.78 C 1010.58 1188.2 1019.23 1190.6 1033.95 1198.11 C 1041.77 1202.1 1059.15 1213.21 1066.25 1215.54 C 1091.39 1223.81 1115.86 1227.67 1140.99 1237.59 C 1168.69 1248.53 1182.65 1261.34 1205.69 1279.31 C 1213.59 1285.46 1229.7 1292.71 1238.94 1298.01 C 1262.07 1310.86 1276.74 1329.56 1290.09 1351.63 C 1299.46 1367.13 1304.85 1389.25 1314.19 1402.96 C 1329.17 1424.95 1344.56 1434.55 1355.18 1461.32 C 1365 1486.08 1368.48 1508.21 1371.42 1534.78 C 1373.32 1548.31 1378.18 1564.58 1381.83 1577.89 C 1390.35 1608.99 1408.18 1631.18 1420.17 1661.55 C 1433.68 1695.78 1434.09 1726.94 1443.81 1761.07 C 1450.82 1785.69 1469.86 1810.08 1474.66 1837 C 1477.34 1851.99 1479.27 1865.85 1475.12 1881.09 C 1472.64 1890.2 1468.35 1897.2 1459.59 1901.15 C 1430.04 1914.46 1400.16 1907.65 1370.13 1924.83 C 1368.26 1952.55 1366.2 1980.25 1363.94 2007.94 C 1363.23 2016.62 1361.68 2040.03 1359.97 2048 L 1350.81 2048 L 1188.73 2048 L 1161.64 2048 L 429.61 2048 L 395.044 2048 L 184.575 2048 L 173.958 2048 C 161.702 1990.72 169.389 1936.12 176.677 1878.94 C 160.189 1869.31 148.531 1867 131.313 1860.31 C 121.268 1856.4 115.353 1851.15 111.352 1841.19 C 114.336 1830.31 120.501 1817.61 124.052 1806.04 C 128.139 1792.72 131.024 1777.67 135.804 1764.87 C 140.398 1752.57 151.401 1734.71 154.742 1722.01 C 161.065 1697.96 158.919 1682.27 168.267 1657.55 C 176.616 1635.47 192.799 1618.83 200.108 1599.18 C 207.31 1579.82 202.534 1557.92 212.287 1535.61 C 222.489 1512.27 235.056 1502.67 247.539 1482.46 C 254.052 1471.92 260.304 1448.73 266.115 1434.91 C 253.204 1418.85 247.834 1403.34 239.89 1384.92 C 238.802 1382.39 229.415 1373.56 227.01 1370.4 C 212.7 1351.59 206.503 1333.33 203.581 1310.56 C 196.128 1301.17 187.289 1293.88 180.745 1283.19 C 177.7 1278.22 175.113 1267.1 172.436 1263.88 C 164.264 1254.05 155.708 1248.25 148.575 1236.79 C 144.129 1231.12 142.719 1217.29 138.541 1212.29 C 125.137 1196.24 104.458 1173.48 113.798 1150.05 C 116.358 1143.56 121.529 1138.44 128.048 1135.94 C 160.444 1123.41 175.381 1164.2 183.585 1186.33 C 190.403 1190.12 193.725 1192.2 199.944 1196.88 C 197.982 1189.25 197.361 1183.49 196.407 1175.73 C 173.136 1149.94 178.323 1135.34 168.599 1105.93 C 167.088 1101.36 150.27 1083.62 145.759 1073.71 C 133.805 1047.45 146.446 1014.93 179.224 1025.41 C 199.385 1033.47 206.235 1066.19 213.599 1086.24 C 218.438 1089.23 222.273 1092.39 226.72 1095.92 C 224.479 1088.21 222.733 1080.86 221.607 1072.89 C 217.538 1044.11 180.082 1000.31 202.137 971.554 C 206.987 965.154 214.224 960.993 222.196 960.022 C 229.608 959.117 237.074 961.222 242.923 965.864 C 259.91 979.24 265.589 1010.97 268.032 1031.23 C 280.949 1045.66 283.447 1049.69 290.153 1067.89 C 292.593 1079.37 293.966 1090.68 295.346 1102.37 C 295.608 1104.6 298.389 1106.98 300.357 1108.22 L 301.77 1107.8 C 304.305 1100.88 296.366 1084.58 294.797 1076.33 C 293.596 1070.02 292.999 1066.25 292.288 1059.68 C 291.889 1048.63 291.911 1041.36 293.062 1030.1 C 279.236 1009.9 271.962 976.97 295.228 960.534 C 301.006 956.407 308.241 954.871 315.197 956.295 C 325.349 958.295 332.453 965.203 338.054 973.836 C 351.209 994.113 339.999 1011.76 354.002 1032.93 C 361.157 1043.74 361.069 1073.72 359.762 1087.16 C 370.486 1100.79 376.986 1116.09 379.301 1133.09 C 381.801 1151.44 389.691 1159.89 398.606 1175.25 C 404.977 1186.23 410.629 1198.88 415.834 1210.64 C 418.489 1206 421.451 1201.05 423.905 1196.35 C 418.792 1175.41 422.02 1160.45 432.27 1140.65 C 443.899 1118.18 486.163 1096.79 495.758 1132.83 C 500.31 1149.93 486.69 1167.77 483.037 1184.05 C 489.516 1207.38 490.495 1216.57 481.087 1240.16 C 500.582 1228.98 514.386 1225.58 534.032 1217.05 C 553.969 1208.4 580.201 1181.38 605.327 1187.02 L 615.888 1182.05 C 604.312 1162.87 603.082 1142.79 624.755 1128.91 C 634.401 1122.73 643.836 1124.26 654.613 1126.38 C 668.816 1110.15 663.813 1090.47 664.356 1068.6 C 633.518 1072.8 623.214 1063.57 617.138 1033.42 C 593.878 1035.9 578.796 1021.99 575.508 999.491 C 574.606 993.319 576.015 980.222 571.41 976.231 C 560.302 976.261 535.641 1022.51 504.531 991.383 C 497.243 983.952 493.199 973.935 493.285 963.527 C 493.314 953.508 497.385 943.926 504.577 936.95 C 506.887 934.732 508.723 933.337 511.446 931.639 C 502.538 914.647 500.84 894.843 521.663 885.34 C 523.121 884.683 524.596 884.063 526.086 883.482 C 516.794 872.302 512.688 864.115 506.206 851.393 C 469.901 906.646 410.584 848.959 448.15 801.576 C 449.835 799.45 451.558 797.355 453.32 795.292 C 449.598 787.799 447.426 783.134 445.324 775 C 410.696 794.497 373.611 765.288 384.643 726.894 C 396.235 686.556 448.32 693.386 456.596 650.895 C 463.63 614.776 434.538 638.314 421.39 646.787 C 375.458 668.481 363.202 596.867 393.263 579.297 C 432.666 556.267 458.221 589.6 491.111 540.009 C 458.24 518.527 459.789 473.259 500.649 464.053 C 516.492 460.484 547.409 470.708 556.782 464.598 L 557.396 463.578 C 539.839 457.885 533.933 457.305 527.647 438.303 C 514.188 441.425 501.982 442.943 489.436 435.308 C 481.117 430.233 475.245 421.966 473.194 412.439 C 468.441 391.23 483.651 367.598 505.007 364.107 C 529.175 360.156 540.688 369.405 551.311 389.288 C 564.207 383.53 571.244 384.431 585.005 388.09 C 589.36 363.027 605.642 349.004 631.988 354.257 C 663.221 360.483 661.176 380.669 697.548 378.849 C 683.425 357.289 689.256 360.855 684.684 339.3 z" fill="rgb(34,30,26)" transform="translate(0,0)"></path>
<path d="M 995.588 1216.48 C 1017.6 1235.05 1038.48 1234.38 1066.49 1248.08 C 1094.35 1261.72 1107.79 1278.64 1131.27 1291.39 C 1151.44 1302.34 1173.58 1305.36 1197.35 1318.55 C 1203.58 1322 1209.57 1325.88 1215.26 1330.17 C 1240.76 1349.54 1240.48 1360.08 1257.08 1383.19 C 1267.42 1397.58 1285.08 1409.84 1296.35 1427.83 C 1312.2 1453.13 1315.34 1478.83 1325.98 1505.53 C 1335.37 1528.93 1349.1 1550.38 1354.3 1575.39 C 1360.35 1604.51 1362.7 1632.46 1369.95 1661.53 C 1377.31 1691 1391.12 1711.81 1401.58 1739.03 C 1408.93 1758.15 1410.06 1784.54 1416.23 1805.38 C 1418.84 1814.18 1422.25 1822.72 1426.41 1830.89 C 1431.87 1841.7 1448.12 1860.86 1444.78 1870.8 C 1434.23 1880.45 1393.05 1875.43 1375.27 1877.9 C 1344.05 1882.23 1337.67 1892.29 1310.12 1900.8 C 1286.53 1908.09 1260.82 1907.66 1237.52 1916.55 C 1232.17 1918.59 1226.98 1921 1221.97 1923.77 C 1213.43 1928.54 1199.34 1942.48 1190.64 1935.08 C 1186.78 1926.09 1192.62 1902.97 1194.21 1892.89 C 1196.97 1875.33 1199.86 1857.96 1200.51 1840.11 C 1202.3 1812.36 1194.43 1788.55 1194.38 1761.29 C 1194.18 1733.44 1205.36 1704.97 1204.19 1677.5 C 1202.29 1632.62 1186 1587.24 1203.97 1543.2 C 1206.74 1536.42 1226.74 1504.57 1217.8 1499.13 C 1213.7 1500.34 1211.52 1503.78 1209.67 1507.54 C 1203.93 1519.23 1198.24 1531.13 1192.61 1542.86 C 1183.18 1562.53 1181.78 1585.49 1175.86 1605.73 C 1166.82 1636.67 1159.55 1665.64 1160.92 1698.29 C 1161.43 1722.08 1168.83 1744.42 1167.01 1768.41 C 1165.9 1782.98 1161.23 1796.06 1158.93 1810.37 C 1151.63 1855.68 1155.49 1902.66 1159.32 1948.16 C 1160.86 1966.37 1165.53 1984.25 1165.4 2002.66 C 1165.63 2018.64 1163.41 2032.28 1161.64 2048 L 429.61 2048 C 433.032 2010.33 445.489 1978.24 449.834 1939.59 C 451.652 1922.37 451.557 1905 449.553 1887.79 C 447.573 1871 443.834 1852.09 444.253 1835.37 C 445.027 1804.47 453.941 1775.38 453.069 1744.14 C 452.881 1718.14 444.886 1692.79 443.232 1667.03 C 441.801 1644.73 446.78 1622.26 445.82 1599.86 C 445.044 1581.73 442.798 1563.35 439.816 1545.42 C 435.304 1518.29 441.535 1492.71 444.484 1465.82 C 446.627 1447.33 449.118 1427.82 453.697 1409.75 C 457.328 1395.65 465.956 1382.26 471.69 1369.13 C 483.87 1341.24 486.117 1312.84 483.85 1283.08 C 503.929 1256.13 528.219 1237.45 560.267 1226.47 C 569.167 1223.42 583.664 1220.62 591.432 1217.08 C 593.409 1235.62 599.415 1242.6 616.1 1250.48 C 593.673 1273.93 596.976 1299.04 626.309 1313.85 C 620.097 1323.96 617.012 1333.08 619.83 1344.87 C 623.583 1360.57 633.135 1366.48 646.555 1372.41 C 636.637 1390.32 645.147 1411.63 663.108 1420.83 C 665.366 1421.99 667.666 1423.07 670.002 1424.06 C 662.762 1453.08 680.284 1476.63 710.891 1471.98 C 711.357 1484.59 713.133 1493.8 722.873 1502.94 C 729.547 1509.3 738.557 1512.62 747.765 1512.11 C 755.347 1511.73 761.099 1509.3 767.661 1505.63 C 772.316 1518.93 774.819 1522.57 786.262 1530.72 C 786.717 1537.08 787.02 1543.04 788.232 1549.33 C 765.76 1557.8 726.406 1585.51 714.741 1607.69 C 706.346 1623.65 717.389 1638.74 731.418 1646.85 C 723.114 1679.1 749.101 1684.39 773.374 1682.83 C 784.715 1710.53 810.379 1714.39 830.902 1693.09 C 833.476 1690.41 836.44 1685.35 838.506 1682.1 C 858.043 1687.44 876.643 1685.84 883.45 1663.28 C 885.312 1657.11 884.234 1648.31 890.342 1646.03 C 907.228 1639.74 912.258 1617.61 901.389 1602.74 C 885.644 1581.18 855.29 1559.28 830.233 1548.99 C 830.298 1546.03 830.596 1537.72 829.679 1535.37 C 823.154 1518.64 830.834 1517.58 836.109 1501.47 C 867.943 1524.53 900.396 1502 894.744 1463.96 C 926.341 1467.33 945.252 1447.15 935.994 1416.03 C 959.67 1404.12 966.012 1385.5 954.008 1361.6 C 984.091 1351.45 991.578 1321.29 968.105 1299.3 C 1001.01 1285.65 1005.59 1255.31 979.48 1231.51 C 987.489 1226.55 989.752 1223.94 995.588 1216.48 z" fill="rgb(140,146,152)" transform="translate(0,0)"></path>
<path d="M 302.468 1026.15 C 293.998 1013.48 287.746 999.53 290.782 984.043 C 295.198 961.518 320.096 960.955 330.548 979.463 C 337.481 991.74 338.057 1006.75 334.879 1020.17 C 351.537 1046.34 352.351 1060.08 348.928 1090.09 C 364.027 1107.73 371.304 1129.72 372.124 1152.81 C 386.575 1172.4 405.089 1202.57 410.092 1227.18 C 410.531 1229.34 408.933 1242.69 408.815 1246.08 C 399.421 1254.98 392.821 1261.5 384.582 1271.95 C 354.486 1310.11 354.879 1364.16 382.676 1403.48 C 384.767 1406.44 386.775 1408.86 390.484 1409.35 C 393.464 1407.51 392.372 1408.72 393.922 1405.62 C 393.563 1401.25 391.236 1399.82 389.163 1396.5 C 365.275 1358.22 365.286 1310.01 394.791 1274.56 C 402.657 1265.11 410.191 1258.83 418.595 1250.2 C 419.442 1223.39 424.224 1220.72 434.316 1198.17 C 429.302 1177.5 431.211 1165.22 441.356 1145.31 C 448.425 1131.44 479.357 1109.23 485.815 1135.09 C 489.143 1148.42 476.282 1168.82 472.619 1183.55 L 472.358 1184.57 C 475.117 1193.28 477.552 1200.28 478.105 1209.41 C 478.817 1221.17 470.038 1234.53 470.944 1245.6 C 474.348 1287.13 481.259 1326.48 462.382 1366.18 C 455.415 1380.83 446.06 1396.76 442.85 1413.13 C 430.839 1484.73 423.216 1557.18 415.472 1629.36 C 414.687 1636.68 414.44 1645.48 415.016 1652.88 C 422.468 1689.57 411.355 1725.2 414.083 1762.16 C 415.595 1782.65 420.001 1802.88 419.623 1823.44 C 419.025 1858 404.443 1894.99 403.698 1928.44 C 402.508 1981.89 419.333 1993.56 395.044 2048 L 184.575 2048 C 170.934 1989.52 178.492 1944.86 185.516 1886.39 C 194.373 1893.29 200.298 1898.11 210.755 1902.66 C 204.929 1924.81 186.304 1994.85 193.984 2015.51 L 195.926 2017.45 C 199.273 2017.37 198.013 2017.65 201.034 2015.54 C 203.948 2007.89 202.13 1992.2 203.446 1983.31 C 205.534 1969.21 207.341 1955.42 210.875 1941.51 C 247.568 1797.04 291.627 1652.77 307.083 1504 C 307.935 1495.81 308.633 1487.51 309.088 1479.31 C 321.946 1479.27 334.233 1479.3 346.392 1474.29 C 353.021 1471.55 365.878 1464 366.535 1456.18 C 365.356 1452.63 366.366 1454.01 363.59 1451.76 C 358.494 1451.65 359.163 1453.28 355.368 1455.86 C 326.317 1475.62 290.549 1448.69 272.483 1426.4 C 259.419 1410.29 255.937 1399.09 248.906 1380.83 C 247.287 1376.68 237.476 1368.31 234.837 1364.11 C 220.184 1344.98 215.794 1328.21 212.27 1305.13 C 192.109 1284.77 190.537 1283.96 182.113 1257.25 C 174.978 1251.79 166.204 1244.89 161.006 1237.69 C 152.325 1225.68 151.671 1209.86 140.941 1198.77 C 132.324 1189.86 124.015 1178.79 121.937 1166.34 C 118.431 1145.74 139.508 1136.14 153.866 1150.46 C 165.502 1162.07 170.36 1178.31 175.4 1193.57 C 195.524 1202.39 204.423 1212.89 216.017 1232.27 C 218.204 1235.93 217.937 1246.09 221.165 1251.05 C 222.316 1251.37 222.863 1251.93 223.762 1251.2 C 261.915 1220.28 301.468 1188.44 346.487 1168.04 C 349.993 1166.45 349.376 1162.95 348.707 1160.01 C 343.001 1155.42 332.178 1163.55 326.382 1166.9 C 317.43 1152.81 313.733 1134.08 312.789 1117.64 C 312.632 1114.91 312.451 1099.64 311.9 1098.3 C 301.421 1072.93 302.329 1053.05 302.468 1026.15 z" fill="rgb(241,201,168)" transform="translate(0,0)"></path>
<path d="M 353.429 1223.87 C 356.459 1223.34 357.958 1223.84 359.808 1226.12 C 359.582 1232.77 348.075 1239.09 342.025 1243.34 C 315.282 1262.11 301.628 1288.13 283.567 1313.2 C 280.645 1312.38 279.935 1312.41 277.934 1310.09 C 276.271 1302.97 285.847 1291.66 289.845 1285.83 C 307.411 1260.26 326.855 1240.05 353.429 1223.87 z" fill="rgb(34,30,26)" transform="translate(0,0)"></path>
<path d="M 1221.87 1969.59 C 1247.3 1964.39 1266.96 1948.82 1291.87 1942.22 C 1316.25 1935.77 1334.85 1940.14 1359.58 1931.68 C 1357.58 1970.52 1354.65 2009.3 1350.81 2048 L 1188.73 2048 C 1190.46 2015.54 1204.12 1995.34 1221.87 1969.59 z" fill="rgb(241,201,168)" transform="translate(0,0)"></path>
<path d="M 693.642 280.11 C 702.378 279.568 709.321 281.681 716.586 286.082 C 731.955 295.393 727.562 311.678 729.978 326.237 C 732.147 339.299 748.483 333.226 756.087 339.526 C 763.582 345.737 759.637 360.139 770.205 364.284 C 774.353 365.885 781.278 366.416 785.909 366.106 C 811.487 364.395 825.4 386.465 812.239 408.434 C 804.657 421.092 782.96 422.973 770.586 416.392 C 766.17 414.044 761.732 409.37 756.644 410.3 C 747.09 422.926 773.918 428.774 782.03 429.524 C 805.331 431.677 825.602 417.996 826.661 393.614 C 827.192 381.402 821.266 372.926 813.213 364.598 C 815.722 351.671 820.829 350.008 829.276 339.903 C 822.18 327.535 816.438 313.066 828.123 300.816 C 832.528 296.212 838.606 293.584 844.977 293.528 C 857.038 293.305 868.751 302.524 872.084 314.055 C 877.1 331.414 856.547 348.767 877.091 361.119 C 897.634 373.47 871.707 394.214 881.813 402.38 C 894.295 404.732 911.198 385.701 921.59 378.487 C 949.622 359.027 979.311 378.815 967.026 412.038 C 965.831 415.269 966.121 416.959 967.778 419.75 C 984.307 430.741 1004.9 401.911 1013.86 391.804 C 1032.94 370.26 1061.57 389.824 1061.05 414.543 C 1060.87 422.193 1057.49 429.419 1051.74 434.471 C 1042.62 442.627 1031.06 440.606 1019.76 439.878 C 1017.83 443.451 1016.06 447.18 1013.98 450.669 C 995.157 482.338 973.144 462.696 966.767 464.796 C 965.243 465.298 965.367 465.821 964.667 467.148 C 966.31 474.235 970.542 475.928 976.87 477.922 C 988.45 481.572 996.963 477.016 1006.92 471.81 C 1007.84 473.206 1008.8 474.575 1009.79 475.918 C 1023.15 493.911 1042.92 503.572 1065.23 497.128 C 1078.24 493.352 1087.99 486.376 1102.05 488.436 C 1126.83 492.069 1134.28 525.811 1113.38 539.29 C 1105.05 544.661 1096.87 541.692 1087.9 539.023 C 1066.37 569.048 1054.89 541.569 1035.9 546.737 C 1033.57 549.213 1034.17 547.945 1034.04 551.796 C 1037.03 557.217 1043.43 556.435 1049.16 558.85 C 1075.17 569.81 1116.51 581.232 1122.42 613.27 C 1124.02 621.912 1120.22 633.29 1112.75 638.088 C 1103.72 643.888 1094.3 648.528 1098.7 661.323 C 1109.28 691.192 1154.19 682.053 1164.72 710.657 C 1171.36 737.642 1143.82 760.68 1120.62 739.617 C 1108.61 728.722 1096.46 719.224 1085.55 738.198 C 1074.88 756.508 1088.61 776.647 1100.06 790.713 C 1128.39 825.517 1095.27 857.656 1058.39 832.489 C 1067.86 800.551 1073.55 768.198 1045.07 743.889 C 1058.36 721.226 1055.44 707.617 1041.86 686.303 C 1060.98 670.487 1076.75 645.382 1052.48 623.489 C 1046.48 618.076 1036.84 615.507 1029.13 612.9 C 1028.15 600.149 1023.45 585.184 1006.36 585.367 C 1004.6 585.385 1004.04 586.702 1003.22 587.974 C 1003.91 595.895 1011.75 593.665 1016.37 598.84 C 1020.79 603.163 1017.36 616.344 1023.19 619.564 C 1040.37 629.061 1055.42 626.324 1054.66 652.286 C 1054.34 663.054 1045.62 669.829 1036.85 676.639 C 1021.16 688.821 1048.86 704.922 1044.58 720.573 C 1040.61 743.579 1027.81 734.676 1010.75 740.446 C 1003.54 742.885 1000.94 745.294 995.457 749.992 C 987.043 737.259 986.922 729.956 986.254 715.028 C 1005.33 704.596 1013.58 689.962 1000.86 669.041 C 996.671 662.146 988.688 657.942 982.097 653.338 C 982.006 648.502 983.137 637.19 982.328 633.192 C 981.119 627.413 977.59 622.384 972.566 619.282 C 968.317 616.689 960.723 614.061 957.549 619.278 L 958.335 622.209 C 961.254 625.884 964.67 625.989 969.094 628.508 C 978.526 633.879 969.425 650.23 973.688 657.461 C 980.183 668.481 993.093 666.14 996.512 682.741 C 997.633 688.001 996.268 692.628 993.433 697.229 C 987.032 707.619 970.647 711.285 960.398 704.984 C 953.273 700.604 952.725 688.725 951.601 681 C 949.252 664.849 933.899 670.228 922.47 667.233 C 918.316 666.15 915.598 664.292 911.996 661.921 C 913.161 639.873 909.717 635.176 896.248 617.57 C 898.615 612.818 903.158 603.706 902.861 598.312 C 902.366 589.336 892.542 573.45 882.559 574.275 C 880.255 577.076 880.945 575.864 880.263 579.58 C 882.375 584.48 887.182 585.825 890.352 589.904 C 899.795 602.058 884.445 609.602 886.661 618.56 C 889.96 631.662 904.551 638.363 902.781 653.544 C 898.496 690.312 831.776 689.78 842.973 647.782 C 844.961 640.325 849.988 633.552 851.451 626.273 C 847.298 616.778 835.598 616.741 830.572 609.223 C 819.659 592.9 841.429 577.836 843.422 565.932 C 842.342 559.066 832.665 555.113 828.143 549.014 C 820.635 538.886 836.322 523.22 830.953 516.372 L 828.381 516.205 C 826.021 517.067 824.646 517.805 823.108 519.863 C 809.134 538.572 817.788 555.138 833.659 567.226 C 814.111 591.536 809.746 611.384 840.848 629.082 C 834.803 639.014 830.237 647.903 831.853 660.057 C 832.954 668.964 837.682 677.022 844.92 682.328 C 865.917 697.71 892.872 689.479 907.406 669.202 C 920.172 679.541 925.01 678.419 940.847 678.652 C 941.104 704.7 949.198 717.716 976.842 718.058 C 977.831 736.426 980.014 740.783 988.444 756.894 C 987.64 765.801 986.586 774.93 985.661 783.846 C 983.185 805.138 980.135 826.359 976.516 847.487 C 968.495 896.635 961.933 932.462 934.287 975.73 C 906.314 1019.67 870.469 1062.29 816.834 1073.53 C 754.887 1086.51 701.517 1061.27 659.116 1018.12 C 590.334 948.136 588.937 848.883 569.472 758.938 C 586.056 744.611 592.443 733.551 588.002 710.943 C 587.888 707.092 589.22 701.98 593.722 701.989 C 623.888 702.047 636.749 691.464 635.265 660.244 C 668.868 659.045 684.554 647.672 674.391 612.17 C 676.956 611.513 679.51 610.813 682.051 610.071 C 690.585 607.55 703.191 600.568 699.612 589.966 C 696.417 587.994 698.128 588.399 694.262 588.89 C 691 590.719 690.053 593.607 688.239 597.049 C 681.086 599.601 670.932 600.976 666.237 607.172 C 657.494 618.709 676.474 624.664 665.363 639.783 C 654.251 654.904 643.243 644.859 630.635 652.791 C 621.411 660.499 629.208 677.219 619.597 685.366 C 600.064 701.923 575.723 688.506 575.111 664.117 C 574.7 647.734 594.564 640.598 604.962 632.258 C 609.552 628.576 606.139 617.615 606.157 612.597 C 602.628 598.277 627.97 594.298 626.984 584.888 C 619.717 579.512 606.114 589.478 601.593 595.441 C 594.613 604.649 596.672 615.352 598.554 625.925 C 589.318 630.931 586.062 630.134 577.339 638.363 C 570.256 645.017 566.101 654.207 565.782 663.919 C 565.41 677.631 572.251 687.494 581.142 697.024 L 576.468 706.425 C 582.256 725.607 579.015 740.413 562.333 752.688 C 555.109 746.815 555.359 747.03 547.622 743.638 C 540.924 740.701 520.675 740.771 518.523 736.538 C 508.564 718.158 529.203 711.86 535.13 699.426 C 540.345 688.483 524.218 674.917 530.969 660.515 C 536.864 647.939 512.472 644.983 508.282 636.18 C 505.869 631.111 505.218 627.492 506.792 621.454 C 513.269 593.179 529.565 605.68 546.973 597.147 C 555.09 592.067 552.286 580.179 553.848 572.349 C 555.757 562.777 573.006 564.218 574.278 556.255 C 572.772 554.05 571.44 553.761 568.994 552.67 C 543.735 553.962 545.971 566.338 542.45 584.99 C 541.08 592.247 521.042 591.048 513.74 595.094 C 497.258 604.225 492.222 623.81 500.073 640.527 C 504.806 650.404 512.291 653.624 522.254 656.929 C 518.348 675.211 524.74 680.101 524.823 696.12 C 524.852 701.708 507.034 711.094 505.895 719.971 C 504.423 731.436 507.833 737.632 513.552 746.661 C 482.759 769.292 490.971 808.261 500.366 839.952 C 494.962 851.241 489.365 862.503 475.204 863.653 C 468.745 864.205 462.345 862.067 457.514 857.744 C 452.985 853.67 448.075 846.742 446.333 841.434 C 439.213 819.737 456.721 812.218 462.239 796.312 C 464.284 790.417 454.797 778.11 455.172 769.585 C 456.066 749.26 466.444 749.852 475.262 740.202 C 476.318 736.469 476.673 737.446 475.4 734.688 C 463.229 728.32 451.401 749.004 446.547 757.24 C 436.585 774.141 419.116 775.518 403.742 764.282 C 397.398 759.55 393.272 752.423 392.326 744.565 C 387.416 704.548 437.971 701.481 456.263 675.752 C 465.09 663.335 468.73 654.218 466.854 638.428 C 466.187 633.193 463.326 627.145 458.644 624.283 C 432.461 607.491 420.986 655.724 396.132 637.704 C 383.566 628.592 383.613 604.031 393.394 592.967 C 408.141 576.287 427.881 581.553 447.337 579.918 C 465.192 578.417 480.942 569.265 492.14 555.581 C 516.878 527.018 479.71 534.172 477.591 503.563 C 476.94 495.661 481.021 487.981 486.37 482.223 C 508.71 458.177 547.489 490.278 571.765 466.032 C 574.376 463.424 574.207 459.095 573.871 455.588 C 569.371 449.79 560.074 453.749 552.922 452.112 C 544.437 450.17 538.891 440.278 534.671 432.945 C 527.984 421.603 514.537 434.457 501.866 430.026 C 463.599 416.643 485.95 363.498 523.953 374.152 C 541.089 375.653 538.651 405.385 554.051 398.569 C 573.922 389.773 574.754 396.984 591.005 401.705 C 599.885 399.453 585.886 359.037 627.502 363.882 C 651.035 366.622 687.117 407.151 706.396 381.523 C 708.305 371.685 696.327 361.58 695.894 354.78 C 695.562 335.137 699.655 337.286 682.583 327.155 C 658.51 312.869 672.912 287.367 693.642 280.11 z" fill="url(#Gradient1)" transform="translate(0,0)"></path>
<path d="M 876.633 891.941 C 886.304 891.906 892.397 895.662 891.688 906.303 C 888.208 958.52 832.867 1003.37 782.109 1003.46 C 748.834 1003.52 720.644 988.838 697.85 966.276 C 689.249 957.352 647.966 902.1 677.298 895.981 C 680.384 895.337 710.805 906.708 717.18 908.649 C 724.959 910.984 732.856 912.902 740.839 914.395 C 799.864 925.549 824.29 913.991 876.633 891.941 z" fill="rgb(34,30,26)" transform="translate(0,0)"></path>
<path d="M 876.981 901.878 C 880.162 901.698 878.839 901.235 881.181 902.973 C 886.06 921.36 861.27 955.672 847.99 966.939 C 800.104 1007.57 741.357 1000.08 700.313 954.346 C 695.033 947.916 670.12 911.695 678.179 905.607 C 685.242 906.873 703.451 914.908 712.199 917.448 C 774.471 935.529 820.366 930.733 876.981 901.878 z" fill="rgb(244,237,222)" transform="translate(0,0)"></path>
<path d="M 875.731 709.089 C 903.966 704.242 930.746 723.317 935.393 751.585 C 940.04 779.854 920.775 806.498 892.474 810.944 C 864.456 815.345 838.136 796.314 833.536 768.329 C 828.936 740.343 847.779 713.888 875.731 709.089 z" fill="rgb(34,30,26)" transform="translate(0,0)"></path>
<path d="M 879.031 718.843 C 901.825 715.831 922.774 731.791 925.921 754.567 C 929.069 777.343 913.234 798.386 890.477 801.67 C 867.528 804.981 846.267 788.983 843.092 766.014 C 839.918 743.045 856.043 721.88 879.031 718.843 z" fill="rgb(244,237,222)" transform="translate(0,0)"></path>
<path d="M 880.486 723.005 C 896.7 720.29 912.051 731.215 914.798 747.424 C 917.544 763.633 906.649 779.006 890.445 781.784 C 874.197 784.569 858.773 773.637 856.019 757.384 C 853.265 741.13 864.227 725.727 880.486 723.005 z" fill="rgb(34,30,26)" transform="translate(0,0)"></path>
<path d="M 879.045 732.767 C 889.795 729.321 901.302 735.251 904.735 746.005 C 908.168 756.76 902.225 768.26 891.466 771.68 C 880.726 775.095 869.249 769.164 865.822 758.427 C 862.394 747.69 868.312 736.207 879.045 732.767 z" fill="rgb(47,95,175)" transform="translate(0,0)"></path>
<path d="M 881.888 744.447 C 884.788 743.023 888.232 743.275 890.894 745.106 C 893.556 746.937 895.024 750.063 894.731 753.281 C 894.439 756.499 892.432 759.309 889.483 760.63 C 885.034 762.624 879.807 760.684 877.735 756.27 C 875.664 751.856 877.511 746.596 881.888 744.447 z" fill="rgb(34,30,26)" transform="translate(0,0)"></path>
<path d="M 662.685 716.501 C 690.594 710.72 717.872 728.776 723.455 756.726 C 729.038 784.676 710.79 811.825 682.801 817.21 C 655.091 822.541 628.272 804.514 622.744 776.843 C 617.217 749.171 635.053 722.225 662.685 716.501 z" fill="rgb(34,30,26)" transform="translate(0,0)"></path>
<path d="M 670.291 725.6 C 692.835 723.974 712.511 740.743 714.479 763.26 C 716.447 785.777 699.979 805.706 677.495 808.016 C 662.643 809.542 648.121 802.947 639.496 790.76 C 630.872 778.573 629.483 762.685 635.863 749.186 C 642.242 735.688 655.399 726.674 670.291 725.6 z" fill="rgb(244,237,222)" transform="translate(0,0)"></path>
<path d="M 668.406 730.261 C 684.59 728.101 699.473 739.435 701.692 755.611 C 703.912 771.787 692.633 786.711 676.465 788.991 C 660.213 791.282 645.193 779.93 642.962 763.67 C 640.731 747.41 652.138 732.432 668.406 730.261 z" fill="rgb(34,30,26)" transform="translate(0,0)"></path>
<path d="M 670.141 739.422 C 680.827 738.289 690.484 745.838 691.965 756.481 C 693.445 767.124 686.215 777.022 675.626 778.849 C 668.462 780.084 661.195 777.318 656.665 771.633 C 652.136 765.947 651.065 758.245 653.87 751.539 C 656.676 744.833 662.912 740.189 670.141 739.422 z" fill="rgb(47,95,175)" transform="translate(0,0)"></path>
<path d="M 668.52 751.479 C 671.359 749.939 674.811 750.061 677.534 751.798 C 680.257 753.536 681.823 756.614 681.624 759.838 C 681.424 763.062 679.491 765.924 676.574 767.312 C 672.226 769.381 667.02 767.61 664.836 763.318 C 662.653 759.025 664.286 753.775 668.52 751.479 z" fill="rgb(34,30,26)" transform="translate(0,0)"></path>
<path d="M 749.627 478.073 C 751.569 477.716 753.021 477.859 754.974 477.925 C 758.273 479.968 757.912 479.093 759.466 482.079 C 757.765 486.66 743.062 491.917 736.695 502.529 C 722.289 526.541 735.75 529.801 742.194 550.335 C 744.329 562.318 730.879 566.51 725.987 573.982 C 714.892 590.913 732.835 604.018 735.754 616.09 C 738.371 626.914 712.019 636.893 716.185 655.087 C 721.841 679.795 752.196 691.279 769.265 671.926 C 780.001 659.753 767.087 641.326 764.119 629.079 C 766.465 620.501 782.902 616.772 787.451 607.009 C 798.871 582.499 776.377 581.476 770.121 566.735 C 768.901 559.874 779.358 551.971 782.611 546.877 C 789.418 536.216 785.283 531.73 785.039 521.753 C 786.653 518.651 785.458 519.686 788.714 518.509 C 792.863 519.544 791.358 518.82 794.501 522.235 C 794.832 524.322 795.104 526.417 795.317 528.519 C 796.956 545.637 791.884 551.975 781.568 564.591 C 809.159 592.421 806.002 610.431 773.492 630.813 C 783.712 645.986 789.945 665.156 774.667 679.938 C 767.308 687.002 757.445 690.854 747.246 690.646 C 719.846 689.896 696.799 663.264 710.639 636.71 C 715.093 628.165 720.496 623.73 727.442 617.34 C 698.527 584.677 715.839 575.103 731.404 552.723 C 734.149 548.777 697.627 507.613 749.627 478.073 z" fill="rgb(34,30,26)" transform="translate(0,0)"></path>
<path d="M 856.103 439.164 C 890.441 438.023 894.608 459.772 889.446 487.661 C 901.244 496.484 906.234 495.232 914.97 509.334 C 915.6 519.068 914.764 523.578 912.801 533.156 C 941.713 531.846 932.845 543.229 947.766 559.437 C 953.819 564.532 966.631 566.271 973.941 565.852 C 985.676 565.376 995.72 551.04 993.661 540.011 C 990.027 520.545 973.466 513.515 958.263 504.593 C 955.646 503.057 955.302 490.639 955.098 487.229 C 946.912 477.288 946.435 479.244 934.708 474.558 C 931.612 473.321 931.794 472.268 930.827 469.627 C 932.946 464.303 940.874 466.004 945.283 467.509 C 954.113 470.525 959.128 475.373 963.311 483.762 C 964.348 488.315 964.601 493.124 965.012 497.798 C 987.102 507.097 1007.7 524.122 1002.05 551.233 C 997.487 573.116 975.257 579.354 955.958 573.872 C 938.274 568.849 935.118 558.617 926.84 543.877 C 923.758 543.476 915.441 542.909 913.036 542.127 C 893.607 535.807 910.724 524.915 904.742 512.13 C 900.108 502.227 884.373 499.953 881.28 490.548 C 878.013 480.613 886.632 469.437 880.044 459.12 C 865.588 436.481 845.709 458.879 836.093 456.154 L 835.233 453.899 C 836.14 445.032 848.528 440.718 856.103 439.164 z" fill="rgb(34,30,26)" transform="translate(0,0)"></path>
<path d="M 680.218 421.206 C 682.022 421.093 683.829 421.04 685.636 421.045 C 698.323 421.174 720.6 436.12 710.238 445.373 C 703.396 445.61 704.112 441.51 700.277 437.555 C 682.776 419.505 673.684 439.698 662.773 449.984 C 633.275 445.588 623.993 448.418 628.769 481.207 C 617.672 507.187 596.58 487.564 587.287 512.975 C 582.217 526.839 593.404 542.888 607.142 545.922 C 621.913 548.411 631.116 536.484 641.229 528.438 C 645.973 524.664 656.968 529.052 662.617 530.375 C 673.754 529.134 673.669 521.125 682.269 522.37 C 684.834 524.804 684.181 523.352 684.333 526.852 C 677.868 542.896 658.292 541.009 645.027 537.385 C 638.263 544.576 631.398 551.078 621.518 553.602 C 594.904 560.402 570.36 538.542 577.581 511.031 C 582.038 494.052 592.169 489.934 608.351 487.175 C 618.69 485.579 618.633 480.485 618.423 471.454 C 617.727 441.459 633.351 434.632 660.008 439.928 C 666.064 430.635 669.191 424.56 680.218 421.206 z" fill="rgb(34,30,26)" transform="translate(0,0)"></path>
<path d="M 759.295 723.635 C 769.26 724.564 768.793 728.244 771.694 736.976 C 786.135 780.446 770.414 821.107 744.23 855.862 C 774.637 882.117 782.066 867.267 810.921 863.937 C 811.896 863.825 812.371 865.433 812.97 866.591 C 812.448 870.752 813.247 868.972 810.497 872.128 C 782.828 884.142 757.797 885.781 735.313 859.64 C 731.783 855.537 742.82 840.433 745.79 835.904 C 764.89 806.779 774.399 776.094 763.071 741.873 C 760.817 735.015 757.263 730.727 759.295 723.635 z" fill="rgb(34,30,26)" transform="translate(0,0)"></path>
<path d="M 665.539 681.306 C 674.637 680.629 694.207 680.742 700.59 688.21 C 701.78 691.699 701.902 690.092 700.616 693.209 C 688.307 699.856 670.941 678.221 638.534 702.109 C 630.915 708.893 629.413 713.157 622.816 720.079 C 618.91 721.04 620.164 721.307 616.848 720.105 C 614.427 715.561 618.223 708.742 621.127 705.093 C 632.631 690.636 647.709 683.771 665.539 681.306 z" fill="rgb(34,30,26)" transform="translate(0,0)"></path>
<path d="M 813.349 471.176 C 824.086 472.449 837.813 480.163 836.882 493.529 C 836.744 495.518 832.81 496.824 831.095 497.644 C 822.353 488.928 826.302 482.412 811.814 481.383 C 808.261 481.131 803.817 474.399 813.349 471.176 z" fill="rgb(34,30,26)" transform="translate(0,0)"></path>
<path d="M 899.358 1051.66 C 900.419 1054.66 900.216 1061.28 900.395 1064.79 C 901.578 1087.94 896.392 1110.57 913.826 1128.66 C 907.61 1151.3 914.047 1167.62 937.006 1174.96 C 929.444 1186.91 928.319 1194.5 929.827 1208.18 C 901.512 1228.62 882.952 1239.44 848.662 1248.41 C 799.118 1261.35 746.686 1257.55 699.525 1237.6 C 685.922 1231.77 675.315 1225.42 662.475 1217.92 L 660.652 1216.59 C 659.478 1206.04 657.009 1199.6 650.352 1191.47 C 676.663 1177.52 682.556 1155.19 663.302 1131.62 C 677.378 1112.51 674.249 1094.36 674.138 1070.99 C 705.945 1093.12 762.518 1132.26 804.567 1123.94 C 847.749 1115.4 875.942 1087.47 899.358 1051.66 z" fill="rgb(241,201,168)" transform="translate(0,0)"></path>
<path d="M 925.628 1267.85 C 927.491 1269.44 930.816 1282.12 933.533 1285.47 C 935.762 1288.22 936.932 1289.43 939.56 1291.97 C 914.819 1302.6 905.117 1324.5 920.528 1348.04 C 896.021 1356.21 888.349 1370.75 894.72 1395.69 C 874.506 1404.2 867.784 1418.61 869.644 1439.9 C 843.043 1436.68 830.033 1448.11 824.805 1473.77 C 810.272 1461.29 796.915 1464.67 780.893 1471.49 C 774.176 1448.54 761.9 1439.71 738.016 1440.97 C 736.619 1427.16 736.231 1419.66 726.148 1409.76 C 719.937 1405.32 715.344 1403.37 708.231 1400.94 C 711.567 1378.73 707.657 1361.17 683.142 1355.23 C 692.192 1331.14 686.314 1314.32 662.994 1302.46 C 669.453 1292.97 670.616 1290.62 672.998 1279.37 C 740.49 1320.01 860.751 1312.21 925.628 1267.85 z" fill="rgb(140,146,152)" transform="translate(0,0)"></path>
<path d="M 283.782 1469.62 C 290.214 1474.26 292.405 1503.4 292.506 1510.92 C 293.16 1559.59 271.153 1601.36 257.62 1646.56 C 251.171 1668.1 253.46 1697.68 245.64 1719.55 C 233.515 1753.22 219.617 1781.27 221.838 1818.39 C 222.341 1826.8 221.834 1849.62 216.136 1855.41 C 210.13 1858.38 201.366 1853.22 196.057 1850.2 C 185.483 1844.2 178.308 1840.81 166.254 1839.33 C 157.418 1838.25 144.753 1842.34 139.731 1833.46 C 149.326 1814.88 161.557 1806.37 169.825 1782.65 C 177.125 1761.71 174.305 1746.3 180.56 1725.84 C 187.275 1703.89 200.403 1684.01 208.455 1662.29 C 215.705 1642.74 217.552 1624.42 223.168 1604.48 C 228.046 1587.16 239.612 1571 245.675 1555.69 C 259.316 1521.25 260.239 1500.67 283.782 1469.62 z" fill="rgb(140,146,152)" transform="translate(0,0)"></path>
<path d="M 805 1554.26 C 833.068 1553.34 863.179 1578.68 883.453 1596.36 C 901.945 1612.5 906.194 1636.1 875.65 1640.56 C 877.832 1671.06 867.921 1681.31 838.199 1670.04 C 833.725 1668.35 831.227 1673.33 829.428 1676.75 C 824.523 1686.06 822.747 1689.73 813.369 1695.28 C 798.837 1699.29 790.88 1695.88 783.224 1683.18 C 783.261 1679.29 783.703 1676.6 781.947 1673.21 C 774.069 1668.3 767.027 1674.92 756.308 1673.96 C 750.407 1673.43 745.002 1670.45 741.418 1665.73 C 736.449 1659.08 740.398 1652.85 741.62 1644.92 C 739.818 1637.41 733.675 1637.2 729.125 1633.37 C 702.079 1610.51 755.329 1581.67 770.19 1569.19 C 778.094 1562.56 795.044 1556.1 805 1554.26 z" fill="rgb(244,237,222)" transform="translate(0,0)"></path>
<path d="M 779.25 1596.6 C 790.662 1601.33 782.961 1604.87 777.189 1614.07 C 773.825 1619.43 767.613 1627.01 763.228 1631.54 C 751.932 1628.96 761.933 1619.66 765.666 1614.42 C 769.898 1608.49 774.661 1602.24 779.25 1596.6 z" fill="rgb(34,30,26)" transform="translate(0,0)"></path>
<path d="M 854.048 1597.51 C 860.913 1601.02 867.818 1617.97 871.643 1624.93 C 872.582 1626.64 867.327 1631.49 866.397 1632.41 C 863.141 1629.58 850.874 1607.21 849.226 1602.09 C 848.769 1600.67 853.126 1598.1 854.048 1597.51 z" fill="rgb(34,30,26)" transform="translate(0,0)"></path>
<path d="M 826.006 1615.62 C 830.276 1615.86 834.749 1614.67 834.927 1620.46 C 835.198 1629.31 841.464 1642.29 837.624 1650.43 C 836.935 1650.29 836.245 1650.16 835.553 1650.03 C 832.024 1649.38 830.136 1647.74 830.013 1644.01 C 829.752 1636.12 824.384 1624.08 825.789 1616.87 L 826.006 1615.62 z" fill="rgb(34,30,26)" transform="translate(0,0)"></path>
<path d="M 801.591 1618.32 C 811.174 1623.14 807.845 1623.58 806 1634.5 C 805.092 1639.88 805.511 1645.61 802.317 1649.91 L 801.509 1651.04 C 791.259 1646.54 795.993 1644.37 797.033 1634 C 797.736 1626.99 797.85 1624.29 801.591 1618.32 z" fill="rgb(34,30,26)" transform="translate(0,0)"></path>
<path d="M 1053.9 842.499 L 1063.4 848.619 C 1069.25 863.019 1062.63 866.256 1067.03 878.162 C 1071.96 886.834 1080.68 890.427 1086 899.38 C 1094.4 913.529 1089.54 939.162 1074.85 947.476 C 1058.15 956.918 1035.19 932.902 1018.14 943.309 C 994.667 957.631 1025.06 980.47 1017.34 999.431 C 1007.81 1023.66 991.891 1009.81 975.349 1004.94 C 958.521 999.977 955.309 1015.74 952.966 1027.29 C 946.302 1041.42 932.502 1044.95 917.575 1041.85 C 899.664 1038.14 910.536 1023.39 918.356 1014.55 C 950.238 978.502 964.67 942.323 977.889 896.851 C 1016.44 911.438 1038.89 871.695 1053.9 842.499 z" fill="rgb(231,183,92)" transform="translate(0,0)"></path>
<path d="M 529.185 892.784 C 541.612 891.944 545.133 914.449 586.624 901.137 C 599.436 955.01 623.803 998.925 664.822 1035.99 C 664.835 1042.6 665.498 1050.19 665.92 1056.86 C 648.173 1063 638.391 1061.36 629.57 1043.82 C 628.39 1039.76 628.551 1030.6 627.325 1027.98 C 623.761 1020.37 608.241 1024.43 600.372 1021.32 C 578.254 1012.55 587.946 989.124 581.838 972.963 C 581.055 970.674 574.955 966.207 572.569 966.344 C 547.815 967.772 534.026 1016.57 506.294 976.853 C 492.166 956.618 518.927 940.925 521.657 931.066 C 523.491 924.442 500.152 907.846 529.185 892.784 z" fill="rgb(231,183,92)" transform="translate(0,0)"></path>
<path d="M 222.508 970.073 C 225.954 969.95 230.597 970.132 233.507 971.66 C 254.421 982.638 253.607 1017.36 260.194 1035.15 C 262.767 1042.09 274.984 1051.53 279.258 1067.04 C 283.532 1082.56 282.296 1092.55 286.144 1106.98 C 287.158 1110.78 297.598 1122.02 299.584 1126.6 C 305.907 1141.18 311.713 1156.98 317.492 1171.79 C 308.445 1176.91 300.142 1182.04 291.329 1187.56 L 278.244 1196.75 C 272.064 1181.99 263.804 1168.77 258.234 1152.88 C 254.604 1142.52 252.321 1128.2 248.688 1119.34 C 244.419 1108.92 239.874 1102.19 235.669 1090.52 C 231.653 1079.38 231.825 1064.02 228.307 1055.62 C 222.668 1043.25 215.184 1031.98 210.841 1018.96 C 204.71 1000.58 197.906 977.554 222.508 970.073 z" fill="rgb(241,201,168)" transform="translate(0,0)"></path>
<path d="M 932.622 1217.1 C 937.327 1223.61 940.131 1226.13 946.706 1230.49 C 935.87 1237.57 929.517 1242.83 926.474 1255.93 C 907.66 1268.27 889.474 1278.82 867.745 1285.2 C 801.533 1304.61 732.474 1299.72 671.408 1268.54 C 668.466 1262.58 667.266 1260.77 663.289 1255.41 C 658.013 1249.72 654.374 1247.47 647.706 1243.79 C 653.691 1237.72 655.601 1233.81 659.046 1226.13 C 736.566 1283.04 858.604 1277.21 932.622 1217.1 z" fill="rgb(140,146,152)" transform="translate(0,0)"></path>
<path d="M 163.877 1033.02 L 164.734 1032.93 C 192.096 1030.41 194.166 1071.29 203.321 1088.2 C 204.916 1091.15 210.816 1094.9 213.377 1097.35 C 231.512 1114.63 240.993 1136.98 243.026 1161.17 C 256.647 1173.66 262.871 1186.82 270.394 1203.03 C 261.365 1209.12 252.928 1215.62 244.252 1222.19 L 228.226 1234.97 C 216.874 1207.74 208.556 1206.14 205.763 1171.82 C 186.288 1145.99 183.735 1134.83 180.565 1102.88 C 165.287 1087.64 132.491 1050.03 163.877 1033.02 z" fill="rgb(241,201,168)" transform="translate(0,0)"></path>
<path d="M 528.433 750.209 C 537.428 750.118 545.432 752.09 552.928 757.319 C 562.032 763.125 562.833 774.802 564.316 784.837 C 569.546 820.227 579.723 856.771 584.57 891.958 C 574.433 895.016 569.55 895.525 558.937 895.433 C 554.414 894.559 550.355 893.465 546.292 891.053 C 513.606 871.653 475.679 760.605 528.433 750.209 z" fill="rgb(241,201,168)" transform="translate(0,0)"></path>
<path d="M 520.077 778.814 C 535.852 781.179 549.206 790.082 557.061 804.002 C 559.616 808.53 570.828 834.435 563.603 837.189 C 556.723 839.811 555.206 823.888 553.443 819.625 C 548.856 808.534 549.321 806.886 542.259 817.829 C 539.098 827.838 539.881 833.841 541.713 844.004 C 542.265 847.065 539.583 849.649 536.491 849.706 C 535.106 849.738 533.772 849.183 532.82 848.177 C 528.875 844.038 530.784 829.787 530.916 823.997 C 531.142 814.12 537.453 808.766 544.1 802.661 C 535.058 794.34 529.682 790.847 518.063 787.008 C 515.427 786.137 516.673 781.683 520.077 778.814 z" fill="rgb(34,30,26)" transform="translate(0,0)"></path>
<path d="M 1020.45 747.237 C 1022.51 747.136 1024.35 747.108 1026.42 747.342 C 1034.14 748.194 1041.22 752.034 1046.15 758.041 C 1073.93 792.304 1040.89 861.086 1011.34 885.038 C 1010.64 885.506 1009.94 885.966 1009.23 886.416 C 998.585 893.122 991.163 891.241 979.756 888.554 C 982.733 866.882 986.992 845.639 990.185 824.044 C 993.336 802.727 994.977 780.794 998.527 759.548 C 1006.45 752.572 1010.35 749.638 1020.45 747.237 z" fill="rgb(241,201,168)" transform="translate(0,0)"></path>
<path d="M 1036.12 777.896 C 1039.53 778.423 1044.53 780.899 1042.22 785.577 C 1041.4 787.226 1037.9 788.586 1036.02 788.742 C 1028.28 789.384 1022.06 796.084 1016.81 801.287 C 1024.9 810.969 1027.95 817.349 1027.07 830.494 C 1026.87 834.198 1027.73 846.986 1022.01 847.891 C 1014.59 849.063 1017.73 836.42 1017.95 834.495 C 1018.75 827.744 1018.04 822.388 1016.55 816.327 C 1014.67 812.237 1013.44 810.402 1010.98 806.735 C 1006.09 815.069 1003.47 821.829 1001.57 831.395 C 1000.88 834.887 997.913 835.64 994.967 834.275 C 993.984 833.817 993.223 832.987 992.852 831.968 C 991.37 827.834 996.927 814.229 998.909 810.328 C 1007.51 793.394 1018.5 784.059 1036.12 777.896 z" fill="rgb(34,30,26)" transform="translate(0,0)"></path>
<path d="M 858.006 1448.77 C 872.26 1447.51 884.892 1457.91 886.387 1472.14 C 887.882 1486.38 877.689 1499.18 863.484 1500.91 C 854.085 1502.05 844.799 1498.04 839.192 1490.41 C 833.585 1482.78 832.528 1472.72 836.427 1464.09 C 840.326 1455.46 848.574 1449.61 858.006 1448.77 z" fill="rgb(47,95,175)" transform="translate(0,0)"></path>
<path d="M 957.297 1237.75 C 971.34 1235.73 984.416 1245.33 986.694 1259.33 C 988.972 1273.34 979.612 1286.59 965.652 1289.12 C 956.393 1290.8 946.949 1287.35 940.954 1280.09 C 934.958 1272.84 933.343 1262.92 936.732 1254.14 C 940.12 1245.36 947.983 1239.1 957.297 1237.75 z" fill="rgb(47,95,175)" transform="translate(0,0)"></path>
<path d="M 629.593 1253.92 C 643.439 1249.95 657.869 1258.02 661.728 1271.9 C 665.588 1285.77 657.398 1300.14 643.489 1303.88 C 629.74 1307.59 615.576 1299.51 611.761 1285.79 C 607.945 1272.07 615.906 1257.85 629.593 1253.92 z" fill="rgb(47,95,175)" transform="translate(0,0)"></path>
<path d="M 737.875 1451.19 C 750.578 1449.76 761.508 1451.79 767.445 1464.33 C 775.832 1482.05 769.423 1495.13 752.248 1502.38 C 721.542 1507.2 705.834 1466.66 737.875 1451.19 z" fill="rgb(244,237,222)" transform="translate(0,0)"></path>
<path d="M 699.664 1411.12 C 723.661 1410.14 730.511 1425.37 726.668 1446.57 C 720.226 1454.56 717.342 1459.78 707.43 1463.08 C 672.747 1463.62 665.1 1421.61 699.664 1411.12 z" fill="rgb(47,95,175)" transform="translate(0,0)"></path>
<path d="M 957.844 1175.03 C 966.852 1172.98 976.268 1175.93 982.482 1182.77 C 988.696 1189.61 990.744 1199.27 987.841 1208.04 C 984.938 1216.81 977.535 1223.34 968.468 1225.12 C 954.74 1227.81 941.39 1218.99 938.487 1205.31 C 935.584 1191.62 944.203 1178.14 957.844 1175.03 z" fill="rgb(244,237,222)" transform="translate(0,0)"></path>
<path d="M 623.811 1191.78 C 637.709 1190.56 649.983 1200.8 651.264 1214.69 C 652.544 1228.58 642.349 1240.89 628.461 1242.23 C 614.5 1243.57 602.108 1233.31 600.821 1219.34 C 599.534 1205.37 609.841 1193.02 623.811 1191.78 z" fill="rgb(244,237,222)" transform="translate(0,0)"></path>
<path d="M 944.513 1302.14 C 958.162 1300.62 970.48 1310.4 972.105 1324.03 C 973.73 1337.67 964.055 1350.06 950.432 1351.8 C 936.654 1353.55 924.086 1343.74 922.442 1329.95 C 920.799 1316.16 930.708 1303.67 944.513 1302.14 z" fill="rgb(244,237,222)" transform="translate(0,0)"></path>
<path d="M 651.344 1312.25 C 671.251 1310.6 684.293 1332.06 674.853 1349.01 C 673.841 1350.83 672.808 1353.56 670.516 1353.97 C 664.474 1355.05 659.277 1358.8 654.305 1362.12 C 630.191 1367.92 610.49 1318.72 651.344 1312.25 z" fill="rgb(244,237,222)" transform="translate(0,0)"></path>
<path d="M 896.652 1404.76 C 901.925 1405.27 903.26 1409.64 909.182 1412.51 C 910.786 1414.57 923.172 1416.94 923.509 1417.28 C 939.059 1433.04 922.555 1449.46 911.128 1454.43 C 878.839 1460.03 864.99 1422.67 896.652 1404.76 z" fill="rgb(244,237,222)" transform="translate(0,0)"></path>
<path d="M 817.223 1529.1 C 820.769 1531.36 820.861 1542.01 821.249 1546.21 C 808.58 1543.92 815.812 1543.6 801.237 1545.45 C 795.511 1546.97 796.465 1537.98 796.249 1534.03 C 806.276 1533.06 807.852 1533.33 817.223 1529.1 z" fill="rgb(140,146,152)" transform="translate(0,0)"></path>
<metadata><recraft-signature>{"signed_by": "recraft", "signature_b64": "dL9Pfw5BRSvud5+Ei+r/SM1gd0yJcutu1mWSeIUBPcxMy1AjOi/U+ZHs3XYZ60UI5g04fK6Zi4RuK/NSAo2OCQ==", "signing_algo": "Ed25519", "generation_timestamp": 1782906796, "identifier": "f697e53c-3a84-4843-b933-63e7dcf44ec1"}</recraft-signature></metadata></svg>