<svg xmlns="http://www.w3.org/2000/svg" height="1152" preserveAspectRatio="none" style="display: block;" version="1.1" viewBox="0 0 1593 2048" width="896">

<path d="M 702.065 274.957 C 703.452 272.41 704.871 269.882 706.323 267.372 C 714.799 253.007 728.531 247.735 744.255 243.386 C 761.871 235.315 804.607 252.369 813.002 266.713 C 830.757 300.47 823.716 298.885 855.449 281.316 C 868.723 273.967 902.486 277.766 913.996 289.61 C 924.524 300.444 926.35 306.306 927.074 320.926 C 938.603 339.711 947.902 325.786 962.438 319.231 C 974.473 313.805 984.513 315.753 996.522 320.062 C 1002.88 328.451 1010.48 335.996 1010.21 347.15 C 1009.58 372.964 1012.73 378.881 1037.36 367.456 C 1062.12 378.728 1066.34 392.581 1062.06 418.248 C 1073.35 437.084 1088.69 427.419 1100.71 448.722 C 1112.25 469.157 1092.15 484.619 1093.29 492.976 C 1096.34 498.49 1103.86 502.959 1109.49 505.927 C 1125.24 514.226 1135.8 532.56 1139.64 549.677 C 1145.96 577.85 1134.35 599.729 1119.14 622.421 C 1116.92 625.725 1117.3 627.286 1117.67 631.313 L 1117.79 632.623 C 1125.65 642.058 1127.59 643.967 1138.63 649.183 C 1155.3 680.487 1141.73 696.793 1122.94 722.301 C 1124.42 751.976 1135.56 776.266 1100.1 790.207 C 1095.03 792.2 1084.24 794.408 1080.85 798.415 C 1077.23 809.622 1081.55 820.824 1084.84 831.775 C 1081.97 837.685 1080.93 842.68 1077.77 848.672 C 1064.71 873.422 1050.66 863.69 1032.53 881.618 C 1032.54 917.564 1016.62 925.929 985.365 933.616 C 984.214 933.899 979.109 937.013 978.859 938.022 C 977.081 950.839 977.787 956.049 973.863 968.377 C 966.291 992.167 941.839 984.485 934.391 1000.87 C 931.836 1006.5 932.986 1032.49 934.93 1036.96 C 955.698 1034.64 966.016 1039.9 961.972 1062.22 C 961.115 1066.95 977.857 1067.19 968.275 1086.25 C 962.249 1093.45 964.794 1090.39 967.884 1097.85 C 968.187 1102.73 968.786 1107.86 966.682 1112.42 L 968.298 1113.14 C 970.583 1110.18 972.958 1106.96 975.422 1104.17 C 1002.08 1125.35 1024.88 1124.71 1056.81 1130.16 C 1073.59 1133.03 1091.28 1143.9 1107.3 1149.54 C 1112.78 1151.65 1124.97 1152.85 1129.44 1155.3 C 1160.64 1172.44 1185.32 1191.03 1207.67 1219.24 C 1212.52 1225.34 1215.25 1235.42 1220.11 1241.23 C 1231.1 1254.1 1243.02 1263.33 1250.33 1279.01 C 1258.96 1297.77 1265.25 1316.9 1270.36 1336.89 C 1276.1 1359.38 1294.1 1381.43 1299.43 1403.27 C 1305.92 1429.8 1310.91 1457.1 1319.43 1483.24 C 1321.65 1490.06 1327.29 1496.12 1330.44 1502.55 C 1342.62 1528.77 1344.95 1556.33 1353.17 1583.46 C 1356.91 1595.83 1367 1607.7 1368.31 1621.11 C 1374.8 1662.33 1330.58 1658.81 1311.37 1679.55 C 1311.76 1702.95 1309.55 1724.75 1309.41 1747.96 C 1309.33 1761.02 1314.4 1775.78 1314.38 1788.96 C 1313.72 1804.87 1309.31 1819.47 1309.43 1835.54 C 1309.51 1847.93 1313.61 1859.25 1313.98 1871.19 C 1314.53 1888.89 1310.23 1907.13 1309.13 1924.52 C 1308.26 1938.53 1315.52 1955.17 1313.54 1969.82 C 1312.88 1988.09 1308.39 2026.95 1313.05 2042.48 L 1314.67 2048 L 1305.07 2048 L 1174.42 2048 L 1149.65 2048 L 424.572 2048 L 380.31 2048 C 381.59 2044.88 381.85 2043.87 382.602 2040.56 C 381.155 2040 356.378 2040.16 353.024 2039.8 C 316.783 2035.84 297.314 2019.01 277.552 1989.73 C 271.3 1980.47 260.951 1970 256.722 1959.01 C 247.751 1935.71 245.517 1908.55 243.441 1883.81 C 243.949 1867.05 248.421 1851.71 250.449 1835.06 C 253.543 1809.66 257.089 1785.15 261.137 1759.7 C 263.013 1747.9 260.996 1739.48 265.345 1724.49 C 267.196 1718.11 273.865 1686.33 271.72 1677.06 C 257.495 1666.81 227.928 1663.37 219.839 1644.94 C 211.373 1625.65 232.292 1596.37 238.266 1578.25 C 243.363 1562.8 244.238 1545.07 249.314 1530.29 C 256.77 1508.56 267.86 1487.76 276.163 1466.37 C 282.912 1453.31 282.104 1436.06 287.006 1423.07 C 301.011 1385.96 314.842 1348.49 329.894 1311.82 C 333.473 1303.1 342.426 1278.43 347.207 1271.87 C 372.091 1237.76 395.386 1195.05 434.255 1175.55 C 459.799 1161.18 477.145 1147.04 507.312 1138.88 C 545.923 1128.43 585.759 1122.02 621.808 1105.01 C 623.794 1105.05 623.693 1105.01 625.574 1104.31 L 626.425 1099.67 C 635.217 1085.68 631.175 1090.76 628.987 1073.49 C 629.092 1073.32 629.197 1073.15 629.303 1072.98 L 629.85 1072.14 C 633.45 1066.58 635.429 1064.79 640.194 1060.02 C 632.871 1039.63 647.979 1034.63 664.981 1035.37 C 665.436 1028.04 665.653 1020.41 665.968 1013.05 C 655.3 1006.71 654.835 999.7 644.819 992.771 C 631.716 983.706 631.836 991.642 619.079 979.37 C 615.475 966.597 618.23 958.202 615.702 951.106 C 610.817 947.219 599.402 948.807 593.498 948.67 C 558.53 947.857 547.436 929.9 552.024 897.122 C 555.503 872.266 517.062 875.859 504.865 860.223 C 491.889 843.587 501.132 825.881 504.925 807.713 C 505.301 805.971 505.825 797.358 506.045 794.876 C 491.476 765.673 490.717 777.134 465.422 757.486 C 437.231 735.589 440.105 690.865 455.533 662.057 C 460.7 652.409 476.369 636.783 475.694 628.484 C 470.937 619.916 460.515 618.184 452.405 612.336 C 432.497 597.981 427.007 582.467 422.547 560.059 C 424.206 556.407 424.537 551.125 425.87 548.371 C 435.316 528.862 453.825 524.624 469.057 517.484 C 477.025 507.009 425.56 484.182 483.027 445.122 C 494.285 444.742 505.303 446.758 516.568 447.225 C 540.352 448.211 517.19 423.956 511.354 416.471 C 509.404 396.937 509.274 387.053 522.289 370.151 C 534.378 354.452 558.358 347.407 577.446 350.478 C 585.714 351.808 597.163 354.441 605.657 353.781 C 605.732 353.775 607.744 353.071 607.766 352.751 C 608.979 335.228 603.511 317.164 612.582 300.607 C 620.375 286.382 634.884 276.872 649.617 272.362 C 663.262 268.185 689.612 268.108 702.065 274.957 z" fill="rgb(34,30,26)" transform="translate(0,0)"></path>
<path d="M 620.074 1115.17 C 622.383 1117.66 626.796 1122.36 628.33 1125.01 C 632.034 1131.4 632.397 1140.3 637.994 1145.35 C 638.081 1145.43 639.706 1147.23 639.89 1147.43 C 622.544 1164.12 640.654 1168.69 643.053 1177.07 C 640.71 1181.41 637.932 1186.47 640.217 1190.55 C 648.32 1205.02 646.862 1202.53 641.53 1217.56 C 639.813 1222.41 646.998 1231.74 651.21 1236.35 C 649.07 1241.19 644.81 1253.9 648.807 1257.74 C 660.403 1268.89 655.124 1269.17 653.476 1283.11 C 653.048 1286.74 660.301 1293.58 661.835 1296.93 C 659.854 1312.72 650.579 1314.56 670.043 1328.29 C 666.691 1340.64 663.792 1347.12 673.724 1357.21 C 672.279 1361.11 670.685 1365.16 669.479 1369.13 C 669.918 1370.71 671.991 1378.13 672.699 1378.68 C 696.929 1397.29 665.665 1395.84 692.237 1417.19 L 687.701 1425.27 C 690.33 1436.72 689.414 1435.6 698.182 1442.96 C 692.852 1458.15 686.064 1460.15 703.349 1472.33 C 704.37 1473.05 701.443 1482.47 702.666 1484.63 C 708.718 1495.33 714.605 1493.87 709.198 1507.49 C 705.955 1515.66 718.413 1522.03 725.005 1525.5 C 722.811 1534.02 722.267 1538.29 727.037 1546.43 C 727.83 1547.79 728.664 1549.12 729.536 1550.43 C 732.899 1551.91 734.85 1552.75 737.953 1554.68 C 741.166 1564.2 730.173 1580.99 756.139 1584.09 C 759.04 1594.23 761.972 1603.34 774.45 1603.47 C 785.464 1603.59 783.064 1603.71 787.429 1613.26 C 784.433 1620.06 782.702 1621.6 783.112 1629.39 C 766.592 1636.5 763.117 1640.12 759.255 1657.77 C 734.508 1657.7 729.648 1676.43 734.882 1697.03 C 743.265 1699.6 745.35 1700.07 754.323 1699.98 C 772.548 1724.25 795.712 1757.27 827.271 1731.72 C 838.711 1722.46 842.793 1711.61 853.642 1702.41 C 870.641 1701.09 876.166 1700.07 874.5 1681.24 C 872.949 1663.71 869.992 1659.98 852.865 1654.71 C 850.864 1654.09 843.994 1634.46 840.28 1632.76 C 836.483 1629.55 827.618 1631.64 823.083 1628.47 L 823.04 1627.18 C 822.61 1616.71 816.962 1614.04 820.763 1608 C 826.378 1605.11 833.512 1606.22 840.127 1605.91 C 849.379 1597.39 850.513 1594.39 851.029 1581.86 C 851.075 1580.71 851.109 1579.56 851.131 1578.41 C 858.131 1574.04 868.753 1575.41 871.658 1563.39 C 872.679 1559.17 870.32 1548.98 871.935 1546.84 C 882.613 1532.7 887.13 1538.28 883.413 1514.64 C 889.042 1512.08 896.805 1508.52 899.421 1502.47 C 902.204 1496.04 895.209 1487.4 897.28 1482 C 898.787 1478.08 904.802 1475.64 905.714 1470.82 C 906.593 1466.17 903.407 1458.39 905.152 1454.75 C 907.655 1449.53 915.021 1448.43 915.553 1441.15 C 915.91 1436.28 910.404 1426.61 910.901 1423.93 C 910.975 1423.53 922.322 1416.53 924.088 1412.66 C 927.49 1405.22 922.693 1399.52 922.977 1392.41 C 923.465 1380.18 936.173 1383.87 925.588 1361.39 C 925.496 1361.2 925.4 1361.01 925.307 1360.81 C 932.831 1355.37 935.339 1351.95 938.477 1342.98 C 936.643 1334.96 935.933 1332.07 931.81 1324.79 C 954.01 1307.07 933.854 1298.66 937.406 1295.14 C 949.458 1283.19 952.932 1280.86 944.119 1263.58 C 943.46 1262.32 952.998 1252.88 951.962 1250.07 C 952.598 1245.39 948.402 1237.61 949.017 1236.5 C 954.921 1225.91 960.499 1221.53 954.762 1208.36 L 951.391 1206.18 C 953.81 1201.1 954.875 1202.03 957.974 1198.68 C 962.505 1193.78 958.514 1182.24 956.65 1176.88 C 966.196 1164.73 969.141 1158.35 956.653 1146.75 C 961.89 1139.98 963.912 1137.51 965.421 1128.77 C 971.69 1123.95 973.045 1123.1 977.856 1117.07 C 1007.53 1135.36 1033.43 1133.48 1065.99 1140.1 C 1070.85 1141.09 1084 1152.32 1091.05 1153.06 C 1101.31 1157.2 1115.56 1159.19 1123.68 1162.82 C 1151.2 1175.12 1180.15 1201.76 1200.95 1223.8 C 1206.06 1229.43 1207.62 1237.53 1212.16 1243.42 C 1220.75 1254.54 1234.13 1265.7 1240.39 1278.19 C 1251.89 1301.14 1257.69 1325.58 1265.41 1349.68 C 1272.22 1370.91 1289.45 1388.61 1293.21 1411.42 C 1297.42 1430.08 1300.73 1450.66 1305.99 1468.99 C 1307.7 1474.96 1315.69 1496.94 1318.61 1501.27 C 1335.67 1526.48 1333.8 1551.45 1341.98 1578.51 C 1348.68 1600.7 1367.23 1613.03 1357.97 1640.2 C 1328.56 1661.4 1288.26 1671.25 1257.95 1692.85 C 1249.76 1698.69 1235.17 1702.51 1226.5 1708.27 C 1212.77 1714.95 1197.64 1728.78 1181.77 1725.22 C 1176.74 1724.09 1168.84 1723.1 1165.89 1718.2 C 1157.93 1703.93 1160.11 1686.08 1161.8 1670.5 C 1162.46 1664.33 1164.53 1654.16 1163.86 1648.37 C 1160.96 1623.23 1156.05 1600.5 1159.07 1574.99 C 1159.78 1569.05 1157.06 1558.55 1157.21 1552.18 C 1156.72 1526.69 1155.78 1501.44 1161.07 1476.31 C 1163.06 1466.86 1167.26 1456.04 1170.93 1447.1 C 1173.67 1440.41 1180.53 1431.06 1181.79 1424.27 L 1180.47 1422.14 C 1167.98 1419.39 1153.85 1463.06 1150.84 1473.7 C 1145.03 1447.88 1140.87 1428.1 1143.28 1401.49 C 1144.7 1385.83 1151.99 1372.25 1155.42 1357.2 C 1154.99 1356.67 1154.56 1356.13 1154.12 1355.59 C 1135.95 1352.06 1131.18 1424.55 1134.19 1436.85 C 1137.79 1451.52 1141.56 1466.3 1143.26 1481.3 C 1144.15 1491.83 1142.82 1501.32 1143.47 1511.47 C 1143.87 1517.79 1146.81 1525.34 1147.07 1532.66 C 1147.91 1556.09 1142.54 1579.77 1142.2 1602.76 C 1141.93 1620.66 1148.92 1638.01 1147.64 1657.01 C 1146.29 1676.95 1140 1694.27 1139.01 1713.78 C 1138.63 1721.19 1141.77 1728.07 1143.13 1734.59 C 1144.06 1739.1 1144.45 1746.77 1145.18 1751.78 C 1146.51 1760.93 1148.59 1771.51 1149.17 1780.65 C 1150.35 1799.24 1144.25 1815 1144.84 1834.26 C 1145.39 1851.8 1150.75 1862.31 1152.75 1879.15 C 1155.27 1900.39 1148.62 1920.08 1148.49 1940.97 C 1148.44 1949.1 1151.3 1958.86 1152.47 1967.07 C 1156.93 1998.43 1158.49 2017.53 1149.65 2048 L 424.572 2048 C 449.26 2026.42 455.689 2006.79 465.227 1976.03 C 472.687 1951.96 472.935 1933.65 476.923 1909.23 C 479.63 1892.66 489 1872.25 489.445 1854.08 C 490.058 1832.39 490.016 1814.84 494.934 1793.21 C 497.956 1779.92 502.806 1764.71 502.284 1751.43 C 501.794 1734.02 508.328 1709.23 510.199 1691.16 C 511.763 1676.04 514.129 1661.74 515.582 1646.64 C 516.4 1638.15 520.118 1631.84 519.815 1622.13 L 525.693 1613.29 C 556.046 1619.91 600.746 1612.59 627.647 1596.32 C 642.376 1587.41 645.948 1576.99 646.085 1560.6 L 645.453 1559.41 C 641.998 1552.99 639.806 1551.98 634.3 1547.26 C 635.131 1545.33 638.983 1542.71 640.877 1541.57 C 658.918 1530.68 663.702 1514.08 658.672 1493.64 C 653.977 1490.25 648.082 1486.22 643.829 1482.49 C 662.494 1466.82 673.544 1450.45 655.725 1426.83 C 652.056 1421.96 646.549 1419.73 641.153 1416.97 C 674.249 1355.69 614.501 1352.55 570.086 1351.18 C 547.966 1350.5 528.63 1356.71 505.74 1354.29 C 514.442 1337.79 519.13 1308.22 517.417 1289.32 C 516.618 1280.51 513.318 1273.1 511.365 1265.14 C 507.367 1248.85 500.433 1236.2 494.8 1221.28 C 483.661 1215.68 474.134 1209.79 461.011 1210.39 C 451.634 1210.82 439.685 1209.75 433.351 1218 C 431.462 1226.15 436.026 1256.06 436.062 1266.09 C 436.277 1287.83 435.257 1307.96 430.883 1329.35 C 427.494 1347.46 417.649 1364.09 412.888 1382 C 411.406 1386.68 411.353 1392.04 410.254 1396.73 C 400.071 1440.22 385.691 1482.67 368.574 1523.94 C 362.666 1538.19 360.262 1557.07 356.355 1571.94 C 352.331 1580.6 349.665 1590.9 346.162 1599.45 C 342.833 1607.57 345.159 1625.61 343.355 1629.55 C 335.2 1647.38 332.81 1673.89 320.579 1688.53 C 316.697 1693.18 295.179 1679.21 291.13 1677.8 C 270.643 1670.32 252.147 1656.5 232.454 1648.5 C 230.604 1644.69 228.387 1639.73 226.19 1636.22 C 226.266 1612.75 237.149 1606.65 243.555 1588.4 C 249.464 1571.56 252.953 1547.46 258.373 1529.9 C 264.689 1509.43 277.39 1489.09 284.539 1470.37 C 291.191 1452.96 295.462 1424.46 301.568 1406.06 C 304.688 1396.65 308.461 1388.58 312.048 1379.45 L 335.174 1321.69 C 339.616 1310.87 342.891 1300.05 347.761 1289.39 C 357.174 1268.78 371.977 1251.01 384.461 1232.98 C 404.625 1203.85 427.298 1187.03 458.569 1171.39 C 465.15 1168.1 471.221 1162.03 477.943 1158.89 C 516.038 1144.42 555.402 1135.71 594.719 1125.54 C 600.187 1124.12 614.332 1117.69 620.074 1115.17 z" fill="rgb(140,146,152)" transform="translate(0,0)"></path>
<path d="M 1171.3 1774.33 C 1189.5 1770.1 1213.73 1753.34 1230 1743.83 C 1236.45 1740.06 1244.15 1731.66 1250.76 1727.49 C 1270.9 1714.78 1281.67 1701.86 1304.8 1695.24 C 1303.19 1708.88 1300.63 1726.56 1300.15 1740.07 C 1299.65 1754.29 1305.22 1769.34 1305.23 1785.13 C 1305.25 1802.82 1301.97 1816.24 1300.84 1833.24 C 1299.99 1846.2 1305.56 1865.28 1305.49 1878.35 C 1305.4 1895.1 1301.24 1912.39 1300.42 1929.36 C 1299.72 1943.95 1305.37 1954.73 1304.95 1969.29 C 1304.46 1986.05 1299.65 2033.61 1305.07 2048 L 1174.42 2048 C 1176.24 2027.5 1179.87 2008.41 1178.92 1987.9 C 1178.36 1975.76 1169.35 1951.89 1170.65 1942.18 C 1174.84 1911 1172.1 1887.24 1167.97 1856.5 C 1166.42 1845.04 1171.71 1822.82 1171.04 1810.48 C 1171.56 1798.18 1171.01 1786.41 1171.3 1774.33 z" fill="rgb(241,201,168)" transform="translate(0,0)"></path>
<path d="M 968.298 1113.14 C 960.644 1124.41 957.094 1119.54 966.682 1112.42 L 968.298 1113.14 z" fill="rgb(140,146,152)" transform="translate(0,0)"></path>
<path d="M 510.766 855.824 C 498.564 830.079 520.158 811.642 511.75 788.69 C 499.336 754.8 453.974 760.865 453.307 710.431 C 453.172 700.168 451.48 695.801 456.149 684.374 C 456.471 683.586 457.24 677.216 458.189 674.973 C 464.694 659.427 488.19 641.21 481.988 623.152 C 478.158 611.997 461.813 607.898 452.867 601.65 C 429.522 585.345 422.115 547.67 452.563 534.278 C 461.159 530.498 474.359 529.957 478.521 520.58 C 479.826 517.546 480.037 513.564 478.668 510.834 C 472.273 498.086 461.106 489.445 467.505 473.299 C 470.442 465.889 473.001 461.618 480.881 457.568 C 497.03 449.269 527.299 465.126 535.668 446.31 C 537.268 442.713 536.695 437.809 535.034 434.606 C 527.03 419.165 512.488 410.881 518.983 390.493 C 522.272 380.169 534.524 367.765 544.639 363.014 C 552.645 359.254 559.896 358.524 569.578 358.664 C 581.432 358.836 608.416 370.537 615.805 357.076 C 617.383 354.201 616.417 343.112 615.748 339.507 C 611.601 317.163 616.978 297.909 638.4 286.808 C 651.327 280.11 673.34 275.939 688.567 278.432 C 692.157 279.02 702.08 287.662 705.348 285.207 C 707.969 283.238 712.3 274.665 714.35 271.452 C 724.511 255.532 747.694 249.593 765.424 252.404 C 780.722 254.83 794.883 260.518 804.391 273.227 C 811.724 283.03 815.683 299.986 827.002 301.683 C 830.075 302.144 837.505 301.843 840.807 301.629 C 860.444 282.85 889.244 279.525 910.095 298.108 C 919.604 306.583 917.426 321.962 922.344 333.691 C 927.517 336.585 929.697 337.804 935.247 339.813 C 962.534 334.503 967.869 316.5 993.326 329.857 C 1004.63 349.668 997.245 352.559 1002.18 373.179 C 1006.43 377.044 1009 379.556 1013.9 382.589 C 1025.52 380.982 1029.85 379.522 1041.89 379.948 C 1074.24 406.318 1026.64 424.926 1087.75 445.982 C 1092.18 453.924 1096.22 461.255 1093.51 470.694 C 1090.56 480.944 1079.38 488.793 1085.36 500.202 C 1094.6 517.815 1124.46 506.236 1130.55 555.786 C 1131.81 566.071 1132.63 575.929 1129.81 586.062 C 1122.53 612.203 1098.76 615.366 1115.79 646.335 L 1126.69 650.688 C 1146.63 680.412 1134.64 694.749 1113.49 719.238 C 1113.84 733.658 1118.78 763.991 1110.59 773.033 C 1097.21 787.8 1067.96 781.307 1069.81 804.886 C 1071.1 821.327 1080.27 834.985 1066.24 851.108 C 1054.6 864.496 1030.75 860.174 1023.51 880.203 C 1019.85 890.342 1021.7 898.311 1018.37 909.155 C 1014.34 912.986 1013.01 914.415 1008.37 917.134 C 993.129 926.066 966.376 921.083 966.907 945.203 C 967.128 955.264 967.504 959.73 964.109 969.219 C 949.8 982.937 946.173 979.051 933.422 988.627 C 932.123 976.917 932.749 964.639 932.928 953.342 C 933.087 943.232 929.198 924.521 937.238 917.195 C 948.407 907.018 953.281 898.892 961.172 886.007 C 974.516 864.219 985.448 845.039 987.966 819.002 C 1007.44 820.095 1025.64 816.367 1040.72 802.699 C 1075.85 770.877 1106.21 706.213 1072.54 663.952 C 1054.24 640.985 1019.79 637.612 995.204 651.911 C 993.505 652.908 992.818 654.967 992.395 656.791 L 993.04 660.2 C 997.587 660.358 1007.39 656.176 1012.23 654.844 C 1053.97 643.352 1080.34 670.164 1078.68 710.081 C 1077.37 741.958 1063.17 771.938 1039.35 793.161 C 1025.2 805.965 1008.62 811.75 989.864 811.898 C 991.691 804.006 996.339 785.628 996.592 777.969 C 997.012 765.236 1005.02 706.44 997.249 699.828 C 996.022 699.967 994.667 699.899 993.945 701.413 C 990.005 709.679 993.019 729.87 992.001 739.05 C 988.732 768.553 986.518 797.904 980.273 826.881 C 974.256 854.802 953.89 885.02 934.96 906.474 C 926.621 915.925 915.275 925.182 906.693 934.621 C 895.419 947.02 878.839 964.601 865.008 973.771 C 853.161 981.625 828.046 990.023 813.997 991.601 C 778.713 995.564 746.364 987.174 718.323 965.074 C 707.852 956.821 700.753 947.553 691.728 939.393 C 653.265 904.613 624.18 878.293 612.569 825.059 C 609.527 811.112 606.268 802.807 604.264 786.767 C 602.907 775.915 602.317 733.294 600.849 728.644 C 597.566 726.787 598.764 726.807 595.906 727.594 C 590.617 737.293 596.326 800.454 600.405 815.097 C 595.394 812.906 590.571 811.084 585.307 809.57 C 552.548 800.211 525.774 772.263 513.69 740.803 C 494.236 690.156 520.581 625.528 582.008 657.175 C 591.065 661.842 589.789 667.2 583.523 673.646 L 583.141 677.375 C 593.595 680.965 600.061 679.819 610.599 677.555 C 626.555 662.056 626.152 649.248 623.919 628.789 C 633.124 625.169 639.876 623.455 647.237 616.787 L 648.325 615.794 C 650.742 611.567 655.615 604.03 657.057 599.738 C 663.912 579.327 638.689 550.196 666.272 540.972 L 669.052 541.301 C 675.435 539.065 680.492 538.882 683.649 533.009 C 685.436 519.541 668.6 501.002 671.91 478.077 C 675.783 451.247 692.669 452.662 694.326 443.652 C 689.644 438.719 678.179 445.189 675.376 449.131 C 666.867 461.096 661.05 476.663 663.285 491.482 C 665.223 507.51 675.519 514.527 675.779 529.065 C 674.643 530.019 657.866 535.435 653.733 537.413 C 650.126 542.606 646.138 546.589 646.179 553.09 C 646.295 571.667 656.775 589.545 645.244 607.282 C 638.281 617.994 627.374 618.343 616.137 620.874 C 614.801 621.181 612.242 622.48 613.003 624.318 C 616.277 632.222 618.165 639.026 619.567 647.496 C 614.628 660.294 613.244 672.562 597.243 671.876 L 595.676 670.673 C 595.155 666.082 597.739 661.112 594.274 657.705 C 575.018 639.122 541.402 634.871 520.212 653.26 C 505.505 666.023 503.658 673.938 500.962 692.761 C 492.976 748.527 539.028 816.893 598.448 821.017 C 599.727 821.103 601.008 821.143 602.29 821.136 C 610.929 851.199 617.331 871.129 636.907 895.975 C 646.032 907.556 662.214 927.655 668.635 940.54 C 666.894 957.935 668.345 981.248 665.885 995.425 C 659.102 991.244 651.1 985.802 644.127 982.344 C 635.5 979.189 628.432 982.078 625.762 971.055 C 624.09 964.15 626.498 946.388 618.885 943.473 C 603.376 937.534 586.935 939.928 569.82 934.667 C 564.943 929.602 562.859 927.271 558.83 921.567 C 559.811 910.647 560.191 894.644 559.604 883.633 C 548.297 868.299 528.384 865.478 510.766 855.824 z" fill="rgb(241,201,168)" transform="translate(0,0)"></path>
<path d="M 915.641 791.601 C 917.951 790.871 920.729 791.405 922.965 792.151 C 926.11 794.742 926.457 796.919 927.864 800.787 C 914.894 898.72 811.313 931.857 729.172 897.535 C 722.006 894.541 709.002 882.919 702.65 877.722 C 684.264 863.982 666.277 828.791 664.151 806.439 C 663.156 795.986 670.217 792.795 679.255 793.083 C 703.813 793.865 728.175 798.04 752.78 796.081 C 761.622 795.413 771.378 795.141 780.282 794.954 L 915.641 791.601 z" fill="rgb(34,30,26)" transform="translate(0,0)"></path>
<path d="M 901.416 800.455 L 912.428 800.728 C 909.503 808.912 906.257 815.839 902.177 823.493 C 897.649 820.254 893.578 815.812 888.374 819.404 C 884.326 827.076 890.26 845.247 876.125 843.842 C 869.624 843.196 870.089 833.953 863.503 833.183 C 858.618 836.311 860.644 838.071 857.642 841.379 C 849.473 850.38 815.822 837.359 810.513 848.418 L 811.203 849.981 C 817.749 853.501 846.71 851.882 856.167 851.657 C 858.101 854.107 859.737 855.975 861.85 858.274 C 865.187 859.3 863.675 859.479 866.566 858.067 C 868.219 855.543 869.3 853.222 871.985 852.002 C 880.615 852.037 879.107 855.237 883.757 859.37 C 888.347 863.45 891.112 853.427 898.365 851.77 L 899.219 852.997 C 896.154 860.169 883.581 870.115 877.091 874.659 C 874.765 876.366 873.24 879.258 870.887 880.914 C 830.348 909.444 780.059 907.274 735.247 891.138 C 727.219 888.247 712.706 874.721 705.679 868.891 C 703.23 867.335 691.852 854.238 691.775 851.643 L 693.99 850.131 C 701.94 850.366 699.696 857.12 707.105 860.466 C 714.862 858.854 716.683 843.799 729.343 861.505 L 731.31 861.578 C 734.469 859.241 735.387 856.24 737.117 852.6 C 746.354 852.515 782.19 857.659 784.703 848.377 L 783.298 846.685 C 778.044 845.494 743.989 844.356 735.921 843.855 C 734.615 839.614 733.276 835.383 731.905 831.163 C 701.259 857.063 712.658 831.131 701.892 817.128 C 698.386 812.568 695.041 819.906 689.832 820.638 C 683.364 817.633 679.217 807.683 675.736 801.193 C 681.091 801.241 686.704 802.086 692.071 802.644 C 746.744 808.326 802.263 804.543 857.049 802.026 C 870.95 801.388 887.978 803.6 901.416 800.455 z" fill="rgb(244,237,222)" transform="translate(0,0)"></path>
<path d="M 830.119 432.049 C 838.184 431.097 851.535 436.253 856.977 442.48 C 859.078 444.884 862.82 450.213 861.142 453.401 C 852.272 454.4 841.346 436.563 831.347 441.436 C 833.708 447.991 843.83 449.579 846.897 467.001 C 851.689 494.225 835.226 494.911 826.481 516.049 C 824.346 526.808 836.882 536.526 845.714 537.129 C 865.312 538.468 866.641 498.564 879.785 500.32 C 882.524 503.287 882.421 504.366 879.895 507.755 C 872.944 517.082 875.276 529.78 875.946 541.359 C 879.041 546.421 881.308 550.71 886.131 554.187 C 905.161 567.906 926.185 558.868 946.775 555.745 C 954.058 554.64 962.138 555.091 968.097 559.954 C 980.977 570.465 965.452 588.432 962.212 600.478 C 959.722 609.736 960.239 614.568 960.737 623.846 C 961.706 641.888 971.691 652.979 987.182 661.121 C 991.555 663.42 998.131 666.132 1002.02 669.267 C 1004.16 670.987 1003.85 671.174 1003.99 673.176 C 991.577 680.843 962.755 655.888 957.629 645.523 C 952.26 630.256 948.178 611.465 954.43 595.857 C 956.598 590.446 966.429 573.524 961.759 568.759 C 952.306 559.114 930.94 568.429 919.104 568.935 C 910.322 569.31 903.122 569.726 894.453 567.473 C 878.494 563.128 871.004 551.678 866.62 536.565 C 865.83 533.843 856.266 542.75 854.485 543.346 C 848.219 545.446 838.856 543.42 832.348 542.559 C 820.693 533.318 817.405 525.47 820.291 510.969 C 785.037 520.611 798.628 536.183 789.968 542.512 C 784.354 542.1 774.842 534.331 769.88 530.736 C 765.459 520.583 764.148 514.495 766.49 503.375 C 768.429 494.168 779.874 479.449 790.221 482.681 L 791.001 484.515 C 788.857 489.347 781.176 493.099 777.639 498.461 C 772.5 506.252 773.912 512.976 775.308 521.453 C 779.44 527.091 780.544 527.81 786.002 532.023 C 787.316 526.524 789.536 521.101 791.55 515.797 C 815.473 496.902 828.042 511.506 840.709 473.842 C 835.573 454.924 831.816 457.552 821.537 442.379 C 819.995 440.103 820.815 438.18 821.472 436.046 C 823.92 433.333 826.507 433.07 830.119 432.049 z" fill="rgb(34,30,26)" transform="translate(0,0)"></path>
<path d="M 693.412 623.182 C 694.854 623.045 696.3 622.953 697.748 622.906 C 711.94 622.489 764.417 642.878 745.983 663.855 C 740.421 670.185 710.347 680.513 701.245 680.15 C 689.381 680.533 662.561 675.351 652.588 670.258 C 616.976 652.07 678.025 626.93 693.412 623.182 z" fill="rgb(34,30,26)" transform="translate(0,0)"></path>
<path d="M 690.212 632.139 C 698.687 631.481 722.073 631.329 724.362 640.361 C 727.714 653.582 721.48 666.005 709.701 670.882 C 702.317 672.251 693.944 672.212 686.533 670.865 C 686.918 670.864 687.303 670.864 687.689 670.864 C 682.36 665.84 674.803 661.876 674.348 654.451 C 673.502 640.653 677.865 634.836 690.212 632.139 z" fill="rgb(47,95,175)" transform="translate(0,0)"></path>
<path d="M 696.437 645.274 C 700.014 644.466 703.6 646.593 704.605 650.119 C 705.61 653.646 703.684 657.344 700.218 658.542 C 697.799 659.379 695.116 658.809 693.246 657.062 C 691.375 655.316 690.623 652.678 691.292 650.207 C 691.961 647.737 693.941 645.839 696.437 645.274 z" fill="rgb(34,30,26)" transform="translate(0,0)"></path>
<path d="M 667.781 641.813 C 669.168 655.64 664.532 652.236 673.092 667.626 C 666.019 667.179 664.825 667.053 658.144 664.452 C 654.01 662.47 650.365 660.344 646.44 657.989 C 654.825 649.516 657.767 648.137 667.781 641.813 z" fill="rgb(244,237,222)" transform="translate(0,0)"></path>
<path d="M 730.896 643.758 C 735.9 647.952 748.877 656.386 738.625 660.466 C 737.399 661.123 736.184 661.801 734.982 662.5 C 733.472 663.358 730.679 665.253 729.016 664.793 C 729.897 666.343 730.946 645.597 730.896 643.758 z" fill="rgb(244,237,222)" transform="translate(0,0)"></path>
<path d="M 886.993 623.419 C 904.667 620.202 942.855 642.502 946.721 659.328 C 944.685 672.243 911.054 679.847 899.914 680.117 C 881.607 680.064 860.107 675.002 845.003 664.411 C 824.832 650.267 858.628 633.475 869.11 628.127 C 875.978 624.623 879.375 623.98 886.993 623.419 z" fill="rgb(34,30,26)" transform="translate(0,0)"></path>
<path d="M 881.935 631.239 C 900.54 629.855 917.56 633.422 912.947 657.502 C 911.706 663.981 906.069 667.693 900.785 670.924 C 897.106 671.213 885.193 671.785 882.473 670.189 C 865.645 660.32 862.931 639.772 881.935 631.239 z" fill="rgb(47,95,175)" transform="translate(0,0)"></path>
<path d="M 891.498 643.416 C 895.591 642.364 899.766 644.811 900.847 648.896 C 901.928 652.982 899.51 657.174 895.433 658.284 C 891.314 659.405 887.07 656.958 885.978 652.832 C 884.886 648.705 887.364 644.479 891.498 643.416 z" fill="rgb(34,30,26)" transform="translate(0,0)"></path>
<path d="M 863.623 639.885 C 866.078 642.197 858.183 656.57 865.006 661.947 C 865.308 662.185 866.795 664.625 866.889 665.388 C 866.076 667.398 859.798 664.381 858.601 663.851 C 852.782 660.851 850.862 660.026 845.76 655.551 C 853.067 648.51 855.598 646.019 863.623 639.885 z" fill="rgb(244,237,222)" transform="translate(0,0)"></path>
<path d="M 921.098 643.437 C 924.174 645.6 934.704 655.498 937.908 658.479 C 933.797 661.752 932.208 663.215 927.336 665.561 C 925.374 666.341 917.368 670.13 915.685 669.221 C 915.13 668.056 917.696 665.209 918.419 663.697 C 922.213 655.756 922.271 651.664 921.098 643.437 z" fill="rgb(244,237,222)" transform="translate(0,0)"></path>
<path d="M 729.81 540.043 C 730.278 532.698 728.382 524.765 726.522 517.648 C 721.477 498.345 724.07 481.887 738.377 467.381 C 742.627 463.091 753.89 459.664 759.782 461.727 L 760.39 462.568 C 759.176 467.789 745.066 473.338 739.961 476.945 C 730.18 497.433 724.29 519.095 751.281 531.507 C 754.844 533.145 759.774 534.034 762.416 536.845 C 762.442 540.1 762.883 538.586 760.617 541.389 C 753.078 544.587 742.992 537.424 737.769 532.509 L 736.625 544.639 C 733.791 548.265 731.137 551.95 727.189 554.541 C 714.752 562.703 669.871 567.531 668.433 545.902 L 674.093 545.394 C 686.135 554.959 707.369 555.919 721.33 548.909 C 725.485 546.822 727.322 543.801 729.81 540.043 z" fill="rgb(34,30,26)" transform="translate(0,0)"></path>
<path d="M 869.408 585.193 C 881 583.92 927.089 588.723 934.008 597.652 C 933.9 600.722 934.259 599.551 931.524 602.256 C 926.63 603.097 924.139 597.927 913.876 597.056 L 912.867 596.979 C 898.53 595.567 884.607 593.536 870.145 593.964 C 861.804 594.212 848.376 602.431 842.326 596.272 C 844.519 590.349 863.284 586.558 869.408 585.193 z" fill="rgb(34,30,26)" transform="translate(0,0)"></path>
<path d="M 695.628 584.402 C 707.803 582.995 737.616 584.051 743.807 597.637 L 742.202 599.258 C 736.46 600.018 721.767 593.522 714.865 592.591 C 710.642 592.021 706.348 591.695 702.191 591.205 C 694.085 588.411 665.359 603.355 659.01 601.582 C 657.889 599.036 658.064 600.393 658.996 597.345 C 666.906 588.509 684.553 585.737 695.628 584.402 z" fill="rgb(34,30,26)" transform="translate(0,0)"></path>
<path d="M 550.834 685.964 C 545.706 690.55 540.122 697.292 538.692 703.971 C 536.457 714.403 528.422 715.832 531.096 704.01 C 534.25 690.51 536.686 682.361 550.495 678.076 C 566.57 673.087 566.807 673.772 582.721 679.357 C 585.936 680.67 587.498 681.498 590.897 682.566 C 588.55 697.436 581.046 688.102 572.42 685.342 C 565.118 683.005 558.208 684.495 550.834 685.964 z" fill="rgb(34,30,26)" transform="translate(0,0)"></path>
<path d="M 1016.46 674.852 C 1036.23 673.374 1042.03 676.075 1057.05 688.211 C 1058.76 694.358 1061.12 700.055 1062.27 705.999 C 1063.06 710.04 1058.8 716.064 1055.45 710.66 C 1054.82 704.597 1051.73 695.049 1047.59 690.699 C 1031.1 673.365 1017.97 686.719 1010 685.928 C 1009.28 685.857 1008.63 685.457 1008.25 684.845 C 1005.2 679.918 1013.4 676.643 1016.46 674.852 z" fill="rgb(34,30,26)" transform="translate(0,0)"></path>
<path d="M 1008.73 704.92 C 1017.83 704.622 1020.66 704.029 1026.55 712.341 C 1032.84 721.209 1036.1 729.461 1032.62 740.888 C 1030.78 746.928 1028.65 751.826 1024.43 757.377 C 1011.26 760.656 1024.9 741.457 1025.12 736.012 C 1025.6 724.229 1022.88 717.918 1012.84 711.562 C 1008.87 709.045 1007.84 709.245 1008.73 704.92 z" fill="rgb(34,30,26)" transform="translate(0,0)"></path>
<path d="M 619.686 569.384 C 628.909 571.813 623.536 584.075 622.866 591.772 C 618.829 597.168 615.408 602.827 611.558 607.812 C 605.601 609.001 601.643 609.389 595.559 610.94 C 590.907 608.634 586.267 603.465 592.971 602.948 C 614.624 601.28 612.369 588.093 619.686 569.384 z" fill="rgb(34,30,26)" transform="translate(0,0)"></path>
<path d="M 583.162 702.924 C 586.461 704.044 585.448 708.67 584.879 709.026 C 571.614 717.346 568.875 719.738 564.185 735.562 C 567.463 743.969 574.028 750.917 565.84 755.564 C 561.185 750.191 559.587 743.093 556.9 736.114 C 562.442 715.196 562.356 712.289 583.162 702.924 z" fill="rgb(34,30,26)" transform="translate(0,0)"></path>
<path d="M 785.351 634.315 C 795.716 636.512 788.407 642.684 784.951 653.507 C 779.964 669.122 792.241 678.328 787.511 687.55 C 774.489 685.034 775.461 663.247 776.95 652.993 C 778.036 645.517 781.652 640.76 785.351 634.315 z" fill="rgb(34,30,26)" transform="translate(0,0)"></path>
<path d="M 792.1 926.571 C 799.602 925.88 808.746 926.802 815.608 926.343 C 820.008 926.049 823.623 927.561 820.985 932.005 C 819.442 934.605 812.223 933.913 809.681 933.899 C 807.369 933.506 797.875 932.088 795.501 933.235 C 792.15 934.854 773.461 934.359 784.007 927.122 C 784.744 926.616 790.103 926.93 792.1 926.571 z" fill="rgb(34,30,26)" transform="translate(0,0)"></path>
<path d="M 758.928 729.475 C 776.401 731.131 757.355 739.279 760.338 744.765 C 763.352 750.308 769.398 739.646 772.612 749.965 C 756.189 759.913 746.628 744.827 758.928 729.475 z" fill="rgb(34,30,26)" transform="translate(0,0)"></path>
<path d="M 783.212 739.732 C 790.244 740.966 796.984 745.972 804.386 741.665 C 810.561 738.073 813.81 740.966 811.742 747.724 C 801.198 751.763 796.216 751.584 785.441 748.039 C 780.65 746.464 781.666 743.335 783.212 739.732 z" fill="rgb(34,30,26)" transform="translate(0,0)"></path>
<path d="M 830.409 731.814 C 835.918 732.087 841 733.169 841.469 739.439 C 842.224 749.519 833.463 751.828 826.623 753.041 C 812.882 745.071 832.313 746.28 833.124 745.11 C 838.913 736.75 826.989 741.485 830.409 731.814 z" fill="rgb(34,30,26)" transform="translate(0,0)"></path>
<path d="M 460.43 1218.24 L 462.994 1219.06 C 469.12 1221.06 474.552 1221.77 480.865 1222.82 C 500.974 1241.74 512.048 1292.05 508.184 1319.08 C 506.663 1329.72 497.461 1347.56 494.412 1359.06 C 501.127 1371.07 555.591 1359.99 569.233 1360.42 C 584.948 1360.62 640.202 1361.38 643.324 1382.28 C 649.428 1423.16 597.767 1415.23 572.59 1415.24 C 565.184 1415.24 551.222 1411.81 547.303 1418.7 L 548.452 1420.46 C 561.704 1427.98 590.053 1421.67 605.598 1421.84 C 609.382 1421.6 612.309 1423.82 616.034 1424.29 C 621.448 1424.98 629.146 1421.98 634.177 1422.98 C 639.487 1424.04 647.662 1430.46 651.495 1434.01 L 652.377 1434.84 C 655.331 1445.05 657.537 1455.93 649.228 1465.03 C 631.916 1484 599.626 1476.74 576.697 1477.27 C 569.2 1477.44 558.387 1472.01 552.535 1479.01 C 560.296 1494.11 632.415 1478.65 646.997 1496.67 C 661.415 1514.49 645.612 1524.29 633.491 1536.04 C 619.235 1549.85 559.401 1543.27 551.178 1551.86 C 562.413 1564.99 622.87 1543.34 636.468 1560.39 C 644.027 1569.86 625.887 1587.23 618.106 1590.98 C 589.777 1604.66 555.262 1607.65 524.212 1604.95 C 507.608 1603.15 483.728 1591.41 468.435 1585.43 C 461.427 1582.69 451.448 1572.96 444.508 1577.77 C 435.132 1598.05 488.506 1646.56 502.502 1659.23 C 504.804 1685.62 493.399 1749.59 490.046 1777.9 C 489.388 1785.54 481.356 1803.87 481.935 1810.67 C 482.764 1820.4 478.721 1850.85 479.829 1858.25 C 477.368 1880.4 472.429 1889.69 467.518 1909.53 C 463.37 1933.48 466.625 1955.72 451.36 1976.67 C 435.653 1998.21 420.009 2014.7 392.893 2020.09 L 388.409 2026.79 C 373.96 2033.45 361.302 2030.9 346.34 2028.8 C 309.553 2023.6 287.214 1991.39 268.865 1962.45 C 259.252 1947.29 258.432 1934.21 256.06 1916.84 C 254.11 1902.57 252.173 1889.44 252.331 1874.92 C 252.509 1858.48 258.643 1844.73 260.958 1828.79 L 272.393 1751.06 C 275.494 1729.47 274.987 1721.37 279.961 1698.3 C 286.261 1711.51 294.478 1725.95 300.858 1739.4 C 304.017 1746.05 303.06 1746.73 307.729 1753.06 C 304.115 1763.17 301.71 1774.59 297.912 1784.8 C 293.566 1796.49 270.742 1859.83 281.856 1866.05 L 283.876 1865.22 C 288.279 1856.29 295.32 1817.9 299.495 1805.67 C 302.644 1796.44 306.036 1785.82 309.61 1776.3 C 311.725 1770.68 313.56 1762.66 315.808 1756.35 C 318.31 1749.32 324.653 1735.61 326.039 1729.02 C 329.445 1712.85 333.402 1697.39 337.554 1681.41 C 339.157 1675.24 339.893 1665.5 341.61 1659.56 C 343.508 1653 347.649 1648.59 349.587 1640.68 C 352.738 1627.82 352.241 1613.97 355.22 1601.56 C 358.292 1590.43 362.709 1579.35 365.874 1568.28 C 375.342 1535.15 387.216 1502.66 398.779 1470.23 C 401.824 1461.69 403.669 1451.23 406.193 1442.31 L 427.018 1367.77 C 429.053 1360.29 432.663 1354.53 435.168 1347.47 C 442.303 1327.1 442.443 1305.29 445.887 1284.24 C 447.035 1277.23 463.071 1274.71 463.973 1263.74 C 465.467 1245.55 458.527 1234.64 448.219 1221.02 C 451.983 1219.93 456.544 1219.08 460.43 1218.24 z" fill="rgb(241,201,168)" transform="translate(0,0)"></path>
<path d="M 672.202 1162.28 C 682.963 1165.08 690.141 1169.84 700.056 1174.63 C 721.857 1185.18 744.162 1185.48 766.326 1190.11 C 827.066 1202.8 871.182 1183.05 925.583 1160.05 C 927.409 1165.03 928.701 1168.99 931.367 1173.61 C 928.12 1180.32 927.175 1182.69 925.184 1189.84 C 926.567 1192.98 930.817 1200.76 930.937 1202.8 L 928.666 1204.4 C 917.627 1212.88 919.549 1220.7 927.297 1231 C 914.951 1237.71 912.455 1248.73 921.146 1259.84 C 908.005 1271.51 907.211 1275.69 914.31 1291.9 C 896.98 1304.83 911.448 1317.46 907.911 1322.54 C 902.396 1326.09 899.964 1330.63 898.58 1337.02 C 898.102 1339.32 897.685 1341.62 897.329 1343.94 C 897.567 1345.83 900.894 1355.45 900.882 1355.47 C 891.136 1370.21 886.602 1370.91 895.625 1386.87 C 893.232 1397.3 878.714 1395.53 888.793 1417.92 C 870.192 1433.89 880.222 1433.25 877.966 1447.59 C 876.57 1456.47 861.569 1450.51 872.197 1477.13 C 853.586 1490.09 863.635 1487.6 858.916 1504.96 C 858.458 1506.65 850.834 1511.01 849.542 1514.25 C 845.703 1523.89 843.683 1527.46 847.028 1537.26 C 834.908 1547.08 833.162 1550.63 834.689 1565.92 C 832.289 1568.2 825.355 1567.82 822.787 1569.53 C 819.395 1571.78 818.072 1575.52 814.062 1577.79 C 807.534 1574.38 803.48 1575.63 796.902 1578.69 C 792.284 1582.2 789.395 1570.82 786.665 1569.75 C 772.534 1564.22 775.185 1567.49 772.101 1552.61 C 771.207 1548.29 765.761 1546.24 761.138 1544.1 C 758.654 1540.05 762.563 1533.62 759.11 1527.9 C 756.92 1524.27 747.784 1517.85 746.25 1515.29 C 746.385 1511.23 746.54 1503.13 746.05 1499.58 C 744.829 1490.72 730.935 1492.86 735.409 1482.64 C 739.969 1472.22 734.333 1468.28 727.246 1462.57 C 724.565 1452.63 737.292 1451.08 721.212 1438.86 C 721.221 1428.91 737.897 1427.97 713.302 1409.43 C 711.846 1397.04 726.942 1399.51 706.279 1380.36 C 703.051 1371.45 716.327 1366.59 700.035 1351.35 C 703.084 1343.18 705.913 1335.09 699.419 1327.87 L 698.355 1326.7 C 691.716 1319.28 697.492 1317.06 697.658 1308.98 C 697.812 1301.45 692.465 1297.66 687.431 1292.84 C 687.109 1288.9 691.481 1284.18 691.73 1280.23 C 692.922 1261.31 677.686 1269.17 684.486 1250.09 C 682.111 1239.81 680.76 1240.38 675.146 1231.8 C 681.863 1214.44 680.294 1217.63 671.274 1202.53 C 686.982 1175.04 663.68 1183.6 670.728 1167.19 L 672.202 1162.28 z" fill="rgb(140,146,152)" transform="translate(0,0)"></path>
<path d="M 923.358 953.63 C 928.587 959.143 920.993 1070.02 930.498 1084.26 C 932.044 1086.57 934.022 1090.24 935.518 1092.68 C 932.656 1096.62 931.76 1100.37 931.004 1105.1 C 903.837 1132.64 879.198 1146.35 841.857 1156.59 C 774.087 1175.17 721.903 1144.49 664.967 1109.9 C 664.674 1105.55 660.652 1088.83 660.66 1088.76 C 664.476 1085.38 669.307 1080.25 673.014 1076.54 C 671.773 1059.61 672.723 1040.11 673.109 1023.01 C 673.602 1001.2 673.772 978.873 676.367 957.242 C 708.321 997.753 758.699 1052.12 813.887 1047.07 C 845.286 1044.2 881.244 1017.35 899.588 992.053 C 908.008 980.442 912.243 966.167 922.485 954.604 L 923.358 953.63 z" fill="rgb(241,201,168)" transform="translate(0,0)"></path>
<path d="M 666.27 1123.18 L 662.354 1116.82 L 662.815 1116.17 L 669.497 1121.5 C 674.098 1124.16 677.824 1128.5 682.978 1131.45 C 772.157 1182.5 848.626 1188.09 930.139 1118.12 C 934.266 1114.01 934.12 1116.97 931.369 1120.79 C 931.235 1121.01 931.102 1121.24 930.968 1121.46 C 925.905 1125.75 931.721 1143.6 931.476 1143.89 C 921.431 1156.01 877.71 1170.92 864.431 1175.07 C 825.775 1187.18 798.151 1187.32 758.983 1180.74 C 750.061 1179.24 740.305 1178.95 732.73 1174.68 C 727.49 1171.73 717.786 1171.79 712.154 1170.06 C 699.994 1166.33 683.71 1159.95 673.178 1153.29 L 670.472 1150.69 C 669.694 1149.96 665.543 1145.98 665.613 1145.48 C 667.172 1134.41 669.463 1134.5 666.27 1123.18 z" fill="rgb(140,146,152)" transform="translate(0,0)"></path>
<path d="M 930.139 1118.12 C 934.266 1114.01 934.12 1116.97 931.369 1120.79 L 930.139 1118.12 z" fill="rgb(241,201,168)" transform="translate(0,0)"></path>
<path d="M 822.187 1636 C 832.705 1636.64 842.86 1639.24 843.848 1652.22 C 843.997 1654.18 844.155 1657.31 843.165 1659.12 C 837.102 1670.24 830.552 1681.13 824.607 1692.32 C 818.753 1702.14 815.518 1711.96 810.383 1721.69 C 807.909 1726.23 809.357 1731.76 803.709 1732.11 C 795.22 1721.42 806.294 1663.33 806.125 1648.05 C 812.043 1640.78 813.787 1639.9 822.187 1636 z" fill="rgb(234,223,200)" transform="translate(0,0)"></path>
<path d="M 784.013 1636.88 C 787.767 1636.96 795.269 1642.72 799.181 1645.16 C 799.101 1665.82 794.58 1685.46 795.126 1706.16 C 795.236 1710.32 795.528 1729.2 794.046 1731.1 C 791.961 1729.7 791.439 1727.23 790.478 1724.75 C 780.67 1697.91 747.379 1651.8 784.013 1636.88 z" fill="rgb(234,223,200)" transform="translate(0,0)"></path>
<path d="M 853.952 1662.04 C 862.713 1664.42 864.001 1669.78 868.7 1677.99 C 867.988 1695.77 868.461 1694.57 848.61 1697.43 C 846.535 1699.1 838.762 1705.6 837.833 1707.44 C 834.277 1714.48 830.499 1718.62 824.518 1723.9 C 821 1726.42 817.993 1728.63 814.38 1731.08 C 818.504 1720.26 844.143 1665.31 851.816 1662.74 L 853.952 1662.04 z" fill="rgb(244,237,222)" transform="translate(0,0)"></path>
<path d="M 741.569 1673.91 C 742.718 1672.81 753.916 1662.28 756.046 1665.09 C 766.496 1678.84 768.801 1695.61 778.144 1710.86 L 776.469 1713.48 C 777.504 1714.74 757.667 1694.25 760.125 1695.84 C 746.035 1686.69 735.568 1702.39 741.569 1673.91 z" fill="rgb(244,237,222)" transform="translate(0,0)"></path>
<path d="M 801.44 1582.92 C 808.298 1583.58 812.203 1584.46 813.961 1591.95 C 816.087 1601 817.99 1607.79 805.986 1611.29 C 797.246 1611.15 787.895 1610.66 789.12 1597.01 C 789.652 1591.07 796.67 1586.09 801.44 1582.92 z" fill="rgb(47,95,175)" transform="translate(0,0)"></path>
<path d="M 863.274 1511.96 C 880.002 1511.8 885.646 1530.38 868.739 1539.23 C 846.065 1539.11 847.237 1522.76 863.274 1511.96 z" fill="rgb(47,95,175)" transform="translate(0,0)"></path>
<path d="M 908.074 1391.1 C 918.483 1392.95 921.482 1400.54 916.989 1410.47 C 914.383 1416.23 908.068 1416.92 902.464 1418.34 C 884.013 1411.46 889.351 1395.62 908.074 1391.1 z" fill="rgb(47,95,175)" transform="translate(0,0)"></path>
<path d="M 832.315 1573.08 C 850.862 1576.44 848.811 1593.34 833.763 1601.59 C 827.404 1601.01 823.553 1600.96 820.772 1594.03 C 819.187 1589.99 819.296 1585.48 821.074 1581.51 C 823.493 1576.19 827.151 1574.77 832.315 1573.08 z" fill="rgb(234,223,200)" transform="translate(0,0)"></path>
<path d="M 850.156 1543.84 C 870.327 1544.06 871.482 1561.73 855.702 1571.83 C 839.596 1570 834.9 1554.35 847.366 1545.74 L 850.156 1543.84 z" fill="rgb(47,95,175)" transform="translate(0,0)"></path>
<path d="M 925.569 1265.18 C 931.058 1265.25 937.952 1265.03 940.548 1270.67 C 944.865 1280.04 940.593 1287.38 932.204 1291.27 C 918.37 1290.15 913.98 1286.84 917.611 1272.77 C 918.669 1268.67 922.004 1266.83 925.569 1265.18 z" fill="rgb(244,237,222)" transform="translate(0,0)"></path>
<path d="M 673.494 1298.43 C 677.903 1296.95 682.766 1297.99 686.186 1301.14 C 689.605 1304.29 691.038 1309.06 689.924 1313.57 C 688.811 1318.09 685.327 1321.63 680.835 1322.83 C 674.183 1324.61 667.324 1320.78 665.341 1314.19 C 663.358 1307.6 666.967 1300.62 673.494 1298.43 z" fill="rgb(47,95,175)" transform="translate(0,0)"></path>
<path d="M 724.013 1494.66 C 730.592 1492.27 737.862 1495.66 740.272 1502.23 C 742.683 1508.8 739.325 1516.08 732.763 1518.51 C 726.168 1520.96 718.842 1517.58 716.42 1510.98 C 713.998 1504.37 717.401 1497.06 724.013 1494.66 z" fill="rgb(234,223,200)" transform="translate(0,0)"></path>
<path d="M 670.223 1266.55 C 676.938 1265 683.662 1269.09 685.37 1275.77 C 687.078 1282.44 683.146 1289.26 676.512 1291.13 C 672.079 1292.37 667.319 1291.12 664.074 1287.85 C 660.829 1284.59 659.608 1279.82 660.885 1275.39 C 662.163 1270.97 665.736 1267.58 670.223 1266.55 z" fill="rgb(47,95,175)" transform="translate(0,0)"></path>
<path d="M 684.33 1357.28 C 685.359 1357.23 693.11 1356.72 693.538 1356.87 C 707.115 1361.66 702.105 1375.12 694.527 1381.13 C 688.857 1381.55 681.567 1381.99 678.817 1376.01 C 674.619 1366.89 676.015 1361.6 684.33 1357.28 z" fill="rgb(244,237,222)" transform="translate(0,0)"></path>
<path d="M 889.691 1424.96 C 907.645 1424.33 918.579 1436.13 902.878 1449.07 C 888.263 1448.08 874.571 1437.69 889.691 1424.96 z" fill="rgb(234,223,200)" transform="translate(0,0)"></path>
<path d="M 751.855 1550.93 C 761.2 1551.25 767.866 1553.39 767.818 1564.52 C 767.798 1569.14 762.092 1573.35 758.829 1576.09 C 739.056 1579.56 742.279 1562.3 751.855 1550.93 z" fill="rgb(47,95,175)" transform="translate(0,0)"></path>
<path d="M 649.727 1149.18 C 654.655 1149.53 662.506 1149.63 664.319 1155.37 C 667.482 1165.38 665.387 1168.98 655.823 1171.96 C 636.763 1171.82 635.308 1154.31 649.727 1149.18 z" fill="rgb(234,223,200)" transform="translate(0,0)"></path>
<path d="M 739.99 1523.77 C 746.316 1522.6 752.449 1526.59 753.937 1532.85 C 755.426 1539.11 751.748 1545.43 745.573 1547.24 C 741.29 1548.49 736.666 1547.28 733.547 1544.09 C 730.428 1540.9 729.322 1536.25 730.671 1531.99 C 732.019 1527.74 735.602 1524.58 739.99 1523.77 z" fill="rgb(47,95,175)" transform="translate(0,0)"></path>
<path d="M 940.785 1041.96 C 956.371 1043.37 962.627 1054.8 949.348 1066.11 C 937.463 1068.99 933.32 1064.43 933.215 1051.48 C 933.18 1047.24 937.747 1044.29 940.785 1041.96 z" fill="rgb(234,223,200)" transform="translate(0,0)"></path>
<path d="M 936.283 1178.07 C 945.958 1178.49 953.227 1179.77 953.901 1192.02 C 954.115 1195.91 952.038 1199.2 949.133 1201.71 L 947.965 1202.76 C 931.503 1203.55 925.332 1189.58 936.283 1178.07 z" fill="rgb(75,71,73)" transform="translate(0,0)"></path>
<path d="M 942.859 1149.05 C 963.027 1149.65 960.613 1170.31 949.831 1172.49 C 944.344 1171.35 938.273 1171.17 934.727 1166.21 C 929.466 1158.86 936.74 1152.7 942.859 1149.05 z" fill="rgb(234,223,200)" transform="translate(0,0)"></path>
<path d="M 682.163 1328.05 C 700.559 1326.79 699.487 1344.75 690.034 1349.24 L 686.904 1350.69 C 668.739 1352.18 669.546 1336.58 682.163 1328.05 z" fill="rgb(47,95,175)" transform="translate(0,0)"></path>
<path d="M 775.381 1571.9 C 790.62 1575.63 789.381 1592.78 775.155 1597.46 C 758.016 1591.05 760.131 1578.86 775.381 1571.9 z" fill="rgb(47,95,175)" transform="translate(0,0)"></path>
<path d="M 703.39 1415.57 C 709.462 1413.75 715.868 1417.14 717.792 1423.18 C 719.716 1429.21 716.45 1435.68 710.448 1437.71 C 706.468 1439.06 702.069 1438.16 698.944 1435.35 C 695.819 1432.54 694.455 1428.26 695.377 1424.16 C 696.299 1420.06 699.363 1416.77 703.39 1415.57 z" fill="rgb(75,71,73)" transform="translate(0,0)"></path>
<path d="M 792.669 1617.93 C 802.595 1618.12 828.854 1614.93 811.722 1633.51 C 807.046 1636.51 802.667 1638.7 797.01 1635.86 C 793.661 1634.14 791.18 1631.1 790.161 1627.47 C 788.956 1623.33 790.464 1621.29 792.669 1617.93 z" fill="rgb(47,95,175)" transform="translate(0,0)"></path>
<path d="M 694.601 1387.52 C 698.442 1386.06 702.775 1386.77 705.946 1389.39 C 709.116 1392 710.637 1396.12 709.927 1400.17 C 709.218 1404.22 706.387 1407.58 702.515 1408.96 C 696.617 1411.07 690.123 1408.03 687.954 1402.16 C 685.785 1396.28 688.75 1389.76 694.601 1387.52 z" fill="rgb(234,223,200)" transform="translate(0,0)"></path>
<path d="M 647.779 1120.86 C 662.202 1120.36 667.605 1135.94 654.423 1143.49 C 635.908 1141.01 633.36 1132.4 647.779 1120.86 z" fill="rgb(47,95,175)" transform="translate(0,0)"></path>
<path d="M 443.065 1230.66 C 446.201 1232.75 448.261 1234.58 451.033 1237.13 C 453.303 1244.91 453.799 1247.21 456.937 1255.05 C 455.579 1261.68 456.209 1261.4 453.354 1267.9 C 452.843 1268.33 445.664 1273.92 445.31 1271.46 C 443.488 1258.8 443.072 1243.5 443.065 1230.66 z" fill="rgb(241,201,168)" transform="translate(0,0)"></path>
<path d="M 653.308 1041.86 C 672.172 1044.49 665.108 1065.88 660.629 1063.82 C 655.797 1062.44 651.072 1061.3 646.196 1060.1 C 644.943 1049.45 642.517 1046.57 653.308 1041.86 z" fill="rgb(244,237,222)" transform="translate(0,0)"></path>
<path d="M 627.961 1109.42 C 630.286 1111.48 635.166 1115.74 637.357 1117.47 C 638.858 1118.66 633.554 1126.61 626.994 1110.27 L 627.961 1109.42 z" fill="rgb(140,146,152)" transform="translate(0,0)"></path>
<path d="M 778.144 1710.86 C 782.166 1716.99 782.939 1720.7 776.469 1713.48 L 778.144 1710.86 z" fill="rgb(234,223,200)" transform="translate(0,0)"></path>
<metadata><recraft-signature>{"signed_by": "recraft", "signature_b64": "58M4FjRc7nktybvUkXkOpP+xjsOC3Ww49+WGhfGgvpq+kXj/cUMT7bJ0ji4vEOJ80msuKiC9zX2NueR8bKfTAg==", "signing_algo": "Ed25519", "generation_timestamp": 1782906807, "identifier": "3cc38f88-0b3f-42f8-bfd7-c9b66983fcfd"}</recraft-signature></metadata></svg>