<svg xmlns="http://www.w3.org/2000/svg" height="1792" preserveAspectRatio="none" style="display: block;" version="1.1" viewBox="0 0 2432 1792" width="2432">
<path d="M 0 0 L 2173.3 0 L 2191.31 0 L 2299.53 0 L 2314.67 0 L 2432 0 L 2432 1145.11 L 2432 1158.76 L 2432 1284.26 L 2432 1303.97 L 2432 1792 L 201.036 1792 L 188.629 1792 L 0 1792 L 0 0 z" fill="rgb(244,237,222)" transform="translate(0,0)"></path>
<path d="M 2173.3 0 L 2191.31 0 L 2299.53 0 L 2314.67 0 C 2288.81 35.9607 2262.67 71.7167 2236.25 107.265 C 2223.27 124.912 2206.13 149.786 2192.57 166.265 L 2262.06 166.156 C 2269.55 166.134 2291.17 164.142 2295.8 168.6 C 2297.57 172.469 2296.56 179.33 2292.15 179.535 C 2256.02 181.219 2219.42 179.46 2183.15 179.701 C 2180.11 183.971 2176.58 188.721 2173.78 193.088 L 2174.07 319.448 C 2212.54 320.789 2252.19 319.307 2290.69 318.415 C 2292.98 318.362 2294.85 319.307 2296.62 320.594 C 2298.77 324.401 2298.1 331.409 2293.54 331.993 C 2255.73 336.827 2211.65 330.312 2174.21 333.896 L 2174.9 457.656 C 2193.14 457.493 2289.82 455.511 2299.39 464.182 C 2301.49 466.081 2301.46 467.354 2301.39 470.023 C 2300.32 471.619 2299.17 474.048 2296.92 474.059 C 2281.78 474.133 2266.41 472.287 2251.22 471.871 C 2225.49 471.169 2199.74 471.2 2174.01 471.964 C 2172.95 514.429 2173.25 556.89 2172.05 599.404 C 2191.57 599.595 2287 598.094 2298.65 602.67 C 2301.23 605.638 2300.56 603.985 2300.97 607.698 C 2296.1 615.86 2267.27 612.229 2257.49 612.252 C 2228.92 612.594 2200.35 612.748 2171.78 612.714 C 2170.65 652.314 2169.77 691.92 2169.14 731.53 C 2187.39 731.519 2267.62 728.332 2277.39 737.219 C 2278.97 738.663 2278.85 739.495 2279.13 741.52 C 2278.06 744.118 2277.35 745.833 2274.55 746.838 C 2268.75 748.916 2182.66 747.417 2168.72 747.157 C 2167.51 765.89 2167.41 867.592 2163.32 877.6 C 2159.83 879.54 2161.7 878.977 2157.37 878.906 C 2150.07 874.344 2153.62 860.041 2153.4 851.869 C 2152.47 817.102 2155.24 781.959 2154.99 747.249 C 2110.42 747.235 2065.86 747.481 2021.3 747.986 C 2020.23 776.804 2019.37 805.628 2018.72 834.458 C 2018.57 845.546 2019.37 856.376 2019.59 867.427 C 2019.69 872.281 2018.72 878.086 2013.15 878.475 C 2001.74 871.792 2008.06 766.072 2008.59 748.088 L 1887.75 749.494 C 1885.8 777.844 1885.45 806.429 1884.43 834.823 C 1884.17 842.258 1886.64 864.264 1883.98 868.396 C 1880.57 870.344 1882.37 869.959 1878.34 869.413 C 1875.07 866.923 1874.77 866.579 1874.21 861.997 C 1872.03 844.315 1872.89 826.155 1873.37 808.384 L 1875.06 749.361 C 1858.43 749.895 1841.79 750.153 1825.15 750.135 C 1832.22 787.281 1826.82 824.41 1827.05 862.785 L 1828.18 1111.15 C 1828.27 1149.59 1829.82 1188.32 1829.51 1226.73 C 1828.95 1296.16 1835.54 1365.36 1831.77 1434.69 C 1830.09 1459.91 1827.61 1485.68 1830.98 1511.04 C 1835.47 1544.81 1835.19 1583.72 1807.59 1608.27 C 1782.04 1630.34 1736.09 1626.23 1704.1 1626.47 C 1667.1 1627.09 1630.1 1627.18 1593.1 1626.75 C 1554.67 1626.61 1515.92 1628.63 1477.38 1627.58 C 1463.04 1627.19 1448.42 1628.31 1433.94 1627.88 C 1391.97 1629.77 1339.09 1637.12 1306.75 1604.81 C 1298.32 1596.39 1287.02 1581.01 1284.33 1569.19 C 1276.7 1535.6 1278.09 1498.29 1278.09 1463.88 L 1278.08 1359.33 C 1210.27 1359.14 1141.98 1354.59 1073.12 1354.92 C 1004.55 1355.24 932.154 1359.03 864.313 1357.32 C 823.853 1356.38 783.4 1355.12 742.959 1353.55 C 632.086 1348.39 521.564 1341.5 410.53 1348.83 C 364.171 1351.89 318.357 1354.73 271.913 1355.32 C 213.679 1356.06 216.93 1311.29 218.71 1267.21 C 189.293 1266.57 153.712 1247.18 153.849 1215.84 C 154.143 1148.86 157.532 1080.67 156.221 1013.67 C 154.451 945.137 153.587 876.586 153.63 808.033 L 154.786 588.414 C 154.74 543.528 154.388 498.599 154.421 453.659 C 154.445 420.175 153.185 386.009 153.949 352.449 C 154.3 337.024 159.554 325.074 170.967 314.55 C 193.49 293.783 223.973 296.446 252.673 297.931 L 1045.08 293.943 C 1087.92 294.649 1144.55 295.602 1186.57 293.451 C 1226.87 291.239 1267.18 289.333 1307.51 287.734 C 1361.18 285.496 1431.72 275.175 1437.28 349.173 C 1449.21 348.799 1463.63 346.785 1472.45 355.771 C 1477.37 360.791 1483.71 373.881 1484.39 380.61 C 1487.39 410.384 1485.45 442.998 1486.01 472.989 C 1487.26 539.465 1487.78 606.813 1486.99 673.244 C 1507.18 673.227 1527.55 674.117 1547.73 673.835 C 1567.07 673.564 1586.81 672.206 1606.16 671.017 C 1604.57 655.593 1605.82 636.607 1606.41 620.781 C 1593.18 620.969 1555.89 625.691 1546.62 621.251 C 1544.65 618.126 1544.8 619.658 1545.48 616.604 C 1552.72 609.214 1595.42 608.591 1607.85 607.731 C 1608.75 564.363 1611.12 518.976 1613.07 475.558 C 1593.87 475.473 1551.67 476.016 1530.99 474.074 C 1530.18 473.421 1529.36 472.768 1528.54 472.115 C 1527.26 468.12 1527.24 470.021 1528.22 466.218 C 1528.87 465.639 1529.51 465.06 1530.16 464.481 C 1553.07 462.688 1592.66 464.071 1613.86 464.666 C 1614.09 447.74 1615.77 427.156 1616.8 409.959 C 1618.34 382.952 1620.13 355.96 1622.18 328.987 C 1608.61 329.811 1559.6 334.384 1551.54 327.88 L 1551.32 325.787 L 1553.17 323.643 C 1561.72 320.025 1609.86 318.527 1622.47 317.859 C 1624.52 273.91 1627.18 229.991 1630.44 186.114 C 1610.38 186.889 1590.33 187.767 1570.28 188.885 C 1564.14 189.228 1553.38 191.063 1549.85 185.147 L 1550.89 183.278 C 1561.03 176.707 1615.19 176.042 1631.08 175.251 C 1635.6 139.996 1636.64 103.301 1639.77 67.8556 C 1639.99 65.4242 1641.31 63.4939 1642.88 61.7751 C 1646.44 60.7184 1644.67 60.7299 1648.37 62.0072 C 1653.34 69.2089 1645.97 159.529 1644.89 175.029 C 1685.58 173.042 1726.27 171.314 1766.98 169.845 L 1766.46 92.6545 C 1766.37 83.1499 1762.69 62.5699 1770.49 57.1839 C 1776.38 56.6174 1778.97 58.6513 1779.05 64.6341 C 1779.52 99.5315 1780.59 134.57 1781.3 169.455 C 1812.48 168.898 1859.54 168.616 1889.96 166.147 C 1890.08 143.251 1890.22 120.327 1890.13 97.4359 C 1890.11 90.1312 1887.94 64.9082 1888.83 60.6035 C 1890.27 58.7507 1891.47 57.17 1894.05 56.9498 C 1895.24 56.8481 1896.9 57.0091 1897.83 57.8577 C 1905.56 64.9397 1903.73 151.008 1904.24 166.316 C 1940.71 165.987 1977.19 165.884 2013.66 166.005 C 2013.73 153.477 2011.65 66.8584 2012.77 63.6898 C 2013.66 61.153 2014.57 60.5209 2016.92 59.4097 C 2020.6 60.1185 2019.16 59.2692 2021.62 61.5773 C 2023.29 67.9214 2023.91 80.3072 2024.5 87.187 C 2026.75 113.501 2026.96 140.096 2027.23 166.509 L 2045.85 166.109 C 2089.33 110.624 2128.93 55.3929 2173.3 0 z" fill="rgb(34,30,26)" transform="translate(0,0)"></path>
<path d="M 218.71 1267.21 C 265.317 1269.01 308.252 1266.9 354.727 1266.38 L 666.835 1261.14 C 744.243 1260.31 822.445 1263.53 899.801 1265.94 C 1025.78 1269.87 1151.34 1263.06 1277.36 1262.13 C 1277.07 1294.83 1278.23 1327.12 1278.08 1359.33 C 1210.27 1359.14 1141.98 1354.59 1073.12 1354.92 C 1004.55 1355.24 932.154 1359.03 864.313 1357.32 C 823.853 1356.38 783.4 1355.12 742.959 1353.55 C 632.086 1348.39 521.564 1341.5 410.53 1348.83 C 364.171 1351.89 318.357 1354.73 271.913 1355.32 C 213.679 1356.06 216.93 1311.29 218.71 1267.21 z" fill="rgb(47,95,175)" transform="translate(0,0)"></path>
<path d="M 1437.28 349.173 C 1449.21 348.799 1463.63 346.785 1472.45 355.771 C 1477.37 360.791 1483.71 373.881 1484.39 380.61 C 1487.39 410.384 1485.45 442.998 1486.01 472.989 C 1487.26 539.465 1487.78 606.813 1486.99 673.244 L 1436.55 673.707 L 1437.28 349.173 z" fill="rgb(47,95,175)" transform="translate(0,0)"></path>
<path d="M 1055.21 410.445 C 1121.23 408.941 1187.29 409.455 1253.29 411.988 C 1303.25 414.383 1373.83 420.828 1422.05 416.852 L 1423.24 673.171 C 1401.37 673.151 1381.99 672.593 1360.29 676.039 C 1357.45 665.521 1355.67 658.803 1348.18 650.426 C 1344.66 646.485 1334.15 639.582 1329.38 638.985 C 1303.04 635.687 1274.17 638.542 1247.66 638.152 C 1230.51 637.899 1214.07 636.075 1197.21 635.565 C 1175.68 635.098 1154.14 635.108 1132.61 635.595 C 1071.14 636.636 1053.91 644.067 1052.62 709.863 C 1051.24 734.796 1054.34 758.857 1056.12 783.634 C 1057.98 809.5 1048.57 851.951 1085.99 856.676 C 1119.73 860.936 1155.53 858.529 1189.69 858.851 C 1218.34 859.121 1247.32 860.186 1276.07 859.86 L 1276.09 879.859 C 1227.4 880.857 1178.67 878.775 1129.99 880.075 C 1115.48 880.462 1097.49 879.274 1083.38 881.57 C 1050.43 886.835 1043.76 924.717 1081.26 928.995 C 1102.33 931.399 1126.34 930.175 1147.71 930.216 L 1276.27 930.29 L 1276.06 950.774 C 1231.36 951.256 1186.65 951.38 1141.95 951.148 C 1129.87 951.074 1117.86 951.006 1105.71 950.768 C 1092.17 950.503 1077.17 947.715 1064.92 955.356 C 1060.65 958.02 1058.29 960.185 1057.18 965.118 C 1060.05 981.555 1125.78 978.403 1140.06 978.661 C 1185.58 979.368 1231.11 979.613 1276.64 979.397 L 1276.6 993.139 C 1211.01 993.045 1144.19 992.666 1078.78 997.399 C 1060.19 998.744 1042.16 1022.06 1061.22 1037.76 C 1066.48 1042.09 1071.18 1044.53 1078.12 1045.62 C 1099.55 1048.32 1121.6 1047.23 1143.18 1047.12 L 1228.31 1047.1 C 1245.1 1047.05 1260.66 1046.37 1277.59 1046.77 C 1276.91 1057.62 1277.21 1071.4 1277.19 1082.5 L 1277.38 1247.58 C 1177.55 1245.09 1078.36 1251.74 978.744 1251.1 C 865.514 1250.37 753.645 1243.5 640.236 1245.74 L 355.663 1249.48 C 306.476 1249.84 256.874 1252.82 207.758 1249.33 C 196.404 1248.53 189.072 1245.95 180.567 1238.38 C 166.853 1226.29 169.155 1211.49 169.43 1195.35 C 170.331 1142.45 172.349 1088.79 171.834 1035.94 L 169.33 888.105 C 167.507 732.475 172.881 576.753 169.322 421.16 C 191.55 420.478 214.536 424.309 238.377 423.975 C 273.244 423.486 308.138 422.423 342.938 422.046 C 387.374 421.591 431.815 421.939 476.239 423.09 C 547.022 424.53 615.57 429.831 687.507 429.57 C 811.858 429.119 931.049 414.866 1055.21 410.445 z" fill="rgb(244,237,222)" transform="translate(0,0)"></path>
<path d="M 295.778 867.463 C 377.349 865.032 466.373 871.226 548.376 872.691 C 581.188 873.102 614.003 873.178 646.816 872.918 C 672 872.789 697.145 873.109 722.343 874.543 C 743.299 875.607 754.998 896.478 755.194 915.579 C 755.798 938.753 755.006 965.8 756.234 988.544 C 758.345 1027.63 740.787 1046.5 701.45 1046.04 C 695.819 1045.97 686.361 1046.67 680.25 1046.9 C 625.3 1048.9 570.311 1049.64 515.326 1049.13 C 467.342 1048.51 419.469 1045.9 371.355 1045.75 C 333.291 1044.97 293.976 1049.38 256.08 1047.83 C 230.196 1046.77 221.602 1025.03 221.71 1002.8 C 221.874 969.335 217.641 934.159 223.066 901.021 C 224.173 894.259 229.401 884.983 233.993 880.068 C 246.965 866.017 277.21 867.887 295.778 867.463 z" fill="rgb(34,30,26)" transform="translate(0,0)"></path>
<path d="M 915.642 634.5 C 937.677 633.35 988.325 631.889 1006.85 646.572 C 1026.32 662.009 1019.89 700.969 1019.72 725.748 C 1019.49 760.059 1028.32 819.884 1008.83 849.69 C 999.574 863.844 949.857 859.874 933.901 860.003 C 918.179 860.224 902.46 860.67 886.75 861.34 C 866.061 862.081 818.718 864.584 803.682 850.839 C 781.55 830.608 787.108 792.121 786.157 764.839 C 785.83 752.543 783.922 740.294 783.541 728.003 C 780.234 621.315 834.798 636.581 915.642 634.5 z" fill="rgb(34,30,26)" transform="translate(0,0)"></path>
<path d="M 912.586 648.545 C 930.633 647.98 983.452 646.679 995.965 656.87 C 1001.01 660.978 1004.26 666.888 1005.02 673.35 C 1006.91 689.101 1004.89 706.774 1005.09 722.75 C 1005.37 744.646 1012.17 825.129 998.505 839.521 C 994.456 843.786 983.566 844.849 977.862 845.394 C 966.541 846.476 954.793 845.82 943.408 845.788 C 926.681 845.664 909.955 846.035 893.25 846.902 C 868.122 848.034 842.327 848.739 817.39 844.547 C 815.925 843.385 814.501 842.173 813.121 840.911 C 793.921 823.112 801.138 793.655 799.87 769.579 C 799.738 756.054 797.089 741.287 797.176 727.896 C 797.334 703.639 797.991 655.641 829.983 651.391 C 856.372 647.886 885.817 649.059 912.586 648.545 z" fill="rgb(244,237,222)" transform="translate(0,0)"></path>
<path d="M 741.826 501.507 C 816.627 501.26 891.427 501.862 966.214 503.312 C 1022.22 504.573 1089.19 508.115 1144.75 505.395 C 1154.59 510.136 1163 517.182 1163.51 529.007 C 1163.79 535.278 1161.44 541.381 1157.02 545.839 C 1145.07 557.985 1123.03 555.632 1107.33 555.653 C 1093.05 555.648 1078.77 555.849 1064.49 556.255 L 846.25 560.75 C 752.683 562.289 659.096 562.218 565.531 560.538 L 490.062 559.668 C 475.918 559.491 462.227 559.397 448.003 558.471 C 415.808 558.113 414.158 506.91 445.004 506.121 C 469.024 505.506 494.489 505.731 518.656 505.053 C 593.024 502.726 667.422 501.544 741.826 501.507 z" fill="rgb(34,30,26)" transform="translate(0,0)"></path>
<path d="M 863.999 875.567 C 872.964 875.05 881.943 874.833 890.922 874.916 C 902.38 874.981 917.142 875.306 928.876 875.713 C 948.631 876.398 989.422 873.072 1003.83 887.72 C 1020.18 905.552 1018.43 936.58 1019.17 959.512 C 1019.9 982.052 1026.45 1024.04 1008.56 1040.29 C 993.239 1054.2 961.866 1051.13 942.412 1050.57 C 923.628 1050.38 904.842 1050.31 886.057 1050.34 C 786.969 1051.08 783.179 1053.38 785.872 946.571 C 787.724 873.092 792.611 879.5 863.999 875.567 z" fill="rgb(34,30,26)" transform="translate(0,0)"></path>
<path d="M 854.418 890.554 C 858.974 890.31 863.533 890.128 868.094 890.01 C 895.846 889.259 925.22 890.893 952.398 890.709 C 996.232 890.413 1002.97 895.921 1005.46 940.134 C 1007 955.866 1006.34 972.447 1007.01 988.033 C 1009.13 1036.81 995.211 1038.08 950.22 1036.41 C 909.669 1035.78 869.388 1037.09 828.904 1037.21 C 823.006 1036.71 812.581 1035.25 808.133 1031.3 C 791.099 1016.15 799.008 975.054 798.546 954.164 C 799.689 936.492 796.13 911.05 807.75 896.395 C 813.97 888.55 844.212 890.905 854.418 890.554 z" fill="rgb(244,237,222)" transform="translate(0,0)"></path>
<path d="M 382.709 635.509 C 460.473 635.203 538.239 635.32 616.002 635.86 C 641.961 635.974 667.918 636.403 693.867 637.147 C 706.049 637.432 720.875 636.977 732.401 638.556 C 761.525 643.111 767.081 675.762 740.871 689.619 C 721.603 699.806 697.794 697.017 676.337 697.068 L 588.75 697.364 L 370.505 697.378 C 330.886 697.748 291.342 700.05 251.8 698.343 C 234.264 697.585 217.996 690.326 218.208 670.423 C 218.633 630.635 280.567 636.196 305.596 636.117 C 331.301 636.161 357.007 635.958 382.709 635.509 z" fill="rgb(34,30,26)" transform="translate(0,0)"></path>
<path d="M 422.975 649.486 C 490.581 649.09 558.188 649.258 625.791 649.991 C 650.096 650.077 674.4 650.447 698.697 651.101 C 706.288 651.292 723.299 650.562 729.739 652.104 C 757.274 658.697 740.162 680.516 721.391 682.083 C 704.282 683.511 687.209 682.867 670.391 683.029 C 630.445 683.489 590.496 683.737 550.546 683.772 C 476.229 683.38 401.909 683.423 327.592 683.901 C 310.238 683.999 247.306 690.19 236.801 682.352 C 233.271 679.713 231.063 675.67 230.749 671.273 C 230.396 666.746 232.054 662.293 235.281 659.098 C 248.862 645.742 291.521 650.081 310.654 650.107 L 422.975 649.486 z" fill="rgb(47,95,175)" transform="translate(0,0)"></path>
<path d="M 716.217 1083.55 C 750.978 1081.26 796.927 1086.89 832.783 1086.94 C 852.764 1086.96 872.383 1085.55 892.996 1085.27 C 915.162 1084.47 945.277 1087.81 962.147 1103.65 C 978.872 1119.35 970.415 1159.76 954.876 1173.91 C 941.211 1186.35 917.169 1182.68 900.263 1181.93 C 841.928 1183.87 781.982 1180.6 723.44 1182.91 C 706.921 1183.56 672.903 1183.4 660.399 1173.03 C 642.065 1157.83 638.076 1117.77 653.975 1099.54 C 667.841 1083.64 697.145 1084.54 716.217 1083.55 z" fill="rgb(34,30,26)" transform="translate(0,0)"></path>
<path d="M 706.589 1098.42 C 744.979 1096.91 784.353 1100.73 822.873 1101.11 C 849.292 1101.36 875.515 1099.91 902.097 1099.95 C 917.185 1099.85 939.395 1104.06 950.594 1114.5 C 961.465 1124.63 953.884 1154.72 944.04 1163.75 C 936.053 1171.08 918.991 1168.58 908.751 1167.99 C 863.538 1166.49 818.29 1166.43 773.074 1167.79 C 749.474 1168.29 693.351 1172.75 671.065 1162.87 C 659.111 1157.57 654.11 1119.72 664.938 1109.37 C 676.362 1098.46 691.153 1099.38 706.589 1098.42 z" fill="rgb(47,95,175)" transform="translate(0,0)"></path>
<path d="M 930.187 578.491 L 1154.4 579.084 L 1221.66 579.53 C 1233.81 579.578 1244.14 579.455 1257.99 579.872 C 1266.82 580.137 1285.39 586.442 1276.76 600.98 C 1275.07 603.827 1262.38 604.118 1257.72 604.506 C 1229.19 606.879 1200.16 605.585 1171.5 605.29 C 1135.43 604.94 1099.35 604.89 1063.28 605.141 C 923.458 606.429 786.214 608.901 646.182 606.076 C 608.005 606.002 569.753 605.049 531.594 605.331 C 498.793 605.573 308.185 613.272 293.715 600.867 C 292.095 599.479 291.785 598.574 291.766 596.439 C 291.747 594.28 292.967 591.734 294.435 590.202 C 298.121 586.353 304.297 585.354 309.368 584.967 C 316.804 584.401 324.438 584.94 331.908 584.835 L 383.002 584.095 C 434.38 583.406 485.762 583.028 537.145 582.962 L 930.187 578.491 z" fill="rgb(34,30,26)" transform="translate(0,0)"></path>
<path d="M 281.874 764.415 C 361.149 762.049 441.772 765.837 521.452 765.103 C 589.395 765.34 657.332 762.485 725.273 764.597 C 731.857 764.802 737.697 765.597 743.681 767.778 C 749.202 769.791 752.143 777.306 747.674 781.202 C 736.022 791.358 707.756 790.307 694.25 790.828 C 611.363 793.276 528.485 791.875 445.312 792.196 C 381.369 792.443 314.947 794.085 250.927 791.45 C 241.268 791.052 228.655 790.609 225.109 780.049 C 227.344 764.532 269.217 764.97 281.874 764.415 z" fill="rgb(34,30,26)" transform="translate(0,0)"></path>
<path d="M 295.582 809.445 C 366.743 806.308 438.557 813.148 509.607 813.843 C 536.544 814.106 566.528 811.154 593.81 809.914 C 623.565 808.701 653.353 808.494 683.122 809.292 C 694.549 809.559 743.086 809.402 749.282 817.961 C 750.422 833.23 723.326 832.815 713.382 832.867 C 702.526 832.924 691.566 833.347 680.699 833.55 C 586.682 835.44 491.019 833.457 396.866 833.6 C 358.865 833.657 321.41 835.587 283.33 834.666 C 269.064 834.321 237.584 832.671 223.835 827.721 C 221.385 826.839 221.031 824.752 220.597 822.776 C 223.413 814.789 233.051 812.85 240.565 812.239 C 258.881 810.748 277.219 810.139 295.582 809.445 z" fill="rgb(34,30,26)" transform="translate(0,0)"></path>
<path d="M 488.224 723.513 C 547.235 723.203 606.246 723.738 665.241 725.118 C 687.621 725.679 710.011 725.744 732.353 726.523 C 739.125 726.759 751.833 728.452 752.515 736.494 C 751.824 737.944 751.192 739.417 750.027 740.561 C 736.552 753.795 529.744 746.814 495.25 746.278 L 319.06 744.403 C 293.766 743.916 268.377 743.742 243.117 742.475 C 236.867 742.162 225.253 740.084 222.808 733.796 C 223.536 730.436 227.108 726.906 230.634 726.914 C 316.529 727.086 402.33 723.662 488.224 723.513 z" fill="rgb(34,30,26)" transform="translate(0,0)"></path>
<path d="M 1708.56 720.418 C 1740.93 719.137 1777.21 718.215 1774.59 761.831 C 1772.47 797.142 1772.6 831.521 1773.41 866.895 C 1774.41 900.712 1775.21 934.534 1775.8 968.361 L 1776.2 1108.17 C 1776.58 1140.8 1778.39 1173.46 1778.76 1206 C 1779.26 1269.14 1778.84 1332.28 1777.49 1395.4 C 1776.77 1440.8 1785.23 1486.13 1779.49 1531.26 C 1776.04 1558.39 1764.25 1568.76 1737.22 1570.62 C 1706.19 1572.75 1674.89 1571.56 1643.77 1571.79 C 1565.39 1571.43 1487.19 1578.36 1408.81 1579.18 C 1392.67 1579.35 1379.52 1579.72 1363.57 1576.65 C 1327.54 1564.36 1334.5 1526.53 1337.14 1497.14 C 1340.03 1464.86 1332.66 1431.78 1332.2 1399.82 C 1331.25 1333.93 1333.08 1267.95 1332.74 1202.03 L 1330.07 795.487 C 1329.89 780.878 1328.44 747.69 1339.48 738.031 C 1342.52 734.723 1351.06 729.384 1355.69 729.531 C 1392.19 730.689 1428.51 731.196 1465.05 730.87 C 1470.03 757.453 1474.09 768.193 1504.46 770.297 C 1530.35 772.09 1557.02 770.391 1582.78 770.901 C 1618.54 771.609 1637.17 768.091 1639.17 727.118 C 1661.26 724.816 1686.77 722.015 1708.56 720.418 z" fill="rgb(244,237,222)" transform="translate(0,0)"></path>
<path d="M 1479.39 915.521 C 1535.34 914.965 1591.29 915.325 1647.22 916.601 C 1661.34 917.008 1682.31 916.344 1695.73 918.016 C 1731.25 922.441 1731.6 982.185 1731.09 1008.32 C 1731.29 1030.56 1732.99 1078.53 1701.48 1081.55 C 1676.89 1083.9 1644.93 1081.59 1619.5 1081.05 C 1582.7 1080.28 1545.89 1080.42 1509.09 1081.49 C 1478.49 1082.41 1447.61 1084.82 1417.09 1082.56 C 1395.16 1080.93 1371.29 1076.17 1371.13 1048.93 C 1371.03 1032 1370.39 1014.35 1370.88 997.488 C 1371.3 983.093 1369.47 962.399 1372.22 948.732 C 1373.49 942.499 1376.42 936.724 1380.7 932.017 C 1394.37 917.238 1458.43 916.03 1479.39 915.521 z" fill="rgb(34,30,26)" transform="translate(0,0)"></path>
<path d="M 1669.78 1240.46 C 1722.64 1238.7 1733.1 1250.02 1735.28 1303.9 C 1736.02 1322.33 1737.64 1365.92 1725.83 1380.68 C 1712.57 1397.25 1677.59 1395.03 1657.02 1394.95 C 1585.6 1394.65 1516.22 1391.77 1444.65 1395.91 C 1388.52 1397.1 1376.53 1396.78 1374.4 1332.39 C 1373.67 1310.41 1373.86 1287.49 1375.94 1265.56 C 1376.3 1261.79 1379.06 1256.66 1381.71 1253.97 C 1385.58 1250.04 1390.58 1247.42 1396.01 1246.48 C 1428.25 1240.86 1471.18 1245.86 1504.62 1244.24 C 1559.55 1241.57 1614.87 1241.88 1669.78 1240.46 z" fill="rgb(34,30,26)" transform="translate(0,0)"></path>
<path d="M 1656.06 1254.5 C 1669.66 1254.14 1705.74 1250.19 1712.92 1263.18 C 1726.96 1288.59 1722.14 1341.67 1718.38 1368.88 C 1714.65 1372.46 1706.87 1378.13 1701.67 1378.34 C 1618.33 1381.7 1535.99 1376.18 1452.5 1381.18 C 1435.6 1382.78 1418.65 1383.76 1401.68 1384.12 C 1396.57 1377.66 1390.79 1367.24 1389.83 1359.24 C 1387.58 1340.6 1382.66 1272.22 1391.66 1260.03 C 1395.01 1258.67 1415.95 1257.62 1420.49 1257.78 C 1499.25 1260.48 1577.38 1256.3 1656.06 1254.5 z" fill="rgb(47,95,175)" transform="translate(0,0)"></path>
<path d="M 1628.62 1431.44 L 1629.89 1431.35 C 1678.44 1428.26 1721.17 1466.86 1681.49 1512.7 C 1677.19 1517.67 1664.8 1525.97 1658.24 1526.52 C 1625.71 1529.3 1592.58 1526.23 1560 1525.51 C 1536.98 1525.09 1513.89 1526.66 1491.25 1527.59 C 1472.23 1528.02 1448.28 1527.69 1433.23 1514.78 C 1424.92 1507.64 1419.8 1497.47 1419.02 1486.53 C 1418.28 1474.64 1423.9 1459.39 1431.82 1450.48 C 1453.54 1426.04 1490.91 1432.99 1519.94 1432.86 C 1556.37 1432.7 1592.32 1434.18 1628.62 1431.44 z" fill="rgb(34,30,26)" transform="translate(0,0)"></path>
<path d="M 1632.6 1445.36 C 1647.3 1443.08 1663.52 1449.88 1674.77 1458.4 C 1694.51 1473.35 1675.17 1509.79 1655.98 1512.16 C 1625.79 1515.9 1590.3 1511.71 1559.81 1511.19 C 1535.53 1510.77 1512.22 1512.98 1488.25 1513.23 C 1474.98 1513.38 1455.84 1514.03 1444.4 1506.53 C 1438.04 1502.3 1433.73 1495.62 1432.48 1488.09 C 1429.01 1467.36 1448.71 1450.56 1467.33 1447.05 C 1482.25 1444.24 1495.7 1447.62 1510.51 1448.01 C 1526.34 1448.32 1542.22 1447.91 1558.04 1448.18 C 1583.67 1448.62 1607.17 1449.04 1632.6 1445.36 z" fill="rgb(47,95,175)" transform="translate(0,0)"></path>
<path d="M 1527.56 1142.47 C 1550.43 1141.59 1574.61 1143.09 1597.56 1143.83 C 1632.73 1145.37 1666.5 1145.02 1701.77 1146.73 C 1712.49 1147.33 1740.98 1148.26 1725.55 1165.75 C 1716.44 1176.09 1669.93 1172.67 1655.99 1172.48 C 1632.34 1172.1 1608.67 1172.11 1585.01 1172.49 C 1556.64 1173.81 1401.09 1177.32 1386.81 1167.13 C 1384.39 1165.4 1382.72 1162.63 1382.49 1159.64 C 1382.31 1157.01 1383.21 1154.42 1384.97 1152.47 C 1391.79 1144.9 1424.11 1145.79 1435.33 1145.35 C 1466.07 1144.13 1496.81 1143.17 1527.56 1142.47 z" fill="rgb(34,30,26)" transform="translate(0,0)"></path>
<path d="M 1602.08 858.443 C 1622.66 857.652 1699.26 853.192 1713.06 866.143 C 1714.98 867.941 1716.2 870.496 1716.2 873.144 C 1716.2 876.261 1714.48 879.266 1712.26 881.357 C 1709.19 884.256 1705.56 885.47 1701.45 886.089 C 1683.86 888.739 1664.53 886.859 1646.68 887.299 C 1621.16 887.928 1595.61 889.495 1570.09 889.791 C 1546.23 890.067 1522.23 889.154 1498.36 888.829 C 1464.79 888.212 1431.61 887.928 1398.03 888.676 C 1376.15 888.297 1380.69 864.781 1399.89 863.79 C 1466.83 860.337 1535.27 861.421 1602.08 858.443 z" fill="rgb(34,30,26)" transform="translate(0,0)"></path>
<path d="M 1494.38 806.453 C 1541.84 805.887 1591.43 807.37 1638.9 808.308 C 1654.69 808.62 1666.15 827.043 1655.36 838.274 C 1644.91 849.154 1618.77 846.336 1605.25 845.892 C 1574.13 845.342 1543 845.337 1511.88 845.877 C 1494.62 846.085 1476.77 846.729 1459.55 845.531 C 1451.46 844.969 1439.69 838.712 1439.12 829.497 C 1438.88 824.986 1440.53 820.58 1443.67 817.331 C 1455.35 805.04 1478.96 806.638 1494.38 806.453 z" fill="rgb(34,30,26)" transform="translate(0,0)"></path>
<path d="M 1649.11 1104.43 C 1662.54 1103.75 1701.76 1103 1716.05 1106.42 C 1718.37 1106.98 1719.85 1110.33 1720.43 1112.9 C 1719.97 1116.45 1719.5 1116.69 1717.15 1119.62 C 1705.39 1125.53 1679.66 1125.32 1666.2 1125.25 C 1595.16 1124.88 1524.27 1126.75 1453.25 1128.17 C 1442.01 1128.31 1370.61 1133.79 1380.02 1112.99 C 1383.51 1110.06 1387.75 1108.35 1392.36 1108.17 C 1478.05 1104.78 1563.34 1107.46 1649.11 1104.43 z" fill="rgb(34,30,26)" transform="translate(0,0)"></path>
<path d="M 1447.37 1193.45 C 1538.14 1190.02 1632.82 1193.93 1723.65 1194.98 C 1725.95 1195.01 1727.78 1199.1 1728.58 1200.92 C 1728 1215.6 1674.96 1209.61 1662.75 1209.23 C 1597.45 1208.69 1532.15 1208.91 1466.86 1209.9 C 1443.23 1210.47 1419.75 1212.72 1396.15 1213.36 C 1390.22 1213.52 1383.39 1211.47 1382.49 1204.87 C 1389.09 1193.96 1435.07 1193.89 1447.37 1193.45 z" fill="rgb(34,30,26)" transform="translate(0,0)"></path>
<path d="M 1341.43 301.452 C 1351.26 301.104 1361.62 300.503 1371.44 301.022 C 1431.22 304.186 1424.28 360.794 1422.59 403.412 C 1341.52 403.071 1261.42 395.162 1180.39 394.588 C 1136.53 394.277 1092.95 394.571 1049.11 395.538 C 985.766 396.935 923.093 402.868 859.988 407.2 C 800.702 411.241 741.319 413.695 681.902 414.56 C 577.677 415.342 472.745 405.021 368.337 407.432 C 334.226 408.219 300.316 409.58 266.233 411.02 C 251.354 411.107 236.271 411.748 221.423 411.532 C 203.57 411.272 186.999 410.862 169.17 412.221 C 169.141 378.708 157.465 313.894 209.807 312.903 C 236.278 312.401 270.126 311.603 296.062 313.331 C 330.651 315.636 359.705 312.736 393.721 312.046 C 441.083 311.516 488.447 311.226 535.811 311.176 L 932.47 309.754 L 1101.65 310.145 C 1128.04 310.206 1160.86 311.363 1186.76 310.319 C 1238.19 308.247 1289.73 303.811 1341.43 301.452 z" fill="rgb(244,237,222)" transform="translate(0,0)"></path>
<path d="M 296.258 343.765 C 302.769 342.84 309.264 345.548 313.19 350.824 C 316.838 355.727 317.742 362.149 315.588 367.868 C 313.435 373.588 308.521 377.819 302.545 379.099 C 296.126 380.474 289.469 378.237 285.183 373.264 C 280.898 368.292 279.667 361.377 281.974 355.231 C 284.282 349.086 289.759 344.689 296.258 343.765 z" fill="rgb(34,30,26)" transform="translate(0,0)"></path>
<path d="M 227.641 345.19 C 231.875 345.226 236.392 345.015 240.534 345.852 C 249.467 347.655 251.93 359.987 249.692 367.427 C 248.413 371.763 245.32 375.334 241.211 377.218 C 240.538 377.532 239.828 377.837 239.141 378.158 C 209.882 379.1 211.757 351.984 227.641 345.19 z" fill="rgb(34,30,26)" transform="translate(0,0)"></path>
<path d="M 364.732 344.348 C 374.03 342.669 382.913 348.893 384.509 358.206 C 386.105 367.518 379.802 376.345 370.476 377.859 C 361.266 379.354 352.572 373.146 350.996 363.95 C 349.42 354.754 355.55 346.005 364.732 344.348 z" fill="rgb(34,30,26)" transform="translate(0,0)"></path>
<path d="M 1106.48 649.362 C 1135.66 648.883 1165.74 649.191 1194.95 649.458 C 1210.59 649.85 1226.48 652.233 1242.1 652.4 C 1267.87 652.755 1293.85 651.345 1319.59 652.239 C 1334.52 652.758 1341.89 662.126 1343.7 675.9 C 1342.16 678.345 1310.16 681.223 1296.52 697.595 C 1270.3 729.076 1275.83 776.936 1275.86 815.25 L 1275.97 844.723 L 1162.5 843.337 C 1140.09 843.243 1117.75 843.495 1095.28 842.888 C 1083.44 842.568 1073.85 838.395 1071.92 825.128 C 1070.19 808.82 1070.69 796.332 1070.12 779.579 C 1068.85 742.205 1060.29 695.086 1075.69 660.014 C 1079 652.463 1099.01 650.113 1106.48 649.362 z" fill="rgb(47,95,175)" transform="translate(0,0)"></path>
<path d="M 1676.65 327.461 C 1705.17 326.467 1735.89 326.874 1764.46 327.211 L 1759.99 465.912 L 1717.5 465.413 C 1687.67 464.9 1657.84 464.551 1628.01 464.366 C 1629.86 419.193 1633.08 374.005 1635.09 328.82 C 1647.93 327.794 1663.68 327.745 1676.65 327.461 z" fill="rgb(244,237,222)" transform="translate(0,0)"></path>
<path d="M 1627.34 476.046 C 1669.73 475.933 1715.89 478.474 1759.12 479.035 C 1759.08 489.693 1756.4 602.071 1753.69 605.607 L 1621.84 607.193 C 1623.32 563.463 1625.16 519.746 1627.34 476.046 z" fill="rgb(244,237,222)" transform="translate(0,0)"></path>
<path d="M 2122.49 472.5 C 2134.83 471.994 2148.15 472.009 2160.57 471.79 C 2160.11 513.793 2160.83 558.03 2158.04 599.661 C 2129.38 598.782 2095.31 599.935 2066.25 600.171 C 2053.26 600.191 2040.27 600.337 2027.28 600.609 C 2028.93 561.438 2028.99 514.182 2028.67 474.863 L 2122.49 472.5 z" fill="rgb(244,237,222)" transform="translate(0,0)"></path>
<path d="M 1759.66 182.456 C 1763.71 182.442 1763.64 181.72 1765.88 183.711 C 1766.91 195.851 1765.98 217.66 1765.83 230.331 L 1764.87 314.067 C 1725.65 314.133 1686.43 315.122 1647.25 317.033 C 1644.11 317.222 1638.71 318.049 1636.44 315.81 C 1635.81 304.982 1637.55 283.033 1638.22 271.601 C 1639.89 242.83 1641.88 214.079 1644.19 185.352 C 1682.69 184.698 1721.18 183.733 1759.66 182.456 z" fill="rgb(244,237,222)" transform="translate(0,0)"></path>
<path d="M 2093.44 613.519 L 2157.97 612.67 C 2157.59 652.176 2156.26 692.403 2155.25 731.944 C 2133.02 731.734 2109.88 732.267 2087.58 732.493 C 2066.19 733.029 2044.26 733.065 2022.82 733.344 C 2023.61 693.61 2025.48 654 2026.15 614.231 L 2093.44 613.519 z" fill="rgb(244,237,222)" transform="translate(0,0)"></path>
<path d="M 1779 327.805 C 1789.76 327.25 1804.63 327.829 1815.61 327.96 L 1889.05 329.193 C 1889.1 343.548 1888.31 462.675 1885.75 466.071 C 1848.86 466.496 1811.98 466.593 1775.09 466.363 C 1776.72 420.186 1778.02 374 1779 327.805 z" fill="rgb(244,237,222)" transform="translate(0,0)"></path>
<path d="M 2077.97 332.829 C 2104.84 333.104 2134.81 332.214 2161.21 333.543 C 2162.05 374.527 2161.29 416.825 2161.06 457.868 C 2144.96 458.398 2128.39 458.506 2112.25 458.806 C 2084.46 459.337 2056.68 460.112 2028.91 461.133 C 2028.54 440.652 2028.05 418.519 2028.6 398.14 C 2043.37 376.885 2064.81 354.618 2077.97 332.829 z" fill="rgb(244,237,222)" transform="translate(0,0)"></path>
<path d="M 1838.3 180.542 C 1854.09 179.656 1873.8 180.027 1889.89 179.883 C 1889.91 225.157 1889.58 270.43 1888.89 315.698 C 1869.18 315.434 1849.47 315.28 1829.75 315.236 L 1779.67 314.783 C 1780.54 270.709 1780.11 226.226 1780.8 182.003 C 1799.97 181.621 1819.13 181.134 1838.3 180.542 z" fill="rgb(244,237,222)" transform="translate(0,0)"></path>
<path d="M 2002.23 475.544 L 2013.8 475.096 C 2011.81 513.446 2012.75 561.339 2012.51 600.491 L 1908.47 602.572 L 1895.76 602.921 C 1896.95 569.473 1897.76 522.682 1900.95 489.777 C 1905.44 486.711 1910.07 481.728 1914.01 477.798 C 1942.85 477.992 1973.28 476.547 2002.23 475.544 z" fill="rgb(244,237,222)" transform="translate(0,0)"></path>
<path d="M 1999.76 614.509 L 2012.27 614.355 L 2008.88 733.801 C 1972.6 734.074 1936.33 734.664 1900.06 735.57 L 1887.98 735.878 C 1890.73 697.264 1894.5 654.8 1895.27 616.369 L 1999.76 614.509 z" fill="rgb(244,237,222)" transform="translate(0,0)"></path>
<path d="M 1774.22 479.408 L 1886.66 479.48 C 1886.18 491.27 1883.2 599.204 1880.75 603.012 L 1768.19 605.256 C 1770.8 564.163 1772.13 520.814 1774.22 479.408 z" fill="rgb(244,237,222)" transform="translate(0,0)"></path>
<path d="M 1914.94 179.509 C 1947.46 179.172 1979.98 179.18 2012.49 179.535 L 2013.14 216.812 C 1999.17 238.879 1983.27 260.368 1967.99 281.601 L 1943.64 316.166 C 1930.57 315.896 1917.16 315.988 1904.06 315.929 C 1904.58 270.456 1904.62 224.979 1904.18 179.505 L 1914.94 179.509 z" fill="rgb(244,237,222)" transform="translate(0,0)"></path>
<path d="M 1842.01 617.527 L 1880.93 616.806 C 1880.26 655.068 1877.48 697.509 1875.47 735.899 C 1857.6 736.978 1839.71 737.568 1821.82 737.667 L 1817.17 722.792 C 1806 692.151 1793.5 677.907 1761.55 670.335 C 1764.22 651.923 1766.38 636.944 1767.9 618.319 L 1842.01 617.527 z" fill="rgb(244,237,222)" transform="translate(0,0)"></path>
<path d="M 1746.17 618.509 C 1749.08 618.436 1749.74 618.562 1752.54 618.959 C 1755.43 622.712 1751.21 661.918 1750.67 669.041 C 1710.03 668.61 1669.38 669.044 1628.75 670.342 C 1625.02 670.642 1622.89 671.229 1619.59 669.802 C 1617.54 662.676 1620.91 630.151 1621.32 619.756 C 1660.6 617.882 1706.47 618.708 1746.17 618.509 z" fill="rgb(244,237,222)" transform="translate(0,0)"></path>
<path d="M 1149.97 1008.46 C 1191.99 1007.93 1234.02 1008.11 1276.04 1009 L 1275.75 1032.29 L 1198.78 1032.59 C 1180.24 1032.71 1082.07 1035.87 1072.62 1027.88 C 1070.36 1025.97 1069.94 1024.37 1069.61 1021.52 C 1073.4 1007.89 1091.08 1010.94 1103.22 1010.44 L 1149.97 1008.46 z" fill="rgb(47,95,175)" transform="translate(0,0)"></path>
<path d="M 1146.53 893.48 C 1187.12 892.238 1234.5 894.725 1275.93 894.735 L 1275.88 915.847 L 1200.79 916.585 C 1180.18 915.972 1085.94 917.781 1073.54 911.663 C 1071.62 910.712 1070.2 908.661 1069.97 906.518 C 1069.72 904.126 1070.85 901.915 1072.52 900.278 C 1075.55 897.297 1082.03 894.972 1086.22 894.346 C 1094.45 893.115 1103.79 894.29 1112.18 894.321 C 1123.62 894.363 1135.1 893.85 1146.53 893.48 z" fill="rgb(47,95,175)" transform="translate(0,0)"></path>
<path d="M 2160.8 210.976 C 2161.88 212.349 2161.05 309.434 2161.02 319.558 C 2138.08 319.216 2114.58 319.612 2091.76 318.8 L 2089.9 318.764 L 2089.18 317.615 C 2098.2 301.516 2117.22 276.736 2128.09 260.588 C 2138.31 245.427 2150.39 224.858 2160.8 210.976 z" fill="rgb(244,237,222)" transform="translate(0,0)"></path>
<path d="M 1903.04 329.747 C 1913.63 330.058 1924.24 330.188 1934.84 330.138 C 1933.2 342.149 1933.26 348.445 1936.67 360.29 C 1927.5 373.079 1912.54 426.124 1904.45 443.832 C 1903.48 446.863 1904.28 446.505 1902.47 447.544 C 1901.43 441.983 1902.09 430.493 1902.23 424.385 C 1901.79 392.459 1902.95 361.459 1903.04 329.747 z" fill="rgb(244,237,222)" transform="translate(0,0)"></path>
<path d="M 2002.82 409.828 C 2006.66 410.726 2013.01 410.118 2013.49 410.251 C 2014.59 411.749 2013.78 455.895 2013.77 461.585 C 1992.24 461.966 1970.71 462.602 1949.19 463.491 C 1944.09 463.443 1938.99 463.473 1933.89 463.581 C 1954.97 447.904 1984.93 428.686 2002.82 409.828 z" fill="rgb(244,237,222)" transform="translate(0,0)"></path>
<path d="M 1582.37 737.612 C 1584.41 737.401 1595.5 735.002 1596.04 738.418 C 1597.95 750.47 1579.98 745.876 1571 747.034 C 1563.18 748.043 1549.88 746.804 1540.75 746.686 C 1537.21 746.545 1527.4 743.645 1523.85 742.674 C 1543.26 738.496 1563.34 740.436 1582.37 737.612 z" fill="rgb(244,237,222)" transform="translate(0,0)"></path>
<path d="M 2025.9 183.682 C 2026.37 177.59 2027.74 179.496 2033.61 179.287 C 2037.33 179.155 2034.58 182.831 2033.81 183.881 C 2032.35 185.913 2030.9 187.953 2029.46 190.002 C 2029 191.156 2028.43 192.808 2027.27 193.435 C 2025.64 193.028 2026 185.36 2025.9 183.682 z" fill="rgb(244,237,222)" transform="translate(0,0)"></path>
<path d="M 252.673 297.931 C 298.147 243.239 355.116 199.241 419.526 169.068 C 562.416 100.769 702.071 114.406 836.192 194.423 C 842.733 198.326 849.416 202.196 855.988 206.067 C 874.661 217.288 893.721 227.85 913.134 237.736 C 947.227 255.205 1009.06 281.195 1045.08 293.943 L 252.673 297.931 z" fill="rgb(47,95,175)" transform="translate(0,0)"></path>
<path d="M 1998.29 1305.23 C 1994.11 1302.26 1989.51 1299.14 1989.86 1293.64 C 1991.29 1271.06 1987.62 1160.75 1994.68 1146.43 C 2002.87 1141.62 2064.64 1142.6 2077.67 1142.45 C 2129.4 1141.91 2181.14 1141.91 2232.87 1142.48 L 2341.83 1143.68 C 2372.18 1143.89 2401.65 1143.6 2432 1145.11 L 2432 1158.76 L 2432 1284.26 L 2432 1303.97 C 2414.82 1302.57 2396.41 1302.74 2379.07 1302.01 C 2355.27 1301.7 2330.26 1299.03 2306.54 1300.8 C 2257.26 1304.49 2210.41 1306.72 2161.02 1306.46 L 2076.48 1306.07 C 2056.8 1305.84 2016.07 1307.12 1998.29 1305.23 z" fill="rgb(244,237,222)" transform="translate(0,0)"></path>
<path d="M 1998.29 1305.23 C 1994.11 1302.26 1989.51 1299.14 1989.86 1293.64 C 1991.29 1271.06 1987.62 1160.75 1994.68 1146.43 C 2002.87 1141.62 2064.64 1142.6 2077.67 1142.45 C 2129.4 1141.91 2181.14 1141.91 2232.87 1142.48 L 2341.83 1143.68 C 2372.18 1143.89 2401.65 1143.6 2432 1145.11 L 2432 1158.76 C 2429.07 1166.49 2432.96 1174.57 2427.52 1180.28 C 2419.57 1177.76 2421.85 1165.55 2422.1 1158.74 C 2410.01 1158.89 2397.92 1158.94 2385.83 1158.88 C 2386.47 1169.93 2389.8 1200.75 2382.58 1208.94 C 2378.9 1210.18 2377.6 1208.38 2375.54 1205.53 C 2373.8 1198.16 2374.47 1167.33 2374.98 1158.83 C 2360.74 1158.46 2345.41 1157.79 2331.25 1158.01 C 2332.07 1165.63 2333.93 1172.41 2329.58 1178.58 L 2328.03 1178.57 C 2323.65 1172.37 2325.21 1165.68 2325.86 1158 C 2314.53 1157.9 2301.77 1158.07 2290.57 1157.58 C 2289.74 1166.45 2290.85 1193.23 2287.65 1196.79 C 2284.36 1198.25 2286.05 1198.01 2282.36 1197.34 C 2274.61 1190.77 2279.16 1166.98 2280.55 1157.24 L 2239.83 1156.69 C 2240.29 1163.44 2242.05 1172.5 2236.88 1177.75 L 2235.21 1177.65 C 2230.51 1171.08 2231.94 1164.68 2232.83 1156.67 L 2194.07 1156.51 C 2194.42 1168.51 2196.74 1188.66 2190.14 1198.31 L 2188.53 1199.26 C 2179.5 1193.25 2183.3 1165.77 2185 1156.5 L 2144.26 1156.1 C 2144.5 1163.33 2146.21 1179.87 2141.97 1184.72 C 2138.86 1184.92 2140.26 1185.31 2137.68 1183.34 C 2135.64 1177.2 2137.29 1164.11 2136.63 1155.85 L 2098.35 1156.16 C 2098.31 1168.18 2098.46 1180.38 2098.47 1192.41 C 2098.48 1197.9 2097.41 1203.43 2091.42 1205.04 C 2083.44 1199.23 2087.77 1166.26 2088.84 1156.27 C 2074.16 1156.09 2059.49 1156.03 2044.82 1156.09 C 2045.74 1164.71 2046.96 1180.71 2043.02 1188.5 L 2041.02 1189.98 L 2038.54 1189.51 C 2035.09 1184.21 2038.12 1164.97 2037.97 1156.01 L 2007.06 1156.03 C 2008.79 1202.64 2008.08 1242.52 2006.82 1289.24 C 2073.86 1287.8 2140.37 1289.09 2207.39 1288.18 C 2244.8 1287.68 2284.64 1282.17 2321.75 1282 C 2357.62 1281.85 2395.9 1283.44 2432 1284.26 L 2432 1303.97 C 2414.82 1302.57 2396.41 1302.74 2379.07 1302.01 C 2355.27 1301.7 2330.26 1299.03 2306.54 1300.8 C 2257.26 1304.49 2210.41 1306.72 2161.02 1306.46 L 2076.48 1306.07 C 2056.8 1305.84 2016.07 1307.12 1998.29 1305.23 z" fill="rgb(34,30,26)" transform="translate(0,0)"></path>
<path d="M 1831.77 1434.69 C 1861.98 1440 1892.81 1457.24 1910.26 1482.05 C 1946.18 1533.49 1942.95 1610.04 1889.62 1648.25 C 1846.85 1678.89 1805.01 1659.14 1760.37 1669.32 C 1692.34 1684.85 1645.34 1727.74 1571.09 1711.11 C 1509.75 1697.37 1473.79 1677.88 1433.94 1627.88 C 1448.42 1628.31 1463.04 1627.19 1477.38 1627.58 C 1515.92 1628.63 1554.67 1626.61 1593.1 1626.75 C 1630.1 1627.18 1667.1 1627.09 1704.1 1626.47 C 1736.09 1626.23 1782.04 1630.34 1807.59 1608.27 C 1835.19 1583.72 1835.47 1544.81 1830.98 1511.04 C 1827.61 1485.68 1830.09 1459.91 1831.77 1434.69 z" fill="rgb(47,95,175)" transform="translate(0,0)"></path>
<path d="M 485.182 1584.28 C 474.864 1582.56 412.617 1574.9 407.804 1568.27 C 406.492 1566.46 406.606 1565.39 406.524 1563.26 C 409.457 1556.56 434.052 1547.88 441.526 1544.96 C 469.725 1534.18 497.982 1523.55 526.297 1513.08 C 546.679 1505.48 567.082 1498.32 586.418 1488.37 C 590.602 1486.21 593.805 1484.84 598.594 1485.11 C 605.334 1489.54 597.386 1504.19 595.384 1511.04 C 582.911 1554.18 567.982 1596.56 550.67 1637.99 C 545.05 1651.33 538.388 1664.17 532.616 1677.44 C 530.257 1682.86 526.819 1684.14 521.447 1682.04 C 511.947 1672.88 500.859 1609.8 497.695 1593.89 C 482.859 1608.09 468.19 1622.47 453.691 1637.02 C 423.666 1667.26 382.519 1710.37 337.002 1705.53 C 269.082 1698.3 214.619 1713.55 201.036 1792 L 188.629 1792 C 184.695 1782.76 191.393 1764.1 194.999 1755.1 C 205.242 1728.99 225.507 1708.06 251.277 1696.99 C 273.567 1687.62 298.72 1685.57 322.425 1688.4 C 331.618 1689.5 343.972 1690.38 352.933 1688.58 C 395.404 1680.08 418.894 1651.46 446.494 1622.47 C 458.891 1609.25 471.797 1596.51 485.182 1584.28 z" fill="rgb(34,30,26)" transform="translate(0,0)"></path>
<path d="M 444.175 1560.11 C 488.045 1543.88 540.179 1525.92 582.074 1506.9 C 575.124 1525.98 569.111 1545.72 562.248 1565.02 C 551.356 1595.03 539.51 1624.68 526.729 1653.94 C 523.335 1642.32 511.162 1579.1 502.172 1574.03 C 499.691 1572.63 452.19 1564.15 446.126 1563.67 L 441.316 1562.79 L 440.794 1561.81 L 444.175 1560.11 z" fill="rgb(244,237,222)" transform="translate(0,0)"></path>
<metadata><recraft-signature>{"signed_by": "recraft", "signature_b64": "Om70H330w2yEbfBLAoNYDhHmWqVIwCmwNt4L9V63nGZ3AfP6Q0IrVqai5XvkLBSJke1gv7Z3+lmfUxI3341yAw==", "signing_algo": "Ed25519", "generation_timestamp": 1782914645, "identifier": "d9b7f390-9f9a-40e8-9ea3-b66544258b84"}</recraft-signature></metadata></svg>