<svg xmlns="http://www.w3.org/2000/svg" height="1792" preserveAspectRatio="none" style="display: block;" version="1.1" viewBox="0 0 2432 1792" width="2432">
<path d="M 0 0 L 2432 0 L 2432 483.948 L 2432 489.223 L 2432 567.196 L 2432 883.654 L 2432 1029.48 L 2432 1230.15 L 2432 1295.32 L 2432 1300.07 L 2432 1792 L 0 1792 L 0 644.952 L 0 625.114 L 0 560.764 L 0 554.789 L 0 536.171 L 0 529.536 L 0 444.244 L 0 367.202 L 0 0 z" fill="rgb(244,237,222)" transform="translate(0,0)"></path>
<path d="M 0 367.202 C 27.7406 393.089 55.4214 421.637 82.9927 446.82 C 90.8903 447.154 93.8932 447.914 101.461 451.372 L 111.469 440.862 C 109.095 438.921 106.314 436.77 104.09 434.711 L 123.723 410.53 C 131.684 417.643 139.809 424.571 148.092 431.307 C 142.4 438.272 133.924 448.103 128.963 455.227 L 121.386 448.709 L 111.472 460.061 C 121.767 470.272 118.545 473.877 124.517 480.324 C 135.4 492.073 147.793 504.395 159.121 515.869 L 235.668 592.332 C 242.614 599.286 275.988 634.738 282.569 638.861 C 284.744 637.909 284.137 638.103 285.971 636.345 L 287.746 637.096 C 288.158 638.56 288.865 644.709 288.501 644.303 C 302.817 660.262 325.705 681.731 340.219 696.428 L 356.995 696.55 C 356.98 685.482 355.304 644.613 358.939 637.16 L 360.218 636.918 C 361.447 655.337 360.96 677.717 360.956 696.466 L 429.56 696.432 C 429.565 685.341 427.716 643.677 432.213 636.594 C 434.54 639.907 433.791 689.287 433.783 696.553 L 502.036 696.377 C 502.034 689.047 501.351 639.761 503.414 636.562 C 508.024 644.19 505.969 684.015 506.02 695.82 C 533.383 688.635 553.131 684.645 581.777 683.687 C 581.765 673.205 580.974 647.017 582.216 637.601 L 583.733 636.451 L 585.46 637.06 C 586.602 640.381 585.959 676.919 585.978 683.472 C 610.966 683.645 638.794 684.972 663.062 691.418 C 663.03 680.466 661.036 643.537 665.63 636.669 C 667.73 639.438 667.107 685.443 667.115 692.318 C 672.767 693.945 680.455 696.551 686.076 696.687 C 697.6 696.553 731.668 695.708 740.943 697.134 C 740.038 679.535 740.635 655.967 740.981 638.268 C 741.35 637.725 741.719 637.182 742.088 636.64 C 746.204 647.3 744.622 683.226 744.649 696.618 L 814.196 696.401 C 814.177 689.711 813.326 639.372 815.648 636.775 C 820.107 643.918 818.235 685.31 818.232 696.519 L 888.544 696.364 C 888.527 688.712 887.791 640.792 889.837 636.695 C 894.062 643.748 892.375 685.836 892.079 696.241 C 902.232 696.464 949.646 695.481 954.927 697.434 L 955.812 698.913 C 952.46 701.134 900.35 700.163 892.22 700.145 C 892.238 709.625 892.804 727.843 891.987 736.642 C 892.21 748.747 892.314 760.854 892.297 772.961 C 901.352 772.942 949.518 771.99 954.901 773.828 L 955.778 775.312 C 952.057 777.931 900.95 776.892 892.233 776.883 L 892.185 845.982 C 901.037 845.964 950.251 845.065 955.275 846.869 L 955.682 848.197 C 952.444 850.825 900.906 849.797 892.569 849.79 C 891.134 866.98 892.145 899.633 892.203 917.963 C 904.562 917.916 947.164 915.829 955.956 920.351 C 953.418 922.653 899.399 921.824 892.138 921.808 C 892.135 933.291 894.275 944.198 895.409 955.63 C 896.557 967.213 896.841 978.809 896.684 990.443 C 907.631 990.408 948.7 988.514 955.826 992.684 C 952.833 994.734 903.861 994.051 896.467 994.032 C 894.491 1024.27 891.974 1038.78 892.265 1069.89 C 901.55 1069.88 950.97 1068.15 955.467 1071.22 L 956.004 1072.42 C 951.49 1074.95 901.009 1073.73 892.193 1073.77 L 892.197 1140.39 C 910.305 1140.36 937.461 1139.51 954.868 1140.56 L 955.883 1142 C 953.304 1145.78 938.468 1144.2 933.498 1144.16 L 892.189 1144.13 L 892.213 1207.18 C 904.249 1207.17 947.652 1205.31 955.974 1209.49 C 953.957 1211.71 898.535 1210.94 892.276 1210.92 L 892.239 1279.97 C 900.145 1279.97 952.614 1279.24 955.936 1281.38 C 949.546 1285.8 904.004 1283.87 892.231 1283.88 C 892.264 1293.64 894.468 1345.14 890.743 1350.62 L 889.226 1350.07 L 889.285 1350.16 L 889.118 1348.83 C 887.291 1333.72 888.347 1300.06 888.446 1283.75 L 818.276 1283.7 C 818.279 1293.2 819.014 1345.95 817.01 1351.05 C 812.836 1346.03 813.656 1292.81 814.691 1283.56 C 792.145 1284.28 767.232 1283.77 744.498 1283.77 C 744.535 1291.89 745.386 1347.66 743.585 1350.6 L 742.146 1349.93 C 739.63 1345.58 740.555 1292.78 740.549 1283.77 C 718.855 1283.88 697.161 1283.86 675.467 1283.7 C 672.472 1283.73 669.732 1283.29 667.518 1285.01 C 665.721 1295.93 668.563 1345.32 665.6 1350.43 C 661.166 1343.6 663.02 1295.66 662.996 1283.95 C 652.059 1284.32 640.302 1287.21 629.286 1288.6 C 614.403 1290.49 600.807 1290.56 585.911 1290.24 C 585.941 1301.47 587.879 1344.31 583.072 1351.47 C 581.116 1341.94 581.762 1301.78 581.772 1290.08 C 564.154 1289.78 550.025 1286.9 532.675 1284.56 C 525.882 1283.64 513.245 1283.84 506.003 1283.86 C 506.015 1296.41 507.816 1341.32 503.73 1350.44 C 501.023 1348.17 502.007 1291.04 502.025 1283.8 L 433.734 1283.68 C 433.748 1292.53 434.604 1345.56 432.749 1350.13 L 431.3 1350.51 C 428.521 1347.05 429.461 1292.99 429.424 1283.64 L 360.949 1283.67 C 360.977 1292.51 361.92 1345.5 360.1 1350.09 L 358.62 1350.45 C 355.954 1347.07 356.936 1292.31 356.933 1283.64 C 334.12 1283.64 311.018 1283.46 288.23 1283.71 C 288.184 1302.38 289.007 1331.64 287.774 1349.48 L 286.546 1350.66 C 284.715 1348.86 283.763 1347.63 283.95 1344.67 C 284.869 1330.14 283.104 1308.59 284.199 1294.64 C 284.036 1287.28 286.097 1284.26 279.186 1283.84 C 272.186 1283.42 226.804 1284.82 224.144 1282.23 C 233.287 1278.23 271.715 1279.91 284.091 1279.91 C 284.011 1264.06 284.055 1248.21 284.225 1232.36 C 283.811 1226.97 284.133 1216.71 284.126 1210.95 C 275.224 1210.99 230.402 1211.71 224.274 1210.15 L 224.576 1208.59 C 228.226 1206.16 276.227 1207.21 284.114 1207.21 L 284.068 1144.11 C 272.858 1144.1 231.064 1145.89 224.13 1141.63 C 227.548 1139.56 276.553 1140.34 283.943 1140.36 L 284.005 1073.54 C 276.388 1073.52 227.985 1073.99 224.183 1072.12 C 231.081 1068.02 273.285 1069.64 284.027 1069.62 L 284.14 994.227 C 272.993 994.143 230.76 995.967 224.039 991.589 C 227.641 989.486 276.667 990.298 284.182 990.318 L 284.09 921.719 C 272.797 921.726 231.123 923.551 224.065 919.344 C 227.45 917.217 276.636 917.935 284.096 917.94 L 284.108 849.782 C 276.034 849.777 227.805 850.615 224.108 848.313 L 224.706 846.875 C 229.203 845.077 275.95 845.933 284.183 845.963 L 283.953 792.21 C 275.716 787.151 261.515 780.679 252.412 776.247 C 244.465 776.83 232.259 777.831 225.125 774.852 L 226.134 773.837 C 232.865 772.114 239.381 772.672 246.316 772.882 L 0 644.952 L 0 625.114 L 0 560.764 L 0 554.789 L 0 536.171 L 0 529.536 L 0 444.244 L 0 367.202 z" fill="rgb(34,30,26)" transform="translate(0,0)"></path>
<path d="M 0 444.244 C 15.1795 458.437 30.1623 472.839 44.9441 487.446 C 39.7589 494.29 11.6543 531.612 6.77207 533.885 C 3.44904 533.194 2.49764 531.847 0 529.536 L 0 444.244 z" fill="rgb(244,237,222)" transform="translate(0,0)"></path>
<path d="M 0 560.764 C 9.85066 567.746 18.7635 575.963 28.4294 583.191 C 31.3678 585.388 29.9649 586.354 28.4452 589.013 C 19.5822 598.97 8.52864 614.179 0 625.114 L 0 560.764 z" fill="rgb(111,121,251)" transform="translate(0,0)"></path>
<path d="M 0 536.171 C 15.528 548.592 35.7103 564.801 50.3758 577.764 C 47.4508 581.538 44.8605 585.471 41.9286 589.108 C 34.4714 581.585 9.29356 561.926 0 554.789 L 0 536.171 z" fill="rgb(111,121,251)" transform="translate(0,0)"></path>
<path d="M 78.2705 520.937 L 89.75 519.8 L 203.672 637.193 C 221.005 655.058 244.702 678.183 260.728 696.233 C 254.111 696.174 226.963 695.162 223.074 697.596 L 222.343 699.087 C 216.353 697.382 201.555 689.443 195.593 686.389 L 149.593 662.75 L 73.96 623.835 C 61.2174 617.27 39.1551 606.343 27.4334 598.757 C 27.794 595.936 28.3137 596.168 30.3969 593.571 L 34.9774 587.912 C 38.1001 590.674 39.9499 592.785 43.8755 594.142 L 56.8706 576.641 L 44.4439 565.62 C 56.0032 550.943 67.2808 536.046 78.2705 520.937 z" fill="rgb(244,237,222)" transform="translate(0,0)"></path>
<path d="M 817.551 837.396 C 831.616 836.51 839.875 837.17 853.633 838.662 C 874.053 875.096 886.823 902.12 862.84 943.015 C 848.845 966.878 828.431 978.789 801.877 985.296 C 802.074 975.032 801.253 965.868 799.721 955.751 C 791.427 904.761 761.091 870.736 706.873 875.839 C 742.778 851.038 774.517 841.346 817.551 837.396 z" fill="rgb(111,121,251)" transform="translate(0,0)"></path>
<path d="M 370.595 994.279 C 369.511 994.445 374.76 993.538 373.496 994.139 C 377.012 993.354 376.739 1008.98 377.31 1011.94 C 387.793 1066.25 427.172 1073.06 474.731 1074.83 C 448.135 1095.85 424.16 1108.37 392.251 1119.48 C 368.998 1126.67 351.987 1131.09 327.19 1131.11 C 316.813 1113.25 305.36 1087.14 300.961 1066.99 C 298.165 1054.18 302.878 1039.12 310.723 1028.75 C 326.241 1008.24 345.822 998.286 370.595 994.279 z" fill="rgb(111,121,251)" transform="translate(0,0)"></path>
<path d="M 600.708 1127.2 L 601.971 1130.31 C 576.091 1181.08 562.517 1228.57 579.419 1285.1 C 512.307 1283.28 451.729 1254.51 399.159 1214.83 C 402.273 1214.88 405.387 1214.88 408.501 1214.83 C 484.228 1213.49 548.64 1181.14 600.708 1127.2 z" fill="rgb(111,121,251)" transform="translate(0,0)"></path>
<path d="M 658.271 695.362 C 708.026 708.174 736.96 721.6 778.633 751.909 C 698.739 753.123 618.811 785.607 564.226 844.753 L 561.379 843.942 C 572.927 821.977 587.384 798.746 600.301 777.538 C 618.273 748.032 634.069 720.276 658.271 695.362 z" fill="rgb(111,121,251)" transform="translate(0,0)"></path>
<path d="M 667.009 994.128 C 690.557 993.996 717.12 993.607 740.487 994.246 C 740.418 1009.48 739.89 1031.7 740.905 1046.37 C 740.264 1051.28 740.617 1064.18 740.531 1069.81 L 667.007 1069.87 L 667.009 994.128 z" fill="rgb(244,237,222)" transform="translate(0,0)"></path>
<path d="M 818.202 700.196 L 888.5 700.238 L 888.453 772.93 L 818.252 772.988 L 818.202 700.196 z" fill="rgb(244,237,222)" transform="translate(0,0)"></path>
<path d="M 667.062 921.741 C 691.266 921.49 716.14 921.775 740.384 921.87 L 740.49 990.391 L 667.057 990.455 L 667.062 921.741 z" fill="rgb(244,237,222)" transform="translate(0,0)"></path>
<path d="M 433.787 994.062 L 501.904 994.068 L 501.984 1052.47 C 498.497 1055.28 495.056 1058.14 491.66 1061.05 C 488.046 1064.18 484.858 1066.79 481.127 1069.82 C 471.003 1069.76 458.025 1069.33 447.998 1068.15 C 443.263 1067.58 438.539 1066.93 433.827 1066.19 L 433.787 994.062 z" fill="rgb(244,237,222)" transform="translate(0,0)"></path>
<path d="M 818.155 1211.02 L 888.477 1211.01 L 888.333 1279.98 L 818.125 1279.88 L 818.155 1211.02 z" fill="rgb(244,237,222)" transform="translate(0,0)"></path>
<path d="M 666.984 1073.68 L 740.405 1073.62 C 740.529 1090.36 740.468 1107.1 740.223 1123.83 C 736.988 1127.31 734.206 1129.98 730.77 1133.24 C 728.192 1135.64 725.573 1137.99 722.913 1140.3 C 704.344 1140.53 685.774 1140.62 667.203 1140.58 L 666.984 1073.68 z" fill="rgb(244,237,222)" transform="translate(0,0)"></path>
<path d="M 288.137 1210.92 L 356.918 1210.94 C 356.968 1233.42 357.408 1257.43 356.952 1279.79 L 288.161 1279.88 L 288.137 1210.92 z" fill="rgb(244,237,222)" transform="translate(0,0)"></path>
<path d="M 433.66 921.915 L 501.8 921.83 L 501.842 990.278 C 479.452 990.631 456.208 990.305 433.742 990.355 L 433.66 921.915 z" fill="rgb(244,237,222)" transform="translate(0,0)"></path>
<path d="M 440.468 849.828 L 501.862 849.765 C 501.866 861.129 502.412 904.346 501.2 917.497 C 501.153 918.013 499.105 918.01 498.25 918.022 L 433.614 918.077 C 433.775 897.456 433.749 876.834 433.536 856.214 C 435.818 854.054 438.129 851.925 440.468 849.828 z" fill="rgb(244,237,222)" transform="translate(0,0)"></path>
<path d="M 346.969 722.023 C 352.546 722.641 357.008 723.268 362.527 724.266 C 369.639 737.37 379.651 752.431 387.745 765.18 C 374.208 780.108 359.834 795.976 347.273 811.68 L 332.24 805.746 C 321.83 801.935 298.638 795.313 292.801 786.418 C 291.931 777.741 303.988 779.701 311.192 779.142 L 309.892 759.93 L 329.176 759.894 C 327.638 752.459 327.223 746.946 326.586 739.33 C 333.482 739.788 340.368 740.395 347.239 741.15 C 346.981 734.711 346.978 728.467 346.969 722.023 z" fill="rgb(111,121,251)" transform="translate(0,0)"></path>
<path d="M 360.946 1210.98 C 369.715 1210.97 378.484 1211.01 387.253 1211.1 C 400.32 1222.86 414.424 1233.41 429.394 1242.63 L 429.603 1279.77 C 408.275 1280.53 382.585 1279.83 360.972 1279.85 L 360.946 1210.98 z" fill="rgb(244,237,222)" transform="translate(0,0)"></path>
<path d="M 288.156 1144.18 L 329.01 1144.25 C 338.556 1159.12 345.233 1168.08 356.921 1181.66 L 356.931 1207.13 L 288.213 1207.14 C 288.103 1186.35 287.892 1164.94 288.156 1144.18 z" fill="rgb(244,237,222)" transform="translate(0,0)"></path>
<path d="M 798.684 1210.99 L 814.102 1211.01 C 814.08 1233.06 813.703 1257.92 814.363 1279.86 L 744.566 1279.83 C 744.516 1275.57 744.593 1272.26 744.175 1267.98 C 744.677 1263.22 744.423 1256.13 744.454 1251.09 C 767.223 1236.66 778.241 1228.81 798.684 1210.99 z" fill="rgb(244,237,222)" transform="translate(0,0)"></path>
<path d="M 852.513 1144.33 L 888.293 1144.28 L 888.488 1207.16 L 853.5 1207.16 L 818.307 1207.15 L 818.353 1190.92 C 833.767 1171.52 838.767 1164.71 852.513 1144.33 z" fill="rgb(244,237,222)" transform="translate(0,0)"></path>
<path d="M 744.645 921.939 L 784.157 921.83 C 795.196 948.245 796.436 961.98 796.131 990.128 L 744.51 990.323 L 744.645 921.939 z" fill="rgb(244,237,222)" transform="translate(0,0)"></path>
<path d="M 744.598 700.308 L 814.206 700.233 C 814.145 724.536 814.557 749.335 814.165 773.584 C 807.978 771.57 806.841 769.401 802.161 764.814 C 784.792 747.786 764.783 736.11 744.609 723.056 L 744.598 700.308 z" fill="rgb(244,237,222)" transform="translate(0,0)"></path>
<path d="M 744.209 993.465 C 751.626 994.782 786.318 994.155 795.769 994.188 C 792.44 1019.48 786.244 1046.59 775.293 1069.74 C 764.76 1069.83 754.227 1069.84 743.694 1069.76 C 745.116 1063.68 745.088 1001.97 744.209 993.465 z" fill="rgb(244,237,222)" transform="translate(0,0)"></path>
<path d="M 817.687 776.906 L 888.254 776.909 C 888.466 799.926 888.453 822.945 888.215 845.962 L 863.629 845.946 C 851.313 824.007 838.265 803.693 821.624 784.632 C 818.407 780.946 818.557 781.375 817.687 776.906 z" fill="rgb(244,237,222)" transform="translate(0,0)"></path>
<path d="M 392.902 921.969 C 405.166 921.872 417.431 921.854 429.695 921.914 L 429.765 990.284 C 426.01 990.329 422.255 990.343 418.5 990.326 L 380.558 990.409 C 381.229 964.527 384.282 946.512 392.902 921.969 z" fill="rgb(244,237,222)" transform="translate(0,0)"></path>
<path d="M 361.102 700.343 C 383.882 700.44 406.662 700.403 429.442 700.233 L 429.294 730.203 C 424.358 733.638 416.824 738.382 412.445 742.16 C 404.241 748.611 398.247 754.214 390.639 761.29 C 381.167 745.021 371.296 728.988 361.035 713.205 L 361.035 713.42 C 361.023 709.079 360.953 704.677 361.102 700.343 z" fill="rgb(244,237,222)" transform="translate(0,0)"></path>
<path d="M 642.494 1073.71 C 649.35 1073.66 656.206 1073.66 663.062 1073.69 C 663.085 1083.6 662.49 1127.08 663.766 1134.35 L 663.596 1135.16 C 663.487 1135.7 663.002 1139.91 662.368 1139.93 C 643.46 1140.48 620.951 1140.57 602.304 1140.33 C 608.522 1130.13 613.277 1119.04 620.565 1108.28 C 628.027 1097.27 636.203 1085.3 642.494 1073.71 z" fill="rgb(244,237,222)" transform="translate(0,0)"></path>
<path d="M 380.882 994.086 L 429.753 994.133 L 429.749 1064.93 C 395.384 1055.24 381.789 1027.9 380.882 994.086 z" fill="rgb(244,237,222)" transform="translate(0,0)"></path>
<path d="M 559.584 803.4 C 564.498 802.629 574.467 802.649 579.766 802.552 C 570.58 816.594 562.063 831.061 554.241 845.905 L 527.5 845.919 L 505.863 845.928 L 505.911 813.781 C 526.485 807.663 538.296 805.495 559.584 803.4 z" fill="rgb(244,237,222)" transform="translate(0,0)"></path>
<path d="M 600.103 1144.09 C 619.804 1144.68 643.12 1144.31 663.044 1144.28 L 663.135 1172.13 C 634.586 1180.47 616.327 1181.1 587.204 1177.61 C 590.242 1169.73 597.978 1151.02 600.103 1144.09 z" fill="rgb(244,237,222)" transform="translate(0,0)"></path>
<path d="M 714.688 880.424 C 721.854 879.77 733.254 881.966 740.359 883.5 C 740.233 894.993 740.2 906.487 740.261 917.981 L 696.214 917.925 C 691.17 917.903 669.762 918.386 667.815 917.192 C 660.829 912.909 695.755 885.597 699.306 882.352 C 705.29 881.459 708.632 880.976 714.688 880.424 z" fill="rgb(244,237,222)" transform="translate(0,0)"></path>
<path d="M 657.814 921.669 C 658.239 921.707 662.617 921.819 662.643 922.437 C 663.488 942.924 663.054 970.57 663.107 990.433 C 651.208 990.434 618.038 991.104 607.762 989.881 C 606.533 989.678 600.253 989.358 600.116 987.883 C 603.857 983.684 616.277 980.324 622.392 971.386 C 634.3 953.98 643.872 937.764 657.814 921.669 z" fill="rgb(244,237,222)" transform="translate(0,0)"></path>
<path d="M 505.846 849.776 C 521.08 849.748 536.315 849.803 551.549 849.943 C 543.517 865.119 534.814 879.569 526.752 894.563 C 522.136 904.304 521.249 907.738 518.444 918.043 L 505.873 918.057 L 505.846 849.776 z" fill="rgb(244,237,222)" transform="translate(0,0)"></path>
<path d="M 389.85 770.585 C 392.555 771.626 409.959 800.583 413.57 805.591 C 407.594 813.767 403.023 820.873 396.67 829.002 C 392.067 827.312 386.675 825.484 382.204 823.713 C 371.85 820.481 362.017 817.218 351.754 813.827 C 364.547 800.306 376.454 784.683 389.85 770.585 z" fill="rgb(244,237,222)" transform="translate(0,0)"></path>
<path d="M 288.483 793.525 C 303.86 800.788 324.522 808.28 340.663 814.287 C 335.634 820.678 330.992 827.364 326.764 834.311 C 324.555 838.174 322.384 842.155 320.117 845.969 L 288.266 845.966 C 288.208 828.485 288.28 811.004 288.483 793.525 z" fill="rgb(244,237,222)" transform="translate(0,0)"></path>
<path d="M 505.892 990.334 L 505.93 941.864 C 505.941 935.773 505.826 929.543 506.098 923.412 C 506.219 920.663 515.241 921.934 517.03 922.15 C 518.125 922.578 517.948 925.038 517.888 925.892 C 516.056 952.205 531.965 976.28 555.792 987.43 C 556.684 987.744 559.876 988.557 560.365 989.606 C 559.882 990.544 554.837 990.421 553.921 990.463 C 539.716 989.703 520.343 990.267 505.892 990.334 z" fill="rgb(244,237,222)" transform="translate(0,0)"></path>
<path d="M 288.226 1073.75 C 299.416 1073.51 297.246 1074.07 301.204 1086.45 C 307.57 1106.37 316.627 1122.48 326.754 1140.42 L 288.082 1140.54 L 288.226 1073.75 z" fill="rgb(244,237,222)" transform="translate(0,0)"></path>
<path d="M 618.298 994.434 C 633.217 994.112 648.14 994.029 663.062 994.186 C 663.042 1008.73 663.479 1052.03 662.51 1069.23 C 662.47 1069.94 660.086 1069.9 659.25 1069.91 L 644.393 1069.84 C 653.396 1048.39 654.995 1031.7 640.036 1012 C 632.872 1002.57 627.35 1000.7 618.298 994.434 z" fill="rgb(244,237,222)" transform="translate(0,0)"></path>
<path d="M 505.952 994.054 L 560.832 994.134 C 546.275 1002.33 542.123 1009.13 531.976 1022.37 C 524.159 1031.9 515.443 1040.67 505.948 1048.54 C 505.871 1030.54 505.72 1012.05 505.952 994.054 z" fill="rgb(244,237,222)" transform="translate(0,0)"></path>
<path d="M 433.821 1245.34 C 455.925 1257.29 475.905 1268.46 500.433 1275.27 C 501.884 1275.68 502.097 1276.79 502.483 1278.13 L 502.946 1279.63 C 484.188 1280.84 453.463 1279.84 433.678 1279.85 L 433.821 1245.34 z" fill="rgb(244,237,222)" transform="translate(0,0)"></path>
<path d="M 883.422 1073.16 C 883.583 1073.21 887.648 1074.09 887.671 1074.46 C 888.804 1093.41 888.263 1121.89 888.256 1140.3 C 878.754 1140.2 869.252 1140.17 859.75 1140.21 C 858.406 1140.25 857.22 1140.51 856.198 1139.73 C 855.592 1138.35 860.434 1130.82 861.48 1128.76 C 870.673 1110.72 877.49 1092.44 883.422 1073.16 z" fill="rgb(244,237,222)" transform="translate(0,0)"></path>
<path d="M 428.286 861.655 C 430.337 865.835 429.678 910.133 429.661 917.964 L 396.224 917.998 C 390.504 912.762 423.232 867.419 428.286 861.655 z" fill="rgb(244,237,222)" transform="translate(0,0)"></path>
<path d="M 288.199 849.708 L 318.482 849.693 C 304.322 875.974 300.6 890.508 292.854 917.838 C 291.097 917.875 289.342 917.95 287.589 918.063 C 289.011 908.404 288.149 861.368 288.199 849.708 z" fill="rgb(244,237,222)" transform="translate(0,0)"></path>
<path d="M 74.4229 467.562 C 84.0184 464.593 94.2134 469.914 97.2647 479.484 C 100.316 489.054 95.0827 499.294 85.5396 502.427 C 75.8799 505.599 65.487 500.288 62.3985 490.601 C 59.3099 480.915 64.7102 470.568 74.4229 467.562 z" fill="rgb(111,121,251)" transform="translate(0,0)"></path>
<path d="M 500.885 815.301 C 502.702 817.532 501.876 841.187 501.865 845.907 L 447.306 845.868 C 444.991 843.957 449.145 842.752 450.77 841.464 C 466.459 829.027 482.798 822.812 500.885 815.301 z" fill="rgb(244,237,222)" transform="translate(0,0)"></path>
<path d="M 46.3259 493.666 C 50.7766 500.458 48.1912 500.043 55.7964 508.543 C 51.8189 513.985 26.6071 546.999 23.164 548.295 C 19.2576 544.95 15.299 541.758 11.3327 538.486 C 21.7053 526.155 35.9891 506.929 46.3259 493.666 z" fill="rgb(111,121,251)" transform="translate(0,0)"></path>
<path d="M 58.9389 512.038 C 64.7094 515.826 67.0167 516.886 73.0591 519.75 C 62.556 533.723 51.6546 549.224 40.5119 562.651 C 36.0944 558.91 31.3976 555.274 26.8983 551.566 C 37.8834 538.643 48.1396 524.33 58.9389 512.038 z" fill="rgb(111,121,251)" transform="translate(0,0)"></path>
<path d="M 224.966 700.342 C 236.627 699.638 252.279 700.05 264.135 700.198 C 270.735 706.902 277.337 713.159 284.024 719.727 C 284.199 723.481 284.08 728.005 284.081 731.824 C 276.812 728.602 229.488 704.31 224.966 700.342 z" fill="rgb(244,237,222)" transform="translate(0,0)"></path>
<path d="M 683.077 1277.54 C 706.906 1269.73 718.384 1265.05 740.384 1253.3 C 740.363 1261.32 740.698 1271.36 740.187 1279.12 L 740.253 1280.09 C 725.392 1279.94 690.406 1280.99 677.11 1279.48 C 679.889 1277.91 679.703 1278.14 683.077 1277.54 z" fill="rgb(244,237,222)" transform="translate(0,0)"></path>
<path d="M 677.11 1279.48 C 679.889 1277.91 679.703 1278.14 683.077 1277.54 C 687.146 1279.87 732.012 1279.21 740.187 1279.12 L 740.253 1280.09 C 725.392 1279.94 690.406 1280.99 677.11 1279.48 z" fill="rgb(176,164,157)" transform="translate(0,0)"></path>
<path d="M 744.548 884.837 C 759.583 890.578 774.75 903.066 781.571 917.736 L 744.514 917.825 C 744.514 906.825 744.324 895.835 744.548 884.837 z" fill="rgb(244,237,222)" transform="translate(0,0)"></path>
<path d="M 679.255 1144.5 C 691.74 1144.45 704.776 1144.15 717.204 1144.27 C 707.954 1151.37 701.798 1154.9 691.409 1160.26 C 682.529 1164.5 676.144 1166.9 667.284 1170.56 C 667.107 1161.89 667.058 1153.21 667.137 1144.54 L 679.255 1144.5 z" fill="rgb(244,237,222)" transform="translate(0,0)"></path>
<path d="M 744.296 1073.65 C 753.96 1073.44 763.889 1073.57 773.578 1073.61 C 768.318 1083.73 764.219 1092 757.767 1101.53 C 753.746 1107.46 749.289 1113.07 744.433 1118.33 C 744.308 1103.44 744.262 1088.55 744.296 1073.65 z" fill="rgb(244,237,222)" transform="translate(0,0)"></path>
<path d="M 433.739 700.35 C 440.678 699.203 479.88 699.944 489.154 700.425 C 489.383 700.437 489.463 700.75 489.513 700.869 C 489.461 701.332 489.527 701.164 489.363 701.419 C 488.43 701.591 488.367 701.681 487.081 701.81 C 466.866 709.083 452.189 716.46 433.795 727.046 L 433.739 700.35 z" fill="rgb(244,237,222)" transform="translate(0,0)"></path>
<path d="M 433.739 700.35 C 440.678 699.203 479.88 699.944 489.154 700.425 C 489.383 700.437 489.463 700.75 489.513 700.869 C 489.461 701.332 489.527 701.164 489.363 701.419 C 488.43 701.591 488.367 701.681 487.081 701.81 C 476.343 699.393 447.22 702.158 433.739 700.35 z" fill="rgb(176,164,157)" transform="translate(0,0)"></path>
<path d="M 888.368 849.84 C 889.377 852.266 889.291 906.911 888.581 908.514 C 886.61 908.578 886.611 904.879 886.399 903.697 C 881.881 883.575 874.165 868.236 865.733 849.925 L 888.368 849.84 z" fill="rgb(244,237,222)" transform="translate(0,0)"></path>
<path d="M 888.368 849.84 C 889.377 852.266 889.291 906.911 888.581 908.514 C 886.61 908.578 886.611 904.879 886.399 903.697 C 889.582 902.459 887.495 856.807 888.368 849.84 z" fill="rgb(131,123,117)" transform="translate(0,0)"></path>
<path d="M 740.319 700.224 C 741.181 704.446 740.76 716.192 740.722 721.135 C 729.121 715.025 708.231 705.04 695.779 700.906 C 704.728 699.437 729.428 700.602 740.319 700.224 z" fill="rgb(244,237,222)" transform="translate(0,0)"></path>
<path d="M 422.634 819.598 C 422.771 819.703 423.85 820.515 423.957 820.655 C 428.894 827.251 433.915 835.391 436.715 843.106 C 437.398 844.988 430.442 841.976 430.42 841.967 L 410.592 834.63 C 414.694 828.743 417.651 824.719 422.634 819.598 z" fill="rgb(111,121,251)" transform="translate(0,0)"></path>
<path d="M 361.054 1186.89 C 365.634 1190.49 376.786 1202.04 382.634 1207.15 L 360.991 1207.13 C 360.91 1200.38 360.931 1193.64 361.054 1186.89 z" fill="rgb(244,237,222)" transform="translate(0,0)"></path>
<path d="M 287.447 1036.4 L 289.97 1036.96 C 290.053 1039.67 290.454 1042.32 290.638 1045.02 C 291.877 1053.08 293.994 1060.81 295.384 1068.66 C 295.613 1069.96 288.733 1069.59 288.435 1069.59 C 286.938 1059.93 289.088 1044.77 287.447 1036.4 z" fill="rgb(244,237,222)" transform="translate(0,0)"></path>
<path d="M 287.447 1036.4 L 289.97 1036.96 C 290.053 1039.67 290.454 1042.32 290.638 1045.02 C 287.404 1050.02 289.296 1061.68 288.435 1069.59 C 286.938 1059.93 289.088 1044.77 287.447 1036.4 z" fill="rgb(176,164,157)" transform="translate(0,0)"></path>
<path d="M 288.17 725.47 C 292.033 727.669 301.946 738.786 305.291 742.452 C 300.287 740.91 293.672 737.598 289.178 734.681 C 287.511 733.599 288.179 727.763 288.17 725.47 z" fill="rgb(244,237,222)" transform="translate(0,0)"></path>
<path d="M 346.456 700.469 C 359.449 700.189 357.031 699.191 357.028 712.525 C 354.25 709.715 347.106 703.677 346.456 700.469 z" fill="rgb(244,237,222)" transform="translate(0,0)"></path>
<path d="M 813.73 1195.74 C 815.64 1208.41 814.739 1207.27 804.305 1207.32 C 804.182 1203.45 810.752 1198.73 813.73 1195.74 z" fill="rgb(244,237,222)" transform="translate(0,0)"></path>
<path d="M 287.837 921.036 L 292.001 922.372 C 291.289 926.031 290.525 929.392 290.066 933.106 L 288.069 933.858 C 288.114 929.355 288.091 925.548 287.837 921.036 z" fill="rgb(234,223,200)" transform="translate(0,0)"></path>
<path d="M 887.642 1057.74 C 888.062 1060.79 889.754 1067.34 886.629 1068.72 C 883.375 1067.41 886.716 1060.61 887.642 1057.74 z" fill="rgb(244,237,222)" transform="translate(0,0)"></path>
<path d="M 600.708 1127.2 C 601.725 1125.81 603.624 1123.27 605.317 1122.81 C 606.412 1123.62 602.362 1129.65 601.971 1130.31 L 600.708 1127.2 z" fill="rgb(47,95,175)" transform="translate(0,0)"></path>
<path d="M 561.379 843.942 L 564.226 844.753 C 563.259 845.832 559.571 850.26 558.399 850.401 L 558.254 850.24 C 558.397 848.509 560.18 845.297 561.379 843.942 z" fill="rgb(111,121,251)" transform="translate(0,0)"></path>
<path d="M 288.069 933.858 L 290.066 933.106 C 289.893 934.404 289.82 938.604 288.631 939.234 C 287.574 938.65 288.018 934.84 288.069 933.858 z" fill="rgb(131,123,117)" transform="translate(0,0)"></path>
<path d="M 506.351 1277.15 C 508.158 1277.68 510.194 1277.6 510.778 1279.4 C 507.376 1280.24 506.523 1280.78 506.351 1277.15 z" fill="rgb(234,223,200)" transform="translate(0,0)"></path>
<path d="M 287.447 1036.4 C 287.58 1035.46 287.782 1032.35 288.505 1031.59 C 289.578 1031.99 289.842 1035.95 289.97 1036.96 L 287.447 1036.4 z" fill="rgb(88,75,69)" transform="translate(0,0)"></path>
<path d="M 2092.95 499.516 C 2120.94 466.045 2147.91 431.802 2176.29 398.629 C 2194.44 377.423 2289.75 269.056 2311.31 264.725 C 2314.05 264.174 2316.93 264.575 2319.13 266.363 C 2321.01 267.882 2321.84 269.881 2321.96 272.272 C 2323.07 293.978 2221.75 427.328 2201.93 452.064 C 2179.06 480.305 2155.53 508.008 2131.36 535.15 C 2151.04 547.717 2177.44 559.857 2201.31 559.018 C 2233.95 557.872 2263.36 536.454 2290.7 521.268 C 2332.07 498.283 2384.21 478.067 2432 483.948 L 2432 489.223 L 2432 567.196 L 2432 883.654 L 2432 1029.48 L 2432 1230.15 L 2432 1295.32 L 2432 1300.07 C 2400.3 1299.34 2366.14 1286.28 2340.78 1267.56 C 2315.25 1248.84 2294.89 1223.94 2281.63 1195.2 C 2248.25 1121.32 2270.38 1054.33 2290.68 982.289 C 2303.69 937.704 2316.34 893.016 2328.63 848.227 C 2331.18 838.727 2333.78 827.323 2336.42 818.169 C 2360.75 733.606 2302.9 758.715 2282.04 815.381 C 2271.42 844.216 2266.54 873.5 2259.85 903.745 C 2248.89 951.607 2237.61 999.398 2226.02 1047.11 C 2213.21 1100.36 2205.86 1151.76 2178.86 1200.44 C 2126.13 1295.49 2011.21 1323.32 1917.59 1269.58 C 1809.97 1207.8 1812.04 1064.7 1870.02 969.532 C 1919.48 888.363 2023.16 807.568 2116.12 785.141 C 2110.41 800.174 2100.84 819.777 2094.28 835.085 L 2050.53 939.485 C 2038.29 969.245 1996.01 1054.37 2050.92 1066.71 C 2088.53 1075.15 2094.68 1021.74 2101.36 995.185 L 2121.77 914.137 C 2131.65 875.869 2141.23 837.522 2150.5 799.1 C 2154.45 783.043 2173.25 722.468 2163.92 705.665 C 2156.74 692.746 2136.73 709.56 2128.77 717.162 C 2095.53 755.096 2075.53 778.139 2025.75 792.163 C 1917.92 822.539 1826.33 767.69 1836.21 649.566 C 1843.14 566.803 1899.13 515.361 1975.76 493.629 C 2012.52 483.205 2059.09 480.704 2092.95 499.516 z" fill="rgb(111,121,251)" transform="translate(0,0)"></path>
<path d="M 2092.95 499.516 C 2120.94 466.045 2147.91 431.802 2176.29 398.629 C 2194.44 377.423 2289.75 269.056 2311.31 264.725 C 2314.05 264.174 2316.93 264.575 2319.13 266.363 C 2321.01 267.882 2321.84 269.881 2321.96 272.272 C 2323.07 293.978 2221.75 427.328 2201.93 452.064 C 2179.06 480.305 2155.53 508.008 2131.36 535.15 C 2151.04 547.717 2177.44 559.857 2201.31 559.018 C 2233.95 557.872 2263.36 536.454 2290.7 521.268 C 2332.07 498.283 2384.21 478.067 2432 483.948 L 2432 489.223 C 2381.43 485.97 2332.13 502.565 2289.18 528.261 C 2228.08 564.814 2194.58 581.686 2128.48 539.905 C 2094.45 577.128 2059.29 613.436 2024.98 650.483 C 2025.54 671.718 2021.62 689.921 2005.74 705.245 C 1980.25 729.852 1943.14 749.718 1907.54 750.151 C 1901.61 750.25 1895.68 749.649 1889.88 748.362 C 1911.34 737.994 1929.82 725.09 1936.31 700.874 C 1945.72 665.74 1958.38 636.932 1998.56 629.87 C 2017.31 602.928 2036.3 576.153 2055.52 549.547 C 2064.07 537.527 2080.04 513.564 2089.09 503.863 C 2063.42 487.646 2017.67 489.201 1989.1 495.697 C 1938.24 507.311 1892.35 533.54 1864.12 578.642 C 1831.44 629.576 1831.02 721.58 1878.85 763.681 C 1937.39 815.212 2043.23 798.845 2095.96 746.052 C 2104.66 737.342 2113.16 724.722 2122.15 716.759 C 2127.93 710.465 2131.87 705.949 2139.21 701.623 C 2159.07 689.924 2175.25 698.735 2172.65 722.206 C 2169.9 747.122 2163.12 771.347 2157.19 795.575 L 2127.99 912.564 L 2106.31 997.621 C 2101.76 1015.39 2096.74 1039.73 2088.91 1055.59 C 2092.46 1054.06 2096.17 1052.61 2099.3 1050.24 C 2109.68 1042.39 2126.41 1002.06 2136.85 999.884 C 2139.03 1001.36 2140.71 1003.39 2140.9 1006.38 C 2145.39 1079.54 2115.91 1189.57 2033.52 1205.98 C 2008.67 1210.93 1970.68 1202.23 1950.92 1186.62 C 1875.29 1126.87 1913.64 1010.43 1963.91 946.85 C 1994.46 908.212 2039.38 868.343 2083.14 847.038 C 2090.77 829.68 2098.98 809.351 2106.96 792.501 C 1979.03 839.513 1849.74 942.905 1837.01 1087.97 C 1829.79 1170.23 1863.76 1241.84 1941.53 1275.9 C 1987.85 1295.83 2040.23 1296.31 2086.91 1277.23 C 2157.97 1249.01 2189.85 1181.2 2205.16 1111.6 C 2220.47 1042.03 2239.06 972.87 2254.35 903.245 C 2261.07 872.674 2266.29 841.011 2277.6 811.801 C 2284.97 793.644 2300.8 766.262 2320.61 760.148 C 2365.6 746.257 2342.13 818.775 2337.66 835.971 C 2325.16 884.072 2311.57 928.815 2298.1 976.334 C 2274.19 1056.49 2248.51 1138.09 2299.12 1215.66 C 2315.5 1240.92 2337.99 1261.63 2364.5 1275.88 C 2387.16 1287.8 2406.69 1292.99 2432 1295.32 L 2432 1300.07 C 2400.3 1299.34 2366.14 1286.28 2340.78 1267.56 C 2315.25 1248.84 2294.89 1223.94 2281.63 1195.2 C 2248.25 1121.32 2270.38 1054.33 2290.68 982.289 C 2303.69 937.704 2316.34 893.016 2328.63 848.227 C 2331.18 838.727 2333.78 827.323 2336.42 818.169 C 2360.75 733.606 2302.9 758.715 2282.04 815.381 C 2271.42 844.216 2266.54 873.5 2259.85 903.745 C 2248.89 951.607 2237.61 999.398 2226.02 1047.11 C 2213.21 1100.36 2205.86 1151.76 2178.86 1200.44 C 2126.13 1295.49 2011.21 1323.32 1917.59 1269.58 C 1809.97 1207.8 1812.04 1064.7 1870.02 969.532 C 1919.48 888.363 2023.16 807.568 2116.12 785.141 C 2110.41 800.174 2100.84 819.777 2094.28 835.085 L 2050.53 939.485 C 2038.29 969.245 1996.01 1054.37 2050.92 1066.71 C 2088.53 1075.15 2094.68 1021.74 2101.36 995.185 L 2121.77 914.137 C 2131.65 875.869 2141.23 837.522 2150.5 799.1 C 2154.45 783.043 2173.25 722.468 2163.92 705.665 C 2156.74 692.746 2136.73 709.56 2128.77 717.162 C 2095.53 755.096 2075.53 778.139 2025.75 792.163 C 1917.92 822.539 1826.33 767.69 1836.21 649.566 C 1843.14 566.803 1899.13 515.361 1975.76 493.629 C 2012.52 483.205 2059.09 480.704 2092.95 499.516 z" fill="rgb(34,30,26)" transform="translate(0,0)"></path>
<path d="M 2085.38 516.527 C 2096.51 525.509 2108.08 533.942 2120.03 541.797 L 2049 617.209 L 2041.2 625.141 L 2020.24 608.036 C 2041.6 577.286 2063.32 546.781 2085.38 516.527 z" fill="rgb(111,121,251)" transform="translate(0,0)"></path>
<path d="M 1990.35 702.775 C 2001.23 705.161 1981.23 715.922 1977.92 718.147 C 1970.47 721.219 1990.11 702.993 1990.35 702.775 z" fill="rgb(111,121,251)" transform="translate(0,0)"></path>
<path d="M 1970.66 704.804 C 1972.26 711.687 1961.1 716.378 1956.01 718.049 C 1955.89 716.759 1968.39 706.898 1970.66 704.804 z" fill="rgb(111,121,251)" transform="translate(0,0)"></path>
<path d="M 2432 1230.15 C 2382.47 1212.96 2350.55 1184.19 2335.61 1133.04 C 2318.37 1074.04 2334.52 1019.74 2347.13 962.087 L 2373.73 841.295 C 2378.99 816.913 2385.32 792.89 2385.35 767.749 C 2385.78 736.42 2368.08 696.946 2331.12 699.366 C 2274.88 703.849 2259.29 769.721 2243.44 813.159 C 2231.51 845.865 2209.49 831.226 2214.14 798.175 C 2224.53 724.393 2247.27 650.484 2308.4 602.712 C 2346.67 572.811 2383.96 561.687 2432 567.196 L 2432 883.654 L 2432 1029.48 L 2432 1230.15 z" fill="rgb(34,30,26)" transform="translate(0,0)"></path>
<path d="M 2432 883.654 L 2432 1029.48 C 2420.22 994.073 2421.88 919.719 2432 883.654 z" fill="rgb(111,121,251)" transform="translate(0,0)"></path>
<path d="M 1497.4 752.742 C 1501.72 747.166 1504.99 742.968 1510.62 738.621 C 1517.4 733.314 1525.41 729.806 1533.92 728.421 C 1540.83 727.285 1548.05 727.27 1555.05 727.267 C 1583.85 727.254 1612.68 727.41 1641.47 727.239 C 1654.31 727.163 1667.32 726.627 1680.06 727.993 C 1693.61 729.446 1707.77 737.957 1715.74 748.651 C 1729.03 766.501 1725.85 790.945 1725.86 811.914 L 1725.9 889.03 L 1725.93 977.293 C 1725.93 990.04 1727.42 1013.18 1724.89 1024.82 C 1716.84 1061.86 1687.53 1070.69 1654.85 1069.23 C 1613.78 1067.4 1575.83 1071.29 1535.39 1067.96 C 1520.63 1066.74 1506.12 1053.15 1498.52 1042.05 C 1490.18 1056.58 1483.56 1061.59 1468.07 1067.57 C 1452.99 1070.5 1333.81 1070.18 1320.08 1067.15 C 1305.92 1064.02 1296.27 1054.15 1288.74 1042.38 C 1284.18 1049.03 1280.78 1053.52 1274.26 1058.44 C 1267.9 1063.25 1260.52 1066.53 1252.68 1068.01 C 1243.39 1069.69 1228.69 1069.2 1218.82 1069.19 L 1170.84 1069.08 C 1155.58 1069.04 1140.26 1069.04 1125 1069.13 C 1106.36 1069.24 1091.23 1063.65 1080.04 1048.13 C 1075.22 1041.4 1072.21 1033.55 1071.28 1025.32 C 1070.19 1015.28 1070.72 996.231 1070.73 985.263 L 1070.76 911.557 L 1070.68 818.74 C 1070.67 787.195 1064.86 752.666 1097.29 734.599 C 1110.23 727.39 1124.89 727.181 1139.33 727.647 C 1177.49 728.878 1216.55 726.037 1254.47 729.028 C 1269.26 730.194 1281.83 742.448 1289.63 753.929 C 1291.46 751.215 1293.38 748.565 1295.38 745.984 C 1304.61 734.179 1314.75 729.244 1329.23 727.431 L 1411.29 727.361 C 1428.96 727.291 1452.56 726.15 1469.5 729.163 C 1482 731.388 1490.94 742.43 1497.4 752.742 z" fill="rgb(34,30,26)" transform="translate(0,0)"></path>
<path d="M 1533.8 733.225 C 1549.26 731.766 1584.35 732.767 1601.68 732.739 C 1621.67 732.707 1656.76 731.535 1675.72 733.035 C 1681.6 733.531 1687.38 734.863 1692.89 736.989 C 1726.43 750.15 1720.98 790.66 1720.96 819.368 L 1720.94 891.289 L 1720.97 970.1 C 1720.97 1008.93 1728.77 1045.84 1684.95 1062.24 C 1670.26 1065.69 1547.33 1065.64 1532.14 1061.93 C 1517.91 1058.45 1508.35 1047.83 1500.96 1035.88 C 1503.05 1022.92 1502.28 1003.27 1502.27 989.513 L 1502.32 920.645 L 1502.34 826.903 C 1502.38 805.788 1503.63 778.044 1500.06 757.858 C 1509.98 744.237 1517.56 737.736 1533.8 733.225 z" fill="rgb(111,121,251)" transform="translate(0,0)"></path>
<path d="M 1329.54 732.412 C 1354.14 731.822 1379.84 732.817 1404.62 732.368 C 1423.19 732.812 1442.14 731.266 1460.66 733.048 C 1503.71 737.19 1497.22 782.4 1497.2 812.193 L 1497.15 893.191 L 1497.21 978.623 C 1497.23 1016.22 1505.97 1056.8 1457.55 1063.82 C 1419.45 1064.35 1381.23 1063.75 1343.12 1064.03 C 1337.85 1064.07 1332.6 1064.12 1327.39 1063.26 C 1284.29 1056.17 1289.19 1019.99 1289.25 987.113 L 1289.32 913.901 L 1289.27 824.534 C 1289.23 787.909 1281.31 739.59 1329.54 732.412 z" fill="rgb(244,237,222)" transform="translate(0,0)"></path>
<path d="M 427.469 443.354 C 451.72 440.985 476.189 444.296 498.939 453.023 C 544.605 470.59 574.924 502.48 594.461 546.57 C 596.008 542.882 597.619 539.222 599.292 535.59 C 617.621 496.354 651.056 466.211 691.975 452.032 C 732.357 437.637 776.824 440.03 815.429 458.675 C 858.502 479.803 883.651 511.196 898.988 555.932 C 953.199 564.627 928.048 627.665 891.303 613.481 C 883.14 610.308 876.693 603.843 873.544 595.671 C 870.729 588.488 870.937 580.471 874.12 573.443 C 878.458 563.939 885.496 560.128 894.627 556.791 C 890.492 545.016 886.673 535.643 880.37 524.661 C 859.546 488.658 825.137 462.526 784.866 452.128 C 741.809 440.915 700.868 448.544 662.883 470.827 C 628.881 492.058 609.459 518.492 595.817 555.808 C 651.058 568.478 621.323 628.935 584.942 612.948 C 577.049 609.475 570.962 602.868 568.146 594.718 C 561.411 574.597 574.671 561.215 593.024 556.079 C 591.884 552.681 590.617 549.327 589.224 546.024 C 572.24 505.824 539.878 474.091 499.353 457.899 C 423.979 428.007 336.75 461.45 300.766 534.367 C 297.165 541.663 294.267 549.244 291.284 556.809 C 309.024 564.533 321.927 579.283 311.507 598.996 C 307.471 606.592 300.453 612.163 292.14 614.372 C 255.326 623.901 234.707 564.457 286.659 556.053 C 310.184 490.358 358.324 451.878 427.469 443.354 z" fill="rgb(34,30,26)" transform="translate(0,0)"></path>
<path d="M 2222.58 1209.29 C 2245.43 1206.28 2266.39 1222.36 2269.41 1245.2 C 2272.42 1268.05 2256.35 1289.01 2233.5 1292.03 C 2210.65 1295.05 2189.68 1278.97 2186.67 1256.12 C 2183.65 1233.27 2199.73 1212.31 2222.58 1209.29 z" fill="rgb(34,30,26)" transform="translate(0,0)"></path>
<metadata><recraft-signature>{"signed_by": "recraft", "signature_b64": "2xgvbR8O89l6rmgbiydlLvys/JeYT4kI0Kx+2681Gq6Cu/7iVJ0FOfGO+Hh1lt0d7yN7HAt7/RWmRzse2yXeDw==", "signing_algo": "Ed25519", "generation_timestamp": 1782914662, "identifier": "0d07c916-3a1a-4277-8560-433e54911d69"}</recraft-signature></metadata></svg>