<svg xmlns="http://www.w3.org/2000/svg" height="1792" preserveAspectRatio="none" style="display: block;" version="1.1" viewBox="0 0 2432 1792" width="2432">
<path d="M 0 0 L 2432 0 L 2432 1792 L 0 1792 L 0 0 z" fill="rgb(244,237,222)" transform="translate(0,0)"></path>
<path d="M 1362.92 149.582 C 1396.28 147.676 1438.34 145.152 1464.92 167.777 C 1493.91 192.444 1492.67 215.603 1496.69 250.737 C 1499.09 271.696 1497.41 299.326 1497.13 320.893 C 1496.84 342.799 1497.96 364.23 1497.66 385.781 C 1498.12 413.697 1492.99 444.721 1494.13 472.306 C 1496.99 541.617 1499.75 608.312 1493.4 677.664 C 1490.83 705.695 1497.06 740.067 1476.56 764.074 C 1465.19 777.396 1451.38 788.678 1433.97 792.203 C 1418.52 795.441 1402.66 798.646 1386.81 799.394 C 1377.61 800.176 1368.1 798.389 1358.99 798.38 C 1334.12 798.356 1309.63 796.329 1284.85 794.322 C 1275.52 793.566 1265.37 792.756 1255.99 792.89 C 1213.91 793.491 1172.21 801.19 1130.02 800.694 C 1109.93 800.461 1090.01 797.092 1069.89 797.631 C 1038.22 798.06 1006.28 801.159 974.752 801.122 C 953.291 801.097 930.651 798.356 909.032 797.93 C 892.206 797.598 877.183 798.993 860.402 800.487 C 861.095 810.831 859.599 821.917 860.045 832.189 C 861.633 868.721 856.427 905.358 855.997 941.511 C 855.696 966.879 859.471 993.08 859.557 1018.91 L 858.059 1261.63 C 858.122 1285.16 861.608 1316.94 863.185 1341.32 C 865.72 1380.16 867.117 1419.07 867.375 1458 C 867.567 1478.09 868.426 1504.25 866.74 1524 C 864.704 1547.86 855.225 1582.68 835.991 1598.22 C 823.122 1608.62 815.035 1610.47 800.423 1615.66 C 752.763 1632.59 710.376 1630.38 660.755 1629.33 C 640.764 1628.91 616.17 1630.75 595.289 1630.61 C 562.524 1630.38 531.59 1635.41 498.314 1634.13 C 469.559 1633.03 440.601 1628.66 412.385 1628.33 C 379.093 1627.94 352.703 1632.53 318.753 1629.88 C 286.024 1628.11 237.496 1621.42 215.011 1595.98 C 194.342 1572.59 190.019 1552.69 185.253 1522.55 C 183.293 1510.15 184.252 1498.64 182.984 1487.06 C 180.971 1468.67 178.927 1453.76 178.285 1435.11 C 177.101 1400.71 180.331 1365.6 179.973 1331.5 C 178.733 1299.97 176.492 1268.04 176.739 1236.52 C 177.042 1197.94 184.13 1160.69 176.905 1122.44 C 175.385 1114.4 175.475 1098.83 175.554 1090.19 C 175.898 1052.93 179.881 1015.56 180.108 978.281 C 180.06 935.871 175.265 893.191 175.208 850.558 C 175.156 811.562 180.121 772.009 179.466 733.25 C 178.898 699.594 175.304 665.511 175.812 631.637 C 176.062 615.019 177.805 599.375 178.683 582.793 C 179.267 571.757 176.86 550.977 178.081 541.126 C 182 512.033 192.125 481.493 215.031 461.772 C 230.587 448.378 252.734 438.238 272.967 434.781 C 308.087 428.781 344.544 433.738 379.985 433.154 C 409.668 432.664 439.212 430.525 468.874 429.64 C 504.104 429.607 545.644 430.444 580.752 432.751 C 580.363 400.692 576.803 366.467 577.067 334.031 C 576.976 319.941 580.614 304.426 580.753 290.558 C 581.127 253.176 575.759 223.79 602.033 192.798 C 631.549 157.981 678.84 166.537 719.49 163.484 C 750.64 161.145 780.656 156.511 811.856 156.019 C 834.309 155.924 856.357 159.259 878.869 158.381 C 895.567 157.73 912.16 156.865 928.836 155.738 C 932.754 155.474 938.908 155.009 942.68 155.277 C 1013.15 160.279 1083.09 161.472 1153.72 160.962 C 1189.31 160.704 1224.57 153.743 1260.08 151.741 C 1279.72 150.59 1298.88 151.686 1318.51 152.015 C 1331.77 152.222 1349.4 150.564 1362.92 149.582 z" fill="rgb(34,30,26)" transform="translate(0,0)"></path>
<path d="M 1106.89 336.474 C 1141.18 336.177 1175.97 339.515 1210.23 340.272 C 1239.51 340.48 1268.85 339.155 1298.13 339.457 C 1305.75 339.965 1313.76 340.009 1321.34 340.754 C 1360.99 344.656 1395.87 343.886 1435.45 339.919 C 1435.53 347.127 1435.87 354.344 1436.03 361.538 C 1437.13 412.952 1431.08 462.923 1436.97 514.508 C 1437.22 529.392 1437.17 544.242 1438.06 559.109 C 1440.89 606.695 1446.13 654.625 1438.32 701.992 C 1434.24 726.708 1423.86 734.8 1399.9 735.868 C 1384.61 737.628 1367.78 733.581 1352.79 734.003 C 1321.56 734.882 1291.21 732.916 1260.12 731.885 C 1243.25 731.277 1226.36 731.441 1209.51 732.375 C 1192.3 733.495 1176.04 735.27 1158.68 735.61 C 1143.02 735.917 1125.41 730.692 1111.07 730.549 C 1093.8 730.377 1071.37 733.374 1053.69 734.752 C 1026.9 736.839 1005.35 737.02 978.75 736.135 C 955.453 735.679 928.951 733.205 906 734.684 C 836.61 739.33 767.736 734.207 698.373 738.439 C 686.498 739.164 658.642 735.508 650.318 726.515 C 646.438 714.871 648.722 663.856 648.139 649.753 C 647.049 623.384 644.551 596.303 644.27 569.916 C 643.689 538.064 646.32 505.171 644.725 473.377 C 642.512 429.263 632.797 389.737 639.603 345.326 C 663.144 345.141 686.88 345.104 710.412 345.522 C 742.929 346.203 774.277 337.773 806.722 337.028 C 843.093 336.193 879.362 343.604 915.653 340.364 C 955.858 336.774 995.789 339.178 1036.02 338.938 C 1059.48 338.798 1083.35 337.103 1106.89 336.474 z" fill="rgb(244,237,222)" transform="translate(0,0)"></path>
<path d="M 1259.12 403.026 C 1281.24 401.053 1306.88 427.345 1320.15 439.548 C 1378.98 493.669 1404.3 506.36 1326.96 561.376 C 1322.43 564.594 1297.62 593.772 1288.54 601.837 C 1282.42 606.313 1276.14 611.036 1268.23 611.369 C 1262 611.632 1255.52 608.825 1250.97 604.644 C 1246.74 600.754 1244.59 595.554 1244.36 589.847 C 1243.47 567.979 1291.41 521.595 1307.5 504.881 C 1293.39 482.136 1261.23 460.444 1246.83 436.731 C 1237.74 421.754 1245.14 409.94 1259.12 403.026 z" fill="rgb(34,30,26)" transform="translate(0,0)"></path>
<path d="M 1066.04 403.102 C 1087.49 402.581 1096.14 419.213 1087.18 438.199 C 1081.76 449.691 1068.7 463.223 1060.2 473.166 C 1049.68 485.26 1039.42 497.58 1029.43 510.118 C 1045.36 523.332 1058.12 538.105 1071.63 553.639 C 1082.32 565.928 1098.85 581.282 1091.36 599.696 C 1089.26 604.848 1085.2 608.953 1080.06 611.108 C 1071.37 614.731 1062.64 612.527 1054.37 609.386 C 1044.68 603.567 1033.34 591.805 1025.38 582.661 C 1005.94 560.353 977.166 541.728 962.74 515.975 C 958.552 508.499 964.061 495.971 969.567 490.272 C 995.29 463.646 1022.39 437.817 1049.5 412.595 C 1053.8 408.599 1060.74 405.483 1066.04 403.102 z" fill="rgb(34,30,26)" transform="translate(0,0)"></path>
<path d="M 868.519 396.395 C 885.139 395.343 914.053 399.371 916.987 420.17 C 917.752 425.969 916.043 431.822 912.278 436.298 C 897.441 454.227 877.013 441.854 860.37 444.344 C 830.401 448.826 804.796 449.317 774.549 446.498 C 765.812 445.684 750.784 445.002 742.064 446.016 L 740.769 446.176 C 728.36 448.238 704.771 451.422 694.789 443.345 C 686.876 436.943 686.505 430.967 685.457 421.846 C 687.413 418.498 689.393 414.881 691.979 411.974 C 706.184 396.005 796.326 402.947 818.795 402.041 C 835.524 401.367 851.849 397.711 868.519 396.395 z" fill="rgb(34,30,26)" transform="translate(0,0)"></path>
<path d="M 1187.8 414.227 C 1192.59 413.557 1197.15 413.143 1201.69 415.162 C 1205.89 417.027 1208.99 421.028 1210.33 425.369 C 1217.58 448.821 1191.07 536.542 1183.36 562.09 C 1180.19 572.611 1177.54 586.774 1171.77 596.17 C 1166.3 605.084 1157.85 608.751 1148.19 611.132 C 1110.22 610.142 1127.72 568.661 1133.59 546.882 C 1138.78 527.114 1144.13 507.388 1149.65 487.707 C 1156.69 462.049 1160.81 427.09 1187.8 414.227 z" fill="rgb(34,30,26)" transform="translate(0,0)"></path>
<path d="M 732.221 585.343 C 754.844 584.383 775.484 586.814 797.589 587.159 C 814.31 586.386 829.982 584.488 846.867 584.849 C 865.265 585.242 875.712 603.879 864.006 618.694 C 856.763 627.86 846.813 631.796 835.248 633.056 C 814.936 634.954 794.328 632.347 774.043 632.685 C 759.404 632.929 744.185 636.578 729.373 634.857 C 715.918 633.136 699.842 629.414 696.193 614.35 C 691.155 593.553 715.952 587.279 732.221 585.343 z" fill="rgb(34,30,26)" transform="translate(0,0)"></path>
<path d="M 892.707 645.38 C 907.659 644.069 923.047 645.542 938.964 644.921 C 966.775 643.835 998.51 654.871 973.019 687.336 C 968.592 692.974 959.736 695.553 952.245 696.004 C 933.817 697.769 885.507 702.161 873.277 690.559 C 848.341 666.902 863.451 648.143 892.707 645.38 z" fill="rgb(34,30,26)" transform="translate(0,0)"></path>
<path d="M 744.891 511.412 C 745.158 511.38 745.424 511.348 745.691 511.316 C 765.121 512.738 804.238 503.228 804.464 532.682 C 804.537 538.709 802.149 544.504 797.852 548.731 C 787.749 558.743 767.27 557.292 754.199 557.072 C 743.72 557.142 711.834 562.413 702.54 555.075 C 692.544 547.181 689.595 525.606 703.561 518.89 C 715.715 513.046 730.809 512.613 744.891 511.412 z" fill="rgb(34,30,26)" transform="translate(0,0)"></path>
<path d="M 362.52 562.452 C 403.45 560.756 445.091 563.379 486.126 563.023 C 518.046 562.746 548.663 564.88 580.749 563.284 C 579.834 572.98 579.933 584.177 579.782 594.02 C 548.124 594.146 517.574 595.366 485.984 596.805 C 446.632 597.889 406.883 595.268 367.593 594.401 C 324.287 593.445 289.141 602.473 280.134 650.145 C 277.4 664.612 278.203 678.477 277.749 693.211 C 274.929 784.683 281.738 876.171 279.172 967.717 C 277.924 1013.62 289.348 1072 343.436 1079.47 C 362.084 1082.04 379.814 1080.56 398.579 1079.82 C 417.437 1078.95 436.316 1078.57 455.194 1078.7 C 495.643 1079.07 534.396 1083.88 575.561 1082.1 C 611.436 1082.15 648.577 1086.56 684.305 1082.32 C 726.718 1077.28 762.356 1056.88 767.456 1011.25 C 770.489 984.1 769.656 956.444 769.446 928.803 L 768.362 800.714 C 780.074 800.855 791.001 800.85 802.67 802.032 C 798.613 873.295 807.061 936.091 803.046 1004.75 C 801.661 1038.97 804.524 1072.71 804.079 1106.95 C 804.502 1136.5 800.6 1166.77 801.016 1196.24 C 801.805 1252.08 806.935 1305.95 804.297 1362 C 802.847 1392.82 809.262 1425.52 807.214 1457.18 C 762.761 1455.44 729.788 1459.27 686.847 1459.81 L 439.713 1460.9 C 422.109 1460.86 404.185 1459.21 386.771 1459.2 C 353.112 1459.2 320.909 1459.79 287.491 1455.03 C 277.487 1453.61 257.198 1454.99 246.813 1456.09 C 246.802 1395.91 245.013 1336.13 242.666 1276.03 C 242.725 1252.61 243.423 1229.17 243.786 1205.76 C 244.286 1173.29 242.382 1140.98 243.192 1108.5 C 244.008 1075.76 240.245 1043.01 240.72 1010.26 C 240.91 997.174 240.198 984.067 238.964 971.047 C 232.7 904.987 244.309 839.07 243.621 772.982 C 243.36 744.558 241.891 716.616 240.202 688.249 C 237.782 647.617 236.832 606.793 236.525 566.095 C 253.092 566.442 271.284 565.025 288.001 564.419 L 362.52 562.452 z" fill="rgb(244,237,222)" transform="translate(0,0)"></path>
<path d="M 370.255 1130.54 C 436.919 1127.15 505.262 1132.79 572.026 1132.85 C 622.157 1132.9 672.351 1131.67 722.464 1132.27 C 734 1130.53 759.557 1152.3 747.204 1163.19 C 733.62 1175.15 688.999 1171.79 672.469 1171.99 C 648.139 1173.11 623.249 1173.5 598.861 1173.64 C 550.514 1173.92 502.114 1170.51 453.718 1169.87 C 430.374 1169.59 407.026 1169.69 383.686 1170.17 C 367.702 1170.55 312.48 1174.13 302.254 1164.8 C 298.856 1161.74 296.857 1157.42 296.722 1152.84 C 296.117 1135.07 316.121 1133.22 329.243 1132.26 C 342.922 1131.27 356.55 1130.94 370.255 1130.54 z" fill="rgb(34,30,26)" transform="translate(0,0)"></path>
<path d="M 587.801 1289.44 C 617.211 1286.79 651.214 1289.94 681.042 1290.96 C 695.268 1291.45 731.064 1291.03 743.087 1299.57 C 758.334 1310.4 752.628 1334.85 731.379 1335.61 C 697.902 1336.8 663.914 1334.57 629.75 1335.04 L 536.016 1337.58 C 520.561 1338.15 505.272 1339.64 489.713 1339.36 C 473.04 1339.25 462.748 1318.88 474.073 1306.21 C 483.012 1296.21 500.32 1293.44 512.893 1292.62 C 537.847 1290.99 562.84 1290.34 587.801 1289.44 z" fill="rgb(34,30,26)" transform="translate(0,0)"></path>
<path d="M 353.013 1274.39 C 354.065 1274.31 355.119 1274.26 356.174 1274.22 C 370.658 1273.75 388.93 1275.33 399.481 1286.74 C 423.965 1313.22 420.501 1355.16 396.878 1381 C 387.771 1390.97 376.438 1393.74 363.665 1393.91 C 345.699 1394.16 327.902 1390.71 314.308 1379.4 C 289.198 1358.51 292.427 1313.23 315.284 1291.76 C 328.767 1279.1 335.589 1276.1 353.013 1274.39 z" fill="rgb(34,30,26)" transform="translate(0,0)"></path>
<path d="M 340.258 1195.43 C 364.313 1194.17 391.168 1196.3 415.649 1196.02 C 434.637 1196.17 452.616 1194.93 471.683 1195.44 C 488.98 1195.9 496.308 1224.71 486.899 1235.63 C 480.898 1242.59 458.018 1241.72 448.75 1241.95 C 420.559 1242.72 392.361 1243.23 364.161 1243.46 C 349.737 1243.61 335.855 1243.99 321.339 1243.02 C 304.353 1241.89 291.388 1218.18 304.089 1205.16 C 313.372 1195.65 327.746 1196.05 340.258 1195.43 z" fill="rgb(34,30,26)" transform="translate(0,0)"></path>
<path d="M 394.063 635.447 C 409.707 634.159 437.485 634.89 453.827 634.933 L 578.843 635.789 C 578.877 688.162 579.143 771.851 634.387 797.295 C 651.68 805.26 663.815 802.801 681.699 802.703 C 694.064 802.731 706.429 802.832 718.793 803.007 C 719.066 804.84 719.275 806.682 719.421 808.53 C 722.081 847.243 720.112 889.603 719.063 929.509 C 718.536 949.521 719.954 1003.27 707.551 1020.3 C 700.362 1030.17 666.609 1032.16 653.249 1032.9 C 598.131 1035.61 538.683 1032.08 483.289 1030.73 C 437.362 1029.61 384.588 1039.54 340.85 1027.35 C 338.82 1024.72 336.939 1021.98 335.219 1019.13 C 321.918 997.076 327.666 925.735 326.93 898.503 C 325.142 832.346 326.674 764.531 328.164 698.31 C 328.519 682.553 329.698 660.532 333.396 645.592 C 336.942 641.925 338.437 640.361 342.673 637.259 C 358.275 635.299 377.705 636.053 394.063 635.447 z" fill="rgb(139,149,251)" transform="translate(0,0)"></path>
<path d="M 409.908 656.278 C 420.579 654.908 434.191 655.159 433.336 670.519 C 433.032 675.984 428.781 679.478 424.653 682.573 C 404.725 686.917 395.882 668.628 408.812 657.271 L 409.908 656.278 z" fill="rgb(34,30,26)" transform="translate(0,0)"></path>
<path d="M 369.697 656.089 C 387.734 657.159 389.161 676.396 373.504 684.497 C 354.229 681.838 354.585 662.825 369.697 656.089 z" fill="rgb(34,30,26)" transform="translate(0,0)"></path>
<path d="M 1309.6 209.437 C 1329.18 209.011 1412.59 204.296 1425.97 216.063 C 1434.01 223.131 1433.78 280.587 1434.42 294.206 C 1408.99 292.806 1381.46 294.053 1356.5 291.09 C 1311.04 285.693 1267.64 289.902 1222.19 289.852 C 1192.76 289.82 1163.84 283.216 1134.16 283.047 C 1102.29 282.865 1070.97 284.951 1039.16 286.304 C 1001.63 287.203 962.172 283.335 924.775 286.652 C 891.223 289.627 862.68 289.84 829.113 286.684 C 810.911 284.972 788.015 286.762 769.755 288.419 C 734.709 291.029 700.151 301.087 664.827 294.031 C 657.852 292.638 647.008 293.167 639.689 293.374 C 636.183 274.068 632.282 245.171 645.792 227.73 C 650.091 222.18 664.376 220.311 671.441 220.31 C 710.696 220.304 749.899 218.712 789.124 217.587 C 803.321 217.223 818.761 219.702 833.119 219.789 C 877.46 220.061 921.798 220.503 966.136 220.85 C 981.412 221.107 997.523 217.813 1012.71 218.156 C 1038.81 219.812 1065.61 217.216 1091.45 217.892 C 1127.16 218.825 1160.34 216.79 1195.94 214.975 L 1309.6 209.437 z" fill="rgb(139,149,251)" transform="translate(0,0)"></path>
<path d="M 1374.58 229.686 C 1385.26 228.284 1395.05 235.83 1396.41 246.516 C 1397.77 257.203 1390.18 266.96 1379.49 268.278 C 1368.86 269.588 1359.17 262.055 1357.82 251.428 C 1356.46 240.801 1363.96 231.081 1374.58 229.686 z" fill="rgb(34,30,26)" transform="translate(0,0)"></path>
<path d="M 1308.04 231.077 C 1338 230.286 1339.31 258.237 1316.8 266.267 C 1293.24 270.757 1284.41 242.327 1308.04 231.077 z" fill="rgb(34,30,26)" transform="translate(0,0)"></path>
<path d="M 1244.57 233.042 C 1268.36 231.351 1272.46 260.409 1246.81 268.038 C 1222.18 268.782 1217.51 241.726 1241.52 234.001 L 1244.57 233.042 z" fill="rgb(34,30,26)" transform="translate(0,0)"></path>
<path d="M 782.427 1499.45 C 788.136 1498.94 798.195 1499.03 804.253 1498.89 C 800.584 1513.97 794.606 1551.54 779.289 1557.65 C 747.238 1570.43 712.224 1569.77 678.45 1571.84 C 657.714 1573.1 636.686 1576.94 615.847 1577.55 C 575.248 1578.21 534.521 1577.49 493.946 1576.92 C 479.626 1576.72 462.992 1577.95 449.376 1577.29 C 414.295 1575.59 378.695 1574.42 343.741 1571.57 C 323.899 1569.95 302.034 1569.13 283.188 1563.17 C 278.403 1560.64 274.315 1557.15 270.184 1553.73 C 251.051 1537.89 250.907 1524.48 248.752 1501.69 C 276.77 1504.37 307.384 1502.59 335.661 1501.97 C 360.495 1501.66 385.332 1501.63 410.167 1501.9 C 494.046 1502.4 577.836 1504.94 661.69 1502.88 C 701.998 1501.89 742.128 1501.01 782.427 1499.45 z" fill="rgb(244,237,222)" transform="translate(0,0)"></path>
<path d="M 365.166 1522.43 C 372.236 1521.83 387.886 1520.63 392.726 1526.69 C 415.592 1555.37 340.967 1547.5 326.751 1547.22 C 314.866 1546.75 297.039 1550.53 293.029 1534.79 C 296.807 1517.64 349.843 1523.52 365.166 1522.43 z" fill="rgb(34,30,26)" transform="translate(0,0)"></path>
<path d="M 723.366 1522.53 C 737.442 1522.08 776.106 1517.79 760.792 1544.5 C 756.814 1551.43 716.183 1547.92 707.475 1547.72 C 698.774 1547.86 674.964 1549.17 671.294 1544.3 C 650.186 1516.28 717.484 1522.76 723.366 1522.53 z" fill="rgb(34,30,26)" transform="translate(0,0)"></path>
<path d="M 390.978 482.441 C 413.58 481.259 441.878 482.512 464.968 482.838 C 504.511 483.679 544.07 483.385 583.595 481.957 C 585.549 496.653 585.47 508.627 584.402 523.274 C 534.429 522.646 486.882 521.89 436.75 522.013 C 392.873 521.521 350.139 523.486 306.425 525.725 C 286.219 526.76 266.406 525.799 245.489 527.123 C 248.974 518.58 253.086 509.832 259.229 502.865 C 273.682 486.473 308.116 487.572 328.97 486.252 L 390.978 482.441 z" fill="rgb(244,237,222)" transform="translate(0,0)"></path>
<path d="M 1718.13 1169.58 C 1748.55 1167.11 1785.26 1170.38 1816.14 1171.02 C 1840.76 1171.53 1864.07 1168.55 1887.84 1168.86 C 1916.56 1169.24 1946.88 1172.68 1975.86 1173.09 C 1996.6 1173.19 2017.34 1172.92 2038.06 1172.27 C 2057.01 1171.55 2075.3 1170.08 2094.3 1171.98 C 2128.03 1175.36 2149.11 1199.85 2155.09 1232.2 C 2160.25 1260.14 2150.88 1286.62 2150.4 1314.3 C 2150.1 1331.9 2158.27 1349.86 2158.83 1367.46 C 2159.64 1391.19 2152.23 1417.42 2152.26 1440.81 C 2152.3 1466.7 2159.88 1494.13 2162.15 1520.58 C 2166.03 1547.85 2154.76 1582.6 2135.39 1602.82 C 2107 1632.47 2044.74 1625.58 2007.24 1622.93 C 1994.74 1622.04 1977.73 1624.12 1965.25 1624.87 C 1922.81 1627.53 1882.72 1628.72 1840.19 1627.08 C 1806.52 1625.78 1770.41 1621.82 1736.94 1622.21 C 1683.79 1622.83 1630.96 1631.45 1577.65 1624.12 C 1564.01 1622.24 1550.86 1619.47 1540.09 1610.21 C 1528.95 1600.97 1517.43 1581.11 1515.74 1566.23 C 1512.32 1536.03 1515.68 1502.45 1513.12 1471.6 C 1511.86 1456.35 1514.95 1438.82 1514.2 1423.06 C 1513.32 1404.65 1512.39 1387.24 1510.36 1368.91 C 1506.58 1339.51 1508.94 1310.8 1510.25 1281.5 C 1510.7 1253.13 1513.04 1220.56 1532.77 1197.94 C 1562.4 1163.96 1618.71 1174.73 1659.22 1172.84 C 1679.39 1171.9 1698.1 1171.14 1718.13 1169.58 z" fill="rgb(34,30,26)" transform="translate(0,0)"></path>
<path d="M 1745.62 1228.44 C 1760.49 1227.82 1777.36 1231.2 1792.9 1231.35 C 1815.42 1231.57 1837.55 1228.39 1859.8 1227.92 C 1877.96 1227.53 1897.88 1230.25 1916.3 1230.18 C 1962.87 1229.99 2009.97 1226.66 2056.46 1229.23 C 2064.22 1229.66 2082.27 1230.95 2087.03 1237.33 C 2092.67 1244.9 2093.3 1256.97 2093.77 1266.12 C 2095.66 1303.43 2090.09 1340.27 2090.46 1377.31 C 2090.74 1396.56 2093.84 1416.03 2094.56 1435.21 C 2095.51 1460.57 2094.5 1485.86 2097.35 1511.17 C 2098.35 1520.07 2099.38 1529.58 2098.58 1538.5 C 2097.46 1551.08 2091.66 1559.39 2082.19 1567.01 C 2078.44 1567.6 2074.07 1567.91 2070.26 1568.11 C 2043.94 1569.45 2017.75 1573.91 1991.38 1571.4 C 1985.53 1570.84 1979.11 1570.69 1973.2 1570.42 C 1955.64 1569.78 1938.07 1569.33 1920.5 1569.07 C 1886.76 1568.3 1852.44 1570.04 1818.77 1567.98 C 1786.87 1566.02 1759.49 1560.26 1727.1 1560.71 C 1691.46 1561.21 1658.86 1567.03 1623.3 1569 C 1611.46 1569.66 1591.54 1568.93 1581.59 1560.77 C 1577.04 1557.04 1571.22 1544.78 1570 1538.71 C 1567.11 1524.22 1567.14 1508.07 1566.88 1493.42 C 1566.19 1454.1 1570.06 1415.4 1571.29 1376.17 C 1572.35 1350.97 1570.2 1326.92 1569.3 1301.69 C 1568.65 1283.12 1567.97 1255.15 1581.23 1240.24 C 1584.12 1237 1590.58 1232.94 1594.98 1232.58 C 1616.74 1230.75 1638.62 1236.02 1660.45 1235.19 C 1689.23 1234.6 1717.14 1229.5 1745.62 1228.44 z" fill="rgb(139,149,251)" transform="translate(0,0)"></path>
<path d="M 1818.13 1406.17 C 1838.62 1404.61 1848.61 1407.24 1866.93 1420.32 C 1890.94 1437.45 1891.2 1491.06 1877.08 1513.25 C 1870.01 1524.36 1846.03 1531.36 1832.24 1532.66 C 1746.63 1538.24 1740.84 1423.96 1818.13 1406.17 z" fill="rgb(34,30,26)" transform="translate(0,0)"></path>
<path d="M 1647.67 819.432 C 1684.46 815.529 1717.39 827.658 1752.49 827.091 C 1795.75 826.392 1838.32 826.891 1881.59 828.049 C 1904.32 828.658 1929.75 823.147 1952.94 823.627 C 1970.08 823.981 1986.21 825.777 2003.25 827.068 C 2053.41 829.174 2115.68 812.272 2138.51 872.034 C 2153.01 909.985 2138.04 937.031 2137.47 975.471 C 2136.85 1017.46 2148.86 1065.74 2113.7 1098.79 C 2086.61 1123.14 2029.43 1121.68 1994.75 1119.79 C 1944.83 1115.83 1897.94 1122.07 1848.28 1123.05 C 1811.6 1123.78 1777.81 1116.39 1740.25 1122.05 C 1724.28 1124.45 1700.01 1121.36 1682.94 1123.11 C 1669.48 1124.5 1650.68 1119.75 1636.71 1120.08 C 1606.18 1119.8 1560.71 1129.53 1535.2 1108.8 C 1517.76 1094.63 1503.97 1066.67 1502.75 1044.52 C 1500.67 1006.69 1498.63 967.904 1501.7 930 C 1504.04 897.056 1498.5 879.86 1521.83 852.561 C 1546.35 823.878 1564.7 824.225 1600.53 822.808 C 1615.13 822.231 1632.88 820.542 1647.67 819.432 z" fill="rgb(34,30,26)" transform="translate(0,0)"></path>
<path d="M 1644.73 864.472 C 1684.73 863.927 1712.13 871.402 1751.15 873.377 C 1771.93 874.429 1792.82 872.277 1813.5 872.2 L 1948.5 872.07 C 1966.42 872.115 1985.23 874.625 2004.24 875.695 C 2027.22 876.988 2071.29 867.905 2090.41 881.373 C 2105.4 894.747 2096.08 925.976 2094.07 945.383 C 2090.99 975.16 2102.59 1038.79 2084.46 1061.82 C 2071.94 1077.73 2026.77 1072.5 2005.02 1074.16 C 1986.88 1075.77 1966.14 1072.76 1947.88 1073 C 1925.65 1073.29 1905.21 1075.57 1882.8 1075.35 C 1847.7 1075.02 1812.63 1070.08 1777.9 1069.78 C 1761.94 1069.54 1745.99 1069.98 1730.08 1071.1 C 1716.86 1072.08 1703.57 1073.76 1690.39 1074.52 C 1674.82 1075.41 1658.48 1073.66 1643.01 1073.71 C 1623 1073.78 1603.97 1074.99 1583.87 1073.35 C 1574.78 1072.6 1567.45 1072.37 1559.64 1066.21 C 1552.42 1060.52 1550.53 1049.2 1549.95 1040.51 C 1547.66 1006.06 1549.02 971.402 1549.77 936.912 C 1550.08 922.603 1548.62 907.792 1550.65 893.725 C 1551.48 887.96 1553.98 881.117 1557.99 876.854 C 1570.47 863.614 1594.61 866.486 1611.49 865.969 C 1622.58 865.583 1633.66 865.084 1644.73 864.472 z" fill="rgb(139,149,251)" transform="translate(0,0)"></path>
<path d="M 1958.29 166.215 C 2003.41 162.036 2010.18 177.751 2013.18 217.481 C 2027.16 219.368 2031.82 220.197 2044.7 225.663 C 2059.16 210.515 2076.36 192.92 2096.93 209.825 C 2133.02 239.484 2132.73 250.798 2104.99 284.537 C 2108.23 290.055 2111.49 299.807 2113.81 306.077 C 2127.44 308.559 2151.8 306.259 2157.45 321.774 C 2164.36 340.75 2166.05 362.147 2158.72 381.262 C 2142.62 392.169 2129.53 391.556 2111.29 391.013 C 2109.36 395.432 2107.33 401.626 2105.66 406.311 C 2115.89 415.191 2132.13 433.302 2136.03 446.129 C 2141.22 463.19 2108.54 499.209 2093.75 502.364 C 2078.21 505.681 2053.88 484.005 2040.55 475.477 C 2036.5 477.607 2032.46 479.041 2028.2 480.688 C 2028.77 494.544 2026.83 520.019 2016.87 530.665 C 2008.01 540.129 1990.6 539.835 1978.26 540.516 C 1966.46 540.692 1958.35 539.89 1947.52 535.492 C 1939.81 523.099 1934.48 498.198 1933.11 483.752 C 1925.45 482.109 1917.32 479.493 1909.76 477.234 C 1898.31 486.089 1882.93 504.207 1869.26 507.455 C 1850.95 511.806 1818.45 476.062 1816.59 459.481 C 1814.86 444.09 1838.78 429.031 1848.83 416.667 L 1839.51 399.102 C 1816.49 400.403 1786.86 405.199 1783.47 373.624 C 1778.54 327.569 1790.83 322.734 1830.95 317.019 C 1833.46 309.989 1837.1 301.693 1839.96 294.676 C 1827.34 284.544 1806.61 264.119 1818.08 247.419 C 1827.36 233.904 1845.49 214.081 1861.61 209.25 C 1874.8 205.296 1889.99 224.4 1901.07 231.284 L 1902.3 232.037 C 1910.59 226.271 1916.63 223.358 1925.59 218.964 C 1930.02 189.659 1922.98 173.19 1958.29 166.215 z" fill="rgb(34,30,26)" transform="translate(0,0)"></path>
<path d="M 1964.36 284.291 C 1975.49 283.664 1992.62 284.941 2002.61 290.082 C 2017.19 298.181 2041.36 318.511 2045.9 334.937 C 2058.93 381.991 2032.11 409.607 1990.6 423.696 L 1989.42 423.908 C 1951.19 430.485 1912.45 413.259 1908.3 372.59 C 1906.68 356.694 1904.71 331.933 1916 318.653 C 1931.74 300.119 1939.26 287.914 1964.36 284.291 z" fill="rgb(244,237,222)" transform="translate(0,0)"></path>
<path d="M 1189.99 946.178 C 1198.05 944.967 1201.67 945.424 1208.57 949.837 C 1224.18 959.834 1237.39 972.695 1251.75 984.192 C 1261.94 992.25 1273.36 999.935 1283.45 1007.95 C 1303.96 1024.24 1327.3 1034.36 1307.88 1063.43 C 1296.54 1080.42 1285.3 1093.79 1269.24 1106.91 C 1261.89 1112.91 1254.3 1119.06 1247.14 1125.31 C 1232.35 1139.48 1220.88 1160.71 1199.44 1165.42 C 1180.4 1169.6 1178.21 1149.33 1175.99 1135.67 C 1174.61 1127.11 1173.74 1117.78 1172.7 1108.99 L 1139.25 1107.75 C 1102.05 1106.86 1063.98 1109.16 1027.49 1108.17 C 987.94 1106.8 956.607 1120.87 961.898 1066.45 C 966.925 1014.73 943.335 988.368 1016.79 988.07 C 1068.26 987.862 1122.09 994.273 1173.46 986.891 C 1177.28 969.65 1173.24 954.836 1189.99 946.178 z" fill="rgb(34,30,26)" transform="translate(0,0)"></path>
<path d="M 1209.65 993.455 C 1213.72 996.405 1224.04 1007.89 1228.19 1012.07 C 1240.75 1024.7 1253.61 1037.02 1266.75 1049.04 C 1259.35 1055.54 1249.91 1062.55 1243.28 1069.07 C 1233.12 1079.07 1222.93 1090.32 1213.08 1100.74 C 1212.76 1078.38 1209.54 1069.62 1184.99 1066.07 C 1168.65 1063.71 1150.41 1064.31 1133.85 1064.07 C 1118.37 1063.85 1101 1062.84 1085.75 1064.58 C 1057.69 1069.35 1030.44 1067.89 1002.01 1068.35 C 1001.96 1057.23 1000.7 1042.99 999.994 1031.66 C 1021.92 1031.87 1189.47 1035.63 1195.73 1031.39 C 1204.32 1025.56 1207.59 1003.29 1209.65 993.455 z" fill="rgb(139,149,251)" transform="translate(0,0)"></path>
<path d="M 1556.61 505.301 C 1662.28 497.544 1775.71 576.244 1814.93 672.263 C 1824.22 695.008 1830.7 719.175 1839.26 742.246 C 1847.49 734.346 1863.41 728.318 1866.07 745.09 C 1867.06 751.333 1857.87 763.554 1853.67 768.934 C 1841.61 784.375 1840.09 795.291 1818.34 794.089 C 1810.76 792.038 1802.04 786.728 1796.69 780.907 C 1789.45 773.014 1763.45 761.455 1769.29 749.505 C 1776.22 735.336 1793.11 746.074 1802.84 750.66 C 1798.2 738.713 1792.88 722.803 1789.93 710.404 C 1782.95 681.137 1772.12 665.351 1754.67 641.596 C 1726.31 602.974 1691.28 571.028 1645.26 554.946 C 1634.39 551.147 1623.93 546.522 1612.48 544.352 C 1602.94 542.473 1593.1 540.416 1583.38 538.935 C 1572.4 537.302 1560.64 540.583 1550.42 535.26 C 1542.05 530.9 1539.03 519.626 1544.24 511.623 C 1546.91 507.512 1551.89 506.245 1556.61 505.301 z" fill="rgb(34,30,26)" transform="translate(0,0)"></path>
<metadata><recraft-signature>{"signed_by": "recraft", "signature_b64": "ZAxD8jIuprsN16lG1JGlXfKUQ0ZY85EjAjzBLTZgPD+QlYNqWOal/SXeE93/LCxLEHZbXIfz+sIjKMexK/f5DQ==", "signing_algo": "Ed25519", "generation_timestamp": 1782914653, "identifier": "73954e78-22bd-43b4-b62f-6d7b6710ed82"}</recraft-signature></metadata></svg>