<svg xmlns="http://www.w3.org/2000/svg" height="1792" preserveAspectRatio="none" style="display: block;" version="1.1" viewBox="0 0 2432 1792" width="2432">
<path d="M 0 0 L 2432 0 L 2432 1792 L 0 1792 L 0 0 z" fill="rgb(244,237,222)" transform="translate(0,0)"></path>
<path d="M 1466.22 1218.58 C 1494.09 1215.95 1518.56 1218.78 1546.2 1220.79 C 1562 1221.94 1580.72 1218.26 1596.77 1219.27 C 1607.33 1219.92 1617.72 1222.38 1628.31 1222.54 C 1640.49 1223.48 1661.14 1217.08 1672.55 1218.64 C 1694.33 1221.64 1711.76 1222.24 1733.81 1220.7 C 1743.74 1220.01 1758.17 1222.2 1768.84 1222.29 C 1798.59 1222.53 1827.73 1220.21 1857.4 1218.61 C 1865.54 1218.26 1879.89 1221.79 1889.25 1221.92 C 1907.88 1222.17 1925.42 1219.16 1943.94 1218.79 C 1955.11 1218.56 1969.57 1222.45 1980.52 1222.26 C 2007.45 1221.72 2033.82 1216.94 2060.65 1222.3 C 2068.17 1223.8 2071.74 1229.4 2071.86 1236.87 C 2072.08 1250.98 2069.37 1265.58 2069.83 1279.66 C 2068.94 1296.23 2076.17 1321.73 2074.05 1337.7 C 2070.58 1363.9 2070.44 1387.28 2071.12 1413.8 C 2071.41 1425.31 2068.77 1438.59 2068.93 1450.38 C 2069.13 1465.01 2071.69 1479.34 2071.55 1493.96 C 2071.72 1510.84 2067.41 1529.68 2068.15 1546.38 C 2069.04 1566.45 2069.43 1584.3 2068.29 1604.42 C 2067.55 1617.44 2069.74 1625.21 2066.7 1638.99 C 2052.47 1649.65 1985.77 1646.21 1967.29 1645.05 C 1945.26 1643.49 1923.81 1646.28 1901.97 1645.49 C 1891.72 1645.11 1881.51 1643.86 1871.26 1643.33 C 1857.31 1642.61 1843.25 1643.02 1829.27 1642.53 C 1807.2 1641.76 1784.98 1640.24 1762.89 1640.59 C 1750.9 1640.78 1739.03 1643.18 1727.1 1644.21 C 1714.64 1645.29 1701.75 1644.83 1689.24 1644.88 C 1679.03 1644.92 1668.87 1645.05 1658.7 1644.1 C 1648.16 1643.11 1637.53 1641.15 1626.96 1640.8 C 1612.61 1640.33 1598.29 1643.15 1583.94 1643.14 C 1566.27 1643.12 1548.55 1640.17 1530.91 1640.44 C 1523.39 1640.55 1516.01 1643.27 1508.53 1643.13 C 1497.39 1642.91 1486.42 1639.54 1475.24 1639.46 C 1456.56 1639.33 1381.59 1649.03 1368.74 1640.28 C 1365.4 1638 1363.95 1635.11 1363.36 1631.17 C 1362.01 1622.2 1365.17 1612.44 1365.33 1603.38 C 1365.52 1592.36 1362.48 1581.31 1362.56 1570.24 C 1362.63 1559.53 1365.92 1549.01 1366.11 1538.3 C 1366.42 1520.91 1362.31 1503.19 1361.97 1485.65 C 1361.54 1463.56 1360.41 1440.97 1361.22 1418.91 C 1361.74 1404.71 1364.43 1390.62 1364.75 1376.39 C 1365.07 1362.01 1362.49 1347.57 1363 1333.23 C 1363.4 1322.16 1366.01 1311.22 1366.34 1300.12 C 1366.89 1281.63 1362.81 1263.27 1363.76 1244.56 C 1364.04 1239.03 1364.42 1230.97 1368 1226.53 C 1370.27 1223.71 1373.54 1222.63 1377.01 1222.09 C 1385.89 1220.7 1395.63 1222.1 1404.64 1221.91 C 1414.8 1221.69 1424.92 1219.8 1435.07 1219.22 C 1445.04 1218.64 1455.04 1219.65 1465 1218.71 L 1466.22 1218.58 z" fill="rgb(34,30,26)" transform="translate(0,0)"></path>
<path d="M 1909.12 1424.45 C 1925.27 1424.19 1941.38 1426.14 1957.51 1426.51 C 1979.91 1427.02 2002.32 1424.85 2024.69 1426.64 C 2030.92 1427.13 2037.2 1427.28 2043.45 1427.55 C 2045.56 1450.8 2043.33 1465.65 2043.25 1488.32 C 2043.16 1518.17 2044.19 1548.39 2042.66 1578.45 C 2042.15 1588.48 2046.81 1608.75 2047.72 1620.49 C 2025.6 1615.98 2008.61 1620.7 1987.91 1619.46 C 1958.04 1617.66 1931.06 1616.37 1901.06 1619.7 C 1895.28 1620.34 1882.88 1617.33 1876.54 1616.71 C 1867.35 1615.82 1858.05 1614.68 1848.73 1614.83 C 1824.4 1614.25 1800.25 1617.5 1776.09 1617.86 C 1761.8 1618.07 1744.35 1614.15 1729.84 1615.11 C 1707.29 1616.61 1685.54 1619.61 1662.83 1619.35 C 1647.86 1620.11 1630.03 1613.41 1615.52 1613.91 C 1583.94 1615.01 1564.41 1620.26 1532.23 1615.18 C 1509.66 1612.3 1486.18 1614.71 1463.68 1616.24 C 1451.85 1617.05 1438.42 1615.28 1426.57 1615.91 C 1414.21 1616.57 1400.54 1619.28 1388.32 1621.62 L 1389.16 1427.24 C 1418 1425.4 1448.99 1426.74 1477.92 1426.81 C 1499.32 1426.87 1519.87 1425.13 1541.75 1426.41 C 1553.05 1425.46 1569.69 1429.71 1580.53 1428.59 C 1621.64 1424.35 1662.14 1426.58 1703.34 1428.29 C 1712.23 1428.66 1723.11 1425.52 1731.99 1425.91 C 1762.45 1427.26 1792.28 1427.82 1822.72 1425.47 C 1835.03 1424.58 1850.13 1427.48 1862.81 1427.01 C 1878.24 1426.44 1893.67 1425.27 1909.12 1424.45 z" fill="rgb(244,237,222)" transform="translate(0,0)"></path>
<path d="M 1766.59 1246.37 C 1779.32 1245.85 1794.46 1247.29 1807.45 1247.63 L 1873.33 1248.77 C 1904.77 1249.11 1935.04 1244.73 1966.97 1249.11 C 1975.86 1250.33 1990.81 1247.42 2000.5 1247.92 C 2016.71 1248.74 2032.37 1248.93 2048.49 1246.65 C 2045.9 1270.33 2042.29 1281.97 2046.15 1306.77 C 2047.6 1316.08 2044.16 1336.1 2044.83 1346.57 C 2045.57 1357.92 2048.37 1404.78 2042.69 1412.17 C 2003.62 1405.6 1988.2 1410.61 1951.62 1410.86 L 1763.83 1411.07 C 1764.35 1400.51 1761.31 1393.36 1761.57 1387.12 C 1761.36 1377.02 1765.96 1360 1764.4 1350.5 C 1760.24 1325.22 1760.21 1305.21 1764.26 1279.73 C 1765.64 1271.05 1761.98 1253.79 1763.35 1247.29 L 1766.59 1246.37 z" fill="rgb(244,237,222)" transform="translate(0,0)"></path>
<path d="M 1595.75 1243.49 C 1619.15 1242.65 1642.67 1244.33 1665.99 1245.39 C 1680 1246.02 1695.36 1244.18 1709.47 1244.33 C 1722.74 1244.48 1736.08 1245.78 1749.36 1246.16 C 1750.06 1270.62 1748.67 1292.21 1746.77 1316.5 C 1745.64 1325.12 1750.23 1344.27 1748.77 1351.68 C 1744.96 1371.02 1749.59 1393.33 1747.46 1411.18 C 1739.71 1411.4 1731.79 1411.82 1724.1 1411.06 C 1688.14 1411.54 1652.99 1412.43 1616.91 1410.97 C 1602.48 1410.38 1586.63 1412.91 1571.61 1412.52 C 1570.28 1391.18 1568.84 1365.9 1567.76 1344.47 C 1567.04 1330.05 1573.52 1315.82 1570.96 1298.57 C 1568.49 1281.89 1571.58 1262.52 1569.87 1245 C 1578 1245.02 1587.53 1244.09 1595.75 1243.49 z" fill="rgb(47,95,175)" transform="translate(0,0)"></path>
<path d="M 1510.17 1243.39 C 1527.31 1242.01 1539.76 1243.87 1556.86 1245.6 C 1557.7 1257.27 1555.25 1267.47 1555.39 1278.44 C 1557.22 1299.33 1553.22 1320.7 1553.04 1341 C 1552.85 1362.64 1556.63 1388.06 1557.3 1410.33 C 1532.14 1410.84 1507.52 1409.21 1482.56 1410.44 C 1466.71 1411.23 1451.54 1411.26 1435.7 1411.16 C 1418.26 1410.46 1405.54 1411.64 1388.11 1413.06 C 1386.87 1380.3 1389.95 1347.11 1389.88 1314.49 C 1389.83 1289.89 1386.78 1268.97 1388.07 1243.79 C 1408.28 1246.32 1418.66 1245.45 1438.55 1244.69 C 1445.93 1244.41 1459.46 1245.98 1467.92 1246.09 C 1483.43 1246.28 1494.8 1245.13 1510.17 1243.39 z" fill="rgb(47,95,175)" transform="translate(0,0)"></path>
<path d="M 555.47 859.374 C 579.628 832.1 600.5 803.6 640.109 801.492 C 656.421 800.624 673.319 806.572 685.559 817.261 C 702.454 832.015 698.581 850.361 693.89 868.975 C 704.246 857.777 710.836 842.955 720.447 831.468 C 730.992 818.863 751.152 805.301 767.985 803.841 C 788.004 802.279 806.255 812.696 816.09 829.946 C 824.386 844.057 822.841 856.815 820.538 872.287 C 829.878 856.408 838.073 840.76 850.904 827.297 C 858.761 818.662 865.596 811.283 877.518 808.563 C 893.186 804.99 912.208 804.243 926.424 813.068 C 953.606 829.943 955.014 861.054 950.466 889.917 C 958.112 879.406 963.771 867.649 970.884 858.277 C 990.938 831.854 1021.59 812.931 1053.81 805.66 C 1070.12 802.877 1089.43 811.838 1102.37 820.775 C 1115.21 829.649 1122.96 847.614 1125.14 862.824 C 1132.36 913.067 1101.38 975.419 1072.89 1015.65 C 1051.07 1046.45 1014.34 1079.19 980.357 1094.04 C 974.239 1096.57 956.185 1099.86 949.478 1100.38 C 918.41 1102.8 895.761 1104.53 870.459 1083.48 C 862.013 1076.45 857.368 1073.07 851.734 1063.39 C 832.174 1083.92 811.555 1095.65 782.497 1097.34 C 739.168 1099.85 703.883 1078.09 700.93 1031.17 C 682.221 1062.15 672.621 1085.33 634.03 1095.08 C 594.433 1105.08 563.529 1084.46 559.146 1044.4 C 559.465 1040.27 559.596 1038.06 559.351 1033.93 L 558.332 1034.25 L 556.298 1038.99 C 544.286 1064.39 522.516 1083.87 495.934 1092.99 C 479.726 1098.7 460.128 1098.69 444.433 1091.34 C 431.226 1085.15 417.245 1069.7 412.728 1056.03 C 409.945 1047.6 405.564 1023.74 406.365 1015.15 C 410.048 975.699 423.345 922.108 440.533 887.078 C 456.649 856.706 477.888 819.348 512.218 807.551 C 521.245 804.449 533.888 803.093 542.07 807.801 C 560.082 818.167 559.133 841.817 555.47 859.374 z" fill="rgb(34,30,26)" transform="translate(0,0)"></path>
<path d="M 1057.14 820.472 C 1078.03 818.741 1105.81 835.975 1109.83 858.269 C 1118.42 905.895 1094.18 955.783 1068.92 995.533 C 1048.62 1027.46 1005.83 1071.64 967.875 1081.76 C 928.54 1088.98 909.957 1091.77 877 1071.09 C 844.809 1042.52 842.144 1002.68 853.781 963.43 C 856.621 953.85 856.322 940.329 869.068 936.445 C 880.757 938.63 879.975 962.574 891.781 974.083 C 914.968 999.297 927.105 958.238 937.141 942.053 C 964.095 898.583 997.087 823.19 1057.14 820.472 z" fill="rgb(47,95,175)" transform="translate(0,0)"></path>
<path d="M 765.675 818.015 C 777.347 818.305 788.687 821.125 797.259 829.658 C 802.388 834.742 805.68 841.389 806.613 848.551 C 809.36 868.697 797.2 907.461 791.84 928.186 C 787.866 943.55 766.404 984.562 802.124 980.38 C 818.882 978.418 832.832 958.8 842.141 945.842 C 841.177 953.361 839.717 960.376 837.753 967.69 C 829.439 998.637 830.801 1020.38 843.867 1049.28 C 818.343 1080.12 779.567 1092.4 742.162 1075.31 C 682.697 1036.34 746.591 985.655 728.575 940.415 C 726.991 936.667 721.193 929.489 716.844 928.994 C 684.374 925.296 679.708 964.887 652.487 978.55 C 659.419 955.418 682.743 912.582 696.193 893.094 C 716.008 864.384 731.619 831.125 765.675 818.015 z" fill="rgb(244,237,222)" transform="translate(0,0)"></path>
<path d="M 526.609 820.247 L 531.061 819.669 C 534.573 820.7 537.244 823.672 540.086 826.201 C 545.992 857.411 536.605 865.429 526.518 893.194 C 516.558 920.611 496.581 948.401 493.441 977.024 C 492.569 984.968 507.644 999.291 515.446 997.198 C 541.741 990.142 557.217 954.225 575.692 934.476 L 576.618 933.498 C 580.213 933.254 584.917 932.629 587.751 934.81 C 586.781 939.792 575.985 957.517 573.433 963.743 C 564.288 986.057 554.701 1006.2 543.963 1027.72 C 526.694 1065.83 488.402 1095.94 444.32 1073.46 C 423.775 1062.99 419.685 1025.29 422.538 1004.54 C 430.139 949.274 461.815 830.808 526.609 820.247 z" fill="rgb(47,95,175)" transform="translate(0,0)"></path>
<path d="M 601.395 932.51 C 599.867 928.22 598.116 923.608 593.165 921.876 C 586.242 919.455 575.464 920.943 568.589 923.526 C 552.812 931.402 530.688 980.715 513.882 981.256 C 510.02 979.367 511.559 980.689 509.127 977.091 C 508.056 961.485 521.362 945.785 527.62 932.347 C 540.689 904.284 556.169 882.732 575.527 859.096 C 600.097 829.097 640.27 795.696 677.686 829.429 C 679.275 830.857 680.804 832.348 682.271 833.901 C 682.966 836.202 684.61 841.671 684.407 843.799 C 681.488 874.399 662.833 913.276 648.703 939.679 C 645.366 945.844 641.995 951.991 638.593 958.12 C 628.132 941.028 622.534 934.386 601.395 932.51 z" fill="rgb(47,95,175)" transform="translate(0,0)"></path>
<path d="M 601.395 932.51 C 622.534 934.386 628.132 941.028 638.593 958.12 C 633.846 967.397 630.582 974.644 638.484 983.855 C 661.464 1010.64 685.097 966.868 697.69 951.584 C 701.407 947.072 705.672 942.508 712.003 942.985 C 715.496 944.737 715.979 946.406 718.09 949.944 C 705.096 985.519 689.267 1026.46 667.351 1057.09 C 651.91 1078.87 610.151 1093.4 588.623 1072.89 C 548.39 1034.55 605.895 975.069 601.395 932.51 z" fill="rgb(47,95,175)" transform="translate(0,0)"></path>
<path d="M 892.893 821.32 C 920.499 814.228 939.42 842.933 938.388 866.421 C 937.615 884.008 914.751 952.096 903.59 963.321 L 901.849 963.172 C 895.827 956.946 893.055 942.621 889.702 934.366 C 882.789 917.346 857.102 919.996 843.362 925.967 C 830.815 933.594 810.391 968.176 798.038 966.573 L 796.769 964.902 C 796.744 963.24 796.791 959.132 797.714 957.686 C 814.216 931.842 823.117 901.44 837.131 874.121 C 841.439 865.774 846.355 857.756 851.841 850.132 C 864.142 833.141 872.475 824.583 892.893 821.32 z" fill="rgb(244,237,222)" transform="translate(0,0)"></path>
<path d="M 739.121 1381.61 C 721.623 1383.73 713.412 1381.62 696.444 1381.28 C 681.52 1380.98 660.029 1385.07 645.555 1382.1 C 638.154 1371.72 664.408 1316.3 671.786 1306.23 C 742.355 1209.93 904.093 1207.07 974.039 1304.94 C 982.331 1316.55 1010.08 1373.16 996.253 1383.63 C 985.165 1387.17 955.567 1383.58 942.975 1382.86 C 931.415 1382.3 919.848 1381.94 908.277 1381.76 C 939.088 1400.52 964.451 1415.55 983.75 1447.49 C 993.893 1464.27 998.483 1475.03 1002.77 1494.28 C 1007.73 1516.56 1000.51 1515.82 981.033 1515.11 C 957.307 1514.45 938.585 1511.05 914.906 1515.41 C 954.251 1535.02 982.809 1561.5 996.998 1604.23 C 999.493 1611.74 1006.33 1635.07 1002.25 1641.77 C 1001.12 1643.64 999.941 1644.8 997.762 1645.3 C 991.733 1646.68 967.426 1644.73 959.019 1644.98 C 947.229 1645.33 935.537 1647.46 923.758 1647.69 C 904.259 1648.08 884.746 1646.89 865.234 1647.69 C 851.955 1648.23 838.288 1650.9 825.058 1650.29 C 807.433 1649.47 790.285 1644.13 772.539 1643.86 C 753.219 1643.57 654.721 1653.48 643.77 1644.45 C 641.358 1642.46 640.439 1639.71 640.437 1636.66 C 640.412 1603.41 662.519 1573.84 685.887 1552.17 C 702.376 1536.88 719.567 1523.74 739.329 1512.89 C 725.284 1513.89 653.226 1518.83 645.783 1511.31 C 644.176 1509.69 643.742 1507.69 644.046 1505.5 C 645.954 1491.76 651.599 1480.27 657.52 1468 C 660.715 1461.38 663.065 1454.34 666.546 1447.86 C 677.539 1427.41 697.113 1411.93 716.349 1399.55 C 725.904 1393.41 736.388 1387.98 746.747 1383.31 C 743.913 1381.94 742.226 1382.08 739.121 1381.61 z" fill="rgb(34,30,26)" transform="translate(0,0)"></path>
<path d="M 739.121 1381.61 C 740.809 1381.4 748.843 1380.21 749.74 1381.65 C 749.12 1382.73 747.967 1382.93 746.747 1383.31 C 743.913 1381.94 742.226 1382.08 739.121 1381.61 z" fill="rgb(234,223,200)" transform="translate(0,0)"></path>
<path d="M 806.348 1511.22 C 817.558 1510.06 848.751 1513.81 861.542 1513.83 C 877.441 1513.86 911.266 1529.15 925.419 1537.79 C 960.814 1559.4 978.932 1588.42 988.091 1628.56 C 960.749 1626.78 934.623 1628.62 907.426 1629.74 C 895.536 1629.75 883.695 1628.43 871.81 1628.18 C 859.99 1627.94 848.437 1630.03 836.813 1631.94 C 811.442 1631.9 786.1 1625.25 760.205 1627.46 C 752.353 1628.13 740.51 1625.42 732.055 1625.78 C 706.572 1626.88 683.571 1633.28 657.943 1632.51 C 661.807 1610.27 663.973 1605.12 675.895 1585.84 C 691.14 1561.18 728.816 1533.07 755.532 1523.08 C 764.082 1519.88 795.92 1513.42 806.348 1511.22 z" fill="rgb(244,237,222)" transform="translate(0,0)"></path>
<path d="M 822.353 1244.59 C 825.699 1244.3 834.421 1245.81 838.183 1246.26 C 912.791 1255.11 967.49 1293.22 983.731 1369.88 C 975.949 1370.3 967.132 1370.03 959.391 1369.35 C 914.123 1365.35 868.635 1367.66 823.25 1366.62 C 818.531 1366.71 813.835 1366.63 809.096 1366.5 C 770.268 1365.45 731.764 1368.41 692.954 1365.4 C 684.62 1364.75 668.023 1366.91 659.718 1368.46 C 675.504 1322.36 691.489 1294.99 734.818 1269.44 C 766.217 1250.92 786.975 1246.38 822.353 1244.59 z" fill="rgb(47,95,175)" transform="translate(0,0)"></path>
<path d="M 805.025 1381.34 C 870.343 1377.05 931.147 1395.85 969.677 1453.02 C 979.816 1468.06 982.811 1481.72 988.307 1498.6 C 957.299 1500.14 923.755 1495.97 892.04 1498.34 C 879.79 1499.26 858.27 1495.64 844.945 1494.8 C 815.197 1491.97 782.348 1497.93 751.928 1495.39 C 743.032 1494.65 727.959 1498.11 718.171 1498.24 C 698.944 1498.49 679.768 1498.53 660.538 1498.52 C 663.998 1483.86 678.708 1455.02 687.431 1442.91 C 709.088 1412.83 768.128 1385.86 805.025 1381.34 z" fill="rgb(47,95,175)" transform="translate(0,0)"></path>
<path d="M 1868.54 541.413 C 1885 538.766 1906.06 547.045 1920.41 554.416 C 1958.94 574.202 1957.5 617.343 1985.51 645.703 C 2003.36 663.777 2028.5 674.364 2044 695.303 C 2070.68 733.627 2036.54 771.45 2020.01 804.959 C 2015.6 813.904 2014.21 835.731 2012.49 846.539 C 2008.46 871.761 1993.88 890.29 1974.24 905.951 C 1949.16 924.808 1905.62 925.141 1875.74 920.402 C 1822.39 900.291 1757.08 873.15 1762.84 801.582 C 1763.73 790.482 1769.94 781.331 1768.29 768.782 C 1764.51 740.131 1735.72 738.639 1717.19 723.782 C 1681.03 695.647 1689.52 648.143 1716.62 616.256 C 1753.76 572.548 1811.23 545.674 1868.54 541.413 z" fill="rgb(34,30,26)" transform="translate(0,0)"></path>
<path d="M 1781.91 764.426 C 1772.12 720.483 1737.56 730.126 1717.65 702.58 C 1688.26 661.936 1731.67 614.291 1764.38 592.62 C 1801.9 567.773 1842.87 553.284 1887.56 559.232 C 1949.17 567.431 1941.13 617.701 1975.1 655.494 C 1988.13 670.111 2015.36 683.53 2024.08 695.496 C 2034.37 706.71 2039.85 712.156 2039.37 728.375 C 2038.57 754.999 2017.75 774.491 2007.92 797.947 C 1999.8 817.343 2001.99 839.389 1996.12 857.881 C 1994.45 863.155 1978.51 886.172 1974.37 889.486 C 1957.08 903.303 1920.98 911.64 1899.34 909.642 C 1878.2 907.692 1838.29 891.89 1821.47 880.949 C 1812.15 874.791 1803.72 867.366 1796.45 858.888 C 1776.24 835.568 1774.91 811.323 1781.79 783.034 C 1783.12 777.567 1782.37 770.038 1781.91 764.426 z" fill="rgb(47,95,175)" transform="translate(0,0)"></path>
<path d="M 1781.91 764.426 C 1772.12 720.483 1737.56 730.126 1717.65 702.58 C 1688.26 661.936 1731.67 614.291 1764.38 592.62 C 1801.9 567.773 1842.87 553.284 1887.56 559.232 C 1949.17 567.431 1941.13 617.701 1975.1 655.494 C 1988.13 670.111 2015.36 683.53 2024.08 695.496 C 1980.44 683.109 1947.28 680.842 1903.33 696.443 C 1871.61 707.704 1844.66 723.315 1815.54 740.223 C 1802.87 747.585 1797.56 757.389 1781.91 764.426 z" fill="rgb(47,95,175)" transform="translate(0,0)"></path>
<path d="M 1494.92 121.932 C 1501.83 122.401 1508.64 123.354 1511.16 130.862 C 1516.14 145.771 1514.65 162.847 1517.09 177.967 C 1523.58 218.243 1526.88 258.794 1530.3 299.421 C 1531.59 314.709 1530.48 330.73 1531.16 346.076 C 1532.13 367.902 1533.8 389.774 1534.56 411.621 C 1535.1 428.199 1537.87 444.803 1538.46 461.333 C 1540.77 541.38 1540.86 621.476 1538.73 701.528 C 1538.36 712.398 1538.29 727.637 1536.81 737.59 C 1533.77 757.934 1523.27 766.31 1533.87 786.643 C 1540.6 799.552 1535.84 822.977 1530.57 836.857 C 1550.26 842.837 1570.46 859.349 1580.1 876.862 C 1597.11 907.773 1597.21 941.907 1588.14 975.286 C 1584.54 985.856 1582.21 1001.58 1577.52 1011.35 C 1561.69 1044.32 1543.7 1087.46 1511.74 1106.82 C 1507.52 1108.95 1505.67 1110.02 1501.08 1109.37 C 1499.17 1107.97 1497.04 1105.71 1497.44 1103.43 C 1501.34 1081.3 1505.33 1071.01 1497.04 1048.68 C 1486.95 1021.5 1463.31 1004.26 1446.7 981.25 C 1442.71 975.731 1437.6 970.38 1434.57 964.115 C 1426.48 946.17 1421.68 919.167 1428.33 900.219 C 1438.15 872.22 1450.48 855.479 1476.83 841.861 C 1465.96 818.409 1467.51 798.501 1476.82 774.73 C 1463.31 738.402 1459.47 672.881 1458.51 633.484 C 1458.39 621.04 1456.09 607.427 1456.56 595.129 C 1459.62 516.035 1460.78 436.593 1468.63 357.843 C 1468.86 351.812 1470.13 345.148 1470.24 339.136 C 1470.74 288.041 1478.88 237.73 1479.76 186.798 C 1479.89 179 1480.59 170.317 1481.1 162.449 C 1482.07 147.342 1479.63 130.202 1494.92 121.932 z" fill="rgb(34,30,26)" transform="translate(0,0)"></path>
<path d="M 1492.01 1010.65 C 1478.93 1001.89 1446.5 957.701 1442.06 940.297 C 1426.99 881.329 1487.23 831.022 1542.65 857.872 C 1556.65 864.656 1574 894.32 1578.04 910.483 C 1586.98 951.112 1565.64 995.877 1550.52 1032.84 C 1543.7 1049.53 1530.39 1072.6 1516.85 1084.46 C 1520.52 1055.85 1512.95 1040.51 1496.6 1016.11 C 1495.79 1014.91 1493.05 1011.71 1492.01 1010.65 z" fill="rgb(47,95,175)" transform="translate(0,0)"></path>
<path d="M 1578.04 910.483 C 1586.98 951.112 1565.64 995.877 1550.52 1032.84 C 1543.7 1049.53 1530.39 1072.6 1516.85 1084.46 C 1520.52 1055.85 1512.95 1040.51 1496.6 1016.11 C 1495.79 1014.91 1493.05 1011.71 1492.01 1010.65 C 1493.56 1000.57 1495.63 984.645 1498.97 975.385 C 1500.53 971.142 1502.68 967.145 1505.37 963.517 C 1510.68 956.369 1519.92 949.807 1524.64 943.298 C 1539.21 923.21 1556.08 920.572 1578.04 910.483 z" fill="rgb(47,95,175)" transform="translate(0,0)"></path>
<path d="M 1493.76 201.394 C 1495.02 199.732 1494.85 199.692 1496.79 198.973 C 1501.89 219.384 1502.8 234.841 1505.95 254.941 C 1517.39 328.088 1516.17 401.241 1518.6 474.949 C 1519.32 496.967 1522.95 515.514 1522.89 538.277 C 1522.81 567.732 1519.75 594.86 1518.78 623.988 C 1518.43 634.284 1519.53 646.456 1519.48 657.167 C 1519.43 666.719 1517.56 679.971 1517.91 688.935 C 1518.92 715.039 1519.22 738.238 1513.44 764.124 C 1504.46 764.024 1499.3 762.882 1490.57 761.225 C 1486.45 747.137 1484.67 732.666 1481.04 719.322 C 1473.61 695.734 1477.42 674.677 1476.82 651.17 C 1476.4 635.013 1471 617.187 1471.37 599.696 C 1471.46 573.347 1474.08 547.666 1473.23 521.222 C 1472.81 508.077 1475.67 492.631 1475.5 479.281 C 1475.12 449.336 1478.91 420.983 1481.57 391.378 C 1484.09 362.046 1486.31 332.69 1488.23 303.313 C 1490.82 268.421 1493.53 236.795 1493.76 201.394 z" fill="rgb(47,95,175)" transform="translate(0,0)"></path>
<path d="M 1491.06 778.422 C 1499.9 779.086 1508.37 779.924 1517.26 780.521 C 1518.01 782.866 1522.66 795.556 1522.82 797.021 C 1524.17 808.872 1522.23 827.011 1515.69 836.863 C 1506.96 837.352 1499.49 837.318 1490.91 837.65 C 1482.13 813.062 1482.04 802.478 1491.06 778.422 z" fill="rgb(47,95,175)" transform="translate(0,0)"></path>
<path d="M 1493.76 201.394 C 1493.75 200.464 1493.39 193.151 1495.27 193.372 C 1496.12 194.12 1496.55 197.782 1496.79 198.973 C 1494.85 199.692 1495.02 199.732 1493.76 201.394 z" fill="rgb(37,70,140)" transform="translate(0,0)"></path>
<path d="M 750.745 139.468 C 788.376 140.348 808.62 135.925 846.439 149.518 C 895.509 165.374 922.79 220.238 930.21 268.323 C 934.487 296.039 930.977 315.427 922.011 342.871 C 906.247 391.125 873.623 423.61 825.192 438.545 C 820.868 439.878 807.852 440.299 802.052 441.181 C 799.047 441.639 796.03 442.013 793.004 442.3 C 751.074 445.86 704.826 429.589 672.024 402.824 C 640.201 376.857 620.999 329.498 623.12 288.461 C 623.369 283.634 620.844 275.02 621.265 271.001 C 624.641 238.757 641.158 204.565 663.067 180.796 C 685.637 155.912 717.187 141.041 750.745 139.468 z" fill="rgb(34,30,26)" transform="translate(0,0)"></path>
<path d="M 844.74 299.365 C 852.196 300.187 865.446 301.873 872.556 301.773 C 889.882 301.529 902.15 299.772 919.592 301.795 C 918.742 307.376 917.3 312.496 915.762 317.876 C 902.644 363.757 887.127 393.189 843.906 416.437 C 825.685 425.874 808.667 431.667 791.245 417.07 C 771.322 400.416 776.885 381.608 790.532 363.772 C 802.072 348.689 815.758 342.591 828.592 329.381 C 835.785 321.979 840.807 308.976 844.74 299.365 z" fill="rgb(47,95,175)" transform="translate(0,0)"></path>
<path d="M 708.795 292.957 C 713.724 337.988 735.244 353.655 779.757 354.22 C 758.136 381.714 756.827 405.486 784.728 428.976 C 760.507 427.49 748.453 425.503 725.343 417.601 C 707.722 410.185 691.338 400.12 676.759 387.753 C 649.879 364.625 639.035 328.384 636.387 294.076 C 662.671 314.833 683.045 312.144 708.795 292.957 z" fill="rgb(244,237,222)" transform="translate(0,0)"></path>
<path d="M 770.865 236.185 C 849.904 230.776 850.232 325.663 783.222 339.954 C 720.521 346.749 701.957 276.167 752.707 243.757 C 756.225 241.51 764.489 239.623 769.68 236.83 L 770.865 236.185 z" fill="rgb(244,237,222)" transform="translate(0,0)"></path>
<path d="M 730.759 156.104 C 732.186 156.147 731.439 155.958 732.913 156.937 C 731.462 159.625 729.484 162.044 728.222 164.584 C 716.492 188.202 719.098 218.43 743.498 232.157 C 713.407 250.484 707.695 299.6 662.309 292.688 C 649.585 290.381 643.111 281.773 635.526 272.109 C 640.22 226.601 675.28 176.664 718.31 160.318 C 722.39 158.768 726.586 157.387 730.759 156.104 z" fill="rgb(47,95,175)" transform="translate(0,0)"></path>
<path d="M 858.428 169.01 C 862.118 169.889 876 184.79 879.199 188.138 C 905.098 215.235 914.083 251.269 918.563 287.349 C 904.545 286.471 887.971 286.385 873.969 286.749 C 863.151 287.493 857.332 287.459 846.526 286.811 C 846.091 278.727 844.637 270.729 842.198 263.008 C 838.365 250.898 829.999 239.666 818.725 233.308 C 815.579 231.534 816.053 232.45 813.495 229.656 C 811.001 222.669 811.78 211.032 814.401 204.349 C 821.641 185.885 841.722 176.679 858.428 169.01 z" fill="rgb(47,95,175)" transform="translate(0,0)"></path>
<path d="M 794.607 153.465 C 808.908 151.912 825.997 157.463 839.451 161.626 C 810.88 180.239 798.526 188.152 796.765 224.698 C 791.323 224.03 785.587 223.952 780.086 223.744 C 767.689 224.9 754.799 224.156 744.98 215.64 C 731.522 203.966 733.135 179.676 744.475 167.307 C 759.485 150.935 774.79 154.022 794.607 153.465 z" fill="rgb(47,95,175)" transform="translate(0,0)"></path>
<path d="M 504.099 1238.31 C 522.257 1236.69 556.625 1239.06 575.664 1240.9 C 583.222 1242.77 590.447 1246.46 597.117 1250.33 C 645.793 1278.59 633.222 1364.99 578.369 1377.12 C 599.174 1385.36 611.487 1391.18 621.607 1411.96 C 642.903 1455.67 623.166 1492.47 582.962 1512.61 C 621.116 1526.18 641.161 1576.13 618.913 1610.6 C 603.184 1634.96 592.12 1639.32 565.591 1645.86 C 550.479 1648.67 494.092 1647.86 480.332 1643.15 C 442.337 1630.13 424.916 1585.99 438.621 1548.99 C 446.096 1528.81 459.05 1520.75 477.379 1511.58 C 439.043 1494.8 425.353 1460.35 438.604 1419.47 C 444.594 1400.98 461.851 1387.71 477.924 1377.75 C 471.914 1375.21 465.93 1372.39 460.534 1368.74 C 429.828 1348 424.363 1298.99 446.549 1269.99 C 461.79 1250.07 480.215 1242.24 504.099 1238.31 z" fill="rgb(34,30,26)" transform="translate(0,0)"></path>
<path d="M 508.541 1384.3 C 513.471 1383.72 522.331 1384.36 527.59 1384.2 C 550.466 1383.52 575.238 1387.54 593.808 1402.27 C 605.301 1411.4 612.74 1424.68 614.516 1439.24 C 617.475 1465.31 603.307 1486.41 580.484 1498.33 C 572.229 1502.64 561.964 1503.27 552.811 1504.28 C 544.368 1505.14 535.885 1502.92 528.055 1503.44 C 491.502 1505.88 454.399 1501.35 447.12 1456.4 C 444.586 1440.99 448.407 1425.22 457.711 1412.69 C 470.557 1395.32 487.714 1387.28 508.541 1384.3 z" fill="rgb(47,95,175)" transform="translate(0,0)"></path>
<path d="M 523.21 1253.45 C 549.208 1254.13 575.69 1249.96 596.387 1269.6 C 621.444 1293.37 616.485 1329.19 593.842 1352.74 C 579.883 1367.25 558.46 1369.32 539.415 1369.26 C 514.008 1366.57 489.03 1373.57 465.736 1353.26 C 454.656 1343.7 447.915 1330.07 447.049 1315.47 C 446.328 1300.68 451.576 1286.22 461.616 1275.34 C 482.189 1252.94 496.191 1254.4 523.21 1253.45 z" fill="rgb(47,95,175)" transform="translate(0,0)"></path>
<path d="M 540.746 1521.54 C 553.939 1520.13 565.05 1520.76 578.016 1525.4 C 624.609 1542.05 623.182 1614.48 576.15 1628.81 C 564.86 1632.25 530.176 1630.19 516.75 1629.75 C 496.269 1629.17 482.472 1632.3 465.472 1617.03 C 454.52 1607.31 447.992 1593.56 447.391 1578.93 C 446.63 1564.55 451.715 1550.48 461.49 1539.91 C 483.809 1516.25 510.113 1522.45 540.746 1521.54 z" fill="rgb(244,237,222)" transform="translate(0,0)"></path>
<path d="M 407.295 527.196 C 421.363 526.033 436.418 528.059 450.595 528.204 C 459.876 528.299 469.421 526.602 478.647 527.55 C 485.153 528.219 493.644 529.863 499.279 533.319 C 507.063 538.093 512.266 549.449 514.208 558.119 C 518.142 575.68 519.107 653.413 509.739 667.018 C 501.796 678.555 490.087 681.298 477.267 683.776 C 468.631 684.808 451.483 683.862 442.18 683.625 C 424.805 682.797 400.756 687.455 385.396 677.077 C 362.804 661.813 365.571 629.965 365.796 606.614 C 366.166 568.305 361.25 536.544 407.295 527.196 z" fill="rgb(34,30,26)" transform="translate(0,0)"></path>
<path d="M 1041.66 527.287 C 1064.96 526.113 1085.8 532.607 1110.25 526.957 C 1126.24 523.261 1151.16 541.281 1151.17 559.467 C 1151.17 583.848 1152.11 608.198 1152.31 632.518 C 1152.51 658.677 1144.76 681.557 1114.25 682.223 C 1087.83 682.043 1061.41 682.279 1035.04 683.384 C 1022 683.93 1005.59 668.626 1003.53 655.822 C 999.717 632.18 1004.96 605.714 1002.44 581.559 C 1001.9 576.477 1001.92 568.261 1002.49 563.35 C 1003.07 557.975 1004.81 552.788 1007.58 548.143 C 1015.4 535.19 1027.84 530.654 1041.66 527.287 z" fill="rgb(34,30,26)" transform="translate(0,0)"></path>
<path d="M 1116.64 605.307 C 1125.83 604.328 1130.76 604.766 1139.84 605.093 C 1139.9 618.863 1140.55 636.133 1138.21 649.517 C 1134.35 671.585 1116.06 669.166 1100.5 669.145 C 1092.9 669.105 1083.38 669.289 1075.97 668.703 C 1092 640.319 1076.4 613.821 1116.64 605.307 z" fill="rgb(47,95,175)" transform="translate(0,0)"></path>
<path d="M 1103.12 538.137 C 1104.42 538.066 1105.71 538.024 1107 538.013 C 1118.75 537.907 1134.84 543.465 1138.33 556.809 C 1140.68 565.831 1139.84 583.851 1139.89 593.637 C 1131.11 593.277 1121.7 592.701 1112.94 593.244 C 1095.98 596.431 1093.99 596.597 1075.54 595.164 C 1074.54 567.136 1073.97 549.541 1103.12 538.137 z" fill="rgb(47,95,175)" transform="translate(0,0)"></path>
<path d="M 1040.54 607.583 C 1056.86 607.184 1066.15 606.463 1083.13 607.35 C 1079.17 613.656 1073.03 624.135 1072.99 631.5 C 1072.87 650.533 1070.77 657.207 1054 667.835 C 1018.85 677.663 1013.47 650.823 1017.18 622.708 C 1022.69 614.96 1030.28 607.529 1040.54 607.583 z" fill="rgb(47,95,175)" transform="translate(0,0)"></path>
<path d="M 1035.98 541.14 C 1048.11 540.192 1061.32 541.326 1073.67 541.747 C 1058.23 563.636 1062.28 568.029 1062.11 595.057 C 1056.75 595.025 1051.39 594.962 1046.04 594.867 C 1031.41 597.14 1029.84 596.396 1016.25 603.314 C 1017.12 579.441 1009.64 551.371 1035.98 541.14 z" fill="rgb(47,95,175)" transform="translate(0,0)"></path>
<path d="M 886.26 527.5 C 937.427 521.365 944.359 557.99 940.529 599.828 C 937.137 636.882 950.006 684.1 891.931 681.541 C 878.677 680.958 859.096 680.966 845.311 681.384 C 843.677 681.723 842.039 682.039 840.396 682.332 C 829.09 684.325 817.606 681.827 808.185 675.05 C 784.819 658.241 792.95 627.502 792.547 603.084 C 792.525 582.209 787.189 562.007 801.215 544.099 C 816.787 524.218 837.086 528.363 859.203 528.128 C 867.783 528.037 878.026 528.696 886.26 527.5 z" fill="rgb(34,30,26)" transform="translate(0,0)"></path>
<path d="M 836.781 605.449 C 850.478 604.618 862.196 606.248 875.577 607.554 C 869.809 614.663 862.227 624.844 863.351 634.501 C 865.053 649.129 856.65 661.511 843.065 667.269 C 839.606 667.86 835.473 668.528 831.995 669.031 C 820.869 670.641 803.704 657.441 803.665 646.001 C 803.619 632.964 802.145 624.602 811.539 614.537 C 820.067 605.4 825.319 605.959 836.781 605.449 z" fill="rgb(244,237,222)" transform="translate(0,0)"></path>
<path d="M 890.146 539.22 C 932.771 535.556 927.241 562.819 926.847 593.178 C 916.227 592.927 909.606 592.321 899.039 594.182 C 893.854 595.512 866.093 596.731 865.166 592.029 C 860.445 568.076 866.464 549.203 890.146 539.22 z" fill="rgb(244,237,222)" transform="translate(0,0)"></path>
<path d="M 908.02 605.255 C 915.888 604.736 919.342 605.487 927.006 606.408 C 926.756 619.324 926.59 633.616 925.676 646.502 C 924.061 669.265 903.582 668.548 888.371 667.217 L 887.571 667.155 C 879.976 667.032 872.379 667.041 864.784 667.182 C 873.032 655.455 876.376 650.123 876.279 635.507 C 877.227 629.083 879.966 623.014 884.203 618.137 C 892.206 608.924 896.497 607.286 908.02 605.255 z" fill="rgb(244,237,222)" transform="translate(0,0)"></path>
<path d="M 835.009 540.378 C 845.397 540.404 854.952 540.866 865.682 540.776 C 849.014 562.806 851.494 565.941 851.922 593.107 C 843.684 593.279 835.521 593.138 827.301 593.307 C 816.066 594.613 813.865 595.55 804.285 602.521 C 804.738 577.379 801.012 545.511 835.009 540.378 z" fill="rgb(244,237,222)" transform="translate(0,0)"></path>
<path d="M 691.48 525.396 C 707.508 525.616 730.921 532.371 732.792 551.328 C 735.782 579.844 732.461 609.396 732.957 637.968 C 734.031 699.918 667.656 677.148 627.249 682.511 C 606.68 684.742 589.896 670.333 587.962 649.754 C 586.289 631.964 587.94 613.001 587.013 595.326 C 585.231 561.376 587.57 530.95 629.109 527.219 C 641.087 526.144 653.006 529.115 664.909 528.938 C 672.746 528.821 683.393 526.567 691.48 525.396 z" fill="rgb(34,30,26)" transform="translate(0,0)"></path>
<path d="M 620.255 607.199 C 631.279 606.309 654.323 606.768 665.605 607.64 C 646.628 635.21 666.933 638.753 640.783 664.059 C 630.2 670.558 616.027 670.079 607.292 660.709 C 597.579 650.292 600.496 636.712 600.905 623.791 C 607.116 613.844 608.467 610.631 620.255 607.199 z" fill="rgb(47,95,175)" transform="translate(0,0)"></path>
<path d="M 687.237 538.202 C 725.644 537.768 721.596 564.94 720.826 592.095 C 710.968 592.175 700.521 592.362 690.727 593.504 C 687.855 593.991 679.25 596.186 676.995 595.755 C 670.55 594.523 665.188 594.438 658.606 594.208 C 657.642 566.896 659.593 549.795 687.237 538.202 z" fill="rgb(47,95,175)" transform="translate(0,0)"></path>
<path d="M 703.498 605.262 C 709.295 604.956 715.067 605.068 720.867 605.173 C 720.636 619.645 719.406 634.424 718.788 648.995 C 717.876 670.483 692.615 667.184 679.249 667.459 C 670.108 667.244 665.71 667.6 656.732 668.041 C 681.797 637.934 652.394 612.988 703.498 605.262 z" fill="rgb(47,95,175)" transform="translate(0,0)"></path>
<path d="M 621.577 541.15 C 630.61 540.175 649.859 541.032 659.912 541.204 L 658.875 542.31 L 657.819 543.396 C 643.388 558.432 646.438 574.888 646.942 594.2 C 642.452 594.362 638.208 594.385 633.75 594.482 C 617.677 595.251 613.33 593.684 601.097 604.061 C 601.14 589.78 600.039 571.483 602.842 557.491 C 604.348 549.974 614.904 544.186 621.577 541.15 z" fill="rgb(47,95,175)" transform="translate(0,0)"></path>
<metadata><recraft-signature>{"signed_by": "recraft", "signature_b64": "dwp8+M1IjNHQm6Uyd0ENfdARpxeDWfuOemqJj1ZBr5r+NJlxHIevlk6/0n9NH3MH7nLLc9PTE14h6y4kriiACg==", "signing_algo": "Ed25519", "generation_timestamp": 1782907554, "identifier": "28e9f200-bfbe-412a-b44e-897420708d31"}</recraft-signature></metadata></svg>