<svg xmlns="http://www.w3.org/2000/svg" height="1792" preserveAspectRatio="none" style="display: block;" version="1.1" viewBox="0 0 2432 1792" width="2432">
<path d="M 0 0 L 2432 0 L 2432 1792 L 0 1792 L 0 0 z" fill="rgb(244,237,222)" transform="translate(0,0)"></path>
<path d="M 1533.87 526.274 C 1590.61 522.819 1594.71 567.377 1605.64 610.697 C 1614.73 647.641 1623 684.786 1630.42 722.103 C 1633.08 735.792 1634.95 749.869 1637.72 763.457 C 1642.21 785.465 1652.01 809.469 1655.75 831.581 C 1660.5 859.589 1661.6 888.423 1666.11 916.829 C 1669.7 939.39 1677.08 954.067 1682.09 975.462 C 1683.83 986.906 1685.01 998.524 1685.94 1010.1 C 1688.56 1042.58 1698.39 1075.95 1697.7 1108.35 C 1697.63 1111.73 1691.29 1120.19 1689.16 1123.09 C 1689.11 1138.32 1679.24 1162.1 1664.03 1166.92 C 1642.61 1173.7 1618.67 1177.76 1596.83 1183.4 C 1576.23 1188.72 1556.26 1195.35 1535.69 1200.57 C 1506.73 1207.91 1479.88 1221.27 1450.93 1228.76 C 1414.08 1239.15 1377.04 1243.66 1339.9 1252.55 C 1330.49 1254.8 1320.36 1255.64 1310.96 1258.15 C 1277.22 1266.99 1244.59 1279.65 1210.65 1287.87 C 1162.73 1299.55 1114.19 1308.49 1065.26 1314.66 C 1037.5 1318.29 1009.78 1320.76 981.726 1324.47 C 952.108 1328.38 914.894 1338.22 885.182 1337.5 C 869.713 1337.12 843.354 1321.11 829.787 1312.81 C 831.282 1323.03 831.494 1334.02 833.559 1344.41 C 837.649 1364.98 841.785 1383.17 843.983 1404.21 C 845.591 1419.6 843.66 1435.01 845.197 1450.22 C 846.814 1466.21 857.845 1491.34 850.692 1507.88 C 848.89 1512.04 839.661 1513.6 835.335 1514.62 C 834.6 1518.38 833.756 1521.33 832.615 1524.94 C 827.413 1543.28 805.132 1535.24 794.319 1538.42 C 762.788 1547.67 736.857 1550.34 704.046 1548.42 C 693.817 1547.83 675.643 1554.13 665.152 1554.07 C 639.71 1553.94 616.742 1557.02 591.855 1561.62 C 577.13 1564.07 555.457 1558.1 539.196 1558.9 C 522.51 1559.72 502.066 1565.46 485.456 1560.67 C 464.389 1546.58 470.91 1508.91 468.734 1487.59 C 466.587 1466.55 465.695 1452.73 466.671 1432.25 C 467.054 1424.22 463.406 1413.54 463.26 1405.43 C 463.214 1389.07 465.056 1374.23 460.632 1358.09 C 454.685 1336.4 455.548 1331.98 476.151 1325.1 C 475.28 1320.62 474.191 1316.84 475.764 1312.69 C 479.801 1308.43 507.85 1309.01 514.97 1308.23 C 537.867 1305.72 561.059 1304.53 583.956 1302.14 C 600.613 1300.4 616.73 1294.53 633.357 1292.62 C 644.831 1290.67 659.98 1293.5 671.016 1291.72 C 702.018 1286.74 732.933 1284.22 764.184 1281.44 C 779.835 1280.04 793.643 1275.16 809.623 1273.96 C 796.339 1235.9 792.788 1200.44 787.239 1160.96 C 785.46 1148.3 780.206 1127.74 777.23 1114.78 C 772.066 1090.87 764.956 1062.97 761.447 1039.15 C 755.261 997.166 750.743 954.377 744.42 912.312 C 741.316 891.665 738.995 870.523 735.967 849.909 C 734.331 838.777 731.099 825.213 729.952 814.615 C 728.236 798.759 726.514 780.866 724.951 765.24 C 723.734 753.073 719.014 725.819 731.277 719.652 C 735.032 717.763 744.603 715.738 745.142 715.102 C 749.456 710.008 748.469 699.966 753.985 693.972 C 759.391 688.098 768.259 684.315 775.778 682.441 C 788.033 679.386 800.9 677.22 813.263 674.669 L 875.303 661.42 C 900.116 656.283 924.49 649.158 949.532 644.707 C 966.761 641.645 984.368 640.355 1001.43 636.662 C 1017.91 633.094 1035.65 626.6 1051.97 622.916 C 1072.23 618.343 1091.95 614.92 1112.2 609.873 C 1125.95 606.444 1158.91 598.143 1172.8 597.353 C 1174.94 599.133 1174.3 598.009 1174.61 600.922 C 1171.06 606.264 1150.75 607.946 1143.58 609.539 L 1052.85 630.103 C 1028.49 635.734 1009.12 643.986 983.69 647.071 C 958.412 650.629 932.961 655.164 908.191 661.293 C 863.537 672.342 817.64 680.087 773.049 691.305 C 745.576 698.216 755.985 730.762 759.291 750.864 C 761.46 763.864 763.279 776.92 764.745 790.018 C 779.548 784.345 789.248 785.736 803.655 782.131 L 953.804 746.131 C 971.42 741.743 988.139 734.954 1005.26 730.497 C 1018.54 727.368 1032.82 726.309 1045.99 722.906 C 1140.15 698.582 1235.07 675.686 1330.7 657.824 C 1352.98 652.861 1375.2 642.561 1397.55 638.279 C 1462.91 625.75 1528.67 611.006 1594.11 599.367 C 1588.41 567.953 1579.84 532.204 1541.42 533.769 C 1526.29 534.385 1517.07 540.649 1502.76 542.835 C 1489.5 545.757 1467.26 542.954 1454.91 546.696 C 1418.55 557.722 1384.37 561.296 1347.09 565.842 C 1331.44 567.751 1312.76 578.424 1296.83 580.781 C 1293.36 581.296 1291.9 581.326 1289.22 579.284 C 1289.27 572.368 1298.97 572.639 1304.84 570.309 C 1339.58 556.505 1373.88 555.245 1410.17 550.098 C 1424.43 548.075 1440.33 540.093 1455.23 538.919 C 1471.64 537.364 1488.26 536.934 1504.58 534.517 C 1515.63 532.742 1523.62 528.011 1533.87 526.274 z" fill="rgb(34,30,26)" transform="translate(0,0)"></path>
<path d="M 1593.6 607.291 C 1594.02 607.213 1595.67 607.403 1596.17 607.444 C 1600.53 616.421 1603.63 636.218 1606.07 646.407 C 1615.71 686.722 1623.03 727.288 1630.36 767.997 C 1634.62 791.691 1646.1 814.063 1649.2 839.081 C 1652.62 866.753 1654.46 894.088 1658.75 921.552 C 1660.8 939.579 1672.32 959.728 1674.26 977.206 C 1678.63 1016.46 1684.67 1055.48 1689.85 1094.6 C 1691.45 1106.67 1688.26 1117.6 1676.61 1123.28 C 1656.13 1133.27 1632.3 1133.93 1610.46 1139.49 C 1562.19 1152.48 1514.14 1166.69 1465.36 1177.64 C 1430.89 1185.1 1395.42 1189.28 1360.99 1197.79 C 1349.11 1200.73 1336.14 1201.76 1323.97 1204.78 C 1303.3 1209.33 1283.65 1220.48 1262.98 1224.86 C 1239.45 1229.84 1216.4 1229.17 1193.08 1236.4 C 1159.63 1246.76 1124.77 1251.71 1090.62 1258.8 C 1058.05 1265.56 1025.72 1274.18 992.948 1280.17 C 970.39 1284.16 950.296 1293.23 928.045 1297.72 C 910.383 1301.23 887.873 1297.84 870.55 1293.32 C 867.135 1291.77 860.806 1288.07 860.273 1284.23 C 855.873 1252.51 838.308 1222.36 831.808 1192.18 C 821.725 1144.76 820.187 1094.96 811.02 1047.5 C 803.199 1007 793.66 967.11 787.331 926.185 C 783.494 901.379 776.598 876.192 772.956 851.319 C 770.317 833.292 768.498 814.904 766.057 796.81 C 780.588 792.814 789.567 793.749 801.053 790.904 L 959.421 752.537 C 976.1 748.323 992.232 741.306 1008.55 737.15 C 1020.13 734.202 1034.61 733.196 1046.84 730.358 L 1331.97 665.157 C 1356.33 659.498 1381.26 648.412 1405.45 643.86 C 1448.02 635.846 1490.04 628.434 1532.3 618.426 C 1551.66 613.841 1573.8 610.907 1593.6 607.291 z" fill="rgb(244,237,222)" transform="translate(0,0)"></path>
<path d="M 1269.6 808.359 L 1271.06 808.22 C 1309.85 804.828 1312.21 823.77 1319.1 855.877 C 1323.34 873.984 1322.01 894.738 1325.54 912.705 C 1330.39 937.34 1340.13 962.792 1341.22 987.929 C 1341.81 1001.65 1344.88 1020.89 1334.41 1031.11 C 1318.47 1046.67 1280.12 1047.58 1259.86 1052.44 C 1237.07 1057.91 1222.6 1064.52 1200.59 1070.16 C 1159.28 1080.35 1117.29 1085.38 1076.89 1099.53 C 1063.31 1103.32 1048.52 1110.71 1034.82 1113.71 C 1005.99 1120.02 977.339 1125.51 948.743 1133.14 C 932.651 1137.43 915.425 1144.35 899.187 1145.17 C 876.325 1143.67 867.238 1133.5 861.146 1111.78 C 855.411 1091.33 846.518 1070.86 842.616 1049.96 C 840.284 1037.46 841.807 1023.55 838.761 1011.01 C 834.727 994.466 827.563 978.411 825.498 961.364 C 821.021 924.33 848.244 914.852 877.178 905.576 C 901.717 896.924 925.561 891.782 951.369 888.554 C 985.125 884.333 1016.79 868.232 1049.06 858.709 C 1065.11 853.972 1082.47 852.119 1098.82 848.778 C 1108.41 846.487 1119.09 843.689 1128.32 840.321 C 1155.62 830.368 1183.2 828.095 1211.24 822.584 C 1231.67 818.569 1247.53 810.729 1269.6 808.359 z" fill="rgb(34,30,26)" transform="translate(0,0)"></path>
<path d="M 1268.73 816.347 C 1278.53 815.614 1289.47 813.847 1297.73 820.364 C 1309.6 829.727 1311.82 860.728 1313.39 875.708 C 1272.08 853.38 1230.17 867.646 1190.05 885.549 C 1171.06 894.019 1159.51 908.122 1154.67 928.204 C 1151.87 938.819 1146.66 947.237 1137.73 953.629 C 1104.95 977.099 1065.02 994.861 1051.05 1036.06 C 1043.65 1057.86 1051.26 1077.49 1061.02 1096.92 C 1020.82 1112.04 980.297 1115.94 939.164 1127.97 C 929.189 1130.89 912.808 1136.51 903.351 1137.28 C 867.428 1137.2 873.637 1116.91 863.106 1092.03 C 850.731 1062.78 849.771 1039.79 845.92 1009.35 C 844.198 995.735 834.425 977.442 833.421 962.768 C 830.498 937.631 839.596 925.989 863.692 917.939 C 881.771 913.664 909.977 901.273 927.872 899.622 C 972.852 895.47 1009.84 881.106 1051.84 866.066 C 1067.72 859.641 1091.26 860.165 1106.81 854.954 C 1143.45 842.674 1177.44 835.128 1215.52 829.174 C 1232.7 826.487 1249.32 818.912 1268.73 816.347 z" fill="rgb(47,95,175)" transform="translate(0,0)"></path>
<path d="M 1263.74 872.424 C 1285.07 871.394 1297.74 874.537 1315.19 886.893 C 1315.41 896.663 1316.48 906.394 1318.4 915.977 C 1323.39 941.142 1341.94 997.366 1331.01 1023.55 C 1325.94 1035.69 1267.09 1042.48 1251.87 1046.33 L 1115.75 1080.68 C 1099.5 1084.77 1083.41 1089.45 1067.51 1094.72 C 1062.76 1084.23 1056 1070.26 1055.46 1058.78 C 1053.9 1025.74 1080.76 999.645 1106.35 983.04 C 1121.13 973.45 1137.9 965.047 1150.3 952.615 C 1162.35 940.524 1162.18 918.43 1173.12 906.749 C 1191.84 886.767 1237.81 874.457 1263.74 872.424 z" fill="rgb(244,237,222)" transform="translate(0,0)"></path>
<path d="M 1544.61 753.338 C 1555.34 751.489 1568.78 752.293 1578.83 757.254 C 1596.14 765.792 1595.55 792.814 1601.5 809.89 C 1608.45 829.865 1618.62 851.194 1620.14 872.411 C 1620.75 884.747 1620.06 897.464 1621.51 909.681 C 1622.86 920.996 1633.37 944.376 1626.46 954.281 C 1614.5 971.422 1579.03 984.564 1559.19 988.071 C 1541.12 991.263 1524.03 989.912 1506.15 994.406 C 1479.78 1000.45 1453.9 1006.97 1428.19 1015.14 C 1420.23 1017.02 1411.82 1018.98 1403.66 1019.77 C 1396.49 1020.46 1387.6 1020.39 1381.95 1015.26 C 1369.17 1003.64 1359.65 896.73 1356.39 876.063 C 1353.19 855.79 1345.87 834.769 1345.47 814.305 C 1353.86 796.265 1371.33 791.981 1389.45 789.849 C 1429.98 785.081 1469.99 772.806 1508.78 760.473 C 1519.5 757.062 1533.34 754.931 1544.61 753.338 z" fill="rgb(34,30,26)" transform="translate(0,0)"></path>
<path d="M 1546.69 761.382 C 1555.09 760.676 1577.7 759.855 1582.23 769.252 C 1587.47 780.124 1589.31 795.832 1592.55 807.799 C 1596.27 821.559 1602.1 834.131 1606.77 847.56 C 1614.49 868.693 1611.29 886.235 1613.47 907.8 C 1615.14 919.1 1618.86 929.596 1620.7 940.88 C 1622.57 952.333 1611.71 957.841 1603.45 963.339 C 1571.31 984.74 1536.33 979.667 1500.72 987.319 C 1475.77 992.681 1450.35 1000.25 1425.55 1007.1 C 1415 1009.8 1395.94 1015.91 1386.5 1009.64 C 1380.77 997.084 1380.96 986.433 1378.22 973.504 C 1367.79 924.675 1366.59 875.104 1354.7 826.467 C 1351.06 811.565 1357.55 806.122 1371.73 801.209 C 1386.82 795.979 1404.56 797.439 1419.69 793.496 C 1439.31 788.382 1459.02 783.36 1478.7 778.442 C 1506.41 769.813 1517.62 764.681 1546.69 761.382 z" fill="rgb(47,95,175)" transform="translate(0,0)"></path>
<path d="M 1586.28 1010.37 C 1615.39 1007.39 1640.83 1015.28 1647.98 1047.06 C 1651 1060.47 1647.76 1074.39 1640.23 1085.77 C 1618.17 1119.44 1575.09 1109.51 1542.24 1118.02 C 1505.63 1127.51 1472.55 1144.17 1434.43 1148.37 C 1420.88 1149.87 1404.15 1151.62 1391.06 1154.6 C 1368.01 1159.84 1346.2 1168.55 1322.83 1173.37 C 1306.21 1175.29 1290.11 1172.45 1276.68 1161.9 C 1266.92 1154.12 1260.66 1142.77 1259.27 1130.36 C 1253.65 1083.27 1296.17 1076.18 1330.47 1070.71 C 1337.66 1069.56 1347.62 1065.95 1354.97 1064.06 C 1377.48 1058.29 1399.64 1050.48 1422.49 1046.07 C 1432.14 1044.22 1444.25 1043.82 1454.19 1042.8 C 1469.77 1041.27 1485.22 1038.7 1500.44 1035.1 C 1528.86 1028.38 1560.45 1013.21 1586.28 1010.37 z" fill="rgb(34,30,26)" transform="translate(0,0)"></path>
<path d="M 1585.47 1018.34 C 1610.44 1016.32 1631.95 1018.96 1640.22 1047.44 C 1643.01 1058.82 1640.62 1070.75 1634.33 1080.57 C 1614.49 1111.58 1572.66 1102.35 1542 1109.86 C 1515.16 1116.44 1490.79 1128.08 1464.24 1135.05 C 1440.41 1141.31 1415.78 1142.71 1391.57 1146.55 C 1370.47 1150.43 1346.09 1160.25 1324.06 1165.23 C 1309.85 1167.26 1295.52 1166.11 1283.42 1157.63 C 1274.6 1151.55 1268.69 1142.1 1267.07 1131.51 C 1263.28 1107.61 1276.99 1088.8 1300.02 1084.44 C 1311.58 1082.26 1322.88 1080.35 1334.37 1077.69 C 1370.11 1069.4 1405.03 1054.7 1441.76 1051.81 C 1476.04 1049.12 1509.3 1042.5 1541.67 1030.78 C 1556.68 1025.39 1569.41 1020.38 1585.47 1018.34 z" fill="rgb(244,237,222)" transform="translate(0,0)"></path>
<path d="M 1156.73 1115.39 C 1171.53 1114.28 1188.33 1117.26 1199.57 1126.93 C 1225.63 1147 1212 1194.1 1182.67 1202.79 C 1154.67 1211.09 1117.23 1219.46 1088.33 1224.54 C 1059.58 1229.59 1047.89 1231.33 1020.86 1243.37 C 1003.39 1251.16 968.347 1256.29 949.247 1257.68 C 934.469 1258.66 920.919 1258.02 908.555 1247.87 C 886.75 1229.98 885.939 1192.47 911.168 1177.08 C 926.397 1167.79 948.204 1164.11 965.421 1159.77 C 982.91 1155.86 1000.54 1149.75 1018.19 1146.76 C 1065.09 1138.83 1109.01 1118.87 1156.73 1115.39 z" fill="rgb(34,30,26)" transform="translate(0,0)"></path>
<path d="M 1152.71 1123.4 C 1188.96 1120.21 1223.07 1141.91 1197.08 1182.64 C 1186.83 1198.71 1155.38 1201.06 1138.64 1205.48 C 1111.66 1212.62 1082.22 1218.03 1054.61 1223.16 C 1041.23 1225.72 1026.11 1232.9 1012.97 1237.45 C 993.676 1244.07 973.598 1248.15 953.248 1249.56 C 938.888 1250.48 924.105 1251.42 912.405 1241.23 C 897.162 1227.95 895.033 1203.02 909.165 1188.11 C 915.458 1181.47 923.882 1179.27 932.195 1176.07 C 945.69 1171.64 960.01 1169.38 973.783 1166.06 L 1049.81 1147.59 C 1081.51 1139.88 1120.26 1125.74 1152.71 1123.4 z" fill="rgb(244,237,222)" transform="translate(0,0)"></path>
<path d="M 1304.79 696.212 L 1309.01 696.013 C 1320.06 701.68 1331.69 756.483 1328.7 767.926 C 1320.88 776.978 1246.24 784.08 1228.24 789.289 L 1224.61 789.429 C 1222.12 788.087 1221.07 787.283 1219.89 784.651 C 1216.44 777.009 1217.37 767.321 1215.17 759.232 C 1213.19 751.991 1209.16 744.879 1206.47 737.827 C 1205.34 734.859 1202.99 729 1204.64 726.13 C 1210.88 715.288 1288.47 700.175 1304.79 696.212 z" fill="rgb(34,30,26)" transform="translate(0,0)"></path>
<path d="M 1304.39 704.117 C 1315.03 703.753 1321.28 754.567 1322.52 763.97 C 1296.73 768.363 1273.16 776.573 1246.69 777.069 C 1241.93 777.158 1233.02 780.098 1228.35 781.528 L 1226.87 781.458 C 1224.89 779.255 1224.73 773.547 1224.27 770.438 C 1222.09 755.729 1216.27 742.788 1210.73 729.013 C 1238.43 718.24 1274.51 711.846 1304.39 704.117 z" fill="rgb(244,237,222)" transform="translate(0,0)"></path>
<path d="M 1433.36 670.261 C 1434.84 670.336 1437.31 670.113 1437.72 671.008 C 1441.56 679.501 1453 729.926 1452.59 735.484 C 1450.86 737.657 1449.51 738.088 1446.43 738.944 C 1415.45 747.556 1386.89 752.277 1356.27 762.765 C 1355.1 762.355 1353.2 761.949 1352.79 761.065 C 1348.59 752.013 1336.21 699.929 1336.75 692.907 C 1342.66 688.093 1360.91 688.775 1368.66 686.491 C 1390.65 680.014 1410.76 674.493 1433.36 670.261 z" fill="rgb(34,30,26)" transform="translate(0,0)"></path>
<path d="M 1427.59 679.278 C 1431.13 678.673 1429.6 678.34 1432.44 679.712 C 1436.78 693.804 1441.38 717.284 1444.9 732.312 C 1433.44 733.937 1423.1 737.407 1411.97 739.8 C 1393.41 743.794 1379.04 746.591 1361.21 753.183 L 1358.66 753.36 C 1356.13 749.491 1345.78 705.522 1343.74 697.624 C 1352.47 696.76 1370.03 694.676 1378.45 692.179 C 1396.28 686.893 1409.02 682.537 1427.59 679.278 z" fill="rgb(244,237,222)" transform="translate(0,0)"></path>
<path d="M 1561.22 639.102 C 1564.4 638.553 1565.09 638.744 1567.4 640.656 C 1571.2 661.26 1574.2 679.322 1581.38 699.314 C 1582.07 701.252 1581.58 704.019 1580.79 705.925 C 1571.94 709.86 1538.62 714.497 1527.11 716.875 C 1511.49 720.101 1498.33 723.569 1482.81 727.827 C 1479.35 728.234 1475.72 729.154 1473.68 725.538 C 1469.23 717.29 1469.86 707.029 1468.16 697.856 C 1466.55 689.123 1461.09 676.474 1462.46 667.917 C 1468.48 660.951 1546.79 643.291 1561.22 639.102 z" fill="rgb(34,30,26)" transform="translate(0,0)"></path>
<path d="M 1556.62 648.114 C 1559.12 647.603 1557.94 647.475 1560.28 648.535 C 1562.84 664.996 1569.08 684.3 1573.91 700.57 C 1541.52 706.885 1517.5 709.233 1485.24 719.428 C 1481.79 720.334 1483.39 720.462 1480.26 719.364 C 1478.61 715.63 1478.01 711.679 1477.32 707.666 C 1475.17 695.287 1472.33 683.537 1468.67 671.522 C 1494.94 663.333 1529.34 655.549 1556.62 648.114 z" fill="rgb(244,237,222)" transform="translate(0,0)"></path>
<path d="M 1169.1 790.279 C 1171.67 791.087 1171.48 791.037 1173.23 793.097 L 1172.97 794.685 C 1168.29 799.26 1132.52 806.107 1123.39 808.428 C 1108.42 810.84 1087.63 820.393 1073.27 821.692 C 1031.45 825.475 998.324 840.801 959.403 853.212 C 939.159 859.667 911.029 857.877 888.707 864.991 C 867.782 871.66 845.756 879.617 824.408 883.738 C 821.049 882.6 822.232 883.597 820.316 881.23 C 821.959 874.6 836.32 873.532 842.509 871.23 C 865.146 862.809 887.783 856.078 911.671 852.166 C 927.452 849.582 943.688 849.38 959.242 845.44 C 977.113 840.627 994.947 831.436 1012.95 825.966 C 1034.58 819.394 1056.61 817.561 1078.5 812.281 C 1107.36 805.319 1139.63 794.524 1169.1 790.279 z" fill="rgb(34,30,26)" transform="translate(0,0)"></path>
<path d="M 1157.71 740.229 C 1160.06 740.202 1160.95 740.748 1162.32 742.229 L 1162.01 744.511 C 1156.22 751.131 1099.22 758.73 1086.49 763.08 C 1041.71 778.382 996.923 789.928 950.264 797.886 C 939.003 799.807 926.824 804.751 915.547 807.1 C 881.093 814.744 847.925 823.88 813.232 830.801 C 810.229 830.604 810.365 830.777 808.026 828.942 L 808.092 826.98 C 812.998 821.171 843.718 816.943 853.334 814.307 C 907.161 799.552 961.758 787.668 1016.39 776.33 C 1023.57 774.84 1031.3 772.237 1038.35 770.094 C 1077.46 755.167 1116.9 748.917 1157.71 740.229 z" fill="rgb(34,30,26)" transform="translate(0,0)"></path>
<path d="M 803.553 1282.23 C 805.584 1282.04 811.024 1281.66 812.041 1283.48 C 823.301 1302.46 821.452 1327.8 826.193 1347.97 C 834.42 1382.98 837.831 1413.89 837.102 1449.82 C 836.916 1458.97 850.415 1496.01 843.255 1503.43 C 829.794 1509.2 812.491 1506.39 797.159 1508.43 C 776.171 1510.9 755.246 1514.76 734.158 1516.34 C 702.851 1518.7 671.825 1519.07 640.721 1523.93 C 633.198 1524.26 625.869 1525.06 618.298 1525.1 C 592.894 1525.26 567.036 1530.17 541.773 1527.77 C 536.28 1527.25 531.282 1526.98 525.973 1526.8 C 520.284 1526.95 514.953 1527.81 510.223 1525.02 C 500.108 1509.37 503.967 1464.41 501.369 1445.45 C 499.425 1431.26 493.826 1419.45 493.167 1404.25 C 492.624 1391.71 496.1 1374.89 494.404 1363.47 C 492.11 1348.01 485.108 1333.74 481.947 1317.35 C 517.042 1315.72 552.311 1313.2 587.239 1309.31 C 604.036 1307.44 621.316 1301.39 638.342 1299.95 C 654.3 1298.68 669.864 1300.73 685.722 1297.54 C 719.394 1290.76 754.509 1293.4 787.859 1285.48 C 793.051 1284.24 798.32 1283.25 803.553 1282.23 z" fill="rgb(244,237,222)" transform="translate(0,0)"></path>
<path d="M 727.813 1319.33 C 738.087 1317.8 755.389 1317.55 762.78 1325.27 C 773.02 1335.97 773.568 1348.96 763.555 1359.64 C 747.503 1376.76 726.79 1377.36 706.539 1385.67 C 699.267 1388.65 691.417 1400.34 685.442 1405.61 C 664.416 1424.44 641.033 1423.6 616.204 1428.36 C 598.285 1431.8 590.867 1438.51 569.749 1438.49 C 544.564 1437.43 530.113 1428.9 524.836 1402.53 C 522.081 1388.76 525.582 1365.71 534.423 1354.49 C 557.904 1324.69 609.446 1332.31 643.199 1329.49 C 656.519 1328.51 670.836 1324.76 684.302 1323.39 C 698.109 1321.98 712.503 1322.04 726.067 1319.65 L 727.813 1319.33 z" fill="rgb(34,30,26)" transform="translate(0,0)"></path>
<path d="M 731.043 1326.32 C 739.881 1325.22 752.423 1324.92 758.652 1332.24 C 760.845 1334.82 764.03 1341.45 762.956 1344.79 C 754.735 1370.36 720.375 1370.23 700.115 1380.39 C 693.959 1383.51 684.078 1397.23 677.913 1401.96 C 657.474 1417.62 637.038 1415.95 614.755 1420.86 C 592.302 1425.81 586.537 1432.78 561.968 1430.99 C 544.227 1428.21 536.282 1420.66 532.019 1402.99 C 529.301 1391.73 532.043 1369.22 539.206 1360.04 C 561.819 1331.08 612.466 1340.49 644.958 1336.8 C 658.384 1335.44 671.65 1332.24 684.688 1330.89 C 700.789 1329.22 714.828 1329.16 731.043 1326.32 z" fill="rgb(47,95,175)" transform="translate(0,0)"></path>
<path d="M 549.777 1363.37 C 556.876 1366.57 553.367 1368.46 549.25 1373.61 C 540.956 1383.99 546.68 1392.93 545.513 1402.43 C 544.189 1402.2 540.104 1401.76 539.589 1399.99 C 535.602 1386.3 538.935 1372.52 549.777 1363.37 z" fill="rgb(34,30,26)" transform="translate(0,0)"></path>
<path d="M 564.259 1355.47 C 565.891 1354.99 567.636 1355.72 568.441 1357.22 C 569.246 1358.72 568.891 1360.57 567.59 1361.67 C 566.471 1362.61 564.891 1362.78 563.596 1362.1 C 562.301 1361.42 561.549 1360.02 561.694 1358.56 C 561.84 1357.11 562.854 1355.88 564.259 1355.47 z" fill="rgb(34,30,26)" transform="translate(0,0)"></path>
<path d="M 750.276 1420.33 C 807.053 1415.53 832.747 1470.34 768.52 1481.85 C 735.18 1487.09 702.978 1492.64 669.08 1492.56 C 642.825 1492.5 614.863 1498.37 588.822 1502.68 C 576.756 1504.09 551.958 1507.95 543.217 1500.53 C 522.332 1482.82 553.653 1461.04 566.693 1454.61 C 604.142 1436.13 638.328 1448.02 676.815 1440.35 C 702.954 1435.14 723.745 1423.25 750.276 1420.33 z" fill="rgb(34,30,26)" transform="translate(0,0)"></path>
<path d="M 750.634 1428.34 C 762.164 1427.68 776.476 1428.51 786.695 1434.42 C 792.131 1437.51 796.055 1442.7 797.541 1448.77 C 803.167 1472.22 760.766 1474.98 746.958 1477.58 C 713.199 1484.64 679.911 1484.29 645.842 1486.44 C 628.954 1487.5 606.524 1492.09 589.435 1494.7 C 580.773 1495.78 554.596 1498.75 548.293 1494.69 C 533.702 1483.05 559.776 1466.71 568.185 1462.02 C 602.747 1442.74 637.833 1455.81 674.846 1448.53 C 700.687 1443.45 724.043 1431.36 750.634 1428.34 z" fill="rgb(47,95,175)" transform="translate(0,0)"></path>
<path d="M 569.881 1469.63 C 578.133 1474.31 563.177 1479.74 562.535 1485.53 C 562.362 1487.09 560.246 1489.97 559.278 1491.23 C 551.177 1483.85 563.918 1474.08 569.881 1469.63 z" fill="rgb(34,30,26)" transform="translate(0,0)"></path>
<path d="M 587.494 1462.37 C 588.549 1461.49 590.015 1461.28 591.277 1461.83 C 592.538 1462.39 593.375 1463.61 593.435 1464.98 C 593.495 1466.36 592.767 1467.65 591.559 1468.31 C 589.928 1469.21 587.885 1468.72 586.835 1467.18 C 585.785 1465.65 586.07 1463.57 587.494 1462.37 z" fill="rgb(34,30,26)" transform="translate(0,0)"></path>
<path d="M 2061.35 650.955 C 2064.32 650.684 2064.12 650.767 2066.76 652.229 C 2067.88 653.724 2077.09 681.85 2077.21 683.86 C 2078.68 709.966 2082.74 734.468 2087.94 760.085 C 2089.96 769.997 2089.32 783.881 2090.4 794.591 C 2091.97 810.035 2098.27 827.273 2096.38 842.311 C 2095.74 845.343 2086.07 846.514 2082.47 847.044 C 2078.48 859.002 2076.59 863.87 2063.58 865.902 C 2050.15 869.072 2030.59 865.967 2017.73 869.267 C 1981.99 878.44 1949.12 883.359 1912.27 885.271 C 1903.04 885.75 1890.26 892.404 1880.35 893.866 C 1866.07 895.972 1851.76 896.006 1837.5 897.95 C 1816.09 900.659 1787.12 910.12 1766.32 909.053 C 1741.35 902.632 1751.03 875.778 1747.57 858.349 C 1742.36 832.177 1738.65 807.067 1737.63 780.315 C 1737.16 767.799 1727.13 730.211 1733.23 720.865 C 1736.64 718.463 1740.56 719.265 1744.93 719.477 C 1746.63 715.635 1742.83 712.775 1743.87 705.897 C 1746.04 702.646 1747.63 702.349 1751.67 701.788 C 1797.13 695.476 1840.26 688.21 1884.66 676.292 C 1899.84 672.219 1922.74 672.34 1939.02 669.196 C 1955.99 665.919 1974.19 664.504 1991.23 660.806 C 2021.81 657.227 2029.36 662.954 2061.35 650.955 z" fill="rgb(34,30,26)" transform="translate(0,0)"></path>
<path d="M 2058.99 660.033 L 2060.71 659.869 C 2063.54 661.947 2064.93 669.965 2066.49 674.032 C 2072.22 688.985 2070.77 705.145 2072.5 720.741 C 2073.98 734.172 2078.69 749.411 2080.28 762.773 C 2081.79 775.455 2081.42 788.766 2083.25 801.696 C 2084.21 808.535 2091.64 833.245 2089.41 837.847 C 2083.98 841.453 2070.69 839.431 2063.8 839.289 C 2054.59 839.127 2045.38 839.681 2036.25 840.945 C 2015.4 843.62 1993.18 845.775 1972.51 848.981 C 1946.91 855.579 1918.91 854.905 1893.51 859.549 C 1856.44 866.327 1820.59 871.498 1782.76 873.603 L 1781.06 872.77 C 1772.84 857.535 1762.4 801.529 1759.77 782.662 C 1756.41 758.489 1755.75 734.476 1750.98 709.243 C 1772.28 704.939 1795.39 703.949 1817.02 699.859 C 1844.91 695.073 1872.03 684.975 1900.2 681.685 C 1928.13 678.422 1955.68 673.909 1983.45 669.647 C 2010.57 665.485 2032.14 669.913 2058.99 660.033 z" fill="rgb(47,95,175)" transform="translate(0,0)"></path>
<path d="M 1908.68 717.384 C 1960.37 712.206 1944.89 744.915 1965.85 752.804 C 1985.81 760.318 2019.46 754.473 2035.3 765.37 C 2039.05 767.951 2041.44 772.257 2042.26 776.683 C 2043.58 783.935 2040.65 793.708 2036.5 799.61 C 2033.49 803.9 2029.74 806.513 2024.89 808.394 C 2007.98 814.946 1987.88 815.905 1970 818.711 C 1951.38 821.634 1932.82 825.202 1914.25 828.469 C 1861.33 838.042 1799.36 863.963 1791.69 784.444 C 1788.15 747.63 1817.12 728.669 1849.56 724.517 C 1869.47 721.968 1888.81 719.555 1908.68 717.384 z" fill="rgb(34,30,26)" transform="translate(0,0)"></path>
<path d="M 1909.51 724.354 C 1954.41 720.533 1937.34 745.987 1961.31 758.806 C 1981.58 767.574 2010.27 762.431 2029.64 770.868 C 2042.34 776.402 2032.47 798.282 2018.79 802.345 C 2000.35 807.82 1982.83 809.299 1963.84 812.122 C 1947.41 814.688 1931.05 817.666 1914.77 821.053 C 1906.24 822.495 1896.99 824.13 1888.61 826.08 C 1842.39 836.835 1806.51 844.28 1798.95 783.942 C 1797.56 772.609 1800.77 761.19 1807.86 752.244 C 1826.82 727.901 1878.85 728.276 1909.51 724.354 z" fill="rgb(47,95,175)" transform="translate(0,0)"></path>
<path d="M 1827.64 752.935 C 1834.35 755.923 1831.54 758.591 1826.15 760.54 C 1810.14 766.327 1818.41 780.414 1814.75 789.611 C 1804.53 787.036 1808.2 776.025 1809.94 767.496 C 1811.32 760.706 1821.38 755.537 1827.64 752.935 z" fill="rgb(34,30,26)" transform="translate(0,0)"></path>
<path d="M 1581.7 254.197 C 1582.76 254.006 1584.75 254.314 1585.93 254.428 C 1588.05 256.13 1588.76 257.881 1589.7 260.408 C 1595.54 276.15 1611.23 367.937 1604.46 380.787 C 1602.56 384.387 1596.57 385.505 1592.96 386.66 C 1591.97 392.816 1591.57 400.13 1588.38 405.092 C 1583.51 409.177 1469.02 421.856 1452.58 424.739 C 1417.17 430.953 1347.34 443.887 1312.25 442.468 C 1308.73 441.402 1305.97 440.725 1304.55 436.699 C 1302.53 430.96 1302.89 424.837 1301.56 418.832 C 1299.45 409.221 1295.69 399.694 1294.83 389.828 C 1295.25 371.825 1297.06 356.77 1291.66 338.983 C 1289.36 331.422 1287.83 320.909 1290.87 313.409 C 1294.03 305.602 1302.71 308.242 1309.1 306.042 C 1311.39 305.226 1311.32 304.766 1312.22 302.92 C 1311.02 299.989 1309.53 297.668 1310.33 294.792 C 1316.47 288.75 1378.94 286.589 1390.26 285.428 C 1399.18 284.513 1413.9 280.834 1423.18 279.222 C 1444.54 275.724 1465.92 272.388 1487.32 269.213 C 1525.48 263.593 1540.87 266.918 1581.7 254.197 z" fill="rgb(34,30,26)" transform="translate(0,0)"></path>
<path d="M 1581.75 262.303 C 1587.87 268.936 1590.39 309.012 1592.91 320.01 C 1597.49 339.973 1599.08 356.224 1597.95 376.632 C 1577.98 383.093 1559.24 382.114 1539.06 385.339 C 1500.15 391.555 1462.72 394.494 1423.57 397.323 C 1395.45 399.354 1364.78 410.615 1336.43 414.568 C 1335.8 414.586 1335.06 414.088 1334.37 413.756 C 1333.32 395.005 1327.57 381.579 1326.04 366.006 C 1323.24 337.602 1326.87 329.2 1319.1 300.097 C 1335.03 299.142 1351.68 294.302 1367.93 294.379 C 1387.28 294.471 1405.28 289.977 1424.1 286.52 C 1441.9 283.253 1460.17 281.207 1478.04 278.29 C 1495.47 275.173 1512.23 275.019 1529.61 272.937 C 1547.24 270.752 1564.68 267.197 1581.75 262.303 z" fill="rgb(244,237,222)" transform="translate(0,0)"></path>
<path d="M 1532.3 291.179 C 1538.58 290.742 1550.27 290.339 1555.56 293.836 C 1559.15 296.212 1560.19 298.934 1561.05 303.221 C 1563.82 317.072 1569.41 339.742 1561.56 352.726 C 1558.47 357.841 1551.77 359.826 1546.56 361.293 C 1535.57 366.022 1514.45 362.211 1504.96 365.205 C 1484.56 371.642 1469.4 375.093 1447.76 375.24 C 1441.48 375.283 1429.13 379.802 1421.99 380.746 C 1409.33 382.421 1396.64 384.335 1384.11 386.828 C 1370.54 388.681 1355.29 388.407 1353.39 371.372 C 1352.17 361.196 1344.77 333.944 1351.42 325.885 C 1365.5 313.386 1394.53 314.326 1411.12 310.921 C 1445.42 303.876 1477.01 297.773 1511.89 295.977 C 1516.65 295.732 1527.21 292.417 1532.3 291.179 z" fill="rgb(34,30,26)" transform="translate(0,0)"></path>
<path d="M 1533.49 299.193 C 1538.11 298.872 1546.89 298.355 1551.04 300.29 C 1555.58 302.403 1555.22 313.915 1555.99 318.473 C 1557.56 328.053 1560.32 340.284 1554.52 348.888 C 1552.11 352.471 1547.18 352.858 1543.2 353.95 C 1530.68 357.503 1517.2 356.194 1504.51 358.155 C 1494.39 359.718 1483.93 363.765 1473.79 365.558 C 1464.61 367.637 1453.12 366.424 1444.11 368.345 C 1422.61 372.93 1401.16 376.193 1379.49 379.73 C 1357.85 383.701 1360.05 367.408 1357.91 351.907 C 1357.32 347.584 1355.39 339.864 1355.5 335.924 C 1355.54 334.308 1356.03 332.735 1356.91 331.379 C 1362.8 322.127 1404.51 319.349 1416.01 317.779 C 1435.14 315.167 1459.01 307.526 1478.04 305.995 C 1499.72 304.249 1511.79 304.165 1533.49 299.193 z" fill="rgb(47,95,175)" transform="translate(0,0)"></path>
<path d="M 940.085 393.214 C 940.767 393.502 942.446 394.263 942.665 394.935 C 945.527 403.724 949.364 419.726 950.872 428.625 C 951.944 439.07 952.604 446.946 953.201 457.735 C 954.12 474.328 960.83 492.179 960.538 508.625 C 960.488 511.427 952.25 514.588 949.677 515.658 C 949.341 521.871 949.772 534.017 942.521 535.341 C 915.807 540.218 888.64 546.533 862.202 552.243 C 842.006 556.605 818.297 554.213 798.029 559.512 C 780.501 564.095 763.566 565.555 745.696 567.588 C 726.47 569.873 708.524 583.161 688.627 575.055 C 686.791 573.388 683.799 570.028 682.865 568.11 C 675.707 553.422 663.456 465.692 665.981 455.107 C 669.216 451.074 671.575 452.457 675.616 449.443 C 674.675 446.67 674.467 445.897 673.937 443.021 C 679.822 435.378 705.75 437.298 716.937 434.872 C 740.384 430.945 765.039 420.062 788.326 416.747 C 816.229 412.774 840.306 414.93 867.862 404.416 C 873.646 402.209 893.84 401.878 901.49 400.448 C 914.262 398.061 927.285 395.869 940.085 393.214 z" fill="rgb(34,30,26)" transform="translate(0,0)"></path>
<path d="M 934.59 402.276 C 935.371 402.285 935.967 402.625 936.775 402.925 C 938.349 409.327 942.947 425.145 943.113 431.149 C 943.832 457.163 949.442 480.455 953.302 505.839 C 939.785 511.009 923.231 510.716 909.382 514.293 C 872.214 523.891 837.118 529.228 798.881 531.794 C 780.223 533.045 721.716 551.355 706.106 543.681 C 696.157 521.87 700.491 468.414 681.965 445.125 C 725.937 444.839 750.416 432.454 792.429 423.884 C 803.86 421.552 821.961 422.614 834.296 420.648 C 845.522 419.67 859.079 413.034 869.809 411.977 C 892.041 409.785 912.68 406.11 934.59 402.276 z" fill="rgb(244,237,222)" transform="translate(0,0)"></path>
<path d="M 898.509 426.217 C 907.58 424.687 912.018 426.885 914.855 435.879 C 917.273 443.545 926.612 475.722 921.18 481.859 C 910.597 493.815 876.926 496.194 861.149 499.744 C 845.07 503.031 830.488 508.488 815.453 510.792 C 789.277 514.802 767.535 518.229 742.308 525.913 C 741.514 526.178 740.725 526.464 739.917 526.68 C 737.647 527.287 735.898 527.094 733.93 525.846 C 727.858 521.995 724.891 510.107 723.204 503.515 C 720.603 493.349 716.692 478.303 722.805 468.729 C 727.586 461.241 775.687 448.41 786.082 446.517 C 799.872 444.006 814 443.557 827.79 440.964 C 838.775 438.899 849.506 435.595 860.433 433.254 C 873.023 430.557 885.852 428.643 898.509 426.217 z" fill="rgb(34,30,26)" transform="translate(0,0)"></path>
<path d="M 902.074 433.273 C 903.734 433.011 906.523 433.05 907.005 435.131 C 909.547 446.102 917.663 466.847 914.486 477.523 C 911.96 480.708 904.607 483.967 900.435 484.881 C 870.117 490.784 839.999 498.22 809.875 504.608 C 784.195 510.053 766.349 508.847 740.322 519.874 C 738.916 520.157 739.089 519.874 737.346 519.309 C 732.918 513.237 730.657 503.914 729.096 496.96 C 723.338 471.315 725.977 471.271 749.34 464.957 C 762.086 461.708 777.108 455.054 789.991 453.559 C 816.211 450.516 839.477 447.566 864.956 439.921 C 874.735 436.987 891.487 435.055 902.074 433.273 z" fill="rgb(47,95,175)" transform="translate(0,0)"></path>
<path d="M 1660.85 1228.69 C 1671.37 1230.29 1737.46 1266.16 1751.67 1272.67 C 1761.47 1276.99 1771.61 1280.56 1781.37 1285 C 1786.37 1287.27 1792.09 1285.54 1793.58 1291.5 C 1789.62 1298.05 1762.31 1313.66 1754.51 1318.22 C 1791.02 1354.56 1795.94 1347.62 1757.65 1382.59 C 1755.77 1384.45 1752.04 1387.39 1749.88 1389.19 C 1735.21 1373.6 1725.54 1363.84 1714.38 1345.23 C 1700.45 1358.49 1690.98 1372.93 1677.45 1385.85 C 1675.77 1387.46 1675.61 1386.99 1673.72 1386.7 C 1668.93 1377.03 1661.97 1336.3 1659.19 1323.23 C 1653.47 1296.26 1647.09 1269.42 1640.05 1242.76 C 1646.93 1238 1653.87 1233.31 1660.85 1228.69 z" fill="rgb(34,30,26)" transform="translate(0,0)"></path>
<path d="M 1666.84 1238.73 C 1670.66 1240.06 1674.75 1241.96 1678.45 1243.67 C 1708.6 1257.59 1736.77 1275.01 1767.72 1287.07 C 1759.48 1293.02 1742.08 1301.9 1731.68 1308.53 C 1737.45 1314.91 1770.63 1339.68 1770 1346.35 L 1766.88 1348.83 L 1758.47 1354.6 C 1752.09 1345.21 1744.76 1336.5 1736.6 1328.61 C 1732.93 1325.06 1721.72 1314.44 1718.19 1316.42 C 1713.87 1318.86 1695.9 1345.19 1692.63 1349.49 C 1688.01 1331.59 1688.51 1312.68 1684.01 1295.28 C 1679.06 1276.16 1671.8 1258.12 1666.84 1238.73 z" fill="rgb(244,237,222)" transform="translate(0,0)"></path>
<path d="M 1315.62 1344.13 C 1316.78 1344.32 1319.98 1344.86 1320.36 1345.88 C 1326.48 1362.42 1324.95 1374.93 1335.21 1390.27 C 1346.93 1407.8 1373.7 1399.52 1381.12 1406.81 L 1381.06 1407.76 C 1380.87 1410.57 1369.37 1411.38 1366.15 1412.11 C 1332.52 1419.71 1327.84 1450.61 1326.89 1480.3 C 1326.67 1486.96 1328.1 1490.98 1323.41 1496.07 C 1313.62 1489.21 1310.6 1445.86 1295.64 1435.71 C 1284.79 1428.35 1268.12 1437.47 1260.65 1432.59 L 1260.86 1430.5 C 1263.34 1428 1279.02 1422.13 1284.46 1418.97 C 1314.31 1401.68 1308.64 1372.25 1315.62 1344.13 z" fill="rgb(34,30,26)" transform="translate(0,0)"></path>
<path d="M 572.656 758.827 C 579.935 761.385 587.765 793.85 597.653 802.226 C 610.986 813.521 621.215 808.762 630.499 814.067 C 630.425 815.409 629.548 817.246 628.61 818.077 C 614.081 830.944 602.785 844.858 604.766 865.517 C 605.433 872.479 609.569 887.621 607.291 893.773 C 599.236 890.771 598.432 872.924 593.593 864.129 C 586.393 851.045 579.011 843.932 563.083 843.586 C 558.268 843.482 553.151 844.093 551.752 839.397 C 552.989 835.691 561.163 831.788 565.593 825.209 C 576.917 809.775 577.962 793.545 572.59 775.569 C 570.652 769.082 567.377 763.468 572.656 758.827 z" fill="rgb(34,30,26)" transform="translate(0,0)"></path>
<path d="M 1894.45 1017.35 C 1899.2 1019.28 1899.22 1018.88 1900.46 1024.6 C 1902.99 1035.38 1906.24 1050.14 1914.32 1058.26 C 1919.73 1063.71 1935.67 1065.09 1940.54 1070.48 C 1938.29 1080.51 1906.04 1079.76 1907.04 1136.6 C 1904.25 1139.03 1903.76 1138.98 1901.01 1138.84 C 1895.88 1134.98 1896.58 1120.31 1894.24 1114.49 C 1890.77 1105.84 1884.16 1088.86 1873.2 1088.29 C 1869.16 1088.09 1867.17 1087.99 1865.03 1084.72 C 1867.39 1079.59 1880.76 1071.31 1885.78 1062 C 1891.87 1050.73 1889.42 1023.29 1894.45 1017.35 z" fill="rgb(47,95,175)" transform="translate(0,0)"></path>
<path d="M 1732.71 425.438 C 1733.78 425.541 1737.17 426.125 1737.38 426.666 C 1741.14 436.246 1741.57 451.761 1745.5 461.584 C 1750.35 473.732 1766.35 475.982 1771.65 482.305 C 1747.53 493.248 1735.45 502.835 1732.79 530.85 C 1731.44 533.321 1732.31 532.193 1729.56 533.939 C 1724.91 533.133 1724.52 529.971 1723.56 525.071 C 1718.04 496.772 1712.67 502.095 1698.45 485.451 C 1698.43 480.766 1715.34 478.24 1722.19 468.334 C 1731.26 455.221 1727.2 432.622 1732.71 425.438 z" fill="rgb(47,95,175)" transform="translate(0,0)"></path>
<path d="M 804.368 708.187 C 815.201 708.989 825.233 713.303 827.69 724.58 C 831.564 742.357 819.655 750.334 805.61 754.101 C 794.779 753.97 785.148 751.752 782.204 739.998 C 777.773 722.314 788.738 712.122 804.368 708.187 z" fill="rgb(34,30,26)" transform="translate(0,0)"></path>
<path d="M 805.441 715.152 C 825.585 717.14 827.809 739.892 804.413 747.832 C 783.41 745.596 781.398 721.833 805.441 715.152 z" fill="rgb(47,95,175)" transform="translate(0,0)"></path>
<path d="M 871.443 692.104 C 899.503 694.097 905.798 727.796 874.651 736.081 C 839.973 736.199 842.476 700.45 871.443 692.104 z" fill="rgb(34,30,26)" transform="translate(0,0)"></path>
<path d="M 871.798 699.177 C 878.458 699.95 884.603 700.738 886.765 707.983 C 890.764 721.389 883.994 726.633 872.603 729.875 C 850.847 729.281 852.01 704.674 871.798 699.177 z" fill="rgb(47,95,175)" transform="translate(0,0)"></path>
<path d="M 930.805 679.532 C 938.348 677.471 946.416 679.642 951.907 685.208 C 957.398 690.775 959.457 698.872 957.293 706.386 C 955.129 713.9 949.078 719.661 941.467 721.455 C 929.984 724.161 918.45 717.166 915.542 705.731 C 912.634 694.297 919.424 682.642 930.805 679.532 z" fill="rgb(34,30,26)" transform="translate(0,0)"></path>
<path d="M 643.925 1005.3 C 656.938 1007.12 646.413 1024.94 662.049 1029.93 C 663.106 1029.44 670.154 1032.4 668.637 1034.99 C 664.371 1042.27 656.031 1043.26 652.488 1054.04 C 650.267 1060.81 650.087 1059.81 649.161 1066.74 C 646.598 1073.32 639.499 1068.96 640.279 1062.51 C 640.884 1057.5 637.98 1050.56 635.947 1046.01 C 633.177 1044.13 623.502 1039.64 631.032 1034.51 C 642.244 1026.87 639.838 1015.96 643.925 1005.3 z" fill="rgb(47,95,175)" transform="translate(0,0)"></path>
<path d="M 1267.47 579.177 C 1273.87 579.367 1273.57 586.116 1267.56 586.9 C 1259.43 587.96 1251.3 590.558 1243.49 592.98 C 1239.89 592.645 1236.68 589.981 1239.11 587.598 C 1243.39 583.403 1261.71 580.34 1267.47 579.177 z" fill="rgb(34,30,26)" transform="translate(0,0)"></path>
<path d="M 1205.08 595.026 C 1206.99 595.259 1209.55 595.906 1210.06 597.978 C 1211.42 603.578 1194.13 605.769 1190.41 606.916 C 1187.94 606.54 1184.37 605.369 1185.98 602.568 C 1187.68 599.605 1202 596.011 1205.08 595.026 z" fill="rgb(34,30,26)" transform="translate(0,0)"></path>
<path d="M 1137.33 277.48 C 1139.47 276.81 1141.8 277.364 1143.4 278.923 C 1145 280.482 1145.62 282.795 1145.01 284.946 C 1144.4 287.097 1142.66 288.741 1140.48 289.227 C 1137.3 289.935 1134.12 288.01 1133.28 284.86 C 1132.43 281.711 1134.22 278.456 1137.33 277.48 z" fill="rgb(34,30,26)" transform="translate(0,0)"></path>
<path d="M 2028.05 1212.71 C 2029.71 1211.18 2032.08 1210.7 2034.2 1211.48 C 2036.31 1212.26 2037.81 1214.16 2038.08 1216.4 C 2038.35 1218.64 2037.33 1220.84 2035.46 1222.09 C 2032.86 1223.83 2029.36 1223.28 2027.42 1220.82 C 2025.48 1218.37 2025.76 1214.84 2028.05 1212.71 z" fill="rgb(34,30,26)" transform="translate(0,0)"></path>
<path d="M 562.357 1106.51 C 565.263 1106.55 567.678 1108.76 567.966 1111.65 C 568.253 1114.54 566.322 1117.19 563.48 1117.8 C 561.337 1118.26 559.12 1117.45 557.776 1115.72 C 556.433 1113.99 556.199 1111.64 557.175 1109.67 C 558.151 1107.71 560.165 1106.48 562.357 1106.51 z" fill="rgb(34,30,26)" transform="translate(0,0)"></path>
<metadata><recraft-signature>{"signed_by": "recraft", "signature_b64": "JFdO/adQuU6wRUXMPofzn37nfz4kuDFqF+GqOn3b5flGHnf35437NIgKrPrlBzcPDS35WNGDjlULj1vUGRDvCg==", "signing_algo": "Ed25519", "generation_timestamp": 1782907546, "identifier": "6aa71641-fffc-4300-b8f6-a35b8d4e1707"}</recraft-signature></metadata></svg>