<svg xmlns="http://www.w3.org/2000/svg" height="1792" preserveAspectRatio="none" style="display: block;" version="1.1" viewBox="0 0 2432 1792" width="2432">
<path d="M 0 0 L 2432 0 L 2432 1792 L 0 1792 L 0 0 z" fill="rgb(244,237,222)" transform="translate(0,0)"></path>
<path d="M 1575.68 289.331 C 1580.17 288.496 1585.21 289.344 1589.6 288.896 C 1605.78 285.891 1634.07 296.439 1648.06 294.879 C 1692.14 289.96 1726.37 287.821 1770.71 294.934 C 1809.3 301.124 1866.8 276.907 1900.09 307.684 C 1922.91 328.783 1897.71 378.839 1892.6 403.596 C 1887.61 423.421 1880.25 441.491 1877.52 460.841 C 1874.66 481.096 1834.94 491.007 1818.39 492.001 C 1805.83 492.756 1788.91 486.158 1775.76 486.375 C 1751.12 483.783 1723.58 489.959 1700.07 487.645 C 1676.68 485.342 1660.2 484.535 1637.16 485.352 C 1638.88 507.057 1638 522.862 1634.32 544.148 C 1633.06 556.218 1632.41 568.008 1630.48 580.021 C 1625.08 613.532 1613.42 644.913 1605.19 677.563 C 1601.62 691.721 1599.3 705.657 1595.33 719.875 C 1589.39 741.161 1582.68 761.831 1576.49 782.995 C 1572.53 797.823 1570.27 813.81 1567.04 828.899 L 1540.46 956.529 C 1537.04 972.675 1530.3 985.294 1526.77 1002.57 C 1544.08 1003.36 1556.3 1002.39 1573.43 1001.21 C 1583.11 1000.54 1595.98 1002.46 1606.06 1002.4 C 1616.89 1002.32 1628.97 1000.44 1639.5 1000.51 C 1652.78 1000.6 1666.14 1003.43 1679.82 1003.06 C 1702.3 1002.43 1723.56 996.395 1745.87 1001.49 C 1757.06 1004.05 1773.75 1008.36 1779.72 1018.82 C 1793.89 1043.64 1770.87 1093.88 1762.82 1118.56 C 1759.86 1127.65 1758.89 1140.35 1756.65 1149.82 C 1753.12 1164.72 1751.96 1175.05 1737.81 1183.74 C 1727.05 1190.35 1718.62 1195.84 1705.95 1196.75 C 1680.12 1198.6 1656.02 1189.88 1629.61 1188.94 C 1603.72 1188.01 1585.14 1192.17 1560.84 1195.37 C 1540.56 1198.04 1504.81 1194.75 1484.53 1190.69 C 1481.11 1211.96 1472.35 1229.72 1467.62 1250.15 C 1463.58 1266.73 1462.84 1286.16 1459.16 1302.55 C 1452.04 1334.22 1440.99 1362.08 1436.84 1394.61 C 1434.85 1410.2 1419.13 1449.2 1410.54 1462.4 C 1397.52 1482.72 1375.68 1495.69 1351.61 1497.39 C 1344.1 1497.91 1331.36 1497.2 1324.61 1498.36 C 1308.41 1501.14 1295.75 1504.56 1278.81 1504.05 C 1268.76 1504.39 1252.45 1499.61 1243 1501.04 C 1213.94 1505.46 1193.04 1510.51 1163.53 1503.86 C 1151.7 1501.19 1127.74 1503.87 1115.29 1506.51 C 1087.19 1510.98 1079.1 1504.75 1052.35 1503.94 C 1032.62 1503.34 1008.47 1506.26 988.445 1505.45 C 979.888 1505.1 972.701 1501.74 962.728 1501.53 C 939.218 1501.05 919.203 1507.59 896.31 1509.28 C 883.659 1510.21 870.158 1505.06 858.356 1503.49 C 832.669 1500.08 807.187 1497.14 786.805 1478.73 C 768.469 1462.17 764.727 1438.08 764.047 1414.33 C 756.823 1414.98 750.883 1415.58 743.633 1415.22 C 737.606 1415.5 720.939 1411.46 715.895 1412.63 C 685.474 1419.65 661.541 1414.14 631.645 1412.35 C 621.537 1411.74 602.607 1419.84 591.355 1421.6 C 576.333 1425.33 547.407 1419.25 534.861 1409.68 C 501.393 1384.16 537.225 1317.1 542.632 1284.03 C 545.027 1269.38 544.729 1254.56 548.621 1242.06 C 557.276 1214.27 566.995 1190.89 568.688 1161.55 C 568.993 1156.48 573.699 1137.13 575.316 1132.97 C 584.217 1110.07 591.48 1084.4 620.262 1083.08 C 637.805 1080.7 650.438 1079.94 668.482 1080.63 C 677.946 1080.99 691.773 1077.15 701.891 1078.2 C 729.125 1083.45 751.124 1085.14 778.829 1080.78 C 785.58 1079.72 800.292 1081.69 808.154 1081.48 C 818.504 1081.19 827.91 1080.46 838.307 1079.39 C 842.571 1064.88 846.972 1049.56 850.641 1034.9 C 853.548 1025.02 853.918 1010.86 857.122 1001.43 C 865.5 976.769 872.024 956.167 874.234 930.003 C 875.005 920.874 882.795 903.988 884.849 893.288 C 888.435 874.6 892.099 855.532 896.678 837.066 C 902.383 814.126 910.734 794.948 917.973 772.913 C 921.509 762.15 923.029 744.326 926.695 732.572 C 933.694 710.136 941.53 688.26 947.507 665.517 C 951.098 651.852 952.753 636.268 956.424 623.082 C 963.372 598.123 973.284 571.451 980.254 546.769 C 988.055 517.451 988.453 485.743 999.156 457.085 C 1014.21 416.79 1039.16 391.369 1082.55 383.75 C 1100.02 380.682 1113.04 381.65 1130.5 381.668 C 1140.12 381.678 1152.92 377.347 1163.09 378.212 C 1172.67 378.515 1189.06 381.339 1197.56 380.63 C 1213.99 379.262 1226.42 376.294 1243.54 375.617 C 1261.74 374.898 1273.17 379.266 1289.49 379.631 C 1311.5 380.083 1333.85 376.318 1355.76 376.314 C 1390.34 376.307 1423.68 382.258 1458.43 379.021 C 1469.65 377.977 1484.94 379.054 1496.34 379.341 C 1502.43 357.363 1502.42 337.196 1518.69 315.479 C 1533.63 295.534 1552.68 292.773 1575.68 289.331 z" fill="rgb(34,30,26)" transform="translate(0,0)"></path>
<path d="M 1296.72 429.433 C 1315.21 428.368 1336.17 434.485 1354.74 434.336 C 1372.42 434.195 1389.7 430.261 1407.64 429.719 C 1425.4 429.182 1438.61 432.04 1455.46 433.57 C 1463.05 434.259 1480.29 431.785 1489.53 431.708 C 1506.15 431.571 1515.74 432.773 1528.62 444.069 C 1538.75 452.96 1548.65 477.04 1547.63 489.938 C 1544.36 531.238 1528.87 576.552 1518.7 616.878 C 1515.56 629.293 1514.04 642.259 1510.71 654.225 C 1504.75 675.637 1498.24 695.579 1493.55 717.353 C 1489.67 735.401 1487.6 753.683 1483.95 771.493 C 1479.2 794.711 1473.18 818.497 1468.4 841.771 C 1463.88 863.842 1454.25 883.1 1448.92 904.452 C 1446.04 915.77 1446.66 929.486 1444.04 940.603 C 1438.2 965.401 1432.69 989.504 1428.98 1014.75 C 1427.31 1026.1 1420.75 1039.41 1418.34 1050.93 C 1416.17 1061.32 1414.45 1071.72 1412.6 1082.17 C 1404.86 1109.92 1402.06 1136.99 1398.14 1165.28 C 1396.43 1177.67 1388.66 1192.57 1386.1 1205.59 C 1382.06 1226.15 1383.08 1246.67 1378.5 1267.03 C 1374.85 1281.4 1368.87 1296.52 1364.42 1311.02 C 1358.53 1330.2 1353.6 1349.91 1347.16 1368.79 C 1344.38 1375.42 1339.95 1387.47 1334.62 1392.33 C 1326.21 1399.99 1312.85 1401.05 1301.95 1402.14 C 1288.03 1402.58 1265.8 1407.1 1252.21 1405.13 C 1210.19 1399.04 1172.37 1403.26 1130.37 1406.5 C 1112.55 1407.87 1092.66 1404 1074.33 1404.22 L 1072.64 1404.24 C 1050.27 1405.4 1028 1410.21 1005.73 1409.89 C 985.521 1409.59 965.299 1403.85 945.317 1402.12 C 930.644 1400.84 915.367 1403.95 900.931 1405.29 C 881.394 1407.11 849.905 1405.93 834.089 1392.8 C 827.97 1387.72 819.231 1376.22 820.113 1368.75 C 824.157 1334.5 838.263 1296.23 846.675 1262.69 C 852.025 1241.11 853.923 1218.82 858.751 1197.17 C 860.838 1186.89 864.382 1176.43 866.197 1166.13 C 871.125 1142.68 878.649 1120.61 884.53 1097.33 C 889.555 1077.43 889.914 1054.65 894.914 1035.76 C 903.693 1002.59 915.367 970.283 921.729 936.292 C 922.68 931.213 925.32 925.162 926.632 920.007 C 936.516 892.055 941.507 863.592 947.527 834.715 C 950.119 822.283 955.734 808.498 959.058 795.938 L 1000.91 643.889 L 1033.68 523.194 C 1041.42 495.531 1042.57 475.567 1062.87 452.952 C 1081.93 431.71 1110.01 437.224 1135.37 436.048 C 1151.39 436.397 1174.28 431.131 1189.96 432.782 C 1228.03 436.789 1259.06 432.395 1296.72 429.433 z" fill="rgb(244,237,222)" transform="translate(0,0)"></path>
<path d="M 1325.26 585.281 C 1345.79 584.297 1359.88 590.378 1379.52 591.369 C 1393.19 591.454 1407 587.589 1420.69 587.659 C 1450.19 587.811 1470.49 591.335 1471.13 625.812 C 1471.71 656.675 1457.59 676.364 1449.19 704.871 C 1446.73 713.186 1447.07 725.535 1445.11 734.271 C 1441.68 750.336 1434.55 768.791 1431.39 784.709 C 1428.08 801.439 1427.32 817.344 1423.53 834.621 C 1418.33 858.306 1410.85 878.61 1404.17 901.652 C 1402.47 907.532 1402.17 922.038 1400.5 929.43 C 1397.38 943.222 1391.34 958.418 1389.45 972.095 C 1387.53 986.017 1388.96 1000.85 1385.67 1014.99 C 1381.39 1033.78 1369.8 1051.74 1366.16 1070.65 C 1359.67 1104.35 1360.12 1144.08 1334.94 1170.58 C 1329.22 1176.59 1324.72 1178.91 1316.69 1181.01 C 1304.02 1184.33 1291.16 1182.05 1278.26 1183.04 C 1261.1 1184.51 1245.36 1187.15 1227.9 1185.98 C 1216.63 1185.22 1203.48 1181.4 1192.5 1181.44 C 1179.67 1181.48 1167.57 1185.54 1154.03 1185.73 C 1134.71 1186 1115.94 1183.28 1097 1182.49 C 1084.63 1181.98 1068.68 1182.66 1055.93 1182.74 C 1042.32 1182.67 1024.94 1181.94 1011.47 1182.97 C 986.793 1185.13 947.911 1195.45 926.021 1181.25 C 898.719 1161.07 926.419 1117.36 930.495 1094.39 C 937.013 1057.65 939.457 1026.54 953.1 991.749 C 960.519 972.828 963.132 951.291 969.208 931.787 C 973.75 917.206 978.17 902.853 982.482 888.246 C 985.582 877.015 985.38 864.642 988.381 853.319 C 992.33 831.036 1002.04 807.854 1006.22 785.89 C 1011.67 757.342 1015.85 733.084 1025.09 705.255 C 1035.56 673.768 1040.33 641.553 1060.42 613.654 C 1073.04 596.128 1083.5 591.522 1104.54 589.655 C 1131.24 585.887 1153.25 593.149 1179.54 593.829 C 1194.78 594.191 1210.97 587.792 1226.33 587.404 C 1241.41 587.023 1255.84 592.185 1270.92 592.708 C 1293.1 594.364 1304.12 588.843 1325.26 585.281 z" fill="rgb(34,30,26)" transform="translate(0,0)"></path>
<path d="M 1321.9 596.289 C 1343.98 594.547 1357.14 600.266 1378.55 601.688 C 1386.2 602.196 1398.61 599.481 1406.79 598.922 C 1419.9 598.027 1443.36 596.331 1454.05 605.288 C 1459.53 609.878 1460.55 616.955 1460.91 623.502 C 1462.62 653.744 1445.06 677.097 1438.23 704.921 C 1436 714.03 1435.87 727.199 1433.5 737.342 C 1429.82 753.048 1422.92 771.415 1420.18 786.958 C 1417.12 804.326 1416.26 821.47 1412.14 839.103 C 1407.69 858.117 1401.03 875.189 1395.38 893.823 C 1391.9 905.278 1392.9 916.181 1390.59 926.981 C 1388.05 938.929 1383.05 951.329 1380.23 963.614 C 1376.51 979.837 1379.54 996.299 1375.78 1012.14 C 1371.27 1031.23 1359.61 1049.51 1355.61 1068.7 C 1349.16 1099.67 1351.34 1136.9 1328.4 1161.91 C 1324.84 1165.79 1321.75 1168.34 1316.7 1169.86 C 1304.33 1173.58 1291.5 1171.2 1278.83 1172.28 C 1261.54 1173.93 1246.31 1177.11 1228.64 1175.87 C 1216.32 1175 1203.76 1171.16 1191.59 1171.03 C 1180.72 1170.92 1167.81 1175.41 1156.88 1175.56 C 1137.15 1175.82 1117.57 1173.5 1098.01 1172.47 C 1087.35 1171.91 1073.66 1172.39 1062.83 1172.53 C 1046.39 1172.19 1031.8 1171.26 1013.54 1172.22 C 996.239 1173.14 933.517 1189.21 925.751 1165.28 C 921.594 1140.86 934.746 1119.17 940.697 1096.56 C 943.554 1085.7 944.554 1071.74 946.287 1060.52 C 949.607 1039.03 954.248 1017.63 961.883 997.222 C 972.114 969.88 975.793 941.013 985.311 913.457 C 988.38 903.315 992.532 892.666 993.878 882.125 C 998.224 848.086 1009.19 815.974 1017.12 782.691 C 1020.6 768.126 1021.66 749.771 1026.43 735.701 C 1038.99 698.589 1045.72 658.636 1065.03 624.254 C 1087.44 583.961 1142.02 603.782 1178.57 604.22 C 1194.94 604.417 1207.88 599.43 1223.87 597.952 C 1234.93 597.016 1248.34 600.457 1259.47 601.443 C 1284.38 604.968 1298.29 601.861 1321.9 596.289 z" fill="rgb(244,237,222)" transform="translate(0,0)"></path>
<path d="M 1315.49 797.294 C 1325.59 796.656 1354.78 794.033 1358.05 806.949 C 1362.59 824.937 1321.71 966.997 1324.07 971.631 C 1327.66 971.636 1329.26 971.535 1332.74 972.229 C 1335.48 975.458 1335.42 977.591 1334.02 981.255 C 1329.38 983.311 1258.72 981.922 1249.05 981.052 C 1241.73 980.394 1223.57 982.502 1215.78 982.422 C 1177.82 982.033 1139.97 983 1102 983.36 C 1077.89 983.589 1053.84 985.721 1029.49 983.403 C 1025.53 983.027 1022.55 982.585 1020.11 979.552 L 1020.78 977.808 C 1026.96 972.651 1030.74 973.819 1039.06 974.076 C 1046.39 943.774 1048.1 911.858 1058.54 881.981 C 1063.09 869.198 1062.41 838.86 1074.61 831.865 C 1082.66 826.585 1119.44 824.004 1122.25 835.956 C 1125.91 851.528 1115.6 890.609 1110.92 905.62 C 1105.19 925.144 1097.77 953.157 1094.03 972.875 C 1100.74 972.934 1108.15 972.481 1114.91 972.21 C 1117.89 955.977 1131.57 876.308 1141.3 867.521 C 1148.42 861.08 1166.7 861.953 1175.93 862.206 C 1180.92 862.343 1188.19 863.319 1191.46 867.572 C 1198.71 877.018 1179.82 933.642 1176.98 945.54 C 1174.91 954.229 1174.01 963.201 1172.88 972.05 L 1194.17 972.01 C 1196.6 951.786 1204.99 897.282 1217.59 883.121 C 1228.02 879.041 1240.27 878.603 1251.31 880.247 C 1257.3 880.659 1266.58 887.268 1264.65 894.316 C 1257.79 919.276 1252.61 944.879 1247.45 970.185 C 1253.65 970.216 1260.55 970.632 1266.81 970.879 C 1271.24 938.003 1279.31 911.41 1288.75 879.877 C 1292.93 865.9 1291.97 846.488 1297.56 831.595 C 1302.65 818.052 1300.09 804.519 1315.49 797.294 z" fill="rgb(34,30,26)" transform="translate(0,0)"></path>
<path d="M 1316.71 806.838 C 1325.36 806.756 1343.08 804.507 1348.59 811.807 C 1349.62 822.63 1316 968.551 1310.11 970.935 C 1299.41 971.075 1287.26 971.962 1276.5 972.561 C 1279.15 955.671 1282.92 937.983 1287 921.376 C 1289.73 910.226 1295.77 895.187 1297.64 884.446 C 1300.11 870.249 1308.5 817.095 1316.71 806.838 z" fill="rgb(47,95,175)" transform="translate(0,0)"></path>
<path d="M 1096.67 837.489 C 1102.72 837.422 1109.75 836.22 1113.51 841.329 C 1113.93 847.523 1111.67 855.871 1110.63 862.302 C 1104.54 899.953 1090.52 935.617 1084.36 973.523 L 1069.94 974.06 C 1063.37 974.422 1056 974.223 1049.34 974.184 L 1069.72 878.452 C 1071.64 869.665 1074.39 849.484 1078.9 841.707 C 1081.34 837.505 1091.79 837.669 1096.67 837.489 z" fill="rgb(47,95,175)" transform="translate(0,0)"></path>
<path d="M 1159.88 872.349 C 1165.39 872.113 1176.49 872.065 1181.64 873.426 C 1185.37 882.543 1169.71 933.394 1166.83 945.088 C 1164.79 953.336 1163.97 963.09 1163.13 971.795 L 1151.26 971.859 C 1142.83 972.307 1133.86 972.217 1125.37 972.278 C 1128.33 954.916 1141.59 887.052 1147.59 874.222 C 1151.36 873.347 1155.99 872.866 1159.88 872.349 z" fill="rgb(47,95,175)" transform="translate(0,0)"></path>
<path d="M 1236.57 889.42 C 1240.66 888.634 1257.24 888.579 1255.13 894.452 C 1246.68 917.899 1243.73 947.008 1237.02 970.382 C 1232.13 970.8 1227.26 971.126 1222.38 971.59 C 1215.57 971.999 1210.9 972.018 1204.09 971.891 C 1206.98 951.074 1211.77 930.062 1216.23 909.511 C 1220.17 891.339 1220.16 891.176 1236.57 889.42 z" fill="rgb(47,95,175)" transform="translate(0,0)"></path>
<path d="M 1173.53 1037.41 C 1193.32 1034.92 1218.39 1038.38 1233.69 1052.15 C 1250.49 1066.91 1252.38 1096.28 1236.65 1112.5 C 1222.52 1127.07 1199.81 1125.1 1181.2 1127.09 C 1165.21 1128.81 1149 1128.91 1132.94 1128.98 C 1116.87 1129.3 1083.48 1127.74 1071.05 1116.96 C 1053.21 1101.47 1053.09 1072.7 1068.69 1055.19 C 1083.16 1038.95 1097.77 1041.54 1117.45 1040.52 C 1136.54 1038.68 1154.81 1038.92 1173.53 1037.41 z" fill="rgb(34,30,26)" transform="translate(0,0)"></path>
<path d="M 1133.7 1049.92 C 1138.12 1049.09 1170.78 1048.23 1173.49 1049.4 C 1173.18 1049.71 1170.82 1050.42 1170.29 1050.61 C 1160.95 1055.67 1152.8 1061.84 1148.93 1072 C 1140.38 1094.47 1150.27 1107.88 1168.8 1117.76 C 1149.43 1118.02 1130.89 1118.86 1111.5 1117.3 C 1091.61 1115.7 1070.63 1113.69 1067.93 1088.67 C 1066.94 1079.04 1069.86 1069.42 1076.03 1061.97 C 1088.81 1046.77 1113.53 1051.31 1133.7 1049.92 z" fill="rgb(244,237,222)" transform="translate(0,0)"></path>
<path d="M 1133.7 1049.92 C 1138.12 1049.09 1170.78 1048.23 1173.49 1049.4 C 1173.18 1049.71 1170.82 1050.42 1170.29 1050.61 C 1159.3 1049.15 1144.51 1050.76 1133.7 1049.92 z" fill="rgb(234,223,200)" transform="translate(0,0)"></path>
<path d="M 1206.4 1057.35 C 1215.87 1055.62 1225.53 1059.1 1231.72 1066.47 C 1237.9 1073.85 1239.64 1083.97 1236.28 1092.99 C 1232.92 1102.01 1224.98 1108.52 1215.48 1110.06 C 1201.01 1112.39 1187.36 1102.64 1184.87 1088.19 C 1182.38 1073.75 1191.99 1059.99 1206.4 1057.35 z" fill="rgb(47,95,175)" transform="translate(0,0)"></path>
<path d="M 1327.38 646.587 C 1348.07 644.739 1364.28 644.381 1382.09 657.128 C 1401.42 670.074 1403.43 703.634 1388.79 720.945 C 1363.82 750.466 1322.03 735.549 1289.48 738.188 C 1284.98 738.815 1280.47 739.381 1275.96 739.886 C 1228.91 744.774 1203.89 704.561 1232.73 665.713 C 1244.62 651.659 1269.26 647.52 1286.55 648.302 C 1301.21 648.964 1313.28 647.858 1327.38 646.587 z" fill="rgb(34,30,26)" transform="translate(0,0)"></path>
<path d="M 1337.09 656.412 C 1351.78 655.331 1361.07 656.088 1373.85 664.486 C 1389.05 674.481 1392.55 699.787 1380.83 713.56 C 1363.14 734.352 1329.51 728.779 1305.64 726.857 C 1299.23 726.341 1290.37 727.478 1283.76 728.168 C 1263.76 731.208 1233.98 729.276 1231.75 702.393 C 1228.1 658.438 1272.41 657.458 1303.86 658.813 C 1311.65 659.149 1328.51 657.112 1337.09 656.412 z" fill="rgb(47,95,175)" transform="translate(0,0)"></path>
<path d="M 1131.03 634.024 C 1165.39 632.009 1194.88 658.207 1196.93 692.561 C 1198.98 726.915 1172.81 756.434 1138.46 758.518 C 1104.06 760.605 1074.49 734.391 1072.44 699.988 C 1070.38 665.586 1096.63 636.042 1131.03 634.024 z" fill="rgb(34,30,26)" transform="translate(0,0)"></path>
<path d="M 1133.9 644.095 C 1162.54 643.614 1186.22 666.324 1186.92 694.965 C 1187.63 723.606 1165.11 747.459 1136.47 748.393 C 1107.52 749.338 1083.34 726.506 1082.62 697.543 C 1081.91 668.58 1104.93 644.582 1133.9 644.095 z" fill="rgb(47,95,175)" transform="translate(0,0)"></path>
<path d="M 971.213 1228.46 C 981.588 1227.23 994.64 1230.35 1004.85 1230.22 C 1015.73 1230.21 1026.5 1227.65 1037.4 1228.43 C 1094.63 1232.54 1115.13 1293.28 1074.01 1332.29 C 1060.13 1345.46 1020.41 1353.34 1002.21 1351.99 C 995.134 1351.01 989.577 1348.88 982.693 1347.08 C 966.368 1342.83 949.204 1349.64 932.606 1346.88 C 925.875 1346.18 919.777 1343.55 913.612 1341.32 C 890.686 1333.05 878.07 1318.93 876.386 1294.05 C 875.251 1277.28 878.773 1263.4 890.064 1250.08 C 903.983 1233.66 918.31 1233.16 938.42 1231.22 C 949.342 1230.2 960.273 1229.28 971.213 1228.46 z" fill="rgb(34,30,26)" transform="translate(0,0)"></path>
<path d="M 962.64 1238.4 C 982.255 1236.65 988.388 1239.78 1004.63 1239.89 C 1028.16 1238.96 1046.25 1233.24 1066.75 1248.86 C 1090.91 1267.28 1090.74 1295.46 1073.5 1318.67 C 1060.29 1336.46 1030.08 1340.76 1009.87 1343.19 C 1000.8 1342.13 981.298 1335.14 975.057 1335.62 C 944.582 1337.95 925.796 1343.42 898.722 1322.62 C 881.11 1306.69 882.607 1274.01 897.105 1256.9 C 912.322 1238.95 940.466 1240.4 962.64 1238.4 z" fill="rgb(47,95,175)" transform="translate(0,0)"></path>
<path d="M 1193.66 1231.39 C 1212.95 1227.69 1291.88 1234.4 1302.77 1250.24 C 1345.61 1312.52 1295.56 1352.57 1237.75 1352.26 C 1234.84 1352.13 1219.44 1353.05 1216.57 1353.32 C 1184.94 1356.68 1160.01 1354.92 1133.84 1334.08 C 1102.74 1309.3 1115.18 1252.17 1151.73 1239.61 C 1162.88 1235.77 1181.55 1232.57 1193.66 1231.39 z" fill="rgb(34,30,26)" transform="translate(0,0)"></path>
<path d="M 1205.2 1240.4 C 1231.09 1241.67 1274.97 1241.05 1295.42 1256.8 C 1309.06 1272.77 1314.21 1306.01 1297.6 1322.06 C 1281.18 1337.92 1251.76 1341.71 1230.05 1342.36 C 1227.52 1342.78 1224.99 1343.09 1222.44 1343.31 C 1191.04 1345.94 1165.37 1347.15 1140.08 1326.08 C 1118.39 1308.02 1125.42 1275.04 1141.74 1256.63 C 1153.01 1243.92 1188.95 1241.49 1205.2 1240.4 z" fill="rgb(47,95,175)" transform="translate(0,0)"></path>
<path d="M 1277.7 473.422 C 1297.9 470.372 1323.75 475.513 1343.67 477.956 C 1350.42 478.784 1360.17 475.703 1369.42 477.459 C 1375 478.475 1380.27 480.772 1384.81 484.17 C 1392.49 490.064 1397.48 498.785 1398.68 508.387 C 1404.67 552.986 1350.72 547.853 1321.67 548.063 C 1311.27 548.139 1301.09 544.106 1290.3 546.238 C 1280.58 548.338 1270.81 550.225 1261 551.898 C 1238.52 555.62 1203.82 556.968 1183.98 543.413 C 1166.44 531.442 1168.81 504.581 1180.91 489.283 C 1197.85 467.861 1220.86 476.735 1244.3 476.436 C 1255.06 476.299 1266.9 474.649 1277.7 473.422 z" fill="rgb(34,30,26)" transform="translate(0,0)"></path>
<path d="M 1116.73 505.501 C 1120.53 504.015 1124.84 504.705 1127.99 507.305 C 1131.14 509.905 1132.63 514.007 1131.89 518.021 C 1131.15 522.036 1128.29 525.334 1124.42 526.638 C 1118.63 528.589 1112.34 525.564 1110.26 519.823 C 1108.17 514.083 1111.04 507.725 1116.73 505.501 z" fill="rgb(34,30,26)" transform="translate(0,0)"></path>
<path d="M 1470.8 505.97 C 1476.65 504.957 1482.22 508.867 1483.25 514.715 C 1484.28 520.562 1480.39 526.142 1474.55 527.192 C 1468.68 528.247 1463.07 524.333 1462.03 518.459 C 1460.99 512.585 1464.93 506.987 1470.8 505.97 z" fill="rgb(34,30,26)" transform="translate(0,0)"></path>
<path d="M 1084.07 505.769 C 1088.94 503.719 1094.55 506.009 1096.59 510.879 C 1098.63 515.75 1096.34 521.354 1091.46 523.392 C 1086.6 525.425 1081.01 523.134 1078.97 518.272 C 1076.93 513.41 1079.21 507.814 1084.07 505.769 z" fill="rgb(34,30,26)" transform="translate(0,0)"></path>
<path d="M 1437.82 507.351 C 1440.96 506.097 1444.54 506.686 1447.11 508.88 C 1449.68 511.075 1450.83 514.513 1450.09 517.812 C 1449.35 521.112 1446.84 523.729 1443.58 524.612 C 1438.91 525.872 1434.08 523.277 1432.55 518.697 C 1431.02 514.117 1433.34 509.14 1437.82 507.351 z" fill="rgb(34,30,26)" transform="translate(0,0)"></path>
<path d="M 691.21 1088.36 C 707.329 1087.2 722.014 1093.4 738.242 1094.08 C 756.619 1094.85 773.938 1089.59 792.196 1091.15 C 806.604 1092.38 820.39 1090.87 834.725 1089.88 C 829.947 1106.49 828.725 1121.26 826.139 1138.21 C 825.423 1148.84 816.236 1164.81 815.199 1174.54 C 812.638 1198.59 806.329 1217.69 799.146 1240.58 C 793.16 1257.92 792.076 1279.57 786.671 1296.68 C 774.746 1334.42 767.665 1364.26 763.427 1403.85 C 744.169 1405.5 733.213 1402.39 714.916 1402.04 C 702.18 1401.8 687.587 1405.96 672.886 1405.9 C 655.944 1403.12 633.035 1398.76 616.175 1404.24 C 590.398 1412.61 562.714 1417.35 539.125 1399.89 C 534.613 1396.55 530.775 1387.73 530.86 1381.99 C 531.343 1349.72 544.588 1319.14 552.25 1288.22 C 555.09 1273 554.973 1257.5 559.121 1242.51 C 563.611 1226.28 570.582 1210.62 574.721 1194.33 C 576.694 1186.57 577.032 1177.28 578.175 1169.27 C 579.933 1156.95 582.456 1144.85 586.233 1132.98 C 590.294 1120.52 596.968 1106.98 605.455 1096.97 C 613.368 1095.19 629.476 1090.58 636.787 1090.77 C 656.867 1091.32 671.213 1091.35 691.21 1088.36 z" fill="rgb(244,237,222)" transform="translate(0,0)"></path>
<path d="M 631.32 1275.23 C 639.776 1274.8 648.913 1276.48 657.326 1276.07 C 684.005 1274.43 710.605 1275.13 737.159 1277.61 C 773.226 1280.97 783.491 1329.15 762.701 1353.96 C 752.695 1365.9 743.313 1366.87 728.762 1368.24 C 714.791 1369.91 709.825 1369.38 695.795 1368.68 C 689.294 1368.58 681.996 1370.7 675.598 1370.62 C 647.362 1370.25 603.995 1374.6 592.757 1340.61 C 588.821 1328.7 589.162 1311.11 594.827 1300.32 C 602.525 1285.64 616.354 1279.53 631.32 1275.23 z" fill="rgb(34,30,26)" transform="translate(0,0)"></path>
<path d="M 669.247 1285.36 C 670.412 1285.26 671.578 1285.19 672.746 1285.14 C 686.816 1284.51 701.338 1285.91 715.371 1285.78 C 740.974 1285.56 763.933 1291.65 762.997 1322.54 C 761.642 1367.2 723.029 1358.38 692.826 1357.84 L 690.399 1358.38 C 671.4 1362.5 631.72 1363.01 614.52 1352.18 C 598.426 1342.05 595.906 1315.51 606.898 1300.59 C 623.361 1278.24 646.666 1289.28 667.725 1285.64 L 669.247 1285.36 z" fill="rgb(47,95,175)" transform="translate(0,0)"></path>
<path d="M 660.225 1123.36 C 694.658 1119.48 725.672 1144.36 729.356 1178.82 C 733.039 1213.27 707.987 1244.15 673.513 1247.64 C 639.309 1251.1 608.731 1226.29 605.076 1192.11 C 601.421 1157.92 626.063 1127.21 660.225 1123.36 z" fill="rgb(34,30,26)" transform="translate(0,0)"></path>
<path d="M 664.122 1134.21 C 734.492 1128.1 738.592 1227.65 670.307 1237.51 C 625.983 1236.43 599.437 1198.91 623.152 1157.9 C 631.929 1142.72 647.564 1137.6 664.122 1134.21 z" fill="rgb(47,95,175)" transform="translate(0,0)"></path>
<path d="M 1580.59 299.403 C 1603.1 296.847 1627.37 304.738 1647.51 305.608 C 1666.41 306.666 1692.88 298.479 1711.11 299.958 C 1753.62 303.406 1791.6 309.177 1834.47 302.9 C 1851.81 300.362 1880.02 302.301 1893.07 315.463 C 1906.88 329.387 1893.1 364.113 1888.35 380.032 L 1874.28 428.122 C 1871.75 437.09 1868.33 461.338 1861.38 467.164 C 1832.24 491.581 1799.88 476.649 1766.25 475.271 C 1743.59 473.979 1730.48 476.78 1708.5 477.713 C 1701.41 478.014 1684.01 475.195 1675.92 474.593 C 1660.76 473.463 1650.97 473.931 1636.13 475.199 C 1636.01 458.777 1635.54 452.954 1632 437.338 C 1642.67 430.368 1652.74 414.214 1655.42 401.857 C 1663.18 366.068 1648.57 341.257 1613.91 332.412 C 1597.42 328.053 1579.85 330.667 1565.34 339.642 C 1549.37 349.363 1544.14 360.735 1539.83 377.934 C 1529.96 377.822 1517.47 378.834 1507.36 379.413 C 1510.74 359.539 1516.13 336.36 1528.75 320.017 C 1541.27 303.809 1561.52 301.328 1580.59 299.403 z" fill="rgb(244,237,222)" transform="translate(0,0)"></path>
<path d="M 1733.71 342.377 C 1744.02 341.358 1752.66 343.611 1762.8 343.683 C 1773.32 343.757 1783.65 342.42 1794.32 342.639 C 1812.92 342.82 1828.38 341.247 1842.45 355.853 C 1857.93 371.926 1860.78 400.349 1843.22 416.17 C 1831.38 426.834 1819.75 429.222 1804.33 428.559 C 1766.72 425.997 1689 447.167 1680.74 391.519 C 1675.66 357.262 1706.8 345.352 1733.71 342.377 z" fill="rgb(34,30,26)" transform="translate(0,0)"></path>
<path d="M 1739.94 352.388 C 1747.17 352.329 1754.6 354.399 1763.38 354.343 C 1793.4 354.154 1843.38 341.858 1845.09 387.967 C 1846.1 414.987 1819.48 418.596 1797.75 417.67 C 1791.09 416.963 1786.43 417.745 1779.57 418.393 C 1756.66 420.558 1722.25 423.758 1702.44 410.319 C 1689.25 401.371 1687.35 376.474 1698.94 365.089 C 1710.53 353.702 1724.63 353.089 1739.94 352.388 z" fill="rgb(47,95,175)" transform="translate(0,0)"></path>
<path d="M 1712.9 1010.36 C 1730.13 1007.79 1774.2 1011.79 1773.64 1035.84 C 1772.98 1064.37 1761.8 1089.04 1752.46 1115.32 C 1746.68 1131.59 1749.98 1156.39 1737.05 1170.08 C 1706.25 1202.7 1661.09 1177.02 1622.44 1177.87 C 1597.51 1178.41 1575.34 1182.94 1551.26 1185.36 C 1541.73 1186.33 1493.56 1185.34 1487.27 1179.38 L 1487.7 1175.76 C 1490.42 1165.16 1493.16 1156.04 1496.48 1145.6 C 1521.68 1148.35 1561.43 1149.16 1580.18 1130 C 1599.46 1110.31 1600.15 1076.74 1581.05 1056.88 C 1567.31 1042.58 1537.59 1046.73 1519.48 1047.16 C 1521.24 1035.69 1523.26 1024.26 1525.54 1012.88 C 1552.61 1014.39 1578.99 1009.71 1606.21 1012.93 C 1614.66 1013.93 1629.97 1010.12 1638.33 1010.96 C 1665.3 1013.66 1686.14 1013.9 1712.9 1010.36 z" fill="rgb(244,237,222)" transform="translate(0,0)"></path>
<path d="M 1660.98 1040.22 C 1713.3 1033.41 1747.35 1073.5 1725.03 1122.93 C 1718.06 1138.38 1699.7 1146.63 1684.55 1151.36 C 1658.9 1154.46 1621.78 1141.34 1615.11 1113.4 C 1606.38 1076.88 1625.4 1049.37 1660.98 1040.22 z" fill="rgb(34,30,26)" transform="translate(0,0)"></path>
<path d="M 1662.15 1050.3 C 1706.77 1045.94 1734.93 1074.51 1715.31 1119.7 C 1710.55 1130.67 1695.62 1137.82 1684.56 1141.15 C 1663.45 1143.55 1629.59 1133.97 1624.65 1109.77 C 1618.78 1080.99 1632.57 1056.4 1662.15 1050.3 z" fill="rgb(47,95,175)" transform="translate(0,0)"></path>
<path d="M 1537.66 1056.46 C 1547.18 1056.08 1565.69 1055.99 1572.57 1062.81 C 1596.97 1087.01 1583.3 1131.42 1549.05 1134.01 C 1533.14 1135.66 1515.19 1137.09 1499.43 1135.03 C 1506.44 1108.41 1514.45 1084.72 1517.53 1056.93 C 1524.6 1056.91 1530.58 1056.83 1537.66 1056.46 z" fill="rgb(47,95,175)" transform="translate(0,0)"></path>
<path d="M 1593.57 340.323 C 1647.91 337.671 1665.04 391.601 1628.4 428.073 C 1624.96 422.648 1623.67 420.621 1619.37 415.88 C 1596.69 391.345 1583.51 385.098 1550.83 379.616 C 1555.95 353.034 1568.82 345.458 1593.57 340.323 z" fill="rgb(47,95,175)" transform="translate(0,0)"></path>
<path d="M 1560.99 670.582 C 1571.11 674.161 1566.41 679.114 1564.17 688.005 C 1561.76 697.611 1558.3 707.327 1556.13 717.012 L 1554.26 725.522 C 1552.75 732.197 1552.37 736.06 1548.02 741.224 C 1544.67 740.147 1539.6 739.279 1541.59 734.922 C 1548.43 719.947 1554.13 682.946 1560.99 670.582 z" fill="rgb(244,237,222)" transform="translate(0,0)"></path>
<path d="M 1584.01 571.196 C 1590.48 572.829 1592.4 575.893 1589.63 582.4 C 1583.79 596.142 1581.33 620.781 1573.69 632.909 C 1561.44 634.125 1565.91 629.422 1569.38 617.891 C 1573.72 603.426 1578.98 585.278 1584.01 571.196 z" fill="rgb(244,237,222)" transform="translate(0,0)"></path>
<path d="M 785.113 382.5 C 841.284 377.347 876.268 420.617 883.627 472.886 C 886.051 490.104 882.046 503.436 876.051 519.373 C 881.192 529.791 887.023 540.089 891.992 550.583 C 894.333 555.526 895.098 559.034 890.561 562.513 C 882.199 564.249 859.085 556.732 850.63 553.535 C 839.63 559.874 828.328 565.675 816.765 570.917 C 787.049 577.754 752.07 572.141 727.879 552.279 C 710.98 538.405 695.576 512.431 693.972 490.196 C 692.191 462.249 701.588 434.74 720.095 413.724 C 737.736 393.865 758.883 384.078 785.113 382.5 z" fill="rgb(34,30,26)" transform="translate(0,0)"></path>
<path d="M 793.298 392.38 C 804.276 391.257 815.339 393.455 825.053 398.691 C 865.619 420.322 887.035 475.695 864.334 517.741 L 882.097 552.233 C 869.311 549.035 860.005 546.413 847.865 540.963 C 840.219 548.528 822.259 558.928 811.745 561.553 C 785.297 566.882 754.85 561.285 733.851 543.564 C 719.276 531.266 705.694 508.412 704.437 489.053 C 702.943 464.338 711.154 440.016 727.322 421.263 C 747.095 398.678 765.43 394.388 793.298 392.38 z" fill="rgb(47,95,175)" transform="translate(0,0)"></path>
<metadata><recraft-signature>{"signed_by": "recraft", "signature_b64": "cqo21asq8X6I9Fm9L2B+vxY8OqAEdGuvRA9tSMzTifQLo7gAQOcIFu8e8BhwyHMjBORHxT4/ezUZ2mSbStpNBw==", "signing_algo": "Ed25519", "generation_timestamp": 1782907549, "identifier": "9534b9d5-1d24-47bf-8e5e-50441d81c131"}</recraft-signature></metadata></svg>