<svg xmlns="http://www.w3.org/2000/svg" height="1792" preserveAspectRatio="none" style="display: block;" version="1.1" viewBox="0 0 2432 1792" width="2432">
<path d="M 0 0 L 2432 0 L 2432 1792 L 0 1792 L 0 0 z" fill="rgb(244,237,222)" transform="translate(0,0)"></path>
<path d="M 420.565 775.329 C 425.603 752.646 419.457 741.349 418.163 719.159 C 418.196 704.522 423.011 691.323 422.128 676.541 C 421.55 666.866 411.614 644.527 421.287 638.254 C 436.004 628.71 462.353 632.005 479.049 632.951 C 484.636 633.268 493.09 629.94 499.093 630.401 C 515.157 634.335 527.176 630.754 543.037 629.406 C 547.197 629.088 558.204 632.57 561.721 632.108 C 574.12 630.479 587.543 633.12 599.222 632.681 C 616.788 632.022 634.183 630.467 651.858 630.971 C 655.445 631.073 659.065 631.31 661.273 634.517 C 672.349 650.514 664.481 666.634 663.167 683.501 C 662.537 691.585 665.474 702.861 665.038 711.517 C 665.715 722.342 661.01 741.924 662.752 751.868 C 666.606 773.877 668.3 787.82 662.92 810.163 C 661.719 815.149 666.221 829.513 665.455 834.736 C 661.996 858.34 663.044 878.567 666.447 902 C 667.054 911.884 662.307 925.994 663.043 935.401 C 664.507 954.125 669.019 969.831 664.804 988.794 C 664.383 990.691 663.066 1001.83 663.2 1003.39 C 665.043 1025.02 666.01 1044.75 662.881 1066.38 C 661.902 1073.51 665.947 1088.64 665.829 1097.2 C 665.633 1111.44 663.293 1125 662.43 1139.17 C 662.254 1153.43 664.772 1165.14 664.044 1180.41 C 668.458 1187.77 671.408 1192.74 673.059 1201.28 L 674.991 1201.94 C 675.335 1200.58 675.687 1199.23 676.049 1197.88 C 677.281 1181.51 691.854 1156.91 704.967 1147.06 C 719.052 1136.49 739.133 1133.1 756.316 1135.51 C 799.222 1141.54 814.394 1182.65 808.151 1221.2 C 805.094 1239.91 794.871 1250.19 780 1260.63 C 804.631 1267.14 820.103 1274.88 835.622 1295.18 C 839.578 1293.6 843.885 1292.3 847.951 1290.98 C 832.901 1274.65 824.132 1263.11 821.202 1239.95 C 819.593 1225.28 823.645 1209.31 833.339 1198.21 C 873.256 1152.49 952.424 1162.66 955.801 1231.31 C 956.965 1254.98 950.319 1271.33 934.816 1289.19 C 952.642 1294.19 971.721 1307.59 984.857 1320.44 L 991.373 1312.77 C 969.52 1272.34 967.033 1215.72 1010.64 1188.02 C 1024.47 1179.23 1043.02 1176.23 1059 1180.18 C 1077.49 1184.86 1093.42 1196.6 1103.36 1212.89 C 1100.8 1170.51 1128.27 1132.9 1173.76 1138.65 C 1192.5 1140.91 1214.32 1148.02 1225.7 1164.54 C 1249.73 1199.4 1236.51 1237.87 1205.6 1261.33 C 1216.42 1264.86 1224.61 1269.52 1234.6 1274.8 C 1256.47 1193.27 1353.58 1190.69 1370.12 1273.19 C 1379.3 1267.74 1387.27 1265.08 1397.2 1261.5 C 1367.91 1234.18 1358.57 1193.78 1382.37 1159.63 C 1404.05 1128.53 1448.02 1126.49 1477.4 1147.6 C 1492.89 1158.72 1501.05 1175.56 1504.01 1194.02 L 1505.89 1195.08 C 1516.97 1136.59 1581.14 1116.01 1622.46 1159.84 C 1635.24 1173.57 1642.07 1191.81 1641.45 1210.56 C 1640.73 1231.21 1628.97 1248.19 1614.4 1261.83 C 1638.09 1269.95 1648.97 1274.79 1667.8 1291.09 L 1676.8 1288.35 C 1657.67 1268.6 1643.82 1235.4 1657.39 1209.72 C 1679.03 1168.78 1719.67 1158.91 1758.99 1178.76 C 1761.36 1168.48 1758.07 1151.89 1758.44 1140.72 C 1758.69 1132.95 1760.1 1124.95 1760.31 1117.51 C 1760.44 1113.03 1757.53 1103.19 1757.48 1097.93 C 1757.41 1089.13 1761.38 1080.09 1760.75 1071.4 C 1760.11 1062.61 1755.77 1051.71 1756.24 1042.91 C 1756.87 1031.27 1761.3 1021.53 1761.27 1009.43 C 1761.23 993.61 1757.43 977.447 1757.6 961.912 C 1757.74 949.335 1762.37 935.615 1761.52 922.517 C 1760.74 910.508 1756.97 897.976 1757.3 886.095 C 1757.58 876.03 1760.52 864.492 1761.5 854.439 C 1762.37 845.52 1760.34 833.272 1758.6 824.41 C 1754.36 802.704 1760.31 788.828 1762.75 767.947 C 1764.17 755.773 1758.85 737.525 1759.07 724.812 C 1759.35 708.919 1763.89 695.269 1762.42 678.857 C 1761.57 669.382 1757.3 644.837 1762.94 637.479 C 1767.28 631.806 1797.17 631.178 1805.38 630.289 C 1811.63 629.613 1825.56 632.547 1832.16 632.456 C 1843.16 632.303 1854.09 633.123 1865.05 633.323 C 1871.5 633.441 1878.57 632.505 1885.04 632.559 C 1892.32 632.146 1900.64 634.75 1907.75 634.207 C 1920.77 633.214 1932.17 632.44 1945.38 632.775 C 1955.71 633.037 1994.36 629.348 2001.17 636.831 C 2008.98 645.413 2005 672.766 2005 683.705 C 2005.08 693.908 2006.96 705.794 2006.92 716.166 C 2006.94 726.824 2004.55 740.921 2004.73 751.214 C 2004.88 760.09 2006.84 770.341 2007.29 779.931 C 2023.02 785.728 2035.01 795.683 2044.48 809.326 C 2064.99 838.9 2063.48 865.517 2062.36 899.019 C 2060.64 951.043 2050.96 994.319 2005.8 1024.91 C 2008.86 1045.25 2006.1 1055.58 2004.81 1075.25 C 2004.49 1080.23 2006.55 1093.54 2006.54 1099.8 C 2006.52 1106.99 2004.67 1120.15 2005.19 1126.14 C 2006.86 1145.29 2008.64 1151.61 2004.51 1170.76 C 2008.69 1178.75 2011.69 1187.99 2011.97 1197.07 L 2013.8 1198.74 C 2026.62 1138.21 2102.73 1112.62 2138.4 1168.42 C 2159.09 1200.79 2149.11 1235.67 2122.62 1260.72 C 2162.06 1273.17 2186.22 1289.9 2206.06 1328.26 C 2213.73 1342.89 2218.71 1358.77 2220.78 1375.16 C 2222.48 1388.94 2219.73 1398.5 2219.07 1411.89 C 2218.67 1419.95 2221.6 1432.34 2221.34 1440.69 C 2220.97 1453.26 2218.85 1466.11 2218.69 1478.73 C 2218.5 1493.67 2225.33 1509.53 2220.3 1524.11 C 2218.78 1528.54 2215.64 1533.38 2211.27 1535.31 C 2199.71 1540.41 2182.07 1533.04 2170.37 1533.2 C 2153.67 1533.44 2137.38 1538.22 2120.51 1538.08 C 2109.15 1537.99 2098.94 1532.36 2088.25 1533.38 C 2073.51 1534.79 2061.44 1539.55 2046.27 1539.48 C 2033.03 1539.42 2018.98 1533.62 2006.66 1534.28 C 1992.12 1535.06 1978.42 1539.68 1963.22 1539.11 C 1949.74 1538.6 1937.2 1532.85 1924.24 1533.55 C 1912.4 1534.19 1899.2 1539.7 1887.04 1539.02 C 1873.19 1538.24 1859.64 1534.37 1845.7 1533.09 C 1832.17 1531.85 1819.64 1535.9 1806.55 1535.9 C 1796.32 1535.9 1785.21 1532.74 1774.47 1532.72 C 1757.9 1532.68 1742.62 1539.03 1726.47 1539.32 C 1714.3 1539.54 1700.21 1535.19 1688.06 1534.57 C 1674.8 1533.88 1660.41 1538.21 1647.16 1538.01 C 1628.04 1537.73 1609.43 1532.85 1590.18 1532.88 C 1569.21 1532.9 1550.72 1538.15 1529.69 1538.39 C 1512.19 1538.59 1497.03 1534.1 1480.49 1533.27 C 1466.89 1532.59 1451.11 1538.18 1435.9 1538.02 C 1423.21 1537.89 1409.5 1533.86 1398.35 1533.87 C 1378.78 1533.88 1360.18 1538.07 1339.9 1538.25 C 1321 1538.41 1304.85 1534.4 1287.48 1533.69 C 1273.71 1533.13 1256.02 1538.95 1239.4 1538.52 C 1226.03 1538.17 1208.92 1533.06 1198.6 1533.26 C 1173.01 1533.75 1151.66 1539.26 1124.91 1539.4 C 1111.57 1539.51 1098.25 1538.77 1085 1537.19 C 1075.53 1536.16 1060.92 1533.86 1051.89 1534.55 C 1034.02 1535.91 1015.73 1541.68 997.545 1541.46 C 980.433 1541.24 966.192 1535.25 948.679 1534.11 C 935.812 1533.27 917.86 1537.19 906.751 1535.42 C 903.352 1537.57 900.202 1563.58 897.473 1571.05 C 896.731 1576.88 886.538 1598.13 886.79 1602.56 C 888.034 1624.49 882.959 1632.19 874.514 1650.69 C 870.697 1659.05 875.434 1679.99 859.583 1683.78 C 846.275 1686.96 837.794 1676.06 825.374 1674.04 C 795.652 1675.58 779.583 1662.73 752.964 1654.34 C 743.953 1651.5 725.385 1656.72 715.75 1652.82 C 692.704 1643.5 678.134 1635.46 652.307 1635.92 C 642.395 1635.92 617.881 1622.81 606.731 1620.97 C 597.301 1619.41 587.655 1618.29 578.115 1617.08 C 565.479 1615.36 552.921 1613.11 540.472 1610.34 C 526.241 1607.08 517.588 1599.32 503.87 1595.72 C 489.633 1591.98 470.395 1594.84 456.409 1591.51 C 441.411 1587.93 427.363 1578.63 411.731 1574.28 C 394.715 1569.54 380.371 1572.55 363.63 1569.57 C 349.172 1567 333.859 1557.4 319.593 1554.45 C 308.423 1552.13 295.16 1553.28 283.513 1551.48 C 269.437 1549.3 257.348 1540.31 244.015 1537.38 C 232.862 1535.31 219.982 1539.41 209.649 1533.28 C 202.371 1528.96 198.416 1520.15 199.799 1511.81 C 200.868 1505.38 204.799 1498.62 205.929 1492.34 C 207.546 1483.36 205.862 1473.2 208.844 1464.32 C 209.555 1460.16 217.725 1450.28 217.858 1446.45 C 218.439 1429.72 221.798 1421.21 229.719 1406.86 C 231.446 1403.73 229.572 1388.94 230.833 1384.65 C 233.039 1377.14 236.746 1369.99 239.03 1362.49 C 242.075 1350.85 242.66 1337.22 249.545 1326.74 C 257.715 1314.3 252.485 1305.65 254.779 1291.36 C 256.44 1281.19 265.383 1273.07 268.628 1263.73 C 271.326 1255.96 269.137 1245.56 269.957 1237.09 C 270.931 1227.04 273.882 1216.85 280.689 1209.08 C 285.434 1203.67 292.089 1202.24 298.911 1202.34 C 308.776 1201 322.774 1212.42 330.929 1213.36 C 351.967 1215.78 365.499 1213.42 385.901 1223.47 C 395.078 1227.99 412.28 1228.14 422.845 1227.99 C 423.5 1217.99 420.494 1210.48 419.818 1200.61 C 419.278 1192.73 422.474 1184.68 422.513 1177.35 C 422.708 1170.77 419.08 1161.32 419.655 1155 C 421.098 1139.15 422.296 1124.51 421.366 1108.54 C 421.035 1102.86 422.8 1095.35 422.627 1089.39 C 422.385 1081.05 419.563 1073.5 419.412 1065.2 C 420.714 1048.91 423.3 1039.25 422.183 1022.5 C 420.523 1022.1 418.875 1021.65 417.239 1021.16 C 403.45 1016.91 389.734 996.948 383.62 984.461 C 361.372 939.018 359.503 873.764 375.3 825.846 C 383.93 799.671 396.632 787.104 420.565 775.329 z" fill="rgb(34,30,26)" transform="translate(0,0)"></path>
<path d="M 2013.87 1210.1 C 2017.1 1236.11 2023.96 1246.12 2041.9 1262.91 C 2029.94 1266.9 2024.38 1268.91 2013.5 1275.2 C 2001.9 1266.69 1999.15 1265.17 1985.41 1260.7 C 1999.66 1243.02 2009.89 1238.16 2012.05 1212.29 L 2013.87 1210.1 z" fill="rgb(244,237,222)" transform="translate(0,0)"></path>
<path d="M 673.958 1222.68 C 674.902 1220.35 675.191 1219.95 676.589 1217.84 C 681.974 1236.91 690.128 1247.63 706.565 1258.21 C 694.689 1263.9 687.662 1267.03 676.632 1274.67 C 670.681 1270.39 666.182 1267.84 659.899 1264.16 C 667.979 1248.9 671.812 1240.23 673.958 1222.68 z" fill="rgb(244,237,222)" transform="translate(0,0)"></path>
<path d="M 673.059 1201.28 L 674.991 1201.94 C 674.843 1205.97 674.309 1208.04 675.434 1211.83 C 675.875 1213.85 676.439 1215.8 676.589 1217.84 C 675.191 1219.95 674.902 1220.35 673.958 1222.68 C 673.749 1212.82 673.962 1211.01 673.059 1201.28 z" fill="rgb(175,171,169)" transform="translate(0,0)"></path>
<path d="M 2011.97 1197.07 L 2013.8 1198.74 C 2013.93 1202.53 2013.95 1206.32 2013.87 1210.1 L 2012.05 1212.29 C 2011.96 1207.22 2011.93 1202.15 2011.97 1197.07 z" fill="rgb(175,171,169)" transform="translate(0,0)"></path>
<path d="M 676.049 1197.88 C 676.09 1202.48 676.128 1207.28 675.434 1211.83 C 674.309 1208.04 674.843 1205.97 674.991 1201.94 C 675.335 1200.58 675.687 1199.23 676.049 1197.88 z" fill="rgb(89,84,82)" transform="translate(0,0)"></path>
<path d="M 1504.01 1194.02 L 1505.89 1195.08 C 1505.89 1196.38 1505.93 1197.64 1505.96 1198.95 L 1504.08 1198.27 L 1504.01 1194.02 z" fill="rgb(175,171,169)" transform="translate(0,0)"></path>
<path d="M 298.554 1221.83 C 306.647 1223.02 318.122 1230.19 327.316 1232.57 C 338.701 1235.51 348.316 1233.21 358.984 1235.05 C 369.776 1236.92 381.884 1244.32 393.213 1246.51 C 404.151 1248.63 416.648 1247.13 427.155 1249.73 C 439.461 1252.77 450.194 1260.53 463.015 1263.71 C 473.729 1266.37 484.226 1263.88 494.088 1265.74 C 502.785 1267.38 513.808 1273.92 523.35 1275.87 C 537.334 1278.73 551.186 1276.8 564.775 1280.99 C 575.532 1284.31 588.452 1292.75 599.146 1294.95 C 615.605 1298.35 631.377 1297.94 648.145 1302.32 C 668.816 1307.71 686.046 1320.53 706.669 1324.99 C 720.559 1327.99 735.51 1326.67 749.87 1329.18 C 764.037 1331.66 779.472 1340.69 792.701 1343.51 C 802.186 1345.53 813.228 1344.42 824.715 1347.06 C 842.508 1351.15 858.859 1358.73 876.488 1361.77 C 888.122 1363.78 905.821 1361.36 916.907 1367.96 C 920.634 1370.19 921.966 1374.26 922.786 1378.21 C 926.044 1393.9 915.756 1401.29 912.193 1414.99 C 909.985 1423.49 912.88 1435.68 910.716 1444.38 C 908.715 1452.42 902.193 1460.17 899.452 1468.04 C 895.811 1478.48 898.697 1491.48 896.271 1501.85 C 894.529 1509.29 887.386 1518.12 885.569 1526.32 C 883.82 1534.21 884.938 1552.36 880.438 1558.55 C 876.941 1559.52 877.447 1558.92 873.239 1557.47 C 861.305 1553.25 844.646 1549.84 831.998 1547.85 C 823.587 1546.52 813.332 1546.09 805.176 1544.02 C 795.768 1541.65 785.035 1534.77 775.367 1533.13 C 767.056 1531.72 756.78 1533.31 748.36 1531.09 C 738.318 1528.45 728.39 1522.08 718.391 1519.44 C 710.406 1517.33 699.335 1518.55 691.132 1516.67 C 681.955 1514.56 673.058 1509.32 664.079 1506.87 C 655.628 1504.56 642.556 1505.45 634.545 1502.86 C 626.788 1500.36 618.837 1495.81 610.654 1493.72 C 598.642 1490.64 585.602 1492.56 573.699 1490.43 C 561.601 1488.27 548.965 1480.07 536.923 1477.26 C 529.293 1475.48 520.413 1477.34 512.173 1475.61 C 501.121 1473.28 489.248 1466.77 478.365 1464.99 C 470.708 1463.74 460.828 1465.62 452.539 1463.75 C 442.717 1461.54 434.665 1455 425.444 1452.29 C 414.382 1449.04 400.963 1451.67 389.564 1448.64 C 374.71 1444.68 361.036 1435.63 345.788 1433.09 C 337.13 1431.12 323.009 1434.22 314.914 1431.55 C 291.226 1423.72 274.099 1416.57 248.972 1412.36 C 251.197 1403.43 250.615 1397.26 251.851 1388.39 C 252.667 1382.53 258.42 1373.75 260.057 1367.89 C 261.746 1361.85 261.224 1352.18 263.032 1346.16 C 265.518 1337.89 272.592 1331.05 274.326 1321.81 C 276.037 1312.69 273.538 1301.05 276.001 1292.54 C 278.786 1282.91 287.219 1275.83 289.314 1265.05 C 291.295 1254.85 288.972 1245.05 290.663 1234.98 C 291.748 1228.52 293.365 1225.5 298.554 1221.83 z" fill="rgb(244,237,222)" transform="translate(0,0)"></path>
<path d="M 521.198 1326.46 C 568.496 1325.02 678.97 1352.35 713.948 1384.9 C 723.031 1393.35 729.751 1404.73 729.834 1417.43 C 729.897 1426.91 726.188 1436.45 719.395 1443.12 C 704.37 1457.86 681.596 1458.95 661.84 1458.8 C 628.561 1456.26 603.791 1459.51 570.662 1447.03 C 551.786 1439.92 528.37 1437.66 509.833 1426 C 489.837 1413.43 457.089 1398.37 454.133 1371.38 C 453.881 1336.18 493.497 1328.41 521.198 1326.46 z" fill="rgb(34,30,26)" transform="translate(0,0)"></path>
<path d="M 518.625 1346.34 C 532.589 1345.19 544.499 1348.05 558.693 1350.04 C 608.967 1357.09 653.857 1368.76 696.546 1397.38 C 701.357 1400.93 709.559 1408.5 709.465 1414.86 C 709.17 1434.73 682.766 1438.39 668.688 1439.14 C 658.427 1439.11 625.819 1438.61 616.506 1437.13 C 586.568 1431.78 553.792 1424.15 525.981 1411.77 C 514.979 1406.87 476.724 1384.17 475.23 1371.73 C 472.974 1352.94 505.098 1347.97 518.625 1346.34 z" fill="rgb(26,28,183)" transform="translate(0,0)"></path>
<path d="M 1781.32 652.373 C 1799.11 651.583 1808.25 646.351 1826.89 652.758 C 1832.78 653.386 1841.83 651.966 1847.41 652.363 C 1863.24 653.492 1872.6 653.653 1888.06 650.295 C 1909.53 658.201 1910.97 653.171 1932.74 650.841 C 1935.83 650.51 1945.64 653.644 1949.74 653.63 C 1954.59 653.613 1963.5 650.679 1967.66 650.67 C 1972.74 650.66 1978.09 652.46 1984.4 652.76 L 1985.55 652.806 C 1984.88 664.134 1983.71 675.221 1983.84 686.57 C 1983.94 695.712 1985.93 707.402 1985.57 716.232 C 1985.12 727.283 1982.34 739.051 1982.93 750.389 C 1983.46 760.581 1987.13 772.136 1986.87 782.258 C 1986.57 793.537 1981.97 804.664 1982.4 816.342 C 1982.77 826.408 1986.98 838.119 1986.99 847.769 C 1987.01 856.938 1985.12 867.09 1985.11 876.611 C 1985.09 886.855 1988.04 901.502 1987.34 911.106 C 1986.3 925.213 1982.65 938.322 1983.07 953.058 C 1983.4 964.331 1987.9 976.452 1987.85 987.087 C 1987.81 995.94 1983.67 1008.18 1983.4 1017.8 C 1983.13 1027.52 1986.96 1037.17 1986.95 1046.14 C 1987.41 1054.71 1984 1066.73 1984.61 1074.95 C 1985.98 1093.58 1984.58 1109.95 1982.53 1128.34 C 1982.19 1131.39 1984.99 1143.18 1985.45 1147.61 L 1985.52 1148.41 C 1976.09 1141.6 1966.46 1138.07 1954.81 1137.99 L 1953.07 1136.43 C 1954.25 1131.24 1956.6 1126.43 1957.88 1120.82 C 1967.66 1078.69 1944.49 1033.72 1900.61 1024.32 C 1863.73 1016.43 1820.42 1037.53 1812.44 1076.43 C 1803.71 1119.02 1826.09 1164.26 1871.19 1171.38 C 1874.31 1171.87 1880.15 1172.35 1882.89 1173.21 C 1866.37 1206.84 1873.02 1238 1903.21 1260.43 C 1893.79 1263.42 1885.48 1265.77 1876.72 1270.57 C 1841.24 1255.34 1805.24 1264.91 1780.44 1294.65 C 1778.68 1291.86 1780.36 1274.45 1780.64 1270 C 1780.89 1266.05 1785.55 1258.53 1786.48 1253.96 C 1790.39 1234.9 1787.04 1215.06 1777.69 1198.49 C 1778.35 1189.06 1781.73 1177.98 1781.99 1168.1 C 1782.23 1159.29 1779.99 1149.12 1780.31 1140.54 C 1780.52 1134.71 1783.07 1127.21 1783.1 1120.6 C 1783.14 1113.06 1780.14 1104 1780.2 1097.06 C 1780.27 1089.52 1783.44 1080.02 1783.32 1071.9 C 1783.19 1062.69 1778.58 1051.56 1779.16 1042.55 C 1779.8 1032.53 1782.51 1022.16 1783.14 1011.87 C 1784.12 996.084 1780.12 980.168 1779.91 964.763 C 1779.76 953.241 1783.59 939.539 1783.4 927.423 C 1783.18 914.154 1779.47 899.832 1779.75 886.832 C 1780.04 873.651 1783.59 860.942 1783.33 847.212 C 1783.06 833.402 1778.88 819.804 1778.55 806.569 C 1778.21 792.954 1783.35 777.17 1784.09 763.033 C 1784.78 749.651 1780.82 737.645 1780.49 725.051 C 1780.21 713.871 1782.84 699.957 1783.01 688.571 C 1783.2 676.503 1782.15 664.409 1781.32 652.373 z" fill="rgb(244,237,222)" transform="translate(0,0)"></path>
<path d="M 1887.85 679.812 C 1929.5 680.933 1962.24 715.814 1960.72 757.454 C 1959.21 799.094 1924.02 831.502 1882.4 829.592 C 1841.33 827.707 1809.44 793.087 1810.94 752.001 C 1812.43 710.916 1846.75 678.705 1887.85 679.812 z" fill="rgb(34,30,26)" transform="translate(0,0)"></path>
<path d="M 1877.44 700.088 C 1907.29 695.676 1935.03 716.398 1939.26 746.273 C 1943.5 776.149 1922.61 803.765 1892.71 807.825 C 1863.06 811.851 1835.72 791.177 1831.52 761.549 C 1827.32 731.922 1847.83 704.463 1877.44 700.088 z" fill="rgb(26,28,183)" transform="translate(0,0)"></path>
<path d="M 1879.48 851.753 C 1920.51 848.232 1956.54 878.853 1959.67 919.913 C 1962.8 960.973 1931.84 996.703 1890.75 999.444 C 1850.21 1002.15 1815.06 971.688 1811.97 931.177 C 1808.88 890.665 1839 855.228 1879.48 851.753 z" fill="rgb(34,30,26)" transform="translate(0,0)"></path>
<path d="M 1887.39 871.332 C 1943.22 868.894 1971.54 970.96 1884.12 977.474 C 1876.98 977.255 1865.48 975.066 1859.79 971.827 C 1819.12 948.642 1821.78 895.485 1866.79 877.792 C 1874.34 874.824 1880.47 873.492 1887.39 871.332 z" fill="rgb(26,28,183)" transform="translate(0,0)"></path>
<path d="M 440.318 654.166 C 446.544 653.876 454.689 651.603 460.331 651.926 C 464.025 652.046 475.719 655.783 478.684 654.967 C 495.77 650.265 504.633 651.369 521.186 654.224 C 527.805 655.366 540.806 645.419 550.44 651.263 C 558.619 656.224 572.442 650.912 581.173 651.026 C 587.59 651.079 594.886 652.547 601.43 652.796 C 608.747 653.074 616.128 652.52 623.453 652.362 C 631.292 652.568 636.183 652.932 644.181 652.561 C 644.245 663.08 640.909 674.912 641.027 685.352 C 640.541 693.478 646.01 710.576 644.348 717.943 C 638.676 743.094 641.78 760.947 645.148 785.698 C 645.744 790.075 641.648 803.597 641.407 809.187 C 639.871 815.604 645.219 830.75 644.16 835.945 C 639.311 859.713 641.873 877.441 645.364 900.861 C 646.575 908.982 640.344 928.462 642.33 936.763 C 648.237 961.454 646.4 978.419 642.648 1003.08 C 641.545 1010.71 645.047 1027.22 644.398 1036.04 C 643.635 1046.41 643.637 1058.19 643.569 1068.66 C 643.912 1078.36 647.27 1095.83 646.665 1104.4 C 645.093 1126.7 642.392 1137.61 644.726 1160.01 C 630.069 1150.56 615.87 1149.74 599.109 1151.44 C 599.734 1148.72 607.075 1138.53 609.023 1135.79 C 624.485 1114.03 618.547 1093.36 608.84 1070.33 C 601.406 1052.7 590.224 1035.93 571.061 1029.04 C 554.627 1023.03 539.706 1018.91 522.975 1026.9 C 501.224 1037.29 482.611 1046.09 473.357 1070.14 C 458.896 1107.73 471.142 1152.31 510.758 1167.66 C 522.816 1172.33 542.817 1172.11 555.735 1170.95 C 535.653 1189.18 531.302 1238.16 550.771 1257.76 C 538.665 1263.48 511.224 1250 499.255 1246.92 C 492.377 1245.16 480.379 1246.9 473.985 1245.49 C 464.122 1243.33 451.762 1238.23 441.586 1234.85 C 444.657 1218.27 441.888 1214.43 441.352 1198.29 C 441.176 1193 444.681 1183.4 444.754 1177.81 C 445.041 1171.82 441.398 1162.91 441.803 1157.2 C 442.925 1141.37 443.108 1125.88 443.083 1110.04 C 442.775 1105.47 445.921 1091.16 445.05 1087.67 C 439.498 1065.43 445.035 1047.71 445.137 1025.82 C 445.192 1013.84 439.775 999.604 440.161 987.345 C 439.497 980.762 444.071 965.182 443.087 959.59 C 439.234 937.703 441.293 921.755 443.66 900.206 C 444.803 889.798 439.45 873.75 440.32 862.618 C 441.192 851.453 443.575 841.025 443.751 829.896 C 443.707 816.321 439.568 802.311 439.842 789.284 C 440.066 778.583 444.23 767.639 443.952 755.947 C 444.694 745.117 438.987 729.113 439.803 718.891 C 441.797 693.905 444.841 679.321 440.318 654.166 z" fill="rgb(244,237,222)" transform="translate(0,0)"></path>
<path d="M 540.901 679.526 C 582.705 679.115 616.936 712.654 617.377 754.458 C 617.818 796.262 584.303 830.516 542.5 830.987 C 500.654 831.458 466.358 797.902 465.916 756.057 C 465.475 714.211 499.055 679.939 540.901 679.526 z" fill="rgb(34,30,26)" transform="translate(0,0)"></path>
<path d="M 544.028 699.895 C 573.868 701.092 597.24 725.989 596.55 755.846 C 595.859 785.703 571.362 809.494 541.498 809.31 C 521.723 809.189 503.552 798.41 493.966 781.114 C 484.379 763.819 484.867 742.697 495.243 725.863 C 505.619 709.03 524.269 699.102 544.028 699.895 z" fill="rgb(26,28,183)" transform="translate(0,0)"></path>
<path d="M 540.913 852.124 C 543.621 852.006 546.329 851.927 549.039 851.886 C 565.856 851.794 582.014 858.421 593.922 870.296 C 622.058 898.321 624.137 949.386 595.581 978.691 C 581.196 993.453 561.028 996.894 541.015 996.738 C 526.069 995.035 514.268 992.197 500.994 984.577 C 484.694 975.201 472.927 959.579 468.416 941.323 C 460.48 910.358 471.003 879.573 499.548 864.076 C 513.549 856.475 525.824 855.925 540.913 852.124 z" fill="rgb(34,30,26)" transform="translate(0,0)"></path>
<path d="M 544.603 870.091 C 613.239 872.081 612.57 982.502 539.556 975.93 C 538.349 975.727 537.145 975.506 535.945 975.266 C 519.294 971.91 504.282 963.559 494.922 949.058 C 487.296 937.491 484.761 923.298 487.912 909.806 C 492.107 891.915 507.379 879.142 525.024 875.549 C 532.142 874.099 538.544 874.111 544.603 870.091 z" fill="rgb(26,28,183)" transform="translate(0,0)"></path>
<path d="M 241.013 1430.53 C 251.476 1432.6 263.89 1434.8 273.954 1437.99 C 285.882 1441.76 297.433 1446.94 309.592 1450.29 C 321.192 1453.49 334.546 1450.72 345.678 1453.15 C 356.924 1455.6 368.52 1463.24 380.069 1466.72 C 392.872 1470.58 406.327 1469.1 418.513 1472.14 C 428.386 1474.6 439.268 1481.35 450.07 1483.24 C 458.947 1484.79 469.817 1482.88 477.982 1484.66 C 485.371 1486.27 494.243 1491.16 502.357 1493.59 C 511.444 1496.31 523.609 1494.44 531.123 1496.26 C 542.388 1498.98 554.085 1506 566.496 1508.42 C 579.684 1511 591.845 1510.38 604.971 1512.73 C 614.366 1514.41 623.809 1520.38 632.793 1522.7 C 638.929 1524.28 650.511 1523.57 656.648 1525.16 C 666.271 1527.65 676.79 1533.13 686.646 1535.02 C 694.896 1536.6 706.598 1535.92 714.584 1538.12 C 725.173 1541.05 734.338 1548.1 745.624 1550.49 C 754.68 1552.41 766.409 1550.75 774.578 1552.86 C 784.36 1555.37 793.176 1561.31 803.765 1564.05 C 814.171 1566.74 826.699 1565.48 835.738 1567.32 C 847.167 1569.64 861.962 1574.36 873.533 1577.56 C 862.427 1601.84 868.853 1600.81 864.549 1621.85 C 861.143 1638.51 852.066 1635.62 851.985 1662.87 C 845.928 1660.73 834.76 1656.04 829.266 1655.18 C 819.216 1653.61 807.82 1654.05 797.845 1650.99 C 784.81 1646.99 770.87 1638.61 757.498 1636.38 C 743.59 1634.06 728.894 1636.43 714.857 1632.45 C 706.372 1630.04 697.159 1623.34 689.084 1621.3 C 674.906 1617.72 659.621 1618.95 644.921 1614.94 C 632.2 1611.48 621.596 1604.74 608.898 1601.67 C 599.207 1599.34 587.749 1599.34 578.047 1597.79 C 566.659 1595.96 552.586 1593.05 541.474 1590.18 C 529.82 1587.17 521.029 1580.63 507.989 1577.19 C 495.328 1573.84 468.812 1575.46 458.653 1572.4 C 440.369 1566.89 433.679 1559.03 411.432 1554.63 C 393.567 1551.1 380.884 1552.73 365.407 1550.13 C 359.039 1549.07 337.271 1539.48 327.718 1536.92 C 309.807 1532.13 300.779 1534.62 284.254 1531.58 C 275.501 1529.97 260.94 1521.62 249.786 1519.26 C 240.135 1517.21 227.157 1518.8 220.877 1516.43 C 221.487 1509.23 226.363 1499.24 226.641 1493.52 C 227.408 1477.71 232.113 1467.05 236.229 1452.27 C 238.516 1444.05 236.797 1439.66 241.013 1430.53 z" fill="rgb(26,28,183)" transform="translate(0,0)"></path>
<path d="M 1900.55 1151.02 C 1877.73 1151.34 1862.94 1153.27 1845.43 1135.54 C 1826.12 1115.99 1826.08 1074.57 1846.84 1056.41 C 1867.98 1037.9 1907.63 1038.75 1925.32 1062.55 C 1936.22 1077.22 1940.75 1089.11 1938.43 1107.81 C 1937.18 1118.61 1934.22 1131.67 1925.59 1138.72 C 1914.79 1141.66 1909.38 1143.79 1900.55 1151.02 z" fill="rgb(26,28,183)" transform="translate(0,0)"></path>
<path d="M 538.335 1042.14 C 570.125 1042.47 590.828 1068.13 596.042 1097.45 C 601.679 1129.16 574.208 1144.16 547.901 1149.07 C 537.776 1150.19 528.289 1150.75 518.854 1147.52 C 483.918 1135.52 477.992 1086.41 502.977 1061.83 C 514.413 1050.58 524.621 1048.61 538.335 1042.14 z" fill="rgb(26,28,183)" transform="translate(0,0)"></path>
<path d="M 2004.76 802.039 C 2006.83 802.706 2008.29 803.445 2010.06 804.66 C 2038.76 824.356 2044.69 861.826 2040.97 894.146 C 2040.48 903.506 2041.12 913.233 2040.24 922.55 C 2038.84 937.362 2033.77 951.585 2029.34 965.703 C 2027.39 971.938 2025.22 976.232 2021.68 981.701 C 2017.44 987.82 2013.41 991.584 2007.89 996.461 C 2010.17 979.345 2002.82 966.483 2003.6 952.093 C 2004.97 926.512 2010.35 907.39 2004.86 881.221 C 2003.51 874.805 2008.5 854.185 2007.34 845.411 C 2005.33 830.155 2002.65 817.239 2004.76 802.039 z" fill="rgb(244,237,222)" transform="translate(0,0)"></path>
<path d="M 417.219 801.678 C 418.062 801.902 418.337 802.325 419.114 802.965 C 427.18 834.492 419.916 837.617 418.679 868.675 C 418.327 877.524 423.472 892.749 423.103 901.987 C 422.759 910.578 420.281 919.444 419.627 928.49 C 418.95 937.844 423.699 950.588 423.194 958.579 C 422.293 972.846 419.192 981.607 419.186 996.829 C 416.186 993.668 413.323 990.02 410.542 986.637 C 386.756 951.847 384.611 903.57 389.36 862.614 C 392.236 837.804 397.624 817.884 417.219 801.678 z" fill="rgb(244,237,222)" transform="translate(0,0)"></path>
<path d="M 1503.81 1214.13 L 1505.88 1214.06 C 1510.35 1237.46 1517.74 1247.93 1535.42 1261.83 C 1521.74 1266.37 1514.32 1269.32 1501.85 1277.01 C 1490.13 1268.46 1481.74 1266.01 1468.02 1261.78 C 1470.21 1260.43 1472.26 1259.29 1474.41 1257.84 C 1489.63 1247.76 1500.22 1232.03 1503.81 1214.13 z" fill="rgb(244,237,222)" transform="translate(0,0)"></path>
<path d="M 1106.82 1227.63 C 1109.56 1231.26 1111.15 1235.1 1113.83 1238.99 C 1120 1247.95 1128.73 1255.5 1137.46 1261.87 C 1130.93 1263.45 1126.45 1264.45 1120 1266.59 C 1111.97 1269.98 1106.1 1272.8 1098.39 1276.9 C 1106.3 1255.15 1107.5 1250.1 1106.82 1227.63 z" fill="rgb(244,237,222)" transform="translate(0,0)"></path>
<path d="M 1504.07 1210.71 L 1505.96 1210.1 C 1505.97 1211.45 1505.92 1212.72 1505.88 1214.06 L 1503.81 1214.13 L 1504.07 1210.71 z" fill="rgb(175,171,169)" transform="translate(0,0)"></path>
<path d="M 1363.79 468.408 C 1389.58 466.207 1405.86 473.061 1430.36 474.012 C 1444.17 474.547 1461.76 469.342 1476.06 469.483 C 1489.19 469.613 1502.21 473.35 1515.23 473.533 C 1526.21 473.687 1538.35 470.494 1549.44 469.913 C 1560.82 469.316 1573.54 472.339 1584.63 472.216 C 1595.07 472.101 1607.11 468.884 1617.9 468.611 C 1631.79 468.26 1644.92 472.037 1658.52 473.268 C 1666.47 473.791 1675.15 471.581 1683.01 471.706 C 1697.1 471.931 1702.65 476.048 1703.7 490.03 C 1704.54 501.21 1700.75 511.281 1700.95 521.859 C 1701.24 536.106 1705.47 550.894 1704.77 565.352 C 1704.33 576.447 1700.56 590.111 1700.92 600.988 C 1701.45 616.913 1705.32 632.181 1704.89 648.417 C 1704.55 661.023 1700.87 673.742 1700.83 686.029 C 1700.8 695.753 1704.36 708.783 1703.94 718.671 C 1703.54 728.161 1699.89 737.864 1700.29 747.675 C 1700.96 764.331 1705.57 780.416 1705.29 797.175 C 1705.08 809.849 1700.8 822.572 1700.6 835.083 C 1700.45 843.863 1704.43 856.102 1704.47 864.657 C 1704.51 872.717 1702.59 882.642 1702.33 890.903 C 1702.03 900.514 1703.5 909.511 1703.49 919.158 C 1703.49 927.552 1701.11 938.254 1701.07 946.228 C 1701.04 953.845 1704.19 963.82 1704.2 972.291 C 1704.22 985.143 1699.14 996.037 1699.1 1008.62 C 1699.07 1016.8 1703.55 1028.24 1703.72 1036.1 C 1703.99 1049.61 1701.74 1063.51 1701.07 1077.48 C 1697.85 1081.13 1693.84 1085.62 1688.79 1085.74 C 1679.68 1085.95 1671.46 1082.5 1662.04 1082.7 C 1648.5 1082.98 1632.05 1089.31 1618.98 1089.14 C 1604.84 1088.95 1591.87 1085.04 1576.94 1084.78 C 1559.81 1084.48 1545.19 1089.55 1528.82 1088.96 C 1519.28 1088.62 1507.53 1083.67 1497.31 1083.93 C 1486.73 1084.19 1476.36 1087.36 1465.93 1087.81 C 1451.86 1088.41 1437.41 1084 1423.26 1083.62 C 1405.86 1083.15 1388.98 1087.23 1371.64 1087.38 C 1358.69 1087.48 1346.37 1083.53 1333.5 1082.73 C 1322.01 1082.02 1309.46 1085.98 1298.01 1085.74 C 1286.28 1085.49 1273.36 1081.91 1261.56 1082.17 C 1249.66 1082.43 1237.12 1087.35 1225.02 1087.06 C 1208.28 1086.67 1192.88 1080.5 1175.89 1080.44 C 1157.07 1080.38 1137.94 1086.76 1119.31 1086.56 C 1101.42 1086.37 1088.57 1081.68 1070.15 1083.4 C 1055.5 1085.01 1039.65 1087.72 1025.1 1086.94 C 1012.04 1086.25 996.508 1082.17 983.503 1082.74 C 962.397 1083.67 945.211 1088.11 923.626 1087.43 C 907.177 1087.27 889.638 1082.26 873.295 1082.86 C 849.686 1083.29 823.751 1090.65 800.22 1089.1 C 782.173 1087.91 767.381 1083.11 748.418 1086.93 C 741.823 1088.25 734.179 1080.99 729.821 1075.7 C 729.845 1068.6 727.519 1045.39 728.813 1041.01 C 735.582 1018.07 731.482 1004.58 729.503 981.94 C 729.077 977.064 734.182 964.191 734.132 957.5 C 734.04 945.305 729.958 934.953 728.994 922.96 C 727.992 910.518 732.559 895.748 732.307 884.197 C 731.97 868.756 729.467 854.615 729.499 838.629 C 729.53 823.299 733.219 812.35 733.908 797.928 C 734.476 786.055 729.189 770.055 728.725 757.832 C 728.464 750.956 732.029 741.341 732.165 735.278 C 732.372 726.027 730.076 715.225 729.785 705.577 C 729.487 695.709 732.95 690.346 733.797 682.974 C 734.77 674.517 730.155 657.546 728.501 648.243 C 725.818 633.158 730.089 629.461 731.059 616.718 C 731.777 607.28 728.375 591.09 728.934 580.688 C 729.478 570.562 732.391 562.44 732.985 552.703 C 733.329 547.061 730.074 535.718 729.968 529.895 C 729.881 516.19 730.445 502.391 730.446 488.635 C 730.447 472.377 744.377 469.771 757.497 469.129 C 768.878 468.572 779.956 472.102 791.124 472.597 C 800.721 473.815 815.912 469.714 824.84 470.868 C 849.528 474.061 869.502 472.928 893.861 470.263 C 902.599 469.307 917.082 474.914 927.606 474.099 C 941.614 473.015 955.129 471.293 969.094 470.114 C 982.872 469.173 995.405 473.352 1007.92 473.456 C 1020.67 473.562 1034.14 470.667 1047.71 470.633 C 1064.99 470.59 1079.16 475.008 1095.92 475.467 C 1104.17 475.693 1117.12 472.055 1125.9 471.194 C 1136.2 470.182 1147.09 473.425 1156.57 473.196 C 1164.63 473.001 1174.47 469.669 1183.37 469.591 C 1196.53 469.476 1209.04 475.198 1221.7 475.09 C 1232.52 474.998 1245.05 470.852 1256.17 470.812 C 1274.17 470.748 1292.98 474.535 1310.98 474.236 C 1328.46 473.946 1345.8 469.953 1363.79 468.408 z" fill="rgb(34,30,26)" transform="translate(0,0)"></path>
<path d="M 1458.24 595.411 C 1477.39 594.834 1505.45 606.311 1517.76 620.47 C 1561.87 671.16 1608.34 683.719 1665.94 644.009 C 1666.15 662.752 1662.06 677.067 1660.55 695.389 C 1659.4 709.226 1666.94 725.028 1666.7 739.066 C 1666.54 748.723 1662.2 757.734 1661.8 767.323 C 1661.31 780.85 1667.13 795.588 1666.9 808.928 C 1666.71 820.382 1662.44 832.116 1661.55 843.956 C 1660.37 857.161 1665.74 869.956 1665.71 883.003 C 1665.68 896.353 1660.9 909.675 1660.71 923.054 C 1659.46 931.541 1666.11 946.256 1665.59 953.912 C 1664.03 976.755 1658.54 993.085 1665.35 1016.5 C 1666.96 1022.06 1662.85 1038.53 1661.32 1045 C 1647.79 1046.04 1634.52 1050.19 1621.95 1050.82 C 1610.5 1051.39 1594.5 1047.03 1582.3 1046.2 C 1566.69 1045.12 1553.94 1049.71 1538.55 1049.38 C 1526.88 1049.12 1514.38 1045.11 1502.67 1045.26 C 1490.7 1045.41 1477.29 1050.9 1465.45 1051.26 C 1449.75 1051.74 1433.04 1045.79 1417.13 1046.33 C 1405.56 1046.73 1395.5 1050.52 1383.51 1050.46 C 1371.27 1050.39 1357.25 1045.7 1345.62 1046.32 C 1335.61 1046.84 1325.01 1050.75 1314.15 1050.55 C 1301.31 1050.32 1288.33 1044.31 1276.07 1044.77 C 1260.87 1045.35 1247.02 1049.72 1231.33 1049.47 C 1215.19 1049.22 1199.83 1044.29 1184.03 1044.95 C 1172.75 1045.42 1158.63 1050.69 1147.28 1050.11 C 1135.04 1049.48 1123.04 1045.4 1110.45 1045.07 C 1092.54 1044.62 1075.18 1050.28 1057.54 1050.39 C 1048.12 1050.44 1035.96 1046.59 1026.17 1046.21 C 1016.57 1045.83 1005.72 1048.69 996.272 1048.74 C 988.538 1048.78 978.461 1045.86 970.362 1046.01 C 961.284 1046.19 950.333 1050.16 941.416 1050.5 C 932.561 1050.83 922 1049.2 912.977 1048.85 C 904.841 1048.53 896.313 1049.23 888.282 1048.69 C 881.339 1048.21 874.327 1047.14 867.25 1046.51 C 851.626 1046.49 840.124 1049.99 825.978 1050.62 C 802.668 1051.66 791.58 1042.63 767.175 1048.44 C 762.596 1029.91 767.969 1022.56 768.492 1004.55 C 768.732 996.278 764.278 984.892 764.8 975.993 C 765.275 967.9 766.64 960.226 766.997 952.188 C 766.942 946.114 763.189 936.574 763.694 929.985 C 764.599 918.183 768.884 907.798 769.238 895.701 C 769.554 884.941 763.207 873.913 763.341 863.897 C 763.494 852.464 767.282 839.951 767.387 828.107 C 767.465 819.35 763.77 809.49 763.769 801.427 C 763.767 792.097 767.624 782.928 767.393 772.622 C 767.116 760.256 763.912 749.483 763.941 737.329 C 763.959 729.662 766.292 721.913 768.217 714.447 C 775.938 712.873 787.866 710.836 795.056 708.281 C 826.057 696.374 839.12 666.84 860.911 642.921 C 882.646 619.064 920.976 616.502 944.903 639.3 C 950.831 644.947 953.583 653.285 961.318 659.818 C 980.291 675.843 1005.48 689.506 1030.98 688.768 C 1052.02 687.311 1087.3 666.368 1099.51 649.618 C 1117.8 624.524 1129.83 606.377 1164.53 602.932 C 1193.91 600.014 1210.24 622 1225.07 643.912 C 1234.59 657.962 1247.31 675.22 1259.93 686.934 C 1296.8 720.945 1350.23 709.532 1371.34 664.526 C 1378.25 649.786 1381.93 636.153 1393.22 623.572 C 1412.12 602.515 1430.96 597.217 1458.24 595.411 z" fill="rgb(244,237,222)" transform="translate(0,0)"></path>
<path d="M 902.587 841.543 C 943.639 837.234 980.378 867.102 984.538 908.169 C 988.699 949.236 958.697 985.867 917.615 989.878 C 876.744 993.869 840.342 964.054 836.203 923.197 C 832.064 882.341 861.746 845.831 902.587 841.543 z" fill="rgb(34,30,26)" transform="translate(0,0)"></path>
<path d="M 904.505 861.856 C 934.202 858.404 961.052 879.74 964.399 909.449 C 967.746 939.158 946.316 965.932 916.595 969.175 C 887.022 972.401 860.41 951.101 857.079 921.539 C 853.749 891.977 874.955 865.29 904.505 861.856 z" fill="rgb(26,28,183)" transform="translate(0,0)"></path>
<path d="M 963.899 501.41 C 985.729 499.669 993.516 504.416 1014.44 505.89 C 1023.37 506.518 1039.6 501.87 1050.12 502.122 C 1062.26 502.414 1071.44 506.005 1083.16 507.117 C 1094.82 508.223 1108.2 504.205 1119.84 503.803 C 1128.51 503.504 1139.69 507.731 1148.62 507.286 C 1159.7 506.735 1170.04 502.551 1181.38 502.654 C 1194.07 502.768 1208.45 508.631 1220.72 507.395 C 1232.87 506.173 1243.67 501.529 1256.52 501.251 C 1270.9 500.94 1288.19 506.857 1301.83 506.034 C 1314.97 505.241 1326.12 501.256 1340.38 501.383 C 1358.39 501.543 1373.18 506.706 1390.88 507.441 C 1399.29 507.79 1409.37 503.53 1417.35 503.658 C 1430.76 503.874 1445.17 508.672 1458.67 507.781 C 1468.99 507.099 1480.88 502.691 1491.21 502.75 C 1501.03 502.805 1511.26 506.125 1521.53 506.412 C 1532.22 506.71 1545.04 503.127 1555.1 503.359 C 1564.99 503.587 1574.86 507.367 1585.76 506.604 C 1594.98 505.96 1609.56 502.071 1618.01 502.431 C 1635.48 503.174 1647.8 506.335 1666.03 505.914 C 1665.64 519.281 1660.95 530.063 1661.27 542.184 C 1661.19 552.376 1668.32 569.302 1666.64 578.97 C 1663.85 595.075 1661.86 603.697 1662.19 620.116 C 1647.73 634.844 1622.47 644.295 1601.89 645.156 C 1588.87 645.7 1561.69 633.899 1553.9 624.28 C 1492.49 548.45 1386.01 556.597 1352.61 654.198 C 1351.34 656.622 1350.02 659.017 1348.64 661.382 C 1342.26 672.195 1332.54 680.995 1319.78 683.798 C 1263.41 696.181 1246.72 615.225 1203.91 592.282 C 1176.32 576.234 1157.95 579.56 1130.72 592.103 C 1105.34 603.793 1102.59 608.033 1086.25 631.294 C 1076.19 645.612 1054.93 660.695 1037.47 664.998 C 1018.9 670.318 989.41 658.434 976.414 644.967 C 951.845 619.507 938.473 599.73 898.971 602.492 C 860.06 605.212 841.596 632.816 819.181 660.875 C 801.9 682.508 796.354 687.513 769.721 693.878 C 768.732 680.214 763.334 669.625 763.055 657.76 C 762.777 645.883 769.21 630.666 767.908 617.643 C 766.922 607.781 762.459 596.644 763.03 587.152 C 763.529 578.858 769.317 568.143 769.004 559.453 C 768.816 554.232 767.698 546.939 766.676 541.8 C 763.886 527.765 765.159 520.777 767.772 507.127 C 780.485 507.25 793.131 502.962 805.081 503.292 C 816.374 503.023 839.357 512.594 849.737 509.859 C 878.174 502.367 892.84 499.177 922.302 506.004 C 930.815 507.977 953.987 503.231 963.899 501.41 z" fill="rgb(244,237,222)" transform="translate(0,0)"></path>
<path d="M 2231.19 97.5427 C 2248.47 96.923 2281.6 94.7305 2297.66 101.173 C 2304.71 104.003 2300.32 117.683 2293.4 118.073 C 2277.56 118.967 2261.74 117.418 2245.58 117.921 C 2245.32 123.939 2245.4 130.155 2245.39 136.194 C 2275.05 146.394 2288.63 157.408 2303.08 184.928 C 2294.93 214.642 2284.75 244.884 2276.62 274.843 C 2270.27 295.498 2265.11 316.571 2258.71 337.196 C 2251.66 359.877 2231.34 365.08 2211.01 368.419 C 2194.82 390.862 2197.3 396.706 2187.66 422.125 C 2184.89 429.45 2174.41 442.891 2171.66 452.47 C 2168.37 463.91 2167.52 474.6 2163.33 485.573 C 2158.13 499.178 2147.79 511.693 2142.3 524.727 C 2136.74 537.903 2135.58 554.559 2129.76 568.031 C 2126.69 578.907 2110.22 599.03 2108.15 608.767 C 2101.99 637.71 2091.43 656.815 2076.91 682.297 C 2072.15 690.664 2070.54 708.109 2065.53 717.645 C 2061.48 725.34 2059.18 732.684 2048.52 728.081 C 2046.97 726.591 2045.45 724.996 2045.24 722.58 C 2044.05 708.702 2055.21 682.004 2060.6 669.615 C 2065.01 659.487 2075.23 645.108 2078.78 635.651 C 2083.91 621.988 2085.65 607.554 2092.22 593.882 C 2098.45 580.918 2107.53 569.688 2112.64 556.733 C 2117.15 545.278 2117.42 527.969 2122.81 516.902 C 2129.38 503.433 2139.68 490.728 2145.28 476.614 C 2148.73 467.918 2148.49 458.006 2151.46 449.021 C 2154.87 438.69 2163.74 425.035 2167.32 415.489 C 2175.67 393.243 2175.33 385.536 2189.18 365.015 C 2158.2 355.909 2119.55 331.998 2100.57 305.793 C 2095.73 298.68 2093.33 294.738 2089.45 287.08 C 2076.3 301.045 2067.91 306.414 2051.51 316.44 C 2047.78 318.72 2041.87 328.814 2038.36 332.365 C 2030.53 340.287 2020.35 345.045 2011.71 351.987 C 1998.57 362.538 1987.19 374.954 1974.4 385.855 C 1966.9 392.251 1954.78 397.977 1947.27 404.109 C 1939.64 410.345 1932.78 419.597 1924.83 426.277 C 1915.19 434.385 1903.1 440.545 1893.66 448.229 C 1886.71 453.303 1876.66 467.967 1869.56 471.703 C 1847.76 483.185 1833.86 493.892 1817.43 511.958 C 1812.96 516.874 1800.2 524.282 1794.18 529.015 C 1783.19 537.653 1771.9 547.104 1760.28 554.862 C 1758.06 556.291 1753.37 557.581 1750.77 557.451 C 1747.47 557.286 1747.43 556.84 1745.37 554.932 C 1739.99 540.01 1760.74 531.392 1768.96 524.988 C 1780.03 516.375 1790.67 507.716 1801.89 499.141 C 1811.18 492.04 1819.26 478.895 1829.36 472.092 C 1850.92 460.246 1864.77 450.922 1881.05 431.903 C 1884.9 427.408 1900.47 420.244 1905.99 415.45 C 1915.21 407.449 1924.09 398.426 1933.37 390.444 C 1956.25 374.625 1975.91 357.276 1996.25 338.404 C 2002.39 331.943 2018.59 323.538 2023.73 317.516 C 2037.38 301.539 2046.42 294.552 2064.51 284.667 C 2066.94 283.335 2079.04 269.478 2083.4 265.984 C 2078.4 240.438 2087.2 226.475 2107.34 211.766 C 2124.86 198.983 2142.89 187.663 2161.15 176.028 C 2182.95 162.296 2204.46 148.122 2225.67 133.514 L 2226.04 117.731 C 2211.2 118.052 2176.24 121.036 2162.11 113.988 C 2156.6 111.239 2158.66 98.5128 2167.51 98.0352 C 2188.68 96.8932 2209.8 98.3713 2231.19 97.5427 z" fill="rgb(34,30,26)" transform="translate(0,0)"></path>
<path d="M 2231.9 154.101 C 2232.64 154.225 2233.38 154.363 2234.12 154.517 C 2254.41 158.777 2269.84 169.421 2280.84 186.695 C 2270.99 215.447 2263.72 244.402 2254.39 273.176 C 2249.54 263.026 2244.67 256.045 2238.2 247.11 C 2217.25 220.607 2195.98 208.817 2165.16 197.966 C 2168.81 195.127 2172.63 192.568 2176.54 190.099 C 2195.15 178.348 2213.14 165.619 2231.9 154.101 z" fill="rgb(26,28,183)" transform="translate(0,0)"></path>
<path d="M 2121.65 251.43 C 2145.66 249.86 2162.63 259.39 2180.43 274.912 C 2196.18 288.647 2236.52 330.082 2197.98 342.483 C 2158.1 344.835 2070.68 263.099 2121.65 251.43 z" fill="rgb(26,28,183)" transform="translate(0,0)"></path>
<path d="M 2138.23 215.887 C 2167.43 216.895 2195 229.592 2214.75 251.127 C 2231.64 269.398 2252.61 311.243 2236.6 334.775 C 2235.43 336.932 2235.52 336.785 2233.54 338.263 C 2232.65 335.856 2234.38 324.815 2234.72 321.235 C 2228.39 288.624 2205.36 267.146 2178.98 248.218 C 2159.25 234.06 2138.39 229.346 2114.32 232.475 C 2122.44 226.008 2129.53 221.509 2138.23 215.887 z" fill="rgb(26,28,183)" transform="translate(0,0)"></path>
<path d="M 214.009 118.492 C 194.629 117.298 175.846 118.813 156.545 118.357 C 143.51 118.049 143.951 98.8881 155.528 98.3118 C 193.746 96.4091 232.248 97.5893 270.522 97.1536 C 278.811 97.0648 304.732 96.6706 302.073 109.813 C 293.419 121.31 277.475 117.724 264.909 117.776 C 254.664 117.818 244.467 117.753 234.217 118.054 C 233.772 121.63 232.768 126.476 233.776 129.743 L 236.304 131.023 C 240.043 130.995 244.823 131.162 248.115 133.481 C 253.363 137.178 258.528 141.805 263.261 146.26 C 286.883 168.493 310.824 190.389 334.229 212.853 C 342.057 220.366 339.665 230.804 338.304 240.2 C 343.041 244.533 355.164 246.644 360.361 251.129 C 381.436 269.322 399.071 284.841 424.53 296.561 C 430.117 299.133 441.756 313.569 448.215 316.966 C 467.057 328.101 486.435 331.016 501.24 349.032 C 502.263 350.277 511.537 358.546 513.041 359.321 C 539.657 373.018 559.515 385.523 580.805 406.545 C 586.977 412.639 608.852 417.971 616.556 423.582 C 624.864 428.187 632.351 438.965 640.664 445.186 C 655.418 456.226 694.821 473.345 701.294 491.269 C 702.197 493.768 700.959 496.507 699.852 498.641 C 697.218 500.952 695.704 501.825 692.143 501.574 C 689.415 501.381 684.007 499.621 682.087 497.828 C 665.04 481.914 646.118 471.709 626.758 459.21 C 619.668 454.633 613.055 445.042 605.544 440.403 C 595.702 433.952 581.857 433.113 571.855 425.515 C 559.959 416.476 551.639 405.366 539.376 396.653 C 525.628 386.884 510.223 381.367 496.708 371.643 C 489.447 366.419 482.155 356.59 474.911 351.834 C 465.815 345.864 453.73 343.524 443.973 338.009 C 432.872 331.733 426.519 321.63 416.382 314.441 C 408.332 308.732 394.903 304.763 387.23 299.222 C 367.892 285.254 355.498 269.387 333.542 258.307 L 333.115 258.909 C 329.933 263.475 327.774 268.327 324.588 272.847 C 309.467 294.295 295.804 302.9 270.649 308.147 C 280.044 329.94 285.983 349.137 292.468 371.835 C 296.385 385.546 305.576 399.975 308.747 414.361 C 312.131 426.451 313.511 440.486 317.193 452.031 C 322.217 466.993 331.548 479.778 337.337 494.513 C 343.286 509.654 343.293 526.01 348.149 541.261 C 353.151 557.008 362.523 570.726 368.308 586.188 C 374.205 601.948 376.916 617.836 381.371 634.495 C 384.573 646.471 396.12 661.064 393.033 673.329 C 392.694 674.676 390.282 676.761 388.893 676.712 C 386.623 677.361 382.665 675.896 381.034 674.452 C 361.774 657.398 359.623 615.485 350.266 592.778 C 343.04 575.241 334.43 564.957 328.882 546.689 C 324.523 532.335 323.969 517.43 319.446 504.398 C 314.423 489.928 303.47 476.054 298.853 461.031 C 294.688 447.563 292.683 433.64 289.067 420.006 C 285.655 407.143 277.848 394.304 274.096 381.803 C 266.246 355.647 260.805 334.105 248.225 309.555 C 242.231 308.922 239.406 308.393 233.541 306.962 C 221.338 287.696 208.714 268.225 196.464 249.077 C 185.301 231.629 161.694 203.954 156.388 185.449 C 169.952 157.991 184.104 139.556 215.058 130.961 C 214.689 127.033 214.124 122.373 214.009 118.492 z" fill="rgb(34,30,26)" transform="translate(0,0)"></path>
<path d="M 225.049 149.424 L 235.619 148.809 C 257.102 169.965 279.366 189.556 300.883 210.818 C 276.311 219.791 256.083 237.991 241.9 259.698 C 239.539 263.112 236.492 268.501 234.299 272.152 C 216.302 242.608 196.333 215.668 178.329 186.219 C 187.628 164.922 202.695 153.972 225.049 149.424 z" fill="rgb(26,28,183)" transform="translate(0,0)"></path>
<path d="M 317.256 227.194 C 325.527 234.033 307.813 264.345 301.407 270.698 C 286.522 285.46 273.358 289.692 252.869 290.471 C 247.681 287.857 254.146 277.147 256.211 273.584 C 269.585 250.622 291.551 233.929 317.256 227.194 z" fill="rgb(26,28,183)" transform="translate(0,0)"></path>
<metadata><recraft-signature>{"signed_by": "recraft", "signature_b64": "sBGdAUbCjvA4NdwX0dqG6ixiYMQRoRJE1rJ0dycmf8UqLCAQIEFRSiOmjf16cF/G4KPtXhiD7XfUG8K+mGIBAw==", "signing_algo": "Ed25519", "generation_timestamp": 1782911653, "identifier": "2d3779c3-852a-44c5-aa0c-fe421e78dc26"}</recraft-signature></metadata></svg>