<svg xmlns="http://www.w3.org/2000/svg" height="1792" preserveAspectRatio="none" style="display: block;" version="1.1" viewBox="0 0 2432 1792" width="2432">
<path d="M 0 0 L 2432 0 L 2432 1792 L 0 1792 L 0 0 z" fill="rgb(244,237,222)" transform="translate(0,0)"></path>
<path d="M 1469.8 425.828 C 1470.29 405.693 1477.35 388.058 1475.93 366.331 C 1474.63 346.475 1510.43 314.711 1527.88 309.815 C 1548.62 304.039 1582.76 305.959 1605.1 306.27 C 1632.33 306.65 1651.57 304.625 1678.89 311 C 1707.5 317.68 1744.62 313.939 1774.35 314.998 C 1810.78 317.069 1844.13 322.408 1880.97 318.608 C 1911.69 315.44 1938.2 324.005 1970.11 324.2 C 2026.41 324.545 2102.74 315.912 2130.11 379.854 C 2136.79 401.947 2142.04 431.991 2140.43 454.95 C 2136.88 505.336 2145.44 556.827 2138.31 606.934 C 2134.65 632.648 2137 655.381 2135.47 680.711 C 2133.98 705.388 2130.5 728.398 2132.5 753.404 C 2144.01 754.115 2155.46 754.803 2167.03 755.491 C 2175.16 755.974 2186.91 754.036 2194.57 755.522 C 2212.44 758.986 2230 763.299 2248.26 765.382 C 2250.73 766.011 2256.14 767.627 2257.7 769.704 C 2265.3 779.851 2264.17 804.859 2262.93 816.708 C 2260.66 838.466 2256.72 859.094 2252.11 880.173 C 2249.14 893.73 2251.82 906.382 2241.27 917.909 C 2227.56 924.045 2179.97 916.22 2165.35 913.855 C 2151.37 911.595 2139.08 914.413 2123.56 910.359 C 2122.24 950.414 2118.37 992.44 2116.36 1032.64 C 2115.57 1048.48 2116.09 1077.07 2112.56 1091.08 C 2127.04 1093.64 2140.48 1092.69 2154.9 1093.6 C 2176.62 1094.98 2196.4 1097.4 2218.35 1096.28 C 2227.72 1095.8 2244.15 1102.04 2254.34 1101.69 C 2278.77 1099.69 2291.82 1101.02 2315.45 1105.5 C 2318.87 1108.95 2321.99 1111.18 2321.74 1116.12 C 2321.17 1127.54 2317.56 1141.07 2316.98 1152.35 C 2316.32 1165.57 2319.72 1175.63 2317.37 1189.66 C 2315.46 1201.05 2310.18 1213.33 2308.85 1223.94 C 2307.14 1237.49 2315.31 1258.26 2303.4 1270.71 C 2295.45 1277.83 2276.81 1278.01 2266.94 1277.63 C 2257.12 1277.25 2245.58 1274.57 2235.93 1272.91 C 2216.67 1269.6 2198.82 1271.08 2179.88 1270.88 C 2169.18 1270.78 2151.16 1260.43 2139.41 1260.38 C 2123.79 1258.93 2113.4 1261.46 2097.36 1258.72 C 2096.95 1270.87 2096.72 1284.58 2095.71 1296.6 C 2094.87 1306.51 2091.51 1319.56 2089.93 1329.73 L 2078.17 1410.97 C 2074.95 1432.79 2076.1 1455.73 2067.71 1476.69 C 2063.5 1487.21 2053.15 1497.04 2046.24 1506.13 C 2043.11 1510.25 2040.29 1514.96 2037.4 1518.8 C 2030.51 1521.84 2003.45 1532.13 1996.61 1532.26 C 1982.64 1532.52 1964.16 1532.78 1949.73 1532.65 C 1943.63 1532.6 1931.04 1530.41 1925.44 1530.76 C 1909.41 1532.04 1893.54 1532.43 1877.52 1531.93 C 1870.89 1531.72 1856.12 1527.83 1850.99 1528.38 C 1822.92 1531.38 1804.36 1531.21 1776.87 1523.76 C 1764.24 1520.33 1744.27 1520.47 1731.04 1518.28 C 1719.64 1516.8 1704.52 1522.12 1694.54 1520.96 C 1666 1517.66 1642.01 1510.68 1612.52 1515.27 C 1607.99 1515.98 1600.32 1514.7 1595.62 1514.6 C 1579.49 1514.68 1561.64 1505.45 1546.44 1503.9 C 1526.47 1501.86 1501.94 1504.04 1483.11 1496.18 C 1455.63 1484.71 1435.63 1478.47 1425.24 1448.5 C 1421.7 1438.31 1419.22 1434.48 1418.39 1423.05 C 1401.58 1424.1 1386.12 1424.73 1369.27 1425.23 C 1356.79 1425.61 1343.43 1428.28 1330.4 1427.98 C 1315.22 1427.62 1300.16 1424.08 1285.37 1423.73 C 1271.56 1423.4 1255.5 1427.27 1241.52 1426.17 C 1209.4 1423.63 1177.05 1418.91 1144.76 1418.36 C 1119.72 1417.94 1094.56 1422.49 1069.34 1422.48 C 1048.39 1422.47 1028.55 1420.48 1007.59 1421.15 C 985.453 1421.85 964.049 1425.7 941.952 1425.05 C 907.099 1424.02 871.855 1420.85 836.954 1421.62 C 807.317 1423 778.342 1426.54 748.681 1428.27 C 732.019 1429.24 715.713 1424.33 701.082 1425 C 668.483 1426.48 632.393 1424.86 600.341 1427.24 L 601.523 1428.43 C 609.786 1436.59 619.294 1441.72 628.317 1448.71 C 646.394 1462.72 664.449 1476.26 681.165 1491.91 C 688.411 1498.69 711.317 1508.65 712.645 1518.75 C 706.279 1531.52 640.949 1532.48 625.977 1533.17 C 632.035 1544.05 638.543 1551.97 644.535 1562.04 C 647.284 1566.65 649.116 1579.29 652.779 1586.17 C 658.366 1596.66 672.697 1611.49 675.315 1621.92 C 672.378 1631.26 646.668 1640.62 638.013 1645.77 C 633.026 1648.73 629.045 1654.99 623.119 1653.79 C 615.752 1647.85 598.434 1609.44 593.111 1597.79 C 587.067 1584.57 586.851 1574.64 576.456 1562.65 C 570.438 1573.47 562.354 1581.13 555.113 1591.12 L 527.531 1628.87 C 521.891 1636.54 517.243 1645.83 509.116 1651.03 L 507.37 1650.75 C 502.163 1643.07 500.68 1622.37 500.796 1612.89 C 501.042 1592.76 495.001 1572.75 493.997 1552.72 C 493.43 1541.42 495.775 1529.98 494.837 1518.7 C 493.636 1502.6 487.878 1486.5 485.67 1471.18 C 483.791 1458.15 483.482 1438.8 482.866 1425.14 C 460.384 1424.8 438.791 1421.63 416.25 1421.14 C 401.302 1420.82 383.12 1427.36 369.345 1426.81 C 345.017 1425.82 323.44 1425.47 299.075 1428.15 C 287.092 1428.03 274.512 1423.83 262.648 1424.02 C 227.77 1424.58 197.679 1437.89 168.384 1411.56 C 138.759 1384.94 139.309 1347.13 167.304 1319.29 C 184.391 1302.29 229.253 1306.11 251.571 1306.44 C 263.535 1306.59 273.53 1304.77 286.191 1305.49 C 295.046 1306.08 303.895 1306.75 312.737 1307.5 C 315.863 1307.82 316.174 1308.02 319.306 1307.29 L 319.288 1306.28 L 315.157 1304.43 C 306.531 1297.9 299.242 1294.08 291.468 1286.3 C 279.769 1274.6 275.64 1261.13 269.121 1247.32 C 251.366 1209.72 257.197 1178.28 260.83 1139.04 C 262.432 1121.73 256.537 1094.97 258.813 1076.68 C 259.293 1064.63 260.344 1053.28 260.871 1041.46 C 261.325 1031.28 260.116 1020.57 260.806 1009.94 C 261.73 995.732 263.505 981.59 263.736 967.428 C 263.995 951.545 260.083 934.153 260.278 918.459 C 260.605 892.082 264.585 867.138 263.576 840.572 C 256.603 840.632 240.169 840.07 234.048 841.339 C 213.662 845.565 199.114 844.043 178.832 843.953 C 163.948 843.887 140.518 859.539 125.655 845.964 C 111.955 830.714 117.595 807.823 117.681 789.433 C 117.721 780.917 113.391 770.984 112.708 762.52 C 111.327 745.422 113.064 724.854 108.038 708.254 C 113.012 698.018 115.798 689.735 127.019 686.046 C 143.322 680.655 159.685 685.298 176.547 685.163 C 187.273 685.077 198.999 677.664 207.53 677.301 C 227.174 676.464 251.216 675.745 270.61 676.21 C 267.603 655.09 272.898 625.893 273.025 605.463 C 273.28 564.748 261.984 531.852 280.726 493.105 C 285.568 483.096 287.035 474.486 295.123 464.392 C 308.228 446.728 320.831 437.666 342.189 432.289 C 348.545 430.689 356.492 426.423 363.65 425.852 C 392.458 423.554 421.997 422.777 450.852 421.526 C 465.06 420.91 482.991 426.478 497.565 425.837 C 517.34 425.953 537.089 420.912 557.4 421.88 C 576.023 422.957 594.156 425.845 612.852 426.36 C 633.65 426.933 654.739 421.315 675.165 420.333 C 698.721 419.2 722.146 420.41 745.88 417.469 C 757.789 415.994 774.963 420 787.328 419.236 C 800.921 419.452 815.68 417.37 829.118 417.979 C 842.989 418.608 858.055 421.047 871.909 421.263 C 884.556 421.46 896.079 418.615 909.291 419.005 C 921.537 419.366 937.624 423.882 948.832 423.929 C 972.356 424.027 995.98 418.565 1020.01 419.168 C 1036.71 419.587 1050.52 421.54 1067.01 423.592 C 1078.55 425.026 1091.07 425.009 1102.65 425.61 C 1119.65 426.491 1137.02 424.026 1153.65 424.098 L 1326.74 424.258 C 1336.52 424.287 1346.59 424.912 1356.38 425.312 C 1393.93 426.847 1432.2 426.989 1469.8 425.828 z" fill="rgb(34,30,26)" transform="translate(0,0)"></path>
<path d="M 1348.75 502.605 C 1367.46 500.37 1386.24 502.977 1404.8 503.634 C 1424.15 504.319 1444.94 504.623 1464.28 504.162 C 1463.49 518.251 1462.63 532.429 1462.44 546.481 C 1462.13 570.197 1465.01 594.062 1460.45 617.491 C 1458.66 626.723 1456.61 637.655 1456.13 646.94 L 1446.08 813.152 C 1445.22 828.668 1448.01 845.567 1446.66 861.084 C 1445.38 875.894 1440.5 891.756 1439.93 906.711 C 1438.73 917.82 1441.32 932.356 1439.87 943.101 C 1435.98 971.959 1435.74 1000.38 1434.57 1029.44 C 1433.98 1044.26 1436.42 1059.5 1435.58 1074.47 C 1434.61 1091.67 1430.64 1108.13 1428.64 1125.17 C 1427.92 1137.12 1428.21 1208.57 1423.05 1215.99 C 1408.17 1223.27 1313.97 1213.14 1292.41 1212.7 C 1270.58 1212.25 1246.98 1215.26 1225.03 1214.87 C 1206.83 1214.55 1186.91 1210.82 1167.93 1210.96 C 1148.91 1211.1 1131.25 1216.74 1112.83 1216.54 C 1095.42 1215.96 1078.5 1212.28 1061.04 1211.72 C 1026.49 1210.6 992.264 1213.73 957.872 1214.91 C 933.28 1214.75 908.514 1212.02 884.039 1210.36 C 848.292 1207.94 814.107 1214.75 778.875 1216.98 C 754.904 1218.49 729.008 1213.13 704.443 1215.95 C 685.912 1218.08 667.874 1221.56 649.343 1223.08 C 637.772 1223.13 622.846 1222.06 611.667 1219.99 C 576.879 1213.56 547.189 1212.05 512.403 1218.75 C 497.619 1221.6 476.773 1215.82 461.879 1215.88 C 437.648 1215.98 414.904 1221.94 391.423 1211.63 C 384.907 1209.26 373.587 1205.2 368.599 1199.79 C 351.444 1181.21 363.343 1144.17 361.544 1120.76 C 360.74 1110.3 358.105 1101.3 358.166 1092.28 C 358.293 1073.55 361.935 1055.34 361.772 1036.59 C 362.129 1016.84 359.305 997.499 359.978 978.176 C 360.531 962.297 364.347 945.662 365.108 929.314 C 366.55 898.336 365.535 865.455 364.124 834.445 C 388.2 838.561 394.134 843.112 416.822 831.978 C 416.867 839.796 415.406 850.633 416.501 857.945 C 420.357 880.172 420.119 897.303 417.945 919.433 C 417.16 927.425 418.815 977.264 423.194 980.291 C 446.026 996.069 489.159 983.198 515.402 983.082 C 535.512 982.993 556.767 986.485 576.759 987.984 C 593.474 988.422 605.784 984.965 622.055 983.723 C 634.597 982.271 653.992 990.437 665.646 988.956 C 685.429 986.442 704.532 988.346 723.833 987.422 C 748.504 985.269 771.207 982.354 796.031 985.588 C 798.088 985.856 824.319 985.781 827.508 985.42 C 848.075 983.092 861.924 980 882.836 984.738 C 892.002 986.814 914.892 985.582 922.505 979.047 C 926.543 975.771 927.67 951.442 927.501 946.36 C 926.804 925.473 925.305 906.221 927.247 885.204 C 928.035 876.68 925.908 865.134 926.554 856.283 C 931.739 826.746 931.427 799.569 930.12 769.778 C 929.695 760.095 933.777 746.863 933.59 736.818 C 933.231 717.474 933.364 698.328 934.635 679.008 C 934.867 670.091 933.039 660.319 933.542 651.478 C 934.889 627.783 933.686 604.309 935.781 580.632 C 936.368 574.001 931.71 566.196 926.998 561.524 C 922.971 560.751 898.635 564.261 891.912 563.015 C 887.441 562.187 871.67 565.976 865.342 565.697 C 856.003 566.383 843.892 562.54 834.917 563.04 C 815.159 564.14 796.679 563.815 776.93 562.587 C 759.886 561.207 741.563 566.491 725.08 566.531 C 709.886 566.567 693.309 564.188 677.759 565.137 C 670.987 565.55 658.181 562.502 651.934 563.409 C 617.953 568.348 587.659 566.694 553.645 563.084 C 541.997 561.897 523.37 567.536 510.752 566.849 C 493.611 566.016 476.284 565.624 459.164 566.293 C 449.068 566.687 431.161 561.85 424.773 571.705 C 413.125 589.674 415.283 617.232 415.037 637.738 C 414.87 651.605 413.803 664.314 415.01 677.903 C 398.996 664.316 372.662 671.68 351.659 672.332 C 351.957 647.908 357.874 630.476 359.068 606.35 C 360.001 587.498 354.068 562.874 357.793 545.11 C 359.497 536.988 371.753 524.839 377.503 515.447 C 393.385 507.967 400.754 511.882 416.735 512.007 C 438.574 512.178 460.104 513.372 481.91 514.57 C 489.933 515.011 502.11 511.916 510.589 511.857 C 521.11 510.798 535.452 512.879 545.613 510.961 C 577.875 504.871 607.734 508.078 640.059 508.76 C 651.797 509.007 665.815 505.792 677.882 505.288 C 699.486 504.388 721.36 503.371 743.002 503.181 C 769.732 503.644 797.884 507.27 824.714 507.505 C 837.075 507.613 851.603 503.559 863.664 503.577 C 873.464 503.325 885.901 506.439 895.404 505.923 C 920.175 504.578 941.499 502.992 966.238 507.774 C 975.243 508.822 987.889 505.256 996.497 506.12 C 1032.76 509.76 1067.19 510.356 1103.48 506.32 C 1114.85 504.934 1130.13 507.967 1141.09 506.817 C 1171.59 503.617 1199.81 507.069 1230.13 508.616 C 1244.05 509.326 1259.84 506.544 1274 506.405 C 1299.07 506.16 1323.74 504.729 1348.75 502.605 z" fill="rgb(244,237,222)" transform="translate(0,0)"></path>
<path d="M 1088.88 560.262 C 1103.5 559.015 1117.63 564.267 1132.26 564.284 C 1142.65 564.296 1153 562.424 1163.38 562.248 C 1172.55 562.092 1181.56 565.277 1190.75 565.144 C 1202.84 564.969 1214.91 563.873 1227 563.735 C 1238.82 563.6 1250.67 564.347 1262.5 564.019 C 1276.66 563.626 1290.85 562.175 1305.02 562.253 C 1320.34 562.338 1335.51 565.537 1350.85 565.46 C 1364.18 565.394 1423.31 561.037 1431.22 565.716 C 1433.2 566.889 1434.88 569.904 1435.15 572.138 C 1436.33 582.212 1434.04 594.415 1433.67 604.675 L 1430.72 684.008 C 1429.64 711.121 1431.94 738.52 1430.68 765.74 C 1429.8 784.689 1425.76 803.603 1424.28 822.561 C 1423.2 836.353 1424.91 850.32 1424.38 864.145 C 1423.91 876.506 1421.34 888.69 1420.59 901.02 C 1419.42 920.231 1420.36 939.747 1418.32 958.902 C 1417.62 965.416 1416.15 975.234 1411.87 980.347 C 1398.87 995.876 1326.49 984.826 1303.58 985.86 C 1298.23 985.703 1291.41 985.478 1286.17 986.145 C 1241.85 991.801 1197.57 983.079 1153.04 986.003 C 1143.02 986.661 1131.45 985.223 1121.21 985.503 C 1098.78 986.117 1076.55 988.994 1054.08 988.747 C 1043.57 988.311 1035.65 984.77 1024.89 984.506 C 1011.63 984.254 979.971 991.417 969.2 983.812 C 955.972 974.471 963.997 926.268 964.173 911.551 C 964.382 894.101 962.602 880.782 962.543 864.154 C 962.788 849.263 965.718 834.033 966.093 819.191 C 967.535 801.545 962.143 778.376 964.282 761.398 C 966.352 744.974 965.117 725.368 967.234 710.035 C 971.479 679.282 969.129 650.798 970.484 619.972 C 970.739 614.173 971.407 606.637 970.344 600.876 C 967.082 589.995 970.856 582.616 973.781 572.273 C 975.008 567.937 977.347 562.764 982.772 562.438 C 992.705 561.839 1002.88 564.658 1012.82 564.933 C 1023.15 565.013 1033.82 562.633 1044.16 562.141 C 1062.01 561.637 1070.86 563.92 1088.88 560.262 z" fill="rgb(34,30,26)" transform="translate(0,0)"></path>
<path d="M 1087.53 567.256 C 1101.43 565.849 1114.54 570.293 1128.28 571.114 C 1140.54 571.846 1152.58 568.893 1164.75 569.061 C 1173.6 569.183 1182.33 571.922 1191.17 571.977 C 1205.56 572.066 1220.13 570.768 1234.54 570.501 C 1245.02 570.307 1255.53 571.207 1265.99 570.834 C 1280.02 570.333 1294.01 568.864 1308.07 568.79 C 1321.44 568.721 1334.63 572.574 1347.98 572.545 C 1375.29 572.486 1402.33 568.064 1429.4 572.59 C 1429.32 584.266 1427.67 595.899 1427.44 607.579 C 1427.17 621.05 1428.14 634.622 1427.36 648.07 C 1426.6 661.146 1424.15 674.181 1423.72 687.263 C 1423.39 697.296 1424.35 707.462 1424.55 717.504 C 1424.89 734.527 1424.42 751.838 1423.52 768.838 C 1422.47 788.629 1418.01 808.189 1416.95 827.981 C 1416.53 835.753 1417.32 843.685 1417.71 851.453 C 1418.75 872.215 1414.47 881.117 1413.55 899.129 C 1412.73 914.91 1416.66 966.571 1405.75 977.092 C 1395.39 987.074 1324.13 979.179 1307.14 979.089 C 1293.02 979.035 1279.22 981.613 1265.22 981.791 C 1240.06 982.111 1214.65 980.142 1189.5 979.22 C 1178.62 978.822 1167.76 979.913 1156.9 979.97 C 1146.33 980.027 1135.77 979.105 1125.21 979.095 C 1102.8 979.074 1080.41 982.402 1057.99 982.053 C 1046 981.867 1034.22 978.753 1022.18 978.765 C 1012.53 978.775 980.205 983.56 973.104 979.321 C 971.608 978.428 970.469 975.4 970.023 973.745 C 965.338 956.379 970.609 927.977 970.888 909.516 C 971.123 893.93 968.955 878.307 969.453 862.724 C 969.97 846.582 972.837 830.436 972.739 814.292 C 972.633 796.708 970.301 779.086 970.765 761.5 C 970.995 752.807 972.264 744.157 972.842 735.485 C 973.406 727.033 973.383 718.523 974.192 710.089 C 975.041 701.25 976.669 692.451 976.948 683.568 C 977.356 670.596 976.143 657.586 976.333 644.607 C 976.517 632.037 978.022 619.474 977.966 606.899 C 977.935 599.983 975.789 592.975 976.347 586.076 C 976.699 581.722 978.596 575.368 980.808 571.588 C 981.108 571.075 981.274 570.436 981.744 570.073 C 983.569 568.661 997.352 570.06 999.926 570.254 C 1006.94 570.78 1014.03 571.756 1021.07 571.359 C 1030.28 570.839 1039.41 568.7 1048.63 568.492 C 1062.18 568.187 1074.08 570.481 1087.53 567.256 z" fill="rgb(24,31,254)" transform="translate(0,0)"></path>
<path d="M 1244.5 816.373 C 1247.08 816.139 1249.66 815.969 1252.25 815.864 C 1262.78 815.417 1273.41 816.405 1283.96 816.442 C 1312.85 816.542 1330.31 814.528 1353.24 836.128 C 1364.61 846.835 1369.41 862.965 1369.71 878.251 C 1369.96 891.574 1365.9 906.863 1356.22 916.461 C 1348.72 923.908 1322.39 933.827 1311.54 935.116 C 1302.58 936.18 1293.41 935.041 1284.41 935.724 C 1273.6 936.545 1262.72 938.833 1251.89 939.022 C 1217.18 939.627 1180.61 935.811 1145.78 936.367 C 1130.01 938.299 1116.28 937.553 1100.52 936.667 C 1078.87 935.45 1058.28 936.916 1039.77 922.996 C 1027.16 913.515 1023.29 894.536 1021.33 879.559 C 1019.75 866.9 1023.31 854.135 1031.2 844.112 C 1036.37 837.429 1043.24 832.223 1050.49 827.982 C 1074.14 814.149 1093.04 817.421 1119.05 817.782 C 1129.05 817.922 1139.41 816.665 1149.33 817.47 C 1159.29 818.279 1169.17 820.412 1179.18 820.712 C 1201.1 821.369 1222.79 818.987 1244.5 816.373 z" fill="rgb(34,30,26)" transform="translate(0,0)"></path>
<path d="M 1254.68 821.412 C 1264.22 821.289 1273.97 822.647 1283.56 822.895 C 1308.08 823.529 1322.55 821.392 1343.46 836.694 C 1354.87 845.037 1360.17 855.552 1362.25 869.384 C 1364.13 881.841 1362.44 898.031 1354.48 908.269 C 1350.39 913.53 1343.83 916.675 1337.87 919.329 C 1316.57 928.813 1306.32 927.788 1284.08 929.151 C 1271.96 929.894 1259.78 932.4 1247.64 932.319 C 1236.58 932.245 1225.5 931.224 1214.43 930.953 C 1205.86 930.743 1197.28 931.276 1188.72 930.926 C 1169.33 930.132 1150.63 928.133 1131.23 930.868 C 1121.97 931.839 1112.67 930.65 1103.4 930.173 C 1083.25 929.136 1061.47 930.51 1044.27 917.603 C 1032.03 908.418 1029.06 887.855 1027.71 873.382 C 1026.82 863.929 1030.51 854.79 1036.4 847.537 C 1041.53 841.236 1048.18 836.632 1055.32 832.873 C 1080.79 819.451 1099 824.587 1126.35 824.917 C 1134.25 825.012 1142.21 822.465 1150.02 823.233 C 1158.88 824.105 1167.6 827.329 1176.55 827.42 C 1203.02 827.688 1228.43 823.964 1254.68 821.412 z" fill="rgb(244,237,222)" transform="translate(0,0)"></path>
<path d="M 503.95 1130.44 C 525.063 1130.68 545.78 1135.77 566.847 1135.96 C 582.474 1136.11 598.135 1133.47 613.758 1133.01 C 628.23 1132.58 642.675 1135.34 657.208 1135.09 C 675.849 1134.77 694.505 1132.05 713.137 1131.13 C 727.214 1130.44 806.216 1128.9 813.829 1133.98 L 813.6 1134.63 C 811.839 1135.95 809.712 1136.69 807.511 1136.76 C 797.836 1137 787.701 1135.09 777.944 1134.81 C 761.254 1134.32 744.475 1135.21 727.75 1134.93 C 706.332 1133.98 684.43 1137.94 663.001 1138.98 C 647.003 1139.76 631.319 1136.97 615.398 1136.99 C 599.475 1137 583.581 1139.81 567.664 1139.97 C 547.051 1140.18 526.716 1134.28 506.214 1134.53 C 487.538 1134.76 437.231 1143.11 422.283 1135.08 C 427.639 1131.78 441.579 1134.4 448.095 1134.27 C 466.558 1133.88 485.451 1131.55 503.95 1130.44 z" fill="rgb(34,30,26)" transform="translate(0,0)"></path>
<path d="M 1191.11 1133.6 C 1209.93 1131.91 1231.68 1131.09 1250.35 1133.55 C 1262.11 1135.1 1273.14 1138.72 1285.15 1138.84 C 1307.04 1139.05 1373.68 1132.64 1388.64 1137.58 L 1389.58 1139.56 L 1388.42 1141.18 C 1377.59 1142.02 1366.22 1139.44 1355.25 1139.61 C 1325.67 1140.07 1295.22 1146.02 1265.79 1140.77 C 1232.44 1132.31 1197.47 1138.59 1163.61 1139.04 C 1148.43 1139.24 1133 1137.16 1117.87 1138.1 C 1104.12 1138.96 1090.11 1141.79 1076.41 1142.12 C 1073.85 1142.18 1071.51 1142.15 1069.29 1140.76 L 1070.32 1139.4 C 1076.65 1137.2 1083.71 1137.25 1090.33 1136.6 C 1101.32 1135.52 1112.46 1134.13 1123.51 1133.94 C 1146.28 1133.54 1168.25 1135.38 1191.11 1133.6 z" fill="rgb(34,30,26)" transform="translate(0,0)"></path>
<path d="M 616.176 1037.39 C 630.481 1036.6 654.782 1036.63 668.15 1041.05 C 670.117 1041.7 671.42 1041.8 672.366 1043.67 C 665.084 1045.61 632.762 1041.75 621.102 1041.85 C 599.501 1042.06 578.53 1046.58 557.032 1047.59 C 543.171 1048.25 529.352 1046.09 515.494 1045.95 C 499.944 1045.78 484.441 1048.24 469.129 1050.67 C 464.653 1051.14 414.885 1049.42 413.337 1048.83 L 413.07 1047.18 C 424.035 1040.72 451.345 1047.34 464.475 1046.94 C 477.436 1046.55 490.157 1042.72 503.119 1041.99 C 520.346 1041.02 537.282 1044.26 554.392 1043.67 C 575.114 1042.96 595.48 1038.65 616.176 1037.39 z" fill="rgb(34,30,26)" transform="translate(0,0)"></path>
<path d="M 806.451 1083.51 C 817.827 1083.78 829.067 1087.23 840.489 1086.82 C 853.868 1086.34 889.405 1082.25 900.95 1086.8 C 897.232 1090.57 842.368 1091.16 833.619 1090.66 C 821.721 1089.97 810.409 1087.26 798.361 1087.48 C 775.793 1087.91 753.431 1090.82 730.939 1091.33 C 698.27 1089.04 665.655 1090.93 633.037 1087.16 L 631.86 1085.94 L 630.473 1086.44 L 631.417 1086.81 L 631.491 1085.8 C 644.664 1082.92 657.81 1085.38 671.11 1085.84 C 682.899 1086.25 694.713 1085.87 706.505 1086.14 C 716.145 1086.36 725.824 1087.27 735.461 1087.18 C 746.482 1087.08 757.592 1085.5 768.59 1084.72 C 781.198 1083.83 793.816 1083.67 806.451 1083.51 z" fill="rgb(34,30,26)" transform="translate(0,0)"></path>
<path d="M 1156.21 1034.54 C 1173.11 1033.36 1188.58 1036.79 1205.19 1036.84 C 1216.16 1036.87 1227.13 1035.43 1238.12 1035.49 C 1250.28 1035.55 1262.45 1037.15 1274.61 1036.98 L 1325 1036.5 C 1338.93 1036.4 1383.02 1032.17 1393.45 1039.07 C 1393.27 1039.23 1393.11 1039.42 1392.91 1039.56 C 1388.48 1042.54 1376.19 1040.37 1370.75 1039.88 C 1355.6 1039.11 1341.25 1040.31 1326.18 1040.58 L 1274.05 1041.15 C 1261.94 1041.27 1249.83 1039.51 1237.7 1039.48 C 1226.82 1039.45 1215.88 1041.04 1205.01 1040.62 C 1194.34 1040.21 1183.74 1038.34 1173.06 1038.09 C 1165.77 1037.93 1140.46 1040.65 1135.77 1037.02 L 1135.33 1037.2 L 1136.89 1038.15 L 1135 1037.65 C 1139.54 1033.76 1150.35 1034.63 1156.21 1034.54 z" fill="rgb(34,30,26)" transform="translate(0,0)"></path>
<path d="M 954.709 1085.44 C 968.582 1083.82 982.952 1087.54 996.854 1087.7 C 1023.91 1088.02 1051.28 1085.03 1078.38 1084.98 C 1101.94 1084.94 1125.09 1090.82 1148.91 1090.04 C 1154.12 1089.87 1167.64 1087.94 1171.78 1090.59 C 1165.74 1094.7 1157.2 1093.98 1150.25 1093.97 C 1127.01 1094.49 1104.88 1090.27 1081.84 1088.96 C 1071.8 1088.39 1061.59 1089.8 1051.55 1090.2 C 1034.33 1090.88 1016.96 1091.36 999.728 1091.73 C 984.538 1092.05 969.517 1088.14 954.269 1089.28 C 948.533 1089.71 943.229 1091.81 937.613 1092.69 C 934.95 1093.11 933.467 1093.2 931.279 1091.63 L 931.286 1089.63 C 935.43 1085.37 948.805 1085.88 954.709 1085.44 z" fill="rgb(34,30,26)" transform="translate(0,0)"></path>
<path d="M 998.185 1033.43 C 1017.17 1031.99 1037.15 1036.54 1056.33 1036.66 C 1070.44 1036.74 1084.97 1032.87 1098.86 1034.33 C 1101.62 1034.62 1105.93 1035.24 1107.7 1037.37 C 1101.3 1039.95 1091.74 1038.91 1084.87 1039.17 C 1075.08 1039.54 1065.46 1041.12 1055.62 1041.12 C 1036.98 1041.11 1018.05 1038.52 999.431 1037.25 C 979.324 1038.96 958.214 1042.03 938.131 1042.22 C 929.446 1042.31 920.698 1041.05 912.014 1040.72 C 905.64 1040.47 898.33 1041.48 892.11 1040.32 C 889.969 1039.92 890.444 1039.94 889.367 1038.33 C 894.662 1033.23 929.561 1038.41 938.493 1038.11 C 958.311 1037.44 978.383 1034.95 998.185 1033.43 z" fill="rgb(34,30,26)" transform="translate(0,0)"></path>
<path d="M 958.72 1132.43 C 967.948 1131.97 977.185 1131.71 986.424 1131.66 C 995.357 1131.63 1036.18 1133.62 1040.9 1138.3 L 1040.43 1139.54 C 1031.07 1142.77 1011.28 1136.33 1000.6 1135.9 C 983.115 1135.2 965.276 1136.5 947.783 1137.16 C 922.798 1138.87 893.72 1138.33 868.659 1137.2 C 866.217 1137.09 861.702 1137.09 860.07 1135.31 C 877.227 1129.31 905.714 1133.81 924.417 1133.82 C 935.857 1133.82 947.304 1133.1 958.72 1132.43 z" fill="rgb(34,30,26)" transform="translate(0,0)"></path>
<path d="M 1208.58 1086.6 C 1221.47 1084.98 1233.32 1087.58 1246.1 1087.36 C 1258.03 1087.16 1269.93 1085.79 1281.87 1085.69 C 1294.52 1085.59 1307.08 1087.32 1319.7 1087.48 C 1334.31 1087.66 1348.98 1086.37 1363.64 1086.46 C 1369.7 1086.5 1393.83 1085.14 1397.22 1088.58 L 1397.05 1090.2 C 1394.5 1091.49 1392.28 1091.15 1389.52 1090.99 L 1388.25 1090.91 C 1376.33 1090.92 1364.41 1090.29 1352.5 1090.36 C 1340.9 1090.42 1329.31 1091.37 1317.71 1091.12 C 1305.51 1090.85 1293.33 1089.4 1281.12 1089.46 C 1270.23 1089.51 1259.37 1090.8 1248.5 1091.11 C 1240.57 1091.32 1232.67 1090.33 1224.75 1090.34 C 1217.37 1090.36 1209.75 1091.27 1202.44 1090.26 L 1201.56 1088.96 C 1203.93 1086.8 1205.46 1087.04 1208.58 1086.6 z" fill="rgb(34,30,26)" transform="translate(0,0)"></path>
<path d="M 787.722 1036.43 C 787.783 1036.42 787.844 1036.41 787.905 1036.4 C 797.709 1035.63 860.421 1035.23 864.577 1038.4 L 863.786 1040.36 C 856.084 1044.11 819.197 1039.98 808.189 1040.03 C 796.121 1040.08 783.767 1040.6 771.809 1042.24 C 755.442 1044.62 724.556 1046.54 708.666 1043.52 C 704.598 1042.74 699.238 1042.8 696.253 1039.97 C 699.88 1036.42 714.228 1039.83 719.498 1040.11 C 742.047 1041.3 765.282 1038.59 787.722 1036.43 z" fill="rgb(34,30,26)" transform="translate(0,0)"></path>
<path d="M 582.923 1085.4 C 588.419 1085.05 597.655 1083.71 602.533 1086.6 L 601.33 1088 C 590.12 1091.57 534.365 1091.78 520.758 1090.79 C 513.704 1090.29 507.204 1090.08 500.661 1087.12 C 505.503 1084.57 539.973 1088.11 548.225 1087.99 C 559.801 1087.83 571.404 1086.5 582.923 1085.4 z" fill="rgb(34,30,26)" transform="translate(0,0)"></path>
<path d="M 448.796 1085.45 C 455.82 1085.48 462.636 1085.97 469.621 1086.47 C 470.742 1086.55 471.96 1086.47 473.056 1086.76 C 473.776 1086.94 474.391 1087.35 474.711 1088.04 C 475.084 1088.84 475.108 1089.32 474.767 1090.13 C 473.239 1091.28 448.885 1089.66 444.893 1089.69 C 442.552 1089.98 440.305 1090.35 437.993 1090.8 C 435.521 1091.28 424.054 1094.83 422.294 1093.78 C 421.82 1093.49 421.363 1093.08 421.239 1092.52 C 421.13 1092.03 421.289 1091.53 421.589 1091.14 C 423.896 1088.16 444.283 1085.83 448.796 1085.45 z" fill="rgb(34,30,26)" transform="translate(0,0)"></path>
<path d="M 2010.1 1252.33 C 2009.55 1267.23 2010.92 1282.08 2010.55 1296.96 C 2009.98 1319.6 2006.06 1342.21 2004.6 1364.82 C 2003.58 1380.75 2005.28 1396.65 2002.76 1412.52 C 2001.53 1420.25 1999.96 1427 1995.23 1433.41 C 1988.31 1442.79 1979.73 1450.29 1967.85 1451.93 C 1947.38 1454.77 1928.01 1451.82 1907.71 1451.14 C 1899.49 1450.87 1891.46 1452.42 1883.21 1451.61 C 1868.69 1450.16 1854.01 1447 1839.48 1446.23 C 1821.97 1445.29 1804.47 1448.53 1786.92 1446.58 C 1769.72 1444.67 1752.85 1438.83 1735.75 1437.44 C 1726.44 1436.69 1716.95 1437.77 1707.61 1437.63 C 1698.7 1437.49 1689.84 1435.91 1680.92 1435.62 C 1667.64 1435.19 1654.56 1436.08 1641.24 1434.95 C 1614.63 1432.68 1588.82 1425.27 1562.32 1422.94 C 1551.32 1421.98 1540.3 1425.52 1529.22 1423.94 C 1516.9 1422.18 1493.91 1416.27 1484.15 1408.36 C 1476.12 1401.86 1473.59 1390.62 1472.48 1380.79 C 1471.23 1369.73 1475.62 1360.61 1475.71 1349.91 C 1475.85 1332.15 1473.56 1314.65 1474.25 1296.79 C 1474.72 1284.3 1477.15 1271.96 1478.28 1259.52 C 1479.32 1248.12 1478.64 1236.7 1479.41 1225.31 C 1480.22 1213.19 1482.6 1201.2 1483.46 1189.08 C 1484.51 1174.25 1483.63 1159.35 1484.14 1144.5 C 1484.51 1133.66 1486.03 1122.85 1486.19 1112 C 1486.38 1099.87 1485.68 1087.73 1486.35 1075.6 C 1487.56 1053.72 1491.35 1032.02 1492.67 1010.13 C 1493.8 991.573 1492.44 972.911 1494.12 954.358 C 1495.78 936.067 1499.75 918.158 1500.99 899.758 C 1502.17 882.133 1500.83 864.601 1501.71 847.022 C 1502.59 829.589 1506.9 812.401 1507.8 795.009 C 1508.31 785.27 1506.29 775.456 1506.73 765.697 C 1507.26 754.113 1510.13 742.686 1510.69 731.105 C 1511.39 716.685 1508.84 702.209 1509.18 687.785 C 1509.55 671.988 1512.31 656.099 1513.25 640.29 C 1514.25 623.441 1513.55 606.524 1514.51 589.682 C 1515.38 574.346 1520.87 559.454 1521.81 544.015 C 1522.83 527.324 1521.42 510.722 1522.07 494.073 C 1522.57 481.457 1526.32 469.515 1527.29 456.961 C 1528.54 440.924 1527.23 424.661 1528.86 408.722 C 1530.17 395.967 1533.55 372.284 1542.1 362.446 C 1548.47 355.108 1564.4 354.578 1573.66 354.252 C 1581.01 353.992 1650.87 355.875 1654.69 358.864 C 1659.01 362.233 1660.47 374.785 1663.69 379.803 C 1665.49 382.603 1668.4 385.072 1670.82 387.352 C 1678.92 389.293 1689.89 391.774 1698.05 392.73 C 1706.11 393.553 1714.72 392.843 1722.72 393.699 C 1764.53 398.176 1806.25 396.621 1847.95 402.792 C 1857.5 404.205 1874.12 402.539 1884.51 402.3 C 1901.49 401.91 1930.88 409.32 1940.2 391.007 C 1943.01 385.498 1944.33 378.466 1948.7 373.888 C 1951.33 371.131 1953.85 369.707 1957.56 370.093 C 1971.95 370.561 1986.19 372.556 2000.54 373.585 C 2033.53 375.798 2046.06 367.725 2071.89 393.099 C 2080.23 425.233 2072.44 437.357 2070.68 468.608 C 2070.18 477.367 2073.93 494.28 2073.5 505.147 C 2072.87 521.128 2068.69 536.211 2068.18 551.807 C 2067.05 565.681 2070.77 583.986 2069.27 597.475 C 2065.67 629.958 2062.92 658.741 2064.88 691.557 C 2065.62 703.899 2061.52 727.499 2059.88 740.695 C 2040.56 739.456 2007.56 735.195 1988.28 740.378 C 1979.21 736.825 1958.83 731.26 1953.72 743.142 C 1950.22 745.185 1944.63 744.445 1940.58 743.902 C 1922.3 741.444 1903.38 746.128 1885.35 744.632 C 1879.72 743.767 1873.88 742.972 1868.28 741.854 C 1840.65 736.336 1812.27 739.813 1784.42 736.033 C 1780.65 735.521 1774.59 734.859 1770.91 735.646 L 1770.68 736.864 C 1782.39 742.882 1833.1 741.406 1848.57 742.904 C 1860.65 744.074 1874.46 747.273 1886.22 748.453 C 1899.29 749.542 1912.48 747.388 1925.59 746.966 C 1934.2 746.689 1940.8 747.651 1949.28 748.791 C 1939 766.473 1939 821.029 1935.84 826.18 L 1934.69 825.924 C 1913.16 822.619 1892.79 820.515 1871 819.61 C 1862.67 819.263 1846.91 821.365 1839.77 820.147 C 1815.44 815.991 1794.39 816.184 1769.88 816.264 C 1753.58 815.189 1735.95 810.73 1719.84 809.512 C 1688.47 807.14 1657.3 802.958 1625.91 801.238 C 1596.47 799.624 1561.01 789.553 1532.78 798.931 C 1526.38 816.717 1529.32 847.07 1526.9 866.945 C 1526 874.403 1523.56 895.38 1524.05 902.246 C 1526.74 940.241 1517.55 977.767 1517.48 1015.6 C 1517.44 1020.05 1518.36 1024.46 1520.17 1028.53 C 1522.21 1033.14 1525.64 1036.04 1530.84 1037.31 C 1558.15 1043.98 1587.19 1040.84 1615.22 1045.2 C 1626 1046.87 1640.9 1043.57 1652.07 1045.02 C 1661.57 1045.42 1671.5 1048.59 1680.9 1049.07 C 1715.35 1050.83 1748.61 1050.76 1782.96 1054.81 C 1801.58 1054.89 1819.53 1055.8 1838.03 1058.19 C 1846.01 1059.21 1856.54 1057.75 1864.48 1058.88 C 1898.4 1063.71 1933.68 1065.43 1967.69 1068.99 C 1981.46 1070.43 1997.67 1069.55 1999.44 1054.07 C 2006.69 1022.39 2002.85 988.592 2007.79 956.156 C 2009.63 944.1 2004.97 900.917 2010.48 892.815 L 2012.78 892.073 C 2022.06 893.761 2031.28 895.712 2040.45 897.922 C 2037.36 918.974 2037.89 937.06 2036.79 958.026 C 2035.95 974.23 2030.68 991.115 2029.93 1007.38 C 2029.48 1020.09 2031.6 1035.24 2031.91 1048.4 C 2032.24 1062.35 2029.94 1071.25 2028.85 1083.95 C 2018.78 1085.17 1981.68 1081.11 1978.46 1087.64 C 1965.34 1114.23 1976.48 1151.51 1967.48 1178.63 C 1939.94 1179.28 1908.3 1173.1 1880.24 1171.59 C 1868.48 1170.96 1858.18 1172.9 1846.27 1171.84 C 1834.13 1170.76 1820.2 1166.66 1808.59 1165.67 C 1791.58 1164.22 1771.34 1167.58 1754.25 1167.11 C 1738.85 1166.7 1722.43 1165.43 1706.98 1164.45 C 1699.67 1163.99 1690 1161.03 1683.42 1160.75 C 1663.1 1158.78 1641.33 1158.98 1620.79 1157.02 C 1610.7 1156.05 1598.07 1158.65 1587.72 1157.58 C 1570.57 1157.77 1511.19 1139.05 1510.32 1168.01 C 1509.52 1194.75 1509.97 1222.45 1510.53 1249.19 C 1510.71 1264.82 1494.2 1306.62 1506.3 1324.06 C 1510.25 1329.76 1525.26 1330.31 1532.15 1330.07 C 1559.2 1329.27 1586.69 1334.15 1613.45 1337.39 C 1625.19 1338.76 1639.06 1336.42 1650.58 1337.92 C 1692.56 1343.39 1733.75 1348.66 1776.23 1346.66 C 1785.85 1346.21 1799.21 1349.72 1809.25 1349.84 C 1831.14 1350.12 1852.77 1352.58 1874.53 1354.59 C 1882.25 1355.34 1890.73 1354.58 1898.61 1355.2 C 1919.33 1359.59 1948.98 1361.41 1969.85 1356.97 C 1978.49 1351.47 1976.73 1332.19 1977.41 1325.92 C 1980.36 1298.9 1977.22 1272.66 1980.26 1246.05 C 1990.78 1249.39 1999.16 1251.18 2010.1 1252.33 z" fill="rgb(244,237,222)" transform="translate(0,0)"></path>
<path d="M 1580.12 410.523 C 1584.57 409.224 1592.82 412.276 1597.93 412.544 C 1618.51 413.625 1639.1 414.007 1659.69 414.473 C 1672.35 414.76 1685.46 417.046 1698.24 417.154 C 1725.87 417.387 1753.63 418.214 1781.23 419.424 C 1797.84 420.222 1817.93 428.114 1834.33 428.908 C 1849.86 429.546 1866.71 426.732 1882.13 427.948 C 1921.54 431.053 1959.95 438.803 1999.62 434.734 C 2007.66 433.91 2026.29 437.279 2034.66 439.186 L 2041.84 445.797 C 2045.03 463.643 2042.76 482.982 2041.76 500.848 L 2037.8 573.375 L 2032.85 672.668 C 2032.14 685.411 2035.81 704.003 2028.13 715.054 C 2024.25 720.645 2016.9 720.691 2010.65 721.283 C 1981.07 720.298 1952.06 714.974 1921.6 714.451 C 1887.97 713.874 1852 706.916 1817.71 708.223 C 1812.47 708.423 1807.06 708.205 1801.8 708.475 C 1787.36 709.402 1773.54 706.859 1759.2 705.687 C 1735.06 703.738 1710.89 702.253 1686.69 701.235 C 1674.46 700.787 1662.18 701.417 1650.13 700.846 C 1636.34 699.474 1626.38 699.056 1612.29 698.006 C 1591.87 696.485 1564.72 701.758 1545.95 691.973 C 1543.23 690.554 1541.03 684.127 1540.76 681.384 C 1537.56 660.598 1542.7 638.532 1542.88 618.232 C 1543.09 592.722 1544.47 571.259 1548.7 546.004 C 1550.08 537.734 1548.12 524.248 1548.87 515.492 C 1550.19 500.351 1550.99 485.155 1551.31 469.964 C 1551.87 465.269 1552.01 460.189 1552.8 455.566 C 1556.96 431.236 1549.21 411.164 1580.12 410.523 z" fill="rgb(34,30,26)" transform="translate(0,0)"></path>
<path d="M 1549.24 686.914 L 1548.94 685.816 C 1542.91 664.362 1548.27 639.513 1548.94 617.465 C 1549.28 606.298 1548.58 594.931 1549.63 583.81 C 1550.83 571.161 1554 558.778 1554.79 546.058 C 1556.29 521.804 1554.5 439.023 1563.4 422.664 C 1565.05 419.636 1567.14 417.421 1570.56 416.562 C 1580.61 414.034 1592.33 418.983 1602.57 419.346 C 1612.03 419.681 1621.47 419.357 1630.98 419.799 C 1641.59 420.292 1652.3 419.746 1662.88 420.621 C 1674.75 421.601 1686.6 423.872 1698.51 424.134 C 1725.05 424.72 1752.62 423.289 1779 425.902 C 1797.66 427.751 1815.56 434.756 1834.17 435.934 C 1847.57 436.783 1861.18 433.944 1874.65 434.251 C 1903.66 434.913 1933 439.688 1962.08 441.347 C 1976.99 442.198 1991.84 439.742 2006.72 441.113 C 2014.35 441.816 2027.51 442.619 2033.98 446.825 C 2038.86 454.41 2033.65 535.143 2032.59 548.725 C 2030.79 571.775 2031.4 600.031 2029.28 622.889 C 2028.57 629.19 2027.59 635.802 2028.06 642.086 C 2029.65 649.911 2026.75 664.503 2026.52 673.11 C 2026.21 684.512 2028.74 702.883 2022.06 712.256 C 2005.72 720.223 1973.06 709.039 1956.21 709.374 C 1927.36 709.947 1900.42 705.909 1871.99 704.513 L 1685.69 695.008 C 1675.76 694.598 1665.52 695.296 1655.7 694.762 C 1625.51 693.121 1595.39 691.26 1565.16 690.592 C 1560.57 690.491 1553.71 688.249 1549.24 686.914 z" fill="rgb(24,31,254)" transform="translate(0,0)"></path>
<path d="M 1663.55 533.508 C 1680.65 532.224 1697.23 534.712 1714.44 536.109 C 1722.54 536.766 1734.78 540.852 1743.52 540.896 C 1769.88 541.028 1794.63 544.889 1821.04 545.51 C 1829.39 545.707 1843.64 548.738 1853.39 549.331 C 1865.66 550.077 1886.36 547.621 1897.06 549.766 C 1916.32 553.624 1939.35 554.692 1956 564.875 C 1968.13 572.291 1973.4 573.991 1977.8 588.811 C 1981.8 602.271 1981.13 626.276 1973.88 638.072 C 1963.68 654.693 1943.61 658.372 1926.22 661.713 C 1922.46 662.435 1912.73 665.595 1908.25 666.789 C 1900.25 667.98 1884.21 669.232 1876.67 666.851 C 1851.86 659.012 1824.05 661.066 1798.21 658.838 C 1787.94 657.953 1777.37 655.386 1766.93 654.626 L 1668.47 647.098 C 1660.77 646.543 1650.74 647.887 1643.34 646.484 C 1634.67 644.838 1621.42 637.021 1613.41 633.102 C 1602.64 626.841 1598.46 610.129 1595.12 599.441 C 1588.36 577.789 1601.08 561.834 1613.56 545.429 C 1624.42 531.161 1646.76 538.288 1663.55 533.508 z" fill="rgb(34,30,26)" transform="translate(0,0)"></path>
<path d="M 1666.15 540.638 C 1690.67 537.836 1715.37 545.363 1739.02 546.804 C 1766.22 548.462 1794.33 550.359 1821.61 551.568 C 1830.25 551.951 1840.31 555.621 1848.91 555.888 C 1868.61 556.498 1887.87 553.403 1907.46 557.718 C 1936.83 561.666 1941.55 566.493 1966.21 579.152 C 1976.77 604.917 1980.91 639.136 1945.84 650.439 C 1933.76 654.332 1919.01 656.949 1906.31 660.352 C 1878.15 663.885 1880.17 658.177 1857.31 656.002 L 1767.97 648.091 C 1758.33 647.264 1747.41 648.033 1738.02 646.93 C 1709.94 643.633 1681.94 641.31 1653.67 640.43 C 1640.82 639.723 1626.23 632.749 1615.59 625.994 C 1608.01 621.176 1601.5 599.704 1600.27 591.146 C 1598.22 576.869 1607.27 563.06 1615.73 552.359 C 1625.7 539.753 1638.8 541.606 1652.92 541.828 C 1655.69 541.828 1662.82 540.946 1666.15 540.638 z" fill="rgb(244,237,222)" transform="translate(0,0)"></path>
<path d="M 1514.73 1353.17 C 1526.99 1353.41 1539.19 1356.06 1551.49 1356.46 C 1565.12 1356.91 1578.91 1354.61 1592.49 1356.22 C 1614.35 1358.8 1636.34 1364.86 1658.18 1366.38 C 1669.12 1367.14 1680.15 1366.17 1691.09 1366.9 C 1701.68 1367.6 1712.19 1369.36 1722.76 1370.29 C 1739.08 1371.73 1755.78 1372.55 1772.15 1373.26 C 1781.76 1373.68 1791.41 1372.37 1800.99 1372.95 C 1811.27 1373.57 1821.59 1375.96 1831.83 1377.23 C 1847.14 1379.15 1862.79 1380.08 1878.17 1381.53 C 1895.17 1383.14 1912.32 1382.5 1929.45 1384.05 C 1936.98 1384.74 1959.66 1383.81 1964.85 1387.53 L 1964.91 1389.35 L 1962.91 1391.46 C 1962.68 1391.42 1962.46 1391.38 1962.24 1391.33 C 1936.85 1385.96 1909.55 1387.96 1883.75 1386.42 C 1866.45 1385.38 1848.24 1383.53 1831.03 1381.37 C 1821.86 1380.22 1812.75 1378.26 1803.53 1377.52 C 1793.76 1376.73 1783.84 1377.66 1774.04 1377.45 C 1757.5 1377.08 1740.63 1375.81 1724.1 1374.79 C 1712.59 1374.07 1701.21 1371.91 1689.69 1371.24 C 1677.03 1370.51 1664.33 1371.5 1651.7 1369.94 C 1630.55 1367.34 1609.95 1361.74 1588.57 1360.24 C 1577.09 1359.43 1565.38 1360.74 1553.87 1360.71 C 1545.47 1360.69 1537.34 1359.47 1529 1358.88 C 1523.87 1358.52 1517.55 1358.88 1512.79 1357.06 L 1512.41 1355.45 L 1514.73 1353.17 z" fill="rgb(34,30,26)" transform="translate(0,0)"></path>
<path d="M 1697.52 1400.45 C 1732.87 1401.84 1768.25 1402.25 1803.57 1404.48 C 1815.46 1405.23 1827.13 1408.12 1839.02 1408.83 C 1860.64 1410.12 1882.13 1411.36 1903.74 1413.04 C 1910.37 1413.56 1918.18 1413.04 1924.52 1414.67 L 1925.27 1416.4 L 1923.7 1419.09 C 1894.82 1415.8 1865.56 1415.12 1836.63 1412.81 C 1827.36 1412.06 1818.22 1410.11 1808.98 1409.04 C 1797.87 1407.75 1786.35 1407.56 1775.17 1407.03 C 1756.8 1406.16 1738.42 1405.62 1720.04 1405 C 1712.67 1404.76 1704.01 1405.65 1696.88 1404.06 L 1696.25 1402.6 L 1697.52 1400.45 z" fill="rgb(34,30,26)" transform="translate(0,0)"></path>
<path d="M 1718.85 1083.15 C 1735.32 1084.62 1751.51 1084.01 1767.92 1085.02 C 1791.03 1086.44 1814.45 1089.03 1837.55 1089.71 C 1847.15 1089.99 1856.81 1089.1 1866.4 1089.55 C 1876.54 1090.02 1886.51 1092.74 1896.65 1093.28 C 1907.71 1093.88 1951.91 1090.53 1958.39 1095.71 L 1958.52 1098.71 C 1936.75 1096.74 1915.35 1098.71 1893.74 1097.53 C 1885.66 1097.09 1877.83 1093.9 1869.76 1093.35 C 1858.71 1092.59 1847.43 1093.96 1836.32 1093.49 C 1812.74 1092.49 1789.11 1089.59 1765.48 1088.56 C 1755.64 1088.13 1727.71 1090.35 1719.74 1086.22 L 1718.85 1083.15 z" fill="rgb(34,30,26)" transform="translate(0,0)"></path>
<path d="M 1546.24 723.29 C 1557.11 722.179 1569.45 724.411 1580.47 724.835 C 1612.1 726.053 1643.78 725.858 1675.41 727.691 C 1692.07 728.657 1708.6 731.215 1725.24 732.472 C 1731.38 732.936 1747.86 732.436 1752.33 734.545 C 1753.54 735.115 1753.51 736.719 1753.84 737.914 C 1736.85 739.973 1698.31 732.951 1678.81 731.692 C 1662.84 730.662 1554.4 729.105 1546.95 725.907 L 1546.24 723.29 z" fill="rgb(34,30,26)" transform="translate(0,0)"></path>
<path d="M 1543.95 755.207 C 1562.43 755.596 1581.39 759.79 1599.94 761.142 C 1610.16 761.886 1620.76 762.967 1631 763.035 C 1640.31 763.096 1649.65 762.444 1658.96 762.841 C 1676.44 763.588 1693.87 766.616 1711.36 767.698 C 1718.25 768.123 1741.73 766.325 1745.54 769.251 L 1745.51 771.822 C 1732.06 770.916 1718.53 771.42 1705.07 770.516 C 1689.16 769.446 1673.27 767.001 1657.36 766.215 C 1648.03 765.754 1638.67 767.234 1629.33 766.974 C 1617.06 766.631 1550.99 761.314 1544.63 758.393 L 1543.95 755.207 z" fill="rgb(34,30,26)" transform="translate(0,0)"></path>
<path d="M 1776.98 1126.21 C 1781.93 1125.19 1788.87 1126.54 1794.05 1126.59 C 1805.56 1126.69 1817.25 1126.24 1828.72 1127.18 C 1852.78 1129.14 1876.63 1133.69 1900.78 1135.38 C 1916.87 1136.51 1932.8 1134.48 1948.93 1136.57 L 1950.97 1139.73 C 1943.84 1140.74 1936.14 1139.45 1928.92 1139.35 C 1918.62 1139.2 1908.29 1139.55 1898.01 1138.76 C 1874.66 1136.98 1851.65 1132.94 1828.38 1130.86 C 1814.97 1129.66 1801.41 1131.48 1788 1130.32 C 1782.91 1129.89 1780.33 1130.22 1776.98 1126.21 z" fill="rgb(34,30,26)" transform="translate(0,0)"></path>
<path d="M 1514.83 1386.98 C 1523.52 1388.52 1532.89 1387.49 1541.73 1388.01 C 1553.98 1388.73 1666.12 1395.98 1670.47 1399.83 L 1670.51 1403.1 C 1629.07 1398.35 1587.6 1395.94 1546.09 1392.33 C 1540.56 1391.85 1519.92 1392.9 1516.25 1391.04 C 1515.03 1390.42 1515.07 1388.25 1514.83 1386.98 z" fill="rgb(34,30,26)" transform="translate(0,0)"></path>
<path d="M 1764.15 770.317 C 1782.9 770.551 1801.34 772.55 1820.01 773.877 C 1828.77 774.5 1837.59 774.221 1846.33 775.047 C 1856.85 776.041 1867.2 778.408 1877.76 779.268 C 1890.5 780.306 1913.79 779.237 1925.16 782.16 C 1926.77 782.574 1927.01 784.167 1927.75 785.555 C 1921.08 786.067 1914.15 784.924 1907.46 784.553 C 1896.56 783.949 1885.58 783.972 1874.71 782.925 C 1865.08 781.999 1855.6 779.868 1845.98 778.913 C 1830.08 777.333 1813.96 777.137 1797.97 775.639 C 1792.5 775.127 1767.49 774.71 1764.55 773.121 L 1764.15 770.317 z" fill="rgb(34,30,26)" transform="translate(0,0)"></path>
<path d="M 1526.73 1071.21 C 1538.02 1069.67 1551.94 1071.95 1563.47 1072.37 C 1573.65 1072.73 1583.84 1072.1 1594.02 1072.52 C 1610.49 1073.21 1626.92 1075.41 1643.39 1076.24 C 1658.14 1076.97 1675.75 1076.12 1690.01 1079.84 C 1692.63 1080.53 1692.54 1081.21 1693.76 1083.51 C 1686.7 1084.84 1675.9 1082.02 1668.56 1081.43 C 1657.02 1080.48 1645.41 1080.39 1633.86 1079.45 C 1620.48 1078.36 1606.99 1076.43 1593.6 1075.89 C 1583.35 1075.48 1534.4 1076.66 1528.48 1074.11 C 1527.23 1073.58 1527.18 1072.38 1526.73 1071.21 z" fill="rgb(34,30,26)" transform="translate(0,0)"></path>
<path d="M 1523.66 1108.26 L 1524.66 1108.49 C 1533.35 1110.48 1542.76 1110.4 1551.65 1110.94 C 1582.48 1112.84 1614.13 1111.09 1644.57 1117.37 C 1646.64 1117.79 1646.31 1118.08 1647.4 1119.74 C 1635.04 1122.68 1614.49 1117 1601.16 1116.2 C 1591.63 1115.63 1582.06 1116.16 1572.53 1115.9 C 1556.84 1115.48 1540.63 1114.18 1525 1112.77 C 1523.46 1112.63 1524.18 1112.93 1522.98 1111.5 L 1523.66 1108.26 z" fill="rgb(34,30,26)" transform="translate(0,0)"></path>
<path d="M 1672.21 1117.33 C 1677.95 1116.37 1683.51 1117.51 1689.3 1117.72 C 1696.37 1117.98 1703.46 1117.51 1710.53 1118.05 C 1719.54 1118.73 1728.43 1120.46 1737.5 1120.9 C 1743.01 1121.17 1750.16 1120.07 1755.46 1121.2 C 1756.14 1121.34 1756.63 1121.84 1756.99 1122.42 C 1757.17 1122.72 1757.32 1123.03 1757.5 1123.33 C 1757.76 1123.78 1758.03 1124.22 1758.3 1124.66 C 1741.02 1126.53 1723.7 1122.98 1706.56 1121.51 C 1698.25 1120.8 1689.78 1121.26 1681.43 1120.76 C 1679.22 1120.63 1674.98 1121 1673.52 1119.12 C 1673.33 1118.88 1673.17 1118.63 1672.99 1118.39 L 1672.21 1117.33 z" fill="rgb(34,30,26)" transform="translate(0,0)"></path>
<path d="M 1943.11 1417.32 C 1945.28 1417.07 1947.31 1416.89 1949.49 1417.14 C 1954.68 1417.72 1963.83 1416.89 1968.33 1418.42 C 1969.14 1418.7 1969.72 1419.44 1970 1420.23 C 1970.12 1420.53 1970.2 1420.85 1970.3 1421.16 L 1970.77 1422.54 C 1964.13 1423.47 1951.83 1422.72 1945.57 1420.62 C 1944.74 1420.34 1944.41 1419.84 1944.02 1419.08 C 1943.94 1418.93 1943.88 1418.77 1943.8 1418.63 L 1943.11 1417.32 z" fill="rgb(34,30,26)" transform="translate(0,0)"></path>
<path d="M 552.793 569.439 C 571.044 569.109 589.317 573.358 607.717 573.085 C 621.573 572.879 635.317 570.041 649.156 569.667 C 658.394 569.417 667.753 570.981 676.978 571.492 C 685.49 571.964 693.972 571.135 702.472 571.39 C 710.043 571.617 717.604 572.642 725.173 572.741 C 736.925 572.895 748.605 569.348 760.509 569.137 C 777.011 568.843 792.988 570.973 808.6 570.848 C 816.475 570.785 824.285 568.393 832.18 568.81 C 841.752 569.316 851.18 571.878 860.732 572.361 C 879.226 573.297 908.771 562.473 925.803 571.138 C 928.093 574.104 928.967 576.104 929.275 579.849 C 930.005 588.712 927.171 597.626 927.192 606.502 C 927.209 613.831 928.059 621.163 928.098 628.503 C 928.143 637 927.57 645.499 927.669 653.996 C 927.77 662.654 928.803 671.318 928.68 679.971 C 928.559 688.49 927.505 696.982 927.331 705.502 C 927.141 714.841 927.754 724.205 927.377 733.539 C 926.867 746.15 924.073 758.599 923.725 771.249 C 923.279 787.407 925.431 803.632 924.717 819.775 C 924.146 832.668 920.616 845.425 920.324 858.255 C 920.103 867.96 921.448 877.692 921.316 887.423 C 921.184 897.075 919.305 906.843 919.625 916.461 C 920.161 932.544 922.096 947.627 920.338 963.82 C 919.902 967.831 919.316 972.476 915.855 975.067 C 911.794 978.107 906.595 978.745 901.673 979.011 C 887.076 979.799 873.307 975.446 858.912 975.518 C 836.285 975.631 812.489 982.83 789.814 978.843 C 768.307 976.097 748.055 979.567 726.639 981.065 C 715.912 981.815 705.234 980.866 694.517 981.094 C 684.907 981.298 675.325 982.873 665.722 982.952 C 653.018 983.055 640.647 978.044 627.982 977.605 C 613.328 977.097 599.291 982.005 584.683 981.915 C 572.202 981.839 559.598 979.431 547.145 978.423 C 523.88 976.541 511.997 977.386 489.31 979.296 C 476.221 980.398 437.555 984.68 428.129 976.768 C 424.901 969.676 423.915 931.389 424.068 921.865 C 424.23 911.726 425.678 901.565 425.534 891.426 C 425.384 880.841 423.513 870.238 422.884 859.663 C 422.258 849.125 423.147 838.271 423.582 827.727 C 428.531 820.849 431.242 813.996 432.39 805.636 C 434.13 792.968 431.601 779.714 430.582 767.036 C 429.746 756.626 430.718 746.026 429.601 735.676 C 428.769 727.968 426.532 720.343 425.238 712.694 C 423.647 703.286 423.03 693.44 421.886 683.938 C 419.476 663.926 417.515 589.589 429.575 575.395 C 432.044 572.49 434.86 571.829 438.508 571.543 C 446.222 570.938 454.27 572.178 462.014 572.357 L 508.438 573.155 C 523.022 573.283 538.102 570.175 552.793 569.439 z" fill="rgb(244,237,222)" transform="translate(0,0)"></path>
<path d="M 473.511 668.599 C 481.584 651.222 498.711 639.931 516.594 633.127 C 536.675 625.487 561.388 621.742 582.312 616.851 C 591.302 615.237 602.792 616.388 611.386 614.651 C 628.285 611.236 642.467 608.129 659.718 611.424 C 663.493 612.146 669.154 612.311 673.067 612.392 C 710.881 607.216 747.081 611.937 784.207 619.445 C 791.424 620.953 804.04 618.967 810.519 621.341 C 839.498 631.96 894.533 646.294 873.07 688.853 C 865.836 703.199 825.295 710.793 810.177 714.385 C 798.714 717.108 790.375 716.264 777.75 720.717 C 803.821 725.011 808.711 719.142 832.986 733.375 C 848.252 742.325 877.108 746.599 874.894 773.996 C 873.557 785.503 863.409 791.104 853.248 793.65 C 832.063 797.907 809.094 806.475 788.153 810.138 C 794.636 811.667 800.164 812.675 806.736 813.505 C 842.52 818.026 904.159 846.941 874.496 891.671 C 867.872 895.402 861.65 899.707 855.219 903.562 C 848.329 907.693 839.089 909.46 831.535 912.271 C 811.014 919.908 789.6 922.842 767.856 923.91 C 760.216 924.571 752.197 926.649 744.589 927.138 C 736.961 927.627 728.554 927.619 720.882 927.496 C 706.715 927.268 692.982 930.634 679.072 927.257 C 661.902 923.09 644.082 926.7 626.641 924.914 C 597.027 922.358 566.975 922.93 537.72 916.826 C 531.642 915.558 526.877 910.977 521.394 908.382 C 507.184 902.417 491.821 897.822 483.986 883.161 C 480.999 877.572 477.411 864.67 479.792 858.299 C 483.046 849.602 492.93 842.765 499.932 836.911 C 506.002 831.836 518.95 824.146 526.36 821.828 C 544.85 816.042 562.705 816.232 582.11 810.653 C 579.921 809.152 579.811 808.98 577.346 808.077 C 569.46 806.575 560.296 803.449 552.113 801.217 C 534.611 796.445 513.548 797.604 498.734 787.149 C 477.888 772.439 485.323 748.001 505.315 737.282 C 525.624 726.846 545.347 721.848 567.977 718.696 C 550.929 717.25 539.9 716.466 524.236 708.659 C 498.145 695.654 477.388 703.056 473.511 668.599 z" fill="rgb(34,30,26)" transform="translate(0,0)"></path>
<path d="M 577.346 808.077 C 580.083 807.964 582.061 808.021 584.8 807.59 C 586.878 807.996 588.961 808.374 591.048 808.726 C 588.268 809.323 584.809 810.336 582.11 810.653 C 579.921 809.152 579.811 808.98 577.346 808.077 z" fill="rgb(234,223,200)" transform="translate(0,0)"></path>
<path d="M 584.8 807.59 C 587.724 807.25 596.515 808.002 591.048 808.726 C 588.961 808.374 586.878 807.996 584.8 807.59 z" fill="rgb(126,116,112)" transform="translate(0,0)"></path>
<path d="M 646.188 810.564 C 661.777 809.537 677.433 810.887 693.04 811.029 C 705.771 811.145 718.526 809.696 731.236 810.042 C 752.907 810.632 773.333 814.889 794.56 818.579 C 807.138 820.765 818.248 821.759 830.268 826.495 C 844.227 831.995 861.546 840.612 870.562 853.087 C 873.146 856.664 874.834 861.651 876.587 865.713 C 874.804 872.407 873.06 879.084 870.776 885.63 C 864.077 889.793 857.592 894.911 850.463 898.262 C 844.542 901.044 838.005 902.717 831.791 904.73 C 825.009 906.926 818.255 909.605 811.347 911.348 C 783.293 918.427 741.618 920.961 712.85 921.016 C 693.001 922.944 683.117 919.913 664.673 919.278 C 655.465 918.961 646.222 919.588 637.005 919.405 C 626.801 919.203 616.67 917.775 606.494 917.108 C 585.986 915.763 563.167 916.034 543.198 910.728 C 534.859 908.512 514.099 899.41 506.292 895.07 C 497.212 890.022 489.708 881.724 487.048 871.545 C 485.699 866.387 485.332 862.164 488.271 857.555 C 496.947 843.945 521.507 828.363 537.402 824.991 C 546.107 823.144 555.279 824.124 564.028 822.237 C 576.32 819.585 588.228 815.391 600.81 814.124 C 616.078 812.587 630.989 813.461 646.188 810.564 z" fill="rgb(244,237,222)" transform="translate(0,0)"></path>
<path d="M 634.451 617.196 C 646.312 615.605 657.385 618.709 669.142 619.029 C 683.386 619.418 697.607 616.403 711.906 616.959 C 724.613 617.454 738.385 618.515 750.918 620.627 C 761.492 622.408 771.987 625.002 782.61 626.439 C 791.797 627.681 801.365 625.762 810.383 628.227 C 825.262 632.296 862.544 647.099 869.154 660.583 C 873.461 669.371 868.937 679.491 866.122 688.01 C 841.015 702.549 797.469 712.072 768.479 715.162 C 752.579 716.857 735.176 716.62 719.144 716.809 C 710.653 716.633 702.063 716.919 693.593 716.354 C 684.502 715.747 675.36 714.284 666.245 714.455 C 655.308 714.66 644.136 714.697 633.233 715.45 C 624.174 716.076 615.156 717.661 606.054 717.068 C 595.54 716.382 585.49 712.263 575.036 711.181 C 564.379 710.079 553.438 711.748 542.941 709.058 C 533.406 706.615 522.678 700.469 512.89 697.135 C 504.687 694.341 490.574 690.455 484.408 684.817 C 481.052 681.749 480.724 673.774 480.312 669.454 C 481.485 667.057 482.674 664.592 484.16 662.368 C 490.304 653.169 507.893 643.321 517.979 639.374 C 532.095 633.85 564.771 626.019 580.041 623.791 C 588.1 622.614 596.448 622.816 604.569 622.082 C 614.556 621.178 624.614 619.08 634.451 617.196 z" fill="rgb(244,237,222)" transform="translate(0,0)"></path>
<path d="M 629.48 721.38 C 651.621 720.097 676.723 722.384 698.849 723.014 C 716.453 723.515 734.183 721.419 751.64 722.108 C 762.255 722.527 772.813 725.669 783.244 727.535 C 792.84 729.252 802.721 729.128 812.201 731.495 C 819.821 733.398 827.499 737.567 834.646 740.79 C 841.3 743.789 848.207 746.575 854.155 750.875 C 859.262 754.568 868.46 762.901 869.157 769.374 C 869.517 772.718 867.78 775.718 865.551 778.07 C 860.913 782.963 853.552 786.205 847.29 788.498 C 836.578 792.421 798.837 801.189 788.021 801.885 C 770.154 803.036 752.261 800.551 734.507 801.647 L 733.114 801.741 C 721.748 801.659 710.359 802.809 699.004 802.412 C 688.675 802.05 678.307 800.113 667.974 800.288 C 653.661 800.53 639.216 802.694 624.859 803.307 C 615.471 803.708 606.377 802.277 597.048 801.666 C 590.302 801.224 583.337 801.568 576.639 800.762 C 568.891 799.829 562.457 795.163 554.72 794.026 C 538.71 791.673 517.77 790.817 503.865 782.165 C 498.948 779.105 493.685 774.792 492.523 768.8 C 491.609 764.082 493.579 759.365 496.081 755.464 C 502.991 744.689 513.02 740.639 524.433 736.353 C 547.71 727.613 569.404 724.136 594.196 723.581 C 606.34 723.309 617.467 724.059 629.48 721.38 z" fill="rgb(244,237,222)" transform="translate(0,0)"></path>
<path d="M 1128.76 1312.93 C 1159.52 1312.92 1190.42 1314.54 1221.13 1314.02 C 1242.25 1313.65 1263.29 1310.94 1284.43 1311.09 C 1309.12 1311.27 1333.77 1313.67 1358.46 1314.16 C 1378.92 1314.57 1399.08 1312.94 1419.58 1314.19 C 1418.77 1330.7 1413.66 1346.64 1413.63 1363.25 C 1413.59 1381.1 1418.94 1397.8 1418.09 1415.91 C 1402.62 1417.18 1387.29 1416.75 1371.83 1417.49 C 1356.64 1418.23 1341.53 1420.44 1326.29 1419.97 C 1312.86 1419.56 1299.62 1416.08 1286.17 1415.95 C 1271.08 1415.81 1256.35 1419.31 1241.13 1418.52 C 1209.56 1416.87 1178.33 1411.59 1146.6 1410.74 C 1124.85 1410.16 1103.8 1413.2 1082.17 1414.38 C 1066.9 1415.21 1052.07 1414.52 1036.86 1413.14 C 1024.33 1413 1011.64 1412.68 999.142 1413.49 C 981.347 1414.64 963.805 1417.04 945.935 1417.19 C 916.358 1417.43 886.749 1413.95 857.125 1413.84 C 823.062 1413.71 789.682 1418.83 755.776 1419.97 C 736.191 1420.63 716.926 1417.32 697.435 1417.62 L 627.005 1418.96 C 613.993 1419.33 601.151 1420.52 588.119 1419.92 C 558.561 1398.22 529.468 1375.44 497.709 1357.07 C 493.451 1354.61 488.518 1351.34 483.513 1352.7 C 477.914 1361.48 480.971 1407.57 482.891 1419.25 C 460.59 1418.14 438.583 1413.82 416.163 1413.91 C 402.432 1413.97 388.949 1417.69 375.285 1418.73 C 361.691 1419.76 348.172 1418.23 334.589 1418.43 C 322.586 1418.6 310.613 1420.26 298.623 1420.4 C 288.676 1420.52 278.572 1417.52 268.624 1416.8 C 255.914 1415.88 243.328 1418.05 230.712 1419.16 C 213.409 1420.7 191.818 1421.93 177.931 1410.16 C 166.838 1400.76 155.619 1389.17 154.499 1374.07 C 153.173 1356.19 157.313 1340.91 169.371 1327.31 C 177.516 1318.12 185.778 1316.5 197.443 1314.83 C 216.013 1312.19 233.685 1314.06 252.21 1313.67 C 262.486 1313.46 272.699 1311.74 282.999 1312.13 C 294.615 1312.57 306.196 1314.51 317.816 1314.67 C 330.162 1314.84 342.446 1312.59 354.808 1312.65 C 365.873 1312.72 376.936 1313.43 388.002 1313.37 C 399.098 1313.3 410.224 1312.38 421.317 1312.77 C 441.024 1313.46 460.753 1315.64 480.496 1315.21 C 496.032 1314.88 511.656 1312.26 527.233 1311.45 C 546.37 1311.05 565.352 1316.04 584.441 1316.34 C 603.639 1316.65 622.547 1312.92 641.704 1312.99 C 662.134 1313.07 682.504 1317.28 702.947 1317.54 C 719.921 1317.77 736.456 1313.55 753.333 1312.41 C 771.055 1311.21 788.918 1313.2 806.694 1312.22 C 821.713 1327.88 838.301 1341.61 852.738 1357.9 C 865.169 1357.99 877.641 1357.07 890.065 1357.57 C 901.45 1358.02 912.895 1360.01 924.3 1359.57 C 936.195 1359.11 947.897 1355.26 959.856 1355.49 C 980.949 1355.9 1001.65 1361.08 1022.77 1361.48 C 1040.53 1361.81 1057.86 1358.67 1075.69 1359.47 C 1092.58 1343.05 1111.3 1328.72 1128.76 1312.93 z" fill="rgb(244,237,222)" transform="translate(0,0)"></path>
<path d="M 1537.03 802.09 C 1541.22 801.437 1550.95 799.692 1554.97 800.07 C 1601.34 804.432 1647.92 808.147 1694.24 813.147 C 1702.42 813.428 1710.38 814.084 1718.53 814.725 C 1740.19 816.429 1761.2 823.902 1782.97 822.16 C 1792.06 821.433 1802 821.373 1811 821.902 C 1818.36 821.777 1830.43 826.365 1837.09 825.925 C 1866.17 824.002 1894.3 826.686 1923.26 828.544 C 1927.71 829.376 1932.19 830.488 1936.54 828.822 C 1939.55 836.178 1932.17 851.474 1935.89 863.738 C 1940.02 874.228 1944.19 876.678 1954.68 881.352 C 1968.18 887.369 1980.85 890.772 1995.61 891.648 C 1999.35 891.796 2000.74 891.897 2004.4 892.593 C 2005.67 896.869 2002.2 914.467 2002.62 920.357 C 2004.39 945.641 2001.71 966.263 1998.76 991.305 C 1998.13 1006.27 2000.25 1052.05 1988.32 1060.93 C 1979.13 1067.77 1910.37 1056.6 1895.03 1057.28 C 1889.66 1057.52 1871.84 1053.58 1865.43 1053.19 L 1649.79 1039.25 C 1638.27 1038.43 1626.33 1039.9 1615.04 1039.08 C 1598.01 1036.71 1579.54 1036.26 1562.75 1035.44 C 1542.48 1034.45 1520.9 1037.35 1523.86 1010.8 C 1525.51 995.337 1524.55 975.505 1527.33 960.372 C 1532.76 930.767 1529 903.731 1532.71 874.001 C 1535.26 853.635 1532.05 820.863 1537.03 802.09 z" fill="rgb(24,31,254)" transform="translate(0,0)"></path>
<path d="M 1677.69 876.435 C 1687.55 875.877 1697.17 878.014 1706.97 878.497 C 1722.15 879.243 1737.08 878.552 1752.29 880.061 C 1772.66 882.082 1792.62 886.592 1812.85 889.14 C 1822.02 890.296 1831.48 889.753 1840.71 890.134 C 1862.07 891.012 1887.49 894.439 1907.07 903.254 C 1919.01 908.626 1932.2 920.134 1936.59 932.618 C 1941 945.154 1939.62 959.523 1933.7 971.331 C 1925.74 987.213 1914.08 992.12 1898.64 998.768 C 1892.81 1001.28 1886.98 1004.23 1880.91 1006.09 C 1871.67 1008.91 1860.79 1007.24 1852.35 1002.69 C 1841.05 998.995 1830.83 1001.93 1819.42 1000.44 L 1762.55 993.532 C 1751.3 992.163 1740.08 990.042 1728.74 989.442 C 1717.88 988.867 1706.99 989.949 1696.12 989.604 C 1686.23 989.29 1676.41 987.683 1666.49 987.333 C 1656.02 986.964 1645.03 987.532 1634.76 985.23 C 1625.08 983.058 1618.39 976.761 1609.47 973.126 C 1609.11 972.978 1608.74 972.837 1608.37 972.693 C 1599.67 959.463 1590.9 954.362 1588.67 937.232 C 1586.79 922.769 1589.9 906.439 1599.31 894.922 C 1619.2 870.571 1650.75 879.065 1677.69 876.435 z" fill="rgb(34,30,26)" transform="translate(0,0)"></path>
<path d="M 1632.98 883.221 C 1657.17 882.805 1681.36 883.545 1705.52 884.425 C 1719.79 884.944 1733.62 884.649 1747.89 886.118 C 1769.83 888.379 1791.47 893.284 1813.34 895.613 C 1820.88 896.415 1828.62 896.073 1836.19 896.347 C 1856.34 897.074 1878.73 899.375 1897.64 906.649 C 1910.06 911.426 1925.02 921.579 1930.17 934.236 C 1934.57 945.035 1932.68 956.823 1928.03 967.216 C 1920.24 984.599 1906.35 988.128 1890.39 994.319 C 1884.81 997.46 1879.47 1000.91 1872.83 1000.8 C 1862.68 1000.63 1854.01 995.033 1844.15 994.239 C 1837.77 993.724 1831.36 995.228 1824.99 994.685 C 1816.2 993.934 1807.46 992.197 1798.67 991.251 C 1788.98 990.207 1779.2 989.957 1769.52 988.672 C 1758.48 987.206 1747.53 984.98 1736.44 983.883 C 1723.79 982.631 1711.33 983.759 1698.68 983.678 C 1690.11 983.624 1681.55 982.194 1672.99 981.669 C 1656.48 980.656 1641.86 980.555 1625.64 976.699 C 1622.59 972.529 1619.52 971.05 1615.58 968.147 C 1606.41 961.405 1598.74 952.895 1595.71 941.702 C 1592.19 928.686 1594.45 915.001 1601.34 903.47 C 1608.11 892.164 1620.73 886.419 1632.98 883.221 z" fill="rgb(244,237,222)" transform="translate(0,0)"></path>
<path d="M 1915.13 1351.9 C 1898.38 1348.67 1891.02 1349.58 1874.63 1348.64 L 1810.39 1344.67 C 1789.89 1343.21 1773.4 1337.11 1752.03 1341.6 C 1745.73 1341.88 1737.63 1340.16 1731.53 1340.07 C 1706.63 1339.71 1682.63 1335.33 1657.91 1333.25 L 1558.64 1325.47 C 1552.39 1324.98 1513.29 1324.33 1511.26 1319.56 C 1501.39 1297.97 1518.88 1268.35 1517.82 1247.33 C 1515.6 1221.24 1516.23 1194.72 1517.25 1168.54 C 1518.1 1146.56 1571.65 1163.74 1585.87 1163.05 C 1609.18 1161.91 1633.94 1163.3 1657.26 1165 C 1667.96 1165.79 1678.5 1165.02 1689.37 1167.25 C 1707.56 1173.55 1739.81 1171.47 1759.94 1172.91 C 1773.54 1173.88 1791.51 1169.68 1805.74 1171.76 C 1820.62 1173 1835.69 1176.97 1850.62 1178.47 C 1859.24 1179.33 1868.55 1177.13 1877.24 1177.53 C 1905.85 1179.32 1938.86 1184.74 1967.03 1183.89 C 1967.23 1190.26 1967.49 1198.14 1967.08 1204.38 C 1965.84 1223.1 1960.03 1229.14 1974.67 1243.18 C 1973.76 1249.85 1970.96 1264.7 1971.31 1270.57 C 1972.34 1287.62 1974.25 1302.33 1971.39 1319.6 C 1969.68 1329.9 1974.12 1343.81 1964.99 1351.73 C 1956.51 1354.8 1924.56 1353.46 1915.13 1351.9 z" fill="rgb(24,31,254)" transform="translate(0,0)"></path>
<path d="M 1659.93 1206.36 C 1667.46 1205.63 1673.43 1207.93 1680.68 1208.32 C 1696.62 1209.19 1713.28 1207.49 1729.04 1209.17 C 1739.03 1210.24 1748.61 1213.97 1758.7 1214.96 C 1783.55 1217.4 1819.07 1211.64 1841.03 1225.99 C 1851.64 1232.91 1859.54 1244.05 1862 1256.52 C 1863.94 1266.35 1862.3 1277.43 1856.5 1285.71 C 1849.02 1296.37 1832.91 1302.37 1820.59 1304.37 C 1820.31 1304.43 1820.04 1304.49 1819.76 1304.55 C 1819.3 1304.64 1818.83 1304.72 1818.37 1304.82 C 1817.53 1305 1816.7 1305.23 1815.85 1305.4 C 1806 1307.27 1750.11 1303.23 1738.58 1301.73 C 1729.74 1300.58 1720.95 1297.96 1712.09 1297.19 C 1698.89 1296.04 1684.79 1297.83 1671.76 1295.55 C 1660.12 1293.51 1645.54 1290.49 1635.59 1283.83 C 1626.83 1277.96 1617.42 1268.78 1615.49 1258.03 C 1613.56 1247.28 1617.98 1233.72 1624.42 1225.03 C 1632.81 1213.72 1646.36 1208.15 1659.93 1206.36 z" fill="rgb(34,30,26)" transform="translate(0,0)"></path>
<path d="M 1659.5 1212.19 C 1667.25 1211.46 1673.31 1214.58 1680.79 1214.95 C 1696.27 1215.73 1711.93 1214.29 1727.39 1215.27 C 1737.58 1215.92 1747.56 1219.9 1757.75 1221.07 C 1782.61 1223.91 1811.88 1217.61 1834.7 1230.44 C 1844.46 1235.93 1852.62 1245.29 1855.24 1256.33 C 1857.13 1264.28 1856.29 1274.05 1851.79 1281.03 C 1845.89 1290.16 1831.96 1295.01 1821.86 1297.49 C 1801.89 1301.84 1761.05 1297.71 1740.52 1294.97 C 1731.84 1293.81 1723.23 1291.69 1714.51 1291 C 1701.67 1289.97 1683.11 1292.12 1671.42 1289.46 C 1667.74 1288.62 1643.74 1280.56 1640.6 1278.8 C 1632.69 1274.36 1624.32 1266.57 1622.17 1257.55 C 1620.08 1248.8 1623.93 1237.1 1628.62 1229.58 C 1635.7 1218.22 1647.35 1215.11 1659.5 1212.19 z" fill="rgb(244,237,222)" transform="translate(0,0)"></path>
<path d="M 1984.67 1090.28 C 1994.48 1089.4 2004.54 1090.71 2014.39 1090.9 C 2029.11 1091.19 2044.5 1090.08 2059.12 1091.4 C 2066.8 1092.1 2074.4 1093.94 2082.05 1094.92 C 2096.15 1096.74 2110.66 1098.19 2124.83 1099.55 C 2137.24 1100.75 2149.81 1098.92 2162.25 1099.61 C 2171.72 1100.13 2181.04 1103.53 2190.52 1103.55 C 2199.06 1103.56 2207.62 1101.79 2216.17 1102.33 C 2229.63 1103.18 2242.85 1107.62 2256.45 1108.51 C 2264.37 1109.03 2272.39 1106.81 2280.28 1106.31 C 2287.65 1105.84 2295.63 1107.75 2302.79 1109.37 C 2306.46 1110.21 2312.35 1111.09 2314.48 1114.46 C 2315.87 1127.47 2311.52 1143.46 2310.6 1156.75 C 2309.86 1167.5 2312.4 1178.1 2310.75 1188.85 C 2308.99 1200.32 2303.86 1211.19 2302.55 1222.74 C 2301.57 1231.38 2303.55 1240.22 2303.13 1248.92 C 2302.88 1254.22 2301.25 1259.78 2300.04 1264.94 C 2298.61 1266.45 2299.24 1265.87 2297.6 1267.25 C 2295.57 1268.96 2291.73 1269.1 2289.08 1269.54 C 2262.76 1273.97 2237.09 1266.04 2210.8 1264.22 C 2200.22 1263.49 2189.3 1265.56 2178.87 1263.82 C 2164.66 1261.44 2151.92 1254.33 2137.24 1253.15 C 2127.12 1252.33 2116.83 1253.87 2106.74 1252.83 C 2093.88 1251.51 2081.18 1247.71 2068.25 1247.07 C 2047.64 1246.06 2027.23 1246.98 2006.56 1245.12 C 1996.55 1244.23 1981.21 1241.85 1974.63 1233.5 C 1972.92 1231.33 1971.92 1228.98 1971.67 1226.22 C 1971.33 1222.44 1973.29 1190.83 1973.83 1186.88 C 1974.99 1178.46 1977.74 1170 1978.27 1161.54 C 1978.73 1154.18 1977.5 1146.53 1977.41 1139.15 C 1977.26 1127.61 1978.32 1115.19 1979.53 1103.71 C 1980 1099.24 1981.02 1093.23 1984.67 1090.28 z" fill="rgb(244,237,222)" transform="translate(0,0)"></path>
<path d="M 2197.13 1140.55 C 2199.17 1140.07 2200.88 1139.89 2202.97 1140 C 2223.17 1141.08 2254.74 1142.66 2268.72 1158.86 C 2275.13 1166.29 2275.91 1174.89 2275.23 1184.27 C 2274.47 1194.85 2271.59 1203.82 2263.14 1210.88 C 2246.79 1224.54 2223.19 1221.37 2203.47 1219.96 C 2199.85 1220.67 2196.15 1221.3 2192.44 1221.06 C 2181.32 1220.36 2144.99 1214.18 2136.45 1208.11 C 2129.26 1203 2125.73 1195.52 2124.58 1186.94 C 2123.16 1176.28 2125.18 1165.26 2132.01 1156.73 C 2147.39 1137.54 2175.06 1143.1 2196.37 1140.64 C 2196.63 1140.61 2196.88 1140.58 2197.13 1140.55 z" fill="rgb(34,30,26)" transform="translate(0,0)"></path>
<path d="M 2171.23 1147.32 C 2190.44 1147.48 2235.34 1146.01 2250.9 1153.93 C 2257.24 1157.16 2262.71 1163.22 2267.87 1168.08 C 2269.15 1177.78 2267.79 1187.32 2266.82 1196.98 C 2262.15 1202.23 2258.12 1206.56 2251.95 1210.1 C 2245.09 1214.04 2236.95 1216.2 2229.18 1214.12 C 2216.25 1213.44 2203.18 1214.95 2190.24 1213.86 C 2176.94 1212.74 2151.22 1210.43 2140.36 1202.51 C 2137.44 1200.38 2134.99 1197.05 2132.69 1194.29 C 2131.76 1183.91 2128.93 1172.38 2134.61 1162.84 C 2141.88 1150.6 2158.8 1150.06 2171.23 1147.32 z" fill="rgb(244,237,222)" transform="translate(0,0)"></path>
<path d="M 2013.63 1124.18 C 2029.2 1126.65 2045.74 1128.57 2061.6 1130.18 C 2072.8 1131.32 2086.12 1131.42 2096.84 1134.81 C 2097.79 1137.39 2097.8 1139.56 2097.63 1142.3 C 2097.06 1151.4 2094.55 1160.55 2093.48 1169.63 C 2091.77 1184.23 2093.69 1201.7 2088.3 1215.51 C 2072.47 1211.74 2052.42 1210.94 2035.97 1211 C 2026.3 1211.03 2015.63 1212.85 2006.17 1210.44 C 2004.08 1209.91 2004.21 1209.82 2003.15 1207.96 C 2005.15 1201.35 2005.25 1193.89 2006.06 1187.03 C 2008.53 1166.24 2009.34 1144.62 2013.63 1124.18 z" fill="rgb(34,30,26)" transform="translate(0,0)"></path>
<path d="M 2018.54 1131.32 C 2023.39 1131.67 2028.43 1130.54 2033 1131.05 C 2036.5 1131.45 2039.96 1133.23 2043.5 1133.91 C 2051.04 1135.35 2058.02 1134.97 2065.57 1135.54 C 2074.53 1136.21 2083.28 1138.02 2092.35 1138.55 C 2092 1140.21 2091.64 1141.86 2091.35 1143.52 C 2090.12 1150.35 2089 1157.1 2088.25 1164 C 2087.26 1173.03 2087.88 1201.21 2082.62 1207.84 C 2073.9 1206.53 2066.12 1207.29 2057.49 1206.81 C 2049.95 1206.39 2042.63 1204.59 2034.99 1204.38 C 2026.7 1204.16 2018.29 1205.78 2010.02 1206.33 C 2010.7 1199.46 2010.74 1192.43 2011.51 1185.62 C 2012.52 1176.52 2014.61 1167.6 2015.63 1158.5 C 2016.68 1149.14 2016.33 1140.69 2018.54 1131.32 z" fill="rgb(24,31,254)" transform="translate(0,0)"></path>
<path d="M 382.548 676.286 C 391.133 675.586 398.274 676.451 406.649 678.433 C 410.471 682.013 415.078 686.349 416.573 691.504 C 418.178 697.038 417.135 703.716 417.922 709.495 C 419.096 718.11 422.245 726.425 423.407 735.07 C 424.675 744.501 423.074 754.255 423.46 763.749 C 424.186 781.614 431.943 801.791 422.127 818.549 C 418.336 825.021 405.012 831.492 397.635 832.699 C 386.644 834.497 375.835 828.408 364.716 828.969 C 355.036 829.458 345.547 832.893 335.858 833.338 C 325.637 833.807 315.285 832.362 305.033 832.576 C 294.492 832.795 284.071 835.048 273.5 834.982 C 260.953 834.904 248.249 833.498 235.714 834.136 C 227.411 834.558 219.339 837.405 211.032 837.821 C 190.339 838.855 179.58 835.974 158.333 842.236 C 157.469 842.454 156.602 842.663 155.734 842.863 C 148.692 844.476 137.396 847.204 131.105 842.629 C 117.757 832.92 124.715 801.655 123.857 789.17 C 123.145 778.825 120.05 768.546 119.012 758.183 C 117.842 746.504 118.664 735.024 116.487 723.36 C 113.928 709.648 116.775 704 124.422 692.812 C 148.947 687.235 155.422 692.985 176.626 691.583 C 188.525 690.797 199.42 683.833 210.967 683.278 C 228.333 682.442 246.044 682.993 263.439 683.023 C 272.615 683.039 281.833 682.256 290.99 682.46 C 300.364 682.669 309.757 684.106 319.135 683.865 C 329.785 683.591 340.349 681.133 350.895 679.771 C 361.471 678.405 371.991 678.078 382.548 676.286 z" fill="rgb(244,237,222)" transform="translate(0,0)"></path>
<path d="M 325.081 717.417 C 342.478 716.356 358.528 722.601 375.635 722.17 C 379.777 726.146 384.246 729.351 388.946 732.63 C 394.453 743.826 394.475 753.105 393.734 765.332 C 391.244 769.766 387.63 773.845 384.2 777.586 C 366.639 796.736 339.497 794.594 315.782 795.745 C 308.713 794.413 301.515 795.612 294.331 795.206 C 285.646 794.716 277.393 792.989 268.641 792.914 C 263.905 789.165 259.297 786.119 253.963 783.282 C 250.06 775.732 246.116 769.647 245.24 760.897 C 244.392 752.434 246.543 743.723 252.159 737.211 C 268.372 718.415 302.391 718.836 325.081 717.417 z" fill="rgb(34,30,26)" transform="translate(0,0)"></path>
<path d="M 324.301 724.389 C 340.938 723.827 356.511 727.904 372.9 729.871 C 376.485 732.788 380.284 735.476 383.989 738.239 C 386.959 747.343 386.925 754.928 386.577 764.428 C 383.379 769.086 379.23 774.507 374.759 777.964 C 361.073 788.547 328.005 791.562 311.225 789.052 C 306.886 788.611 302.835 789.564 298.514 789.627 C 289.28 789.76 277.392 788.775 268.679 785.491 C 261.464 782.771 255.121 777.736 252.246 770.41 C 248.332 760.438 250.978 750.838 254.985 741.466 C 256.406 740.468 257.859 739.502 259.258 738.473 C 279.471 723.615 300.219 727.851 323.122 724.567 L 324.301 724.389 z" fill="rgb(244,237,222)" transform="translate(0,0)"></path>
<path d="M 139.198 722.459 C 151.779 719.672 162.597 720.205 175.17 718.462 C 190.555 716.329 209.823 713.699 225.325 714.379 C 230.067 719.397 226.878 725.899 227.895 732.921 C 228.528 743.765 227.874 755.079 227.953 765.99 C 228.028 776.198 232.701 797.337 226.204 805.716 C 219.308 807.535 209.968 803.249 204.382 803.981 C 194.795 805.239 161.828 806.723 153.09 804.296 L 150.509 803.76 C 147.693 801.836 146.877 798.897 146.351 795.549 C 143.217 775.583 144.834 740.839 139.198 722.459 z" fill="rgb(34,30,26)" transform="translate(0,0)"></path>
<path d="M 222.803 718.995 C 221.147 727.352 219.986 727.315 222.121 736.426 C 222.178 747.15 220.9 758.315 221.253 768.56 C 221.734 782.507 224.841 784.453 223.198 799.18 L 223.028 800.817 C 220.964 800.294 213.476 798.116 211.996 798.06 C 200.144 797.614 189.573 801.034 177.5 798.915 C 173.862 798.276 158.846 799.373 154.327 799.808 C 151.422 795.217 147.513 735.285 146.979 725.963 C 157.212 725.127 164.168 726.234 173.997 725.652 C 177.673 725.884 189.83 720.925 192.495 721.335 C 204.838 723.231 210.804 721.365 222.803 718.995 z" fill="rgb(24,31,254)" transform="translate(0,0)"></path>
<path d="M 1955.17 750.11 C 1965.25 736.719 1974.6 741.525 1988.23 746.37 C 2029.39 737.295 2089.89 752.758 2131.86 758.653 C 2163.49 763.097 2192.69 758.698 2223.17 768.323 C 2229.96 770.499 2241.88 770.207 2250.86 772.708 L 2257.4 780.84 C 2257.21 786.304 2256.88 792.038 2256.95 797.487 C 2257.3 822.855 2252.14 849.426 2246.99 874.297 C 2244.47 886.473 2245.85 903.196 2236.56 912.244 C 2225.86 917.501 2176.61 909.15 2163.47 907.187 C 2157.31 906.267 2136.05 906.109 2131.81 904.63 C 2104.5 895.109 2083.24 892.543 2054.41 894.552 C 2046.71 895.089 2031.37 888.98 2023.03 887.976 C 2005.17 885.448 1987.13 886.974 1969.84 880.429 C 1952.45 873.844 1938.24 870.505 1941.89 848.504 C 1944.42 836.706 1942.84 823.079 1943.5 811.7 C 1944.43 795.482 1948.51 764.195 1955.17 750.11 z" fill="rgb(244,237,222)" transform="translate(0,0)"></path>
<path d="M 2151.42 788.352 C 2153.82 788.571 2156.58 790.092 2159.04 790.606 C 2163.48 791.533 2168.29 791.576 2172.8 792.151 C 2188.48 794.148 2211.05 802.263 2220.67 815.42 C 2226.26 823.217 2228.47 832.936 2226.82 842.386 C 2225.29 851.273 2220.62 858.197 2213.29 863.345 C 2196.51 875.134 2181.55 875.504 2162.2 871.709 C 2143.04 866.933 2115.83 871.062 2098.61 860.393 C 2091.5 855.984 2086.22 845.991 2084.3 838.027 C 2081.88 827.972 2081.71 813.123 2087.71 804.393 C 2101.26 784.667 2130.29 792.959 2150.25 788.618 L 2151.42 788.352 z" fill="rgb(34,30,26)" transform="translate(0,0)"></path>
<path d="M 2132.19 796.365 C 2163.65 794.707 2189.32 799.537 2215.34 817.671 C 2220.64 831.752 2220.82 838.751 2216.08 853.003 C 2206.28 862.164 2191.87 868.318 2178.52 867.965 C 2159.03 864.398 2147.48 861.92 2127.31 863.233 C 2119.03 857.455 2108.99 857.53 2099.92 853.438 C 2093.1 842.712 2088.31 830.809 2090.65 817.873 C 2092.55 807.38 2098.99 802.767 2107.12 797.037 C 2115.81 797.547 2123.55 797.926 2132.19 796.365 z" fill="rgb(244,237,222)" transform="translate(0,0)"></path>
<path d="M 2007.69 767.006 C 2020.57 765.772 2036.35 767.322 2046.75 775.415 C 2056.55 783.042 2063.62 794.02 2065.11 806.451 C 2066.79 820.518 2062.89 836.983 2053.68 847.975 C 2045.67 857.536 2035.14 860.555 2023.25 861.813 C 2015.16 861.844 2006.32 865.233 1998.69 861.42 C 1985.38 854.774 1973.54 843.303 1968.7 829.098 C 1964.79 817.619 1966.52 807.01 1971.82 796.417 C 1979.48 781.082 1991.63 772.44 2007.69 767.006 z" fill="rgb(34,30,26)" transform="translate(0,0)"></path>
<path d="M 2007.55 773.931 C 2022.67 770.501 2038.45 775.517 2048.81 787.04 C 2059.17 798.563 2062.49 814.79 2057.48 829.454 C 2052.47 844.117 2039.91 854.922 2024.67 857.695 C 2001.79 861.856 1979.78 846.97 1975.12 824.186 C 1970.47 801.403 1984.88 779.076 2007.55 773.931 z" fill="rgb(24,31,254)" transform="translate(0,0)"></path>
<path d="M 1083.32 1312.45 C 1095.39 1311.93 1107.7 1312.68 1119.79 1312.97 C 1104.76 1326.34 1088.43 1337.56 1074.2 1351.93 C 1057.51 1351.57 1041.04 1354.5 1024.39 1354.27 C 1002.29 1353.96 980.507 1349.04 958.369 1348.25 C 947.415 1347.86 936.598 1351.5 925.662 1351.85 C 913.625 1352.24 901.509 1350.59 889.487 1350.13 C 877.741 1349.68 865.864 1350.06 854.106 1350.12 C 841.434 1337.64 828.432 1325.56 815.718 1313.12 C 843.819 1317.35 870.889 1313.75 898.995 1313.87 C 921.292 1313.95 943.48 1315.79 965.722 1316.08 C 977.32 1316.24 988.875 1314.72 1000.46 1314.48 C 1014.93 1314.18 1029.41 1315.29 1043.88 1315 C 1057 1314.74 1070.21 1313.24 1083.32 1312.45 z" fill="rgb(244,237,222)" transform="translate(0,0)"></path>
<path d="M 1748.44 371.235 C 1754.23 370.596 1851.46 373.596 1851.67 373.691 C 1852.88 374.233 1853.3 377.413 1853.67 378.7 C 1824.14 379.169 1793.03 377.555 1763.48 376.348 C 1756.98 376.082 1752.26 376.655 1748.44 371.235 z" fill="rgb(244,237,222)" transform="translate(0,0)"></path>
<path d="M 1292.3 218.564 C 1302.86 217.315 1307.74 219.791 1317.36 223.996 C 1327.1 240.197 1323.68 246.736 1327.02 262.992 C 1331.73 285.879 1331.97 300.501 1330.47 323.518 C 1330.03 330.197 1334.97 346.906 1335.09 355.517 C 1335.39 376.547 1331.91 384.868 1310.37 389.046 C 1290.96 392.497 1271.96 393.438 1252.53 395.332 L 1150.65 404.916 C 1143.96 405.557 1133.26 409.77 1127.47 409.652 C 1111.56 409.327 1096.36 410.257 1080.51 411.198 C 1072.24 411.688 1062.07 409.485 1053.64 410.481 C 1043.79 411.646 1036.53 414.924 1026.35 415.447 C 1014.89 415.375 1008.22 412.685 998.707 406.384 C 996.142 401.471 995.036 396.116 993.662 390.785 C 988.481 370.682 990.119 366.492 989.224 346.884 C 988.828 338.2 987.675 329.506 987.952 320.804 C 988.275 310.678 989.673 300.276 989.174 290.168 C 988.743 281.447 985.167 273.072 985.027 264.265 C 984.951 259.504 985.734 254.599 989.238 251.107 C 1000.58 239.8 1083.47 234.993 1102.94 234.32 C 1112.79 233.98 1122.88 234.957 1132.7 234.097 C 1145.47 232.979 1157.84 227.998 1170.59 226.602 C 1177.7 225.825 1184.92 227.847 1192.01 227.152 C 1203.13 226.062 1214.06 222.711 1225.22 221.596 C 1235.72 220.547 1246.4 221.298 1256.94 220.827 C 1268.75 220.298 1280.45 218.898 1292.3 218.564 z" fill="rgb(34,30,26)" transform="translate(0,0)"></path>
<path d="M 1297.38 224.51 C 1296.09 224.723 1311.16 228.252 1312.12 228.434 C 1314.1 231.613 1317.86 237.946 1318.25 241.603 C 1320.15 259.38 1323.75 278.279 1325.15 295.934 C 1325.83 304.61 1322.63 313.843 1323.62 322.915 C 1324.33 333.876 1327.44 344.344 1328.79 355.261 C 1330.83 371.589 1324.74 380.322 1308.46 382.91 C 1279.37 387.535 1249.95 387.984 1220.81 392.418 C 1211.48 393.838 1200.64 393.034 1191.16 394.277 C 1177.12 396.119 1163.17 397.603 1149.07 398.738 C 1141.47 399.297 1131.91 402.687 1124.48 402.623 C 1109.63 402.496 1095.3 403.546 1080.5 404.463 C 1072.63 404.95 1062.45 402.702 1054.55 403.687 C 1044.32 404.963 1036.69 407.969 1026.04 408.468 C 1003.01 409.027 1001.94 400.11 997.469 380.704 C 994.021 369.528 996.662 357.341 995.408 346.254 C 993.398 328.487 994.728 313.005 995.833 295.383 C 996.507 284.635 989.012 267.31 993.131 256.563 C 1000.25 249.396 1015.15 249.443 1024.92 248.321 C 1031.48 247.568 1040.37 244.987 1046.51 244.75 C 1065.17 244.029 1083.45 242.518 1102.02 240.713 C 1109.55 239.282 1125.7 242.226 1132.7 240.606 C 1154.26 235.612 1170.11 232.61 1192.25 233.896 C 1199.21 234.3 1215.38 228.566 1223.9 228.276 C 1242.54 227.642 1260.92 227.668 1279.47 225.855 C 1285.44 225.216 1291.23 225.275 1297.38 224.51 z" fill="rgb(244,237,222)" transform="translate(0,0)"></path>
<path d="M 1232.63 265.377 C 1250.98 264.476 1281.56 274.197 1291.76 290.554 C 1303.39 309.199 1289.47 332.215 1272.14 341.535 C 1256.78 349.801 1238.51 349.391 1221.55 349.791 C 1213.51 350.004 1206.1 353.61 1197.77 351.221 C 1181.18 346.222 1162.32 354.886 1145.86 346.163 C 1140.2 342.077 1133.36 332.705 1132.34 326.165 C 1124 272.705 1166.4 272.88 1205.96 271.608 C 1209.43 271.497 1226.22 266.248 1232.63 265.377 z" fill="rgb(34,30,26)" transform="translate(0,0)"></path>
<path d="M 1229.31 272.178 C 1260.69 269.794 1314.88 294.371 1275.98 330.876 C 1262.28 343.736 1238.3 342.895 1220.98 343.352 C 1213.5 343.55 1206.74 345.33 1198.72 344.636 C 1187.91 341.952 1179.54 343.562 1168.58 343.594 C 1163 343.61 1156.7 342.422 1151.16 341.522 C 1147.76 338.44 1141.42 332.809 1140.3 328.366 C 1123.67 262.558 1197.23 287.648 1229.31 272.178 z" fill="rgb(244,237,222)" transform="translate(0,0)"></path>
<path d="M 1085.33 274.51 C 1093.5 274.124 1104.28 272.554 1111.13 276.586 C 1116.55 284.105 1113.38 349.471 1116.39 363.742 C 1112.73 369.321 1091.34 363.854 1083.56 365.118 C 1072.15 366.97 1061.68 368.862 1050.45 371.64 C 1043.47 372.116 1024.49 380.372 1023.13 369.088 C 1018.27 328.564 1027.72 296.52 1068.97 281.602 C 1074.69 279.533 1078.47 276.468 1085.33 274.51 z" fill="rgb(34,30,26)" transform="translate(0,0)"></path>
<path d="M 1083.85 281.325 C 1088.29 281.178 1107.39 278.718 1107.62 284.522 C 1108.86 306.544 1108.99 329.017 1110.39 351 C 1111.47 368.119 1094.12 356.202 1084.03 358.987 C 1073.33 361.944 1063.16 362.81 1052.11 364.758 C 1048.08 365.249 1030.45 368.842 1030.58 368.933 C 1026.56 366.137 1029.3 319.954 1036.2 314.596 C 1040.93 310.921 1052.75 295.647 1055.32 294.587 C 1066.38 290.027 1074.02 286.523 1083.85 281.325 z" fill="rgb(24,31,254)" transform="translate(0,0)"></path>
<metadata><recraft-signature>{"signed_by": "recraft", "signature_b64": "5re84TJ7IDkuEGYUOPtJK5Q18qJ+aTUSQNgRWHX5aePQlCKQnXtLq8+Z7q+Y9AfVOVnEWsnf7xiu2zsKCFs2AA==", "signing_algo": "Ed25519", "generation_timestamp": 1782911634, "identifier": "e7b0a476-cdcb-4885-81b8-65f14846f398"}</recraft-signature></metadata></svg>