<svg xmlns="http://www.w3.org/2000/svg" height="1792" preserveAspectRatio="none" style="display: block;" version="1.1" viewBox="0 0 2432 1792" width="2432">
<path d="M 0 0 L 1992.67 0 L 2005.6 0 L 2052.18 0 L 2065.65 0 L 2206.02 0 L 2218.37 0 L 2262.57 0 L 2276.73 0 L 2432 0 L 2432 1792 L 0 1792 L 0 0 z" fill="rgb(244,237,222)" transform="translate(0,0)"></path>
<path d="M 1992.67 0 L 2005.6 0 L 2052.18 0 L 2065.65 0 L 2206.02 0 L 2218.37 0 L 2262.57 0 L 2276.73 0 C 2268.27 6.23886 2260.34 13.1707 2253.03 20.7239 C 2174.87 102.431 2172.93 225.84 2170.84 331.693 C 2171.19 349.432 2164.95 369.936 2165.42 387.371 C 2166.59 430.789 2170.62 473.929 2167.75 517.491 C 2167.42 528.264 2164.64 540.718 2164.76 551.367 C 2165.21 592.238 2163.35 631.881 2164.16 672.83 C 2170.97 672.652 2185.43 671.567 2186.57 680.225 C 2187.89 690.292 2190.85 731.565 2186.58 738.675 C 2179.47 742.855 2169.8 741.837 2161.36 741.808 C 2161.1 749.233 2161.26 756.792 2161.33 764.232 C 2191.32 764.075 2215.89 765.417 2245.41 761.447 C 2265.33 758.768 2302.38 771.815 2317.07 786.071 C 2331.29 799.872 2341.13 817.34 2342.68 837.927 C 2344.78 868.644 2341.39 903.882 2340.5 935.084 C 2340.26 943.634 2341.89 956.612 2340.81 964 C 2336.84 991.054 2341.39 1016.26 2341.84 1042.41 L 2344.5 1199.97 C 2345.07 1224.03 2341.44 1249.88 2340.87 1273.91 C 2341.24 1295.81 2345.28 1314.38 2343.06 1336.51 C 2337.33 1393.78 2297.93 1408.19 2245.59 1404.09 C 2239.8 1403.64 2231.68 1402.65 2225.96 1402.78 L 1997.38 1407.1 C 1989.51 1407.32 1982.62 1406.44 1974.94 1404.15 C 1926.63 1389.74 1923.57 1333.47 1927.78 1291.51 C 1929.06 1278.65 1932.23 1266.8 1931.64 1253.78 C 1930.86 1236.75 1928.44 1220.12 1927.86 1203.12 C 1927.32 1188.46 1930.69 1168.48 1929.77 1154.42 C 1927.69 1123.49 1925.03 1091.99 1924.87 1061 C 1924.89 1041.02 1930.9 1018.86 1930.84 999.093 C 1930.73 963.881 1928.38 931.495 1933.54 896.362 C 1935.15 885.463 1930.31 863.601 1931.55 851.228 C 1932.56 841.042 1932.4 830.532 1935.01 820.222 C 1937.26 806.287 1941.22 797.21 1950.98 787.029 C 1978.9 757.919 2020.35 763.768 2056.84 762.85 C 2072.34 762.461 2088.36 762.155 2104.11 762.05 C 2104 753.93 2103.67 748.012 2102.86 739.931 C 2094.5 740.067 2089.75 741.317 2083.44 736.339 C 2080.42 730.404 2080.66 681.944 2082.03 676.459 C 2085.87 672.544 2098.92 673.223 2105 673.041 C 2106.19 647.365 2102.69 622.628 2103.37 596.062 C 2104.47 552.95 2106.13 510.222 2108.04 467.136 C 2108.97 446.288 2106.42 420.456 2106.31 398.642 C 2106.03 343.439 2120.5 286.559 2109.66 232.482 C 2103.14 201.877 2088.27 166.759 2077.53 136.824 C 2067.74 109.553 2047.13 78.7901 2033.81 52.4327 C 2028.34 41.5987 2001.19 7.82724 1992.67 0 z" fill="rgb(34,30,26)" transform="translate(0,0)"></path>
<path d="M 2065.65 0 L 2206.02 0 C 2181.34 30.9238 2161.39 49.6733 2151.72 89.1673 C 2150.03 96.0867 2140.84 113.435 2137.64 122.082 C 2117.22 74.5329 2102.9 37.8294 2065.65 0 z" fill="rgb(244,237,222)" transform="translate(0,0)"></path>
<path d="M 2242.61 768.357 C 2258.24 766.954 2274.16 771.875 2288.87 776.876 C 2304.36 782.144 2318.63 795.402 2325.68 810.078 C 2331.19 821.56 2334.26 836.135 2334.76 848.814 C 2335.08 857.126 2333.03 865.252 2332.96 873.552 C 2332.72 902.81 2332.37 932.002 2331.56 961.245 C 2331.23 973.53 2330.02 985.758 2329.97 998.064 C 2329.91 1012.2 2331.76 1025.97 2332.63 1040.03 C 2333.52 1054.23 2333.37 1068.77 2333.62 1083.01 C 2333.85 1096.27 2331.95 1109.2 2331.55 1122.4 C 2331.12 1136.8 2332.09 1155.77 2332.46 1170.71 C 2332.72 1181.01 2335.95 1191.24 2335.88 1201.53 C 2335.73 1225.71 2332.02 1250.06 2331.74 1274.18 C 2331.43 1301.07 2339.85 1326.95 2330.2 1353.47 C 2325.6 1366.12 2319.42 1381.01 2306.49 1386.92 C 2295.46 1391.96 2282.33 1394.92 2270.26 1395.9 C 2255.68 1397.07 2241.56 1394.98 2227.04 1395.07 L 2102.12 1395.15 C 2089.86 1395.18 2077.7 1397.27 2065.47 1397.58 C 2052.34 1397.91 2039.17 1396.47 2026.03 1396.91 C 2015.04 1397.27 2004 1399.08 1993 1398.77 C 1986.03 1398.58 1979.18 1397.39 1972.67 1394.87 C 1957.78 1389.09 1949.19 1378.48 1942.91 1364.17 C 1939.46 1353.73 1937.04 1342.98 1935.7 1332.07 C 1932.67 1306.09 1940 1281.62 1939.79 1255.99 C 1939.65 1239.96 1937.56 1224.01 1937.03 1207.99 C 1936.48 1191.1 1938.44 1174.27 1938.07 1157.43 C 1937.37 1125.73 1933.95 1094.05 1933.97 1062.28 C 1933.99 1042.75 1938.21 1023.51 1939.17 1004.06 C 1940.32 980.84 1938.06 957.667 1938.58 934.49 C 1938.85 922.612 1941.51 910.813 1942.03 898.948 C 1943.06 875.906 1938.3 855.457 1941.56 831.267 C 1943.37 817.776 1945.67 805.74 1954.44 794.946 C 1963.06 784.334 1974.61 777.515 1987.75 773.955 C 2015.44 766.454 2071.61 772.459 2104.29 769.058 C 2104.65 778.293 2104.92 787.533 2105.09 796.774 C 2099.24 796.856 2093.16 796.912 2088.28 800.615 C 2085.03 803.074 2082.43 806.881 2082.02 810.989 C 2081.51 816.011 2083.44 821.323 2086.8 825.047 C 2097.48 836.873 2116.76 828.03 2129.99 828.284 C 2139.06 828.458 2148.09 830.171 2157.24 830.312 C 2167.98 830.477 2185.73 832.186 2193.78 823.761 C 2197.44 819.928 2198.16 814.353 2197.93 809.251 C 2197.75 805.395 2196.57 801.666 2193.59 799.055 C 2185.85 792.254 2170.79 795.592 2161.28 796.036 L 2160.85 770.732 C 2189.84 771.492 2213.59 772.915 2242.61 768.357 z" fill="rgb(244,237,222)" transform="translate(0,0)"></path>
<path d="M 2080.66 861.409 C 2081.01 861.365 2081.37 861.31 2081.72 861.277 C 2097.66 859.784 2113.9 863.339 2129.87 863.456 C 2142.01 863.544 2154.04 862.473 2166.15 862.264 C 2181.47 861.999 2196.85 862.681 2212.18 862.613 C 2224.05 862.56 2236.05 860.885 2247.78 863.235 C 2262.49 866.184 2275.9 873.182 2287.2 882.992 C 2297.08 891.58 2302.19 901.428 2306.24 913.73 C 2318.87 952.12 2307.62 974.83 2305.38 1011.77 C 2304.2 1031.21 2306.53 1048.61 2307.66 1067.84 C 2309.22 1094.58 2305.07 1125.73 2286.64 1146.29 C 2271.4 1163.31 2248.27 1171.81 2225.73 1173 C 2214.45 1173.59 2203.09 1172.78 2191.75 1173.33 C 2166.9 1175.2 2141.77 1170.04 2116.9 1171.07 C 2106.19 1171.51 2095.54 1175.15 2084.89 1176.45 C 2070.08 1178.25 2020.01 1168.91 2006.17 1163.07 C 1999.52 1160.26 1993.25 1155.39 1987.63 1150.92 C 1972.56 1138.96 1964.14 1122.88 1962.1 1103.72 C 1960.37 1087.5 1965 1071.7 1965.18 1055.55 C 1965.3 1045.06 1963.28 1034.59 1962.96 1024.11 C 1962.66 1014.02 1963.96 1003.8 1964.1 993.678 C 1964.56 961.837 1960.78 916.694 1982.43 890.626 C 2004.19 864.434 2020.18 867.843 2050.09 865.359 C 2060.27 864.514 2070.46 862.466 2080.66 861.409 z" fill="rgb(34,30,26)" transform="translate(0,0)"></path>
<path d="M 2077.29 869.367 C 2094.37 867.55 2110.81 871.348 2127.8 871.456 C 2140.72 871.537 2153.61 870.35 2166.52 870.073 C 2188.77 869.594 2211.15 869.798 2233.43 869.46 C 2251.99 869.179 2270.63 877.451 2283.81 890.398 C 2291.22 897.665 2295.25 906.343 2298.61 916.04 C 2311.83 954.247 2298.57 975.492 2296.97 1011.84 C 2296.56 1021.3 2295.97 1031.04 2296.59 1040.49 C 2297.29 1051.19 2299.29 1061.81 2299.4 1072.54 C 2299.68 1097.59 2297.33 1125.73 2278.73 1144.44 C 2256.67 1166.65 2224.32 1165.14 2195.4 1165.2 C 2169.46 1167.21 2143.47 1162.29 2117.62 1163.6 C 2109.14 1164.03 2100.64 1166 2092.27 1167.41 C 2086.44 1168.39 2080.65 1169.33 2074.73 1169.15 C 2060.94 1168.75 2024.38 1162.31 2012.14 1157.5 C 2006.83 1155.42 2002.05 1152.24 1997.44 1148.92 C 1982.62 1138.24 1973.69 1125.74 1970.86 1107.42 C 1968.29 1090.74 1973.23 1073.98 1973.47 1057.27 C 1973.62 1046.51 1971.98 1035.72 1971.55 1024.96 C 1971.2 1016.01 1972.03 1007.03 1972.1 998.079 C 1972.31 974.048 1970.77 946.868 1975.86 923.317 C 1977.89 913.921 1981.48 904.789 1987.25 897.042 C 2004.97 873.238 2023.7 874.861 2050.06 873.019 C 2059.1 872.387 2068.29 870.639 2077.29 869.367 z" fill="rgb(67,82,254)" transform="translate(0,0)"></path>
<path d="M 2058.71 902.374 C 2072.63 900.224 2085.49 907.941 2096.88 915.194 C 2109.49 923.226 2117.88 935.015 2121.09 949.629 C 2124.06 963.144 2128.9 1003.02 2128.13 1016.41 C 2127.44 1028.35 2124.43 1040.13 2123.43 1052.06 C 2121.83 1071.09 2123.92 1090.3 2112.72 1107.09 C 2105.48 1117.96 2083.66 1127.57 2071.03 1129.86 C 2053.74 1130.06 2035.8 1125.27 2021.79 1114.84 C 1995.38 1095.2 2005.41 1072.4 2005.29 1046.02 C 2005.26 1037.74 2002.77 1028.95 2001.63 1020.72 C 2000.24 1010.73 2001.73 1000.19 2001.68 990.113 C 2001.58 967.204 1997.86 943.376 2013.38 923.864 C 2021.27 913.936 2037.37 904.761 2049.96 903.352 L 2058.71 902.374 z" fill="rgb(34,30,26)" transform="translate(0,0)"></path>
<path d="M 2207.3 905.518 C 2218.83 904.968 2235.96 904.316 2246.48 909.41 C 2253.39 912.755 2257.31 921.826 2259.69 928.773 C 2266.25 947.896 2261.44 968.864 2261.86 988.655 C 2262.08 999.218 2263.79 1009.73 2264.27 1020.28 C 2264.75 1031.01 2263.32 1041.89 2263.11 1052.63 C 2262.89 1063.75 2264.01 1075.38 2262.89 1086.43 C 2262.3 1092.29 2260.05 1097.87 2257.39 1103.09 C 2250.66 1116.29 2236.91 1121.27 2223.75 1125.58 C 2221.61 1126 2219.48 1126.33 2217.3 1126.46 C 2206.68 1127.05 2192.53 1123.6 2184.67 1116.25 C 2170.12 1102.63 2171.79 1065.98 2171.1 1047.51 C 2170.74 1038.09 2169.31 1028.58 2169.55 1019.15 C 2169.85 1007.35 2171.69 995.592 2172.02 983.784 C 2172.29 974.271 2171.35 964.754 2170.93 955.257 C 2170.3 940.847 2172.35 924.044 2182.85 913.251 C 2189.84 906.062 2197.94 905.575 2207.3 905.518 z" fill="rgb(34,30,26)" transform="translate(0,0)"></path>
<path d="M 2140.64 1197.45 C 2151.93 1197.01 2162.71 1199.86 2173.72 1201.91 C 2207.16 1208.14 2211.81 1206.19 2238.19 1229.97 C 2268.43 1257.24 2296.26 1300.6 2298.17 1342.44 C 2298.48 1349.21 2298.99 1358.91 2294.23 1364.18 C 2281.02 1369.88 2247.03 1363.52 2231.49 1363.74 C 2211.43 1364.02 2191.71 1367.92 2171.46 1367.5 C 2159.53 1367.26 2147.39 1365.18 2135.46 1364.21 C 2126.33 1363.86 2117.15 1363.43 2108.04 1364.14 C 2097.06 1364.99 2086.14 1367.2 2075.11 1367.45 C 2058.51 1367.84 2041.89 1365.55 2025.27 1366 C 2011.84 1366.35 1994.34 1370.2 1981.49 1366.43 C 1977.82 1363.01 1977.36 1358.38 1977.16 1353.57 C 1975.39 1309.81 1995.25 1277.48 2023.93 1246.82 C 2030.65 1239.63 2037.76 1233.13 2046.11 1227.88 C 2069.12 1213.39 2113.79 1198.4 2140.64 1197.45 z" fill="rgb(34,30,26)" transform="translate(0,0)"></path>
<path d="M 2172.45 802.614 C 2176.83 802.033 2181.9 800.685 2185.9 803.083 C 2188.53 804.663 2190.85 807.231 2191.31 810.377 C 2191.71 813.168 2190.43 816.103 2188.5 818.069 C 2188.26 818.316 2188 818.546 2187.75 818.788 C 2187.1 819.428 2186.83 819.762 2186.06 820.293 C 2177.78 826.01 2137.02 821.144 2125.03 821.487 C 2116.05 821.744 2106.95 824.672 2098.01 823.441 C 2096.83 822.807 2095.67 822.185 2094.55 821.458 C 2092.02 819.818 2090.35 817.987 2089.9 814.909 C 2089.57 812.62 2090.17 810.446 2091.65 808.664 C 2094.65 805.048 2099.07 804.238 2103.51 804.023 C 2106.26 805.199 2105.83 808.845 2106.99 811.682 C 2112.58 815.948 2150.69 813.643 2159.02 812.47 C 2164.29 811.728 2160.54 806.297 2162.99 803.018 C 2165.93 803.107 2168.72 803.075 2171.65 802.717 L 2172.45 802.614 z" fill="rgb(244,237,222)" transform="translate(0,0)"></path>
<path d="M 1577.95 376.456 C 1591.37 376.093 1603.91 376.035 1617.31 376.793 C 1627.26 377.356 1643.91 380.708 1653.22 380.312 C 1676.48 379.324 1699.57 380.118 1722.71 379.49 C 1750.44 378.738 1778.22 375.492 1805.9 379.204 C 1807.42 410.775 1797.9 444.522 1800 476.726 C 1801.18 494.821 1796.68 514.839 1796.43 532.98 C 1796.17 551.643 1795.41 570.089 1794.38 588.711 C 1794.2 610.887 1795.89 633.177 1794.24 655.5 C 1793.6 670.23 1796.01 686.187 1795.47 701.201 C 1796.16 723.167 1791.54 748.335 1792.87 770.072 C 1794.75 800.884 1791.97 828.992 1791.01 859.602 C 1790.26 883.859 1787.45 908.009 1786.63 932.141 C 1786.11 947.156 1787.67 963.457 1787.53 978.865 L 1786.33 1205.93 C 1786.22 1224.63 1782.29 1246.22 1782.51 1265.06 C 1782.67 1278.71 1783.79 1293.27 1784.17 1307.07 C 1784.47 1317.61 1782.32 1337.23 1782.97 1346.38 C 1784.9 1373.68 1789.94 1377.15 1783.82 1405.12 C 1769.98 1405.76 1758.64 1403.3 1745.73 1403.35 C 1731.01 1403.55 1715.26 1406.46 1700.62 1406.34 C 1653.69 1405.99 1607.45 1408.14 1560.72 1403 C 1550.32 1401.78 1532.51 1406.81 1522.71 1405.78 C 1481.48 1401.45 1441.88 1405.67 1400.72 1406.73 C 1388.97 1407.03 1372.82 1403.74 1360.27 1402.96 C 1353.95 1402.87 1347.77 1402.96 1341.45 1403.03 C 1330.32 1402.84 1317.5 1405.06 1306.5 1404.52 C 1271.31 1402.77 1238.42 1403.63 1203.31 1405.84 C 1178.46 1405.13 1151.77 1405.51 1127.42 1400.89 C 1119.21 1399.33 1127.34 1350.7 1127.21 1343.01 C 1126.78 1317.41 1125.76 1292.7 1124.13 1267.22 C 1123.46 1256.72 1127 1243.35 1126.93 1232.69 C 1127.57 1220.99 1126.44 1208.7 1127.2 1197.06 C 1129.06 1168.65 1130.38 1140.46 1131.17 1112 C 1131.89 1086.56 1134.86 1060.93 1134.4 1035.41 C 1134.07 1016.7 1131.93 998.477 1132.18 979.713 L 1133.94 813.852 C 1134.13 801.572 1137.33 788.828 1136.92 776.702 C 1135.27 728.396 1132.55 682.182 1139.11 634.019 C 1140.29 625.405 1140.06 611.269 1139.95 601.975 C 1139.62 573.248 1146.12 545.289 1144.45 516.577 C 1141.62 484.819 1142.35 453.067 1140.54 421.247 C 1140.3 417.11 1143.08 382.481 1144.23 379.925 C 1146.16 378.684 1147.87 378.027 1150.24 378.348 C 1183.16 383.56 1217.64 378.187 1250.51 379.315 C 1280.49 380.343 1307.31 378.717 1337.09 377.093 C 1352.5 376.646 1372.13 382.291 1387.11 381.202 C 1450.53 376.593 1514.76 379.666 1577.95 376.456 z" fill="rgb(34,30,26)" transform="translate(0,0)"></path>
<path d="M 1564.32 385.559 C 1580.88 384.713 1597.7 384.222 1614.29 385.155 C 1626.09 385.817 1640.14 388.845 1651.77 388.916 C 1699.58 389.208 1749.8 385.281 1797.2 386.188 C 1796.84 406.485 1793.22 427.782 1791.77 448.156 C 1790.77 462.175 1792.29 479.743 1790.92 493.276 C 1787.78 524.468 1787.43 554.683 1785.42 585.907 C 1784.87 594.425 1786.06 607.785 1786.16 616.981 L 1786.82 698.243 C 1787.03 718.869 1784.15 741.057 1784.09 762.365 C 1784.05 777.911 1784.78 791.454 1785.14 806.812 C 1785.36 815.928 1783.18 830.021 1782.98 839.997 C 1782.63 857.113 1782.06 874.271 1781.26 891.371 C 1781.3 903.035 1777.79 917.857 1778.24 929.16 C 1779.91 971.339 1778.1 1012.4 1775.73 1054.45 C 1774.75 1071.67 1778.28 1091.46 1778.14 1108.92 C 1778.02 1124.08 1777.25 1139.18 1777.19 1154.34 C 1777.33 1178.15 1779.62 1200.61 1776.96 1224.43 C 1775.32 1239.13 1774.36 1255.15 1773.89 1269.91 C 1773.52 1281.86 1776.22 1295.24 1775.73 1307.37 C 1775.49 1320.96 1774.08 1334.58 1774.3 1348.18 C 1775.71 1371.04 1779.91 1374.34 1776.62 1397.54 C 1745.36 1394.07 1727.18 1397.13 1696.56 1398.08 C 1666.37 1399.02 1634.87 1397.16 1604.53 1397.91 C 1591.05 1398.25 1575.46 1393.97 1561.75 1394.44 C 1549.39 1393.91 1532.22 1397.92 1520.28 1396.88 C 1469.6 1392.43 1421.88 1400.94 1371.25 1395.15 C 1359.64 1394.24 1347.08 1393.97 1335.44 1394.87 C 1298.61 1397.72 1261.12 1393.86 1224.4 1395.76 C 1193.63 1397.35 1162.91 1397.22 1132.18 1394.36 C 1132.85 1374.45 1136.57 1354.61 1136.39 1334.77 C 1136.13 1320.7 1135.56 1306.63 1134.67 1292.59 C 1134.11 1284.43 1132.73 1271.52 1133.07 1263.95 L 1140.51 1109.48 C 1142.27 1070.08 1144.61 1038.28 1141.77 998.497 C 1138.65 954.765 1143.08 907.258 1144.04 863.415 C 1144.92 847.888 1141.3 828.561 1142.74 813.414 C 1149.08 774.018 1140.48 730.977 1143.37 692.773 C 1146.45 652.15 1147.43 608.823 1150.82 568.596 C 1154.45 525.47 1151.75 486.643 1150.47 443.612 C 1149.84 422.411 1150.06 409.229 1151.81 387.987 C 1177.01 389.658 1202.68 388.648 1227.99 388.095 L 1337.45 385.782 C 1353.42 385.564 1372.75 390.381 1389.31 389.871 C 1418.06 388.986 1448.11 386.56 1476.85 386.139 C 1506.04 385.711 1534.97 386.423 1564.32 385.559 z" fill="rgb(244,237,222)" transform="translate(0,0)"></path>
<path d="M 1458.49 418.38 C 1475.6 417.409 1491.74 422.038 1508.66 422.451 C 1525.48 422.862 1541.81 419.196 1558.51 418.28 C 1572.18 417.53 1585.89 418.86 1599.57 419.062 C 1620.83 419.377 1642.19 419.032 1663.48 419.196 C 1680.1 419.325 1696.84 417.269 1713.42 417.931 C 1722.68 418.3 1754.47 418.764 1760.87 424.542 C 1768.36 437.193 1759.67 472.334 1759.12 487.86 C 1758.83 496.316 1759.43 504.799 1759.21 513.26 C 1758.93 523.914 1757.83 534.566 1757.82 545.224 C 1757.81 557.148 1758.45 569.069 1758.02 580.994 C 1757.28 601.879 1754.42 622.729 1754.01 643.628 C 1753.78 655.886 1754.84 668.146 1754.72 680.403 C 1754.6 693.009 1753.28 705.564 1753.45 718.19 C 1753.66 733.32 1754.92 748.604 1754.44 763.721 C 1753.9 780.96 1750.37 797.919 1750.21 815.259 C 1750.03 835.534 1754.31 855.759 1754.35 876.174 C 1754.38 892.966 1751.54 909.576 1751.29 926.319 C 1751.13 937.242 1752.21 948.193 1752.27 959.125 C 1752.35 975.291 1751.24 991.462 1751.31 1007.63 C 1751.38 1021.09 1752.8 1034.58 1753.23 1048.04 C 1753.87 1068.24 1750.91 1087.76 1750.1 1107.84 C 1749.45 1123.99 1750.59 1140.17 1749.8 1156.36 L 1745.3 1238.51 C 1744.2 1256.86 1742 1274.49 1742.03 1292.94 C 1742.05 1315.94 1740.71 1338.91 1741.3 1361.93 C 1740.7 1362.57 1740.11 1363.2 1739.51 1363.84 C 1728.96 1367.59 1708.51 1362.61 1696.2 1363.59 C 1680.44 1364.84 1663.47 1364.7 1647.66 1364.43 C 1624.37 1363.32 1598.95 1369.36 1575.88 1368.07 C 1553.04 1366.79 1531.35 1364.06 1508.2 1364.53 C 1497.58 1364.75 1482.29 1362.4 1471.09 1361.68 C 1454.63 1361.42 1440.34 1362.72 1424.11 1363.15 C 1412.79 1363.28 1400.69 1361.52 1389.44 1362.07 C 1370.02 1363.02 1351.18 1366.2 1331.65 1364.47 C 1319.96 1363.43 1307.55 1364.53 1295.78 1363.69 C 1286.21 1363.01 1276.53 1361.56 1266.92 1361.27 C 1257.19 1361.25 1246.72 1364.87 1236.85 1364.38 C 1227.81 1363.99 1217.32 1360.29 1207.81 1360.21 C 1201.96 1359.99 1172.16 1365.22 1169.26 1361.89 C 1160.3 1351.64 1166.95 1299.96 1167.68 1286.6 C 1168.2 1271.73 1166.66 1256.85 1166.84 1241.98 C 1167.21 1230.01 1168.62 1218.25 1169.32 1206.29 C 1171.23 1173.77 1167.96 1141.5 1168.59 1109.01 C 1168.81 1097.38 1166.76 1084.94 1167.06 1073.25 C 1167.4 1060.19 1168.81 1047.11 1169.52 1034.06 C 1170.97 1002.98 1171.12 972.327 1170.06 941.251 C 1169.93 925.622 1171.91 909.56 1172.04 894 C 1171.86 855.901 1170.43 819.53 1175.86 781.673 C 1180.64 748.446 1175.96 711.747 1178.66 678.065 C 1179.62 666.122 1178.54 653.84 1178.82 641.898 C 1179.27 623.212 1181.35 604.56 1181.77 585.873 C 1181.94 572.216 1180.06 558.22 1180.02 544.523 C 1179.83 530.001 1181.48 515.436 1181.49 500.912 C 1181.77 477.762 1180.3 450.378 1179.3 426.772 C 1179.77 425.96 1180.25 425.147 1180.72 424.335 C 1202.19 417.895 1224.09 425.593 1244.32 423.972 C 1274.81 421.528 1299.89 421.167 1330.44 423.551 C 1351.27 425.175 1374.27 419.382 1396.52 422.31 C 1414.65 424.697 1439.94 420.455 1458.49 418.38 z" fill="rgb(34,30,26)" transform="translate(0,0)"></path>
<path d="M 1670.74 930.384 C 1694.93 928.059 1718.14 934.405 1742.54 929.5 C 1743.95 955.389 1742.7 981.044 1742.78 1006.91 C 1742.84 1025.26 1744.58 1043.55 1744.18 1061.92 C 1743.84 1077.66 1741.48 1093.28 1741.15 1109.01 C 1740.84 1123.66 1742.08 1138.34 1741.49 1152.99 C 1740.92 1167.32 1738.76 1181.56 1738.05 1195.88 C 1737.42 1208.71 1738.44 1221.69 1737.35 1234.49 C 1736.31 1246.85 1733.84 1259.08 1733.17 1271.48 C 1732.46 1284.46 1733.18 1297.59 1733.08 1310.6 C 1732.96 1325.75 1732.11 1340.9 1731.86 1356.05 C 1720.89 1356.21 1709.89 1354.97 1698.9 1354.92 C 1684.56 1354.85 1670.16 1355.94 1655.83 1356.38 C 1656.9 1337.04 1660.91 1317.86 1661.08 1298.47 C 1661.22 1281.72 1657.86 1265.13 1657.99 1248.45 C 1658.28 1209.89 1666.95 1183.61 1649.49 1145.31 C 1638.69 1121.63 1615.41 1098.54 1590.87 1089.42 C 1573.16 1082.83 1550.91 1078.3 1532.07 1078.53 C 1522.17 1078.66 1512.11 1080.16 1502.24 1079.77 C 1492.67 1079.4 1483.15 1077.87 1473.57 1077.64 C 1451.47 1077.12 1413.49 1080.3 1393.85 1089.32 C 1374.38 1098.27 1349.77 1117.72 1337.5 1135.75 C 1333.47 1141.67 1330.95 1147.97 1328.46 1154.66 C 1322.05 1175.45 1317.3 1200.73 1316.64 1222.43 C 1316.26 1234.78 1317.35 1247.14 1316.65 1259.49 C 1314.81 1291.73 1311.49 1322.47 1314.46 1354.77 C 1299.93 1357.08 1285.64 1353.5 1271.16 1352.86 C 1261.19 1352.42 1251.22 1354.99 1241.27 1354.99 C 1231.82 1354.99 1222.3 1353.03 1212.84 1352.58 C 1200 1351.97 1187.19 1353.76 1174.47 1355.33 C 1173.74 1341.79 1173.87 1328.52 1175.02 1315 C 1196.9 1291.92 1218.37 1268.67 1239.56 1244.96 C 1246.36 1237.35 1253.72 1230.18 1260.19 1222.29 C 1272.23 1207.62 1282.41 1191.36 1294.31 1176.5 C 1300.96 1168.18 1307.5 1159.67 1314.58 1151.71 C 1321.71 1143.7 1329.4 1136.09 1336.07 1127.69 C 1343.69 1118.09 1350.04 1107.57 1358.04 1098.24 C 1386.9 1064.59 1415.4 1030.34 1444.88 997.254 C 1464.09 975.698 1486.29 955.749 1502.36 931.685 C 1542.53 931.574 1582.99 938.074 1623 936.944 C 1639.18 936.487 1654.7 931.991 1670.74 930.384 z" fill="rgb(67,82,254)" transform="translate(0,0)"></path>
<path d="M 1191.76 493.973 C 1220.83 493.448 1249.9 494.34 1278.87 496.645 C 1289.26 497.424 1299.23 499.996 1309.73 500.076 C 1326.3 500.201 1342.78 498.647 1359.32 498.23 C 1371.37 497.926 1383.45 498.732 1395.49 498.154 C 1416.56 497.143 1436.57 495.444 1457.77 496.056 C 1459.17 503.375 1460.13 510.776 1460.17 518.238 C 1460.26 534.886 1457.55 568.546 1453.63 584.977 C 1450.83 596.685 1446.4 608.188 1442.83 619.695 C 1438 635.191 1433.7 651.194 1427.54 666.208 C 1412.17 703.667 1386.43 739.358 1357.99 767.913 C 1337.93 787.728 1317.43 805.903 1292.54 819.572 C 1283.54 824.514 1273.99 828.513 1264.8 833.094 C 1230.3 850.293 1219.43 855.915 1180.11 862.541 C 1180.03 845.285 1179.77 827.675 1181.31 810.482 C 1182.87 793.165 1186.05 776.2 1186.49 758.758 L 1190.99 584.379 C 1191.22 570.466 1189.51 556.546 1189.44 542.63 C 1189.36 526.489 1191 510.114 1191.76 493.973 z" fill="rgb(67,82,254)" transform="translate(0,0)"></path>
<path d="M 1475.51 494.38 C 1487.55 493.343 1500 495.595 1511.98 496.813 C 1524.36 498.072 1537.12 498.891 1549.56 498.891 C 1561.41 498.892 1573.15 496.104 1585 496.071 C 1601.73 496.025 1619.09 496.299 1635.81 497.167 C 1647.82 497.791 1659.75 499.295 1671.81 499.049 C 1687.54 498.728 1703.2 496.55 1718.92 495.869 C 1729.39 495.415 1739.86 496.133 1750.3 496.782 C 1751.47 510.445 1749.67 524.673 1748.73 538.315 C 1727.19 561.692 1706.75 586.07 1687.5 611.366 C 1681.52 619.328 1676.37 627.9 1670.35 635.846 C 1663.12 645.406 1655.15 654.41 1647.97 664.009 C 1640.36 674.167 1633.62 684.96 1626.06 695.158 C 1615.68 709.163 1604.42 721.779 1592.34 734.323 C 1581.93 744.482 1570.75 754.57 1561.53 765.844 C 1547.67 782.809 1536.26 801.754 1522.43 818.842 C 1513.05 830.441 1501.13 839.833 1491.4 851.179 C 1482.13 861.983 1474.91 875.031 1466.48 886.581 C 1466.86 871.026 1469.38 855.574 1470.44 840.058 C 1471.52 824.261 1471.11 807.998 1471.07 792.161 L 1468.28 564.998 C 1468.16 549.062 1468.29 532.989 1467.98 517.072 C 1467.85 510.265 1466.57 503.47 1466.76 496.68 C 1469.13 494.289 1472.24 494.7 1475.51 494.38 z" fill="rgb(244,237,222)" transform="translate(0,0)"></path>
<path d="M 1279.73 923.463 C 1296.83 923.233 1313.8 924.369 1330.86 924.373 C 1342.64 924.375 1354.41 923.111 1366.19 923.283 C 1377.84 923.454 1389.47 924.816 1401.12 924.996 C 1411.7 925.16 1422.38 924.27 1432.94 923.613 C 1417 946.991 1395.15 964.062 1376.46 984.975 C 1367.05 995.509 1358.42 1006.74 1348.97 1017.23 C 1337.73 1029.7 1325.62 1041.42 1314.82 1054.28 C 1302.43 1069.03 1291.32 1084.83 1278.81 1099.47 C 1267.97 1112.15 1255.8 1123.61 1245.12 1136.44 C 1223.49 1164.39 1200.96 1191.63 1177.56 1218.12 C 1180.58 1169.96 1176.68 1122.39 1175.99 1074.26 C 1175.77 1058.42 1178.59 1042.49 1178.89 1026.62 C 1179.23 1008.53 1179.79 990.378 1179.61 972.286 C 1179.46 956.527 1178.63 940.954 1179.06 925.166 C 1191.86 924.241 1204.65 923.557 1217.49 923.885 C 1237.6 924.397 1259.88 927.515 1279.73 923.463 z" fill="rgb(67,82,254)" transform="translate(0,0)"></path>
<path d="M 1456.67 605.187 C 1459.48 595.942 1459.04 611.054 1459.05 611.979 C 1460.47 649.429 1462.27 686.308 1460.42 723.802 C 1460.45 728.217 1460.04 733.07 1460.3 737.451 C 1462.53 775.144 1463.59 813.075 1460.8 850.762 C 1459.65 866.293 1458.49 881.305 1457.66 896.715 L 1438.83 915.426 C 1424.78 915.813 1410.54 916.208 1396.5 915.843 C 1386.18 915.575 1375.66 914.33 1365.33 914.449 L 1288.62 915.195 C 1278.37 915.388 1265.05 917.28 1255.22 916.671 C 1229.32 915.065 1205.91 914.732 1179.94 916.274 C 1181.12 899.715 1181.2 886.812 1180.86 870.258 C 1221.34 864.853 1225.83 859.613 1260.85 844.436 C 1337.03 811.427 1395.34 754.182 1431.5 679.412 C 1442.1 657.492 1449.56 628.366 1456.67 605.187 z" fill="rgb(244,237,222)" transform="translate(0,0)"></path>
<path d="M 1456.67 605.187 C 1459.48 595.942 1459.04 611.054 1459.05 611.979 C 1458.19 608.78 1458.25 608.104 1456.67 605.187 z" fill="rgb(234,223,200)" transform="translate(0,0)"></path>
<path d="M 892.683 986.378 C 895.142 986.489 896.734 986.203 898.799 987.781 C 906.327 993.536 913.032 1045.03 914.436 1057.43 C 922.24 1058.05 944.529 1057.44 949.661 1061.48 C 953.233 1071.82 950.326 1087.11 949.904 1098.21 C 949.329 1113.33 947.842 1154.38 950.372 1168.02 C 953.355 1184.1 956.21 1201.92 961.205 1217.44 C 965.734 1231.52 972.284 1245.01 976.088 1259.31 C 979.193 1270.98 981.49 1282.87 984.451 1294.58 C 987.262 1305.7 990.783 1316.67 993.228 1327.88 C 996.216 1341.57 998.078 1355.35 1001.94 1368.88 C 1005.45 1381.17 1009.85 1393.19 1013.43 1405.46 C 1016.13 1414.72 1018 1424.21 1020.84 1433.44 C 1025.09 1447.23 1040.92 1486.32 1040.12 1498.69 C 1032.81 1506.08 994.013 1515.32 981.994 1518.84 C 983.608 1527.1 989.073 1553.88 983.929 1560.83 C 982.514 1562.75 980.181 1563.87 977.914 1564.41 C 972.642 1565.65 966.536 1565.23 961.11 1565.56 C 950.689 1566.11 940.287 1566.97 929.919 1568.16 C 930.491 1591 924.074 1613.21 920.358 1635.58 C 916.181 1660.72 915.757 1687.28 905.418 1711.02 C 865.27 1705.19 825.696 1696.07 785.625 1689.67 C 767.555 1686.79 749.259 1687.19 731.231 1684.48 C 715.438 1682.1 700.067 1677.46 684.325 1674.87 C 642.671 1668 600.701 1662.5 559.021 1655.85 C 518.051 1649.32 474.214 1639.76 433.052 1636.19 C 420.917 1642.34 407.492 1644.96 394.405 1648.28 C 380.048 1651.94 365.859 1656.01 351.317 1658.89 C 327.287 1663.65 303.107 1666.91 279.442 1673.35 C 262.619 1677.48 243.245 1683.08 225.991 1683.75 C 222.921 1683.87 217.887 1684.02 215.439 1681.69 C 207.386 1674.03 213.545 1645.87 205.213 1638.27 C 197.158 1630.92 195.923 1605.22 194.703 1594.2 C 181.204 1591.93 131.533 1586.11 122.915 1579.9 C 120.325 1578.04 119.959 1576.18 119.889 1573.12 C 119.606 1560.83 123.587 1547.48 125.317 1535.27 C 127.378 1520.74 128.267 1505.91 131.13 1491.5 C 133.508 1479.53 137.776 1467.39 139.063 1455.29 C 139.833 1448.04 139.097 1440.64 139.982 1433.43 C 141.067 1424.58 145.193 1416.28 144.791 1407.24 C 144.049 1390.58 136.309 1373.48 132.977 1357.14 C 127.296 1329.27 124.198 1300.55 119.261 1272.5 C 115.563 1251.48 110.149 1230.71 106.224 1209.7 C 115.784 1204.36 127.601 1201.56 137.897 1197.72 L 134.885 1176.06 C 147.358 1171.7 160.696 1168.97 173.512 1165.73 C 174.22 1157.04 174.538 1148.32 174.467 1139.6 C 174.223 1123.53 169.651 1055.54 177.095 1045.2 C 181.843 1038.6 253.157 1043.19 264.955 1043.38 C 274.485 1043.53 284.06 1042.98 293.588 1042.73 C 305.062 1042.44 316.904 1042.31 328.314 1043.71 C 342.756 1045.48 356.992 1049.04 371.55 1049.85 C 397.85 1051.31 423.596 1046.91 449.69 1047.4 C 461.215 1047.61 472.595 1049.82 484.092 1050.37 C 496.753 1050.98 509.493 1049.33 522.165 1049.34 C 534.48 1049.35 546.752 1051.41 559.083 1051.62 C 571.559 1051.82 583.796 1050.03 596.205 1049.1 C 602.473 1048.63 609.012 1049.81 615.187 1048.92 C 622.662 1047.84 630.077 1045.48 637.494 1043.99 C 647.732 1041.94 658.087 1040.74 668.276 1038.38 C 685.389 1034.41 702.207 1029.05 719.292 1024.89 C 736.025 1020.81 753.089 1018.7 769.888 1015.08 C 791.85 1010.35 813.525 1003.91 835.518 999.03 C 854.6 994.793 873.239 988.825 892.683 986.378 z" fill="rgb(34,30,26)" transform="translate(0,0)"></path>
<path d="M 186.074 1050.52 C 212.385 1048.92 238.852 1051.83 265.153 1052.08 C 283.116 1052.26 300.946 1050.06 318.934 1051.45 C 339.655 1053.04 359.603 1058.3 380.534 1058.58 C 402.521 1058.89 424.43 1055.37 446.362 1055.68 C 460.325 1055.87 474.187 1058.41 488.132 1058.78 C 500.626 1059.12 513.168 1057.01 525.654 1057.75 C 536.357 1058.38 547 1060.35 557.728 1060.53 C 569.608 1060.73 581.555 1058.7 593.427 1058.17 C 610.001 1057.42 627.321 1058.07 643.958 1058.27 C 659.317 1058.45 674.658 1059.32 690.011 1059.52 C 700.148 1059.65 710.513 1058.85 720.615 1059.57 C 731.068 1060.32 741.398 1063.44 751.866 1063.83 C 761.177 1064.17 770.532 1063.66 779.85 1063.81 C 790.056 1063.97 800.301 1064.88 810.504 1064.71 C 821.173 1064.53 831.817 1063.45 842.498 1063.64 C 852.354 1063.82 862.157 1065.05 872.002 1065.36 L 942.43 1067.53 C 942.738 1079.61 941.517 1091.84 941.217 1103.92 L 939.204 1198.44 C 938.829 1221.14 941.609 1243.91 940.34 1266.6 C 939.109 1288.59 937.391 1311.14 935.236 1333.05 C 934.119 1344.4 931.804 1355.73 931.268 1367.12 C 930.664 1379.98 932.249 1393 932.318 1405.89 C 932.419 1424.67 930.941 1443.58 930.587 1462.4 C 930.249 1480.28 931.124 1498.59 929.82 1516.4 L 928.185 1517.04 C 910.068 1518.38 892.208 1516.07 874.107 1515.93 C 860.417 1515.83 846.73 1516.93 833.041 1517.07 C 820.739 1517.19 808.299 1516.44 796.011 1515.81 C 779.861 1514.97 764.125 1511.55 748.063 1510.16 C 728.494 1508.46 708.771 1508.71 689.171 1507.6 C 677.832 1506.97 666.583 1505.11 655.236 1504.44 C 619.058 1502.29 583.094 1508.74 546.954 1508.1 C 527.526 1507.75 508.16 1502.93 488.654 1502.33 C 464.692 1501.59 440.535 1506.3 416.511 1505.8 C 369.143 1504.81 321.674 1502.24 274.286 1502 C 257.506 1501.92 240.736 1503.06 223.962 1503.32 C 206.552 1503.58 189.217 1502.13 171.824 1503.71 C 167.788 1463.17 173.134 1421.98 174.628 1381.47 C 175.059 1369.78 174.423 1358.07 174.511 1346.38 C 174.589 1335.92 175.498 1325.48 175.752 1315.03 C 176.071 1301.86 175.657 1288.67 176.115 1275.5 C 176.526 1263.65 177.901 1251.84 178.253 1240 C 178.544 1230.2 177.919 1220.33 178.53 1210.55 C 179.72 1191.51 181.751 1172.63 182.615 1153.54 C 183.336 1137.62 181.706 1122.08 181.18 1106.2 C 180.6 1088.67 181.384 1069.1 183.535 1051.71 L 186.074 1050.52 z" fill="rgb(244,237,222)" transform="translate(0,0)"></path>
<path d="M 701.053 1095.93 C 804.879 1085.56 897.324 1161.64 907.126 1265.52 C 916.928 1369.4 840.345 1461.43 736.411 1470.66 C 633.279 1479.82 542.115 1403.96 532.389 1300.88 C 522.663 1197.8 598.027 1106.22 701.053 1095.93 z" fill="rgb(34,30,26)" transform="translate(0,0)"></path>
<path d="M 702.367 1104.7 C 801.637 1094.95 889.827 1167.99 898.737 1267.34 C 907.647 1366.69 833.861 1454.25 734.439 1462.31 C 636.207 1470.28 549.919 1397.57 541.115 1299.41 C 532.312 1201.25 604.285 1114.34 702.367 1104.7 z" fill="rgb(67,82,254)" transform="translate(0,0)"></path>
<path d="M 335.565 1086.37 C 348.055 1085.17 361.112 1087.05 373.687 1087.23 C 386.688 1087.42 399.676 1086.19 412.683 1086.44 C 429.166 1086.75 445.662 1088.73 462.138 1089.46 C 472.695 1089.92 486.425 1088.67 496.362 1092.29 C 497.765 1094 498.626 1095.36 499.176 1097.53 C 502.665 1111.33 499.362 1129.48 499.434 1143.86 C 499.498 1156.57 502.183 1168.95 502.173 1181.72 C 502.162 1195.17 500.479 1208.54 499.923 1221.96 C 499.351 1235.76 500.241 1249.63 499.907 1263.45 C 499.623 1275.18 498.167 1286.85 497.767 1298.57 C 497.081 1318.69 498.99 1338.33 494.857 1358.28 C 490.434 1379.62 479.737 1397.8 468.232 1415.98 C 442.923 1455.97 409.554 1462.25 366.616 1471.97 C 344.535 1476.07 324.596 1469.71 302.75 1468.91 C 293.032 1468.55 283.199 1469.36 273.467 1469.54 C 250.407 1469.94 226.176 1470.03 203.327 1466.88 C 202.674 1465.11 202.307 1463.6 202.094 1461.71 C 200.662 1448.99 201.849 1435.35 201.924 1422.53 C 202.008 1408.12 200.156 1393.66 200.559 1379.31 C 201.055 1361.69 203.965 1344.07 204.678 1326.38 C 205.42 1307.96 202.955 1289.96 202.839 1271.6 C 202.763 1259.53 204.483 1247.18 205.644 1235.17 C 208.697 1203.59 210.839 1168.81 231.671 1143.14 C 238.374 1134.88 246.542 1128.42 254.818 1121.83 C 279.674 1102.03 303.503 1089.68 335.565 1086.37 z" fill="rgb(34,30,26)" transform="translate(0,0)"></path>
<path d="M 945.957 1307.09 L 948.04 1304.74 C 949.365 1317.32 953.661 1333.11 954.202 1344.44 C 955.349 1368.4 958.986 1388.3 963.056 1411.88 C 966.21 1430.15 965.327 1451.64 967.888 1470.22 C 971.385 1498.79 975.189 1526.61 977.369 1555.41 C 940.079 1559.06 901.884 1561.94 864.516 1564.97 C 847.469 1566.35 830.288 1570.47 812.305 1571.36 C 796.54 1572.15 782.17 1571.36 766.878 1571.87 C 751.878 1572.36 733.644 1576.15 718.406 1577.12 C 700.908 1578.24 683.719 1578.15 666.167 1579.48 C 651.576 1580.59 637.973 1584.37 623.783 1585.63 L 419.738 1603.83 C 406.374 1605.06 392.19 1609.82 379.399 1610.85 C 359.55 1612.45 341.312 1614.66 321.628 1617.87 C 309.372 1619.87 293.93 1618.19 281.408 1620.29 C 257.514 1623.73 234.141 1628.68 209.812 1630.23 C 204.288 1604.54 201.626 1576.97 196.505 1551.07 C 193.988 1538.34 189.967 1523.82 186.665 1511.12 C 201.351 1511.23 216.671 1513.58 230.559 1513.12 C 258.731 1543.95 287.891 1560.4 328.985 1569.08 C 350.682 1573.67 378.804 1578.03 400.923 1574.08 C 443.014 1566.56 484.142 1546.03 510.764 1512.21 C 519.832 1513.74 530.991 1515.81 540.044 1516.2 C 579.559 1517.88 618.534 1510.83 658.116 1512.99 C 667.202 1513.49 676.032 1516.12 685.005 1516.74 C 703.528 1518.03 723.604 1516.77 741.987 1518.34 C 763.981 1520.22 785.866 1525.35 808.16 1525.63 C 832.185 1527.17 855.304 1524.9 879.299 1524.69 C 892.768 1524.57 924.436 1530.05 936.147 1525.08 C 942.968 1515.83 939.551 1483.13 939.564 1470.22 C 939.593 1441.8 942.05 1413.13 940.35 1384.79 C 938.785 1358.7 946.38 1333.06 945.957 1307.09 z" fill="rgb(244,237,222)" transform="translate(0,0)"></path>
<path d="M 563.903 1535.08 C 576.476 1534.23 589.165 1535.62 601.764 1535.82 L 674.233 1536.3 C 733.181 1536.29 792.331 1533.5 851.261 1535.38 C 855.086 1535.5 860.75 1534.98 863.449 1537.86 L 862.165 1543.52 C 827.018 1539.49 790.138 1543.07 754.827 1543.48 C 712.768 1543.97 670.651 1542.98 628.587 1542.92 C 614.235 1542.9 577.272 1544.78 565.345 1541.53 C 563.659 1539.05 563.95 1538.02 563.903 1535.08 z" fill="rgb(34,30,26)" transform="translate(0,0)"></path>
<path d="M 891.377 1571.5 L 921.502 1568.88 C 922.108 1593.09 916.343 1609.79 912.683 1633.42 C 908.845 1658.2 907.819 1678.29 900.247 1702.54 C 843.235 1691.7 788.819 1679.74 730.808 1676.31 C 720.617 1675.71 703.364 1669.93 692.09 1668.08 L 562.521 1647.96 C 557.004 1647.05 551.452 1645.96 545.953 1644.92 C 491.109 1634.6 436.405 1628.77 381.186 1621.79 L 381.643 1620 C 393.216 1617.55 406.295 1613.99 417.825 1612.84 C 429.89 1611.64 442.179 1612.5 454.396 1611.15 L 598.528 1594.82 C 598.724 1601.42 598.081 1610.96 600.889 1616.45 C 601.995 1617.44 602.96 1618.33 604.432 1618.72 C 608.998 1619.96 614.478 1619.5 619.224 1620.14 C 633.183 1622.02 647.054 1624.68 660.994 1626.73 C 680.879 1629.66 701.44 1629.13 721.143 1632.83 C 735.048 1635.44 748.408 1639.98 762.18 1643.11 C 774.98 1646.01 788.081 1647.41 800.846 1650.41 C 818.355 1654.52 852.873 1663 870.185 1662.31 C 871.647 1662.25 874.498 1662.22 875.572 1661.07 C 878.846 1657.56 890.646 1583.45 891.221 1574 L 891.328 1572.44 L 891.377 1571.5 z" fill="rgb(244,237,222)" transform="translate(0,0)"></path>
<path d="M 254.643 1511.41 C 275.434 1508.04 310.98 1511.52 333.137 1512.45 C 348.214 1513.08 363.055 1512.22 378.087 1512.5 C 391.164 1512.74 404.231 1514.11 417.309 1514.19 C 445.529 1514.36 473.882 1509.51 501.983 1511.74 C 491.105 1522.4 480.546 1531.98 467.573 1540.15 C 437.208 1558.58 404.527 1567.47 369.099 1566.39 C 322.749 1564.98 272.908 1546.53 240.971 1512.56 L 254.643 1511.41 z" fill="rgb(67,82,254)" transform="translate(0,0)"></path>
<path d="M 947.775 1211.21 C 947.452 1208.96 946.228 1198.14 947.491 1196.43 C 949.339 1196.37 948.821 1199.96 948.723 1200.95 L 950.513 1210.2 C 955.043 1227.64 963.878 1244.98 967.889 1261.74 C 986.702 1340.33 1005.2 1418.03 1031.78 1494.59 C 1015.09 1500.19 998.326 1505.58 981.498 1510.76 C 980.004 1495.38 976.676 1478.94 975.761 1463.74 C 973.874 1432.43 970.618 1404.67 964.806 1373.7 C 961.691 1357.11 963.021 1337.8 958.518 1319.72 C 954.496 1303.58 954.265 1283.79 949.536 1267.26 C 948.051 1256.1 948.961 1239.68 948.887 1228.14 C 947.984 1221.94 948.309 1217.21 947.775 1211.21 z" fill="rgb(244,237,222)" transform="translate(0,0)"></path>
<path d="M 947.775 1211.21 C 947.452 1208.96 946.228 1198.14 947.491 1196.43 C 949.339 1196.37 948.821 1199.96 948.723 1200.95 L 950.513 1210.2 C 948.293 1214.52 949.647 1221.47 948.887 1228.14 C 947.984 1221.94 948.309 1217.21 947.775 1211.21 z" fill="rgb(234,223,200)" transform="translate(0,0)"></path>
<path d="M 947.775 1211.21 C 947.452 1208.96 946.228 1198.14 947.491 1196.43 C 949.339 1196.37 948.821 1199.96 948.723 1200.95 C 948.32 1204.36 948.004 1207.78 947.775 1211.21 z" fill="rgb(97,90,90)" transform="translate(0,0)"></path>
<path d="M 669 1046.48 L 894.355 993.54 C 898.399 1014.7 903.228 1035.66 906.806 1056.88 C 884.867 1057.03 864.023 1056.7 842.145 1054.87 C 836.226 1054.37 828.783 1055.72 822.773 1055.68 C 800.071 1057.22 777.527 1054.6 754.724 1055 C 743.944 1055.18 730.895 1051.51 719.903 1051.33 C 707.375 1050.72 692.968 1051.93 681.048 1050.95 C 670.494 1051.3 659.928 1051.13 649.391 1050.43 C 653.386 1049.53 656.961 1048.83 661.039 1048.33 L 669 1046.48 z" fill="rgb(244,237,222)" transform="translate(0,0)"></path>
<path d="M 649.391 1050.43 C 653.386 1049.53 656.961 1048.83 661.039 1048.33 C 661.902 1051.44 666.018 1050.14 668.999 1050.07 C 674.41 1049.96 675.731 1049.82 681.048 1050.95 C 670.494 1051.3 659.928 1051.13 649.391 1050.43 z" fill="rgb(148,142,140)" transform="translate(0,0)"></path>
<path d="M 166.19 1325.96 L 167.362 1333.1 C 166.398 1340.92 167.05 1349.84 166.633 1357.74 C 167.646 1382.69 154.723 1497.34 164.934 1509.29 C 167.48 1512.27 175.2 1511.96 178.869 1512.19 C 181.074 1525.98 184.769 1538.13 187.65 1551.61 C 189.935 1562.29 191.645 1575.08 193.295 1585.99 C 171.448 1581.96 149.569 1578.11 127.66 1574.43 C 132.109 1548.16 135.718 1523.11 138.973 1496.63 C 140.339 1485.52 145.59 1471.43 147.062 1460.12 L 156.556 1387.9 C 158.731 1370.15 159.433 1353.12 164.33 1335.97 C 164.62 1332.88 165.574 1329.08 166.19 1325.96 z" fill="rgb(244,237,222)" transform="translate(0,0)"></path>
<path d="M 166.19 1325.96 L 167.362 1333.1 C 166.398 1340.92 167.05 1349.84 166.633 1357.74 C 163.528 1353.86 168.027 1342.19 164.33 1335.97 C 164.62 1332.88 165.574 1329.08 166.19 1325.96 z" fill="rgb(234,223,200)" transform="translate(0,0)"></path>
<path d="M 329.519 1625.4 C 340.942 1623.96 399.25 1631.8 413.195 1634.85 C 389.206 1642.26 364.152 1648.07 339.49 1652.76 C 321.642 1656.15 303.873 1658.71 286.232 1663.18 C 264.624 1668.31 243.378 1672.73 221.415 1676.07 C 220.112 1663.44 218.19 1650.82 216.523 1638.22 C 237.052 1635.41 257.639 1631.37 278.221 1629.22 C 295.26 1627.43 312.425 1627.22 329.519 1625.4 z" fill="rgb(244,237,222)" transform="translate(0,0)"></path>
<path d="M 138.08 1206.05 L 139.417 1207.31 C 141.837 1219.2 142.673 1231.45 144.263 1243.48 C 145.75 1254.74 148.005 1266.09 148.821 1277.42 C 149.552 1287.56 149.199 1297.74 150.157 1307.89 C 151.107 1317.94 154.269 1328.55 154.161 1338.59 C 154.018 1351.85 151.014 1366.43 148.902 1379.6 L 145.315 1367.27 C 140.894 1354.94 139.704 1342.4 137.643 1329.55 C 135.686 1317.35 133.416 1305.19 131.387 1293 C 126.914 1266.49 121.512 1240.15 115.192 1214.01 C 122.986 1212.05 130.555 1208.86 138.08 1206.05 z" fill="rgb(244,237,222)" transform="translate(0,0)"></path>
<path d="M 171.047 1175.18 C 171.799 1175.36 172.331 1175.95 172.928 1176.43 C 172.496 1187.48 171.03 1198.45 170.595 1209.49 C 169.17 1245.66 169.143 1278.64 159.911 1314.05 L 158.216 1301.99 C 158.129 1262.05 149.899 1220.64 143.8 1181.2 L 171.047 1175.18 z" fill="rgb(244,237,222)" transform="translate(0,0)"></path>
<path d="M 166.19 1325.96 C 166.144 1324.17 165.971 1323.76 166.715 1322.19 C 169.106 1322.34 167.59 1331.52 167.362 1333.1 L 166.19 1325.96 z" fill="rgb(97,90,90)" transform="translate(0,0)"></path>
<path d="M 945.957 1307.09 C 945.966 1305.48 945.883 1299.43 946.571 1298.25 C 948.204 1295.44 948.04 1304.89 948.04 1304.74 L 945.957 1307.09 z" fill="rgb(148,142,140)" transform="translate(0,0)"></path>
<path d="M 375.07 1620.09 C 377.26 1620.04 379.452 1620.01 381.643 1620 L 381.186 1621.79 L 378.61 1622.7 C 377.593 1621.91 376.162 1620.69 375.07 1620.09 z" fill="rgb(148,142,140)" transform="translate(0,0)"></path>
<path d="M 378.61 1622.7 C 377.731 1622.42 373.845 1621.5 373.51 1620.59 C 373.824 1620.13 374.542 1620.19 375.07 1620.09 C 376.162 1620.69 377.593 1621.91 378.61 1622.7 z" fill="rgb(97,90,90)" transform="translate(0,0)"></path>
<path d="M 530.75 77.4314 C 539.577 76.2787 542.613 80.2673 543.362 88.7638 C 544.837 105.522 543.288 125.802 542.826 142.465 C 562.886 143.732 569.944 143.954 589.934 141.694 C 590.072 131.379 589.728 87.5276 593.355 80.4428 C 601.883 76.3514 655.149 78.3669 662.456 84.4746 C 663.997 92.8435 663.196 107.759 663.733 116.943 C 664.471 129.572 665.753 142.34 665.973 154.927 C 682.008 156.029 687.19 161.376 700.633 165.093 C 718.222 169.955 732.305 171.412 748.17 182.786 C 762.488 195.583 791.007 208.067 803.753 221.184 C 818.392 236.247 840.255 255.366 853.463 270.741 C 873.497 294.061 894.751 327.378 908.472 354.806 C 919.199 376.247 922.025 409.407 928.995 432.506 C 932.287 444.723 937.676 460.273 940.022 471.984 C 947.38 503.907 940.769 535.274 938.314 566.574 C 935.27 605.393 927.691 629.771 909.772 664.182 C 899.401 684.1 891.827 708.324 878.671 727.26 C 867.743 742.989 852.02 755.635 839.288 769.949 C 811.623 802.164 787.054 821.489 749.984 841.756 C 711.622 862.73 694.639 862.743 653.253 870.698 C 636.562 873.98 616.907 883.096 600.313 884.167 C 572.99 885.929 540.02 884.39 512.836 881.76 C 488.159 879.598 462.619 866.462 439.872 860.551 C 399.248 849.995 374.214 836.384 343.734 807.463 C 330.938 795.322 313.666 785.381 300.822 772.639 C 288.01 759.928 279.758 746.072 269.749 731.184 C 248.758 707.424 236.258 689.858 225.663 659.648 C 222.147 649.623 213.968 637.898 210.185 626.475 C 199.284 593.559 195.229 558.967 190.588 524.731 C 188.44 509.28 189.844 501.83 193.15 486.977 C 200.344 455.402 196.231 418.642 212.408 389.412 C 222.496 371.184 230.123 356.19 236.311 336.308 C 239.115 327.297 252.311 316.36 256.061 308.539 C 269.813 279.855 290.298 262.52 314.312 242.61 C 322.534 235.753 331.286 222.872 340.426 216.241 C 359.73 202.234 382.405 191.195 402.554 178.081 C 420.999 167.581 446.565 159.523 466.642 152.314 C 467.199 137.723 466.811 123.044 466.893 108.497 C 467.421 102.296 463.851 84.935 468.724 80.9421 C 473.955 76.9439 484.539 77.731 491.017 78.1315 C 504.803 78.9839 517.013 78.6973 530.75 77.4314 z" fill="rgb(34,30,26)" transform="translate(0,0)"></path>
<path d="M 588.396 149.401 L 589.949 149.989 C 593.918 159.703 586.85 206.019 586.785 220.215 C 586.719 234.536 588.303 250.411 588.168 264.457 C 587.971 284.941 585.755 308.086 585.92 328.5 C 586.104 351.326 590.199 371.587 589.14 394.718 C 588.377 411.384 581.42 464.432 586.32 478.569 C 593.388 485.449 647.798 482.209 660.772 482.319 C 662.314 459.704 660.67 436.483 663.793 413.282 C 665.438 401.061 662.45 383.458 663.79 370.38 C 665.491 353.768 668.088 337.327 668.248 320.69 C 668.127 299.213 664.578 279.728 662.784 258.425 C 661.24 243.517 665.947 228.123 666.108 213.537 C 666.298 196.307 664.924 180.401 665.936 163.035 C 674.28 164.783 682.568 168.418 690.369 170.255 C 716.586 176.426 736.176 183.24 757.84 200.131 C 768.013 208.063 785.406 216.37 795.06 225.576 C 811.297 241.061 827.846 257.092 843.719 273.016 C 863.266 295.624 881.718 323.185 896.411 349.283 C 910.577 374.444 913.383 409.566 921.188 437.003 C 928.018 461.014 937.278 487.016 934.834 512.375 C 931.801 543.839 928.981 575.756 923.448 606.812 C 919.885 626.276 906.725 645.739 899.764 663.71 C 884.553 702.981 868.176 733.338 835.082 760.522 C 822.791 770.878 809.498 789.786 795.8 801.014 C 782.404 811.995 769.898 821.35 754.093 829.178 C 735.778 839.376 719.228 848.829 698.574 853.581 C 686.65 857.639 668.277 857.151 657.136 860.995 C 616.7 874.947 590.248 876.811 548.036 874.891 C 535.88 873.59 523.615 874.593 511.468 872.719 C 486.932 868.934 464.121 859.316 440.707 851.582 C 428.263 847.471 415.394 844.529 403.315 839.391 C 383.775 831.078 368.103 815.852 351.944 802.474 C 338.892 791.669 323.745 782.461 311.584 770.838 C 295.36 755.331 284.178 735.875 270.674 718.151 C 263.852 709.197 255.348 701.269 249.646 691.52 C 242.537 679.364 238.796 665.817 232.9 653.119 C 228.855 644.409 223.189 636.357 219.686 627.409 C 212.148 608.153 198.728 531.72 198.876 509.961 C 198.952 498.671 202.684 487.631 204.332 476.512 C 207.747 453.473 207.941 430.427 214.967 407.974 C 219.518 393.429 226.998 381.68 233.518 368.156 C 237.119 360.687 239.751 352.738 243.038 345.124 C 248.258 333.031 280.299 285.277 289.545 275.979 C 300.306 265.158 313.034 256.321 323.96 245.645 C 332.924 236.886 340.229 225.933 350.58 218.743 C 359.186 212.765 369.335 208.976 378.37 203.692 C 387.408 198.407 395.368 191.218 404.63 186.327 C 424.054 176.069 446.255 169.324 466.75 161.236 C 465.167 174.472 465.964 186.759 465.291 199.795 C 464.178 221.34 463.078 241.688 464.368 263.282 C 464.181 275.725 462.777 287.9 462.851 300.374 C 462.96 318.927 467.192 340.218 464.644 358.506 C 462.22 375.904 463.848 389.524 464.36 406.595 L 465.737 454.236 C 465.93 461.787 465.613 477.188 467.276 483.526 C 474.635 488.144 529.317 484.994 537.986 478.852 C 541.863 469.49 537.558 439.51 538.656 427.906 C 541.525 397.594 540.582 368.525 539.883 338.28 C 539.233 310.186 542.042 281.936 540.127 253.588 C 539.285 241.139 544.062 223.726 543.5 210.868 C 542.736 190.185 540.486 171.487 542.05 150.771 C 562.899 151.305 566.446 152.442 588.396 149.401 z" fill="rgb(244,237,222)" transform="translate(0,0)"></path>
<path d="M 537.867 500.364 C 538.095 500.347 538.322 500.321 538.55 500.311 C 543.109 500.116 547.887 500.922 552.487 501.035 C 569.211 501.449 587.328 499.77 603.242 505.68 C 613.559 509.512 623.304 515.665 633.357 520.243 C 645.589 525.812 658.098 530.87 668.262 539.937 C 683.226 553.285 706.913 590.898 713.775 609.169 C 716.957 617.64 718.579 627.162 719.144 636.167 C 721.579 674.908 715.449 699.569 695.576 732.666 C 689.812 742.265 684.156 751.922 676.651 760.299 C 661.438 777.28 614.849 802.839 592.245 804.107 C 581.62 804.483 571.124 806.279 560.508 806.716 C 530.757 807.938 502.989 798.332 479.082 780.929 C 468.177 772.992 442.328 741.026 435.472 729.207 C 430.824 721.196 427.988 712.177 423.733 703.944 C 418.621 694.051 411.824 684.204 410.226 672.96 C 409.102 665.052 409.827 656.551 409.543 648.553 C 409.227 639.678 408.299 630.886 408.988 621.995 C 411.104 594.676 426.544 569.37 443.231 548.373 C 465.263 520.649 503.305 504.19 537.867 500.364 z" fill="rgb(34,30,26)" transform="translate(0,0)"></path>
<path d="M 532.709 509.321 C 540.824 508.343 548.314 510.055 556.385 509.942 C 596.878 509.376 591.795 510.592 627.636 526.907 C 637.33 531.32 647.569 535.026 656.411 541.061 C 677.478 555.441 704.234 600.309 708.851 625.067 C 710.601 634.448 710.435 643.952 710.333 653.455 C 709.916 692.615 698.864 713.118 677.4 744.419 C 673.274 750.435 668.78 756.205 663.227 760.982 C 649.274 772.985 614.185 791.637 596.01 795.091 C 550.847 798.969 522.645 802.139 483.94 773.663 C 473.074 765.668 449.786 736.654 443.122 724.616 C 438.22 715.76 435.136 705.898 430.453 696.912 C 426.208 688.767 420.742 682.377 419.44 672.959 C 418.296 664.685 418.361 656.077 418.105 647.725 C 416.923 609.178 424.594 587.388 448.296 556.418 C 467.778 530.964 501.111 513.594 532.709 509.321 z" fill="rgb(244,237,222)" transform="translate(0,0)"></path>
<path d="M 549.735 561.891 C 550.527 561.829 551.781 561.685 552.542 561.836 C 554.995 562.323 555.404 563.415 556.528 565.377 C 556.089 567.638 555.709 568.885 553.62 570.146 C 549.947 572.363 545.294 573.705 541.344 575.532 C 527.097 582.118 513.441 589.552 503.818 602.29 C 490.839 619.471 482.604 641.932 485.716 663.639 C 489.047 686.862 504.342 704.788 522.652 718.551 C 540.581 732.028 555.816 733.685 577.655 730.49 C 598.039 727.507 613.246 718.825 625.412 702.27 C 637.361 686.01 644.084 664.284 640.743 644.154 C 636.393 617.938 624.452 598.84 601.71 584.988 C 597.016 582.129 591.666 578.553 586.263 577.292 C 579.587 575.734 565.602 576.997 560.496 572.777 C 559.177 571.687 559.509 571.323 559.341 569.738 L 561.118 567.774 C 565.654 565.896 570.708 566.282 575.552 566.205 C 579.029 566.54 582.42 566.941 585.803 567.844 C 606.637 573.404 628.32 590.555 638.689 609.406 C 650.507 630.914 653.273 656.243 646.376 679.794 C 640.817 698.678 627.078 719.712 609.4 729.222 C 590.982 739.131 559.339 744.346 538.982 737.895 C 519.106 731.597 493.275 706.839 483.849 688.221 C 473.901 668.57 474.536 645.128 481.522 624.67 C 493.634 589.2 518.571 577.243 549.735 561.891 z" fill="rgb(34,30,26)" transform="translate(0,0)"></path>
<path d="M 562.529 627.816 C 564.946 627.673 568.089 627.211 570.17 628.805 C 571.402 629.749 572.098 630.438 573.548 630.93 C 574.011 631.087 574.483 631.215 574.946 631.372 C 580.609 633.285 586.523 639.111 588.918 644.517 C 591.373 650.062 591.774 656.957 589.252 662.574 C 586.524 668.648 581.349 673.899 575.043 676.178 C 574.109 676.515 573.161 676.822 572.225 677.158 C 568.891 677.165 565.514 677.247 562.233 676.565 C 555.791 675.226 549.81 671.55 546.184 665.974 C 543.012 661.096 541.855 654.681 543.291 649.002 C 545.389 640.711 551.888 634.249 558.994 629.936 L 562.529 627.816 z" fill="rgb(34,30,26)" transform="translate(0,0)"></path>
<path d="M 564.776 635.63 C 565.42 635.85 566.12 636.017 566.666 636.444 C 567.736 637.28 568.734 638.176 570.058 638.582 C 574.539 639.959 578.662 642.233 581.048 646.488 C 583.053 650.062 583.523 654.093 582.273 658.001 C 580.847 662.457 577.826 666.229 573.555 668.228 L 571.199 669.309 C 569.148 669.162 567.037 669.144 565.005 668.837 C 560.45 668.147 555.938 665.629 553.278 661.815 C 551.19 658.818 550.524 655.068 551.21 651.497 C 552.639 644.068 558.89 639.545 564.776 635.63 z" fill="rgb(67,82,254)" transform="translate(0,0)"></path>
<path d="M 856.279 494.219 C 859.696 493.813 863.67 493.006 866.979 494.336 C 873.317 496.885 880.276 502.004 882.759 508.574 C 885.134 514.859 885.009 522.461 882.021 528.506 C 878.606 535.417 871.828 538.348 864.897 540.53 C 860.231 540.373 856.041 540.244 851.614 538.605 C 845.728 536.427 840.038 531.913 837.494 526.073 C 835.436 521.349 835.314 516.377 837.258 511.586 C 841.108 502.095 847.262 498.114 856.279 494.219 z" fill="rgb(34,30,26)" transform="translate(0,0)"></path>
<path d="M 858.345 502.162 C 861.844 501.848 864.247 501.563 867.494 502.962 C 871.493 504.685 874.338 508.572 875.797 512.558 C 877.15 516.257 877.309 520.904 875.469 524.463 C 873.289 528.68 870.052 530.941 865.494 532.17 C 864.422 532.458 863.34 532.716 862.268 533.007 C 859.624 532.851 857.089 532.611 854.564 531.753 C 850.133 530.248 846.73 527.287 844.832 522.992 C 843.596 520.128 843.571 516.886 844.763 514.003 C 847.422 507.715 852.378 504.792 858.345 502.162 z" fill="rgb(67,82,254)" transform="translate(0,0)"></path>
<path d="M 274.165 492.111 C 275.606 492.016 277.068 491.908 278.513 491.969 C 279.825 492.024 281.059 492.612 281.882 493.645 C 282.699 494.672 283.386 495.519 284.414 496.341 C 290.239 500.998 296.227 506.058 297.165 513.993 C 297.831 519.63 296.111 525.156 292.557 529.557 C 287.745 535.514 282.064 537.531 274.767 538.42 C 270.884 538.123 267.569 537.996 264.003 536.249 C 258.114 533.363 253.71 528.863 251.653 522.585 C 249.82 516.991 248.816 511.77 251.76 506.408 C 256.499 497.774 265.277 494.632 274.165 492.111 z" fill="rgb(34,30,26)" transform="translate(0,0)"></path>
<path d="M 275.339 499.995 C 278.306 500.719 280.031 503.611 282.377 505.395 C 285.203 507.544 287.795 509.423 288.824 513.008 C 289.831 516.519 288.881 520.488 287.002 523.511 C 284.632 527.323 280.812 529.288 276.481 530.046 C 275.407 530.235 274.318 530.38 273.241 530.554 C 271.466 530.184 269.705 529.851 268 529.214 C 263.901 527.684 260.22 524.157 258.647 520.046 C 257.461 516.946 257.43 513.462 258.919 510.476 C 261.577 505.145 266.774 502.56 272.23 500.903 C 273.262 500.59 274.306 500.308 275.339 499.995 z" fill="rgb(67,82,254)" transform="translate(0,0)"></path>
<path d="M 1774.41 1530.44 C 1798.63 1530.54 1822.79 1531.42 1846.99 1531.55 C 1856.67 1531.6 1866.32 1530.31 1875.99 1530.74 C 1902.69 1531.93 1919.92 1532.48 1942.55 1548.18 C 1948.66 1552.43 1954.87 1556.77 1959.86 1562.35 C 1973.69 1577.84 1982.41 1603.26 1980.95 1623.97 C 1979.38 1646.28 1971.92 1670.06 1954.34 1685.04 C 1946.17 1692.01 1936.2 1695.83 1926.29 1699.61 C 1904.36 1707.96 1883.2 1712.89 1859.48 1710.49 C 1849.84 1709.51 1840.47 1707.48 1830.76 1706.78 C 1820.48 1705.82 1809.98 1705.01 1799.65 1705.24 C 1756.64 1706.17 1691.68 1717.36 1656.51 1688.36 C 1638.09 1673.18 1626.23 1651.9 1624.27 1628.06 C 1622.39 1603.29 1630.39 1578.78 1646.53 1559.9 C 1661.41 1542.72 1686.8 1532.76 1709.19 1531.49 C 1719.65 1530.9 1730.29 1532.27 1740.79 1532.25 C 1752.1 1532.23 1763.14 1531.3 1774.41 1530.44 z" fill="rgb(34,30,26)" transform="translate(0,0)"></path>
<path d="M 1789.27 1537.57 C 1807.96 1536 1827.32 1537.87 1846.09 1538.26 C 1854.58 1538.43 1862.94 1537.52 1871.4 1537.45 C 1881.39 1537.38 1891.7 1538.54 1901.66 1539.38 C 1921.3 1541.02 1942.55 1552.41 1955.27 1567.61 C 1968.74 1583.73 1975.4 1607.42 1973.48 1628.12 C 1971.64 1647.95 1964.08 1668.59 1948.12 1681.45 C 1940.46 1687.62 1930.73 1690.77 1921.58 1693.94 C 1913.3 1696.81 1904.74 1700.14 1896.14 1701.84 C 1870.9 1706.83 1842.31 1700.76 1816.99 1698.03 C 1802.29 1697.46 1788.13 1698.49 1773.47 1699.19 C 1764.08 1699.64 1754.65 1699.22 1745.24 1699.51 C 1713.89 1700.51 1681.73 1702.05 1657.04 1679.31 C 1641.03 1664.56 1631.79 1645.03 1631 1623.28 C 1630.31 1600.63 1638.55 1578.61 1653.93 1561.96 C 1666.99 1548.07 1691.78 1539.75 1710.47 1538.83 C 1722.36 1538.25 1734.55 1539.59 1746.51 1539.4 C 1760.75 1539.16 1775.02 1537.98 1789.27 1537.57 z" fill="rgb(67,82,254)" transform="translate(0,0)"></path>
<path d="M 1270.8 1527.42 C 1295.68 1528.06 1320.64 1527.63 1345.53 1527.93 C 1358.17 1528.08 1369.75 1527.08 1382.24 1529.98 C 1390.67 1531.93 1398.07 1535.79 1405.38 1540.33 C 1425.8 1553.04 1444.8 1573.51 1450.27 1597.52 C 1456.04 1622.89 1450.8 1646.92 1436.76 1668.8 C 1424.67 1687.64 1418.42 1685.36 1402.16 1696.23 C 1396.88 1699.76 1392.53 1704.64 1386.43 1706.85 C 1379.73 1709.27 1371.12 1708.7 1363.94 1710.22 C 1363.43 1710.31 1362.92 1710.41 1362.41 1710.48 C 1352.35 1711.98 1340.63 1709.19 1330.37 1709 C 1311.05 1708.64 1291.17 1710.91 1272 1709.83 C 1257.32 1709.01 1233.02 1704.17 1221.34 1695.14 C 1197.21 1676.51 1183.91 1657 1180.17 1625.97 C 1177.61 1604.7 1184.1 1578.29 1197.53 1561.42 C 1207.2 1549.27 1232.89 1534.58 1247.96 1530.56 C 1255.24 1528.62 1263.31 1528.33 1270.8 1527.42 z" fill="rgb(34,30,26)" transform="translate(0,0)"></path>
<path d="M 1274.61 1564.46 C 1280.53 1564.06 1287.29 1565.82 1293.37 1565.87 C 1306.88 1565.98 1320.52 1566.44 1334.01 1566.13 C 1347.57 1565.81 1360.55 1563.71 1374.05 1566.45 C 1380.32 1567.72 1387.75 1572.11 1392.65 1576.26 C 1403.39 1585.34 1411.87 1599.93 1412.97 1614.07 C 1414.03 1627.65 1410 1640.29 1401.16 1650.64 C 1388.8 1665.1 1374.61 1669.15 1356.25 1670.64 C 1347.67 1670.98 1338.97 1670.47 1330.36 1670.63 C 1314.83 1670.93 1299.39 1671.88 1283.87 1672.56 C 1265.27 1673.38 1246.32 1667.13 1232.6 1654.25 C 1222.71 1644.96 1217.04 1633.58 1216.65 1619.94 C 1216.22 1605.18 1220.96 1593.04 1231.15 1582.39 C 1244.91 1568 1255.17 1564.85 1274.61 1564.46 z" fill="rgb(67,82,254)" transform="translate(0,0)"></path>
<path d="M 1602.67 101.582 C 1603.44 111.004 1602.3 119.325 1605.59 128.759 C 1609.57 140.176 1621.37 153.55 1632.35 158.658 C 1641.69 163.006 1657.37 161.984 1667.47 158.175 C 1681.87 152.747 1695.34 138.787 1699.72 123.915 C 1701.29 118.556 1699.72 106.983 1702.64 100.368 C 1704.3 99.2593 1779.72 96.5562 1785.57 99.2971 C 1793.47 103.001 1789.75 120.702 1789.76 127.924 C 1789.82 159.735 1779.36 174.815 1763.03 200.628 C 1747.39 221.343 1711.02 247.007 1685.6 250.865 C 1651.11 256.1 1623.97 254.646 1591.86 240.292 C 1583.24 236.436 1574.72 232.293 1567.12 226.63 C 1527.69 197.245 1514.08 160.737 1507.67 113.542 C 1507.12 109.48 1506.65 104.056 1509.48 100.697 C 1511.5 98.3093 1539.54 98.9718 1544.95 98.4398 C 1554.81 98.2812 1562.4 99.8032 1571.89 100.256 C 1585.15 100.888 1589.75 98.5666 1602.67 101.582 z" fill="rgb(34,30,26)" transform="translate(0,0)"></path>
<path d="M 1708.04 106.469 C 1726.93 107.565 1765.86 101.684 1781.83 105.464 C 1786.42 110.964 1783.09 120.956 1783.05 127.522 C 1782.86 154.095 1777.24 165.75 1763.07 187.464 C 1735.63 233.76 1676.6 256.717 1624.31 244.58 C 1552.08 227.815 1519.97 175.9 1514.41 105.468 C 1524.66 106.031 1532.3 106.143 1542.57 105.435 C 1550.29 104.59 1555.46 105.69 1563.01 106.937 C 1573.71 108.703 1585.76 106.679 1596.71 106.37 C 1596.59 109.282 1596.5 112.196 1596.44 115.11 C 1595.82 143.265 1620.35 167.365 1648.6 167.675 C 1664.83 167.757 1680.43 161.416 1692 150.037 C 1704.93 137.226 1708.09 123.877 1708.04 106.469 z" fill="rgb(67,82,254)" transform="translate(0,0)"></path>
<path d="M 1287.6 63.4826 C 1290.6 63.235 1291.84 64.1082 1293.89 65.5766 C 1298.97 74.242 1296.55 104.579 1296.83 116.009 C 1295.97 126.422 1299.28 143.769 1297.52 153.214 C 1292.05 182.513 1296.29 208.675 1296.01 237.498 C 1278.87 239.172 1257.69 237.722 1240.01 239.166 C 1233.32 239.713 1223.44 237.383 1216.1 237.75 C 1192.22 238.945 1167.45 240.366 1143.62 238.048 C 1137.9 238.194 1132.21 239.051 1127.11 237.072 C 1117.61 227.229 1137.37 169.585 1142.14 155.482 C 1144.07 149.764 1159.19 131.999 1163.78 126.037 C 1190.64 91.1492 1244.32 67.4647 1287.6 63.4826 z" fill="rgb(34,30,26)" transform="translate(0,0)"></path>
<path d="M 1284.53 70.3289 C 1288.45 70.2428 1287.17 69.4957 1289.4 71.3654 C 1291.55 85.4143 1289.88 101.763 1290.06 116.002 C 1289.75 127.901 1291.8 141.313 1290.72 153.076 C 1288.92 172.645 1286.21 191.024 1288.32 210.807 C 1288.99 217.07 1288.97 224.753 1289.25 231.221 C 1273.24 230.832 1259.92 231.67 1243.99 232.339 C 1235.01 232.371 1225.76 230.891 1216.81 231.167 C 1193.22 231.894 1167.72 233.897 1144.25 231.402 C 1140.53 231.16 1134.71 231.584 1130.82 231.739 C 1131.41 215.637 1140.68 173.169 1148.7 158.28 C 1167.89 122.666 1204.56 93.1698 1243.35 81.4794 C 1261.69 75.9522 1265.27 72.5027 1284.53 70.3289 z" fill="rgb(67,82,254)" transform="translate(0,0)"></path>
<path d="M 2198.02 1538.39 C 2234.63 1538.93 2271.36 1538.22 2307.96 1537.98 C 2312.97 1537.94 2349 1537.33 2351.26 1540.15 C 2354.42 1544.09 2353.9 1552.54 2353.67 1557.4 C 2352.25 1588.46 2335.2 1623.66 2314.98 1646.83 C 2309.28 1653.36 2302.34 1658.8 2295.92 1664.6 C 2286.5 1672.52 2275.86 1681.09 2265.25 1687.31 C 2253.73 1694.06 2200.79 1710.83 2188.3 1706.91 C 2187.08 1706.53 2186.18 1706.28 2185.64 1705.03 C 2182.73 1698.35 2186.64 1621.95 2186.56 1608.59 C 2186.48 1595.56 2183.34 1582.76 2183.49 1569.68 C 2183.6 1560.72 2183 1549.36 2186.13 1540.94 C 2189.37 1538.23 2193.85 1538.76 2198.02 1538.39 z" fill="rgb(34,30,26)" transform="translate(0,0)"></path>
<path d="M 2257.27 1544.42 C 2266.64 1543.66 2276.14 1545.23 2285.51 1545.35 C 2305.78 1545.6 2326.26 1545.02 2346.56 1545.03 C 2346.85 1552.49 2346.74 1559.81 2345.39 1567.19 C 2343.7 1576.41 2340.45 1585.09 2337.26 1593.88 C 2322.33 1635.09 2297.57 1657.06 2262.41 1681.16 C 2248.13 1689.56 2208.47 1699.23 2191.87 1700.4 C 2191.57 1687.54 2192.71 1674.82 2192.86 1661.98 C 2192.95 1653.63 2192.18 1645.27 2192.5 1636.92 C 2192.88 1627.02 2194.21 1617.09 2194.36 1607.18 C 2194.5 1598.42 2191.57 1589.92 2191.04 1581.19 C 2190.31 1569.18 2191.85 1557.14 2191.76 1545.11 C 2213.33 1545.3 2235.83 1546.51 2257.27 1544.42 z" fill="rgb(67,82,254)" transform="translate(0,0)"></path>
<metadata><recraft-signature>{"signed_by": "recraft", "signature_b64": "vbPkYuFzJUTsqlKTz2nzXah5CA9yU7z8XX2/LTgT304OHF6IPR6X7LHVsceUHyqG30MTNhTV3oFJs9v6fLAcAw==", "signing_algo": "Ed25519", "generation_timestamp": 1782911648, "identifier": "fc7641fd-aa40-4ce8-9bb8-12e100aeec44"}</recraft-signature></metadata></svg>