<svg xmlns="http://www.w3.org/2000/svg" height="1792" preserveAspectRatio="none" style="display: block;" version="1.1" viewBox="0 0 2432 1792" width="2432">
<path d="M 0 0 L 2432 0 L 2432 1792 L 0 1792 L 0 0 z" fill="rgb(244,237,222)" transform="translate(0,0)"></path>
<path d="M 1117 457.962 L 1116.87 406.499 C 1116.72 293.624 1150.41 259.582 1265.5 260.745 C 1351.75 261.617 1436.36 254.644 1523.32 260.521 C 1575.3 264.034 1638.44 241.278 1684.68 285.392 C 1718.3 317.615 1717.28 364.593 1718.51 407.397 C 1719.75 450.84 1723.22 496.419 1723.28 539.785 C 1737.15 526.647 1745.25 522.773 1763.01 516.275 C 1770.64 513.485 1772.08 508.588 1782.77 508.862 C 1823.38 509.9 1821.92 582.189 1824.85 610.84 C 1857.71 591.545 1888.06 606.189 1912.88 630.607 C 1913.15 613.593 1913.78 596.586 1914.75 579.598 C 1916.3 546.992 1915.97 512.935 1940.91 487.528 C 1963.43 464.588 1996.78 466.563 2018.45 489.717 C 2023.83 495.466 2027.36 502.223 2031.43 508.999 C 2033.82 469.845 2034.51 427.666 2043.49 389.345 C 2045.41 381.124 2052.64 368.057 2059.4 362.474 C 2092.81 340.336 2124.11 346.623 2147.53 378.869 C 2183.69 428.647 2143.16 478.586 2142.81 532.465 C 2142.53 575.164 2168.21 601.057 2165.6 641.045 C 2164.53 656.867 2161.81 672.535 2157.5 687.795 C 2149.62 716.143 2138.07 740.762 2140.05 771.298 C 2140.97 784.322 2143.96 797.117 2148.9 809.202 C 2158.79 832.871 2164.16 834.202 2165.12 861.645 C 2166.72 907.383 2142.39 943.489 2141.34 987.602 C 2140.65 1024.9 2164.15 1053.26 2164.91 1090.99 C 2165.7 1130.32 2146.54 1161.72 2143.66 1199.87 C 2140.69 1239.24 2161.48 1270.16 2164.86 1307.93 C 2168.79 1351.89 2145.07 1391.02 2142.29 1433.88 C 2141.48 1458.35 2154.2 1480.31 2160.66 1503.14 C 2164.63 1517.18 2163.73 1531.86 2165.23 1546.2 C 2166 1553.45 2163.62 1557.29 2156.61 1558.66 C 2147.31 1560.58 2134.36 1561.12 2124.94 1559.92 C 2096.75 1556.33 2066.45 1575.7 2047.64 1545.86 C 2046.47 1546.79 2045.29 1547.72 2044.11 1548.64 C 2026.55 1562.2 2013.81 1559 1993.34 1556.4 C 1992.5 1561.74 1990.98 1564.4 1985.47 1564.59 C 1977.67 1560.85 1958.29 1508.29 1954.09 1498.09 L 1897.28 1360.29 C 1900.77 1341.35 1900.26 1321.57 1904.09 1302.52 C 1929.56 1175.64 1940.58 1040.21 1897 915.885 C 1884.11 879.113 1867.7 847.427 1859.09 808.632 C 1854.8 789.343 1841.7 764.273 1837.48 744.036 C 1832.35 719.359 1824.93 694.369 1820.55 669.725 C 1744.79 699.012 1749.78 596.501 1750.45 549.905 C 1750.53 544.077 1753.06 535.118 1754.48 529.189 C 1732.61 540.071 1724.76 555.846 1711.47 574.679 C 1690.38 604.57 1679.69 640.042 1676.92 676.29 C 1675.57 693.912 1678.39 713.626 1678.21 731.417 C 1678.8 775.98 1695.68 816.372 1709.55 857.885 C 1716.49 880.442 1719.24 904.311 1725.09 927.094 C 1729.56 944.537 1729.24 960.514 1730.22 978.271 C 1665.67 1040.53 1638.78 1125.84 1630.04 1213.35 C 1625.84 1238.79 1626.42 1258.61 1629.21 1284.04 C 1632.18 1311.08 1651.93 1338.82 1656.04 1361.86 C 1654.69 1365.73 1655.78 1364.1 1652.49 1366.82 C 1644.58 1367.36 1642.23 1353.79 1638.99 1347.71 C 1619.68 1311.39 1612.83 1281.09 1614.17 1240.16 C 1602.63 1241.38 1587.95 1245.29 1576.77 1245.65 C 1560.07 1246.19 1543.13 1244.83 1526.2 1245.26 C 1477.88 1246.92 1429.55 1248.09 1381.21 1248.75 C 1358.84 1249.04 1336.86 1249.06 1314.51 1248.37 C 1298.48 1247.87 1279.9 1249.91 1263.67 1251.02 C 1276.22 1264.69 1281.77 1275.19 1292.25 1287.61 C 1313.07 1312.25 1335.44 1339.59 1359.4 1361.15 C 1373.53 1373.86 1401.34 1395.23 1417.84 1404.89 C 1446.15 1421.04 1476.08 1436.85 1501.66 1457.04 C 1505.62 1461.12 1510.25 1469.67 1512.54 1474.52 C 1518.94 1488.06 1557.91 1551.53 1551.3 1563.6 C 1545.92 1565.92 1542.41 1563.94 1540.39 1558.55 C 1528.1 1525.81 1508.76 1496.92 1494.05 1465.83 C 1471.78 1451.86 1449.44 1437.31 1426.42 1424.84 C 1361.21 1389.54 1309.9 1333.09 1266.15 1274.23 C 1260.45 1266.56 1254.26 1259.54 1248.03 1252.28 C 1220.58 1251.61 1195.61 1244.39 1172.54 1228.85 C 1151.11 1214.41 1136.65 1185.77 1131.87 1160.98 C 1129.82 1150.31 1128.43 1131.34 1123.91 1121.95 C 1088.56 1115.58 1039.9 1103.99 1022.55 1069.49 C 1003.78 1032.17 1014.73 993.102 1052.49 973.842 C 1073.67 963.041 1102.16 973.317 1123.41 980.218 L 1124.26 978.342 C 1124.12 976.974 1123.44 970.953 1122.58 970.441 C 1111.94 964.112 1088.17 959.571 1077.25 955.498 C 1059 948.692 1026.82 931.451 1016.93 915.018 C 1008.88 901.636 1004.05 869.827 1008.37 854.329 C 1014.5 832.357 1031.41 820.877 1049.8 809.432 C 1061.42 802.196 1075.65 804.473 1088.23 807.564 L 1091.85 805.525 C 1079.06 801.407 1069.96 797.494 1058.36 790.626 C 1012.3 763.36 1000.53 716.179 1035.6 674.616 C 956.125 678.941 877.727 676.29 798.339 676.753 L 712.499 677.193 C 699.612 677.19 689.475 678.714 676.631 676.901 C 606.363 679.724 536.464 671.342 465.962 675.242 C 443.969 676.459 418.492 673.013 395.516 673.382 C 368.858 677.094 338.497 674.258 311.423 674.924 C 300.623 675.189 265.871 682.159 259.915 673.507 C 260.189 671.075 260.932 670.204 262.531 668.497 C 269.537 661.016 372.237 663.579 387.558 662.988 C 374.887 646.041 366.312 613.382 368.919 592.58 C 372.57 563.441 403.247 555.669 427.993 559.955 C 454.254 564.504 467.895 572.277 488.743 588.132 C 485.931 579.37 481.603 570.312 479.67 561.539 C 472.891 530.771 474.215 494.381 512.938 489.777 L 520.245 488.838 C 525.832 491.226 541.718 497.428 546.411 501.708 C 571.747 524.816 593.666 561.76 604.617 594.212 C 606.015 598.353 606.731 601.919 607.947 605.642 C 627.772 590.108 649.943 569.542 672.121 597.307 C 686.751 615.623 688.922 641.985 683.291 664.107 C 686.315 666.477 799.338 664.228 813.555 664.35 C 818.754 636.248 834.585 621.428 863.481 618.836 L 868.575 618.346 C 885.608 602.573 897.603 590.919 922.911 591.7 C 934.744 592.066 948.736 596.821 957.298 605.451 C 959.887 608.062 964.901 614.967 967.29 616.806 C 987.307 632.213 1002.12 635.313 1007.42 663.354 C 1023.17 662.691 1034.87 662.657 1050.57 662.834 C 1068.83 650.771 1081.32 646.204 1103.2 650.673 C 1108.31 651.73 1113.42 652.831 1118.51 653.974 L 1117.82 638.852 C 1105.39 635.268 1055.77 589.125 1043.64 576.734 C 993.832 525.831 985.453 427.66 1084.58 445.318 C 1095.62 447.285 1106.19 453.175 1117 457.962 z" fill="rgb(34,30,26)" transform="translate(0,0)"></path>
<path d="M 1993.34 1556.4 C 1985.34 1543.4 1970.81 1504.45 1964.17 1489.02 L 1930.26 1411.71 C 1927.1 1404.62 1910.36 1368.83 1910.27 1363.24 C 1909.59 1320.98 1920.75 1274.46 1927.67 1233.11 C 1940.23 1158.01 1944.4 1085.02 1932.89 1009.66 C 1932.19 997.96 1928.14 984.721 1927.81 973.2 C 1926.95 931.183 1932.53 890.515 1932.19 848.317 C 1931.9 813.106 1929.27 780.386 1926.14 745.196 C 1922.02 698.686 1926.75 648.983 1926.73 602.088 C 1926.72 579.221 1927.69 554.213 1931.82 531.97 C 1945.8 470.689 2001.67 464.245 2024.82 524.948 C 2026.11 528.318 2029.84 527.996 2029.97 535.128 L 2030.02 536.888 C 2030.41 557.388 2026.82 568.11 2030.51 590.511 C 2035.15 618.669 2047.49 643.316 2047.23 671.316 C 2046.85 711.709 2029.78 735.298 2029.01 778.481 C 2028.18 825.766 2049.45 846.705 2049.01 891.398 C 2048.6 933.357 2025.97 971.29 2029.1 1014.01 C 2031.52 1047.01 2051.34 1074.82 2050.57 1107.54 C 2050.26 1120.86 2048.45 1143.45 2044.76 1155.8 C 2036.41 1182.56 2027.62 1205.19 2028.72 1234 C 2029.16 1259.63 2040.15 1285.88 2046.03 1309.93 C 2051.89 1333.91 2051.23 1376 2042.79 1398.98 C 2028.08 1439.02 2026.06 1464.04 2037.22 1505.42 C 2039.28 1513.04 2037.2 1527.21 2042.24 1534.78 C 2044.93 1536.59 2044.82 1536.77 2048.19 1536.65 C 2049.77 1535.9 2052.47 1534.7 2052.74 1532.54 C 2055.38 1511.6 2039.71 1474.9 2042.29 1455.06 C 2047.28 1416.67 2063.02 1391.3 2063.24 1350 C 2063.46 1333.85 2061.5 1317.74 2057.41 1302.1 C 2052.09 1281.81 2041.89 1255.58 2041.75 1234.48 C 2041.45 1188.96 2063.09 1161.34 2064.14 1112.69 C 2065.1 1068.64 2043.64 1049.67 2041.77 1011.48 C 2039.85 972.243 2062.09 933.729 2062.07 890.874 C 2062.05 848.18 2045.92 831.712 2041.96 791.994 C 2037.48 746.981 2058.81 717.178 2060.07 673.594 C 2061.11 637.557 2045.27 614.528 2042.22 581.353 C 2040.57 551.186 2042.82 515.726 2045.45 485.968 C 2047.86 458.601 2045.88 415.886 2054.84 391.303 C 2070.77 347.604 2123.5 353.818 2142.32 393.585 C 2159.27 429.409 2145.59 454.015 2136.19 489.554 C 2124.51 532.235 2130.88 564.669 2148.24 604.042 C 2158.5 627.296 2150.63 667.024 2143.42 690.824 C 2129.8 729.862 2119.98 766.668 2134.48 807.855 C 2138.51 819.309 2149.33 837.615 2151.25 848.968 C 2158.9 894.196 2130.05 937.544 2128.77 984.816 C 2127.53 1030.47 2151.32 1052.23 2151.76 1092.71 C 2152.22 1135.11 2131.24 1162.39 2131.27 1207.25 C 2131.3 1257.94 2154.97 1278.72 2150.89 1328.58 C 2148.21 1367.32 2128.45 1400.59 2130.2 1440.22 C 2131.32 1465.78 2143.29 1484.35 2148.82 1508.72 C 2152.25 1523.88 2146.68 1547.52 2156.61 1558.66 C 2147.31 1560.58 2134.36 1561.12 2124.94 1559.92 C 2096.75 1556.33 2066.45 1575.7 2047.64 1545.86 C 2046.47 1546.79 2045.29 1547.72 2044.11 1548.64 C 2026.55 1562.2 2013.81 1559 1993.34 1556.4 z" fill="rgb(35,41,252)" transform="translate(0,0)"></path>
<path d="M 1091.85 805.525 C 1093.94 805.998 1106.7 810.295 1107.07 811.371 L 1106.89 811.462 C 1106.5 811.133 1106.12 810.805 1105.73 810.476 L 1105.08 811.204 C 1100.29 809.77 1093.4 808.792 1088.23 807.564 L 1091.85 805.525 z" fill="rgb(234,223,200)" transform="translate(0,0)"></path>
<path d="M 1180.84 680.762 C 1181.52 668.722 1180.03 651.867 1179.95 638.844 C 1179.55 594.913 1178.32 550.995 1176.25 507.111 C 1174.53 461.681 1172.85 417.354 1177.97 371.978 C 1181.19 343.407 1202.13 325.561 1229.72 321.376 C 1255.57 317.457 1280.58 317.423 1306.59 316.777 L 1431.86 314.74 L 1538 311.074 C 1568.77 310.177 1628.12 305.026 1647.7 331.897 C 1666.77 358.062 1667.41 407.589 1668.55 438.536 C 1671.06 506.541 1672.94 574.057 1671.83 642.011 C 1671.74 647.748 1666.96 661.946 1665.61 669.061 C 1663.34 696.687 1663.8 725.12 1665.8 752.893 C 1666.75 765.807 1672.61 780.373 1672.54 793.173 C 1672.27 838.172 1672.98 883.232 1672.81 928.228 C 1672.7 957.215 1669.83 986.825 1670.11 1015.84 C 1670.55 1020.04 1670.93 1024.62 1671.5 1028.77 C 1652.1 1064.04 1637.44 1101.72 1627.9 1140.83 C 1625.06 1152.66 1623.89 1163.86 1621.41 1174.72 C 1606.22 1175.32 1588.52 1176.94 1573.68 1176.79 C 1517.69 1176.22 1462 1175.14 1405.97 1176.44 L 1292.15 1179.17 C 1238.5 1180.58 1200.05 1191.97 1183.02 1129.05 C 1213.96 1129.55 1242.4 1103.14 1242.5 1071.51 C 1242.56 1053.84 1232.96 1038.07 1220.62 1025.98 L 1220.04 1025.41 C 1204.84 1014.55 1197.72 1010.58 1180.81 1003.62 C 1180.21 995.429 1180.38 986.687 1180.38 978.434 C 1193.61 976.304 1210.12 970.363 1222.07 964.157 C 1254.06 947.553 1254.82 905.239 1238.6 877.041 C 1227.22 857.265 1202.82 844.898 1181.24 838.906 C 1181.12 835.722 1181.05 832.537 1181.03 829.351 C 1181.06 814.765 1195.7 821.503 1205.89 815.518 C 1240.49 795.197 1250.26 749.096 1225.21 717.169 C 1212.22 700.615 1193.25 693.945 1180.84 680.762 z" fill="rgb(35,41,252)" transform="translate(0,0)"></path>
<path d="M 1180.84 680.762 C 1181.52 668.722 1180.03 651.867 1179.95 638.844 C 1179.55 594.913 1178.32 550.995 1176.25 507.111 C 1174.53 461.681 1172.85 417.354 1177.97 371.978 C 1181.19 343.407 1202.13 325.561 1229.72 321.376 C 1255.57 317.457 1280.58 317.423 1306.59 316.777 L 1431.86 314.74 L 1538 311.074 C 1568.77 310.177 1628.12 305.026 1647.7 331.897 C 1666.77 358.062 1667.41 407.589 1668.55 438.536 C 1671.06 506.541 1672.94 574.057 1671.83 642.011 C 1671.74 647.748 1666.96 661.946 1665.61 669.061 C 1634.84 663.872 1622.55 666.203 1592.21 666.911 L 1508.52 669.12 C 1486.87 669.784 1462.87 668.051 1441.56 669.388 C 1421.51 670.646 1403.49 674.201 1382.76 674.664 C 1364 675.083 1337.37 672.574 1320.49 672.754 C 1291.56 673.061 1204.54 670.642 1180.84 680.762 z" fill="rgb(244,237,222)" transform="translate(0,0)"></path>
<path d="M 1371.66 389.198 C 1373.25 389.379 1378.16 390.001 1378.41 391.924 C 1380.69 410.074 1379.92 429.33 1380.33 447.731 L 1382.89 571.74 C 1383.36 587.558 1384.35 602.826 1385.54 618.623 C 1385.67 620.336 1384.64 623.077 1383.93 624.716 C 1379.75 625.462 1378.4 625.508 1375.06 623.563 C 1366.95 611.34 1373.08 489.428 1370.01 465.079 C 1368.65 454.316 1369.89 398.987 1371.66 389.198 z" fill="rgb(34,30,26)" transform="translate(0,0)"></path>
<path d="M 1413.82 426.461 L 1418.17 427.689 C 1422.42 432.077 1421.02 445.638 1421.47 452.342 C 1424.01 490.528 1422.37 528.911 1422.36 567.145 C 1422.36 569.637 1420.45 572.561 1419.08 574.531 C 1417.14 574.152 1414.78 573.745 1413.2 572.626 C 1411.36 571.328 1410.63 568.579 1410.5 566.378 C 1408.82 538.048 1410.2 509.396 1410.89 481.074 C 1411.27 465.2 1409.89 448.939 1410.72 432.997 C 1410.87 430.168 1412.09 428.608 1413.82 426.461 z" fill="rgb(34,30,26)" transform="translate(0,0)"></path>
<path d="M 1517 441.745 C 1522.41 441.537 1523.39 440.754 1526.62 445.177 C 1527.44 449.894 1527.51 463.889 1527.42 468.775 C 1527.14 483.501 1530.85 548.929 1524.71 558.547 C 1519.71 558.74 1518.5 558.882 1515.42 554.815 C 1513.23 540.949 1516.39 508.445 1516.4 492.967 C 1516.41 483.359 1514.82 448.884 1517 441.745 z" fill="rgb(34,30,26)" transform="translate(0,0)"></path>
<path d="M 1332.93 449.321 C 1335.88 449.472 1339.08 449.7 1339.44 453.378 C 1340.28 462.188 1340.08 471.326 1339.97 480.192 C 1339.63 506.387 1341.91 532.624 1341.08 558.781 C 1340.99 561.589 1339.38 564.142 1337.83 566.385 C 1334.64 565.557 1331.12 564.496 1330.89 560.559 C 1329.84 542.491 1325.75 460.806 1332.93 449.321 z" fill="rgb(34,30,26)" transform="translate(0,0)"></path>
<path d="M 1451.65 465.674 C 1455.13 465.74 1459.98 465.115 1460.73 470.471 C 1461.38 478.95 1461.37 488.106 1461.19 496.651 C 1460.96 507.528 1465.41 524.956 1459.98 533.994 C 1449.73 533.763 1449.23 530.771 1449.87 520.836 C 1450.73 507.254 1445.96 477.246 1451.65 465.674 z" fill="rgb(34,30,26)" transform="translate(0,0)"></path>
<path d="M 1554.57 465.398 C 1556.75 465.564 1562.16 465.474 1562.28 468.974 C 1562.97 488.834 1563.7 508.575 1565.14 528.439 C 1565.28 530.414 1562.82 534.668 1561.91 536.261 C 1561.49 536.233 1561.08 536.198 1560.66 536.175 C 1558.97 536.081 1557.36 536.168 1555.88 535.247 C 1554.67 534.493 1554.08 533.385 1553.77 532.032 C 1552.33 525.651 1550.88 470.996 1553.17 467.597 C 1553.34 467.355 1553.51 467.124 1553.67 466.877 C 1553.98 466.39 1554.27 465.891 1554.57 465.398 z" fill="rgb(34,30,26)" transform="translate(0,0)"></path>
<path d="M 1297.67 477.355 C 1299.62 477.886 1303.84 478.853 1303.67 481.632 C 1302.78 495.842 1309.77 527.79 1302.74 539.439 C 1300.87 538.792 1295.27 537.239 1295.42 534.554 C 1296.1 522.272 1292.94 486.895 1297.67 477.355 z" fill="rgb(34,30,26)" transform="translate(0,0)"></path>
<path d="M 1248.87 501.276 C 1252.47 500.946 1275.68 500.218 1276.93 501.382 C 1285.77 509.631 1271.43 510.31 1269.02 510.559 C 1264.3 510.904 1243.59 513.018 1241.64 511.485 C 1231.99 503.872 1245.96 501.782 1248.87 501.276 z" fill="rgb(34,30,26)" transform="translate(0,0)"></path>
<path d="M 1488.79 480.363 C 1491.83 481.932 1494.69 483.8 1495.05 487.484 C 1496.06 497.872 1499.28 510.031 1494.37 519.561 C 1480.23 518.263 1488.07 508.975 1485.83 496.408 C 1484.74 490.243 1485.36 485.427 1488.79 480.363 z" fill="rgb(34,30,26)" transform="translate(0,0)"></path>
<path d="M 1597.56 489.465 C 1599.35 489.397 1600.64 489.648 1602.01 490.934 C 1603.3 492.145 1604.01 493.841 1603.98 495.606 C 1603.81 503.183 1590.46 500.812 1586.06 500.301 C 1581.67 499.995 1571.71 500.79 1575.63 492.581 C 1576.88 489.97 1594.16 489.794 1597.56 489.465 z" fill="rgb(34,30,26)" transform="translate(0,0)"></path>
<path d="M 1670.11 1015.84 C 1670.55 1020.04 1670.93 1024.62 1671.5 1028.77 C 1652.1 1064.04 1637.44 1101.72 1627.9 1140.83 C 1625.06 1152.66 1623.89 1163.86 1621.41 1174.72 C 1606.22 1175.32 1588.52 1176.94 1573.68 1176.79 C 1517.69 1176.22 1462 1175.14 1405.97 1176.44 L 1292.15 1179.17 C 1238.5 1180.58 1200.05 1191.97 1183.02 1129.05 C 1213.96 1129.55 1242.4 1103.14 1242.5 1071.51 C 1242.56 1053.84 1232.96 1038.07 1220.62 1025.98 L 1220.04 1025.41 C 1234.08 1025.58 1248.5 1025.52 1262.5 1025.99 C 1277.1 1026.48 1292.42 1028.57 1307.13 1028.53 C 1344.57 1028.43 1381.14 1027.59 1418.54 1026.06 C 1442.17 1025.09 1469.26 1027.12 1492.9 1025.92 C 1515.45 1024.79 1537.77 1022.65 1560.45 1021.79 C 1590.56 1020.65 1641.85 1025 1670.11 1015.84 z" fill="rgb(244,237,222)" transform="translate(0,0)"></path>
<path d="M 1403.52 1144.45 C 1413.19 1142.24 1414.11 1156.39 1402.5 1156.29 C 1380.04 1156.1 1357.79 1155.65 1335.32 1157.01 C 1329.52 1154.71 1320.08 1148.84 1332.53 1145.26 C 1335.9 1144.29 1353.18 1145.39 1358.33 1145 C 1373.33 1143.86 1388.2 1145.98 1403.52 1144.45 z" fill="rgb(34,30,26)" transform="translate(0,0)"></path>
<path d="M 1494.96 1141.46 C 1506.67 1139.04 1512.08 1150.02 1500.49 1153.85 C 1498.59 1154.48 1494.99 1152.84 1492.49 1153.17 C 1476.54 1155.28 1461.19 1154.84 1445.24 1157.35 C 1440.3 1158.75 1433.21 1157.46 1432.58 1151.6 C 1431.62 1142.74 1448.1 1145.25 1453.41 1144.56 C 1467.18 1142.77 1481.17 1142.28 1494.96 1141.46 z" fill="rgb(34,30,26)" transform="translate(0,0)"></path>
<path d="M 1426.46 752.401 C 1430.99 751.982 1435.96 752.695 1440.32 752.44 C 1474.31 750.449 1474.44 770.125 1481.99 798.481 C 1495.49 796.661 1508.77 792.127 1521.7 787.974 C 1533.05 784.327 1561.53 766.832 1571.36 776.201 C 1574.46 786.276 1572.96 811.023 1573.83 822.581 C 1575.72 847.512 1583.05 914.895 1576.29 936.341 C 1567.43 944.26 1497.43 941.821 1479.91 943.642 L 1478.25 943.823 C 1437.95 947.358 1392.1 947.844 1351.38 948.833 C 1342.97 949.037 1326.14 950.763 1319.05 949.301 C 1317.74 945.747 1316.82 938.765 1316.6 935.017 C 1314.77 904.182 1314.43 873.542 1312.95 842.688 C 1311.77 818.241 1306.89 783.843 1308.44 760.125 C 1309.15 759.387 1309.87 758.649 1310.58 757.911 C 1331.94 753.32 1369.08 756.534 1389.31 755.568 C 1406.68 754.739 1414.38 753.546 1426.46 752.401 z" fill="rgb(34,30,26)" transform="translate(0,0)"></path>
<path d="M 1421.68 765.404 C 1430.82 763.716 1446 763.57 1455.39 766.991 C 1468.9 771.912 1464.5 808.45 1476.2 810 C 1500.58 813.228 1537.77 794.885 1560 786.096 C 1559.96 796.565 1558.88 813.559 1560.12 823.399 C 1564.11 855.23 1565.13 884.501 1565 916.549 C 1555.54 906.381 1547.89 894.31 1538.38 884.139 C 1525.5 870.363 1515.77 872.11 1500.4 878.826 C 1487.42 865.007 1483.71 859.393 1468.71 845.491 C 1464.29 841.546 1460.83 838.951 1455.48 836.501 C 1396.6 809.527 1364.1 893.362 1330.77 926.05 L 1329.65 927.144 C 1330.2 890.315 1329.14 855.437 1325.49 818.802 C 1323.76 801.532 1323.11 785.77 1320.41 768.344 C 1341.3 766.408 1367.46 768.117 1388.69 768.079 C 1398.2 768.062 1411.97 766.37 1421.68 765.404 z" fill="rgb(35,41,252)" transform="translate(0,0)"></path>
<path d="M 1425.76 844.192 C 1463.54 840.097 1470.95 873.966 1496 890.809 C 1500 893.496 1509.67 885.723 1518.37 887.051 C 1528.49 888.595 1552.75 921.08 1558.28 929.484 C 1529.8 931.439 1498.21 928.976 1470.14 931.894 C 1427.31 935.794 1379.24 934.086 1336.6 936.497 C 1359.4 909.402 1393.08 852.847 1425.76 844.192 z" fill="rgb(35,41,252)" transform="translate(0,0)"></path>
<path d="M 1061.27 815.442 C 1084.85 812.235 1144.29 837.798 1167.66 846.615 C 1194.32 856.678 1224.98 865.863 1233.15 896.647 C 1244.2 938.277 1229.07 952.603 1190.77 963.43 C 1162.35 971.813 1145.98 962.564 1119.32 955.457 C 1086.02 946.582 1049.65 936.291 1026.86 908.32 C 1019.73 899.571 1016.22 872.031 1018.46 860.536 C 1022.95 838.268 1043.82 827.334 1061.27 815.442 z" fill="rgb(244,237,222)" transform="translate(0,0)"></path>
<path d="M 1142.95 861.049 C 1154.65 860.078 1166.91 864.608 1177.41 869.695 C 1202.14 881.679 1233.88 901.312 1216.81 933.608 C 1210.36 945.816 1202.74 948.963 1190.28 952.838 C 1171.27 954.162 1148.39 943.126 1132.85 933.115 C 1095.91 909.323 1107.52 875.607 1142.95 861.049 z" fill="rgb(34,30,26)" transform="translate(0,0)"></path>
<path d="M 1144.46 872.213 C 1157.65 871.378 1168.88 877.784 1180.27 883.632 C 1188.72 888.491 1206.78 900.698 1208.52 910.815 C 1211.36 927.352 1200.88 937.411 1185.7 940.746 C 1171.85 940.184 1127.42 921.629 1122.38 907.39 C 1116.25 890.07 1128.53 877.429 1144.46 872.213 z" fill="rgb(35,41,252)" transform="translate(0,0)"></path>
<path d="M 1082.45 659.257 C 1117 655.906 1178.57 691.394 1204.35 713.724 C 1212.27 720.585 1226.11 739.002 1226.64 749.699 C 1228.66 790.52 1207.91 810.609 1170.75 810.069 C 1164.82 810.074 1155.2 807.503 1148.79 806.757 C 1118.69 803.512 1093.7 796.414 1066.81 782.284 C 1006.64 750.653 1018.06 677.294 1082.45 659.257 z" fill="rgb(244,237,222)" transform="translate(0,0)"></path>
<path d="M 1138.86 704.211 C 1156.02 703.727 1168.56 711.389 1183.24 718.566 C 1220.63 736.853 1226.16 791.844 1178.35 800.597 C 1156.26 799.452 1144.95 792.742 1125.7 783.194 C 1084.59 762.798 1100.01 715.596 1138.86 704.211 z" fill="rgb(34,30,26)" transform="translate(0,0)"></path>
<path d="M 1141.73 714.043 C 1156.53 714.593 1177.05 727.337 1188.75 736.288 C 1209.17 751.908 1202.28 787.346 1175 788.49 C 1156.87 785.811 1124.59 772.985 1114.11 757.578 C 1113.13 734.355 1118.79 721.999 1141.73 714.043 z" fill="rgb(35,41,252)" transform="translate(0,0)"></path>
<path d="M 1069.04 981.186 C 1074.87 980.739 1094.27 983.975 1099.59 986.13 C 1132.95 999.633 1171.03 1007.7 1201.87 1026 C 1244.11 1051.07 1237.97 1107.82 1187.7 1117.6 C 1164.53 1119.57 1149.12 1116.19 1127.22 1110.3 C 1103.47 1104.23 1075.21 1099.43 1054.13 1086.24 C 1011.72 1059.69 1017.14 992.313 1069.04 981.186 z" fill="rgb(244,237,222)" transform="translate(0,0)"></path>
<path d="M 1137.86 1017.26 C 1157.99 1015.84 1170.23 1025.93 1187.5 1029.89 C 1224.92 1038.5 1233.08 1096.53 1189.23 1101.72 C 1164.3 1102.75 1143 1095.01 1120.91 1083.63 C 1096.99 1071.31 1100.74 1032.68 1123.93 1021.56 C 1128.39 1019.42 1133.03 1018.41 1137.86 1017.26 z" fill="rgb(34,30,26)" transform="translate(0,0)"></path>
<path d="M 1137.47 1029.27 C 1146.17 1028.7 1156 1031.63 1164.35 1034.46 C 1178.74 1039.51 1200.31 1043.16 1205.93 1059.96 C 1211.92 1077.87 1204.31 1086.18 1188.58 1091.2 C 1167.44 1091.31 1148.01 1082.51 1128.93 1074.25 C 1115.52 1068.45 1111.67 1053.46 1118.94 1041.1 C 1123.88 1032.7 1128.64 1031.31 1137.47 1029.27 z" fill="rgb(35,41,252)" transform="translate(0,0)"></path>
<path d="M 1847.7 614.301 C 1877.44 612.44 1893.94 629.354 1912.66 649.547 C 1911.37 678.163 1909.74 710.707 1912.13 738.872 C 1915.44 777.833 1918.37 813.6 1917.37 852.912 C 1916.67 880.469 1917.51 903.629 1913.61 931.311 L 1909.3 916.252 C 1900.39 888.829 1888.28 862.397 1878.52 835.227 C 1875.39 826.529 1875.06 817.168 1872.31 808.377 C 1864.99 784.977 1856.3 761.989 1849.26 738.476 C 1844.44 722.363 1822.62 632.672 1828.69 623.01 C 1832.26 617.342 1841.56 615.384 1847.7 614.301 z" fill="rgb(35,41,252)" transform="translate(0,0)"></path>
<path d="M 1056.65 454.32 C 1077.01 451.861 1099.61 464.352 1117.18 473.218 C 1120.14 502.287 1117.75 537.799 1118.15 567.263 C 1118.42 587.113 1118.84 604.439 1118.25 624.307 C 1110.82 619.414 1106.98 616.8 1100.36 610.982 C 1068.86 582.383 1030.63 556.191 1021.58 511.527 C 1014.99 478.994 1022.47 460.651 1056.65 454.32 z" fill="rgb(244,237,222)" transform="translate(0,0)"></path>
<path d="M 1778.04 520.121 C 1783.3 519.932 1788.08 520.808 1792.54 523.783 C 1801.99 530.094 1804.93 540.222 1806.98 550.747 C 1809.22 562.26 1820.13 652.705 1815.71 658.656 C 1812.45 663.065 1804.63 663.942 1799.53 664.604 C 1758.7 659.26 1764.16 612.638 1760.3 581.033 C 1757.88 561.198 1757.69 530.521 1778.04 520.121 z" fill="rgb(35,41,252)" transform="translate(0,0)"></path>
<path d="M 541.248 661.425 C 543.891 661.114 554.889 659.803 556.309 662.382 C 556.117 665.338 542.572 663.886 539.75 663.903 C 536.963 663.844 527.405 664.411 525.629 663.558 L 525.465 663.597 C 525.432 663.24 525.393 663.387 525.545 663.142 C 527.882 662.017 537.736 661.87 541.248 661.425 z" fill="rgb(128,123,122)" transform="translate(0,0)"></path>
<path d="M 643.402 593.214 C 648.125 592.909 651.531 592.84 655.899 595.232 C 656.872 595.765 664.119 600.996 662.534 602.698 C 660.921 604.43 658.022 598.474 657.257 597.385 L 656.554 597.033 C 647.493 592.392 644.373 595.266 636.229 598.579 C 635.421 598.908 632.861 596.574 643.402 593.214 z" fill="rgb(128,123,122)" transform="translate(0,0)"></path>
<path d="M 531.643 541.681 C 536.238 545.098 537.04 550.249 534.78 555.32 C 532.979 551.541 531.624 545.855 531.643 541.681 z" fill="rgb(244,237,222)" transform="translate(0,0)"></path>
<path d="M 1192.06 1203.24 C 1196.47 1202.72 1200.15 1202.16 1202.31 1206.89 L 1203.38 1209.24 C 1202.72 1208.95 1192.69 1203.64 1192.06 1203.24 z" fill="rgb(234,223,200)" transform="translate(0,0)"></path>
<path d="M 466.07 580.816 C 471.316 582.667 476.085 586.979 479.444 591.33 C 474.248 589.434 469.72 584.898 466.07 580.816 z" fill="rgb(92,86,88)" transform="translate(0,0)"></path>
<path d="M 548.901 515.538 C 554.222 518.382 556.183 522.287 558.028 528.116 C 555.014 525.719 551.616 519.361 548.901 515.538 z" fill="rgb(128,123,122)" transform="translate(0,0)"></path>
<path d="M 1492.83 275.592 C 1491.16 275.409 1484.21 275.361 1483.54 274.242 L 1483.69 273.794 L 1484.6 274.386 L 1484.56 273.368 C 1487.11 272.759 1491.31 272.951 1493.87 273.101 L 1492.83 275.592 z" fill="rgb(234,223,200)" transform="translate(0,0)"></path>
<path d="M 393.671 647.797 C 397.634 649.633 399.3 651.554 401.693 655.211 C 396.873 653.921 396.147 652.296 393.671 647.797 z" fill="rgb(234,223,200)" transform="translate(0,0)"></path>
<path d="M 568.791 611.838 C 571.772 613.501 573.821 614.123 571.071 616.827 C 568.307 617.303 568.671 613.671 568.791 611.838 z" fill="rgb(234,223,200)" transform="translate(0,0)"></path>
<path d="M 411.948 656.261 C 417.177 656.11 417.644 656.095 422.363 658.786 C 417.398 658.85 416.249 658.939 411.948 656.261 z" fill="rgb(128,123,122)" transform="translate(0,0)"></path>
<path d="M 552.816 612.134 C 554.167 612.683 554.153 613.393 554.205 614.818 C 551.805 614.726 550.83 614.153 552.816 612.134 z" fill="rgb(171,165,164)" transform="translate(0,0)"></path>
<path d="M 1493.87 273.101 C 1494.54 273.138 1496.71 273.076 1497.3 273.658 C 1496.93 274.703 1493.75 275.311 1492.83 275.592 L 1493.87 273.101 z" fill="rgb(128,123,122)" transform="translate(0,0)"></path>
<path d="M 413.943 582.247 C 414.098 582.239 414.252 582.231 414.406 582.223 C 414.566 582.531 414.493 582.296 414.498 583.103 C 414.352 583.059 414.206 583.016 414.06 582.972 C 413.893 582.638 413.955 582.859 413.943 582.247 z" fill="rgb(92,86,88)" transform="translate(0,0)"></path>
<path d="M 531.608 643.021 C 531.819 643.04 532.03 643.059 532.241 643.078 C 532.206 643.294 532.172 643.509 532.137 643.724 C 531.903 643.573 531.669 643.421 531.435 643.269 L 531.608 643.021 z" fill="rgb(92,86,88)" transform="translate(0,0)"></path>
<path d="M 709.805 788.207 C 724.228 786.699 748.744 791.423 760.653 799.66 C 786.082 817.249 810.141 839.868 822.683 868.765 C 827.338 879.491 834.961 888.927 838.658 899.867 C 847.787 926.872 852.456 955.016 858.589 982.788 C 862.346 1001.09 862.687 1021.92 865.559 1040.63 C 874.424 1098.37 880.219 1157.77 897.478 1213.75 C 901.192 1224.77 902.794 1238.42 907.062 1249.08 C 914.947 1268.77 921.164 1286.04 926.557 1306.57 C 970.324 1292.84 1013.48 1279.22 1056.4 1262.99 C 1059.28 1261.91 1066.05 1260.57 1068.81 1261.46 C 1071.61 1264.42 1072.94 1266.9 1073.81 1271.01 C 1081.56 1307.67 1070.55 1372.74 1034.1 1392.03 C 994.622 1413.3 950.013 1421.6 908.506 1436.75 C 867.504 1451.73 827.518 1465.04 785.688 1477.43 C 762.117 1486.62 737.791 1493.85 714.055 1502.32 C 693.232 1509.74 677.35 1513.95 655.944 1518.99 C 641.73 1519.4 635.157 1519.36 621.342 1513.91 C 605.348 1507.6 573.215 1483.56 563.158 1470.2 C 542.569 1442.83 524.373 1401.52 513.703 1369.16 C 508.575 1353.41 508.152 1335.48 504.686 1319.71 C 495.543 1278.12 489.456 1236.56 485.327 1194.19 C 484.412 1184.8 481.145 1174.35 479.697 1164.8 C 476.781 1145.56 474.178 1126.4 469.84 1107.4 C 468.052 1099.46 468.397 1089.59 466.769 1081.37 C 460.911 1051.76 455.82 1024.11 444.144 996.104 C 401.72 1010.83 359.04 1025.23 316.414 1039.39 C 309.756 1041.6 301.644 1044.6 294.643 1043.09 C 288.273 1037.04 290.765 1015.52 290.778 1007.11 C 290.85 976.792 293.451 955.201 310.537 929.095 C 327.909 902.553 357.712 899.362 385.243 887.606 C 436.584 865.683 490.089 852.382 543.186 836.5 L 644.552 806.815 C 664.787 800.835 689.475 792.762 709.805 788.207 z" fill="rgb(34,30,26)" transform="translate(0,0)"></path>
<path d="M 716.746 799.321 C 741.612 800.271 750.265 806.804 768.873 820.613 C 794.22 839.423 801.164 856.323 815.659 882.401 C 829.606 907.495 834.47 925.939 839.884 954.079 C 842.289 966.617 847.389 980.929 848.572 993.517 C 854.027 1051.58 862.768 1110.72 873.655 1168.07 C 882.548 1214.93 901.135 1264.7 915.021 1310.28 C 886.685 1319.92 858.821 1328.15 830.333 1337.22 C 816.569 1341.6 802.351 1348.1 789.453 1351.97 C 766.868 1358.74 746.41 1364.84 724.457 1373.89 C 716.669 1377.1 709.015 1378.9 701.652 1383.4 C 698.377 1388.28 704.185 1408.21 704.872 1415.84 C 706.271 1434.37 702.402 1475.36 688.583 1489.24 C 661.29 1516.65 625.352 1507.18 600.395 1485.63 C 576.953 1464.69 570.829 1462.26 555.929 1432.11 C 543.538 1408.14 528.512 1377.56 523.888 1350.74 C 514.924 1298.75 503.912 1246.96 498.891 1194.31 C 497.938 1184.32 494.387 1171.22 492.531 1160.96 L 481.475 1097.79 C 469.751 1028.55 458.911 962.367 397.23 917.671 C 388.618 911.43 381.764 907.723 371.786 904.081 C 382.305 898.442 412.138 890.02 424.926 885.922 C 443.411 880 461.637 873.359 480.056 867.36 C 501.064 860.517 524.075 856.132 544.981 849.825 L 654.513 817.092 C 673.92 811.126 697.067 802.075 716.746 799.321 z" fill="rgb(244,237,222)" transform="translate(0,0)"></path>
<path d="M 809.739 1152.03 C 815.976 1151.93 820.528 1154.53 818.89 1161.34 C 812.75 1169.39 762.281 1179.51 750.073 1183.19 C 706.85 1196.21 664.64 1211.57 620.983 1223.18 C 605.988 1227.17 590.772 1234.46 576.227 1240.13 C 571.57 1240.77 570.737 1240.6 567.422 1237.27 C 565.998 1230.7 575.299 1227.72 580.759 1225.56 C 630.511 1205.85 683.693 1192.66 734.423 1175.38 C 759.692 1166.78 784.625 1161.01 809.739 1152.03 z" fill="rgb(34,30,26)" transform="translate(0,0)"></path>
<path d="M 796.382 1092.18 C 800.148 1092.52 801.405 1093.82 803.447 1096.7 C 803.518 1098.12 803.955 1100.11 803.016 1100.89 C 792.339 1109.83 756.55 1116.62 744.454 1120.14 L 615.853 1157.88 C 595.7 1163.62 575.687 1171.85 555.275 1177.65 C 551.09 1177.96 552.962 1178.39 549.402 1176.55 C 547.736 1173.36 547.901 1174.95 548.589 1171.66 C 556.487 1162.9 654.04 1135.3 672.124 1130.17 C 712 1118.85 756.316 1101.85 796.382 1092.18 z" fill="rgb(34,30,26)" transform="translate(0,0)"></path>
<path d="M 781.083 1030.23 C 785.309 1029.29 786.773 1029.64 790.2 1031.9 C 792.067 1035.5 791.906 1033.74 791.306 1037.28 C 783.812 1047.41 749.081 1050.86 736.574 1055.4 C 694.864 1070.55 652.294 1082.14 609.578 1093.91 C 605.827 1095.32 604.481 1095.02 601.343 1092.57 C 599.634 1086.48 604.104 1084.28 609.333 1082.85 C 650.638 1071.52 691.869 1055.66 732.598 1043.43 C 748.648 1038.63 764.815 1034.22 781.083 1030.23 z" fill="rgb(34,30,26)" transform="translate(0,0)"></path>
<path d="M 771.98 1293.99 C 774.907 1293.92 776.042 1294.64 778.722 1295.74 C 780.812 1298.49 780.275 1296.92 779.87 1300.78 C 773.976 1310.43 760.941 1311.07 751.417 1314.09 C 700.956 1330.11 648.674 1342.89 600.001 1363.77 C 595.062 1363.35 591.336 1362.41 590.902 1356.77 C 598.125 1343.8 745.689 1305.8 771.98 1293.99 z" fill="rgb(34,30,26)" transform="translate(0,0)"></path>
<path d="M 680.335 989.057 C 683.941 988.947 685.056 989.186 687.712 991.434 C 690.17 1001.54 675.371 1003.51 668.957 1005.79 C 622.895 1022.14 575.111 1030.71 529.366 1047.9 C 524.519 1047.36 523.269 1047.33 521.254 1042.73 L 522.216 1040.49 C 536.575 1029.05 614.122 1009.98 635.006 1003.39 C 646.296 999.823 668.925 992.25 680.335 989.057 z" fill="rgb(34,30,26)" transform="translate(0,0)"></path>
<path d="M 824.698 1209.02 C 830.255 1207.86 835.17 1209.68 834.465 1216.09 C 828.343 1224.73 810.324 1228.2 800.511 1231.6 C 776.447 1239.93 751.649 1246.1 727.247 1253.36 L 723.472 1253.86 C 718.693 1252.28 715.587 1249.58 717.41 1244.3 C 723.671 1239.1 759.1 1231.91 769.994 1228.04 C 787.876 1221.68 806.892 1217.05 824.698 1209.02 z" fill="rgb(34,30,26)" transform="translate(0,0)"></path>
<path d="M 631.03 937.906 C 633.482 937.954 633.544 938.215 635.809 939.295 C 638.155 942.622 637.904 941.304 638.049 944.935 C 636.92 946.599 636.254 948.11 634.166 948.707 C 616.463 953.771 599.196 960.467 581.576 965.706 C 560.809 971.882 539.314 981.542 518.284 986.314 C 514.639 985.687 513.513 985.156 511.282 982.345 L 511.561 980.221 C 519.163 972.55 613.316 944.865 631.03 937.906 z" fill="rgb(34,30,26)" transform="translate(0,0)"></path>
<path d="M 747.439 906.074 C 749.299 905.963 750.522 906.173 752.364 906.355 C 755.855 908.929 754.768 907.326 756.171 911.007 C 755.086 915.557 754.091 916.518 749.334 917.749 C 721.211 925.026 693.046 932.138 665.62 941.805 C 663.38 942.594 658.684 942.903 656.2 943.1 C 654.368 944.042 654.99 943.695 652.61 943.612 C 649.45 941.408 650.041 942.433 648.519 939.29 C 653.473 930.97 732.268 911.605 747.439 906.074 z" fill="rgb(34,30,26)" transform="translate(0,0)"></path>
<path d="M 772.953 964.147 C 780.334 963.402 785.984 964.83 782.767 972.97 C 781.701 975.668 749.134 984.9 744.986 985.903 L 728.485 989.876 C 723.086 991.15 719.428 991.981 714.011 993.495 C 697.098 994.478 700.05 984.477 707.491 983.067 C 730.128 978.778 751.12 969.541 772.953 964.147 z" fill="rgb(34,30,26)" transform="translate(0,0)"></path>
<path d="M 647.795 1265.12 C 659.932 1268.44 654.288 1276.17 645.04 1279.43 C 624.848 1286.54 604.306 1291.5 584.289 1298.87 C 581.887 1298.01 579.269 1297.03 578.236 1294.45 C 577.91 1293.63 577.985 1292.75 578.34 1291.96 C 580.421 1287.32 638.97 1267.89 647.795 1265.12 z" fill="rgb(34,30,26)" transform="translate(0,0)"></path>
<path d="M 581.331 1090.96 C 584.565 1090.83 588.89 1091.12 589.253 1095.05 C 590.203 1105.33 552.058 1111.57 544.934 1112.72 C 540.871 1112.92 535.638 1111.17 538.104 1105.6 C 538.981 1103.62 546.8 1101.65 549.053 1101.06 L 549.987 1100.82 C 561.726 1097.68 569.811 1094.91 581.331 1090.96 z" fill="rgb(34,30,26)" transform="translate(0,0)"></path>
<path d="M 689.655 1250.06 C 697.847 1249.13 700.905 1255.32 696.694 1260.68 C 694.864 1263.01 677.206 1267.98 673.238 1268.92 C 669.385 1269.25 667.107 1269.48 664.858 1265.51 C 660.284 1257.44 682.728 1253.2 689.655 1250.06 z" fill="rgb(34,30,26)" transform="translate(0,0)"></path>
<path d="M 1058.91 1274.02 C 1068.43 1285.83 1059.16 1338.71 1051.21 1352.01 C 1047.33 1360.24 1038.65 1375.87 1029.96 1380.12 C 989.774 1400.86 943.088 1408.94 901.206 1424.69 C 845.368 1445.69 788.024 1459.96 733.155 1483.25 C 722.844 1487.63 710.585 1491.3 699.897 1495.34 C 701.235 1493.48 702.511 1491.58 703.723 1489.64 C 708.776 1481.46 710.769 1473.36 713.308 1464.35 C 721.35 1435.83 720.992 1418.88 714.295 1390.21 C 729.907 1384.87 749.734 1374.9 765.46 1371.46 C 798.972 1364.12 828.097 1350.43 860.612 1340.37 C 903.256 1327.19 947.556 1315.03 989.821 1300.87 C 1009.56 1294.25 1040.75 1282.5 1058.91 1274.02 z" fill="rgb(244,237,222)" transform="translate(0,0)"></path>
<path d="M 352.813 912.991 C 392.285 916.816 422.58 953.106 439.255 986.636 C 419.03 992.85 391.346 1001.23 372.409 1009.16 C 351.12 1017.13 327.856 1022.65 306.102 1030.21 C 303.653 1015.09 305.03 979.437 308.728 964.302 C 311.513 952.903 322.285 930.789 332.52 924.147 C 337.015 921.231 347.192 916.231 352.813 912.991 z" fill="rgb(244,237,222)" transform="translate(0,0)"></path>
<path d="M 831.353 313.385 C 862.779 311.693 894.365 322.52 896.779 359.457 C 898.956 392.764 880.287 415.924 846.2 417.457 C 832.403 417.55 811.436 415.924 800.888 406.647 C 779.468 387.808 771.844 356.289 791.024 333.018 C 802.858 318.661 813.948 315.403 831.353 313.385 z" fill="rgb(34,30,26)" transform="translate(0,0)"></path>
<path d="M 827.584 436.735 L 829.047 436.728 C 830.939 436.703 833.639 436.351 835.377 437.404 C 836.182 437.892 836.611 438.538 836.832 439.432 C 838.604 446.614 836.835 510.142 833.793 514.835 C 833.254 515.667 832.68 516.483 832.131 517.31 C 830.48 517.102 828.752 516.989 827.159 516.482 C 825.609 515.989 824.146 515.048 823.43 513.539 C 821.228 508.9 825.359 442.795 827.584 436.735 z" fill="rgb(34,30,26)" transform="translate(0,0)"></path>
<path d="M 848.727 220.478 C 855.663 222.363 856.129 222.474 855.956 229.996 C 855.794 237.121 854.659 243.784 853.634 250.809 C 851.739 263.814 850.263 276.912 848.952 289.964 C 848.831 291.176 845.474 294.196 844.624 295.029 C 841.571 294.194 836.808 293.13 836.929 289.523 C 837.213 281.08 842.86 226.114 846.386 222.708 L 848.727 220.478 z" fill="rgb(34,30,26)" transform="translate(0,0)"></path>
<path d="M 769.195 412.914 C 790.306 414.214 765.954 433.105 759.793 438.774 C 748.014 449.613 740.428 457.084 730.456 469.386 C 714.542 467.956 726.361 454.527 732.422 448.728 C 744.53 437.142 756.69 423.939 769.195 412.914 z" fill="rgb(34,30,26)" transform="translate(0,0)"></path>
<path d="M 950.315 266.768 C 952.885 267.033 955.262 267.265 956.859 269.557 C 957.633 270.683 957.907 272.078 957.618 273.413 C 956.272 279.799 930.188 294.956 923.635 300.295 C 917.528 305.271 911.425 311.982 905.412 315.894 C 902.724 315.389 894.943 312.167 897.99 308.915 C 911.439 294.56 934.088 278.301 950.315 266.768 z" fill="rgb(34,30,26)" transform="translate(0,0)"></path>
<path d="M 894.432 410.446 C 904.005 411.249 899.41 411.586 906.795 417.493 C 918.249 426.655 927.361 437.586 938.127 447.458 C 943.107 452.024 945.518 453.638 942.175 460.023 L 941.412 461.544 C 941.183 461.572 936.323 462.275 935.536 461.715 C 919.25 449.929 907.151 431.777 893.493 417.054 C 892.085 415.535 893.926 411.828 894.432 410.446 z" fill="rgb(34,30,26)" transform="translate(0,0)"></path>
<path d="M 732.057 354.398 C 736.419 353.918 753.744 353.103 756.034 356.115 C 766.033 369.267 742.79 365.633 740.313 365.739 C 731.61 366.112 725.335 366.83 718.243 367.514 C 707.863 369.429 685.038 371.539 697.195 357.315 C 696.92 357.637 728.148 354.73 732.057 354.398 z" fill="rgb(34,30,26)" transform="translate(0,0)"></path>
<path d="M 732.44 261.444 C 744.337 264.237 773.012 296.245 782.849 305.478 C 784.704 307.219 782.536 312.311 781.93 314.085 C 769.762 314.232 771.094 308.196 763.783 301.348 C 753.683 291.889 743.91 281.966 733.575 272.799 C 729.352 269.053 730.492 265.815 732.44 261.444 z" fill="rgb(34,30,26)" transform="translate(0,0)"></path>
<path d="M 923.142 363.236 C 934.987 363.848 946.631 365.253 958.541 366.284 C 962.66 366.64 976.809 365.543 979.405 366.535 C 983.67 368.165 983.483 375.282 976.945 376.764 C 973.279 376.993 896.014 379.725 923.142 363.236 z" fill="rgb(34,30,26)" transform="translate(0,0)"></path>
<path d="M 1835.25 790.158 C 1851.13 787.484 1834.34 811.452 1803.67 801.273 C 1802.65 800.788 1791.6 795.901 1795.09 792.441 C 1799.32 788.242 1810.68 793.993 1816.99 793.523 C 1824 793.002 1828.27 791.924 1835.25 790.158 z" fill="rgb(34,30,26)" transform="translate(0,0)"></path>
<metadata><recraft-signature>{"signed_by": "recraft", "signature_b64": "XJbDZgh9rmg7QiqNMfJPUtSN/oQ2YVfmjLcaaDxqYY9YDXxXu0KJDbzJvn/1f2SrA0/lgpkP59gX1YUtVHb4DQ==", "signing_algo": "Ed25519", "generation_timestamp": 1782911643, "identifier": "403d6eac-06c8-4d7e-82d4-24b16e4f087a"}</recraft-signature></metadata></svg>