<svg xmlns="http://www.w3.org/2000/svg" height="1792" preserveAspectRatio="none" style="display: block;" version="1.1" viewBox="0 0 2432 1792" width="2432">
<path d="M 0 0 L 2432 0 L 2432 1792 L 0 1792 L 0 0 z" fill="rgb(244,237,222)" transform="translate(0,0)"></path>
<path d="M 1479.92 221.343 C 1506.41 219.363 1532.18 226.852 1558.66 226.933 C 1584.4 227.013 1609.78 221.654 1635.54 221.781 C 1662.92 221.917 1689.99 227.48 1717.5 226.66 C 1739.91 225.992 1762.01 221.317 1784.47 221.375 C 1806.72 221.433 1828.59 227.151 1850.99 227.168 C 1871.39 227.183 1891.21 221.779 1911.58 221.518 C 1933.26 221.24 1954.91 225.636 1976.68 226.013 C 2002.6 226.462 2027.75 222.062 2053.47 221.786 C 2076.27 221.542 2098.96 225.21 2121.77 225.72 C 2142.48 226.184 2163.42 222.42 2184.04 224.462 C 2203.69 226.407 2223.76 232.741 2236.53 248.693 C 2247.06 261.837 2251.38 279.49 2252.16 296.021 C 2252.93 312.42 2250.38 329.011 2250.21 345.437 L 2249.84 475.813 L 2248.34 846.987 C 2248.25 854.312 2250.84 861.488 2250.89 868.856 L 2251.9 1002.84 C 2251.92 1026.3 2248.8 1049.77 2248.85 1073.24 C 2248.9 1094.82 2250.99 1116.37 2250.95 1137.98 C 2250.91 1161.21 2248.64 1184.51 2249.07 1207.7 C 2249.41 1226.49 2251.92 1245.24 2252.07 1264.02 C 2252.21 1281.49 2249.37 1299.07 2249.01 1316.61 C 2248.64 1334.76 2251.59 1352.9 2251.78 1371.07 C 2251.99 1390.75 2249.27 1410.43 2248.86 1430.11 C 2248.31 1456.4 2254.08 1483.56 2250.9 1509.64 C 2248.51 1529.13 2240.06 1546.69 2224.37 1558.85 C 2205.54 1573.44 2182.02 1578.15 2158.75 1575.38 C 2132.76 1572.27 2103.44 1570.32 2077.32 1571.52 C 2050.2 1572.78 2022.77 1576.8 1995.52 1576.07 C 1965.17 1575.53 1934.79 1570.97 1904.42 1571.07 C 1874.79 1571.16 1846.21 1578.82 1816.51 1574.7 C 1798.62 1572.22 1780.18 1570.83 1762.12 1570.62 C 1731.95 1570.27 1702.23 1576.3 1672.1 1576.13 C 1644.25 1575.95 1616.33 1570.56 1588.45 1570.61 C 1546.44 1571.02 1502.4 1578.71 1460.51 1575.49 C 1422.15 1572.53 1385.88 1543.74 1382.03 1504.13 C 1380.46 1488 1382.17 1472.01 1382.16 1455.87 C 1382.16 1433.05 1380.06 1410.43 1380.18 1387.62 C 1380.5 1366.86 1384.54 1345.61 1384.15 1324.68 C 1386 1303.5 1377.99 1276.1 1379.66 1255.61 C 1383.14 1212.72 1383.15 1173.01 1380.03 1129.97 C 1379.22 1118.77 1381.47 1098.87 1382.22 1087.01 C 1383.94 1059.67 1381.34 1033.77 1380.05 1006.49 C 1379.28 986.444 1382.29 966.192 1382.09 946.247 C 1381.78 916.004 1377.36 885.578 1383.97 855.588 C 1384.88 851.442 1389.45 843.478 1389.73 839.969 C 1391.46 818.504 1392.67 796.876 1393.39 775.351 C 1394.62 756.606 1390.72 735.584 1391.79 717.099 C 1393.92 680.156 1393.61 645.338 1391.17 608.476 C 1389.99 590.647 1394.1 569.468 1393.87 551.366 C 1393.67 535.457 1392.39 519.651 1391.99 503.753 C 1392.03 486.787 1393.91 469.237 1393.88 452.296 L 1394.07 361 C 1393.99 344.159 1392.7 327.393 1393.64 310.537 C 1396.45 260.684 1430.92 227.3 1479.92 221.343 z" fill="rgb(34,30,26)" transform="translate(0,0)"></path>
<path d="M 1503.71 798.499 C 1530.06 798.079 1556.14 803.116 1582.46 802.791 C 1601.54 802.556 1620.34 798.595 1639.53 798.643 C 1662.16 798.7 1684.52 803.048 1707.22 802.294 C 1729.64 801.549 1751.67 797.622 1774.22 797.973 C 1798.32 798.347 1822.18 803.047 1846.3 802.799 C 1865.92 802.598 1885.31 798.674 1904.93 798.466 C 1927.43 798.228 1949.81 801.784 1972.29 802.23 C 1992.35 802.628 2012.04 798.746 2032.05 798.636 C 2054.59 798.513 2077.16 801.739 2099.73 801.972 C 2122.89 802.211 2145.97 798.765 2169.12 800.427 C 2189.15 801.864 2203.76 808.117 2216.93 823.605 C 2226.24 834.555 2231.39 847.722 2232.88 861.952 C 2235.73 889.139 2232.26 916.519 2232.66 943.724 C 2232.96 963.701 2236.11 983.558 2236.21 1003.6 C 2236.33 1025.13 2233.63 1046.7 2233.05 1068.24 C 2232.47 1090.2 2235.11 1112.32 2235.2 1134.32 C 2235.29 1158.68 2232.91 1182.98 2233.02 1207.25 C 2233.1 1224.87 2235.72 1242.56 2236.17 1260.22 C 2236.67 1279.56 2233.65 1298.87 2233.63 1318.21 C 2233.62 1338.27 2236.26 1358.27 2236.22 1378.38 C 2236.18 1397.13 2233.03 1415.77 2233.02 1434.5 C 2233.01 1458.44 2238.06 1483.13 2235.8 1506.94 C 2234.37 1521.93 2228.02 1536.43 2216.16 1546.05 C 2190.69 1566.72 2157.52 1559.04 2127.8 1556.05 C 2085.68 1552.96 2049.51 1558.78 2008.14 1559.8 C 1975.78 1560.59 1943.63 1554.99 1911.3 1554.74 C 1887.02 1554.55 1863.09 1559.55 1838.92 1559.73 C 1815 1559.9 1791.34 1554.21 1767.34 1553.94 C 1736.66 1553.6 1706.37 1559.37 1675.78 1559.67 C 1648.52 1559.95 1621.5 1554.88 1594.3 1554.14 C 1565.38 1553.35 1536.1 1557.59 1507.17 1559.08 C 1476.37 1560.66 1442.64 1563.84 1418.1 1541.3 C 1407.6 1531.65 1400.24 1518.83 1398.1 1504.66 C 1395.55 1487.66 1398.12 1469.41 1398.23 1452.22 L 1399.03 1332.41 C 1399.18 1308.54 1396.58 1284.95 1396.06 1261.14 C 1395.61 1240.18 1398.49 1219.3 1398.58 1198.31 C 1398.67 1175.79 1396.11 1153.34 1396.19 1130.82 C 1396.27 1108.63 1398.81 1086.48 1398.75 1064.29 C 1398.69 1041.71 1395.65 1019.21 1395.83 996.6 C 1395.96 979.752 1397.96 962.966 1398.31 946.117 C 1398.56 933.91 1397.47 921.688 1396.89 909.501 C 1395.37 877.837 1396.6 847.274 1419.31 822.71 C 1440.23 800.074 1475.04 799.44 1503.71 798.499 z" fill="rgb(244,237,222)" transform="translate(0,0)"></path>
<path d="M 2086.81 834.285 C 2098.74 833.512 2110.96 834.25 2122.94 834.16 C 2135.62 834.066 2149.85 832.665 2162.39 834.474 C 2167.63 835.23 2172.47 836.695 2177.1 839.291 C 2186.33 844.461 2192.8 852.638 2195.64 862.819 C 2198.14 871.803 2198.27 935 2196.67 946.273 C 2195.88 951.825 2194.13 957.215 2191.23 962.033 C 2184.59 973.042 2173.69 978.169 2161.68 980.95 C 2148.58 980.77 2135.49 980.748 2122.39 980.885 C 2109.68 981.115 2095.78 982.552 2083.22 980.252 C 2077.5 979.246 2072.08 976.995 2067.33 973.659 C 2058.6 967.581 2053.03 958.828 2051.05 948.408 C 2049.62 940.93 2049.41 876.12 2050.79 867.701 C 2051.8 861.53 2053.98 855.552 2057.61 850.428 C 2064.8 840.304 2075.13 836.325 2086.81 834.285 z" fill="rgb(34,30,26)" transform="translate(0,0)"></path>
<path d="M 2085.59 850.412 C 2097.37 850.166 2109.2 850.955 2121 850.791 C 2133.49 850.617 2146.6 849.356 2159.03 850.225 C 2162.53 850.47 2165.35 850.918 2168.43 852.629 C 2173.71 855.564 2178.53 860.256 2180.03 866.286 C 2182.14 874.801 2181.81 934.303 2180.61 944.818 C 2180.21 948.297 2179.41 951.39 2177.6 954.411 C 2173.72 960.887 2167.59 963.381 2160.59 964.919 C 2148.18 965.569 2086.04 966.273 2078.5 962.477 C 2072.42 959.421 2068.73 952.694 2067.04 946.378 C 2065.81 941.795 2065.99 876.05 2066.8 868.986 C 2067.16 865.869 2068.03 863.918 2069.64 861.225 C 2073.43 854.855 2078.59 852.251 2085.59 850.412 z" fill="rgb(244,237,222)" transform="translate(0,0)"></path>
<path d="M 1474.67 1440.9 C 1475.8 1426.57 1483.91 1413.72 1496.36 1406.54 C 1508.81 1399.36 1524 1398.78 1536.96 1404.98 C 1540.92 1406.87 1544.57 1409.35 1547.78 1412.33 C 1560.26 1423.9 1564.88 1441.67 1559.6 1457.85 C 1554.32 1474.02 1540.11 1485.65 1523.21 1487.63 C 1510.25 1489.14 1497.3 1484.78 1487.9 1475.73 C 1478.5 1466.69 1473.65 1453.91 1474.67 1440.9 z" fill="rgb(34,30,26)" transform="translate(0,0)"></path>
<path d="M 1513.35 1409.33 C 1532.47 1406.85 1550.04 1420.15 1552.83 1439.22 C 1555.61 1458.29 1542.59 1476.07 1523.57 1479.17 C 1510.99 1481.21 1498.29 1476.31 1490.33 1466.36 C 1482.38 1456.4 1480.41 1442.94 1485.18 1431.12 C 1489.95 1419.3 1500.72 1410.98 1513.35 1409.33 z" fill="rgb(14,15,251)" transform="translate(0,0)"></path>
<path d="M 1714.41 1063.73 C 1697.64 1046.96 1697.38 1019.85 1713.83 1002.76 C 1730.27 985.668 1757.37 984.877 1774.78 1000.98 C 1792.19 1017.08 1793.51 1044.16 1777.75 1061.88 C 1774.94 1065.05 1771.68 1067.78 1768.08 1070 C 1755.12 1078.01 1738.91 1078.65 1725.35 1071.71 C 1721.31 1069.64 1717.62 1066.95 1714.41 1063.73 z" fill="rgb(34,30,26)" transform="translate(0,0)"></path>
<path d="M 1738.36 998.531 C 1757.43 994.759 1775.93 1007.23 1779.59 1026.33 C 1783.24 1045.42 1770.66 1063.85 1751.54 1067.39 C 1732.59 1070.9 1714.35 1058.45 1710.73 1039.51 C 1707.1 1020.58 1719.44 1002.27 1738.36 998.531 z" fill="rgb(14,15,251)" transform="translate(0,0)"></path>
<path d="M 2096.62 1129.03 C 2078.97 1114.74 2075.28 1089.27 2088.15 1070.57 C 2101.03 1051.86 2126.13 1046.21 2145.78 1057.6 C 2165.43 1068.98 2173.01 1093.58 2163.18 1114.05 C 2153.34 1134.52 2129.41 1143.98 2108.24 1135.76 C 2104.04 1134.13 2100.12 1131.86 2096.62 1129.03 z" fill="rgb(34,30,26)" transform="translate(0,0)"></path>
<path d="M 2116.73 1060.69 C 2135.84 1056.63 2154.6 1068.93 2158.48 1088.09 C 2162.36 1107.24 2149.88 1125.88 2130.69 1129.58 C 2111.76 1133.24 2093.41 1120.95 2089.58 1102.05 C 2085.75 1083.15 2097.86 1064.69 2116.73 1060.69 z" fill="rgb(14,15,251)" transform="translate(0,0)"></path>
<path d="M 1937.88 1378.27 C 1948.02 1377.32 1958.18 1379.96 1966.58 1385.74 C 1970.11 1388.17 1973.26 1391.11 1975.94 1394.47 C 1990.52 1412.8 1987.95 1439.39 1970.11 1454.58 C 1952.28 1469.77 1925.61 1468.08 1909.84 1450.76 C 1894.07 1433.44 1894.87 1406.73 1911.66 1390.39 C 1914.84 1387.3 1918.47 1384.71 1922.43 1382.72 C 1927.26 1380.29 1932.5 1378.78 1937.88 1378.27 z" fill="rgb(34,30,26)" transform="translate(0,0)"></path>
<path d="M 1934.83 1387.35 C 1954 1383.47 1972.68 1395.91 1976.47 1415.1 C 1980.26 1434.29 1967.73 1452.91 1948.53 1456.61 C 1929.44 1460.3 1910.97 1447.87 1907.2 1428.8 C 1903.43 1409.73 1915.78 1391.21 1934.83 1387.35 z" fill="rgb(14,15,251)" transform="translate(0,0)"></path>
<path d="M 1714.41 1063.73 C 1717.62 1066.95 1721.31 1069.64 1725.35 1071.71 L 1599.07 1313.78 C 1582.17 1346.2 1565.4 1380.53 1547.78 1412.33 C 1544.57 1409.35 1540.92 1406.87 1536.96 1404.98 C 1548.5 1381.84 1561.77 1359.01 1573.61 1335.15 C 1579.86 1323.43 1585.9 1311.6 1591.71 1299.65 C 1593.16 1297.68 1600.4 1283.37 1601.89 1280.53 L 1628.47 1229.22 C 1655.93 1176.97 1689.69 1117.16 1714.41 1063.73 z" fill="rgb(14,15,251)" transform="translate(0,0)"></path>
<path d="M 1777.75 1061.88 C 1781.2 1069.58 1804.35 1122.57 1807.25 1125 C 1809.27 1130.13 1811.11 1134.69 1813.41 1139.71 C 1840.7 1200.75 1867.93 1263.81 1895.82 1324.37 C 1897.78 1328.68 1900.11 1334.2 1902.26 1338.29 C 1906.62 1350.31 1916.78 1370.65 1922.43 1382.72 C 1918.47 1384.71 1914.84 1387.3 1911.66 1390.39 L 1768.08 1070 C 1771.68 1067.78 1774.94 1065.05 1777.75 1061.88 z" fill="rgb(14,15,251)" transform="translate(0,0)"></path>
<path d="M 2096.62 1129.03 C 2100.12 1131.86 2104.04 1134.13 2108.24 1135.76 C 2103.06 1145.84 2098.04 1156 2093.17 1166.23 C 2091.3 1170.18 2088.82 1175.05 2087.27 1179.03 C 2082.52 1186.83 2077.83 1197.62 2073.83 1206.11 C 2047.37 1262.18 2016.43 1315.89 1988.29 1371.1 C 1984.28 1378.95 1980.22 1386.76 1975.94 1394.47 C 1973.26 1391.11 1970.11 1388.17 1966.58 1385.74 L 1973.36 1372.99 C 1989.01 1340.87 2007.2 1307.96 2023.81 1276.11 L 2027.83 1268.27 C 2032.47 1263.62 2092.28 1141.72 2096.62 1129.03 z" fill="rgb(14,15,251)" transform="translate(0,0)"></path>
<path d="M 1505.88 901.471 C 1509.84 899.664 1514.51 901.401 1516.33 905.354 C 1518.15 909.307 1516.43 913.987 1512.48 915.819 C 1508.52 917.659 1503.81 915.928 1501.98 911.957 C 1500.16 907.986 1501.9 903.286 1505.88 901.471 z" fill="rgb(34,30,26)" transform="translate(0,0)"></path>
<path d="M 1406.91 814.313 C 1410.29 779.07 1408.88 753.838 1407.12 718.765 C 1406.77 699.198 1408.62 679.671 1408.56 660.107 C 1408.5 641.37 1406.53 622.685 1406.57 603.947 L 1407.88 400.698 C 1408.02 380.582 1410.82 363.275 1409.39 342.647 C 1407.36 313.486 1408.59 283.254 1429.8 260.837 C 1442.15 247.783 1460.41 239.68 1478.35 237.916 C 1502.96 235.497 1527.18 243.308 1552.61 243.95 C 1579.95 244.641 1604.72 239.277 1631.5 238.949 C 1656.79 238.64 1682.7 243.623 1708.47 243.789 C 1734.37 243.956 1755.75 238.417 1781.47 238.335 C 1804.83 238.261 1825.69 243.74 1848.61 244.135 C 1869.35 244.493 1890.25 238.627 1911.38 238.762 C 1935.84 238.919 1959.52 243.394 1983.97 243.953 C 2004.79 244.429 2025.61 239.473 2046.1 238.967 C 2070.15 238.373 2094.79 241.46 2118.96 242.206 C 2137.58 242.78 2152.14 240.769 2170.25 239.948 C 2187.02 239.642 2209.03 242.859 2221.29 255.423 C 2244.96 279.666 2234.25 319.252 2233.87 349.509 C 2233.62 369.569 2236.4 389.12 2236.21 408.957 C 2236.01 429.962 2233.18 450.913 2233.08 471.972 L 2234.26 819.979 C 2231.28 816.204 2228.12 812.577 2224.78 809.114 C 2205.68 789.244 2185.48 785.115 2159.32 784.549 C 2158.87 772.58 2161.24 758.305 2161.06 745.973 C 2160.87 733.454 2158.96 721.245 2158.5 708.846 C 2158.09 697.671 2159.99 684.305 2159.52 673.247 C 2158.98 664.551 2156.13 654.708 2155.84 646.132 C 2155.2 627.891 2164.65 607.299 2138.66 602.989 C 2126.33 600.945 2114.73 604.366 2102.38 604.682 C 2093.35 604.913 2081.63 604.719 2072.62 603.24 C 2058.61 604.501 2052.84 609.861 2051.18 624.332 C 2055.87 638.721 2048.21 682.393 2047.63 698.703 C 2047.24 709.64 2050.86 723.022 2050.75 732.74 C 2050.56 750.727 2048.69 764.929 2049.97 783.281 C 2037.32 783.15 2028.69 783.314 2016.01 784.085 C 2015.62 772.073 2016.15 758.577 2017.57 746.543 C 2020.57 727.226 2015.94 707.526 2016.19 688.386 C 2016.6 658.086 2018.5 629.902 2014.56 599.563 C 2013.04 587.82 2016.46 570.515 2015.17 558.217 C 2014.06 547.614 2012.24 537.373 2011.36 526.797 C 2010.34 515.632 2014.1 500.223 2013.09 489.472 C 2010.48 461.799 2010.23 436.517 2012.64 408.857 C 2013.66 397.114 2010.1 381.373 2010.23 369.097 C 2010.34 358.214 2010.42 347.109 2010.21 336.237 C 2009.11 305.859 1971.36 317.963 1952.35 318.069 C 1934.52 318.169 1910.7 308.948 1906.44 336.087 C 1904.4 349.077 1907.92 365.111 1907.27 378.605 C 1906.5 394.727 1904.88 410.972 1904.3 427.124 C 1903.34 443.616 1906.83 462.154 1905.98 478.419 C 1904.49 506.936 1905.1 534.305 1905.81 562.762 C 1906.08 577.951 1901.48 597.569 1902.69 612.332 C 1905.41 645.407 1902.07 677.839 1902.23 710.552 C 1902.35 736.391 1905.26 756.371 1903.09 783.054 C 1893.66 783.204 1883.85 784.398 1874.43 785.347 C 1878.51 758.073 1873.27 733.901 1872.84 706.488 C 1872.63 692.782 1878.25 664.972 1871.28 653.432 C 1860.79 636.101 1836.32 644.088 1820.36 644.2 C 1808.15 644.063 1795.73 640.734 1783.55 641.316 C 1757.05 642.582 1765.02 666.486 1764.53 684.502 C 1764.19 697.408 1762.14 711.915 1762.51 724.493 C 1763.12 744.871 1764.25 762.438 1762.78 782.844 C 1750.89 783.034 1741.29 783.735 1729.42 784.79 C 1735.28 754.099 1728.27 741.496 1729.5 713.786 C 1731.26 674.151 1731.95 634.661 1731.73 594.849 C 1731.67 584.492 1728.87 569.704 1729.62 560.316 C 1732.07 529.899 1731.72 501.292 1729.08 470.885 C 1727.62 453.849 1732.64 437.537 1708.99 436.937 C 1685.37 436.337 1661.81 438.85 1638.02 438.187 C 1632.21 438.025 1621.95 444.415 1621.48 451.247 C 1621.3 475.446 1618.6 500.193 1618.26 524.277 C 1617.62 534.348 1622.44 552.668 1621.25 561.986 C 1617.51 591.159 1617.47 615.542 1620.32 644.933 C 1621.59 657.933 1617.9 675.216 1619.36 688.751 C 1622.87 721.318 1623.61 750.91 1621.73 783.599 C 1611.3 784.184 1600.84 785.605 1590.46 786.859 C 1587.85 761.998 1589.6 732.371 1587.23 706.797 C 1586.02 693.735 1590.2 674.96 1589.17 661.188 C 1588.17 647.616 1587.84 633.764 1587.15 620.165 C 1586.35 607.421 1589.17 591.552 1587.86 579.085 C 1584.13 543.555 1585.56 509.417 1586.92 473.854 C 1587.4 461.203 1584.58 446.328 1584.71 433.152 C 1584.88 415.54 1588 395.307 1583.28 378.228 C 1579.83 374.42 1573.26 368.783 1567.54 368.475 C 1543.09 367.205 1518.23 368.216 1493.73 368.741 C 1486.49 368.896 1474.74 377.381 1474.68 385.311 C 1474.51 407.083 1473.62 428.679 1473 450.449 C 1472.59 464.968 1474.5 480.396 1474.22 494.995 C 1471.43 528.934 1470.47 560.179 1473.63 594.152 C 1474.67 605.329 1471.82 620.763 1472.38 632.63 C 1473.07 647.356 1473.42 662.419 1473.66 677.16 C 1473.73 690.451 1471.33 710.976 1472.02 723.366 C 1473.54 750.515 1478.82 756.896 1474.82 784.786 C 1443.98 788.452 1428.57 792.077 1406.91 814.313 z" fill="rgb(244,237,222)" transform="translate(0,0)"></path>
<path d="M 1976.55 330.407 C 1982.33 330.394 1987.8 329.837 1992.78 333.25 C 1994.39 335.359 1994.66 337.148 1994.9 339.772 C 1995.79 349.439 1994.49 359.598 1994.89 369.36 C 1995.45 382.793 1998.04 396.307 1997.78 409.747 C 1997.5 423.955 1995.31 438.141 1995.56 452.364 C 1995.78 465.229 1997.9 478.057 1997.74 490.931 C 1997.59 503.048 1995.88 515.173 1996.13 527.294 C 1996.39 539.822 1999.45 552.197 1999.91 564.708 C 2000.34 576.337 1998.95 588.021 1999.37 599.66 C 1999.85 612.739 2002.24 625.824 2002.13 638.913 C 2001.98 656.361 2000.08 673.739 2000.34 691.22 C 2000.51 703.308 2002.75 715.252 2002.98 727.317 C 2003.35 747.031 1999.16 765.792 2000.87 785.768 C 1982.75 787.065 1965.66 787.063 1947.55 785.613 C 1937.72 784.562 1927.73 784.114 1917.85 783.397 C 1919.66 756.135 1917.32 729.733 1917.49 702.562 C 1917.58 687.283 1919.02 672.03 1919.05 656.754 C 1919.08 641.161 1917.65 625.529 1918.14 609.942 C 1918.67 592.961 1920.63 575.988 1920.88 559.006 L 1922.34 375.539 C 1922.47 366.005 1919.16 340.152 1922.89 333.357 C 1932.49 329.15 1946.6 332.103 1957.07 331.899 C 1963.57 331.772 1970.09 331.047 1976.55 330.407 z" fill="rgb(14,15,251)" transform="translate(0,0)"></path>
<path d="M 1528.74 382.448 C 1537.29 382.177 1561.13 379.142 1568.01 384.341 C 1570.09 385.909 1570.15 392.068 1570.31 394.767 C 1571.11 408.07 1569.31 421.478 1569.41 434.808 C 1569.51 449.444 1571.7 463.992 1571.45 478.651 C 1571.14 497.31 1569.19 515.91 1569.31 534.594 C 1569.42 549.621 1571.64 564.565 1572.19 579.572 C 1572.68 593.239 1571.51 606.95 1571.56 620.627 C 1571.6 633.698 1572.94 646.742 1573.12 659.809 C 1573.35 676.301 1571.65 692.815 1571.76 709.31 C 1571.84 721.863 1573.57 734.362 1573.87 746.91 C 1574.21 760.534 1573.88 773.948 1575.61 787.509 C 1564.13 787.115 1552.69 786.069 1541.25 785.134 C 1524.24 783.726 1507.44 783.629 1490.38 783.973 C 1494.35 762.009 1487.82 741.548 1487.81 719.658 L 1490 492.037 C 1490.09 477.646 1489.25 463.245 1489.25 448.847 C 1489.25 438.27 1490 427.715 1490.17 417.144 C 1490.34 406.872 1489.08 395.334 1491.48 385.377 C 1498.75 381.18 1519.27 382.896 1528.74 382.448 z" fill="rgb(14,15,251)" transform="translate(0,0)"></path>
<path d="M 1692.88 451.427 C 1699.73 451.081 1706.28 451.203 1713.11 451.801 C 1712.86 461.826 1712.74 471.902 1713.58 481.904 C 1714.6 494.124 1716.61 506.473 1716.67 518.736 C 1716.74 532.01 1714.36 545.281 1714.13 558.568 C 1713.93 570.46 1716.44 582.271 1716.41 594.156 C 1716.38 605.665 1715.25 617.189 1715.1 628.703 C 1714.9 644.18 1715.77 659.664 1715.29 675.141 C 1714.89 688.32 1713.71 701.538 1713.66 714.715 C 1713.56 742.176 1720.71 755.876 1714.91 786.409 C 1696.73 787.884 1678.86 786.155 1660.75 784.562 C 1652.73 783.784 1644.61 783.662 1636.56 783.33 C 1638.03 768.208 1638.92 752.717 1638.1 737.535 C 1637.16 719.962 1634.46 702.56 1634.21 684.925 C 1634.02 671.815 1635.57 658.72 1635.32 645.607 C 1635.05 631.465 1632.79 617.355 1633.14 603.198 C 1633.49 588.628 1636.22 574.126 1636.01 559.537 C 1635.81 546.15 1633.51 532.835 1633.39 519.431 C 1633.28 506.418 1635.32 493.379 1635.82 480.377 C 1636.15 471.722 1635.06 462.089 1637.7 453.778 C 1639.48 452.47 1641.34 452.573 1643.5 452.443 C 1651.06 451.988 1658.86 453.052 1666.46 453.097 C 1675.28 453.15 1684.11 452.211 1692.88 451.427 z" fill="rgb(14,15,251)" transform="translate(0,0)"></path>
<path d="M 2126.05 617.346 C 2129.86 617.063 2135.69 616.856 2138.76 619.51 C 2141.99 622.308 2139.16 637.499 2139.11 642.107 C 2138.99 652.877 2141.99 663.926 2142.72 674.71 C 2143.53 686.567 2141.99 698.59 2142.41 710.491 C 2142.85 722.939 2145.48 735.324 2145.62 747.773 C 2145.75 760.068 2143.73 772.563 2143.45 784.933 C 2122.88 785.953 2102.49 786.629 2081.89 785.947 L 2065.58 784.719 C 2065.18 767.549 2066.7 750.395 2066.28 733.306 C 2065.94 719.952 2063.19 706.911 2063.67 693.463 C 2064.18 679.266 2067.24 665.206 2067.85 651.001 C 2068.29 640.773 2065.91 628.72 2069.31 618.996 C 2074.52 617.258 2084.89 619.172 2090.58 619.385 C 2102.57 619.831 2114.16 618.639 2126.05 617.346 z" fill="rgb(14,15,251)" transform="translate(0,0)"></path>
<path d="M 1781.51 656.054 C 1792.67 655.772 1803.81 659.33 1814.96 659.685 C 1826.16 660.041 1837.47 657.154 1848.67 657.935 C 1851.82 658.155 1854.94 658.581 1857.41 660.682 C 1862.08 675.533 1857.75 703.352 1858.38 720.316 C 1858.92 734.739 1861.37 749.203 1861.24 763.626 C 1861.18 771.354 1860.49 778.757 1859.14 786.362 C 1832.76 789.912 1804.58 784.799 1778.21 782.94 C 1779.87 763.615 1777.51 745.346 1777.55 726.133 C 1777.57 713.342 1779.02 700.548 1779.47 687.766 C 1779.79 678.897 1778.94 669.869 1779.46 661.046 C 1779.58 658.914 1780.29 657.74 1781.51 656.054 z" fill="rgb(14,15,251)" transform="translate(0,0)"></path>
<path d="M 261.281 225.872 C 270.599 223.73 288.631 218.621 297.725 218.392 C 318.027 217.882 339.085 217.927 359.472 218.244 C 406.518 218.976 446.148 210.166 488.679 236.976 C 515.707 253.937 534.878 280.955 541.962 312.068 C 547.53 337.062 542.054 352.706 541.844 377.097 C 542.23 392.664 544.219 408.108 544.867 423.662 C 545.351 435.272 542.505 449.3 543.24 460.598 C 545.168 490.225 543.534 518.689 541.905 548.215 C 541.369 557.93 544.862 569.268 544.395 579.195 C 543.665 600.197 540.565 621.258 540.301 642.342 C 540.091 659.17 543.203 676.142 544.032 692.667 C 544.674 705.484 541.805 721.201 542.128 734.593 C 542.58 754.97 545.369 775.305 545.8 795.68 C 546.191 814.163 544.786 832.834 544.925 851.313 C 545.161 882.808 545.566 913.925 543.701 945.397 C 542.918 958.6 545.944 974.044 545.155 987.481 C 545.019 1000.7 542.805 1015.88 542.867 1028.92 C 542.936 1043.31 545.976 1056.44 544.404 1071.47 C 542.411 1090.54 537.353 1105.36 527.526 1121.57 C 515.527 1141.36 499.878 1149.84 485.538 1164.93 C 462.632 1189.03 445.088 1229.54 452.246 1263.24 C 456.59 1283.34 465.669 1302.11 478.727 1317.99 C 492.74 1335.08 510.085 1345.86 526.349 1361.29 C 573.978 1406.48 610.961 1473.63 572.775 1536.65 C 560.749 1556.5 541.609 1567.06 519.545 1571.69 C 491.275 1578.28 472.475 1571.96 444.768 1572.11 C 427.301 1572.2 407.928 1575.45 390.971 1575.37 C 365.641 1575.24 341.054 1571.96 315.362 1572.43 C 294.319 1572.81 272.115 1575.29 251.428 1574.95 C 218.697 1569.71 202.162 1556.62 186.529 1527.8 C 186.08 1521.93 180.801 1510.99 181.216 1504.86 C 183.73 1467.69 180.794 1432.71 178.61 1395.71 C 179.159 1369.32 182.4 1343.32 182.268 1316.52 C 182.143 1291.08 179.05 1265.22 179.608 1240.2 C 182.914 1199.41 182.554 1164.51 180.273 1123.63 C 179.079 1102.23 183.358 1078.12 182.734 1056.52 C 182.074 1033.68 179.547 1010.92 179.698 988.025 L 182.656 672.422 C 182.812 648.69 185.65 625.471 185.675 601.87 C 185.87 586.203 182.913 569.517 183.107 553.965 C 183.65 510.369 184.251 467.259 181.974 423.681 C 181.128 407.502 183.461 389.465 183.664 373.066 C 183.854 357.692 183.041 342.015 184.5 326.742 C 189.98 290.962 211.638 258.458 239.81 236.642 C 247.926 230.889 251.896 229.023 261.281 225.872 z" fill="rgb(34,30,26)" transform="translate(0,0)"></path>
<path d="M 408.823 233.561 C 414.018 233.166 419.303 232.96 424.512 233.066 C 453.077 233.534 480.259 245.447 499.963 266.135 C 515.205 281.863 525.074 302.016 528.153 323.701 C 530.655 342.049 525.699 360.125 526.015 378.477 C 526.271 393.356 528.963 408.172 529.042 423.058 C 529.109 435.584 527.657 448.091 527.683 460.608 C 527.712 474.582 529.19 488.552 528.821 502.532 C 528.422 517.654 526.478 532.79 526.423 547.91 C 526.38 559.501 528.677 570.986 528.527 582.571 C 528.272 602.427 525.22 622.211 525.119 642.1 C 525.032 659.075 527.576 675.979 528.201 692.926 C 528.761 708.121 526.349 723.312 526.633 738.525 C 526.98 757.097 529.78 775.613 530.279 794.198 C 530.807 813.894 529.454 833.627 529.323 853.325 C 529.208 870.771 530.242 888.248 529.796 905.688 C 529.474 918.242 527.924 930.787 527.882 943.341 C 527.835 957.262 529.655 971.158 529.421 985.095 C 529.166 1000.36 526.898 1015.59 527.062 1030.86 C 527.19 1042.84 529.485 1054.7 529.06 1066.71 C 527.591 1108.26 504.014 1126.25 476.292 1152.33 C 452.049 1175.14 435.926 1212.35 435.107 1245.52 C 434.219 1281.44 453.928 1317.18 479.479 1341.34 C 494.013 1355.09 510.057 1366.4 523.972 1381.03 C 550.527 1408.96 574.254 1444 573.033 1484.08 C 572.429 1503.91 564.781 1526.64 549.998 1540.43 C 535.343 1554.11 510.32 1559.35 490.885 1559.26 C 478.272 1559.21 465.533 1557.25 452.868 1556.82 C 431.629 1556.15 410.781 1559.66 389.63 1559.91 C 371.84 1560.12 353.935 1557.54 336.118 1557.09 C 313.682 1556.52 291.899 1558.38 269.533 1559.41 C 249.145 1560.35 232.054 1557.46 216.679 1543.3 C 206.534 1533.96 199.665 1522.39 197.303 1508.71 C 194.601 1493.06 198.01 1476.13 198.042 1460.29 C 198.089 1437.64 194.468 1414.98 194.31 1392.3 C 194.164 1371.4 197.163 1350.4 197.558 1329.45 C 198.072 1302.22 194.497 1275.09 194.858 1247.91 C 195.099 1229.76 197.407 1211.67 197.772 1193.51 C 198.231 1170.64 195.896 1147.75 195.86 1124.86 C 195.825 1103.36 197.52 1081.94 197.72 1060.46 C 197.863 1045.14 196.614 1029.75 195.915 1014.44 C 194.573 985.039 197.924 956.173 197.916 926.869 C 197.91 904.241 195.813 881.654 195.972 859.005 C 196.111 839.152 198.252 819.35 198.663 799.5 L 201.025 608.321 C 201.128 588.759 199.345 569.198 199.03 549.638 C 198.662 526.789 199.891 503.911 199.804 481.057 C 199.729 461.462 198.197 441.883 197.996 422.293 C 197.834 406.573 198.916 390.761 199.439 375.047 C 199.94 359.975 198.099 343.93 200.022 329.063 C 202.757 307.92 215.3 282.121 229.781 266.434 C 237.99 257.542 247.412 248.909 258.538 243.858 C 270.301 238.519 285.033 235.606 297.836 234.361 C 309.044 233.272 320.779 234.282 332.064 234.293 C 357.613 234.318 383.298 234.596 408.823 233.561 z" fill="rgb(244,237,222)" transform="translate(0,0)"></path>
<path d="M 303.952 516.29 C 275.239 500.048 266.159 502.102 254.254 465.975 C 239.108 420.015 239.205 394.891 263.368 351.277 C 278.762 323.491 309.92 299.169 341.767 292.811 C 358.602 288.81 403.9 289.482 419.527 292.908 C 425.337 294.156 430.884 296.415 435.913 299.583 C 452.597 309.949 479.376 341.263 481.226 360.728 C 482.009 368.957 489.802 391.379 489.799 395.433 C 489.773 425.237 480.971 458.09 464.581 482.992 C 445.913 511.353 434.721 513.939 401.911 522.415 C 390.645 525.326 375.648 521.907 365.395 526.067 C 339.709 531.483 328.072 525.316 303.952 516.29 z" fill="rgb(34,30,26)" transform="translate(0,0)"></path>
<path d="M 356.673 306.338 C 357.682 306.235 358.693 306.156 359.705 306.1 C 374.389 305.371 409.194 305.502 422.375 310.464 C 428.18 312.65 433.218 316.706 437.768 320.829 C 458.972 340.041 461.968 350.12 469.02 376.659 C 471.049 384.296 473.731 392.203 474.054 400.144 C 475.17 427.539 459.934 468.126 441.507 488.076 C 424.341 506.661 396.343 507.143 373.092 508.212 C 366.912 509.681 360.671 511.34 354.399 512.363 C 336.831 515.23 301.993 500.674 287.466 490.031 C 270.551 477.638 270.127 461.113 265.152 442.595 C 263.12 435.033 260.047 427.345 258.961 419.588 C 256.37 401.079 271.682 365.175 282.624 350.261 C 301.975 323.884 324.739 311.256 356.673 306.338 z" fill="rgb(244,237,222)" transform="translate(0,0)"></path>
<path d="M 370.45 343.281 C 378.502 342.678 394.729 341.953 401.468 346.14 C 403.95 347.682 404.415 349.098 405.246 351.78 C 405.03 353.289 404.944 354.6 404.051 355.881 C 399.477 362.444 373.566 358.453 364.683 359.918 C 349.408 362.438 338.112 371.015 329.335 383.494 C 327.791 385.593 326.571 388.314 325.336 390.63 C 323.739 393.622 322.369 396.826 319.142 398.385 C 316.715 399.559 315.669 399.459 313.139 398.724 C 311.353 396.764 310.443 395.353 309.992 392.692 C 308.709 385.112 314.017 377.66 318.342 371.892 C 331.358 354.529 349.389 346.366 370.45 343.281 z" fill="rgb(34,30,26)" transform="translate(0,0)"></path>
<path d="M 364.766 548.298 C 386.102 547.593 410.679 556.006 429.055 566.477 C 451.767 579.419 470.781 598.267 477.547 624.233 C 479.327 631.067 479.978 638.223 481.32 645.163 C 486.476 671.822 488.857 684.668 480.769 711.371 C 478.112 720.146 475.05 728.896 470.389 736.831 C 464.745 746.44 456.653 753.823 448.932 761.705 C 417.037 794.267 413.258 785.953 371.788 796.954 C 371.502 797.005 371.216 797.059 370.929 797.107 C 352.41 800.199 310.303 790.116 295.338 779.147 C 261.086 754.04 255.018 721.032 249.193 681.832 C 244.99 653.554 258.258 612.982 275.516 590.176 C 291.191 569.46 339.381 551.921 364.766 548.298 z" fill="rgb(34,30,26)" transform="translate(0,0)"></path>
<path d="M 362.623 564.325 C 381.565 563.547 400.581 568.593 417.222 577.472 C 438.74 588.953 455.21 604.188 462.304 628.185 C 464.523 635.692 465.451 643.778 466.818 651.482 C 470.518 672.333 472.06 686.261 465.581 706.971 C 463.248 714.43 460.587 722.017 456.777 728.866 C 448.463 743.812 425.409 767.214 409.051 772.628 C 397.496 776.453 384.744 777.358 372.888 780.807 C 367.456 781.892 361.986 782.572 356.446 782.151 C 343.706 781.183 315.851 773.868 304.945 766.978 C 287.142 755.731 275.148 733.918 271.073 713.789 C 264.213 679.91 259.378 662.993 272.821 629.207 C 276.518 619.915 280.449 610.327 286.074 602.025 C 289.247 597.34 293.036 593.002 297.608 589.636 C 311.885 579.125 345.225 567.633 362.623 564.325 z" fill="rgb(244,237,222)" transform="translate(0,0)"></path>
<path d="M 337.956 605.908 C 339.132 605.936 340.339 605.927 341.498 606.182 C 344.268 606.793 345.703 607.968 347.245 610.257 C 347.767 619.84 329.793 628.838 323.615 638.614 C 314.873 652.446 312.873 669.802 316.471 685.591 C 319.853 700.434 328.39 716.513 341.803 724.573 C 351.67 730.502 373.469 732.895 384.816 729.895 C 402.312 725.268 415.648 710.972 424.711 696.227 C 427.382 691.881 429.309 689.808 434.324 688.624 C 436.421 689.29 437.085 689.332 438.198 691.406 C 441.109 696.83 439.181 701.399 437.143 706.578 C 429.36 720.913 414.62 731.744 400.752 739.996 C 386.767 748.318 362.263 747.752 346.743 743.576 C 330.627 739.24 318.498 727.578 310.296 713.394 C 299.171 694.295 296.162 671.534 301.943 650.2 C 307.563 630.138 320.101 616.088 337.956 605.908 z" fill="rgb(34,30,26)" transform="translate(0,0)"></path>
<path d="M 626.82 1233.64 C 622.56 1212.02 624.427 1198.62 624.21 1177 C 623.916 1140.38 626.39 1103.85 626.978 1067.25 C 627.31 1046.62 623.039 1024.67 623.16 1004.24 C 623.345 973.103 625.173 942.456 623.262 911.238 C 622.495 898.701 624.677 884.404 624.315 871.676 C 624.534 841.006 619.696 816.77 638.164 789.437 C 652.104 769.156 673.483 755.193 697.657 750.58 C 714.12 747.549 730.175 749.076 746.746 749.024 C 754.415 749.001 762.685 748.788 770.346 748.344 C 790.965 747.148 811.232 749.654 831.825 750.098 C 856.814 750.637 881.836 748.292 906.81 747.844 C 929.285 747.658 953.467 750.308 976.117 750.376 C 995.645 750.46 1015.19 748.25 1034.7 747.992 C 1051.04 747.776 1067.45 749.174 1083.83 749.166 C 1096.16 749.159 1109.22 748.049 1121.49 748.848 C 1133.22 749.612 1146.21 755.323 1155.78 761.748 C 1167.82 769.83 1175.85 782.817 1178.05 797.083 C 1182.8 819.682 1171.28 860.375 1190.87 875.423 C 1201.35 883.472 1216.75 879.76 1229.01 881.317 C 1249.31 883.896 1267.51 898.284 1271.29 918.867 C 1273.56 931.219 1272.57 947.939 1272.86 960.912 C 1273.21 976.024 1274.06 991.643 1274.07 1006.71 C 1273.81 1024.68 1273.09 1042.6 1272.75 1060.57 C 1272.35 1081.11 1274.88 1102.15 1274.61 1122.6 C 1274.19 1153.85 1271.88 1185.06 1272.57 1216.38 C 1272.67 1221.1 1270.47 1227.61 1269.74 1232.28 C 1269.21 1235.56 1266.74 1241.18 1266.47 1243.88 C 1251.83 1271.81 1233.63 1290.88 1201.78 1297.89 C 1182.21 1301.12 1152.51 1299.51 1131.87 1301.26 C 1113.64 1302.81 1089.76 1297.38 1070.48 1300.71 C 1049.38 1302.43 1027.77 1298.78 1006.61 1299.25 C 988.203 1299.3 969.715 1301.45 951.33 1301.09 C 934.848 1300.78 917.928 1298.8 901.48 1299.09 C 878.351 1299.63 856.376 1302.6 833.148 1300.86 C 806.693 1298.87 779.756 1299.52 753.233 1299.39 C 744.588 1299.34 733.98 1298.66 725.628 1299.26 C 707.17 1298.91 694.187 1299.75 676.705 1291.33 C 649.494 1278.23 636.825 1260.96 626.82 1233.64 z" fill="rgb(34,30,26)" transform="translate(0,0)"></path>
<path d="M 710.753 764.401 C 721.601 763.952 732.62 764.66 743.492 764.667 L 837.292 765.529 C 859.838 765.801 882.377 763.909 904.924 763.901 C 929.249 763.892 953.564 765.939 977.897 766.14 C 995.324 766.283 1012.72 764.635 1030.13 764.204 C 1046.46 763.8 1062.85 764.824 1079.19 764.919 C 1095.29 765.013 1114.8 762.878 1130.44 766.064 C 1138.46 767.696 1145.9 771.991 1151.73 777.671 C 1170.36 795.822 1163.27 821.915 1163.78 845.052 C 1164.33 870.342 1174.83 891.952 1202.4 895.608 C 1218.53 897.746 1235.4 892.965 1248.44 906.197 C 1253.57 911.397 1255.67 918.174 1256.59 925.244 C 1257.95 935.784 1256.65 946.875 1256.85 957.52 C 1257.15 973.724 1258.56 989.937 1258.56 1006.14 C 1258.56 1023.76 1257.23 1041.42 1256.91 1059.05 C 1256.54 1079.26 1258.61 1099.49 1258.75 1119.7 C 1258.88 1138.28 1257.32 1156.86 1256.78 1175.42 C 1256.46 1186.31 1257.06 1197.21 1257.01 1208.1 C 1256.89 1229.9 1249.23 1247.82 1233.6 1263.13 C 1218.57 1277.83 1201.89 1283.22 1181.25 1283.06 C 1165.06 1282.55 1149.06 1284.87 1132.94 1284.66 L 804.582 1283.07 C 780.593 1282.74 756.515 1283.66 732.508 1283.66 C 722.428 1283.65 711.625 1284.31 701.64 1282.95 C 689.773 1281.33 677.026 1275.26 667.827 1267.67 C 652.543 1255.07 641.457 1236.55 639.822 1216.67 C 638.902 1205.48 639.773 1193.89 639.853 1182.66 C 640.12 1145.5 642.733 1108.26 642.501 1071.14 C 642.366 1049.51 639.874 1027.96 639.29 1006.35 C 638.802 988.264 639.909 970.143 639.936 952.054 C 639.976 925.606 639.076 899.42 639.627 872.927 C 639.936 858.044 637.896 841.79 639.837 827.124 C 641.586 813.913 647.998 800.962 656.639 790.915 C 670.624 774.651 689.586 765.959 710.753 764.401 z" fill="rgb(244,237,222)" transform="translate(0,0)"></path>
<path d="M 706.931 1127.46 C 703.275 1098.83 698.843 1068.84 719.253 1044.09 C 753.241 1002.89 801.075 994.867 849.797 983.829 C 892.342 968.806 929.827 934.463 955.535 898.27 C 970.039 877.852 983.375 874.014 1002.24 862.665 C 1064.09 825.526 1142.26 871.335 1149.46 940.091 C 1153.27 976.54 1125.3 1043.46 1103.38 1069.84 C 1067.93 1112.5 1030.93 1145.96 980.011 1167.98 C 953.739 1179.34 932.36 1193.49 902.564 1197.58 C 855.591 1210.98 797.674 1216.01 754.374 1189.14 C 750.659 1186.83 732.622 1171.66 730.77 1171.04 C 723.917 1156.54 712.989 1148.56 706.931 1127.46 z" fill="rgb(34,30,26)" transform="translate(0,0)"></path>
<path d="M 1044.51 864.471 C 1045.91 864.44 1047.3 864.437 1048.7 864.462 C 1071.33 864.785 1091.99 872.751 1107.67 889.241 C 1123.41 905.789 1134.55 927.988 1133.92 951.194 C 1133.27 974.774 1114.65 1026.51 1102.2 1046.04 C 1091.97 1062.09 1074.36 1081.24 1060.48 1094.29 C 1046.54 1107.38 1031.89 1121.19 1015.97 1131.86 C 1005.75 1138.7 994.771 1143.18 983.794 1148.57 C 964.695 1157.94 946.119 1168.86 925.868 1175.63 C 915.651 1179.05 904.894 1180.8 894.489 1183.57 C 883.566 1186.48 872.589 1190.25 861.341 1191.61 C 844.186 1193.67 826.08 1191.92 808.836 1191.36 C 787.586 1190.13 768.233 1181.82 751.938 1168.47 C 732.01 1152.13 722.135 1130.39 719.751 1105.09 C 716.929 1075.15 726.404 1054.35 749.955 1035.94 C 758.088 1029.59 766.936 1023.85 776.432 1019.75 C 784.023 1016.47 792.129 1014.42 800.01 1011.95 C 808.482 1009.3 817.064 1006.24 825.712 1004.23 C 840.447 1000.81 853.763 1000.89 867.684 994.008 C 897.948 979.039 926.641 957.414 948.721 931.865 C 955.82 923.65 961.887 914.601 968.87 906.302 C 981.679 891.081 1010.53 871.982 1029.91 866.471 C 1034.57 865.144 1039.69 864.906 1044.51 864.471 z" fill="rgb(14,15,251)" transform="translate(0,0)"></path>
<path d="M 761.838 806.124 C 801.861 802.163 837.647 831.077 842.181 871.039 C 846.716 911.001 818.319 947.198 778.426 952.306 C 752.106 955.676 726.011 944.611 710.135 923.349 C 694.259 902.088 691.063 873.924 701.771 849.646 C 712.48 825.368 735.432 808.737 761.838 806.124 z" fill="rgb(34,30,26)" transform="translate(0,0)"></path>
<path d="M 1147.34 1161.27 C 1149.9 1160.94 1152.42 1160.63 1155 1160.59 C 1156.98 1160.55 1161.02 1160.1 1162.55 1161.79 C 1165.03 1164.53 1168.18 1164.27 1171.54 1165.82 C 1179.62 1169.57 1186.99 1176.45 1189.89 1185.01 C 1192.87 1193.8 1191.02 1203.91 1186.75 1211.95 C 1182.7 1219.55 1174.41 1227.55 1165.99 1229.98 C 1164.88 1230.3 1163.78 1230.61 1162.68 1230.96 C 1153.61 1232.35 1146.07 1231.83 1137.72 1227.54 C 1129.48 1223.31 1121.92 1214.38 1119.26 1205.47 C 1116.26 1195.42 1117.91 1186.48 1123.08 1177.56 C 1128.32 1168.52 1137.65 1163.95 1147.34 1161.27 z" fill="rgb(34,30,26)" transform="translate(0,0)"></path>
<path d="M 1148.87 1170.12 C 1156.29 1169.06 1155.65 1171.13 1161.52 1171.74 C 1162.55 1171.85 1163.49 1171.89 1164.48 1172.18 C 1171.3 1174.16 1176.61 1179.49 1179.96 1185.54 C 1182.59 1190.3 1182.71 1196.4 1180.99 1201.49 C 1177.63 1211.48 1171.01 1217.9 1161.71 1222.33 C 1155.23 1223.09 1149.89 1223.3 1143.82 1220.52 C 1137.65 1217.69 1131.66 1212.44 1129.35 1205.9 C 1127.11 1199.58 1126.56 1190.86 1129.63 1184.72 C 1133.02 1177.93 1138.7 1173.7 1145.77 1171.21 C 1146.81 1170.85 1147.84 1170.49 1148.87 1170.12 z" fill="rgb(14,15,251)" transform="translate(0,0)"></path>
<path d="M 735.13 1229.49 C 739.037 1228.51 743.002 1230.88 743.978 1234.79 C 744.955 1238.7 742.571 1242.66 738.659 1243.63 C 734.76 1244.59 730.817 1242.22 729.844 1238.32 C 728.871 1234.42 731.235 1230.47 735.13 1229.49 z" fill="rgb(34,30,26)" transform="translate(0,0)"></path>
<path d="M 1134.67 1337.59 C 1135.63 1337.52 1136.59 1337.45 1137.55 1337.38 C 1173.61 1334.95 1208.51 1345 1235.81 1369.16 C 1259.04 1389.73 1273.82 1417.8 1275.43 1448.98 C 1277.08 1479.17 1266.45 1508.75 1245.95 1530.97 C 1228.66 1549.72 1206.79 1561.24 1182.04 1566.8 C 1165.21 1570.59 1148.57 1570.57 1131.45 1570.91 C 1103.16 1571.47 1075.17 1570.76 1046.91 1570.63 C 1032.45 1570.56 1018.04 1573.11 1003.62 1572.9 C 988.681 1572.67 973.698 1569.84 958.756 1570.17 C 945.801 1570.45 932.963 1573.21 919.971 1573.25 C 904.861 1573.31 889.734 1571.51 874.629 1571.07 C 859.778 1570.64 844.738 1571.69 829.893 1572.31 C 794.015 1573.93 762.726 1569.39 734.228 1545.55 C 710.169 1525.22 695.173 1496.16 692.539 1464.77 C 690.16 1435.76 699.983 1404.84 719.066 1382.83 C 733.768 1365.87 753.602 1352.85 775.293 1346.91 C 795.446 1341.39 815.177 1341.93 835.793 1341.18 C 852.37 1340.58 868.966 1338.1 885.534 1337.98 C 905.359 1337.84 925.322 1340.47 945.193 1340.82 C 959.19 1341.06 973.148 1338.12 987.145 1338.18 L 1083.5 1337.88 C 1100.72 1337.84 1117.42 1338.82 1134.67 1337.59 z" fill="rgb(34,30,26)" transform="translate(0,0)"></path>
<path d="M 1061.5 1555.11 C 1040.2 1554.89 1024.58 1556.32 1003.63 1557.49 C 989.683 1557.03 976.026 1554.31 962.024 1554.03 C 948.321 1553.75 934.34 1557.16 920.749 1557.29 C 904.48 1557.52 887.271 1554.54 871.153 1554.69 C 820.92 1555.16 778.9 1567.99 737.991 1528.65 C 719.115 1510.15 708.26 1484.97 707.762 1458.55 C 707.316 1431.56 716.615 1406.67 735.572 1387.31 C 748.736 1373.97 765.446 1364.69 783.723 1360.56 C 810 1354.44 842.603 1360.26 870.029 1354.83 C 872.944 1354.26 880.793 1353.85 883.896 1353.95 C 909.889 1354.78 935.728 1358.76 961.794 1356.28 C 990.384 1353.57 1018.68 1356.23 1047.48 1355.91 C 1053.23 1355.26 1079.8 1352.81 1083.63 1355.33 C 1082.21 1356.32 1081.59 1356.94 1080.01 1357.57 C 1050.98 1376.16 1031.31 1398.72 1023.95 1433.03 C 1012.89 1484.62 1036.89 1523.7 1077.13 1552.4 L 1080.36 1554.14 L 1080.33 1555.31 C 1075.52 1556.38 1066.4 1555.96 1061.5 1555.11 z" fill="rgb(244,237,222)" transform="translate(0,0)"></path>
<path d="M 1061.44 480.472 C 1078.11 480.194 1094.81 480.853 1111.48 480.798 C 1126.16 480.75 1140.95 479.805 1155.61 480.358 C 1186.59 481.326 1215.88 494.647 1236.97 517.351 C 1257 539.27 1269.38 569.503 1267.8 599.37 C 1266.15 630.631 1250.97 660.278 1227.55 680.879 C 1211.5 694.998 1191.99 703.427 1171.03 707.065 C 1155.1 709.829 1139.54 708.196 1123.52 707.933 L 1052.13 706.936 C 1039.05 706.864 1026.02 708.215 1012.95 708.256 C 1001.46 708.292 990.006 707.023 978.503 707.413 C 966.432 707.822 954.377 709.631 942.296 709.584 C 928.182 709.529 913.864 707.838 899.76 706.967 C 888.588 706.936 877.316 708.401 866.141 708.923 C 853.48 709.514 840.734 709.28 828.06 709.22 C 790.13 709.038 758.447 705.906 729.12 678.936 C 706.294 657.945 692.53 630.339 691.311 599.215 C 689.995 568.947 700.883 539.418 721.531 517.249 C 737.002 500.884 757.087 489.616 779.116 484.943 C 801.61 480.013 824.595 482.417 847.395 482.721 L 947.435 484.435 C 959.205 484.635 970.863 481.525 982.618 481.201 C 994.989 480.86 1007.45 481.997 1019.84 482.021 C 1033.68 482.048 1047.61 481.021 1061.44 480.472 z" fill="rgb(34,30,26)" transform="translate(0,0)"></path>
<path d="M 724.431 650.915 C 712.32 637.568 706.045 609.972 706.464 592.249 C 707.001 566.153 718.076 541.384 737.166 523.583 C 771.249 491.759 807.709 498 850.397 498.957 C 864.094 500.075 883.274 495.364 896.506 496.707 C 925.895 499.689 951.077 502.547 980.737 497.721 C 988.513 496.456 1006.7 497.889 1015.32 498.216 C 1020.02 498.042 1037.77 496.806 1040.73 497.997 C 1038.89 499.688 1039.05 499.686 1036.72 500.496 C 1009.57 519.145 989.394 543.636 984.003 576.688 C 975.651 627.892 998.422 663.907 1039.17 691.107 C 1017.52 692.639 998.464 692.137 976.835 691.259 C 965.953 690.817 952.578 694.318 941.413 693.737 C 931.416 693.254 919.943 692.712 910.005 691.511 C 891.904 689.322 874.972 693.568 857.284 693.513 C 821.401 693.401 781 698.704 750.303 676.138 C 750.169 675.978 750.035 675.818 749.9 675.658 C 739.776 669.614 731.404 660.302 724.431 650.915 z" fill="rgb(244,237,222)" transform="translate(0,0)"></path>
<path d="M 855.306 222.395 C 879.876 220.476 905.087 225.378 929.89 225.203 L 1101.01 225.559 C 1119.02 225.546 1137.02 223.252 1155.01 223.504 C 1186.11 223.968 1215.71 236.931 1237.13 259.469 C 1256.69 279.821 1269.2 308.801 1268.4 337.206 C 1267.56 367.424 1253.06 397.722 1231.06 418.246 C 1192.24 454.447 1152.46 449.578 1103.75 447.676 C 1094.11 447.699 1084.38 449.541 1074.79 450.506 C 1056.9 452.303 1038.99 450.333 1021.08 449.77 C 1008.7 449.38 996.415 450.444 984.061 450.312 C 971.932 450.183 959.825 448.797 947.693 448.686 C 931.479 448.537 915.208 450.122 898.979 450.287 C 879.341 450.486 859.711 449.426 840.077 449.517 C 822.051 449.601 803.733 451.337 785.873 448.279 C 765.494 444.92 746.373 436.205 730.469 423.028 C 708.082 404.561 693.432 376.072 690.986 347.199 C 688.456 317.329 696.693 289.036 716.207 266.038 C 737.058 241.682 766.695 226.559 798.653 223.971 C 817.508 222.629 836.412 224.049 855.306 222.395 z" fill="rgb(34,30,26)" transform="translate(0,0)"></path>
<path d="M 926.314 241.239 L 1152.61 240.093 C 1156.06 240.213 1157.21 239.643 1159.63 241.247 C 1158.03 243.121 1158.14 243.001 1155.94 244.126 C 1131.79 262.625 1115.99 288.233 1112.03 318.559 C 1107.79 349.085 1116.02 380.034 1134.86 404.421 C 1142.65 414.41 1150.68 421.047 1160.98 428.304 L 1164.8 430.776 L 1165.07 432.187 C 1162.92 432.757 1162.45 432.971 1160.25 433.043 C 1141.84 433.786 1121.39 430.577 1104.27 431.736 C 1074.19 433.773 1047.97 436.647 1017.39 433.165 C 1007.07 431.99 991.764 434.836 980.503 434.011 C 962.868 432.718 944.972 432.319 927.302 433.05 C 921.894 433.958 919.191 434.608 913.617 434.154 L 913.706 433.134 L 917.116 431.616 C 931.698 422.91 942.909 414.354 953.549 400.832 C 971.173 378.02 979.101 349.184 975.616 320.568 C 971.213 285.003 953.597 262.37 926.314 241.239 z" fill="rgb(244,237,222)" transform="translate(0,0)"></path>
<path d="M 1184.85 243.933 C 1185.02 243.983 1185.19 244.026 1185.36 244.084 C 1210.17 252.842 1231.36 270.057 1242.99 293.929 C 1254.57 317.68 1256.12 341.829 1247.3 366.669 C 1237.69 393.73 1219.49 413.057 1193.75 425.454 C 1190.32 426.749 1188.28 426.463 1184.88 425.307 C 1163.99 418.211 1145.4 397.44 1135.89 378.09 C 1124.15 354.333 1122.43 326.857 1131.12 301.822 C 1140.3 275.089 1159.79 256.097 1184.85 243.933 z" fill="rgb(14,15,251)" transform="translate(0,0)"></path>
<metadata><recraft-signature>{"signed_by": "recraft", "signature_b64": "w/64dLZrgMtL+p11yXlkmizd/1SUlWHu2AQ7pRoMu3eEOye13WmBrma8FkF55y9WF9pKpHPo9KvaFWr2MSPbCg==", "signing_algo": "Ed25519", "generation_timestamp": 1782911630, "identifier": "eb9545a4-0c32-4aea-b2a1-86e4dad7d4ff"}</recraft-signature></metadata></svg>