<svg xmlns="http://www.w3.org/2000/svg" height="1792" preserveAspectRatio="none" style="display: block;" version="1.1" viewBox="0 0 2432 1792" width="2432">
<path d="M 0 0 L 2432 0 L 2432 1792 L 0 1792 L 0 0 z" fill="rgb(244,237,222)" transform="translate(0,0)"></path>
<path d="M 1104.73 154.411 C 1118.68 153.544 1135.51 155.751 1149.92 155.806 C 1180.32 155.921 1210.1 154.221 1240.43 157.317 C 1247.78 158.067 1259.75 155.096 1267.52 155.383 C 1298.14 158 1329.61 168.452 1356.05 184.171 C 1360.82 187.07 1366.16 195.139 1370.96 197.963 C 1375.1 200.086 1381.12 201.4 1385.05 203.61 C 1418.9 222.621 1439.07 248.946 1448.36 286.904 C 1450.12 292.673 1449.73 302.021 1451.28 307.505 C 1455.66 323.03 1454.49 332.273 1453.41 347.441 C 1452.64 358.192 1455.5 373.606 1454.84 384.944 C 1454.51 390.001 1457.54 405.406 1456.55 409.315 C 1451.55 429.072 1456.05 443.421 1456.03 461.915 C 1456.01 483.735 1453.27 508.257 1453.86 530.458 C 1454.1 539.518 1456.58 548.983 1456.7 558.105 C 1455.47 577.239 1454.6 595.373 1455.71 614.553 C 1456.16 622.362 1453.46 632.523 1453.65 640.636 C 1453.86 648.818 1454.47 656.817 1454.64 664.978 C 1453.74 681.109 1453.24 697.844 1453.18 714.009 L 1453.94 955.942 C 1453.98 967.687 1451.15 980.634 1451.3 991.951 L 1451.89 1108.98 C 1452.03 1119.17 1455.19 1132.6 1454.86 1143.14 C 1454.52 1154.07 1451.18 1165.29 1450.92 1176.26 C 1450.61 1189.2 1453.95 1203.2 1453.92 1216.07 C 1453.9 1223.14 1450.96 1233.6 1451.02 1240.8 C 1451.08 1248.45 1453.23 1257.77 1452.66 1265.36 C 1451.96 1274.65 1449.69 1284.49 1449.6 1293.87 C 1449.53 1301.16 1452.39 1310.54 1452.34 1317.64 C 1452.64 1326.43 1450.62 1336.6 1451.04 1345.23 C 1451.86 1361.95 1451.07 1377.69 1449.98 1394.31 C 1449.51 1401.49 1452.5 1411.39 1452.24 1419.01 C 1451.99 1426.56 1451.62 1434 1451.2 1441.54 C 1451.58 1456.46 1452.48 1470.73 1451.03 1485.68 C 1450.59 1490.22 1453.13 1497.1 1452.84 1501.99 C 1452.42 1509.18 1449.88 1515.9 1447.85 1522.75 C 1438.57 1554.27 1426.76 1574.07 1403.29 1597.57 C 1379.56 1621.34 1349.69 1628.94 1318.04 1636.13 C 1312.68 1637.34 1299.76 1634.94 1293.55 1635.16 C 1284.3 1635.46 1275.25 1638.02 1265.99 1638.15 C 1257.63 1638.73 1247.89 1636.05 1239.74 1636.22 C 1223.44 1636.54 1207.95 1636.63 1191.65 1635.58 C 1183.49 1635.06 1172.31 1639.38 1163.31 1639.06 C 1152.05 1639.45 1140.04 1636.95 1128.88 1637.16 C 1109.36 1637.53 1090.88 1638.68 1071.33 1636.23 C 1064.88 1635.42 1055.27 1637.39 1048.47 1637.09 C 1042.23 1636.81 1035.84 1636.5 1029.59 1636.32 C 1014.41 1637.78 1005.64 1639.49 990.109 1639 C 978.887 1637.37 966.065 1639.07 954.417 1638.88 C 944.694 1638.73 932.413 1636.65 923.322 1636.86 C 904.222 1637.31 885.728 1638.64 866.483 1638.13 C 855.971 1637.85 845.861 1636.35 835.504 1636.11 C 825.46 1635.87 808.51 1640.24 798.128 1638.08 C 774.717 1633.21 737.888 1623.78 719.048 1609.58 C 706.384 1600.04 697.168 1588.39 686.69 1577.53 C 680.753 1571.38 671.761 1565.75 664.857 1559.01 C 639.178 1533.93 626.065 1501.43 623.178 1465.97 C 622.445 1456.97 626.281 1444.73 625.946 1435.56 C 625.486 1422.95 623.15 1409.75 623.058 1397.13 C 622.985 1387.21 624.6 1375.88 624.633 1366.03 C 624.761 1326.82 629.253 1284.47 623.202 1245.84 C 620.441 1228.21 625.487 1220.52 625.807 1203.7 C 626.35 1191.4 622.05 1177 622.666 1164.96 C 623.794 1142.95 625.822 1121.56 625.079 1099.42 C 624.757 1089.83 626.905 1078.69 626.801 1068.85 C 626.68 1057.45 627.139 1045.94 626.403 1034.54 C 625.945 1026.22 623.829 1016.94 623.94 1008.52 C 624.229 986.751 624.082 965.697 625.285 943.93 C 625.784 934.91 623.687 922.083 624.238 912.047 C 624.942 899.233 626.504 885.93 626.631 873.205 C 626.754 860.98 623.438 846.693 623.533 834.37 C 623.596 826.35 626.101 816.804 626.176 808.74 L 626.288 489.257 C 626.156 474.14 623.455 458.507 623.306 443.617 C 626.209 425.343 620.967 398.232 623.108 381.071 C 627.169 348.532 624.506 318.871 625.292 286.49 C 625.78 266.379 638.788 231.625 651.461 216.272 C 668.385 195.768 692.565 177.531 717.101 167.09 C 737.693 159.445 777.495 159.943 800.572 155.969 C 805.219 155.168 822.398 159.571 826.483 158.7 C 844.009 154.963 855.536 156.775 872.944 159.297 C 882.481 160.005 898.385 155.626 907.267 156.758 C 944.405 161.493 979.776 155.373 1016.85 157.376 C 1026.17 157.879 1039.57 154.201 1048.6 154.748 C 1069.1 155.989 1084.26 156.798 1104.73 154.411 z" fill="rgb(34,30,26)" transform="translate(0,0)"></path>
<path d="M 832.612 188.407 C 840.495 188.869 848.683 191.905 856.51 191.726 C 870.297 191.411 884.604 188.227 898.408 188.458 C 907.912 188.618 920.94 192.466 930.28 191.921 C 943.711 191.137 956.754 187.905 970.502 187.852 C 980.216 187.814 991.702 190.977 1000.56 191.036 C 1010.61 191.102 1020.84 188.552 1031.86 188.614 C 1048.9 188.71 1065.58 190.978 1082.42 191.33 C 1093.11 191.553 1106.69 187.654 1118.03 188.067 C 1129.07 188.468 1140.47 191.928 1151.14 192.07 C 1161.12 192.203 1173.04 190.062 1183.06 190.167 C 1192.6 190.268 1201.38 191.377 1211.11 191.117 C 1221.52 190.839 1235.94 188.905 1245.91 190.161 C 1251.82 190.906 1262.17 193.078 1268.33 194.318 C 1275.52 195.764 1288.87 196.719 1294.98 198.557 C 1318.09 205.502 1341.38 222.123 1356.51 240.693 C 1371.84 259.515 1373.88 273.327 1375.55 296.561 C 1377.16 318.942 1374.54 342.353 1374.36 364.975 L 1374.32 501.11 C 1374.36 512.343 1377.44 524.406 1377.85 535.553 C 1378.52 544.108 1375.13 554.933 1375.65 563.189 C 1377.19 587.611 1377.63 611.958 1376.36 636.436 C 1375.87 645.925 1381.27 667.772 1379.96 675.023 C 1375.75 698.281 1377.9 715.769 1378.2 738.506 L 1380.65 908.081 C 1380.83 932.854 1376.25 953.63 1379.74 980.332 C 1381.63 994.708 1374.98 1017.84 1378.45 1034.99 C 1382.64 1055.72 1379.39 1079.56 1379.1 1100.41 C 1380.84 1123.94 1379.47 1142.64 1377.3 1165.91 C 1375.98 1180.15 1380.52 1204.87 1378.9 1221.64 C 1376.64 1246.93 1378.77 1270.96 1379.5 1295.89 C 1380.79 1339.83 1378.27 1386.17 1379.14 1429.76 C 1379.93 1469.59 1368.7 1508.73 1337.06 1534.37 C 1316.39 1551.13 1294.29 1561.94 1268.28 1561.46 C 1244.04 1563.57 1242.88 1568.28 1214.85 1564.37 C 1201.67 1562.78 1192.46 1565.03 1179.46 1566.52 C 1166.46 1569.7 1146.77 1562.12 1135.39 1563.21 C 1114.26 1565.24 1094.4 1562.86 1073.85 1562.84 L 838.813 1562.65 C 820.777 1562.65 802.521 1565.32 783.8 1563.27 C 775.961 1562.42 766.986 1564.63 757.776 1562.87 C 739.641 1559.4 717.693 1549.73 701.872 1540 C 680.36 1520.91 661.132 1504.1 659.374 1473.45 C 658.421 1456.85 660.407 1439.71 660.276 1423.28 L 660.216 1276.65 C 660.067 1258.61 657.056 1237.27 657.172 1218.78 C 657.228 1209.9 660.2 1199.67 660.367 1191.1 C 660.529 1182.74 659.584 1173.43 659.569 1164.84 L 658.106 1033.41 C 657.99 1022.28 660.577 1007.73 659.69 997.332 C 657.692 973.901 657.348 952.456 658.564 929.002 C 659.177 917.157 656.594 903.232 657.064 891.065 C 657.766 872.914 660.158 854.964 660.362 836.812 C 660.394 823.455 658.677 810.111 658.646 796.999 L 657.392 515.436 C 657.283 505.743 661.641 492.64 660.878 484.335 C 658.115 454.26 657.709 425.306 659.056 395.138 C 659.445 384.986 656.94 373.497 657.282 363.529 C 659.062 343.81 657.52 321.404 659.165 302.104 C 660.805 282.857 675.026 248.234 686.654 234.016 C 705.991 210.372 740.522 192.258 771.132 191.45 C 792.604 190.883 810.998 190.24 832.612 188.407 z" fill="rgb(244,237,222)" transform="translate(0,0)"></path>
<path d="M 962.591 366.361 C 981.245 365.043 1006.3 367.053 1025.98 366.482 C 1043.44 365.975 1062.28 369.639 1080.59 367.392 C 1089.07 366.351 1103.89 370.293 1113.03 369.438 C 1135.86 367.103 1155.99 369.885 1178.43 370.564 C 1204.44 371.351 1241.35 365.992 1265.51 378.255 C 1281.3 386.272 1304.16 405.596 1315.29 419.729 C 1321.49 427.792 1330.53 449.088 1332.02 459.766 C 1332.55 485.6 1332.24 511.609 1333.28 537.493 C 1333.71 545.501 1331.53 555.717 1332.36 563.43 C 1335.48 592.619 1331.42 619.149 1333.42 648.502 C 1335.17 674.264 1331.43 703.389 1331.77 728.969 C 1332.38 775.329 1341.13 824.817 1309.6 864.196 C 1306.52 867.959 1282.85 889.158 1278.11 892.442 C 1252.21 910.376 1234.37 906.306 1206.46 906.664 L 1146.25 907.261 C 1117.53 907.756 1102.1 911.681 1071.61 904.736 C 1064.33 904.786 1054.36 906.135 1047.49 905.617 C 1026.14 904.008 1006.11 906.675 984.947 908.01 C 978.747 908.401 968.237 903.615 961.854 903.533 C 955.194 903.447 947.745 906.115 940.998 906.014 C 932.751 906.438 916.212 901.741 908.825 902.901 C 888.546 906.085 871.883 906.84 851.313 904.52 C 843.425 904.029 833.334 905.973 825.684 905.288 C 796.479 902.673 768.105 901.998 744.13 882.577 C 725.955 867.854 714.253 839.91 708.766 817.521 C 705.356 803.609 706.026 786.694 705.525 772.449 C 705.712 764.933 703.614 754.692 704.46 747.516 C 706.532 729.93 706.68 714.117 705.533 696.521 C 705.004 688.415 706.758 678.903 706.136 670.525 C 706.175 662.268 703.704 652.216 704.419 644.145 C 705.889 627.555 705.97 611.63 705.727 595.028 C 705.21 588.783 709.171 572.671 707.934 567.29 C 704.328 551.608 705.853 541.686 706.314 525.893 C 706.917 505.297 705.512 483.581 706.348 463.035 C 706.746 453.249 717.933 424.121 724.429 415.503 C 735.674 402.347 761.645 381.515 778.896 375.108 C 800.251 369.975 836.28 369.752 859.063 368.567 C 864.065 368.306 876.633 370.207 882.891 370.201 C 890.489 370.192 900.318 368.948 907.003 369.102 C 927.47 369.576 942.391 368.803 962.591 366.361 z" fill="rgb(34,30,26)" transform="translate(0,0)"></path>
<path d="M 958.591 385.353 C 968.275 384.598 980.474 386.82 989.906 386.06 C 1010.03 384.439 1030.09 386.777 1049.68 387.116 C 1069.44 387.459 1084.41 385.6 1105 387.887 C 1119.64 389.513 1139.69 385.57 1155.49 388.931 C 1181.37 390.638 1218.41 383.968 1243.54 390.653 C 1274.83 398.974 1306.58 425.586 1308.65 460.02 C 1310.11 484.37 1308.7 503.826 1308.42 527.206 C 1308.14 550.287 1310.97 575.479 1311.47 598.653 C 1311.14 639.474 1311.72 679.919 1309.27 720.726 C 1308.35 736.059 1310.31 759.266 1310.37 775.655 C 1312.26 798.332 1312.58 831.069 1296.99 849.289 C 1271.09 879.561 1244.23 894.417 1203.99 887.755 C 1189.41 890.562 1170.95 885.702 1157.52 887.248 C 1134.36 889.911 1103.46 885.929 1081.26 888.592 C 1072.35 887.553 1059.73 888.146 1050.29 888.149 L 991.003 888.285 C 983.046 888.238 974.828 886.878 967.042 886.93 C 947.26 887.061 927.77 887.109 907.997 886.027 C 899.236 885.246 885.852 888.42 877.599 887.284 C 849.941 883.476 822.12 888.333 794.756 883.584 C 787.472 882.32 764.282 871.165 758.296 866.759 C 740.515 853.671 731.063 828.988 728.106 807.876 C 726.243 798.845 728.834 786.059 727.491 777.51 C 724.005 755.326 728.211 734.877 728.374 713.493 L 728.528 569.959 C 728.481 562.943 726.855 552.5 727.053 546.474 C 727.456 534.56 728.371 524.71 727.807 512.664 C 726.42 483.099 721.797 449.167 740.722 423.714 C 745.274 417.592 771.822 398.465 779.059 396.143 C 802.654 388.57 831.86 387.701 856.671 387.107 C 864.812 386.897 874.753 389.411 883.095 389.142 C 891.666 389.118 902.968 387.004 910.326 387.186 C 928.562 387.638 940.402 387.674 958.591 385.353 z" fill="rgb(76,112,254)" transform="translate(0,0)"></path>
<path d="M 823.875 587.628 C 850.991 587.91 872.794 610.026 872.691 637.143 C 872.588 664.259 850.617 686.209 823.501 686.285 C 796.129 686.363 773.928 664.14 774.031 636.768 C 774.135 609.396 796.505 587.343 823.875 587.628 z" fill="rgb(34,30,26)" transform="translate(0,0)"></path>
<path d="M 824.614 607.479 C 827.706 607.472 830.411 607.517 833.541 607.444 C 846.494 614.505 854.888 623.806 853.541 639.407 C 851.997 657.286 841.761 662.893 825.829 667.162 C 816.706 667.602 813.055 667.289 804.543 661.928 C 799.362 658.665 795.722 652.593 795.02 646.51 C 793.842 636.315 793.8 624.218 800.891 615.966 C 807.929 607.776 814.836 608.435 824.614 607.479 z" fill="rgb(76,112,254)" transform="translate(0,0)"></path>
<path d="M 814.645 734.624 C 832.209 731.642 850.008 738.416 861.146 752.32 C 872.283 766.224 875.007 785.074 868.261 801.562 C 861.516 818.051 846.362 829.587 828.673 831.699 C 802.239 834.855 778.112 816.352 774.305 790.004 C 770.498 763.656 788.399 739.08 814.645 734.624 z" fill="rgb(34,30,26)" transform="translate(0,0)"></path>
<path d="M 820.75 752.568 C 837.658 751.491 852.264 764.269 853.444 781.171 C 854.624 798.072 841.936 812.755 825.042 814.039 C 808.001 815.333 793.163 802.511 791.972 785.462 C 790.782 768.414 803.695 753.655 820.75 752.568 z" fill="rgb(76,112,254)" transform="translate(0,0)"></path>
<path d="M 817.298 443.286 C 831.319 443.323 843.288 445.388 854.635 454.228 C 864.658 461.961 871.169 473.383 872.717 485.948 C 875.772 511.1 856.604 533.679 831.959 536.583 C 761.417 546.969 754.323 454.962 817.298 443.286 z" fill="rgb(34,30,26)" transform="translate(0,0)"></path>
<path d="M 825.13 462.359 C 831.846 461.628 836.47 464.522 842.539 467.248 C 853.444 482.122 853.798 482.405 852.993 501.006 C 844.48 512.87 838.507 516.573 824.858 521.435 C 797.176 520.297 787.799 496.066 800.916 473.007 C 805.677 464.637 816.762 464.008 825.13 462.359 z" fill="rgb(76,112,254)" transform="translate(0,0)"></path>
<path d="M 1150.41 475.34 C 1164.04 475.022 1173.94 478.462 1187.04 479.281 C 1198.68 480.009 1236.56 472.282 1243.63 483.491 C 1246.67 501.058 1218.42 494.782 1209.53 496.563 C 1189.02 500.675 1174.13 498.222 1153.94 495.389 C 1149.13 494.715 1139.46 496.557 1133.82 496.531 C 1111.9 496.43 1089.83 496.723 1067.92 495.617 C 1049.5 494.619 1031.68 496.94 1013.37 498.281 C 995.583 496.328 976.524 497.729 958.532 495.998 C 948.273 495.011 924.979 504.119 919.132 491.417 C 919.336 484.718 922.382 482.329 926.902 477.615 L 1074.99 477.007 C 1095.59 476.901 1131.43 478.317 1150.41 475.34 z" fill="rgb(34,30,26)" transform="translate(0,0)"></path>
<path d="M 941.054 775.408 C 952.677 774.589 966.219 776.464 978.021 776.697 C 998.539 777.101 1018.92 776.869 1039.43 776.608 C 1047.62 776.504 1057.31 778.09 1065.78 778.255 C 1073.22 778.4 1082.31 775.941 1088.97 775.956 C 1107.47 775.996 1129.46 777.294 1147.8 776.792 C 1174.25 776.069 1200.08 776.552 1226.57 776.278 C 1229.6 776.247 1237.8 776.906 1240.4 778.323 C 1243.34 779.922 1243.44 781.093 1244.38 783.756 C 1242.81 795.553 1232.22 795.026 1223.25 794.852 C 1214.18 795.379 1204.8 794.525 1195.84 795.086 C 1171.12 796.635 1147.53 795.183 1123 794.114 C 1105.72 793.362 1084.8 795.599 1067.36 795.485 C 1059.16 795.431 1050.8 794.624 1042.59 794.531 C 1025.74 793.777 1007.48 795.991 990.765 794.884 C 971.546 792.777 953.812 792.967 934.581 794.042 C 927.881 794.417 919.753 793.42 919.475 785.531 C 921.111 781.421 923.055 780.106 926.274 777.068 C 930.879 776.33 936.353 775.899 941.054 775.408 z" fill="rgb(34,30,26)" transform="translate(0,0)"></path>
<path d="M 934.98 626.337 C 946.909 624.919 957.213 627.944 969.04 627.229 C 1011.47 624.663 1054.07 628.866 1096.38 627.438 C 1145.35 625.785 1194.09 628.612 1242.95 628.272 C 1244.54 628.261 1246.69 632.618 1246.92 634.178 C 1247.3 636.657 1246.64 639.185 1245.1 641.161 C 1242.12 645.031 1237.46 644.991 1232.8 645.538 C 1226.09 645.819 1213.86 644.929 1206.56 644.687 L 1152.85 643.279 C 1139.22 643.04 1123.03 646.261 1107.38 645.506 C 1088.48 644.593 1067.97 644.842 1048.95 644.579 C 1041.82 644.48 1029.3 642.547 1022.93 643.025 C 1011.73 643.865 995.879 642.149 985.548 643.008 C 964.762 644.736 946.129 645.964 925.044 644.066 C 921.284 643.728 918.377 641.356 916.251 638.329 C 914.81 627.704 927.637 627.208 934.98 626.337 z" fill="rgb(34,30,26)" transform="translate(0,0)"></path>
<path d="M 834.905 937.586 C 846.812 935.91 860.105 938.488 872.385 938.364 C 926.052 937.821 979.851 937.702 1033.51 938.812 C 1039.14 938.928 1044.99 938.25 1050.64 938.287 C 1069.32 939.638 1089.17 935.394 1107.49 938.009 C 1119.33 941.318 1133.01 937.871 1143.97 938.964 C 1161.04 940.668 1173.21 938.955 1189.9 938.015 C 1207.2 936.992 1224.54 937.154 1241.82 938.498 C 1258.08 939.765 1260.02 940.783 1273.47 948.629 C 1291.81 959.325 1325.52 1000.63 1328.06 1020.87 C 1330.84 1042.93 1329.81 1079.35 1329.82 1102.14 C 1329.82 1110.84 1333.44 1122.46 1333.1 1130.99 C 1332.74 1140.15 1329.35 1149.54 1329.63 1159.63 C 1329.93 1170.21 1334.56 1183.33 1333.1 1193.56 C 1329.4 1219.39 1326.02 1235.33 1311.44 1257.87 C 1299.39 1276.48 1274.86 1296.84 1253.59 1303.46 C 1248.76 1304.97 1228.2 1305.45 1221.31 1306.21 C 1213.37 1307.1 1208.85 1308.09 1200.92 1309.73 C 1190.46 1310.66 1182.53 1308.36 1172.44 1308.05 C 1158.79 1307.63 1144.36 1308.96 1130.71 1308.75 C 1120.64 1308.6 1110.14 1307.02 1100 1307.05 L 897.82 1307.7 C 886.249 1307.83 874.767 1310.08 863.343 1310.51 C 854.899 1310.83 845.175 1308.84 836.525 1308.91 C 827.399 1308.99 816.132 1310.6 807.274 1308.6 C 797.323 1306.37 780.914 1304.58 772.506 1299.11 C 768.683 1296.63 762.309 1290.93 758.271 1287.89 C 754.258 1284.87 745.254 1279.74 742.345 1276.94 C 723.927 1259.19 709.871 1237.07 708.207 1210.9 C 707.561 1200.75 707.878 1192.71 707.84 1182.87 C 707.801 1172.55 707.205 1162.68 707.275 1152.42 C 707.313 1146.78 709.599 1137.61 709.367 1132.61 C 708.888 1122.25 707.748 1112.29 707.466 1101.8 C 707.179 1091.12 709.512 1077.79 709.033 1067.72 C 708.206 1050.38 705.647 1037.3 709.011 1019.59 C 711.146 1008.35 721.461 991.113 728.3 983.34 C 731.248 979.988 760.184 953.642 762.173 952.912 C 774.507 948.383 800.511 941.111 814.043 938.274 C 815.992 937.866 829.54 938.088 833.784 937.698 L 834.905 937.586 z" fill="rgb(34,30,26)" transform="translate(0,0)"></path>
<path d="M 841.52 955.414 C 859.647 955.839 877.546 958.02 895.682 958.348 C 910.773 958.621 926.725 955.982 941.656 955.837 L 1095.99 955.881 C 1104.34 955.959 1114.43 959.036 1122.45 958.83 C 1132.22 958.578 1142.25 956.32 1152.23 956.408 C 1160.78 956.484 1177.54 960.155 1185.2 959.114 C 1205.46 956.36 1219.04 953.165 1240.09 955.338 C 1261.97 957.596 1282.59 980.618 1296.54 996.136 C 1308.67 1009.64 1309.44 1032.24 1309.48 1048.62 C 1309.52 1064.64 1311.98 1060.81 1309.45 1079.44 C 1281.84 1089.49 1259.84 1109.32 1234.07 1121.62 C 1220.1 1125.97 1200.3 1135.33 1186.34 1138.11 C 1162.09 1142.94 1148.14 1149.93 1126.8 1161.54 C 1122.71 1163.76 1104.89 1167.6 1098.88 1169.59 C 1094.17 1171 1090.4 1171.45 1085.59 1172.18 C 1068.33 1162.87 1051.29 1143.05 1027.96 1139.16 C 1015.45 1126.73 1006.5 1126.75 992.367 1118.41 C 961.295 1099.02 931.048 1083.96 894.103 1081.44 C 843.518 1077.98 798.055 1117.49 762.546 1149.22 C 752.148 1158.51 744.505 1173.87 730.116 1186.05 C 729.121 1177.99 726.868 1160.9 727.555 1153.2 C 729.198 1134.79 729.246 1118.43 727.986 1099.96 C 727.509 1092.97 730.197 1082.51 729.791 1075.15 C 728.743 1056.16 727.339 1037.75 731.158 1018.89 C 734.311 998.849 753.287 986.516 766.327 972.557 C 769.595 969.059 803.588 958.491 808.953 958.205 C 819.117 957.663 830.585 957.066 841.52 955.414 z" fill="rgb(76,112,254)" transform="translate(0,0)"></path>
<path d="M 1215.59 985.289 C 1254.04 981.985 1267.11 1018.14 1252.31 1048.14 C 1245.16 1062.62 1233.62 1081.92 1221.76 1092.69 C 1209.6 1093.06 1199.4 1066.94 1193.8 1057.93 C 1173.17 1024.77 1172.76 998.62 1215.59 985.289 z" fill="rgb(34,30,26)" transform="translate(0,0)"></path>
<path d="M 1218.18 1005.3 C 1253.38 1004.78 1236.84 1042.19 1223.51 1058.53 C 1208.79 1054.35 1189.5 1011.17 1218.18 1005.3 z" fill="rgb(76,112,254)" transform="translate(0,0)"></path>
<path d="M 1096.18 1035.31 C 1098.84 1035.17 1102.63 1034.85 1105.02 1035.78 C 1148 1052.66 1140.98 1091.34 1116.61 1120.84 C 1110.14 1128.68 1107.48 1135.53 1097.91 1140.88 C 1093.45 1140.99 1090.04 1140.17 1087.43 1136.5 C 1062.94 1102.05 1034.16 1047.32 1096.18 1035.31 z" fill="rgb(34,30,26)" transform="translate(0,0)"></path>
<path d="M 1096.2 1053.2 C 1107.54 1054.34 1115.84 1065.19 1116.66 1076 C 1117.34 1084.93 1105.07 1102.8 1098.84 1109.17 C 1092.16 1107.09 1087.28 1099.98 1084.01 1094.17 C 1077.29 1082.22 1077.87 1074.63 1081.17 1062.17 C 1087.4 1055.64 1087.89 1054.87 1096.2 1053.2 z" fill="rgb(76,112,254)" transform="translate(0,0)"></path>
<path d="M 1306.79 1099.63 L 1308.23 1100.9 C 1314.23 1122.86 1307.06 1142.29 1307.04 1162.09 C 1307.02 1184.38 1314.39 1206.76 1304.39 1229.58 C 1293.52 1255.61 1278.75 1274.33 1251.5 1284.89 C 1234.76 1291.38 1206.55 1288.12 1187.95 1289.81 C 1177.94 1290.73 1163.83 1286.84 1153.16 1287.63 C 1143.25 1288.36 1133.21 1289.19 1123.29 1289.68 C 1100.74 1287.85 1079.99 1288.43 1057.53 1290.58 C 1049.81 1291.31 1038.75 1287.81 1030.45 1288.38 C 1019.01 1289.15 1007.74 1291.28 996.288 1291.59 C 988.446 1292.54 970.44 1287.02 963.736 1288.34 C 944.067 1292.19 928.685 1290.44 909.077 1290.39 L 837.725 1289.51 C 826.712 1289.32 806.038 1291.98 796.384 1287.43 C 758.671 1269.66 746.3 1259.47 732.031 1221.95 C 742.838 1200.03 793.135 1140.86 814.565 1132.09 C 827.184 1126.86 831.967 1114.06 854.212 1107.9 C 872.061 1100.1 897.162 1099.14 916.29 1104.36 C 938.031 1110.3 963.235 1125.02 983.206 1135.71 C 996.76 1142.96 1009.99 1150.96 1023.18 1158.23 C 1047.9 1171.87 1069.61 1185.23 1092.05 1202.63 C 1116.09 1217.88 1145.18 1231.54 1170.94 1243.86 C 1178.97 1247.69 1209.61 1261.53 1213.83 1248.84 C 1214.68 1246.22 1214.43 1243.38 1213.14 1240.95 C 1208.84 1232.97 1201.41 1236.48 1192.7 1233.56 C 1182.38 1230.07 1173.07 1224.14 1163.39 1219.12 C 1147.11 1210.67 1117.1 1198.93 1104.16 1186.73 C 1110.56 1185.09 1130.88 1179.62 1136.59 1176.93 C 1152.97 1169.21 1166.96 1162.74 1184.23 1156.24 C 1190.31 1153.11 1197.94 1153.79 1204.13 1151.7 C 1231.02 1142.58 1254.2 1134.25 1278.09 1118.34 C 1289.59 1110.67 1295.73 1110.75 1306.79 1099.63 z" fill="rgb(244,237,222)" transform="translate(0,0)"></path>
<path d="M 814.897 1332.33 C 823.086 1331.36 830.379 1333.15 837.541 1332.75 C 849.6 1330.75 866.392 1334.45 877.471 1333.21 C 896.403 1331.08 912.791 1333.96 930.938 1334.04 L 1229.93 1333.26 C 1256.25 1333.16 1291.31 1348.97 1309.4 1367 C 1325.74 1383.27 1333.31 1408.69 1332.33 1431.18 C 1332.86 1452.23 1324.53 1480.84 1308.37 1496.01 C 1280.55 1522.15 1254.83 1527.24 1218.75 1527.11 C 1208.96 1526.98 1198.25 1530.89 1188.26 1531.22 C 1182.73 1531.81 1170.62 1528.13 1165.76 1528.83 C 1140.89 1532.42 1122.43 1530.89 1098.14 1527.76 C 1080.58 1525.5 1053.71 1533.08 1035.27 1531.62 C 1022.6 1530.62 1010.24 1529.48 997.61 1527.74 C 988.291 1527.09 976.473 1529.73 966.872 1529.53 C 958.61 1530.45 940.943 1525.31 933.769 1526.63 C 918.274 1529.47 907.962 1530.77 892.017 1528.41 C 888.309 1527.86 876.297 1530.23 871.244 1530.24 C 862.661 1530.26 853.988 1530.1 845.392 1530.06 C 833.815 1529.59 810.411 1531.82 800.031 1529.76 C 781.778 1525.97 765.357 1521.84 749.329 1512.31 C 727.676 1499.44 713.755 1471.63 707.784 1447.93 C 704.15 1433.5 712.962 1393.02 721.405 1379.83 C 730.738 1365.25 754.371 1346.92 771.286 1340.64 C 780.64 1338.05 804.483 1334.12 814.897 1332.33 z" fill="rgb(34,30,26)" transform="translate(0,0)"></path>
<path d="M 899.082 1349.27 C 908.23 1348.76 922.916 1353.94 929.911 1352.77 C 953.07 1348.87 970.586 1349.14 993.752 1351.39 C 1003.78 1352.36 1018.94 1348.27 1030.02 1349.16 C 1051.96 1350.92 1073.83 1352.49 1095.72 1354.81 C 1109.97 1355.6 1129.08 1351.43 1142.84 1352.04 C 1170.56 1353.27 1186.84 1358.43 1214.73 1352.44 C 1235.86 1347.9 1275.83 1363.98 1292.66 1376.24 C 1296.71 1379.19 1298.66 1386.42 1300.83 1390.83 C 1310.33 1405.67 1310.67 1407.63 1311.92 1424.59 C 1313.65 1448.24 1309.75 1465 1293.02 1482.98 C 1283.87 1492.82 1266.91 1500.67 1254.5 1505.36 C 1245.72 1508.46 1235.65 1507.45 1226.87 1508.76 C 1198.69 1512.95 1169.9 1508.19 1142.26 1509.46 L 1140.65 1509.55 C 1115.3 1511.12 1089.07 1505.2 1061.77 1512.49 C 1052.2 1512.49 1039.72 1509.96 1030.49 1510.22 C 999.677 1511.07 970.137 1511.58 939.722 1507.77 C 919.434 1511.92 908.579 1509.1 888.492 1509.27 C 861.567 1510.12 835.122 1511.03 808.021 1510.45 C 765.613 1509.55 740.783 1488.57 728.335 1448.01 C 724.381 1435.13 731.751 1400.8 737.864 1389.01 C 741.845 1381.34 753.944 1372.06 761.177 1367.72 C 802.986 1338.73 854.628 1358.92 899.082 1349.27 z" fill="rgb(76,112,254)" transform="translate(0,0)"></path>
<path d="M 1023.33 1372.26 C 1062.67 1371.64 1050.13 1412.23 1051.83 1438.01 C 1052.55 1448.81 1038.19 1456.58 1029.41 1458.78 C 995.369 1459.18 1002.69 1426.98 1001.13 1404 C 1000 1387.35 1006.75 1376.11 1023.33 1372.26 z" fill="rgb(34,30,26)" transform="translate(0,0)"></path>
<path d="M 983.664 1422.33 C 985.332 1422.51 987.285 1422.86 988.97 1423.12 C 996.983 1430.73 984.784 1454.79 1014.27 1465.03 C 1024.26 1468.5 1035.24 1467.72 1044.65 1462.87 C 1061.35 1454.28 1059.99 1439.38 1064.19 1425.68 L 1067.83 1424.2 C 1074.49 1425.31 1073.09 1432.86 1072.33 1438.26 C 1070.34 1452.39 1063.07 1461.96 1051.81 1470.32 C 1044.28 1474.09 1039.98 1474.91 1031.82 1476.34 L 1031.95 1490.13 C 1037.26 1490.13 1044.38 1488.95 1047.82 1493.4 C 1048.52 1502.69 1029.95 1500.06 1023.99 1500.41 C 1019.27 1500.69 1011.19 1499.87 1007.57 1497.03 C 1006.48 1496.17 1006.89 1493.96 1006.88 1492.55 L 1008.36 1491.1 C 1022.68 1491.85 1022.47 1488.68 1022.09 1476.19 C 999.684 1472.85 981.096 1458.95 981.276 1433.78 C 981.308 1429.23 981.581 1426.59 983.664 1422.33 z" fill="rgb(34,30,26)" transform="translate(0,0)"></path>
<path d="M 1268.76 248.335 C 1280.74 249.274 1291.91 251.539 1301.63 258.628 C 1321.65 273.226 1323.52 301.593 1309 320.633 C 1292.98 341.634 1272.74 339.451 1249.22 338.337 C 1231.98 337.52 1216.35 336.348 1199.43 338.891 C 1165.14 340.164 1134.65 300.374 1155.49 270.27 C 1178.26 237.389 1233.24 254.859 1268.76 248.335 z" fill="rgb(34,30,26)" transform="translate(0,0)"></path>
<path d="M 1195.62 267.175 C 1203.33 266.087 1214.76 268.954 1223.02 268.927 C 1242.59 268.917 1263.38 264.437 1282.18 271.486 C 1295.69 276.549 1302.14 288.747 1296.3 302.647 C 1293.01 310.469 1283.62 314.327 1275.89 317.016 C 1255.86 321.01 1246.67 317.19 1226.96 317.23 C 1202.99 317.279 1157.13 322.883 1174.85 280.971 C 1178.2 273.035 1187.69 269.651 1195.62 267.175 z" fill="rgb(76,112,254)" transform="translate(0,0)"></path>
<path d="M 817.543 285.363 C 826.758 283.883 836.908 285.918 846.236 285.733 C 859.709 284.796 872.441 285.53 885.855 285.687 C 907.944 285.945 930.201 285.063 952.345 286.11 C 964.402 285.531 976.533 286.16 988.52 286.053 C 1001.45 285.938 1013.24 295.374 1000.22 305.931 C 996.832 308.66 992.777 310.442 988.472 311.097 C 985.562 311.52 973.032 309.493 966.869 309.586 C 950.109 309.838 931.119 312.937 914.752 311.527 C 906.314 310.561 897.811 309.477 889.312 309.355 C 874.42 309.141 859.396 310.783 844.482 311.039 C 829.477 311.296 734.248 310.684 729.206 307.811 C 726.608 306.33 724.929 303.967 724.316 301.048 C 723.607 297.67 724.161 293.639 726.266 290.838 C 728.182 288.289 730.806 287.219 733.849 286.601 C 739.962 285.359 746.504 285.967 752.715 285.902 C 771.47 285.707 799.918 288.002 817.543 285.363 z" fill="rgb(34,30,26)" transform="translate(0,0)"></path>
<path d="M 1393.82 232.812 C 1411.69 246.809 1413.86 255.789 1422.83 275.783 C 1431.86 295.91 1430.19 304.052 1431.63 325.444 C 1433 345.896 1432.31 365.97 1431.24 386.518 C 1430.93 397.174 1432.1 408.292 1432.02 419.003 C 1432.06 429.715 1431.26 442.898 1431.73 453.241 C 1432.81 477.072 1432.68 500.115 1432.49 523.939 C 1432.42 532.494 1434.49 543.624 1434.42 551.995 C 1434.2 571.094 1434.03 590.152 1434.48 609.256 C 1434.71 618.99 1431.64 629.59 1431.77 639.278 C 1432.12 666.305 1433.58 692.976 1431.81 720.001 C 1431.24 728.616 1433.31 738.755 1432.62 747.501 C 1432.39 761.629 1431.29 776.244 1431.22 790.306 L 1431.46 884.535 C 1431.47 891.138 1432.77 902.263 1432.33 907.995 C 1430.13 936.742 1431.2 964.708 1429.02 993.572 C 1429.49 1004.63 1429.45 1016.52 1430.28 1027.5 C 1431.01 1037.11 1429.59 1050.04 1430.92 1059.1 C 1433.89 1079.3 1432.49 1095.59 1430.69 1115.65 C 1430.11 1122.05 1434.08 1135.05 1433.53 1142.12 C 1427.98 1166.87 1428.54 1182.48 1432.89 1207.18 C 1433.94 1213.14 1429.32 1229.16 1429.89 1235.88 C 1430.88 1253.82 1430.53 1271.47 1430.2 1289.41 C 1430.05 1298.03 1432.41 1309.53 1431.69 1317.79 C 1429.29 1338.31 1429.23 1357.91 1428.83 1378.45 C 1428.6 1390.27 1430.56 1403.1 1430.2 1414.14 C 1429.21 1444.77 1431.83 1475.18 1430.47 1505.68 C 1429.75 1522.08 1417.61 1547.7 1408.29 1561.35 C 1385.66 1592.11 1355.63 1613.4 1317.11 1618.18 C 1308.47 1619.25 1298.57 1617.44 1289.88 1618.06 C 1258.65 1620.29 1227.64 1619.48 1196.43 1617.97 C 1161.91 1616.3 1113.84 1623.78 1080.58 1616.76 L 1071.77 1616.69 C 1067.24 1617.41 1059.57 1618.9 1055.16 1618.88 C 994.418 1618.57 933.568 1617.62 872.83 1619.01 C 849.325 1619.54 825.044 1617.81 801.407 1618.34 C 785.44 1618.7 760.877 1606.41 745.349 1601.85 C 743.856 1601.42 739.551 1596.83 738.28 1595.45 C 747.954 1596.75 758.647 1596.23 768.526 1597.16 C 789.826 1599.16 811.271 1597.71 832.489 1595.39 C 829.968 1598.35 827.547 1599.93 827.209 1603.94 C 831.117 1617.15 854.665 1613.47 865.133 1611.51 C 867.94 1610.99 869.501 1608.3 870.583 1605.9 C 870.511 1601.09 869.499 1600.89 866.368 1596.62 C 873.501 1591.52 934.552 1601.58 947.144 1595.95 C 949.6 1594.85 961.259 1593.54 964.174 1594 L 964.792 1594.96 C 963.31 1596.63 959.817 1600.41 959.734 1602.53 C 959.947 1617.77 982.458 1613.03 991.449 1613.6 C 1014.54 1615.08 1041.86 1611.53 1064.36 1614.08 C 1068.61 1614.02 1072.86 1614 1077.12 1614.01 L 1077.77 1613.07 C 1082.42 1606.22 1082.76 1603.59 1079.12 1596.17 C 1080.95 1595.25 1157.48 1595.51 1163.07 1595.85 C 1155.27 1605.54 1161.91 1612.86 1171.96 1612.86 C 1196.71 1612.84 1222.44 1615.33 1246.92 1613.48 C 1259.89 1612.5 1253.45 1597.25 1254.95 1595.84 C 1276.18 1593.54 1305.86 1594.45 1325.68 1585.85 C 1332.65 1582.82 1341.18 1574.66 1347.53 1571.02 C 1359.46 1564.17 1364.59 1564.04 1373.87 1552.12 C 1382.34 1541.25 1401.71 1509.68 1405.17 1497.11 C 1407.64 1488.17 1407.04 1457.2 1407.4 1446.48 C 1407.75 1436.21 1409.35 1426.84 1409.13 1416.43 C 1408.95 1407.48 1406.53 1395.62 1406.65 1387.3 L 1407.37 1266.86 C 1407.36 1253.36 1410.09 1241.3 1408.45 1227.67 C 1407.2 1217.2 1405.22 1204.6 1405.95 1194.25 C 1406.57 1185.6 1408.68 1177.9 1408.89 1168.94 L 1410.49 1073.19 C 1411.06 1050.27 1407.39 1025.86 1408.96 1002.51 C 1409.49 994.583 1406.74 982.611 1407.19 974.217 C 1410.56 951.38 1412.13 935.552 1407.14 912.737 C 1406.23 908.559 1410.62 892.491 1410.12 887.319 C 1410.51 855.067 1407.72 822.71 1409.58 790.55 C 1410.39 785.063 1408.2 772.896 1409.36 768.088 C 1413.76 749.805 1408.14 728.344 1409.75 711.447 C 1412.23 685.192 1411 664.868 1408.12 638.784 C 1407.09 629.396 1410.64 614.788 1410.89 604.969 C 1411.03 588.689 1412.23 572.688 1412.96 556.562 C 1413.61 542.351 1408.4 525.064 1409.04 510.593 C 1410.09 464.188 1408.54 417.912 1408.45 371.495 C 1408.43 357.182 1410.01 337.617 1408.5 323.579 C 1406.79 307.654 1406.78 290.895 1405.69 275.591 C 1404.94 265.024 1397.16 243.776 1393.82 232.812 z" fill="rgb(244,237,222)" transform="translate(0,0)"></path>
<path d="M 1654.39 410.178 C 1669.88 409.288 1685.78 412.582 1701.12 414.217 C 1708.7 415.025 1717.54 414.461 1724.97 415.556 C 1746.52 418.735 1767.68 420.214 1789.4 421.451 C 1798.55 421.997 1810.26 426.357 1819.18 426.859 C 1837.72 427.905 1854.87 430.404 1873.08 433.675 C 1881.56 435.173 1891.97 433.99 1900.66 435.186 C 1909.34 436.38 1917.68 438.361 1926.34 439.437 C 1940.37 440.178 1965.81 442.002 1978.85 446.443 C 1996.19 452.348 2008.24 469.817 2021.17 481.248 C 2028.12 487.399 2049.7 499.049 2055.52 505.253 C 2066.67 518.742 2078.52 549.173 2077.96 566.59 C 2077.34 585.776 2074.02 606.427 2074.3 626.225 C 2074.43 635.16 2068.67 650.291 2068.06 659.843 C 2066.78 665.729 2068.83 675.173 2067.64 680.721 C 2063.2 701.385 2061.09 721.203 2059.85 742.203 C 2059.34 751.006 2054.81 762.392 2053.74 771.358 C 2051.36 791.3 2049.25 810.428 2044.61 830.002 C 2043.17 838.216 2044.59 848.516 2043.22 856.518 C 2038.12 886.128 2034.6 915.191 2032.65 945.128 C 2031.93 956.171 2026.53 970.091 2025.28 981.431 C 2023.58 989.133 2024.54 997.992 2022.91 1005.6 C 2017.84 1029.33 2015.82 1060.7 1997.41 1078.57 C 1985.3 1090.33 1967.19 1101.96 1951.72 1108.02 C 1949.88 1108.74 1941.79 1108.83 1939.47 1108.88 C 1926.53 1108.61 1914.48 1110.18 1902.16 1109.7 C 1889.72 1109.23 1874.65 1103.45 1862.11 1101.81 C 1855.08 1100.47 1846.12 1101.6 1839.3 1100.38 C 1825.7 1097.95 1812.66 1096.28 1798.91 1095.04 C 1789.26 1093.99 1778.28 1090.45 1768.7 1089.77 C 1748.18 1088.32 1731.02 1091.67 1711.2 1083.84 C 1708.65 1082.83 1695.43 1082.88 1691.55 1082.33 C 1683.75 1081.21 1675.27 1079.97 1667.42 1078.65 C 1646.43 1077.14 1623.75 1075.67 1604.52 1065.04 C 1584.15 1053.79 1562.85 1026.04 1544.12 1011.08 C 1540.27 1007.99 1522.83 979.851 1521.61 975.384 C 1516.7 957.499 1518.12 932.149 1517.09 913.282 C 1516.8 908.321 1521.61 891.264 1521.93 885.267 C 1522.82 868.547 1524.28 852.33 1525.85 835.714 C 1526.93 824.248 1529.08 814.808 1530.63 803.803 C 1532.27 793.557 1529.24 779.138 1531.34 769.331 C 1534.89 752.748 1540.22 737.163 1541.68 719.989 C 1542.57 709.469 1539.33 700.141 1540.17 689.859 C 1540.56 683.302 1545.13 674.624 1545.37 668.371 C 1546.12 648.933 1549.8 630.767 1552.54 611.672 C 1555.11 593.816 1555.42 575.007 1557.67 557.073 C 1559.16 545.166 1562.12 533.314 1563.75 521.41 C 1565.13 509.756 1565.46 481.018 1571.59 471.183 C 1583.86 451.462 1603.33 426.442 1625.58 417.756 C 1633.75 414.562 1645.63 412.166 1654.39 410.178 z" fill="rgb(34,30,26)" transform="translate(0,0)"></path>
<path d="M 1660.01 428.366 C 1677.06 427.706 1683.29 432.094 1698.09 433.228 C 1718.71 434.807 1738.39 435.682 1759.05 439.691 C 1768.19 441.464 1780.85 439.945 1790.3 441.37 C 1810.35 444.393 1830.26 446.468 1850.46 447.923 C 1857.64 448.214 1868.19 452.03 1874.99 452.073 C 1893.97 452.193 1910.26 456.911 1928.5 460.78 C 1937.35 462.114 1950.4 459.428 1958.86 461.636 C 1983.05 467.945 2008.69 489.092 2014.77 514.181 C 2017.41 525.06 2018.95 540.779 2019.48 552.011 C 2019.78 558.185 2014.23 570.821 2013.96 577.491 C 2013.59 594.866 2015.09 607.257 2009.06 624.094 C 2008.03 626.949 2008.23 641.889 2007.54 646.425 C 2004.02 664.705 2003.35 682.539 2001.3 700.878 C 1999.57 716.462 1994.33 734.055 1993.43 750.304 C 1992.96 758.847 1987.71 772.069 1987.55 780.625 C 1987.14 804.354 1982.76 826.035 1978.77 849.226 C 1977.48 857.514 1979.97 874.252 1977.94 881.567 C 1971.65 904.331 1968.88 918.638 1968.67 941.917 C 1968.53 956.218 1961.76 976.616 1961.15 991.937 C 1960.91 998.155 1948.5 1019.19 1945.52 1025.83 C 1939.94 1036.21 1906.88 1050.22 1895.57 1052.59 C 1886.84 1052.46 1876.17 1050.73 1867.74 1051.06 C 1844.45 1051.98 1825.39 1047.8 1802.82 1043.31 C 1793.99 1041.55 1780.42 1044.07 1771 1042.32 C 1761.63 1040.57 1752.82 1036.13 1743.3 1035.27 C 1729.23 1033.48 1711.45 1035.18 1698.37 1033.52 C 1682.97 1031.55 1667.54 1028.84 1651.77 1027.41 C 1644.77 1026.78 1634.17 1023.85 1626.46 1023.08 C 1621.6 1022.6 1604.93 1023.62 1602 1022.51 C 1592.8 1019.01 1571.03 1010.8 1564.12 1003.89 C 1556.09 994.704 1542.81 979.066 1537.83 968.095 C 1532 955.25 1535.71 926.834 1535.92 912.687 C 1536 906.721 1538.87 897.947 1539.28 891.782 C 1540.43 874.499 1544.22 857.864 1545.66 840.607 C 1546.29 833.874 1549.3 824.657 1549.94 817.012 C 1550.68 808.069 1552.12 799.013 1552.57 789.965 C 1553.21 785.276 1551.52 773.475 1552.68 769.511 C 1560.17 744.049 1561.39 721.308 1560.96 694.932 C 1560.86 688.319 1564.4 677.109 1564.87 669.955 C 1566.19 664.023 1565.31 654.762 1566.87 649.143 C 1570.88 634.81 1571.11 623.079 1571.29 608.508 C 1571.39 600.464 1575.02 588.878 1575.35 580.361 C 1576.01 563.306 1578.67 547.106 1582.1 530.45 C 1584.17 520.572 1582.42 508.099 1584.97 498.011 C 1588.17 485.377 1594.5 468.567 1602.72 458.162 C 1616.57 443.313 1639.39 429.518 1660.01 428.366 z" fill="rgb(244,237,222)" transform="translate(0,0)"></path>
<path d="M 1626.49 706.044 C 1633 705.638 1641.93 707.755 1648.96 707.819 C 1691.92 708.046 1733.8 719.019 1776.64 720.319 C 1800.81 721.053 1822.87 725.761 1846.75 727.605 C 1856.8 728.38 1867.92 729.638 1877.76 731.048 C 1884.44 732.006 1961.06 733.283 1932.14 753.279 C 1919.76 754.649 1913.92 752.591 1902.27 751.944 C 1890.16 752.677 1875.86 749 1864.36 748.932 C 1842.84 748.804 1826.12 744.11 1805.44 740.717 C 1785.95 737.519 1764.69 737.795 1744.95 735.601 L 1661.06 726.867 C 1651.2 725.912 1641.53 723.725 1631.57 723.409 C 1619.73 723.034 1617.37 713.311 1626.49 706.044 z" fill="rgb(34,30,26)" transform="translate(0,0)"></path>
<path d="M 1638.99 623.044 C 1643.37 622.628 1648.31 623.716 1652.8 624.125 C 1673.58 626.019 1694.17 628.539 1714.75 631.965 C 1722.53 633.26 1733.6 630.564 1741.68 631.141 C 1748.64 631.63 1755.91 634.155 1763.31 634.879 L 1844.86 642.232 C 1850.17 642.685 1863.45 642.804 1869.1 643.907 C 1885.16 647.043 1903.44 650.73 1919.57 652.407 C 1929.26 653.416 1947.34 653.712 1946.68 665.245 C 1944.6 669.181 1943.59 669.376 1939.58 671.784 C 1925.24 671.529 1907.8 666.562 1893.15 665.406 C 1864.06 663.11 1835.3 659.449 1806.36 656.231 L 1693.33 644.375 C 1682.8 643.333 1671.04 644.529 1660.61 642.4 C 1652.26 640.695 1631.1 641.174 1632.23 629.551 C 1634.54 625.604 1634.97 625.546 1638.99 623.044 z" fill="rgb(34,30,26)" transform="translate(0,0)"></path>
<path d="M 1649.78 538.201 C 1664.72 535.865 1682.44 539.57 1697.1 541.664 C 1705.04 542.798 1713.41 542.386 1721.4 543.803 C 1729.59 545.257 1737.73 547.582 1746 548.432 L 1805.9 554.128 C 1852.31 558.865 1898.8 563.278 1945.33 566.778 C 1956.03 567.584 1963.89 575.817 1952.87 584.117 C 1940.06 587.466 1912.6 581.924 1899.09 580.369 C 1876.01 577.714 1854.41 575.293 1831.11 574.392 C 1814.25 573.74 1794.78 568.504 1777.1 568.236 C 1764.86 568.05 1751.02 566.047 1738.6 565.95 C 1710.3 562.166 1682.11 557.221 1653.77 553.865 C 1644.66 552.785 1640.73 544.997 1649.78 538.201 z" fill="rgb(34,30,26)" transform="translate(0,0)"></path>
<path d="M 1621.87 789.918 C 1636.5 793.064 1652.62 795.183 1667.58 796.037 C 1673.37 796.368 1679.19 795.318 1684.98 795.886 C 1691.85 796.561 1698.69 798.8 1705.51 799.975 C 1713.24 801.306 1721.15 801.581 1728.92 802.671 C 1737.58 803.884 1746.21 806.133 1754.88 807.05 C 1761.22 807.72 1767.65 805.816 1774.02 806.243 C 1780.84 806.699 1787.28 809.468 1794.02 810.255 C 1817.22 812.963 1912.67 818.709 1926.13 828.245 C 1928.22 831.904 1927.78 829.999 1927.57 834.154 C 1925.64 837.787 1925.05 837.894 1921.46 840.241 C 1914.33 841.23 1896.85 837.021 1888.97 836.584 C 1875.01 835.81 1860.95 833.541 1847.28 832.139 L 1774.12 824.575 C 1724 819.867 1670.05 813.833 1620.42 805.48 C 1616.77 804.866 1614.14 800.139 1614.68 796.172 C 1617.01 792.431 1617.91 792.251 1621.87 789.918 z" fill="rgb(34,30,26)" transform="translate(0,0)"></path>
<path d="M 1606.9 900.939 C 1613.37 900.889 1620.98 902.865 1628.21 903.172 C 1637.97 903.586 1646.93 903.248 1656.75 903.825 C 1666.42 904.393 1675.39 906.737 1685.32 907.917 C 1699.16 909.564 1716.86 907.813 1728.56 917.476 C 1730.77 919.3 1730.57 921.382 1730.66 923.631 C 1729.2 927.053 1728.36 927.296 1725.19 929.588 C 1705.31 932.714 1671.87 924.367 1651.25 922.228 C 1638.93 920.95 1605.05 926.359 1601.44 909.997 C 1602.26 906.129 1604.4 904.095 1606.9 900.939 z" fill="rgb(34,30,26)" transform="translate(0,0)"></path>
<path d="M 2042.52 1345.59 C 2054.94 1344.32 2101.87 1340.89 2107.09 1353.66 C 2106.49 1357.8 2102.01 1363.71 2097.9 1363.66 C 2075.56 1363.37 2052.55 1366.3 2030.36 1365.84 C 2015.52 1363.93 1999 1368.6 1984.56 1367.85 C 1967.8 1366.98 1951.84 1367.42 1935.25 1367.32 C 1917.79 1366.4 1899.86 1366.66 1882.43 1365.81 C 1878.41 1365.62 1874.57 1363.07 1872.32 1359.68 C 1872.1 1356.16 1872.33 1356.22 1873.99 1353.24 C 1887 1342.91 1945.91 1349.76 1964.98 1347.91 C 1989.98 1345.48 2017 1347.79 2042.52 1345.59 z" fill="rgb(34,30,26)" transform="translate(0,0)"></path>
<path d="M 1740.06 1233.34 C 1747.68 1232.84 1806.72 1232.25 1789.42 1250.26 C 1779.99 1254.59 1746.54 1249.55 1733.91 1252.07 C 1729.99 1252.86 1720.85 1253.51 1716.75 1253.47 C 1699.43 1252.04 1684.23 1255.82 1667.16 1253.79 C 1663.84 1253.39 1662.02 1250.42 1660.45 1247.71 C 1660.42 1246.33 1660.08 1245.6 1661.01 1244.45 C 1668.98 1234.57 1724.68 1235.85 1740.06 1233.34 z" fill="rgb(34,30,26)" transform="translate(0,0)"></path>
<path d="M 430.515 1079.37 C 437.764 1078.03 449.855 1079.18 456.983 1081.23 C 459.656 1082 463.144 1089.12 460.947 1090.95 C 443.843 1105.18 411.821 1094.46 391.353 1101 C 390.987 1101.14 390.621 1101.27 390.254 1101.41 C 384.773 1102.69 367.513 1103.98 362.541 1100.91 C 349.11 1080.42 419.018 1080.54 430.515 1079.37 z" fill="rgb(34,30,26)" transform="translate(0,0)"></path>
<metadata><recraft-signature>{"signed_by": "recraft", "signature_b64": "VhpLbu/Mlunbbi/RKUQ5LS2VhISi8t+WRblPRm6MDGOCP6a1+4IL1c7NZPDI0c03nhPkn/WAhYxUBBSUEpkBCQ==", "signing_algo": "Ed25519", "generation_timestamp": 1782911637, "identifier": "0918c913-e6a4-4108-b8e7-ee7ddec4f353"}</recraft-signature></metadata></svg>